M48
INCH,TZ
T1C0.0118
T2C0.0236
T3C0.0394
T4C0.0429
%
G90
G05
T1
X81640Y-46255
X81640Y-46555
X81640Y-46855
X81640Y-47155
X81640Y-47455
X81640Y-47755
X81640Y-48055
X81640Y-48355
X81940Y-46255
X81940Y-46555
X81940Y-46855
X81940Y-47155
X81940Y-47455
X81940Y-47755
X81940Y-48055
X81940Y-48355
X82240Y-46255
X82240Y-46555
X82240Y-46855
X82240Y-47155
X82240Y-47455
X82240Y-47755
X82240Y-48055
X82240Y-48355
X82540Y-46255
X82540Y-46555
X82540Y-46855
X82540Y-47155
X82540Y-47455
X82540Y-47755
X82540Y-48055
X82540Y-48355
X82840Y-46255
X82840Y-46555
X82840Y-46855
X82840Y-47155
X82840Y-47455
X82840Y-47755
X82840Y-48055
X82840Y-48355
X83740Y-47055
X83740Y-47355
X83740Y-47655
X84040Y-47055
X84040Y-47355
X84040Y-47655
X84340Y-47055
X84340Y-47355
X84340Y-47655
X84640Y-47055
X84640Y-47355
X84640Y-47655
X84940Y-47055
X84940Y-47355
X84940Y-47655
X92440Y-46255
X92440Y-46555
X92440Y-46855
X92440Y-47155
X92440Y-47455
X92440Y-47755
X92440Y-48055
X92440Y-48355
X92740Y-46255
X92740Y-46555
X92740Y-46855
X92740Y-47155
X92740Y-47455
X92740Y-47755
X92740Y-48055
X92740Y-48355
X93040Y-46255
X93040Y-46555
X93040Y-46855
X93040Y-47155
X93040Y-47455
X93040Y-47755
X93040Y-48055
X93040Y-48355
X93340Y-46255
X93340Y-46555
X93340Y-46855
X93340Y-47155
X93340Y-47455
X93340Y-47755
X93340Y-48055
X93340Y-48355
X93640Y-46255
X93640Y-46555
X93640Y-46855
X93640Y-47155
X93640Y-47455
X93640Y-47755
X93640Y-48055
X93640Y-48355
X94640Y-47055
X94640Y-47355
X94640Y-47655
X94940Y-47055
X94940Y-47355
X94940Y-47655
X95240Y-47055
X95240Y-47355
X95240Y-47655
X95540Y-47055
X95540Y-47355
X95540Y-47655
X95840Y-47055
X95840Y-47355
X95840Y-47655
T2
X81299Y-40512
X81440Y-44855
X82047Y-42677
X82240Y-44455
X83071Y-39724
X84291Y-39724
X88640Y-57955
X89240Y-57955
X89840Y-57955
X90440Y-57955
X90540Y-50755
X90540Y-51255
X90540Y-51755
X90540Y-52255
X91740Y-45655
X92540Y-53355
X93140Y-44655
X99940Y-50555
X99940Y-51055
X99940Y-51555
X99940Y-52055
X100240Y-48255
T3
X82035Y-37886
X82035Y-38886
X83035Y-37886
X83035Y-38886
X84035Y-37886
X84035Y-38886
X85035Y-37886
X85035Y-38886
X86035Y-37886
X86035Y-38886
X87035Y-37886
X87035Y-38886
X88035Y-37886
X88035Y-38886
X88240Y-40305
X88240Y-41305
X89035Y-37886
X89035Y-38886
X89240Y-40305
X89240Y-41305
X90035Y-37886
X90035Y-38886
X91035Y-37886
X91035Y-38886
X91040Y-40305
X91040Y-41755
X92035Y-37886
X92035Y-38886
X92040Y-40305
X92040Y-41755
X93035Y-37886
X93035Y-38886
X93040Y-40305
X93040Y-41755
X94035Y-37886
X94035Y-38886
X94040Y-40305
X94040Y-41755
X95035Y-37886
X95035Y-38886
X95240Y-55755
X95240Y-56755
X96035Y-37886
X96035Y-38886
X96240Y-55755
X96240Y-56755
X97035Y-37886
X97035Y-38886
X97240Y-55755
X97240Y-56755
X98035Y-37886
X98035Y-38886
X98240Y-55755
X98240Y-56755
X99035Y-37886
X99035Y-38886
X100035Y-37886
X100035Y-38886
X101035Y-37886
X101035Y-38886
X102540Y-43655
X102540Y-44655
X102540Y-45655
X102540Y-46655
T4
X81265Y-41396
X82265Y-41396
X83265Y-41396
X84265Y-41396
T3
G00X89146Y-54355
M15
G01X89934Y-54355
M16
G05
G00X89146Y-56717
M15
G01X89934Y-56717
M16
G05
G00X91391Y-55930
M15
G01X91391Y-55143
M16
G05
M30
