G04 #@! TF.GenerationSoftware,KiCad,Pcbnew,9.0.0*
G04 #@! TF.CreationDate,2025-03-30T18:48:23-05:00*
G04 #@! TF.ProjectId,2019-Pi-Power,32303139-2d50-4692-9d50-6f7765722e6b,V2*
G04 #@! TF.SameCoordinates,Original*
G04 #@! TF.FileFunction,Paste,Top*
G04 #@! TF.FilePolarity,Positive*
%FSLAX46Y46*%
G04 Gerber Fmt 4.6, Leading zero omitted, Abs format (unit mm)*
G04 Created by KiCad (PCBNEW 9.0.0) date 2025-03-30 18:48:23*
%MOMM*%
%LPD*%
G01*
G04 APERTURE LIST*
G04 Aperture macros list*
%AMRoundRect*
0 Rectangle with rounded corners*
0 $1 Rounding radius*
0 $2 $3 $4 $5 $6 $7 $8 $9 X,Y pos of 4 corners*
0 Add a 4 corners polygon primitive as box body*
4,1,4,$2,$3,$4,$5,$6,$7,$8,$9,$2,$3,0*
0 Add four circle primitives for the rounded corners*
1,1,$1+$1,$2,$3*
1,1,$1+$1,$4,$5*
1,1,$1+$1,$6,$7*
1,1,$1+$1,$8,$9*
0 Add four rect primitives between the rounded corners*
20,1,$1+$1,$2,$3,$4,$5,0*
20,1,$1+$1,$4,$5,$6,$7,0*
20,1,$1+$1,$6,$7,$8,$9,0*
20,1,$1+$1,$8,$9,$2,$3,0*%
G04 Aperture macros list end*
%ADD10RoundRect,0.225000X0.250000X-0.225000X0.250000X0.225000X-0.250000X0.225000X-0.250000X-0.225000X0*%
%ADD11RoundRect,0.225000X-0.225000X-0.250000X0.225000X-0.250000X0.225000X0.250000X-0.225000X0.250000X0*%
%ADD12RoundRect,0.225000X-0.250000X0.225000X-0.250000X-0.225000X0.250000X-0.225000X0.250000X0.225000X0*%
%ADD13RoundRect,0.200000X0.200000X0.275000X-0.200000X0.275000X-0.200000X-0.275000X0.200000X-0.275000X0*%
%ADD14RoundRect,0.200000X0.275000X-0.200000X0.275000X0.200000X-0.275000X0.200000X-0.275000X-0.200000X0*%
%ADD15RoundRect,0.200000X-0.275000X0.200000X-0.275000X-0.200000X0.275000X-0.200000X0.275000X0.200000X0*%
%ADD16RoundRect,0.200000X-0.200000X-0.275000X0.200000X-0.275000X0.200000X0.275000X-0.200000X0.275000X0*%
%ADD17R,2.700000X3.600000*%
%ADD18RoundRect,0.150000X-0.150000X0.800000X-0.150000X-0.800000X0.150000X-0.800000X0.150000X0.800000X0*%
%ADD19R,1.700000X2.500000*%
%ADD20RoundRect,0.250000X1.412500X0.550000X-1.412500X0.550000X-1.412500X-0.550000X1.412500X-0.550000X0*%
%ADD21RoundRect,0.250000X-0.550000X1.412500X-0.550000X-1.412500X0.550000X-1.412500X0.550000X1.412500X0*%
G04 APERTURE END LIST*
D10*
X213589000Y-114211000D03*
X213589000Y-112661000D03*
D11*
X214973000Y-125870000D03*
X216523000Y-125870000D03*
D12*
X219304000Y-122275500D03*
X219304000Y-123825500D03*
D11*
X242659000Y-125870000D03*
X244209000Y-125870000D03*
D12*
X246482000Y-122275500D03*
X246482000Y-123825500D03*
D10*
X241402000Y-114453000D03*
X241402000Y-112903000D03*
D13*
X213245500Y-125870000D03*
X211595500Y-125870000D03*
D14*
X210160000Y-115773000D03*
X210160000Y-114123000D03*
D15*
X211938000Y-112599000D03*
X211938000Y-114249000D03*
D16*
X207049000Y-115710000D03*
X208699000Y-115710000D03*
D13*
X239941000Y-125870000D03*
X238291000Y-125870000D03*
D14*
X237592000Y-116027000D03*
X237592000Y-114377000D03*
D16*
X234481000Y-115964000D03*
X236131000Y-115964000D03*
D15*
X239878000Y-112853000D03*
X239878000Y-114503000D03*
D17*
X228026000Y-113678000D03*
X219726000Y-113678000D03*
D18*
X216192500Y-116655000D03*
X214922500Y-116655000D03*
X213652500Y-116655000D03*
X212382500Y-116655000D03*
X212382500Y-123655000D03*
X213652500Y-123655000D03*
X214922500Y-123655000D03*
X216192500Y-123655000D03*
D19*
X222606000Y-125330000D03*
X222606000Y-121330000D03*
D20*
X214983500Y-130950000D03*
X209908500Y-130950000D03*
D21*
X228448000Y-124856500D03*
X228448000Y-129931500D03*
D20*
X241907500Y-130950000D03*
X236832500Y-130950000D03*
D21*
X255880000Y-124348500D03*
X255880000Y-129423500D03*
D19*
X249530000Y-125330000D03*
X249530000Y-121330000D03*
D17*
X256134000Y-113424000D03*
X247834000Y-113424000D03*
D18*
X243815000Y-116782000D03*
X242545000Y-116782000D03*
X241275000Y-116782000D03*
X240005000Y-116782000D03*
X240005000Y-123782000D03*
X241275000Y-123782000D03*
X242545000Y-123782000D03*
X243815000Y-123782000D03*
M02*
