G04 #@! TF.GenerationSoftware,KiCad,Pcbnew,9.0.0*
G04 #@! TF.CreationDate,2025-03-30T18:48:23-05:00*
G04 #@! TF.ProjectId,2019-Pi-Power,32303139-2d50-4692-9d50-6f7765722e6b,V2*
G04 #@! TF.SameCoordinates,Original*
G04 #@! TF.FileFunction,Soldermask,Bot*
G04 #@! TF.FilePolarity,Negative*
%FSLAX46Y46*%
G04 Gerber Fmt 4.6, Leading zero omitted, Abs format (unit mm)*
G04 Created by KiCad (PCBNEW 9.0.0) date 2025-03-30 18:48:23*
%MOMM*%
%LPD*%
G01*
G04 APERTURE LIST*
G04 Aperture macros list*
%AMRoundRect*
0 Rectangle with rounded corners*
0 $1 Rounding radius*
0 $2 $3 $4 $5 $6 $7 $8 $9 X,Y pos of 4 corners*
0 Add a 4 corners polygon primitive as box body*
4,1,4,$2,$3,$4,$5,$6,$7,$8,$9,$2,$3,0*
0 Add four circle primitives for the rounded corners*
1,1,$1+$1,$2,$3*
1,1,$1+$1,$4,$5*
1,1,$1+$1,$6,$7*
1,1,$1+$1,$8,$9*
0 Add four rect primitives between the rounded corners*
20,1,$1+$1,$2,$3,$4,$5,0*
20,1,$1+$1,$4,$5,$6,$7,0*
20,1,$1+$1,$6,$7,$8,$9,0*
20,1,$1+$1,$8,$9,$2,$3,0*%
G04 Aperture macros list end*
%ADD10C,0.796200*%
%ADD11C,0.010000*%
%ADD12R,1.700000X1.700000*%
%ADD13O,1.700000X1.700000*%
%ADD14C,2.700000*%
%ADD15C,5.700000*%
%ADD16RoundRect,0.875000X0.875000X-0.875000X0.875000X0.875000X-0.875000X0.875000X-0.875000X-0.875000X0*%
%ADD17R,1.400000X1.700000*%
%ADD18O,1.400000X1.700000*%
G04 APERTURE END LIST*
D10*
X209352350Y-105145000D02*
G75*
G02*
X208556150Y-105145000I-398100J0D01*
G01*
X208556150Y-105145000D02*
G75*
G02*
X209352350Y-105145000I398100J0D01*
G01*
X211892350Y-105145000D02*
G75*
G02*
X211096150Y-105145000I-398100J0D01*
G01*
X211096150Y-105145000D02*
G75*
G02*
X211892350Y-105145000I398100J0D01*
G01*
X214432350Y-105145000D02*
G75*
G02*
X213636150Y-105145000I-398100J0D01*
G01*
X213636150Y-105145000D02*
G75*
G02*
X214432350Y-105145000I398100J0D01*
G01*
D11*
X207210450Y-105941200D02*
X205618050Y-105941200D01*
X205618050Y-104348800D01*
X207210450Y-104348800D01*
X207210450Y-105941200D01*
G36*
X207210450Y-105941200D02*
G01*
X205618050Y-105941200D01*
X205618050Y-104348800D01*
X207210450Y-104348800D01*
X207210450Y-105941200D01*
G37*
D12*
X231242000Y-102375000D03*
D13*
X233782000Y-102375000D03*
X236322000Y-102375000D03*
X238862000Y-102375000D03*
D12*
X231242000Y-106058000D03*
D13*
X233782000Y-106058000D03*
X236322000Y-106058000D03*
X238862000Y-106058000D03*
D14*
X203500000Y-97500000D03*
D15*
X261500000Y-97500000D03*
X203500000Y-146500000D03*
X261500000Y-146500000D03*
D16*
X227432000Y-138062000D03*
X227432000Y-144062000D03*
X232132000Y-141062000D03*
D12*
X241910000Y-144158000D03*
D13*
X241910000Y-141618000D03*
X244450000Y-144158000D03*
X244450000Y-141618000D03*
X246990000Y-144158000D03*
X246990000Y-141618000D03*
X249530000Y-144158000D03*
X249530000Y-141618000D03*
D12*
X224130000Y-104915000D03*
D13*
X224130000Y-102375000D03*
X226670000Y-104915000D03*
X226670000Y-102375000D03*
D12*
X260452000Y-110884000D03*
D13*
X260452000Y-113424000D03*
X260452000Y-115964000D03*
X260452000Y-118504000D03*
D17*
X208370000Y-98770000D03*
D18*
X208370000Y-96230000D03*
X210910000Y-98770000D03*
X210910000Y-96230000D03*
X213450000Y-98770000D03*
X213450000Y-96230000D03*
X215990000Y-98770000D03*
X215990000Y-96230000D03*
X218530000Y-98770000D03*
X218530000Y-96230000D03*
X221070000Y-98770000D03*
X221070000Y-96230000D03*
X223610000Y-98770000D03*
X223610000Y-96230000D03*
X226150000Y-98770000D03*
X226150000Y-96230000D03*
X228690000Y-98770000D03*
X228690000Y-96230000D03*
X231230000Y-98770000D03*
X231230000Y-96230000D03*
X233770000Y-98770000D03*
X233770000Y-96230000D03*
X236310000Y-98770000D03*
X236310000Y-96230000D03*
X238850000Y-98770000D03*
X238850000Y-96230000D03*
X241390000Y-98770000D03*
X241390000Y-96230000D03*
X243930000Y-98770000D03*
X243930000Y-96230000D03*
X246470000Y-98770000D03*
X246470000Y-96230000D03*
X249010000Y-98770000D03*
X249010000Y-96230000D03*
X251550000Y-98770000D03*
X251550000Y-96230000D03*
X254090000Y-98770000D03*
X254090000Y-96230000D03*
X256630000Y-98770000D03*
X256630000Y-96230000D03*
M02*
