G04 #@! TF.GenerationSoftware,KiCad,Pcbnew,9.0.0*
G04 #@! TF.CreationDate,2025-03-30T18:48:23-05:00*
G04 #@! TF.ProjectId,2019-Pi-Power,32303139-2d50-4692-9d50-6f7765722e6b,V2*
G04 #@! TF.SameCoordinates,Original*
G04 #@! TF.FileFunction,Copper,L1,Top*
G04 #@! TF.FilePolarity,Positive*
%FSLAX46Y46*%
G04 Gerber Fmt 4.6, Leading zero omitted, Abs format (unit mm)*
G04 Created by KiCad (PCBNEW 9.0.0) date 2025-03-30 18:48:23*
%MOMM*%
%LPD*%
G01*
G04 APERTURE LIST*
G04 Aperture macros list*
%AMRoundRect*
0 Rectangle with rounded corners*
0 $1 Rounding radius*
0 $2 $3 $4 $5 $6 $7 $8 $9 X,Y pos of 4 corners*
0 Add a 4 corners polygon primitive as box body*
4,1,4,$2,$3,$4,$5,$6,$7,$8,$9,$2,$3,0*
0 Add four circle primitives for the rounded corners*
1,1,$1+$1,$2,$3*
1,1,$1+$1,$4,$5*
1,1,$1+$1,$6,$7*
1,1,$1+$1,$8,$9*
0 Add four rect primitives between the rounded corners*
20,1,$1+$1,$2,$3,$4,$5,0*
20,1,$1+$1,$4,$5,$6,$7,0*
20,1,$1+$1,$6,$7,$8,$9,0*
20,1,$1+$1,$8,$9,$2,$3,0*%
G04 Aperture macros list end*
G04 #@! TA.AperFunction,ComponentPad*
%ADD10R,1.700000X1.700000*%
G04 #@! TD*
G04 #@! TA.AperFunction,ComponentPad*
%ADD11O,1.700000X1.700000*%
G04 #@! TD*
G04 #@! TA.AperFunction,SMDPad,CuDef*
%ADD12RoundRect,0.225000X0.250000X-0.225000X0.250000X0.225000X-0.250000X0.225000X-0.250000X-0.225000X0*%
G04 #@! TD*
G04 #@! TA.AperFunction,SMDPad,CuDef*
%ADD13RoundRect,0.225000X-0.225000X-0.250000X0.225000X-0.250000X0.225000X0.250000X-0.225000X0.250000X0*%
G04 #@! TD*
G04 #@! TA.AperFunction,SMDPad,CuDef*
%ADD14RoundRect,0.225000X-0.250000X0.225000X-0.250000X-0.225000X0.250000X-0.225000X0.250000X0.225000X0*%
G04 #@! TD*
G04 #@! TA.AperFunction,SMDPad,CuDef*
%ADD15RoundRect,0.200000X0.200000X0.275000X-0.200000X0.275000X-0.200000X-0.275000X0.200000X-0.275000X0*%
G04 #@! TD*
G04 #@! TA.AperFunction,SMDPad,CuDef*
%ADD16RoundRect,0.200000X0.275000X-0.200000X0.275000X0.200000X-0.275000X0.200000X-0.275000X-0.200000X0*%
G04 #@! TD*
G04 #@! TA.AperFunction,SMDPad,CuDef*
%ADD17RoundRect,0.200000X-0.275000X0.200000X-0.275000X-0.200000X0.275000X-0.200000X0.275000X0.200000X0*%
G04 #@! TD*
G04 #@! TA.AperFunction,SMDPad,CuDef*
%ADD18RoundRect,0.200000X-0.200000X-0.275000X0.200000X-0.275000X0.200000X0.275000X-0.200000X0.275000X0*%
G04 #@! TD*
G04 #@! TA.AperFunction,ComponentPad*
%ADD19RoundRect,0.875000X0.875000X-0.875000X0.875000X0.875000X-0.875000X0.875000X-0.875000X-0.875000X0*%
G04 #@! TD*
G04 #@! TA.AperFunction,SMDPad,CuDef*
%ADD20R,2.700000X3.600000*%
G04 #@! TD*
G04 #@! TA.AperFunction,SMDPad,CuDef*
%ADD21RoundRect,0.150000X-0.150000X0.800000X-0.150000X-0.800000X0.150000X-0.800000X0.150000X0.800000X0*%
G04 #@! TD*
G04 #@! TA.AperFunction,SMDPad,CuDef*
%ADD22R,1.700000X2.500000*%
G04 #@! TD*
G04 #@! TA.AperFunction,SMDPad,CuDef*
%ADD23RoundRect,0.250000X1.412500X0.550000X-1.412500X0.550000X-1.412500X-0.550000X1.412500X-0.550000X0*%
G04 #@! TD*
G04 #@! TA.AperFunction,SMDPad,CuDef*
%ADD24RoundRect,0.250000X-0.550000X1.412500X-0.550000X-1.412500X0.550000X-1.412500X0.550000X1.412500X0*%
G04 #@! TD*
G04 #@! TA.AperFunction,ComponentPad*
%ADD25R,1.440000X1.440000*%
G04 #@! TD*
G04 #@! TA.AperFunction,ComponentPad*
%ADD26C,1.440000*%
G04 #@! TD*
G04 #@! TA.AperFunction,ComponentPad*
%ADD27R,1.400000X1.700000*%
G04 #@! TD*
G04 #@! TA.AperFunction,ComponentPad*
%ADD28O,1.400000X1.700000*%
G04 #@! TD*
G04 #@! TA.AperFunction,ViaPad*
%ADD29C,0.900000*%
G04 #@! TD*
G04 #@! TA.AperFunction,ViaPad*
%ADD30C,0.500000*%
G04 #@! TD*
G04 #@! TA.AperFunction,Conductor*
%ADD31C,0.800000*%
G04 #@! TD*
G04 #@! TA.AperFunction,Conductor*
%ADD32C,0.400000*%
G04 #@! TD*
G04 #@! TA.AperFunction,Conductor*
%ADD33C,0.600000*%
G04 #@! TD*
G04 #@! TA.AperFunction,Conductor*
%ADD34C,0.200000*%
G04 #@! TD*
G04 #@! TA.AperFunction,Conductor*
%ADD35C,1.000000*%
G04 #@! TD*
G04 APERTURE END LIST*
D10*
X231242000Y-102375000D03*
D11*
X233782000Y-102375000D03*
X236322000Y-102375000D03*
X238862000Y-102375000D03*
D10*
X231242000Y-106058000D03*
D11*
X233782000Y-106058000D03*
X236322000Y-106058000D03*
X238862000Y-106058000D03*
D12*
X213589000Y-114211000D03*
X213589000Y-112661000D03*
D13*
X214973000Y-125870000D03*
X216523000Y-125870000D03*
D14*
X219304000Y-122275500D03*
X219304000Y-123825500D03*
D13*
X242659000Y-125870000D03*
X244209000Y-125870000D03*
D14*
X246482000Y-122275500D03*
X246482000Y-123825500D03*
D12*
X241402000Y-114453000D03*
X241402000Y-112903000D03*
D15*
X213245500Y-125870000D03*
X211595500Y-125870000D03*
D16*
X210160000Y-115773000D03*
X210160000Y-114123000D03*
D17*
X211938000Y-112599000D03*
X211938000Y-114249000D03*
D18*
X207049000Y-115710000D03*
X208699000Y-115710000D03*
D15*
X239941000Y-125870000D03*
X238291000Y-125870000D03*
D16*
X237592000Y-116027000D03*
X237592000Y-114377000D03*
D18*
X234481000Y-115964000D03*
X236131000Y-115964000D03*
D17*
X239878000Y-112853000D03*
X239878000Y-114503000D03*
D19*
X227432000Y-138062000D03*
X227432000Y-144062000D03*
X232132000Y-141062000D03*
D20*
X228026000Y-113678000D03*
X219726000Y-113678000D03*
D21*
X216192500Y-116655000D03*
X214922500Y-116655000D03*
X213652500Y-116655000D03*
X212382500Y-116655000D03*
X212382500Y-123655000D03*
X213652500Y-123655000D03*
X214922500Y-123655000D03*
X216192500Y-123655000D03*
D22*
X222606000Y-125330000D03*
X222606000Y-121330000D03*
D23*
X214983500Y-130950000D03*
X209908500Y-130950000D03*
D24*
X228448000Y-124856500D03*
X228448000Y-129931500D03*
D10*
X241910000Y-144158000D03*
D11*
X241910000Y-141618000D03*
X244450000Y-144158000D03*
X244450000Y-141618000D03*
X246990000Y-144158000D03*
X246990000Y-141618000D03*
X249530000Y-144158000D03*
X249530000Y-141618000D03*
D10*
X224130000Y-104915000D03*
D11*
X224130000Y-102375000D03*
X226670000Y-104915000D03*
X226670000Y-102375000D03*
D23*
X241907500Y-130950000D03*
X236832500Y-130950000D03*
D24*
X255880000Y-124348500D03*
X255880000Y-129423500D03*
D22*
X249530000Y-125330000D03*
X249530000Y-121330000D03*
D20*
X256134000Y-113424000D03*
X247834000Y-113424000D03*
D21*
X243815000Y-116782000D03*
X242545000Y-116782000D03*
X241275000Y-116782000D03*
X240005000Y-116782000D03*
X240005000Y-123782000D03*
X241275000Y-123782000D03*
X242545000Y-123782000D03*
X243815000Y-123782000D03*
D10*
X260452000Y-110884000D03*
D11*
X260452000Y-113424000D03*
X260452000Y-115964000D03*
X260452000Y-118504000D03*
D25*
X206414250Y-105145000D03*
D26*
X208954250Y-105145000D03*
X211494250Y-105145000D03*
X214034250Y-105145000D03*
D27*
X208370000Y-98770000D03*
D28*
X208370000Y-96230000D03*
X210910000Y-98770000D03*
X210910000Y-96230000D03*
X213450000Y-98770000D03*
X213450000Y-96230000D03*
X215990000Y-98770000D03*
X215990000Y-96230000D03*
X218530000Y-98770000D03*
X218530000Y-96230000D03*
X221070000Y-98770000D03*
X221070000Y-96230000D03*
X223610000Y-98770000D03*
X223610000Y-96230000D03*
X226150000Y-98770000D03*
X226150000Y-96230000D03*
X228690000Y-98770000D03*
X228690000Y-96230000D03*
X231230000Y-98770000D03*
X231230000Y-96230000D03*
X233770000Y-98770000D03*
X233770000Y-96230000D03*
X236310000Y-98770000D03*
X236310000Y-96230000D03*
X238850000Y-98770000D03*
X238850000Y-96230000D03*
X241390000Y-98770000D03*
X241390000Y-96230000D03*
X243930000Y-98770000D03*
X243930000Y-96230000D03*
X246470000Y-98770000D03*
X246470000Y-96230000D03*
X249010000Y-98770000D03*
X249010000Y-96230000D03*
X251550000Y-98770000D03*
X251550000Y-96230000D03*
X254090000Y-98770000D03*
X254090000Y-96230000D03*
X256630000Y-98770000D03*
X256630000Y-96230000D03*
D29*
X208400000Y-108400000D03*
X235052000Y-135522000D03*
X206858000Y-113932000D03*
X206500000Y-102900000D03*
D30*
X210414000Y-118250000D03*
X210414000Y-119774000D03*
X210414000Y-119012000D03*
X209652000Y-118250000D03*
X209652000Y-117488000D03*
X209652000Y-119012000D03*
X209652000Y-119774000D03*
X210414000Y-121298000D03*
X209652000Y-122060000D03*
X209652000Y-120536000D03*
X209652000Y-121298000D03*
X209652000Y-122822000D03*
X210414000Y-120536000D03*
X210414000Y-122060000D03*
X210414000Y-122822000D03*
X208890000Y-118250000D03*
X208128000Y-119012000D03*
X208128000Y-117488000D03*
X208128000Y-118250000D03*
X208128000Y-119774000D03*
X208890000Y-117488000D03*
X208890000Y-119012000D03*
X208890000Y-119774000D03*
X208128000Y-122822000D03*
X208890000Y-120536000D03*
X208890000Y-122822000D03*
X208890000Y-122060000D03*
X208128000Y-121298000D03*
X208890000Y-121298000D03*
X208128000Y-120536000D03*
X208128000Y-122060000D03*
X207366000Y-122822000D03*
X207366000Y-121298000D03*
X207366000Y-119012000D03*
X207366000Y-118250000D03*
X207366000Y-119774000D03*
X207366000Y-117488000D03*
X207366000Y-122060000D03*
X207366000Y-120536000D03*
X215748000Y-120282000D03*
X214224000Y-119520000D03*
X214224000Y-121044000D03*
X213462000Y-121044000D03*
X214224000Y-120282000D03*
X213462000Y-120282000D03*
X213462000Y-119520000D03*
X214986000Y-121044000D03*
X214986000Y-119520000D03*
X214986000Y-120282000D03*
X215748000Y-119520000D03*
X215748000Y-121044000D03*
X212700000Y-120282000D03*
X212700000Y-119520000D03*
X212700000Y-121044000D03*
X243434000Y-120282000D03*
X241910000Y-119520000D03*
X241910000Y-121044000D03*
X241148000Y-121044000D03*
X241910000Y-120282000D03*
X241148000Y-120282000D03*
X241148000Y-119520000D03*
X242672000Y-121044000D03*
X242672000Y-119520000D03*
X242672000Y-120282000D03*
X243434000Y-119520000D03*
X243434000Y-121044000D03*
X240386000Y-120282000D03*
X240386000Y-119520000D03*
X240386000Y-121044000D03*
X236322000Y-122822000D03*
X235560000Y-122822000D03*
X236322000Y-122060000D03*
X236322000Y-121298000D03*
X236322000Y-119774000D03*
X237846000Y-118250000D03*
X236322000Y-120536000D03*
X235560000Y-121298000D03*
X236322000Y-117488000D03*
X236322000Y-119012000D03*
X235560000Y-119012000D03*
X236322000Y-118250000D03*
X235560000Y-118250000D03*
X235560000Y-119774000D03*
X235560000Y-117488000D03*
X235560000Y-122060000D03*
X235560000Y-120536000D03*
X237084000Y-119012000D03*
X237084000Y-117488000D03*
X237084000Y-118250000D03*
X237084000Y-119774000D03*
X237846000Y-117488000D03*
X234798000Y-121298000D03*
X234798000Y-122060000D03*
X234798000Y-122822000D03*
X237846000Y-119012000D03*
X234798000Y-118250000D03*
X234798000Y-120536000D03*
X234798000Y-117488000D03*
X234798000Y-119774000D03*
X237846000Y-119774000D03*
X234798000Y-119012000D03*
X237084000Y-122822000D03*
X237846000Y-120536000D03*
X237846000Y-122822000D03*
X237846000Y-122060000D03*
X237084000Y-121298000D03*
X237846000Y-121298000D03*
X237084000Y-120536000D03*
X237084000Y-122060000D03*
D29*
X253848000Y-130950000D03*
X229972000Y-131458000D03*
X236576000Y-113424000D03*
X228194000Y-147206000D03*
X226670000Y-147206000D03*
X229718000Y-147206000D03*
X253848000Y-129680000D03*
X229972000Y-130188000D03*
X229972000Y-128918000D03*
X229972000Y-132728000D03*
X253848000Y-132220000D03*
D30*
X210414000Y-117488000D03*
D29*
X208890000Y-112916000D03*
X225146000Y-147206000D03*
X253848000Y-128410000D03*
X211000000Y-100900000D03*
X214100000Y-100900000D03*
X254610000Y-122568000D03*
X233020000Y-115964000D03*
D31*
X208375000Y-102375000D02*
X208370000Y-102370000D01*
X228690000Y-100355000D02*
X226670000Y-102375000D01*
X224130000Y-102375000D02*
X226670000Y-102375000D01*
X228690000Y-98770000D02*
X228690000Y-100355000D01*
X208370000Y-102370000D02*
X208370000Y-98770000D01*
X224130000Y-102375000D02*
X208375000Y-102375000D01*
D32*
X208370000Y-96230000D02*
X208304000Y-96230000D01*
X206858000Y-113932000D02*
X206858000Y-115481500D01*
D33*
X207000000Y-97600000D02*
X208370000Y-96230000D01*
D31*
X228448000Y-124856500D02*
X228958500Y-124856500D01*
X207000000Y-102400000D02*
X206500000Y-102900000D01*
X225400000Y-108090000D02*
X212954000Y-108090000D01*
X228026000Y-113678000D02*
X228026000Y-110716000D01*
X228026000Y-110716000D02*
X225400000Y-108090000D01*
D33*
X207000000Y-101400000D02*
X207000000Y-97600000D01*
D31*
X232004000Y-127902000D02*
X232004000Y-132474000D01*
X232004000Y-132474000D02*
X235052000Y-135522000D01*
X241910000Y-141618000D02*
X249530000Y-141618000D01*
D32*
X207086500Y-115710000D02*
X207086500Y-115735500D01*
D31*
X207000000Y-101400000D02*
X207000000Y-102400000D01*
D32*
X212954000Y-108090000D02*
X208710000Y-108090000D01*
X208710000Y-108090000D02*
X208400000Y-108400000D01*
D31*
X208370000Y-96230000D02*
X210910000Y-96230000D01*
D32*
X206858000Y-115481500D02*
X207086500Y-115710000D01*
D31*
X228958500Y-124856500D02*
X232004000Y-127902000D01*
X210465000Y-114211500D02*
X210414000Y-114160500D01*
X239878000Y-114465500D02*
X237643000Y-114465500D01*
X237566500Y-114414500D02*
X236576000Y-113424000D01*
X229972000Y-132728000D02*
X229972000Y-128918000D01*
X237592000Y-114414500D02*
X237566500Y-114414500D01*
X210160000Y-114160500D02*
X210134500Y-114160500D01*
X211938000Y-114211500D02*
X210465000Y-114211500D01*
X229972000Y-131455500D02*
X228448000Y-129931500D01*
X225146000Y-147206000D02*
X227178000Y-147206000D01*
X229972000Y-130188000D02*
X228704500Y-130188000D01*
X227432000Y-146952000D02*
X227178000Y-147206000D01*
X228704500Y-130188000D02*
X228448000Y-129931500D01*
X237643000Y-114465500D02*
X237592000Y-114414500D01*
X227178000Y-147206000D02*
X229718000Y-147206000D01*
X229972000Y-128918000D02*
X229461500Y-128918000D01*
X229972000Y-131458000D02*
X229972000Y-131455500D01*
X210134500Y-114160500D02*
X208890000Y-112916000D01*
X229461500Y-128918000D02*
X228448000Y-129931500D01*
X227432000Y-144062000D02*
X227432000Y-146952000D01*
X241910000Y-144158000D02*
X249530000Y-144158000D01*
X210910000Y-100810000D02*
X211000000Y-100900000D01*
X210910000Y-98770000D02*
X210910000Y-100810000D01*
X213450000Y-98770000D02*
X213450000Y-100250000D01*
X213450000Y-100250000D02*
X214100000Y-100900000D01*
X231230000Y-104903000D02*
X231242000Y-104915000D01*
X231230000Y-104903000D02*
X231230000Y-106046000D01*
X231230000Y-98770000D02*
X231230000Y-104903000D01*
X231230000Y-106046000D02*
X231242000Y-106058000D01*
X233770000Y-104903000D02*
X233770000Y-106046000D01*
X233770000Y-104903000D02*
X233782000Y-104915000D01*
X233770000Y-106046000D02*
X233782000Y-106058000D01*
X233770000Y-98770000D02*
X233770000Y-104903000D01*
X236310000Y-98770000D02*
X236310000Y-104903000D01*
X236310000Y-104903000D02*
X236322000Y-104915000D01*
X236310000Y-106046000D02*
X236322000Y-106058000D01*
X236310000Y-104903000D02*
X236310000Y-106046000D01*
D34*
X236310000Y-96230000D02*
X236310000Y-96394000D01*
X237592000Y-101105000D02*
X238862000Y-102375000D01*
X237592000Y-97676000D02*
X237592000Y-101105000D01*
X236310000Y-96394000D02*
X237592000Y-97676000D01*
X240132000Y-97676000D02*
X240132000Y-103645000D01*
X240132000Y-103645000D02*
X238862000Y-104915000D01*
X238850000Y-96230000D02*
X238850000Y-96394000D01*
X238862000Y-104915000D02*
X238862000Y-106058000D01*
X238850000Y-96394000D02*
X240132000Y-97676000D01*
D31*
X234518500Y-115964000D02*
X233020000Y-115964000D01*
X216192500Y-123655000D02*
X219121000Y-123655000D01*
X219121000Y-123655000D02*
X219304000Y-123838000D01*
X242646500Y-125870000D02*
X242646500Y-130211000D01*
X214960500Y-130927000D02*
X214983500Y-130950000D01*
X242545000Y-125768500D02*
X242646500Y-125870000D01*
X214922500Y-123655000D02*
X214922500Y-125832000D01*
X214960500Y-125870000D02*
X214960500Y-130927000D01*
D35*
X222095500Y-138062000D02*
X214983500Y-130950000D01*
D31*
X214922500Y-125832000D02*
X214960500Y-125870000D01*
X242646500Y-130211000D02*
X241907500Y-130950000D01*
D35*
X234795500Y-138062000D02*
X241907500Y-130950000D01*
X227432000Y-138062000D02*
X234795500Y-138062000D01*
D31*
X242545000Y-123782000D02*
X242545000Y-125768500D01*
D35*
X227432000Y-138062000D02*
X222095500Y-138062000D01*
D31*
X211987500Y-112686000D02*
X211938000Y-112636500D01*
X213589000Y-112686000D02*
X211987500Y-112686000D01*
X213652500Y-116655000D02*
X213652500Y-114249500D01*
X213652500Y-114249500D02*
X213589000Y-114186000D01*
X243815000Y-123782000D02*
X246426000Y-123782000D01*
X246426000Y-123782000D02*
X246482000Y-123838000D01*
X243815000Y-116782000D02*
X244476000Y-116782000D01*
X244476000Y-116782000D02*
X247834000Y-113424000D01*
X241402000Y-112890500D02*
X239878000Y-112890500D01*
X241402000Y-116655000D02*
X241275000Y-116782000D01*
X241402000Y-114465500D02*
X241402000Y-116655000D01*
X210414000Y-115735500D02*
X208941000Y-115735500D01*
X208941000Y-115735500D02*
X208915500Y-115710000D01*
X212382500Y-116655000D02*
X211333500Y-116655000D01*
X211333500Y-116655000D02*
X210414000Y-115735500D01*
X213652500Y-125425500D02*
X213208000Y-125870000D01*
X213652500Y-123655000D02*
X213652500Y-125425500D01*
X236881000Y-115989500D02*
X236855500Y-115964000D01*
X236119000Y-115989500D02*
X236093500Y-115964000D01*
X238354000Y-115989500D02*
X236881000Y-115989500D01*
X236881000Y-115989500D02*
X236119000Y-115989500D01*
X239146500Y-116782000D02*
X238354000Y-115989500D01*
X240005000Y-116782000D02*
X239146500Y-116782000D01*
X240640000Y-125616000D02*
X240157500Y-125616000D01*
X241275000Y-123782000D02*
X241275000Y-124981000D01*
X241275000Y-124981000D02*
X240640000Y-125616000D01*
X240157500Y-125616000D02*
X239903500Y-125870000D01*
G04 #@! TA.AperFunction,Conductor*
G36*
X229660121Y-142146002D02*
G01*
X229706614Y-142199658D01*
X229718000Y-142252000D01*
X229718000Y-146190000D01*
X230664350Y-146663175D01*
X230716333Y-146711529D01*
X230734000Y-146775872D01*
X230734000Y-149823500D01*
X230713998Y-149891621D01*
X230660342Y-149938114D01*
X230608000Y-149949500D01*
X224510000Y-149949500D01*
X224441879Y-149929498D01*
X224395386Y-149875842D01*
X224384000Y-149823500D01*
X224384000Y-142252000D01*
X224404002Y-142183879D01*
X224457658Y-142137386D01*
X224510000Y-142126000D01*
X229592000Y-142126000D01*
X229660121Y-142146002D01*
G37*
G04 #@! TD.AperFunction*
G04 #@! TA.AperFunction,Conductor*
G36*
X210417279Y-116746002D02*
G01*
X210451688Y-116778764D01*
X211683998Y-118503999D01*
X211683999Y-118503999D01*
X211684000Y-118504000D01*
X216638000Y-118504000D01*
X216706121Y-118524002D01*
X216752614Y-118577658D01*
X216764000Y-118630000D01*
X216764000Y-121680000D01*
X216743998Y-121748121D01*
X216690342Y-121794614D01*
X216638000Y-121806000D01*
X212954000Y-121806000D01*
X212954000Y-123563540D01*
X212952396Y-123579822D01*
X212952607Y-123579843D01*
X212952000Y-123586008D01*
X212952000Y-124777127D01*
X212931998Y-124845248D01*
X212882349Y-124889825D01*
X212446000Y-125108000D01*
X212446000Y-134634000D01*
X212425998Y-134702121D01*
X212372342Y-134748614D01*
X212320000Y-134760000D01*
X205460000Y-134760000D01*
X205391879Y-134739998D01*
X205345386Y-134686342D01*
X205334000Y-134634000D01*
X205334000Y-116852000D01*
X205354002Y-116783879D01*
X205407658Y-116737386D01*
X205460000Y-116726000D01*
X210349158Y-116726000D01*
X210417279Y-116746002D01*
G37*
G04 #@! TD.AperFunction*
G04 #@! TA.AperFunction,Conductor*
G36*
X238100688Y-117000002D02*
G01*
X238137405Y-117036108D01*
X239115998Y-118503999D01*
X239116000Y-118504000D01*
X244324000Y-118504000D01*
X244392121Y-118524002D01*
X244438614Y-118577658D01*
X244450000Y-118630000D01*
X244450000Y-121680000D01*
X244429998Y-121748121D01*
X244376342Y-121794614D01*
X244324000Y-121806000D01*
X240640000Y-121806000D01*
X240640000Y-123459467D01*
X240630409Y-123507685D01*
X240601422Y-123577665D01*
X240601420Y-123577671D01*
X240574500Y-123713004D01*
X240574500Y-124447255D01*
X240561198Y-124503604D01*
X240420826Y-124784349D01*
X240372471Y-124836333D01*
X240308128Y-124854000D01*
X238862000Y-124854000D01*
X238862000Y-131840000D01*
X238841998Y-131908121D01*
X238788342Y-131954614D01*
X238736000Y-131966000D01*
X233400000Y-131966000D01*
X233331879Y-131945998D01*
X233285386Y-131892342D01*
X233274000Y-131840000D01*
X233274000Y-117106000D01*
X233294002Y-117037879D01*
X233347658Y-116991386D01*
X233400000Y-116980000D01*
X238032567Y-116980000D01*
X238100688Y-117000002D01*
G37*
G04 #@! TD.AperFunction*
G04 #@! TA.AperFunction,Conductor*
G36*
X250996121Y-123858002D02*
G01*
X251042614Y-123911658D01*
X251054000Y-123964000D01*
X251054000Y-126378000D01*
X254356000Y-127648000D01*
X257278000Y-127648000D01*
X257346121Y-127668002D01*
X257392614Y-127721658D01*
X257404000Y-127774000D01*
X257404000Y-133110000D01*
X257383998Y-133178121D01*
X257330342Y-133224614D01*
X257278000Y-133236000D01*
X246307556Y-133236000D01*
X246239435Y-133215998D01*
X246193796Y-133164172D01*
X243700240Y-127927704D01*
X243688000Y-127873532D01*
X243688000Y-125234000D01*
X243708002Y-125165879D01*
X243761658Y-125119386D01*
X243814000Y-125108000D01*
X248006000Y-125108000D01*
X248006000Y-123964000D01*
X248026002Y-123895879D01*
X248079658Y-123849386D01*
X248132000Y-123838000D01*
X250928000Y-123838000D01*
X250996121Y-123858002D01*
G37*
G04 #@! TD.AperFunction*
G04 #@! TA.AperFunction,Conductor*
G36*
X224580121Y-123350002D02*
G01*
X224626614Y-123403658D01*
X224638000Y-123456000D01*
X224638000Y-127394000D01*
X230173810Y-127394000D01*
X230241931Y-127414002D01*
X230262905Y-127430905D01*
X231205095Y-128373095D01*
X231239121Y-128435407D01*
X231242000Y-128462190D01*
X231242000Y-134380000D01*
X231221998Y-134448121D01*
X231168342Y-134494614D01*
X231116000Y-134506000D01*
X221651241Y-134506000D01*
X221583120Y-134485998D01*
X221552165Y-134457846D01*
X216028924Y-127428266D01*
X216002565Y-127362343D01*
X216002000Y-127350420D01*
X216002000Y-125234000D01*
X216022002Y-125165879D01*
X216075658Y-125119386D01*
X216128000Y-125108000D01*
X220574000Y-125108000D01*
X220574000Y-123456000D01*
X220594002Y-123387879D01*
X220647658Y-123341386D01*
X220700000Y-123330000D01*
X224512000Y-123330000D01*
X224580121Y-123350002D01*
G37*
G04 #@! TD.AperFunction*
G04 #@! TA.AperFunction,Conductor*
G36*
X258362121Y-111158002D02*
G01*
X258408614Y-111211658D01*
X258420000Y-111264000D01*
X258420000Y-112662000D01*
X261596000Y-112662000D01*
X261664121Y-112682002D01*
X261710614Y-112735658D01*
X261722000Y-112788000D01*
X261722000Y-114314000D01*
X261701998Y-114382121D01*
X261648342Y-114428614D01*
X261596000Y-114440000D01*
X258420000Y-114440000D01*
X258420000Y-125998000D01*
X258399998Y-126066121D01*
X258346342Y-126112614D01*
X258294000Y-126124000D01*
X254228000Y-126124000D01*
X254159879Y-126103998D01*
X254113386Y-126050342D01*
X254102000Y-125998000D01*
X254102000Y-111264000D01*
X254122002Y-111195879D01*
X254175658Y-111149386D01*
X254228000Y-111138000D01*
X258294000Y-111138000D01*
X258362121Y-111158002D01*
G37*
G04 #@! TD.AperFunction*
G04 #@! TA.AperFunction,Conductor*
G36*
X230422121Y-111412002D02*
G01*
X230468614Y-111465658D01*
X230480000Y-111518000D01*
X230480000Y-126506000D01*
X230459998Y-126574121D01*
X230406342Y-126620614D01*
X230354000Y-126632000D01*
X226288000Y-126632000D01*
X226219879Y-126611998D01*
X226173386Y-126558342D01*
X226162000Y-126506000D01*
X226162000Y-111518000D01*
X226182002Y-111449879D01*
X226235658Y-111403386D01*
X226288000Y-111392000D01*
X230354000Y-111392000D01*
X230422121Y-111412002D01*
G37*
G04 #@! TD.AperFunction*
G04 #@! TA.AperFunction,Conductor*
G36*
X223815290Y-111412002D02*
G01*
X223861783Y-111465658D01*
X223873137Y-111520798D01*
X223740534Y-117488000D01*
X223624738Y-122698799D01*
X223603227Y-122766459D01*
X223548552Y-122811748D01*
X223498769Y-122822000D01*
X218668000Y-122822000D01*
X218599879Y-122801998D01*
X218553386Y-122748342D01*
X218542000Y-122696000D01*
X218542000Y-117488000D01*
X216128000Y-117488000D01*
X216059879Y-117467998D01*
X216013386Y-117414342D01*
X216002000Y-117362000D01*
X216002000Y-111518000D01*
X216022002Y-111449879D01*
X216075658Y-111403386D01*
X216128000Y-111392000D01*
X223747169Y-111392000D01*
X223815290Y-111412002D01*
G37*
G04 #@! TD.AperFunction*
G04 #@! TA.AperFunction,Conductor*
G36*
X250996121Y-111412002D02*
G01*
X251042614Y-111465658D01*
X251054000Y-111518000D01*
X251054000Y-122950000D01*
X251033998Y-123018121D01*
X250980342Y-123064614D01*
X250928000Y-123076000D01*
X246789008Y-123076000D01*
X246773985Y-123075101D01*
X246773146Y-123075000D01*
X246773144Y-123075000D01*
X246190856Y-123075000D01*
X246190853Y-123075000D01*
X246190015Y-123075101D01*
X246174992Y-123076000D01*
X245846000Y-123076000D01*
X245777879Y-123055998D01*
X245731386Y-123002342D01*
X245720000Y-122950000D01*
X245720000Y-116726000D01*
X243814000Y-116726000D01*
X243745879Y-116705998D01*
X243699386Y-116652342D01*
X243688000Y-116600000D01*
X243688000Y-111518000D01*
X243708002Y-111449879D01*
X243761658Y-111403386D01*
X243814000Y-111392000D01*
X250928000Y-111392000D01*
X250996121Y-111412002D01*
G37*
G04 #@! TD.AperFunction*
M02*
