G04 #@! TF.GenerationSoftware,KiCad,Pcbnew,9.0.0*
G04 #@! TF.CreationDate,2025-03-30T18:48:23-05:00*
G04 #@! TF.ProjectId,2019-Pi-Power,32303139-2d50-4692-9d50-6f7765722e6b,V2*
G04 #@! TF.SameCoordinates,Original*
G04 #@! TF.FileFunction,Copper,L2,Bot*
G04 #@! TF.FilePolarity,Positive*
%FSLAX46Y46*%
G04 Gerber Fmt 4.6, Leading zero omitted, Abs format (unit mm)*
G04 Created by KiCad (PCBNEW 9.0.0) date 2025-03-30 18:48:23*
%MOMM*%
%LPD*%
G01*
G04 APERTURE LIST*
G04 Aperture macros list*
%AMRoundRect*
0 Rectangle with rounded corners*
0 $1 Rounding radius*
0 $2 $3 $4 $5 $6 $7 $8 $9 X,Y pos of 4 corners*
0 Add a 4 corners polygon primitive as box body*
4,1,4,$2,$3,$4,$5,$6,$7,$8,$9,$2,$3,0*
0 Add four circle primitives for the rounded corners*
1,1,$1+$1,$2,$3*
1,1,$1+$1,$4,$5*
1,1,$1+$1,$6,$7*
1,1,$1+$1,$8,$9*
0 Add four rect primitives between the rounded corners*
20,1,$1+$1,$2,$3,$4,$5,0*
20,1,$1+$1,$4,$5,$6,$7,0*
20,1,$1+$1,$6,$7,$8,$9,0*
20,1,$1+$1,$8,$9,$2,$3,0*%
G04 Aperture macros list end*
G04 #@! TA.AperFunction,ComponentPad*
%ADD10R,1.700000X1.700000*%
G04 #@! TD*
G04 #@! TA.AperFunction,ComponentPad*
%ADD11O,1.700000X1.700000*%
G04 #@! TD*
G04 #@! TA.AperFunction,ComponentPad*
%ADD12RoundRect,0.875000X0.875000X-0.875000X0.875000X0.875000X-0.875000X0.875000X-0.875000X-0.875000X0*%
G04 #@! TD*
G04 #@! TA.AperFunction,ComponentPad*
%ADD13R,1.440000X1.440000*%
G04 #@! TD*
G04 #@! TA.AperFunction,ComponentPad*
%ADD14C,1.440000*%
G04 #@! TD*
G04 #@! TA.AperFunction,ComponentPad*
%ADD15R,1.400000X1.700000*%
G04 #@! TD*
G04 #@! TA.AperFunction,ComponentPad*
%ADD16O,1.400000X1.700000*%
G04 #@! TD*
G04 #@! TA.AperFunction,ViaPad*
%ADD17C,0.900000*%
G04 #@! TD*
G04 #@! TA.AperFunction,ViaPad*
%ADD18C,0.500000*%
G04 #@! TD*
G04 #@! TA.AperFunction,Conductor*
%ADD19C,0.800000*%
G04 #@! TD*
G04 #@! TA.AperFunction,Conductor*
%ADD20C,0.400000*%
G04 #@! TD*
G04 APERTURE END LIST*
D10*
X231242000Y-102375000D03*
D11*
X233782000Y-102375000D03*
X236322000Y-102375000D03*
X238862000Y-102375000D03*
D10*
X231242000Y-106058000D03*
D11*
X233782000Y-106058000D03*
X236322000Y-106058000D03*
X238862000Y-106058000D03*
D12*
X227432000Y-138062000D03*
X227432000Y-144062000D03*
X232132000Y-141062000D03*
D10*
X241910000Y-144158000D03*
D11*
X241910000Y-141618000D03*
X244450000Y-144158000D03*
X244450000Y-141618000D03*
X246990000Y-144158000D03*
X246990000Y-141618000D03*
X249530000Y-144158000D03*
X249530000Y-141618000D03*
D10*
X224130000Y-104915000D03*
D11*
X224130000Y-102375000D03*
X226670000Y-104915000D03*
X226670000Y-102375000D03*
D10*
X260452000Y-110884000D03*
D11*
X260452000Y-113424000D03*
X260452000Y-115964000D03*
X260452000Y-118504000D03*
D13*
X206414250Y-105145000D03*
D14*
X208954250Y-105145000D03*
X211494250Y-105145000D03*
X214034250Y-105145000D03*
D15*
X208370000Y-98770000D03*
D16*
X208370000Y-96230000D03*
X210910000Y-98770000D03*
X210910000Y-96230000D03*
X213450000Y-98770000D03*
X213450000Y-96230000D03*
X215990000Y-98770000D03*
X215990000Y-96230000D03*
X218530000Y-98770000D03*
X218530000Y-96230000D03*
X221070000Y-98770000D03*
X221070000Y-96230000D03*
X223610000Y-98770000D03*
X223610000Y-96230000D03*
X226150000Y-98770000D03*
X226150000Y-96230000D03*
X228690000Y-98770000D03*
X228690000Y-96230000D03*
X231230000Y-98770000D03*
X231230000Y-96230000D03*
X233770000Y-98770000D03*
X233770000Y-96230000D03*
X236310000Y-98770000D03*
X236310000Y-96230000D03*
X238850000Y-98770000D03*
X238850000Y-96230000D03*
X241390000Y-98770000D03*
X241390000Y-96230000D03*
X243930000Y-98770000D03*
X243930000Y-96230000D03*
X246470000Y-98770000D03*
X246470000Y-96230000D03*
X249010000Y-98770000D03*
X249010000Y-96230000D03*
X251550000Y-98770000D03*
X251550000Y-96230000D03*
X254090000Y-98770000D03*
X254090000Y-96230000D03*
X256630000Y-98770000D03*
X256630000Y-96230000D03*
D17*
X208400000Y-108400000D03*
X235052000Y-135522000D03*
X206858000Y-113932000D03*
X206500000Y-102900000D03*
D18*
X210414000Y-118250000D03*
X210414000Y-119774000D03*
X210414000Y-119012000D03*
X209652000Y-118250000D03*
X209652000Y-117488000D03*
X209652000Y-119012000D03*
X209652000Y-119774000D03*
X210414000Y-121298000D03*
X209652000Y-122060000D03*
X209652000Y-120536000D03*
X209652000Y-121298000D03*
X209652000Y-122822000D03*
X210414000Y-120536000D03*
X210414000Y-122060000D03*
X210414000Y-122822000D03*
X208890000Y-118250000D03*
X208128000Y-119012000D03*
X208128000Y-117488000D03*
X208128000Y-118250000D03*
X208128000Y-119774000D03*
X208890000Y-117488000D03*
X208890000Y-119012000D03*
X208890000Y-119774000D03*
X208128000Y-122822000D03*
X208890000Y-120536000D03*
X208890000Y-122822000D03*
X208890000Y-122060000D03*
X208128000Y-121298000D03*
X208890000Y-121298000D03*
X208128000Y-120536000D03*
X208128000Y-122060000D03*
X207366000Y-122822000D03*
X207366000Y-121298000D03*
X207366000Y-119012000D03*
X207366000Y-118250000D03*
X207366000Y-119774000D03*
X207366000Y-117488000D03*
X207366000Y-122060000D03*
X207366000Y-120536000D03*
X215748000Y-120282000D03*
X214224000Y-119520000D03*
X214224000Y-121044000D03*
X213462000Y-121044000D03*
X214224000Y-120282000D03*
X213462000Y-120282000D03*
X213462000Y-119520000D03*
X214986000Y-121044000D03*
X214986000Y-119520000D03*
X214986000Y-120282000D03*
X215748000Y-119520000D03*
X215748000Y-121044000D03*
X212700000Y-120282000D03*
X212700000Y-119520000D03*
X212700000Y-121044000D03*
X243434000Y-120282000D03*
X241910000Y-119520000D03*
X241910000Y-121044000D03*
X241148000Y-121044000D03*
X241910000Y-120282000D03*
X241148000Y-120282000D03*
X241148000Y-119520000D03*
X242672000Y-121044000D03*
X242672000Y-119520000D03*
X242672000Y-120282000D03*
X243434000Y-119520000D03*
X243434000Y-121044000D03*
X240386000Y-120282000D03*
X240386000Y-119520000D03*
X240386000Y-121044000D03*
X236322000Y-122822000D03*
X235560000Y-122822000D03*
X236322000Y-122060000D03*
X236322000Y-121298000D03*
X236322000Y-119774000D03*
X237846000Y-118250000D03*
X236322000Y-120536000D03*
X235560000Y-121298000D03*
X236322000Y-117488000D03*
X236322000Y-119012000D03*
X235560000Y-119012000D03*
X236322000Y-118250000D03*
X235560000Y-118250000D03*
X235560000Y-119774000D03*
X235560000Y-117488000D03*
X235560000Y-122060000D03*
X235560000Y-120536000D03*
X237084000Y-119012000D03*
X237084000Y-117488000D03*
X237084000Y-118250000D03*
X237084000Y-119774000D03*
X237846000Y-117488000D03*
X234798000Y-121298000D03*
X234798000Y-122060000D03*
X234798000Y-122822000D03*
X237846000Y-119012000D03*
X234798000Y-118250000D03*
X234798000Y-120536000D03*
X234798000Y-117488000D03*
X234798000Y-119774000D03*
X237846000Y-119774000D03*
X234798000Y-119012000D03*
X237084000Y-122822000D03*
X237846000Y-120536000D03*
X237846000Y-122822000D03*
X237846000Y-122060000D03*
X237084000Y-121298000D03*
X237846000Y-121298000D03*
X237084000Y-120536000D03*
X237084000Y-122060000D03*
D17*
X253848000Y-130950000D03*
X229972000Y-131458000D03*
X236576000Y-113424000D03*
X228194000Y-147206000D03*
X226670000Y-147206000D03*
X229718000Y-147206000D03*
X253848000Y-129680000D03*
X229972000Y-130188000D03*
X229972000Y-128918000D03*
X229972000Y-132728000D03*
X253848000Y-132220000D03*
D18*
X210414000Y-117488000D03*
D17*
X208890000Y-112916000D03*
X225146000Y-147206000D03*
X253848000Y-128410000D03*
X211000000Y-100900000D03*
X214100000Y-100900000D03*
X254610000Y-122568000D03*
X233020000Y-115964000D03*
D19*
X206500000Y-102900000D02*
X206500000Y-105059250D01*
D20*
X206858000Y-109942000D02*
X208400000Y-108400000D01*
D19*
X206500000Y-105059250D02*
X206414250Y-105145000D01*
D20*
X206858000Y-113932000D02*
X206858000Y-109942000D01*
X206414250Y-106414250D02*
X208400000Y-108400000D01*
D19*
X241148000Y-141618000D02*
X241910000Y-141618000D01*
D20*
X206414250Y-105145000D02*
X206414250Y-106414250D01*
D19*
X235052000Y-135522000D02*
X241148000Y-141618000D01*
D20*
X210910000Y-96230000D02*
X210910000Y-96672000D01*
D19*
X211000000Y-101600000D02*
X208954250Y-103645750D01*
X211000000Y-100900000D02*
X211000000Y-101600000D01*
X208954250Y-103645750D02*
X208954250Y-105145000D01*
X214100000Y-100900000D02*
X214100000Y-105079250D01*
X214100000Y-105079250D02*
X214034250Y-105145000D01*
D20*
X233528000Y-131712000D02*
X233528000Y-117742000D01*
D19*
X233528000Y-116472000D02*
X233020000Y-115964000D01*
D20*
X234798000Y-132982000D02*
X233528000Y-131712000D01*
D19*
X233528000Y-117742000D02*
X233528000Y-116472000D01*
D20*
X252324000Y-132982000D02*
X234798000Y-132982000D01*
X254610000Y-122568000D02*
X252324000Y-124854000D01*
X252324000Y-124854000D02*
X252324000Y-132982000D01*
G04 #@! TA.AperFunction,Conductor*
G36*
X260548056Y-94070502D02*
G01*
X260594549Y-94124158D01*
X260604653Y-94194432D01*
X260575159Y-94259012D01*
X260516512Y-94297073D01*
X260457037Y-94315115D01*
X260369893Y-94341550D01*
X260369890Y-94341551D01*
X260065748Y-94467531D01*
X259775418Y-94622715D01*
X259501708Y-94805602D01*
X259501693Y-94805613D01*
X259247234Y-95014443D01*
X259247214Y-95014461D01*
X259014461Y-95247214D01*
X259014443Y-95247234D01*
X258805613Y-95501693D01*
X258805602Y-95501708D01*
X258622715Y-95775418D01*
X258467531Y-96065748D01*
X258341551Y-96369890D01*
X258341550Y-96369893D01*
X258245986Y-96684926D01*
X258181768Y-97007780D01*
X258181765Y-97007801D01*
X258149500Y-97335393D01*
X258149500Y-97664606D01*
X258181765Y-97992198D01*
X258181768Y-97992219D01*
X258245986Y-98315073D01*
X258341550Y-98630106D01*
X258341551Y-98630109D01*
X258467531Y-98934251D01*
X258622715Y-99224581D01*
X258805602Y-99498291D01*
X258805613Y-99498306D01*
X259014443Y-99752765D01*
X259014461Y-99752785D01*
X259247214Y-99985538D01*
X259247234Y-99985556D01*
X259482143Y-100178342D01*
X259501702Y-100194393D01*
X259775421Y-100377286D01*
X260065749Y-100532469D01*
X260369889Y-100658448D01*
X260684913Y-100754010D01*
X260684922Y-100754011D01*
X260684926Y-100754013D01*
X260815788Y-100780042D01*
X261007787Y-100818233D01*
X261335400Y-100850500D01*
X261335409Y-100850500D01*
X261664591Y-100850500D01*
X261664600Y-100850500D01*
X261992213Y-100818233D01*
X262247059Y-100767541D01*
X262315073Y-100754013D01*
X262315075Y-100754012D01*
X262315087Y-100754010D01*
X262630111Y-100658448D01*
X262934251Y-100532469D01*
X263224579Y-100377286D01*
X263498298Y-100194393D01*
X263752772Y-99985551D01*
X263985551Y-99752772D01*
X264194393Y-99498298D01*
X264377286Y-99224579D01*
X264532469Y-98934251D01*
X264658448Y-98630111D01*
X264702925Y-98483487D01*
X264741841Y-98424108D01*
X264806682Y-98395192D01*
X264876863Y-98405923D01*
X264930102Y-98452893D01*
X264949500Y-98520065D01*
X264949500Y-120664000D01*
X264929498Y-120732121D01*
X264875842Y-120778614D01*
X264823500Y-120790000D01*
X259308000Y-120790000D01*
X259239879Y-120769998D01*
X259193386Y-120716342D01*
X259182000Y-120664000D01*
X259182000Y-115074000D01*
X259202002Y-115005879D01*
X259255658Y-114959386D01*
X259308000Y-114948000D01*
X262992000Y-114948000D01*
X262992000Y-108344000D01*
X262991999Y-108344000D01*
X252578000Y-108469470D01*
X252578000Y-123839994D01*
X252557998Y-123908115D01*
X252541095Y-123929089D01*
X251998963Y-124471221D01*
X251998961Y-124471224D01*
X251923505Y-124546679D01*
X251923497Y-124546689D01*
X251857610Y-124660809D01*
X251857607Y-124660816D01*
X251823500Y-124788109D01*
X251823500Y-132355500D01*
X251803498Y-132423621D01*
X251749842Y-132470114D01*
X251697500Y-132481500D01*
X235057504Y-132481500D01*
X234989383Y-132461498D01*
X234968408Y-132444595D01*
X234065404Y-131541590D01*
X234031379Y-131479278D01*
X234028500Y-131452495D01*
X234028500Y-118284346D01*
X234048502Y-118216225D01*
X234065409Y-118195247D01*
X234072111Y-118188545D01*
X234072114Y-118188542D01*
X234148775Y-118073811D01*
X234201580Y-117946328D01*
X234228500Y-117810993D01*
X234228500Y-116403007D01*
X234201580Y-116267672D01*
X234148775Y-116140189D01*
X234072114Y-116025458D01*
X233974542Y-115927886D01*
X233723963Y-115677306D01*
X233696650Y-115636428D01*
X233685085Y-115608507D01*
X233685084Y-115608505D01*
X233685083Y-115608504D01*
X233602951Y-115485584D01*
X233498416Y-115381049D01*
X233375495Y-115298916D01*
X233238916Y-115242343D01*
X233238913Y-115242342D01*
X233093918Y-115213500D01*
X232946082Y-115213500D01*
X232873584Y-115227921D01*
X232801086Y-115242342D01*
X232801083Y-115242343D01*
X232664504Y-115298916D01*
X232541588Y-115381046D01*
X232541581Y-115381051D01*
X232437051Y-115485581D01*
X232437046Y-115485588D01*
X232354916Y-115608504D01*
X232298343Y-115745083D01*
X232298342Y-115745086D01*
X232298342Y-115745087D01*
X232269500Y-115890082D01*
X232269500Y-116037918D01*
X232298342Y-116182913D01*
X232354916Y-116319495D01*
X232437049Y-116442416D01*
X232541584Y-116546951D01*
X232623531Y-116601706D01*
X232664503Y-116629083D01*
X232664504Y-116629083D01*
X232664505Y-116629084D01*
X232692432Y-116640651D01*
X232699472Y-116645356D01*
X232704597Y-116646471D01*
X232733307Y-116667964D01*
X232790595Y-116725252D01*
X232824621Y-116787564D01*
X232827500Y-116814347D01*
X232827500Y-117810993D01*
X232854420Y-117946328D01*
X232907225Y-118073811D01*
X232958447Y-118150471D01*
X232983885Y-118188541D01*
X232983888Y-118188545D01*
X232990591Y-118195247D01*
X233024619Y-118257557D01*
X233027500Y-118284346D01*
X233027500Y-131646108D01*
X233027500Y-131777892D01*
X233052467Y-131871073D01*
X233061607Y-131905183D01*
X233061610Y-131905190D01*
X233127497Y-132019310D01*
X233127499Y-132019312D01*
X233127500Y-132019314D01*
X234393099Y-133284912D01*
X234393120Y-133284935D01*
X234490679Y-133382494D01*
X234490684Y-133382498D01*
X234490686Y-133382500D01*
X234604814Y-133448392D01*
X234732107Y-133482500D01*
X234732108Y-133482500D01*
X234732109Y-133482500D01*
X252389890Y-133482500D01*
X252389892Y-133482500D01*
X252419390Y-133474596D01*
X252490363Y-133476284D01*
X252549159Y-133516077D01*
X252577109Y-133581341D01*
X252578000Y-133596302D01*
X252578000Y-142867947D01*
X254102000Y-142888000D01*
X254102000Y-133490000D01*
X252826011Y-133490000D01*
X252757890Y-133469998D01*
X252711397Y-133416342D01*
X252701293Y-133346068D01*
X252721830Y-133297308D01*
X252720371Y-133296466D01*
X252737268Y-133267197D01*
X252790392Y-133175186D01*
X252824500Y-133047892D01*
X252824500Y-125113503D01*
X252844502Y-125045382D01*
X252861405Y-125024408D01*
X253378905Y-124506908D01*
X253441217Y-124472882D01*
X253512032Y-124477947D01*
X253568868Y-124520494D01*
X253593679Y-124587014D01*
X253594000Y-124596003D01*
X253594000Y-127394000D01*
X257278000Y-127394000D01*
X257346121Y-127414002D01*
X257392614Y-127467658D01*
X257404000Y-127520000D01*
X257404000Y-127648000D01*
X264823500Y-127648000D01*
X264891621Y-127668002D01*
X264938114Y-127721658D01*
X264949500Y-127774000D01*
X264949500Y-145479934D01*
X264929498Y-145548055D01*
X264875842Y-145594548D01*
X264805568Y-145604652D01*
X264740988Y-145575158D01*
X264702926Y-145516510D01*
X264658455Y-145369911D01*
X264658448Y-145369890D01*
X264658448Y-145369889D01*
X264532469Y-145065749D01*
X264377286Y-144775421D01*
X264194393Y-144501702D01*
X263985551Y-144247228D01*
X263985547Y-144247224D01*
X263985538Y-144247214D01*
X263752785Y-144014461D01*
X263752765Y-144014443D01*
X263498306Y-143805613D01*
X263498291Y-143805602D01*
X263224581Y-143622715D01*
X262934251Y-143467531D01*
X262630109Y-143341551D01*
X262630106Y-143341550D01*
X262421593Y-143278298D01*
X262315087Y-143245990D01*
X262315084Y-143245989D01*
X262315073Y-143245986D01*
X261992219Y-143181768D01*
X261992215Y-143181767D01*
X261992213Y-143181767D01*
X261992209Y-143181766D01*
X261992198Y-143181765D01*
X261664606Y-143149500D01*
X261664600Y-143149500D01*
X261335400Y-143149500D01*
X261335393Y-143149500D01*
X261007801Y-143181765D01*
X261007780Y-143181768D01*
X260684926Y-143245986D01*
X260369893Y-143341550D01*
X260369890Y-143341551D01*
X260065748Y-143467531D01*
X259775418Y-143622715D01*
X259501708Y-143805602D01*
X259501693Y-143805613D01*
X259247234Y-144014443D01*
X259247214Y-144014461D01*
X259014461Y-144247214D01*
X259014443Y-144247234D01*
X258805613Y-144501693D01*
X258805602Y-144501708D01*
X258622715Y-144775418D01*
X258467531Y-145065748D01*
X258341551Y-145369890D01*
X258341550Y-145369893D01*
X258245986Y-145684926D01*
X258181768Y-146007780D01*
X258181765Y-146007801D01*
X258149500Y-146335393D01*
X258149500Y-146664606D01*
X258181765Y-146992198D01*
X258181768Y-146992219D01*
X258245986Y-147315073D01*
X258245989Y-147315084D01*
X258245990Y-147315087D01*
X258278298Y-147421593D01*
X258341550Y-147630106D01*
X258341551Y-147630109D01*
X258467531Y-147934251D01*
X258622715Y-148224581D01*
X258805602Y-148498291D01*
X258805613Y-148498306D01*
X259014443Y-148752765D01*
X259014461Y-148752785D01*
X259247214Y-148985538D01*
X259247234Y-148985556D01*
X259459780Y-149159989D01*
X259501702Y-149194393D01*
X259775421Y-149377286D01*
X260065749Y-149532469D01*
X260369889Y-149658448D01*
X260516512Y-149702925D01*
X260575892Y-149741841D01*
X260604808Y-149806682D01*
X260594077Y-149876863D01*
X260547107Y-149930102D01*
X260479935Y-149949500D01*
X204520065Y-149949500D01*
X204451944Y-149929498D01*
X204405451Y-149875842D01*
X204395347Y-149805568D01*
X204424841Y-149740988D01*
X204483487Y-149702926D01*
X204630111Y-149658448D01*
X204934251Y-149532469D01*
X205224579Y-149377286D01*
X205498298Y-149194393D01*
X205752772Y-148985551D01*
X205985551Y-148752772D01*
X206194393Y-148498298D01*
X206377286Y-148224579D01*
X206532469Y-147934251D01*
X206658448Y-147630111D01*
X206754010Y-147315087D01*
X206818233Y-146992213D01*
X206850500Y-146664600D01*
X206850500Y-146335400D01*
X206818233Y-146007787D01*
X206754010Y-145684913D01*
X206658448Y-145369889D01*
X206532469Y-145065749D01*
X206377286Y-144775421D01*
X206194393Y-144501702D01*
X205985551Y-144247228D01*
X205985547Y-144247224D01*
X205985538Y-144247214D01*
X205752785Y-144014461D01*
X205752765Y-144014443D01*
X205498306Y-143805613D01*
X205498291Y-143805602D01*
X205224581Y-143622715D01*
X204934251Y-143467531D01*
X204630109Y-143341551D01*
X204630106Y-143341550D01*
X204421593Y-143278298D01*
X204315087Y-143245990D01*
X204315084Y-143245989D01*
X204315073Y-143245986D01*
X203992219Y-143181768D01*
X203992215Y-143181767D01*
X203992213Y-143181767D01*
X203992209Y-143181766D01*
X203992198Y-143181765D01*
X203664606Y-143149500D01*
X203664600Y-143149500D01*
X203335400Y-143149500D01*
X203335393Y-143149500D01*
X203007801Y-143181765D01*
X203007780Y-143181768D01*
X202684926Y-143245986D01*
X202369893Y-143341550D01*
X202369890Y-143341551D01*
X202065748Y-143467531D01*
X201775418Y-143622715D01*
X201501708Y-143805602D01*
X201501693Y-143805613D01*
X201247234Y-144014443D01*
X201247214Y-144014461D01*
X201014461Y-144247214D01*
X201014443Y-144247234D01*
X200805613Y-144501693D01*
X200805602Y-144501708D01*
X200622715Y-144775418D01*
X200467531Y-145065748D01*
X200341551Y-145369890D01*
X200341544Y-145369911D01*
X200297074Y-145516510D01*
X200258159Y-145575891D01*
X200193318Y-145604807D01*
X200123137Y-145594076D01*
X200069898Y-145547106D01*
X200050500Y-145479934D01*
X200050500Y-140114446D01*
X230081500Y-140114446D01*
X230081500Y-142009553D01*
X230087785Y-142100099D01*
X230087786Y-142100105D01*
X230137659Y-142312156D01*
X230137662Y-142312164D01*
X230225657Y-142511454D01*
X230343999Y-142684212D01*
X230348775Y-142691183D01*
X230348780Y-142691189D01*
X230502810Y-142845219D01*
X230502816Y-142845224D01*
X230502818Y-142845226D01*
X230682546Y-142968343D01*
X230881836Y-143056338D01*
X230881840Y-143056339D01*
X230881843Y-143056340D01*
X230987868Y-143081276D01*
X231093901Y-143106215D01*
X231184448Y-143112500D01*
X231184454Y-143112500D01*
X233079546Y-143112500D01*
X233079552Y-143112500D01*
X233170099Y-143106215D01*
X233346648Y-143064691D01*
X233382156Y-143056340D01*
X233382156Y-143056339D01*
X233382164Y-143056338D01*
X233581454Y-142968343D01*
X233761182Y-142845226D01*
X233915226Y-142691182D01*
X234038343Y-142511454D01*
X234126338Y-142312164D01*
X234176215Y-142100099D01*
X234182500Y-142009552D01*
X234182500Y-140114448D01*
X234176215Y-140023901D01*
X234126338Y-139811836D01*
X234038343Y-139612546D01*
X233915226Y-139432818D01*
X233915224Y-139432816D01*
X233915219Y-139432810D01*
X233761189Y-139278780D01*
X233761183Y-139278775D01*
X233581454Y-139155657D01*
X233382164Y-139067662D01*
X233382156Y-139067659D01*
X233170105Y-139017786D01*
X233170099Y-139017785D01*
X233079553Y-139011500D01*
X233079552Y-139011500D01*
X231184448Y-139011500D01*
X231184446Y-139011500D01*
X231093900Y-139017785D01*
X231093894Y-139017786D01*
X230881843Y-139067659D01*
X230881835Y-139067662D01*
X230682545Y-139155657D01*
X230502816Y-139278775D01*
X230502810Y-139278780D01*
X230348780Y-139432810D01*
X230348775Y-139432816D01*
X230225657Y-139612545D01*
X230137662Y-139811835D01*
X230137659Y-139811843D01*
X230087786Y-140023894D01*
X230087785Y-140023900D01*
X230081500Y-140114446D01*
X200050500Y-140114446D01*
X200050500Y-137114446D01*
X225381500Y-137114446D01*
X225381500Y-139009553D01*
X225387785Y-139100099D01*
X225387786Y-139100105D01*
X225437659Y-139312156D01*
X225437662Y-139312164D01*
X225525657Y-139511454D01*
X225648775Y-139691183D01*
X225648780Y-139691189D01*
X225802810Y-139845219D01*
X225802816Y-139845224D01*
X225802818Y-139845226D01*
X225982546Y-139968343D01*
X226181836Y-140056338D01*
X226181840Y-140056339D01*
X226181843Y-140056340D01*
X226287868Y-140081276D01*
X226393901Y-140106215D01*
X226484448Y-140112500D01*
X226484454Y-140112500D01*
X228379546Y-140112500D01*
X228379552Y-140112500D01*
X228470099Y-140106215D01*
X228646648Y-140064691D01*
X228682156Y-140056340D01*
X228682156Y-140056339D01*
X228682164Y-140056338D01*
X228881454Y-139968343D01*
X229061182Y-139845226D01*
X229215226Y-139691182D01*
X229338343Y-139511454D01*
X229426338Y-139312164D01*
X229476215Y-139100099D01*
X229482500Y-139009552D01*
X229482500Y-137114448D01*
X229476215Y-137023901D01*
X229426338Y-136811836D01*
X229338343Y-136612546D01*
X229215226Y-136432818D01*
X229215224Y-136432816D01*
X229215219Y-136432810D01*
X229061189Y-136278780D01*
X229061183Y-136278775D01*
X228927331Y-136187084D01*
X228881454Y-136155657D01*
X228682164Y-136067662D01*
X228682156Y-136067659D01*
X228470105Y-136017786D01*
X228470099Y-136017785D01*
X228379553Y-136011500D01*
X228379552Y-136011500D01*
X226484448Y-136011500D01*
X226484446Y-136011500D01*
X226393900Y-136017785D01*
X226393894Y-136017786D01*
X226181843Y-136067659D01*
X226181835Y-136067662D01*
X225982545Y-136155657D01*
X225802816Y-136278775D01*
X225802810Y-136278780D01*
X225648780Y-136432810D01*
X225648775Y-136432816D01*
X225525657Y-136612545D01*
X225437662Y-136811835D01*
X225437659Y-136811843D01*
X225387786Y-137023894D01*
X225387785Y-137023900D01*
X225381500Y-137114446D01*
X200050500Y-137114446D01*
X200050500Y-135448082D01*
X234301500Y-135448082D01*
X234301500Y-135595918D01*
X234330342Y-135740913D01*
X234386916Y-135877495D01*
X234469049Y-136000416D01*
X234573584Y-136104951D01*
X234696505Y-136187084D01*
X234724429Y-136198650D01*
X234765307Y-136225964D01*
X240701457Y-142162114D01*
X240816189Y-142238775D01*
X240943672Y-142291580D01*
X240943679Y-142291581D01*
X240946288Y-142292373D01*
X240947494Y-142293163D01*
X240949391Y-142293949D01*
X240949242Y-142294308D01*
X241005673Y-142331282D01*
X241011659Y-142338889D01*
X241032447Y-142367501D01*
X241032449Y-142367503D01*
X241032451Y-142367506D01*
X241160493Y-142495548D01*
X241160496Y-142495550D01*
X241160499Y-142495553D01*
X241307006Y-142601996D01*
X241468361Y-142684211D01*
X241640591Y-142740171D01*
X241819454Y-142768500D01*
X241819457Y-142768500D01*
X242000543Y-142768500D01*
X242000546Y-142768500D01*
X242179409Y-142740171D01*
X242351639Y-142684211D01*
X242512994Y-142601996D01*
X242659501Y-142495553D01*
X242787553Y-142367501D01*
X242893996Y-142220994D01*
X242976211Y-142059639D01*
X243032171Y-141887409D01*
X243055551Y-141739787D01*
X243085963Y-141675636D01*
X243146232Y-141638109D01*
X243217221Y-141639123D01*
X243276393Y-141678356D01*
X243304448Y-141739786D01*
X243327829Y-141887409D01*
X243327830Y-141887412D01*
X243367512Y-142009545D01*
X243383789Y-142059639D01*
X243436003Y-142162114D01*
X243466006Y-142220997D01*
X243492321Y-142257216D01*
X243572447Y-142367501D01*
X243572449Y-142367503D01*
X243572451Y-142367506D01*
X243700493Y-142495548D01*
X243700496Y-142495550D01*
X243700499Y-142495553D01*
X243847006Y-142601996D01*
X244008361Y-142684211D01*
X244180591Y-142740171D01*
X244359454Y-142768500D01*
X244359457Y-142768500D01*
X244540543Y-142768500D01*
X244540546Y-142768500D01*
X244719409Y-142740171D01*
X244891639Y-142684211D01*
X245052994Y-142601996D01*
X245199501Y-142495553D01*
X245327553Y-142367501D01*
X245433996Y-142220994D01*
X245516211Y-142059639D01*
X245572171Y-141887409D01*
X245595551Y-141739787D01*
X245625963Y-141675636D01*
X245686232Y-141638109D01*
X245757221Y-141639123D01*
X245816393Y-141678356D01*
X245844448Y-141739786D01*
X245867829Y-141887409D01*
X245867830Y-141887412D01*
X245907512Y-142009545D01*
X245923789Y-142059639D01*
X245976003Y-142162114D01*
X246006006Y-142220997D01*
X246032321Y-142257216D01*
X246112447Y-142367501D01*
X246112449Y-142367503D01*
X246112451Y-142367506D01*
X246240493Y-142495548D01*
X246240496Y-142495550D01*
X246240499Y-142495553D01*
X246387006Y-142601996D01*
X246548361Y-142684211D01*
X246720591Y-142740171D01*
X246899454Y-142768500D01*
X246899457Y-142768500D01*
X247080543Y-142768500D01*
X247080546Y-142768500D01*
X247259409Y-142740171D01*
X247431639Y-142684211D01*
X247592994Y-142601996D01*
X247739501Y-142495553D01*
X247867553Y-142367501D01*
X247973996Y-142220994D01*
X248056211Y-142059639D01*
X248112171Y-141887409D01*
X248135551Y-141739787D01*
X248165963Y-141675636D01*
X248226232Y-141638109D01*
X248297221Y-141639123D01*
X248356393Y-141678356D01*
X248384448Y-141739786D01*
X248407829Y-141887409D01*
X248407830Y-141887412D01*
X248447512Y-142009545D01*
X248463789Y-142059639D01*
X248516003Y-142162114D01*
X248546006Y-142220997D01*
X248572321Y-142257216D01*
X248652447Y-142367501D01*
X248652449Y-142367503D01*
X248652451Y-142367506D01*
X248780493Y-142495548D01*
X248780496Y-142495550D01*
X248780499Y-142495553D01*
X248927006Y-142601996D01*
X249088361Y-142684211D01*
X249260591Y-142740171D01*
X249439454Y-142768500D01*
X249439457Y-142768500D01*
X249620543Y-142768500D01*
X249620546Y-142768500D01*
X249799409Y-142740171D01*
X249971639Y-142684211D01*
X250132994Y-142601996D01*
X250279501Y-142495553D01*
X250407553Y-142367501D01*
X250513996Y-142220994D01*
X250596211Y-142059639D01*
X250652171Y-141887409D01*
X250680500Y-141708546D01*
X250680500Y-141527454D01*
X250652171Y-141348591D01*
X250596211Y-141176361D01*
X250513996Y-141015006D01*
X250407553Y-140868499D01*
X250407550Y-140868496D01*
X250407548Y-140868493D01*
X250279506Y-140740451D01*
X250279503Y-140740449D01*
X250279501Y-140740447D01*
X250144856Y-140642622D01*
X250132997Y-140634006D01*
X250132996Y-140634005D01*
X250132994Y-140634004D01*
X249971639Y-140551789D01*
X249971636Y-140551788D01*
X249971634Y-140551787D01*
X249799412Y-140495830D01*
X249799409Y-140495829D01*
X249620546Y-140467500D01*
X249439454Y-140467500D01*
X249260591Y-140495829D01*
X249260588Y-140495829D01*
X249260587Y-140495830D01*
X249088365Y-140551787D01*
X249088359Y-140551790D01*
X248927002Y-140634006D01*
X248780496Y-140740449D01*
X248780493Y-140740451D01*
X248652451Y-140868493D01*
X248652449Y-140868496D01*
X248546006Y-141015002D01*
X248463790Y-141176359D01*
X248463787Y-141176365D01*
X248407830Y-141348587D01*
X248384449Y-141496210D01*
X248354036Y-141560363D01*
X248293768Y-141597890D01*
X248222779Y-141596876D01*
X248163607Y-141557643D01*
X248135551Y-141496210D01*
X248112171Y-141348591D01*
X248056211Y-141176361D01*
X247973996Y-141015006D01*
X247867553Y-140868499D01*
X247867550Y-140868496D01*
X247867548Y-140868493D01*
X247739506Y-140740451D01*
X247739503Y-140740449D01*
X247739501Y-140740447D01*
X247604856Y-140642622D01*
X247592997Y-140634006D01*
X247592996Y-140634005D01*
X247592994Y-140634004D01*
X247431639Y-140551789D01*
X247431636Y-140551788D01*
X247431634Y-140551787D01*
X247259412Y-140495830D01*
X247259409Y-140495829D01*
X247080546Y-140467500D01*
X246899454Y-140467500D01*
X246720591Y-140495829D01*
X246720588Y-140495829D01*
X246720587Y-140495830D01*
X246548365Y-140551787D01*
X246548359Y-140551790D01*
X246387002Y-140634006D01*
X246240496Y-140740449D01*
X246240493Y-140740451D01*
X246112451Y-140868493D01*
X246112449Y-140868496D01*
X246006006Y-141015002D01*
X245923790Y-141176359D01*
X245923787Y-141176365D01*
X245867830Y-141348587D01*
X245844449Y-141496210D01*
X245814036Y-141560363D01*
X245753768Y-141597890D01*
X245682779Y-141596876D01*
X245623607Y-141557643D01*
X245595551Y-141496210D01*
X245572171Y-141348591D01*
X245516211Y-141176361D01*
X245433996Y-141015006D01*
X245327553Y-140868499D01*
X245327550Y-140868496D01*
X245327548Y-140868493D01*
X245199506Y-140740451D01*
X245199503Y-140740449D01*
X245199501Y-140740447D01*
X245064856Y-140642622D01*
X245052997Y-140634006D01*
X245052996Y-140634005D01*
X245052994Y-140634004D01*
X244891639Y-140551789D01*
X244891636Y-140551788D01*
X244891634Y-140551787D01*
X244719412Y-140495830D01*
X244719409Y-140495829D01*
X244540546Y-140467500D01*
X244359454Y-140467500D01*
X244180591Y-140495829D01*
X244180588Y-140495829D01*
X244180587Y-140495830D01*
X244008365Y-140551787D01*
X244008359Y-140551790D01*
X243847002Y-140634006D01*
X243700496Y-140740449D01*
X243700493Y-140740451D01*
X243572451Y-140868493D01*
X243572449Y-140868496D01*
X243466006Y-141015002D01*
X243383790Y-141176359D01*
X243383787Y-141176365D01*
X243327830Y-141348587D01*
X243304449Y-141496210D01*
X243274036Y-141560363D01*
X243213768Y-141597890D01*
X243142779Y-141596876D01*
X243083607Y-141557643D01*
X243055551Y-141496210D01*
X243032171Y-141348591D01*
X242976211Y-141176361D01*
X242893996Y-141015006D01*
X242787553Y-140868499D01*
X242787550Y-140868496D01*
X242787548Y-140868493D01*
X242659506Y-140740451D01*
X242659503Y-140740449D01*
X242659501Y-140740447D01*
X242524856Y-140642622D01*
X242512997Y-140634006D01*
X242512996Y-140634005D01*
X242512994Y-140634004D01*
X242351639Y-140551789D01*
X242351636Y-140551788D01*
X242351634Y-140551787D01*
X242179412Y-140495830D01*
X242179409Y-140495829D01*
X242000546Y-140467500D01*
X241819454Y-140467500D01*
X241640591Y-140495829D01*
X241640588Y-140495829D01*
X241640587Y-140495830D01*
X241468365Y-140551787D01*
X241468359Y-140551790D01*
X241306997Y-140634008D01*
X241306993Y-140634011D01*
X241305807Y-140634873D01*
X241305281Y-140635060D01*
X241302780Y-140636593D01*
X241302457Y-140636067D01*
X241238935Y-140658717D01*
X241169787Y-140642622D01*
X241142673Y-140622016D01*
X235755964Y-135235307D01*
X235728650Y-135194429D01*
X235717084Y-135166505D01*
X235634951Y-135043584D01*
X235530416Y-134939049D01*
X235407495Y-134856916D01*
X235270916Y-134800343D01*
X235270913Y-134800342D01*
X235125918Y-134771500D01*
X234978082Y-134771500D01*
X234905584Y-134785921D01*
X234833086Y-134800342D01*
X234833083Y-134800343D01*
X234696504Y-134856916D01*
X234573588Y-134939046D01*
X234573581Y-134939051D01*
X234469051Y-135043581D01*
X234469046Y-135043588D01*
X234386916Y-135166504D01*
X234330343Y-135303083D01*
X234330342Y-135303086D01*
X234330342Y-135303087D01*
X234301500Y-135448082D01*
X200050500Y-135448082D01*
X200050500Y-131008247D01*
X200051576Y-130991819D01*
X200063622Y-130900216D01*
X200072113Y-130868484D01*
X200104258Y-130790782D01*
X200120667Y-130762326D01*
X200171801Y-130695585D01*
X200195009Y-130672335D01*
X200261663Y-130621081D01*
X200290095Y-130604623D01*
X200297590Y-130601506D01*
X200367732Y-130572345D01*
X200399445Y-130563798D01*
X200490943Y-130551603D01*
X200507580Y-130550500D01*
X204562023Y-130550500D01*
X204562026Y-130550500D01*
X204682969Y-130522895D01*
X204794737Y-130469071D01*
X204891725Y-130391725D01*
X204969071Y-130294737D01*
X205022895Y-130182969D01*
X205050500Y-130062026D01*
X205050500Y-130000000D01*
X205050500Y-129983592D01*
X205050500Y-113979082D01*
X205050500Y-113937974D01*
X205022895Y-113817031D01*
X204969071Y-113705263D01*
X204891725Y-113608275D01*
X204794737Y-113530929D01*
X204682969Y-113477105D01*
X204562026Y-113449500D01*
X204562023Y-113449500D01*
X200508258Y-113449500D01*
X200491812Y-113448422D01*
X200475725Y-113446304D01*
X200400109Y-113436349D01*
X200368337Y-113427835D01*
X200290572Y-113395623D01*
X200262088Y-113379178D01*
X200218492Y-113345726D01*
X200195312Y-113327939D01*
X200172060Y-113304687D01*
X200120821Y-113237911D01*
X200104376Y-113209427D01*
X200072164Y-113131662D01*
X200063650Y-113099888D01*
X200051578Y-113008187D01*
X200050500Y-112991742D01*
X200050500Y-104380129D01*
X205393750Y-104380129D01*
X205393750Y-105909859D01*
X205393751Y-105909866D01*
X205396664Y-105934990D01*
X205396666Y-105934994D01*
X205442043Y-106037765D01*
X205521482Y-106117204D01*
X205521484Y-106117205D01*
X205521485Y-106117206D01*
X205624259Y-106162585D01*
X205624258Y-106162585D01*
X205628728Y-106163103D01*
X205649385Y-106165500D01*
X205787750Y-106165499D01*
X205855870Y-106185501D01*
X205902363Y-106239156D01*
X205913750Y-106291499D01*
X205913750Y-106348358D01*
X205913750Y-106480142D01*
X205938717Y-106573323D01*
X205947857Y-106607433D01*
X205947860Y-106607440D01*
X206013747Y-106721560D01*
X206013755Y-106721570D01*
X207603090Y-108310904D01*
X207637115Y-108373216D01*
X207632051Y-108444031D01*
X207603090Y-108489094D01*
X206532963Y-109559221D01*
X206532961Y-109559224D01*
X206457505Y-109634679D01*
X206457497Y-109634689D01*
X206391610Y-109748809D01*
X206391607Y-109748816D01*
X206357500Y-109876109D01*
X206357500Y-113318943D01*
X206337498Y-113387064D01*
X206320595Y-113408038D01*
X206275051Y-113453581D01*
X206275046Y-113453588D01*
X206192916Y-113576504D01*
X206136343Y-113713083D01*
X206136342Y-113713086D01*
X206136342Y-113713087D01*
X206107500Y-113858082D01*
X206107500Y-114005918D01*
X206136342Y-114150913D01*
X206192916Y-114287495D01*
X206275049Y-114410416D01*
X206379584Y-114514951D01*
X206502505Y-114597084D01*
X206639087Y-114653658D01*
X206784082Y-114682500D01*
X206784087Y-114682500D01*
X206931913Y-114682500D01*
X206931918Y-114682500D01*
X207076913Y-114653658D01*
X207213495Y-114597084D01*
X207336416Y-114514951D01*
X207440951Y-114410416D01*
X207523084Y-114287495D01*
X207579658Y-114150913D01*
X207608500Y-114005918D01*
X207608500Y-113858082D01*
X207579658Y-113713087D01*
X207523084Y-113576505D01*
X207440951Y-113453584D01*
X207395405Y-113408038D01*
X207361379Y-113345726D01*
X207358500Y-113318943D01*
X207358500Y-110201503D01*
X207378502Y-110133382D01*
X207395405Y-110112408D01*
X208320408Y-109187405D01*
X208382720Y-109153379D01*
X208409503Y-109150500D01*
X208473913Y-109150500D01*
X208473918Y-109150500D01*
X208618913Y-109121658D01*
X208755495Y-109065084D01*
X208878416Y-108982951D01*
X208982951Y-108878416D01*
X209065084Y-108755495D01*
X209121658Y-108618913D01*
X209150500Y-108473918D01*
X209150500Y-108326082D01*
X209121658Y-108181087D01*
X209065084Y-108044505D01*
X208982951Y-107921584D01*
X208878416Y-107817049D01*
X208755495Y-107734916D01*
X208618916Y-107678343D01*
X208618913Y-107678342D01*
X208473918Y-107649500D01*
X208473916Y-107649500D01*
X208409504Y-107649500D01*
X208341383Y-107629498D01*
X208320409Y-107612595D01*
X207088408Y-106380594D01*
X207054382Y-106318282D01*
X207059447Y-106247467D01*
X207101994Y-106190631D01*
X207168514Y-106165820D01*
X207177503Y-106165499D01*
X207179110Y-106165499D01*
X207179114Y-106165499D01*
X207204241Y-106162585D01*
X207307015Y-106117206D01*
X207386456Y-106037765D01*
X207431835Y-105934991D01*
X207434750Y-105909865D01*
X207434749Y-105044486D01*
X207933750Y-105044486D01*
X207933750Y-105044489D01*
X207933750Y-105245511D01*
X207972967Y-105442669D01*
X208049894Y-105628388D01*
X208124517Y-105740069D01*
X208161575Y-105795530D01*
X208161580Y-105795536D01*
X208303713Y-105937669D01*
X208303719Y-105937674D01*
X208470862Y-106049356D01*
X208656581Y-106126283D01*
X208853739Y-106165500D01*
X208853740Y-106165500D01*
X209054760Y-106165500D01*
X209054761Y-106165500D01*
X209251919Y-106126283D01*
X209437638Y-106049356D01*
X209604781Y-105937674D01*
X209746924Y-105795531D01*
X209858606Y-105628388D01*
X209935533Y-105442669D01*
X209974750Y-105245511D01*
X209974750Y-105044489D01*
X209974749Y-105044486D01*
X213013750Y-105044486D01*
X213013750Y-105044489D01*
X213013750Y-105245511D01*
X213052967Y-105442669D01*
X213129894Y-105628388D01*
X213204517Y-105740069D01*
X213241575Y-105795530D01*
X213241580Y-105795536D01*
X213383713Y-105937669D01*
X213383719Y-105937674D01*
X213550862Y-106049356D01*
X213736581Y-106126283D01*
X213933739Y-106165500D01*
X213933740Y-106165500D01*
X214134760Y-106165500D01*
X214134761Y-106165500D01*
X214331919Y-106126283D01*
X214517638Y-106049356D01*
X214684781Y-105937674D01*
X214826924Y-105795531D01*
X214938606Y-105628388D01*
X215015533Y-105442669D01*
X215054750Y-105245511D01*
X215054750Y-105163129D01*
X230091500Y-105163129D01*
X230091500Y-106952859D01*
X230091501Y-106952866D01*
X230094414Y-106977990D01*
X230094416Y-106977994D01*
X230139793Y-107080765D01*
X230219232Y-107160204D01*
X230219234Y-107160205D01*
X230219235Y-107160206D01*
X230322009Y-107205585D01*
X230347135Y-107208500D01*
X232136864Y-107208499D01*
X232161991Y-107205585D01*
X232264765Y-107160206D01*
X232344206Y-107080765D01*
X232389585Y-106977991D01*
X232392500Y-106952865D01*
X232392499Y-106240534D01*
X232412501Y-106172416D01*
X232466157Y-106125923D01*
X232536430Y-106115819D01*
X232601011Y-106145312D01*
X232639395Y-106205039D01*
X232642947Y-106220825D01*
X232659829Y-106327409D01*
X232659830Y-106327412D01*
X232677109Y-106380594D01*
X232715789Y-106499639D01*
X232798004Y-106660994D01*
X232904447Y-106807501D01*
X232904449Y-106807503D01*
X232904451Y-106807506D01*
X233032493Y-106935548D01*
X233032496Y-106935550D01*
X233032499Y-106935553D01*
X233179006Y-107041996D01*
X233340361Y-107124211D01*
X233512591Y-107180171D01*
X233691454Y-107208500D01*
X233691457Y-107208500D01*
X233872543Y-107208500D01*
X233872546Y-107208500D01*
X234051409Y-107180171D01*
X234223639Y-107124211D01*
X234384994Y-107041996D01*
X234531501Y-106935553D01*
X234659553Y-106807501D01*
X234765996Y-106660994D01*
X234848211Y-106499639D01*
X234904171Y-106327409D01*
X234927551Y-106179787D01*
X234957963Y-106115636D01*
X235018232Y-106078109D01*
X235089221Y-106079123D01*
X235148393Y-106118356D01*
X235176448Y-106179786D01*
X235199829Y-106327409D01*
X235199830Y-106327412D01*
X235217109Y-106380594D01*
X235255789Y-106499639D01*
X235338004Y-106660994D01*
X235444447Y-106807501D01*
X235444449Y-106807503D01*
X235444451Y-106807506D01*
X235572493Y-106935548D01*
X235572496Y-106935550D01*
X235572499Y-106935553D01*
X235719006Y-107041996D01*
X235880361Y-107124211D01*
X236052591Y-107180171D01*
X236231454Y-107208500D01*
X236231457Y-107208500D01*
X236412543Y-107208500D01*
X236412546Y-107208500D01*
X236591409Y-107180171D01*
X236763639Y-107124211D01*
X236924994Y-107041996D01*
X237071501Y-106935553D01*
X237199553Y-106807501D01*
X237305996Y-106660994D01*
X237388211Y-106499639D01*
X237444171Y-106327409D01*
X237467551Y-106179787D01*
X237497963Y-106115636D01*
X237558232Y-106078109D01*
X237629221Y-106079123D01*
X237688393Y-106118356D01*
X237716448Y-106179786D01*
X237739829Y-106327409D01*
X237739830Y-106327412D01*
X237757109Y-106380594D01*
X237795789Y-106499639D01*
X237878004Y-106660994D01*
X237984447Y-106807501D01*
X237984449Y-106807503D01*
X237984451Y-106807506D01*
X238112493Y-106935548D01*
X238112496Y-106935550D01*
X238112499Y-106935553D01*
X238259006Y-107041996D01*
X238420361Y-107124211D01*
X238592591Y-107180171D01*
X238771454Y-107208500D01*
X238771457Y-107208500D01*
X238952543Y-107208500D01*
X238952546Y-107208500D01*
X239131409Y-107180171D01*
X239303639Y-107124211D01*
X239464994Y-107041996D01*
X239611501Y-106935553D01*
X239739553Y-106807501D01*
X239845996Y-106660994D01*
X239928211Y-106499639D01*
X239984171Y-106327409D01*
X240012500Y-106148546D01*
X240012500Y-105967454D01*
X239984171Y-105788591D01*
X239928211Y-105616361D01*
X239845996Y-105455006D01*
X239739553Y-105308499D01*
X239739550Y-105308496D01*
X239739548Y-105308493D01*
X239611506Y-105180451D01*
X239611503Y-105180449D01*
X239611501Y-105180447D01*
X239464994Y-105074004D01*
X239303639Y-104991789D01*
X239303636Y-104991788D01*
X239303634Y-104991787D01*
X239131412Y-104935830D01*
X239131409Y-104935829D01*
X238952546Y-104907500D01*
X238771454Y-104907500D01*
X238592591Y-104935829D01*
X238592588Y-104935829D01*
X238592587Y-104935830D01*
X238420365Y-104991787D01*
X238420359Y-104991790D01*
X238259002Y-105074006D01*
X238112496Y-105180449D01*
X238112493Y-105180451D01*
X237984451Y-105308493D01*
X237984449Y-105308496D01*
X237878006Y-105455002D01*
X237795790Y-105616359D01*
X237795787Y-105616365D01*
X237791881Y-105628388D01*
X237739829Y-105788591D01*
X237716642Y-105934994D01*
X237716449Y-105936210D01*
X237686036Y-106000363D01*
X237625768Y-106037890D01*
X237554779Y-106036876D01*
X237495607Y-105997643D01*
X237467551Y-105936210D01*
X237444171Y-105788591D01*
X237388211Y-105616361D01*
X237305996Y-105455006D01*
X237199553Y-105308499D01*
X237199550Y-105308496D01*
X237199548Y-105308493D01*
X237071506Y-105180451D01*
X237071503Y-105180449D01*
X237071501Y-105180447D01*
X236924994Y-105074004D01*
X236763639Y-104991789D01*
X236763636Y-104991788D01*
X236763634Y-104991787D01*
X236591412Y-104935830D01*
X236591409Y-104935829D01*
X236412546Y-104907500D01*
X236231454Y-104907500D01*
X236052591Y-104935829D01*
X236052588Y-104935829D01*
X236052587Y-104935830D01*
X235880365Y-104991787D01*
X235880359Y-104991790D01*
X235719002Y-105074006D01*
X235572496Y-105180449D01*
X235572493Y-105180451D01*
X235444451Y-105308493D01*
X235444449Y-105308496D01*
X235338006Y-105455002D01*
X235255790Y-105616359D01*
X235255787Y-105616365D01*
X235251881Y-105628388D01*
X235199829Y-105788591D01*
X235176642Y-105934994D01*
X235176449Y-105936210D01*
X235146036Y-106000363D01*
X235085768Y-106037890D01*
X235014779Y-106036876D01*
X234955607Y-105997643D01*
X234927551Y-105936210D01*
X234904171Y-105788591D01*
X234848211Y-105616361D01*
X234765996Y-105455006D01*
X234659553Y-105308499D01*
X234659550Y-105308496D01*
X234659548Y-105308493D01*
X234531506Y-105180451D01*
X234531503Y-105180449D01*
X234531501Y-105180447D01*
X234384994Y-105074004D01*
X234223639Y-104991789D01*
X234223636Y-104991788D01*
X234223634Y-104991787D01*
X234051412Y-104935830D01*
X234051409Y-104935829D01*
X233872546Y-104907500D01*
X233691454Y-104907500D01*
X233512591Y-104935829D01*
X233512588Y-104935829D01*
X233512587Y-104935830D01*
X233340365Y-104991787D01*
X233340359Y-104991790D01*
X233179002Y-105074006D01*
X233032496Y-105180449D01*
X233032493Y-105180451D01*
X232904451Y-105308493D01*
X232904449Y-105308496D01*
X232798006Y-105455002D01*
X232715790Y-105616359D01*
X232715787Y-105616365D01*
X232659830Y-105788587D01*
X232642948Y-105895174D01*
X232612535Y-105959327D01*
X232552267Y-105996854D01*
X232481277Y-105995840D01*
X232422106Y-105956607D01*
X232393538Y-105891611D01*
X232392499Y-105875463D01*
X232392499Y-105163140D01*
X232392499Y-105163136D01*
X232389585Y-105138009D01*
X232361324Y-105074004D01*
X232344206Y-105035234D01*
X232264767Y-104955795D01*
X232264765Y-104955794D01*
X232161989Y-104910414D01*
X232161990Y-104910414D01*
X232136868Y-104907500D01*
X230347140Y-104907500D01*
X230347133Y-104907501D01*
X230322009Y-104910414D01*
X230322005Y-104910416D01*
X230219234Y-104955793D01*
X230139795Y-105035232D01*
X230139794Y-105035234D01*
X230094414Y-105138009D01*
X230091500Y-105163129D01*
X215054750Y-105163129D01*
X215054750Y-105044489D01*
X215015533Y-104847331D01*
X214938606Y-104661612D01*
X214826924Y-104494469D01*
X214823485Y-104489322D01*
X214825275Y-104488125D01*
X214801345Y-104431756D01*
X214800500Y-104417187D01*
X214800500Y-102284454D01*
X222979500Y-102284454D01*
X222979500Y-102465546D01*
X223007829Y-102644409D01*
X223063789Y-102816639D01*
X223146004Y-102977994D01*
X223252447Y-103124501D01*
X223252449Y-103124503D01*
X223252451Y-103124506D01*
X223380493Y-103252548D01*
X223380496Y-103252550D01*
X223380499Y-103252553D01*
X223527006Y-103358996D01*
X223688361Y-103441211D01*
X223860591Y-103497171D01*
X224039454Y-103525500D01*
X224039457Y-103525500D01*
X224220543Y-103525500D01*
X224220546Y-103525500D01*
X224399409Y-103497171D01*
X224571639Y-103441211D01*
X224732994Y-103358996D01*
X224879501Y-103252553D01*
X225007553Y-103124501D01*
X225113996Y-102977994D01*
X225196211Y-102816639D01*
X225252171Y-102644409D01*
X225275551Y-102496787D01*
X225305963Y-102432636D01*
X225366232Y-102395109D01*
X225437221Y-102396123D01*
X225496393Y-102435356D01*
X225524448Y-102496786D01*
X225547829Y-102644409D01*
X225603789Y-102816639D01*
X225686004Y-102977994D01*
X225792447Y-103124501D01*
X225792449Y-103124503D01*
X225792451Y-103124506D01*
X225920493Y-103252548D01*
X225920496Y-103252550D01*
X225920499Y-103252553D01*
X226067006Y-103358996D01*
X226228361Y-103441211D01*
X226400591Y-103497171D01*
X226579454Y-103525500D01*
X226579457Y-103525500D01*
X226760543Y-103525500D01*
X226760546Y-103525500D01*
X226939409Y-103497171D01*
X227111639Y-103441211D01*
X227272994Y-103358996D01*
X227419501Y-103252553D01*
X227547553Y-103124501D01*
X227653996Y-102977994D01*
X227736211Y-102816639D01*
X227792171Y-102644409D01*
X227820500Y-102465546D01*
X227820500Y-102284454D01*
X227792171Y-102105591D01*
X227736211Y-101933361D01*
X227653996Y-101772006D01*
X227547553Y-101625499D01*
X227547550Y-101625496D01*
X227547548Y-101625493D01*
X227419506Y-101497451D01*
X227419503Y-101497449D01*
X227419501Y-101497447D01*
X227395665Y-101480129D01*
X230091500Y-101480129D01*
X230091500Y-103269859D01*
X230091501Y-103269866D01*
X230094414Y-103294990D01*
X230094416Y-103294994D01*
X230139793Y-103397765D01*
X230219232Y-103477204D01*
X230219234Y-103477205D01*
X230219235Y-103477206D01*
X230322009Y-103522585D01*
X230347135Y-103525500D01*
X232136864Y-103525499D01*
X232161991Y-103522585D01*
X232264765Y-103477206D01*
X232344206Y-103397765D01*
X232389585Y-103294991D01*
X232392500Y-103269865D01*
X232392499Y-102557534D01*
X232412501Y-102489416D01*
X232466157Y-102442923D01*
X232536430Y-102432819D01*
X232601011Y-102462312D01*
X232639395Y-102522039D01*
X232642947Y-102537825D01*
X232659829Y-102644409D01*
X232715789Y-102816639D01*
X232798004Y-102977994D01*
X232904447Y-103124501D01*
X232904449Y-103124503D01*
X232904451Y-103124506D01*
X233032493Y-103252548D01*
X233032496Y-103252550D01*
X233032499Y-103252553D01*
X233179006Y-103358996D01*
X233340361Y-103441211D01*
X233512591Y-103497171D01*
X233691454Y-103525500D01*
X233691457Y-103525500D01*
X233872543Y-103525500D01*
X233872546Y-103525500D01*
X234051409Y-103497171D01*
X234223639Y-103441211D01*
X234384994Y-103358996D01*
X234531501Y-103252553D01*
X234659553Y-103124501D01*
X234765996Y-102977994D01*
X234848211Y-102816639D01*
X234904171Y-102644409D01*
X234927551Y-102496787D01*
X234957963Y-102432636D01*
X235018232Y-102395109D01*
X235089221Y-102396123D01*
X235148393Y-102435356D01*
X235176448Y-102496786D01*
X235199829Y-102644409D01*
X235255789Y-102816639D01*
X235338004Y-102977994D01*
X235444447Y-103124501D01*
X235444449Y-103124503D01*
X235444451Y-103124506D01*
X235572493Y-103252548D01*
X235572496Y-103252550D01*
X235572499Y-103252553D01*
X235719006Y-103358996D01*
X235880361Y-103441211D01*
X236052591Y-103497171D01*
X236231454Y-103525500D01*
X236231457Y-103525500D01*
X236412543Y-103525500D01*
X236412546Y-103525500D01*
X236591409Y-103497171D01*
X236763639Y-103441211D01*
X236924994Y-103358996D01*
X237071501Y-103252553D01*
X237199553Y-103124501D01*
X237305996Y-102977994D01*
X237388211Y-102816639D01*
X237444171Y-102644409D01*
X237467551Y-102496787D01*
X237497963Y-102432636D01*
X237558232Y-102395109D01*
X237629221Y-102396123D01*
X237688393Y-102435356D01*
X237716448Y-102496786D01*
X237739829Y-102644409D01*
X237795789Y-102816639D01*
X237878004Y-102977994D01*
X237984447Y-103124501D01*
X237984449Y-103124503D01*
X237984451Y-103124506D01*
X238112493Y-103252548D01*
X238112496Y-103252550D01*
X238112499Y-103252553D01*
X238259006Y-103358996D01*
X238420361Y-103441211D01*
X238592591Y-103497171D01*
X238771454Y-103525500D01*
X238771457Y-103525500D01*
X238952543Y-103525500D01*
X238952546Y-103525500D01*
X239131409Y-103497171D01*
X239303639Y-103441211D01*
X239464994Y-103358996D01*
X239611501Y-103252553D01*
X239739553Y-103124501D01*
X239845996Y-102977994D01*
X239928211Y-102816639D01*
X239984171Y-102644409D01*
X240012500Y-102465546D01*
X240012500Y-102284454D01*
X239984171Y-102105591D01*
X239928211Y-101933361D01*
X239845996Y-101772006D01*
X239739553Y-101625499D01*
X239739550Y-101625496D01*
X239739548Y-101625493D01*
X239611506Y-101497451D01*
X239611503Y-101497449D01*
X239611501Y-101497447D01*
X239464994Y-101391004D01*
X239303639Y-101308789D01*
X239303636Y-101308788D01*
X239303634Y-101308787D01*
X239131412Y-101252830D01*
X239131409Y-101252829D01*
X238952546Y-101224500D01*
X238771454Y-101224500D01*
X238592591Y-101252829D01*
X238592588Y-101252829D01*
X238592587Y-101252830D01*
X238420365Y-101308787D01*
X238420359Y-101308790D01*
X238259002Y-101391006D01*
X238112496Y-101497449D01*
X238112493Y-101497451D01*
X237984451Y-101625493D01*
X237984449Y-101625496D01*
X237878006Y-101772002D01*
X237795790Y-101933359D01*
X237795787Y-101933365D01*
X237739830Y-102105587D01*
X237739829Y-102105591D01*
X237723513Y-102208611D01*
X237716449Y-102253210D01*
X237686036Y-102317363D01*
X237625768Y-102354890D01*
X237554779Y-102353876D01*
X237495607Y-102314643D01*
X237467551Y-102253210D01*
X237444171Y-102105591D01*
X237388211Y-101933361D01*
X237305996Y-101772006D01*
X237199553Y-101625499D01*
X237199550Y-101625496D01*
X237199548Y-101625493D01*
X237071506Y-101497451D01*
X237071503Y-101497449D01*
X237071501Y-101497447D01*
X236924994Y-101391004D01*
X236763639Y-101308789D01*
X236763636Y-101308788D01*
X236763634Y-101308787D01*
X236591412Y-101252830D01*
X236591409Y-101252829D01*
X236412546Y-101224500D01*
X236231454Y-101224500D01*
X236052591Y-101252829D01*
X236052588Y-101252829D01*
X236052587Y-101252830D01*
X235880365Y-101308787D01*
X235880359Y-101308790D01*
X235719002Y-101391006D01*
X235572496Y-101497449D01*
X235572493Y-101497451D01*
X235444451Y-101625493D01*
X235444449Y-101625496D01*
X235338006Y-101772002D01*
X235255790Y-101933359D01*
X235255787Y-101933365D01*
X235199830Y-102105587D01*
X235199829Y-102105591D01*
X235183513Y-102208611D01*
X235176449Y-102253210D01*
X235146036Y-102317363D01*
X235085768Y-102354890D01*
X235014779Y-102353876D01*
X234955607Y-102314643D01*
X234927551Y-102253210D01*
X234904171Y-102105591D01*
X234848211Y-101933361D01*
X234765996Y-101772006D01*
X234659553Y-101625499D01*
X234659550Y-101625496D01*
X234659548Y-101625493D01*
X234531506Y-101497451D01*
X234531503Y-101497449D01*
X234531501Y-101497447D01*
X234384994Y-101391004D01*
X234223639Y-101308789D01*
X234223636Y-101308788D01*
X234223634Y-101308787D01*
X234051412Y-101252830D01*
X234051409Y-101252829D01*
X233872546Y-101224500D01*
X233691454Y-101224500D01*
X233512591Y-101252829D01*
X233512588Y-101252829D01*
X233512587Y-101252830D01*
X233340365Y-101308787D01*
X233340359Y-101308790D01*
X233179002Y-101391006D01*
X233032496Y-101497449D01*
X233032493Y-101497451D01*
X232904451Y-101625493D01*
X232904449Y-101625496D01*
X232798006Y-101772002D01*
X232715790Y-101933359D01*
X232715787Y-101933365D01*
X232659830Y-102105587D01*
X232659829Y-102105591D01*
X232648306Y-102178343D01*
X232642948Y-102212174D01*
X232612535Y-102276327D01*
X232552267Y-102313854D01*
X232481277Y-102312840D01*
X232422106Y-102273607D01*
X232393538Y-102208611D01*
X232392499Y-102192463D01*
X232392499Y-101480140D01*
X232392499Y-101480136D01*
X232389585Y-101455009D01*
X232344206Y-101352235D01*
X232344206Y-101352234D01*
X232264767Y-101272795D01*
X232264765Y-101272794D01*
X232161989Y-101227414D01*
X232161990Y-101227414D01*
X232136868Y-101224500D01*
X230347140Y-101224500D01*
X230347133Y-101224501D01*
X230322009Y-101227414D01*
X230322005Y-101227416D01*
X230219234Y-101272793D01*
X230139795Y-101352232D01*
X230139794Y-101352234D01*
X230094414Y-101455009D01*
X230091500Y-101480129D01*
X227395665Y-101480129D01*
X227272994Y-101391004D01*
X227111639Y-101308789D01*
X227111636Y-101308788D01*
X227111634Y-101308787D01*
X226939412Y-101252830D01*
X226939409Y-101252829D01*
X226760546Y-101224500D01*
X226579454Y-101224500D01*
X226400591Y-101252829D01*
X226400588Y-101252829D01*
X226400587Y-101252830D01*
X226228365Y-101308787D01*
X226228359Y-101308790D01*
X226067002Y-101391006D01*
X225920496Y-101497449D01*
X225920493Y-101497451D01*
X225792451Y-101625493D01*
X225792449Y-101625496D01*
X225686006Y-101772002D01*
X225603790Y-101933359D01*
X225603787Y-101933365D01*
X225547830Y-102105587D01*
X225547829Y-102105591D01*
X225531513Y-102208611D01*
X225524449Y-102253210D01*
X225494036Y-102317363D01*
X225433768Y-102354890D01*
X225362779Y-102353876D01*
X225303607Y-102314643D01*
X225275551Y-102253210D01*
X225252171Y-102105591D01*
X225196211Y-101933361D01*
X225113996Y-101772006D01*
X225007553Y-101625499D01*
X225007550Y-101625496D01*
X225007548Y-101625493D01*
X224879506Y-101497451D01*
X224879503Y-101497449D01*
X224879501Y-101497447D01*
X224732994Y-101391004D01*
X224571639Y-101308789D01*
X224571636Y-101308788D01*
X224571634Y-101308787D01*
X224399412Y-101252830D01*
X224399409Y-101252829D01*
X224220546Y-101224500D01*
X224039454Y-101224500D01*
X223860591Y-101252829D01*
X223860588Y-101252829D01*
X223860587Y-101252830D01*
X223688365Y-101308787D01*
X223688359Y-101308790D01*
X223527002Y-101391006D01*
X223380496Y-101497449D01*
X223380493Y-101497451D01*
X223252451Y-101625493D01*
X223252449Y-101625496D01*
X223146006Y-101772002D01*
X223063790Y-101933359D01*
X223063787Y-101933365D01*
X223007830Y-102105587D01*
X223007829Y-102105591D01*
X222979500Y-102284454D01*
X214800500Y-102284454D01*
X214800500Y-101195056D01*
X214810090Y-101146839D01*
X214821658Y-101118913D01*
X214850500Y-100973918D01*
X214850500Y-100826082D01*
X214821658Y-100681087D01*
X214765084Y-100544505D01*
X214682951Y-100421584D01*
X214578416Y-100317049D01*
X214455495Y-100234916D01*
X214318916Y-100178343D01*
X214318913Y-100178342D01*
X214274980Y-100169603D01*
X214173918Y-100149500D01*
X214026082Y-100149500D01*
X213953584Y-100163921D01*
X213881086Y-100178342D01*
X213881083Y-100178343D01*
X213744504Y-100234916D01*
X213621588Y-100317046D01*
X213621581Y-100317051D01*
X213517051Y-100421581D01*
X213517046Y-100421588D01*
X213434916Y-100544504D01*
X213378343Y-100681083D01*
X213378342Y-100681086D01*
X213378342Y-100681087D01*
X213349500Y-100826082D01*
X213349500Y-100973918D01*
X213378342Y-101118913D01*
X213389909Y-101146839D01*
X213399500Y-101195056D01*
X213399500Y-104284354D01*
X213379498Y-104352475D01*
X213362595Y-104373449D01*
X213241580Y-104494463D01*
X213241575Y-104494469D01*
X213129894Y-104661612D01*
X213052969Y-104847325D01*
X213052967Y-104847330D01*
X213013750Y-105044486D01*
X209974749Y-105044486D01*
X209935533Y-104847331D01*
X209858606Y-104661612D01*
X209746924Y-104494469D01*
X209746919Y-104494463D01*
X209691655Y-104439199D01*
X209657629Y-104376887D01*
X209654750Y-104350104D01*
X209654750Y-103988096D01*
X209674752Y-103919975D01*
X209691655Y-103899001D01*
X211544110Y-102046546D01*
X211544113Y-102046543D01*
X211578005Y-101995821D01*
X211620775Y-101931811D01*
X211673580Y-101804328D01*
X211700500Y-101668993D01*
X211700500Y-101195056D01*
X211710090Y-101146839D01*
X211721658Y-101118913D01*
X211750500Y-100973918D01*
X211750500Y-100826082D01*
X211721658Y-100681087D01*
X211665084Y-100544505D01*
X211582951Y-100421584D01*
X211478416Y-100317049D01*
X211355495Y-100234916D01*
X211218916Y-100178343D01*
X211218913Y-100178342D01*
X211086868Y-100152075D01*
X211023961Y-100119169D01*
X210988829Y-100057474D01*
X210992629Y-99986579D01*
X211034155Y-99928993D01*
X211086869Y-99904919D01*
X211201835Y-99882051D01*
X211383914Y-99806632D01*
X211547782Y-99697139D01*
X211687139Y-99557782D01*
X211796632Y-99393914D01*
X211872051Y-99211835D01*
X211910500Y-99018541D01*
X211910500Y-98521459D01*
X211910499Y-98521455D01*
X212449500Y-98521455D01*
X212449500Y-99018544D01*
X212487949Y-99211835D01*
X212487950Y-99211838D01*
X212563368Y-99393914D01*
X212672861Y-99557782D01*
X212812218Y-99697139D01*
X212976086Y-99806632D01*
X213158165Y-99882051D01*
X213351459Y-99920500D01*
X213548541Y-99920500D01*
X213741835Y-99882051D01*
X213923914Y-99806632D01*
X214087782Y-99697139D01*
X214227139Y-99557782D01*
X214336632Y-99393914D01*
X214412051Y-99211835D01*
X214450500Y-99018541D01*
X214450500Y-98521459D01*
X214412051Y-98328165D01*
X214336632Y-98146086D01*
X214227139Y-97982218D01*
X214087782Y-97842861D01*
X213923914Y-97733368D01*
X213765606Y-97667795D01*
X213741838Y-97657950D01*
X213741835Y-97657949D01*
X213548544Y-97619500D01*
X213548541Y-97619500D01*
X213351459Y-97619500D01*
X213351455Y-97619500D01*
X213158164Y-97657949D01*
X213158161Y-97657950D01*
X212976085Y-97733368D01*
X212812222Y-97842858D01*
X212812215Y-97842863D01*
X212672863Y-97982215D01*
X212672858Y-97982222D01*
X212563368Y-98146085D01*
X212487950Y-98328161D01*
X212487949Y-98328164D01*
X212449500Y-98521455D01*
X211910499Y-98521455D01*
X211872051Y-98328165D01*
X211796632Y-98146086D01*
X211687139Y-97982218D01*
X211547782Y-97842861D01*
X211383914Y-97733368D01*
X211225606Y-97667795D01*
X211201838Y-97657950D01*
X211201835Y-97657949D01*
X211029048Y-97623579D01*
X210966139Y-97590671D01*
X210931007Y-97528976D01*
X210934807Y-97458081D01*
X210976333Y-97400495D01*
X211029048Y-97376421D01*
X211050511Y-97372151D01*
X211201835Y-97342051D01*
X211383914Y-97266632D01*
X211547782Y-97157139D01*
X211687139Y-97017782D01*
X211796632Y-96853914D01*
X211872051Y-96671835D01*
X211910500Y-96478541D01*
X211910500Y-95981459D01*
X211910499Y-95981455D01*
X214989500Y-95981455D01*
X214989500Y-96478544D01*
X215025824Y-96661151D01*
X215027949Y-96671835D01*
X215103368Y-96853914D01*
X215212861Y-97017782D01*
X215352218Y-97157139D01*
X215516086Y-97266632D01*
X215698165Y-97342051D01*
X215819386Y-97366163D01*
X215870951Y-97376421D01*
X215933861Y-97409329D01*
X215968992Y-97471024D01*
X215965192Y-97541919D01*
X215923666Y-97599505D01*
X215870951Y-97623579D01*
X215698164Y-97657949D01*
X215698161Y-97657950D01*
X215516085Y-97733368D01*
X215352222Y-97842858D01*
X215352215Y-97842863D01*
X215212863Y-97982215D01*
X215212858Y-97982222D01*
X215103368Y-98146085D01*
X215027950Y-98328161D01*
X215027949Y-98328164D01*
X214989500Y-98521455D01*
X214989500Y-99018544D01*
X215027949Y-99211835D01*
X215027950Y-99211838D01*
X215103368Y-99393914D01*
X215212861Y-99557782D01*
X215352218Y-99697139D01*
X215516086Y-99806632D01*
X215698165Y-99882051D01*
X215891459Y-99920500D01*
X216088541Y-99920500D01*
X216281835Y-99882051D01*
X216463914Y-99806632D01*
X216627782Y-99697139D01*
X216767139Y-99557782D01*
X216876632Y-99393914D01*
X216952051Y-99211835D01*
X216990500Y-99018541D01*
X216990500Y-98521459D01*
X216952051Y-98328165D01*
X216876632Y-98146086D01*
X216767139Y-97982218D01*
X216627782Y-97842861D01*
X216463914Y-97733368D01*
X216305606Y-97667795D01*
X216281838Y-97657950D01*
X216281835Y-97657949D01*
X216109048Y-97623579D01*
X216046139Y-97590671D01*
X216011007Y-97528976D01*
X216014807Y-97458081D01*
X216056333Y-97400495D01*
X216109048Y-97376421D01*
X216130511Y-97372151D01*
X216281835Y-97342051D01*
X216463914Y-97266632D01*
X216627782Y-97157139D01*
X216767139Y-97017782D01*
X216876632Y-96853914D01*
X216952051Y-96671835D01*
X216990500Y-96478541D01*
X216990500Y-95981459D01*
X216990499Y-95981455D01*
X217529500Y-95981455D01*
X217529500Y-96478544D01*
X217565824Y-96661151D01*
X217567949Y-96671835D01*
X217643368Y-96853914D01*
X217752861Y-97017782D01*
X217892218Y-97157139D01*
X218056086Y-97266632D01*
X218238165Y-97342051D01*
X218431459Y-97380500D01*
X218628541Y-97380500D01*
X218821835Y-97342051D01*
X219003914Y-97266632D01*
X219167782Y-97157139D01*
X219307139Y-97017782D01*
X219416632Y-96853914D01*
X219492051Y-96671835D01*
X219530500Y-96478541D01*
X219530500Y-95981459D01*
X219530499Y-95981455D01*
X220069500Y-95981455D01*
X220069500Y-96478544D01*
X220105824Y-96661151D01*
X220107949Y-96671835D01*
X220183368Y-96853914D01*
X220292861Y-97017782D01*
X220432218Y-97157139D01*
X220596086Y-97266632D01*
X220778165Y-97342051D01*
X220899386Y-97366163D01*
X220950951Y-97376421D01*
X221013861Y-97409329D01*
X221048992Y-97471024D01*
X221045192Y-97541919D01*
X221003666Y-97599505D01*
X220950951Y-97623579D01*
X220778164Y-97657949D01*
X220778161Y-97657950D01*
X220596085Y-97733368D01*
X220432222Y-97842858D01*
X220432215Y-97842863D01*
X220292863Y-97982215D01*
X220292858Y-97982222D01*
X220183368Y-98146085D01*
X220107950Y-98328161D01*
X220107949Y-98328164D01*
X220069500Y-98521455D01*
X220069500Y-99018544D01*
X220107949Y-99211835D01*
X220107950Y-99211838D01*
X220183368Y-99393914D01*
X220292861Y-99557782D01*
X220432218Y-99697139D01*
X220596086Y-99806632D01*
X220778165Y-99882051D01*
X220971459Y-99920500D01*
X221168541Y-99920500D01*
X221361835Y-99882051D01*
X221543914Y-99806632D01*
X221707782Y-99697139D01*
X221847139Y-99557782D01*
X221956632Y-99393914D01*
X222032051Y-99211835D01*
X222070500Y-99018541D01*
X222070500Y-98521459D01*
X222070499Y-98521455D01*
X222609500Y-98521455D01*
X222609500Y-99018544D01*
X222647949Y-99211835D01*
X222647950Y-99211838D01*
X222723368Y-99393914D01*
X222832861Y-99557782D01*
X222972218Y-99697139D01*
X223136086Y-99806632D01*
X223318165Y-99882051D01*
X223511459Y-99920500D01*
X223708541Y-99920500D01*
X223901835Y-99882051D01*
X224083914Y-99806632D01*
X224247782Y-99697139D01*
X224387139Y-99557782D01*
X224496632Y-99393914D01*
X224572051Y-99211835D01*
X224610500Y-99018541D01*
X224610500Y-98521459D01*
X224572051Y-98328165D01*
X224496632Y-98146086D01*
X224387139Y-97982218D01*
X224247782Y-97842861D01*
X224083914Y-97733368D01*
X223925606Y-97667795D01*
X223901838Y-97657950D01*
X223901835Y-97657949D01*
X223708544Y-97619500D01*
X223708541Y-97619500D01*
X223511459Y-97619500D01*
X223511455Y-97619500D01*
X223318164Y-97657949D01*
X223318161Y-97657950D01*
X223136085Y-97733368D01*
X222972222Y-97842858D01*
X222972215Y-97842863D01*
X222832863Y-97982215D01*
X222832858Y-97982222D01*
X222723368Y-98146085D01*
X222647950Y-98328161D01*
X222647949Y-98328164D01*
X222609500Y-98521455D01*
X222070499Y-98521455D01*
X222032051Y-98328165D01*
X221956632Y-98146086D01*
X221847139Y-97982218D01*
X221707782Y-97842861D01*
X221543914Y-97733368D01*
X221385606Y-97667795D01*
X221361838Y-97657950D01*
X221361835Y-97657949D01*
X221189048Y-97623579D01*
X221126139Y-97590671D01*
X221091007Y-97528976D01*
X221094807Y-97458081D01*
X221136333Y-97400495D01*
X221189048Y-97376421D01*
X221210511Y-97372151D01*
X221361835Y-97342051D01*
X221543914Y-97266632D01*
X221707782Y-97157139D01*
X221847139Y-97017782D01*
X221956632Y-96853914D01*
X222032051Y-96671835D01*
X222070500Y-96478541D01*
X222070500Y-95981459D01*
X222070499Y-95981455D01*
X225149500Y-95981455D01*
X225149500Y-96478544D01*
X225185824Y-96661151D01*
X225187949Y-96671835D01*
X225263368Y-96853914D01*
X225372861Y-97017782D01*
X225512218Y-97157139D01*
X225676086Y-97266632D01*
X225858165Y-97342051D01*
X225979386Y-97366163D01*
X226030951Y-97376421D01*
X226093861Y-97409329D01*
X226128992Y-97471024D01*
X226125192Y-97541919D01*
X226083666Y-97599505D01*
X226030951Y-97623579D01*
X225858164Y-97657949D01*
X225858161Y-97657950D01*
X225676085Y-97733368D01*
X225512222Y-97842858D01*
X225512215Y-97842863D01*
X225372863Y-97982215D01*
X225372858Y-97982222D01*
X225263368Y-98146085D01*
X225187950Y-98328161D01*
X225187949Y-98328164D01*
X225149500Y-98521455D01*
X225149500Y-99018544D01*
X225187949Y-99211835D01*
X225187950Y-99211838D01*
X225263368Y-99393914D01*
X225372861Y-99557782D01*
X225512218Y-99697139D01*
X225676086Y-99806632D01*
X225858165Y-99882051D01*
X226051459Y-99920500D01*
X226248541Y-99920500D01*
X226441835Y-99882051D01*
X226623914Y-99806632D01*
X226787782Y-99697139D01*
X226927139Y-99557782D01*
X227036632Y-99393914D01*
X227112051Y-99211835D01*
X227150500Y-99018541D01*
X227150500Y-98521459D01*
X227112051Y-98328165D01*
X227036632Y-98146086D01*
X226927139Y-97982218D01*
X226787782Y-97842861D01*
X226623914Y-97733368D01*
X226465606Y-97667795D01*
X226441838Y-97657950D01*
X226441835Y-97657949D01*
X226269048Y-97623579D01*
X226206139Y-97590671D01*
X226171007Y-97528976D01*
X226174807Y-97458081D01*
X226216333Y-97400495D01*
X226269048Y-97376421D01*
X226290511Y-97372151D01*
X226441835Y-97342051D01*
X226623914Y-97266632D01*
X226787782Y-97157139D01*
X226927139Y-97017782D01*
X227036632Y-96853914D01*
X227112051Y-96671835D01*
X227150500Y-96478541D01*
X227150500Y-95981459D01*
X227150499Y-95981455D01*
X227689500Y-95981455D01*
X227689500Y-96478544D01*
X227725824Y-96661151D01*
X227727949Y-96671835D01*
X227803368Y-96853914D01*
X227912861Y-97017782D01*
X228052218Y-97157139D01*
X228216086Y-97266632D01*
X228398165Y-97342051D01*
X228519386Y-97366163D01*
X228570951Y-97376421D01*
X228633861Y-97409329D01*
X228668992Y-97471024D01*
X228665192Y-97541919D01*
X228623666Y-97599505D01*
X228570951Y-97623579D01*
X228398164Y-97657949D01*
X228398161Y-97657950D01*
X228216085Y-97733368D01*
X228052222Y-97842858D01*
X228052215Y-97842863D01*
X227912863Y-97982215D01*
X227912858Y-97982222D01*
X227803368Y-98146085D01*
X227727950Y-98328161D01*
X227727949Y-98328164D01*
X227689500Y-98521455D01*
X227689500Y-99018544D01*
X227727949Y-99211835D01*
X227727950Y-99211838D01*
X227803368Y-99393914D01*
X227912861Y-99557782D01*
X228052218Y-99697139D01*
X228216086Y-99806632D01*
X228398165Y-99882051D01*
X228591459Y-99920500D01*
X228788541Y-99920500D01*
X228981835Y-99882051D01*
X229163914Y-99806632D01*
X229327782Y-99697139D01*
X229467139Y-99557782D01*
X229576632Y-99393914D01*
X229652051Y-99211835D01*
X229690500Y-99018541D01*
X229690500Y-98521459D01*
X229690499Y-98521455D01*
X230229500Y-98521455D01*
X230229500Y-99018544D01*
X230267949Y-99211835D01*
X230267950Y-99211838D01*
X230343368Y-99393914D01*
X230452861Y-99557782D01*
X230592218Y-99697139D01*
X230756086Y-99806632D01*
X230938165Y-99882051D01*
X231131459Y-99920500D01*
X231328541Y-99920500D01*
X231521835Y-99882051D01*
X231703914Y-99806632D01*
X231867782Y-99697139D01*
X232007139Y-99557782D01*
X232116632Y-99393914D01*
X232192051Y-99211835D01*
X232230500Y-99018541D01*
X232230500Y-98521459D01*
X232192051Y-98328165D01*
X232116632Y-98146086D01*
X232007139Y-97982218D01*
X231867782Y-97842861D01*
X231703914Y-97733368D01*
X231545606Y-97667795D01*
X231521838Y-97657950D01*
X231521835Y-97657949D01*
X231328544Y-97619500D01*
X231328541Y-97619500D01*
X231131459Y-97619500D01*
X231131455Y-97619500D01*
X230938164Y-97657949D01*
X230938161Y-97657950D01*
X230756085Y-97733368D01*
X230592222Y-97842858D01*
X230592215Y-97842863D01*
X230452863Y-97982215D01*
X230452858Y-97982222D01*
X230343368Y-98146085D01*
X230267950Y-98328161D01*
X230267949Y-98328164D01*
X230229500Y-98521455D01*
X229690499Y-98521455D01*
X229652051Y-98328165D01*
X229576632Y-98146086D01*
X229467139Y-97982218D01*
X229327782Y-97842861D01*
X229163914Y-97733368D01*
X229005606Y-97667795D01*
X228981838Y-97657950D01*
X228981835Y-97657949D01*
X228809048Y-97623579D01*
X228746139Y-97590671D01*
X228711007Y-97528976D01*
X228714807Y-97458081D01*
X228756333Y-97400495D01*
X228809048Y-97376421D01*
X228830511Y-97372151D01*
X228981835Y-97342051D01*
X229163914Y-97266632D01*
X229327782Y-97157139D01*
X229467139Y-97017782D01*
X229576632Y-96853914D01*
X229652051Y-96671835D01*
X229690500Y-96478541D01*
X229690500Y-95981459D01*
X229690499Y-95981455D01*
X232769500Y-95981455D01*
X232769500Y-96478544D01*
X232805824Y-96661151D01*
X232807949Y-96671835D01*
X232883368Y-96853914D01*
X232992861Y-97017782D01*
X233132218Y-97157139D01*
X233296086Y-97266632D01*
X233478165Y-97342051D01*
X233599386Y-97366163D01*
X233650951Y-97376421D01*
X233713861Y-97409329D01*
X233748992Y-97471024D01*
X233745192Y-97541919D01*
X233703666Y-97599505D01*
X233650951Y-97623579D01*
X233478164Y-97657949D01*
X233478161Y-97657950D01*
X233296085Y-97733368D01*
X233132222Y-97842858D01*
X233132215Y-97842863D01*
X232992863Y-97982215D01*
X232992858Y-97982222D01*
X232883368Y-98146085D01*
X232807950Y-98328161D01*
X232807949Y-98328164D01*
X232769500Y-98521455D01*
X232769500Y-99018544D01*
X232807949Y-99211835D01*
X232807950Y-99211838D01*
X232883368Y-99393914D01*
X232992861Y-99557782D01*
X233132218Y-99697139D01*
X233296086Y-99806632D01*
X233478165Y-99882051D01*
X233671459Y-99920500D01*
X233868541Y-99920500D01*
X234061835Y-99882051D01*
X234243914Y-99806632D01*
X234407782Y-99697139D01*
X234547139Y-99557782D01*
X234656632Y-99393914D01*
X234732051Y-99211835D01*
X234770500Y-99018541D01*
X234770500Y-98521459D01*
X234732051Y-98328165D01*
X234656632Y-98146086D01*
X234547139Y-97982218D01*
X234407782Y-97842861D01*
X234243914Y-97733368D01*
X234085606Y-97667795D01*
X234061838Y-97657950D01*
X234061835Y-97657949D01*
X233889048Y-97623579D01*
X233826139Y-97590671D01*
X233791007Y-97528976D01*
X233794807Y-97458081D01*
X233836333Y-97400495D01*
X233889048Y-97376421D01*
X233910511Y-97372151D01*
X234061835Y-97342051D01*
X234243914Y-97266632D01*
X234407782Y-97157139D01*
X234547139Y-97017782D01*
X234656632Y-96853914D01*
X234732051Y-96671835D01*
X234770500Y-96478541D01*
X234770500Y-95981459D01*
X234770499Y-95981455D01*
X235309500Y-95981455D01*
X235309500Y-96478544D01*
X235345824Y-96661151D01*
X235347949Y-96671835D01*
X235423368Y-96853914D01*
X235532861Y-97017782D01*
X235672218Y-97157139D01*
X235836086Y-97266632D01*
X236018165Y-97342051D01*
X236139386Y-97366163D01*
X236190951Y-97376421D01*
X236253861Y-97409329D01*
X236288992Y-97471024D01*
X236285192Y-97541919D01*
X236243666Y-97599505D01*
X236190951Y-97623579D01*
X236018164Y-97657949D01*
X236018161Y-97657950D01*
X235836085Y-97733368D01*
X235672222Y-97842858D01*
X235672215Y-97842863D01*
X235532863Y-97982215D01*
X235532858Y-97982222D01*
X235423368Y-98146085D01*
X235347950Y-98328161D01*
X235347949Y-98328164D01*
X235309500Y-98521455D01*
X235309500Y-99018544D01*
X235347949Y-99211835D01*
X235347950Y-99211838D01*
X235423368Y-99393914D01*
X235532861Y-99557782D01*
X235672218Y-99697139D01*
X235836086Y-99806632D01*
X236018165Y-99882051D01*
X236211459Y-99920500D01*
X236408541Y-99920500D01*
X236601835Y-99882051D01*
X236783914Y-99806632D01*
X236947782Y-99697139D01*
X237087139Y-99557782D01*
X237196632Y-99393914D01*
X237272051Y-99211835D01*
X237310500Y-99018541D01*
X237310500Y-98521459D01*
X237272051Y-98328165D01*
X237196632Y-98146086D01*
X237087139Y-97982218D01*
X236947782Y-97842861D01*
X236783914Y-97733368D01*
X236625606Y-97667795D01*
X236601838Y-97657950D01*
X236601835Y-97657949D01*
X236429048Y-97623579D01*
X236366139Y-97590671D01*
X236331007Y-97528976D01*
X236334807Y-97458081D01*
X236376333Y-97400495D01*
X236429048Y-97376421D01*
X236450511Y-97372151D01*
X236601835Y-97342051D01*
X236783914Y-97266632D01*
X236947782Y-97157139D01*
X237087139Y-97017782D01*
X237196632Y-96853914D01*
X237272051Y-96671835D01*
X237310500Y-96478541D01*
X237310500Y-95981459D01*
X237310499Y-95981455D01*
X237849500Y-95981455D01*
X237849500Y-96478544D01*
X237885824Y-96661151D01*
X237887949Y-96671835D01*
X237963368Y-96853914D01*
X238072861Y-97017782D01*
X238212218Y-97157139D01*
X238376086Y-97266632D01*
X238558165Y-97342051D01*
X238751459Y-97380500D01*
X238948541Y-97380500D01*
X239141835Y-97342051D01*
X239323914Y-97266632D01*
X239487782Y-97157139D01*
X239627139Y-97017782D01*
X239736632Y-96853914D01*
X239812051Y-96671835D01*
X239850500Y-96478541D01*
X239850500Y-95981459D01*
X239850499Y-95981455D01*
X240389500Y-95981455D01*
X240389500Y-96478544D01*
X240425824Y-96661151D01*
X240427949Y-96671835D01*
X240503368Y-96853914D01*
X240612861Y-97017782D01*
X240752218Y-97157139D01*
X240916086Y-97266632D01*
X241098165Y-97342051D01*
X241219386Y-97366163D01*
X241270951Y-97376421D01*
X241333861Y-97409329D01*
X241368992Y-97471024D01*
X241365192Y-97541919D01*
X241323666Y-97599505D01*
X241270951Y-97623579D01*
X241098164Y-97657949D01*
X241098161Y-97657950D01*
X240916085Y-97733368D01*
X240752222Y-97842858D01*
X240752215Y-97842863D01*
X240612863Y-97982215D01*
X240612858Y-97982222D01*
X240503368Y-98146085D01*
X240427950Y-98328161D01*
X240427949Y-98328164D01*
X240389500Y-98521455D01*
X240389500Y-99018544D01*
X240427949Y-99211835D01*
X240427950Y-99211838D01*
X240503368Y-99393914D01*
X240612861Y-99557782D01*
X240752218Y-99697139D01*
X240916086Y-99806632D01*
X241098165Y-99882051D01*
X241291459Y-99920500D01*
X241488541Y-99920500D01*
X241681835Y-99882051D01*
X241863914Y-99806632D01*
X242027782Y-99697139D01*
X242167139Y-99557782D01*
X242276632Y-99393914D01*
X242352051Y-99211835D01*
X242390500Y-99018541D01*
X242390500Y-98521459D01*
X242390499Y-98521455D01*
X242929500Y-98521455D01*
X242929500Y-99018544D01*
X242967949Y-99211835D01*
X242967950Y-99211838D01*
X243043368Y-99393914D01*
X243152861Y-99557782D01*
X243292218Y-99697139D01*
X243456086Y-99806632D01*
X243638165Y-99882051D01*
X243831459Y-99920500D01*
X244028541Y-99920500D01*
X244221835Y-99882051D01*
X244403914Y-99806632D01*
X244567782Y-99697139D01*
X244707139Y-99557782D01*
X244816632Y-99393914D01*
X244892051Y-99211835D01*
X244930500Y-99018541D01*
X244930500Y-98521459D01*
X244892051Y-98328165D01*
X244816632Y-98146086D01*
X244707139Y-97982218D01*
X244567782Y-97842861D01*
X244403914Y-97733368D01*
X244245606Y-97667795D01*
X244221838Y-97657950D01*
X244221835Y-97657949D01*
X244028544Y-97619500D01*
X244028541Y-97619500D01*
X243831459Y-97619500D01*
X243831455Y-97619500D01*
X243638164Y-97657949D01*
X243638161Y-97657950D01*
X243456085Y-97733368D01*
X243292222Y-97842858D01*
X243292215Y-97842863D01*
X243152863Y-97982215D01*
X243152858Y-97982222D01*
X243043368Y-98146085D01*
X242967950Y-98328161D01*
X242967949Y-98328164D01*
X242929500Y-98521455D01*
X242390499Y-98521455D01*
X242352051Y-98328165D01*
X242276632Y-98146086D01*
X242167139Y-97982218D01*
X242027782Y-97842861D01*
X241863914Y-97733368D01*
X241705606Y-97667795D01*
X241681838Y-97657950D01*
X241681835Y-97657949D01*
X241509048Y-97623579D01*
X241446139Y-97590671D01*
X241411007Y-97528976D01*
X241414807Y-97458081D01*
X241456333Y-97400495D01*
X241509048Y-97376421D01*
X241530511Y-97372151D01*
X241681835Y-97342051D01*
X241863914Y-97266632D01*
X242027782Y-97157139D01*
X242167139Y-97017782D01*
X242276632Y-96853914D01*
X242352051Y-96671835D01*
X242390500Y-96478541D01*
X242390500Y-95981459D01*
X242390499Y-95981455D01*
X245469500Y-95981455D01*
X245469500Y-96478544D01*
X245505824Y-96661151D01*
X245507949Y-96671835D01*
X245583368Y-96853914D01*
X245692861Y-97017782D01*
X245832218Y-97157139D01*
X245996086Y-97266632D01*
X246178165Y-97342051D01*
X246299386Y-97366163D01*
X246350951Y-97376421D01*
X246413861Y-97409329D01*
X246448992Y-97471024D01*
X246445192Y-97541919D01*
X246403666Y-97599505D01*
X246350951Y-97623579D01*
X246178164Y-97657949D01*
X246178161Y-97657950D01*
X245996085Y-97733368D01*
X245832222Y-97842858D01*
X245832215Y-97842863D01*
X245692863Y-97982215D01*
X245692858Y-97982222D01*
X245583368Y-98146085D01*
X245507950Y-98328161D01*
X245507949Y-98328164D01*
X245469500Y-98521455D01*
X245469500Y-99018544D01*
X245507949Y-99211835D01*
X245507950Y-99211838D01*
X245583368Y-99393914D01*
X245692861Y-99557782D01*
X245832218Y-99697139D01*
X245996086Y-99806632D01*
X246178165Y-99882051D01*
X246371459Y-99920500D01*
X246568541Y-99920500D01*
X246761835Y-99882051D01*
X246943914Y-99806632D01*
X247107782Y-99697139D01*
X247247139Y-99557782D01*
X247356632Y-99393914D01*
X247432051Y-99211835D01*
X247470500Y-99018541D01*
X247470500Y-98521459D01*
X247470499Y-98521455D01*
X248009500Y-98521455D01*
X248009500Y-99018544D01*
X248047949Y-99211835D01*
X248047950Y-99211838D01*
X248123368Y-99393914D01*
X248232861Y-99557782D01*
X248372218Y-99697139D01*
X248536086Y-99806632D01*
X248718165Y-99882051D01*
X248911459Y-99920500D01*
X249108541Y-99920500D01*
X249301835Y-99882051D01*
X249483914Y-99806632D01*
X249647782Y-99697139D01*
X249787139Y-99557782D01*
X249896632Y-99393914D01*
X249972051Y-99211835D01*
X250010500Y-99018541D01*
X250010500Y-98521459D01*
X249972051Y-98328165D01*
X249896632Y-98146086D01*
X249787139Y-97982218D01*
X249647782Y-97842861D01*
X249483914Y-97733368D01*
X249325606Y-97667795D01*
X249301838Y-97657950D01*
X249301835Y-97657949D01*
X249108544Y-97619500D01*
X249108541Y-97619500D01*
X248911459Y-97619500D01*
X248911455Y-97619500D01*
X248718164Y-97657949D01*
X248718161Y-97657950D01*
X248536085Y-97733368D01*
X248372222Y-97842858D01*
X248372215Y-97842863D01*
X248232863Y-97982215D01*
X248232858Y-97982222D01*
X248123368Y-98146085D01*
X248047950Y-98328161D01*
X248047949Y-98328164D01*
X248009500Y-98521455D01*
X247470499Y-98521455D01*
X247432051Y-98328165D01*
X247356632Y-98146086D01*
X247247139Y-97982218D01*
X247107782Y-97842861D01*
X246943914Y-97733368D01*
X246785606Y-97667795D01*
X246761838Y-97657950D01*
X246761835Y-97657949D01*
X246589048Y-97623579D01*
X246526139Y-97590671D01*
X246491007Y-97528976D01*
X246494807Y-97458081D01*
X246536333Y-97400495D01*
X246589048Y-97376421D01*
X246610511Y-97372151D01*
X246761835Y-97342051D01*
X246943914Y-97266632D01*
X247107782Y-97157139D01*
X247247139Y-97017782D01*
X247356632Y-96853914D01*
X247432051Y-96671835D01*
X247470500Y-96478541D01*
X247470500Y-95981459D01*
X247470499Y-95981455D01*
X250549500Y-95981455D01*
X250549500Y-96478544D01*
X250585824Y-96661151D01*
X250587949Y-96671835D01*
X250663368Y-96853914D01*
X250772861Y-97017782D01*
X250912218Y-97157139D01*
X251076086Y-97266632D01*
X251258165Y-97342051D01*
X251379386Y-97366163D01*
X251430951Y-97376421D01*
X251493861Y-97409329D01*
X251528992Y-97471024D01*
X251525192Y-97541919D01*
X251483666Y-97599505D01*
X251430951Y-97623579D01*
X251258164Y-97657949D01*
X251258161Y-97657950D01*
X251076085Y-97733368D01*
X250912222Y-97842858D01*
X250912215Y-97842863D01*
X250772863Y-97982215D01*
X250772858Y-97982222D01*
X250663368Y-98146085D01*
X250587950Y-98328161D01*
X250587949Y-98328164D01*
X250549500Y-98521455D01*
X250549500Y-99018544D01*
X250587949Y-99211835D01*
X250587950Y-99211838D01*
X250663368Y-99393914D01*
X250772861Y-99557782D01*
X250912218Y-99697139D01*
X251076086Y-99806632D01*
X251258165Y-99882051D01*
X251451459Y-99920500D01*
X251648541Y-99920500D01*
X251841835Y-99882051D01*
X252023914Y-99806632D01*
X252187782Y-99697139D01*
X252327139Y-99557782D01*
X252436632Y-99393914D01*
X252512051Y-99211835D01*
X252550500Y-99018541D01*
X252550500Y-98521459D01*
X252512051Y-98328165D01*
X252436632Y-98146086D01*
X252327139Y-97982218D01*
X252187782Y-97842861D01*
X252023914Y-97733368D01*
X251865606Y-97667795D01*
X251841838Y-97657950D01*
X251841835Y-97657949D01*
X251669048Y-97623579D01*
X251606139Y-97590671D01*
X251571007Y-97528976D01*
X251574807Y-97458081D01*
X251616333Y-97400495D01*
X251669048Y-97376421D01*
X251690511Y-97372151D01*
X251841835Y-97342051D01*
X252023914Y-97266632D01*
X252187782Y-97157139D01*
X252327139Y-97017782D01*
X252436632Y-96853914D01*
X252512051Y-96671835D01*
X252550500Y-96478541D01*
X252550500Y-95981459D01*
X252550499Y-95981455D01*
X253089500Y-95981455D01*
X253089500Y-96478544D01*
X253125824Y-96661151D01*
X253127949Y-96671835D01*
X253203368Y-96853914D01*
X253312861Y-97017782D01*
X253452218Y-97157139D01*
X253616086Y-97266632D01*
X253798165Y-97342051D01*
X253919386Y-97366163D01*
X253970951Y-97376421D01*
X254033861Y-97409329D01*
X254068992Y-97471024D01*
X254065192Y-97541919D01*
X254023666Y-97599505D01*
X253970951Y-97623579D01*
X253798164Y-97657949D01*
X253798161Y-97657950D01*
X253616085Y-97733368D01*
X253452222Y-97842858D01*
X253452215Y-97842863D01*
X253312863Y-97982215D01*
X253312858Y-97982222D01*
X253203368Y-98146085D01*
X253127950Y-98328161D01*
X253127949Y-98328164D01*
X253089500Y-98521455D01*
X253089500Y-99018544D01*
X253127949Y-99211835D01*
X253127950Y-99211838D01*
X253203368Y-99393914D01*
X253312861Y-99557782D01*
X253452218Y-99697139D01*
X253616086Y-99806632D01*
X253798165Y-99882051D01*
X253991459Y-99920500D01*
X254188541Y-99920500D01*
X254381835Y-99882051D01*
X254563914Y-99806632D01*
X254727782Y-99697139D01*
X254867139Y-99557782D01*
X254976632Y-99393914D01*
X255052051Y-99211835D01*
X255090500Y-99018541D01*
X255090500Y-98521459D01*
X255052051Y-98328165D01*
X254976632Y-98146086D01*
X254867139Y-97982218D01*
X254727782Y-97842861D01*
X254563914Y-97733368D01*
X254405606Y-97667795D01*
X254381838Y-97657950D01*
X254381835Y-97657949D01*
X254209048Y-97623579D01*
X254146139Y-97590671D01*
X254111007Y-97528976D01*
X254114807Y-97458081D01*
X254156333Y-97400495D01*
X254209048Y-97376421D01*
X254230511Y-97372151D01*
X254381835Y-97342051D01*
X254563914Y-97266632D01*
X254727782Y-97157139D01*
X254867139Y-97017782D01*
X254976632Y-96853914D01*
X255052051Y-96671835D01*
X255090500Y-96478541D01*
X255090500Y-95981459D01*
X255090499Y-95981455D01*
X255629500Y-95981455D01*
X255629500Y-96478544D01*
X255665824Y-96661151D01*
X255667949Y-96671835D01*
X255743368Y-96853914D01*
X255852861Y-97017782D01*
X255992218Y-97157139D01*
X256156086Y-97266632D01*
X256338165Y-97342051D01*
X256531459Y-97380500D01*
X256728541Y-97380500D01*
X256921835Y-97342051D01*
X257103914Y-97266632D01*
X257267782Y-97157139D01*
X257407139Y-97017782D01*
X257516632Y-96853914D01*
X257592051Y-96671835D01*
X257630500Y-96478541D01*
X257630500Y-95981459D01*
X257592051Y-95788165D01*
X257516632Y-95606086D01*
X257407139Y-95442218D01*
X257267782Y-95302861D01*
X257103914Y-95193368D01*
X257013069Y-95155739D01*
X256921838Y-95117950D01*
X256921835Y-95117949D01*
X256728544Y-95079500D01*
X256728541Y-95079500D01*
X256531459Y-95079500D01*
X256531455Y-95079500D01*
X256338164Y-95117949D01*
X256338161Y-95117950D01*
X256156085Y-95193368D01*
X255992222Y-95302858D01*
X255992215Y-95302863D01*
X255852863Y-95442215D01*
X255852858Y-95442222D01*
X255743368Y-95606085D01*
X255667950Y-95788161D01*
X255667949Y-95788164D01*
X255629500Y-95981455D01*
X255090499Y-95981455D01*
X255052051Y-95788165D01*
X254976632Y-95606086D01*
X254867139Y-95442218D01*
X254727782Y-95302861D01*
X254563914Y-95193368D01*
X254473069Y-95155739D01*
X254381838Y-95117950D01*
X254381835Y-95117949D01*
X254188544Y-95079500D01*
X254188541Y-95079500D01*
X253991459Y-95079500D01*
X253991455Y-95079500D01*
X253798164Y-95117949D01*
X253798161Y-95117950D01*
X253616085Y-95193368D01*
X253452222Y-95302858D01*
X253452215Y-95302863D01*
X253312863Y-95442215D01*
X253312858Y-95442222D01*
X253203368Y-95606085D01*
X253127950Y-95788161D01*
X253127949Y-95788164D01*
X253089500Y-95981455D01*
X252550499Y-95981455D01*
X252512051Y-95788165D01*
X252436632Y-95606086D01*
X252327139Y-95442218D01*
X252187782Y-95302861D01*
X252023914Y-95193368D01*
X251933069Y-95155739D01*
X251841838Y-95117950D01*
X251841835Y-95117949D01*
X251648544Y-95079500D01*
X251648541Y-95079500D01*
X251451459Y-95079500D01*
X251451455Y-95079500D01*
X251258164Y-95117949D01*
X251258161Y-95117950D01*
X251076085Y-95193368D01*
X250912222Y-95302858D01*
X250912215Y-95302863D01*
X250772863Y-95442215D01*
X250772858Y-95442222D01*
X250663368Y-95606085D01*
X250587950Y-95788161D01*
X250587949Y-95788164D01*
X250549500Y-95981455D01*
X247470499Y-95981455D01*
X247432051Y-95788165D01*
X247356632Y-95606086D01*
X247247139Y-95442218D01*
X247107782Y-95302861D01*
X246943914Y-95193368D01*
X246853069Y-95155739D01*
X246761838Y-95117950D01*
X246761835Y-95117949D01*
X246568544Y-95079500D01*
X246568541Y-95079500D01*
X246371459Y-95079500D01*
X246371455Y-95079500D01*
X246178164Y-95117949D01*
X246178161Y-95117950D01*
X245996085Y-95193368D01*
X245832222Y-95302858D01*
X245832215Y-95302863D01*
X245692863Y-95442215D01*
X245692858Y-95442222D01*
X245583368Y-95606085D01*
X245507950Y-95788161D01*
X245507949Y-95788164D01*
X245469500Y-95981455D01*
X242390499Y-95981455D01*
X242352051Y-95788165D01*
X242276632Y-95606086D01*
X242167139Y-95442218D01*
X242027782Y-95302861D01*
X241863914Y-95193368D01*
X241773069Y-95155739D01*
X241681838Y-95117950D01*
X241681835Y-95117949D01*
X241488544Y-95079500D01*
X241488541Y-95079500D01*
X241291459Y-95079500D01*
X241291455Y-95079500D01*
X241098164Y-95117949D01*
X241098161Y-95117950D01*
X240916085Y-95193368D01*
X240752222Y-95302858D01*
X240752215Y-95302863D01*
X240612863Y-95442215D01*
X240612858Y-95442222D01*
X240503368Y-95606085D01*
X240427950Y-95788161D01*
X240427949Y-95788164D01*
X240389500Y-95981455D01*
X239850499Y-95981455D01*
X239812051Y-95788165D01*
X239736632Y-95606086D01*
X239627139Y-95442218D01*
X239487782Y-95302861D01*
X239323914Y-95193368D01*
X239233069Y-95155739D01*
X239141838Y-95117950D01*
X239141835Y-95117949D01*
X238948544Y-95079500D01*
X238948541Y-95079500D01*
X238751459Y-95079500D01*
X238751455Y-95079500D01*
X238558164Y-95117949D01*
X238558161Y-95117950D01*
X238376085Y-95193368D01*
X238212222Y-95302858D01*
X238212215Y-95302863D01*
X238072863Y-95442215D01*
X238072858Y-95442222D01*
X237963368Y-95606085D01*
X237887950Y-95788161D01*
X237887949Y-95788164D01*
X237849500Y-95981455D01*
X237310499Y-95981455D01*
X237272051Y-95788165D01*
X237196632Y-95606086D01*
X237087139Y-95442218D01*
X236947782Y-95302861D01*
X236783914Y-95193368D01*
X236693069Y-95155739D01*
X236601838Y-95117950D01*
X236601835Y-95117949D01*
X236408544Y-95079500D01*
X236408541Y-95079500D01*
X236211459Y-95079500D01*
X236211455Y-95079500D01*
X236018164Y-95117949D01*
X236018161Y-95117950D01*
X235836085Y-95193368D01*
X235672222Y-95302858D01*
X235672215Y-95302863D01*
X235532863Y-95442215D01*
X235532858Y-95442222D01*
X235423368Y-95606085D01*
X235347950Y-95788161D01*
X235347949Y-95788164D01*
X235309500Y-95981455D01*
X234770499Y-95981455D01*
X234732051Y-95788165D01*
X234656632Y-95606086D01*
X234547139Y-95442218D01*
X234407782Y-95302861D01*
X234243914Y-95193368D01*
X234153069Y-95155739D01*
X234061838Y-95117950D01*
X234061835Y-95117949D01*
X233868544Y-95079500D01*
X233868541Y-95079500D01*
X233671459Y-95079500D01*
X233671455Y-95079500D01*
X233478164Y-95117949D01*
X233478161Y-95117950D01*
X233296085Y-95193368D01*
X233132222Y-95302858D01*
X233132215Y-95302863D01*
X232992863Y-95442215D01*
X232992858Y-95442222D01*
X232883368Y-95606085D01*
X232807950Y-95788161D01*
X232807949Y-95788164D01*
X232769500Y-95981455D01*
X229690499Y-95981455D01*
X229652051Y-95788165D01*
X229576632Y-95606086D01*
X229467139Y-95442218D01*
X229327782Y-95302861D01*
X229163914Y-95193368D01*
X229073069Y-95155739D01*
X228981838Y-95117950D01*
X228981835Y-95117949D01*
X228788544Y-95079500D01*
X228788541Y-95079500D01*
X228591459Y-95079500D01*
X228591455Y-95079500D01*
X228398164Y-95117949D01*
X228398161Y-95117950D01*
X228216085Y-95193368D01*
X228052222Y-95302858D01*
X228052215Y-95302863D01*
X227912863Y-95442215D01*
X227912858Y-95442222D01*
X227803368Y-95606085D01*
X227727950Y-95788161D01*
X227727949Y-95788164D01*
X227689500Y-95981455D01*
X227150499Y-95981455D01*
X227112051Y-95788165D01*
X227036632Y-95606086D01*
X226927139Y-95442218D01*
X226787782Y-95302861D01*
X226623914Y-95193368D01*
X226533069Y-95155739D01*
X226441838Y-95117950D01*
X226441835Y-95117949D01*
X226248544Y-95079500D01*
X226248541Y-95079500D01*
X226051459Y-95079500D01*
X226051455Y-95079500D01*
X225858164Y-95117949D01*
X225858161Y-95117950D01*
X225676085Y-95193368D01*
X225512222Y-95302858D01*
X225512215Y-95302863D01*
X225372863Y-95442215D01*
X225372858Y-95442222D01*
X225263368Y-95606085D01*
X225187950Y-95788161D01*
X225187949Y-95788164D01*
X225149500Y-95981455D01*
X222070499Y-95981455D01*
X222032051Y-95788165D01*
X221956632Y-95606086D01*
X221847139Y-95442218D01*
X221707782Y-95302861D01*
X221543914Y-95193368D01*
X221453069Y-95155739D01*
X221361838Y-95117950D01*
X221361835Y-95117949D01*
X221168544Y-95079500D01*
X221168541Y-95079500D01*
X220971459Y-95079500D01*
X220971455Y-95079500D01*
X220778164Y-95117949D01*
X220778161Y-95117950D01*
X220596085Y-95193368D01*
X220432222Y-95302858D01*
X220432215Y-95302863D01*
X220292863Y-95442215D01*
X220292858Y-95442222D01*
X220183368Y-95606085D01*
X220107950Y-95788161D01*
X220107949Y-95788164D01*
X220069500Y-95981455D01*
X219530499Y-95981455D01*
X219492051Y-95788165D01*
X219416632Y-95606086D01*
X219307139Y-95442218D01*
X219167782Y-95302861D01*
X219003914Y-95193368D01*
X218913069Y-95155739D01*
X218821838Y-95117950D01*
X218821835Y-95117949D01*
X218628544Y-95079500D01*
X218628541Y-95079500D01*
X218431459Y-95079500D01*
X218431455Y-95079500D01*
X218238164Y-95117949D01*
X218238161Y-95117950D01*
X218056085Y-95193368D01*
X217892222Y-95302858D01*
X217892215Y-95302863D01*
X217752863Y-95442215D01*
X217752858Y-95442222D01*
X217643368Y-95606085D01*
X217567950Y-95788161D01*
X217567949Y-95788164D01*
X217529500Y-95981455D01*
X216990499Y-95981455D01*
X216952051Y-95788165D01*
X216876632Y-95606086D01*
X216767139Y-95442218D01*
X216627782Y-95302861D01*
X216463914Y-95193368D01*
X216373069Y-95155739D01*
X216281838Y-95117950D01*
X216281835Y-95117949D01*
X216088544Y-95079500D01*
X216088541Y-95079500D01*
X215891459Y-95079500D01*
X215891455Y-95079500D01*
X215698164Y-95117949D01*
X215698161Y-95117950D01*
X215516085Y-95193368D01*
X215352222Y-95302858D01*
X215352215Y-95302863D01*
X215212863Y-95442215D01*
X215212858Y-95442222D01*
X215103368Y-95606085D01*
X215027950Y-95788161D01*
X215027949Y-95788164D01*
X214989500Y-95981455D01*
X211910499Y-95981455D01*
X211872051Y-95788165D01*
X211796632Y-95606086D01*
X211687139Y-95442218D01*
X211547782Y-95302861D01*
X211383914Y-95193368D01*
X211293069Y-95155739D01*
X211201838Y-95117950D01*
X211201835Y-95117949D01*
X211008544Y-95079500D01*
X211008541Y-95079500D01*
X210811459Y-95079500D01*
X210811455Y-95079500D01*
X210618164Y-95117949D01*
X210618161Y-95117950D01*
X210436085Y-95193368D01*
X210272222Y-95302858D01*
X210272215Y-95302863D01*
X210132863Y-95442215D01*
X210132858Y-95442222D01*
X210023368Y-95606085D01*
X209947950Y-95788161D01*
X209947949Y-95788164D01*
X209909500Y-95981455D01*
X209909500Y-96478544D01*
X209945824Y-96661151D01*
X209947949Y-96671835D01*
X210023368Y-96853914D01*
X210132861Y-97017782D01*
X210272218Y-97157139D01*
X210436086Y-97266632D01*
X210618165Y-97342051D01*
X210739386Y-97366163D01*
X210790951Y-97376421D01*
X210853861Y-97409329D01*
X210888992Y-97471024D01*
X210885192Y-97541919D01*
X210843666Y-97599505D01*
X210790951Y-97623579D01*
X210618164Y-97657949D01*
X210618161Y-97657950D01*
X210436085Y-97733368D01*
X210272222Y-97842858D01*
X210272215Y-97842863D01*
X210132863Y-97982215D01*
X210132858Y-97982222D01*
X210023368Y-98146085D01*
X209947950Y-98328161D01*
X209947949Y-98328164D01*
X209909500Y-98521455D01*
X209909500Y-99018544D01*
X209947949Y-99211835D01*
X209947950Y-99211838D01*
X210023368Y-99393914D01*
X210132861Y-99557782D01*
X210272218Y-99697139D01*
X210436086Y-99806632D01*
X210618165Y-99882051D01*
X210773009Y-99912851D01*
X210811458Y-99920500D01*
X210812777Y-99920630D01*
X210813424Y-99920891D01*
X210817530Y-99921708D01*
X210817375Y-99922486D01*
X210878611Y-99947206D01*
X210919626Y-100005157D01*
X210922800Y-100076082D01*
X210887125Y-100137465D01*
X210825021Y-100169602D01*
X210812857Y-100172022D01*
X210781084Y-100178342D01*
X210781083Y-100178343D01*
X210644504Y-100234916D01*
X210521588Y-100317046D01*
X210521581Y-100317051D01*
X210417051Y-100421581D01*
X210417046Y-100421588D01*
X210334916Y-100544504D01*
X210278343Y-100681083D01*
X210278342Y-100681086D01*
X210278342Y-100681087D01*
X210249500Y-100826082D01*
X210249500Y-100973918D01*
X210278342Y-101118913D01*
X210289909Y-101146839D01*
X210291562Y-101155148D01*
X210294396Y-101159558D01*
X210299500Y-101195056D01*
X210299500Y-101257653D01*
X210279498Y-101325774D01*
X210262595Y-101346748D01*
X208410140Y-103199202D01*
X208410135Y-103199208D01*
X208333475Y-103313939D01*
X208280672Y-103441416D01*
X208280670Y-103441421D01*
X208264526Y-103522584D01*
X208253750Y-103576756D01*
X208253750Y-104350104D01*
X208233748Y-104418225D01*
X208216845Y-104439199D01*
X208161580Y-104494463D01*
X208161575Y-104494469D01*
X208049894Y-104661612D01*
X207972969Y-104847325D01*
X207972967Y-104847330D01*
X207933750Y-105044486D01*
X207434749Y-105044486D01*
X207434749Y-104380136D01*
X207431835Y-104355009D01*
X207386456Y-104252235D01*
X207386456Y-104252234D01*
X207307016Y-104172794D01*
X207275605Y-104158925D01*
X207221368Y-104113111D01*
X207200510Y-104045247D01*
X207200500Y-104043661D01*
X207200500Y-103195056D01*
X207210090Y-103146839D01*
X207221658Y-103118913D01*
X207250500Y-102973918D01*
X207250500Y-102826082D01*
X207221658Y-102681087D01*
X207165084Y-102544505D01*
X207082951Y-102421584D01*
X206978416Y-102317049D01*
X206855495Y-102234916D01*
X206791989Y-102208611D01*
X206718916Y-102178343D01*
X206718913Y-102178342D01*
X206573918Y-102149500D01*
X206426082Y-102149500D01*
X206353584Y-102163921D01*
X206281086Y-102178342D01*
X206281083Y-102178343D01*
X206144504Y-102234916D01*
X206021588Y-102317046D01*
X206021581Y-102317051D01*
X205917051Y-102421581D01*
X205917046Y-102421588D01*
X205834916Y-102544504D01*
X205778343Y-102681083D01*
X205778342Y-102681086D01*
X205778342Y-102681087D01*
X205749500Y-102826082D01*
X205749500Y-102973918D01*
X205778342Y-103118913D01*
X205789909Y-103146839D01*
X205799500Y-103195056D01*
X205799500Y-103998500D01*
X205779498Y-104066621D01*
X205725842Y-104113114D01*
X205673505Y-104124500D01*
X205649391Y-104124500D01*
X205649383Y-104124501D01*
X205624260Y-104127414D01*
X205624255Y-104127416D01*
X205521484Y-104172793D01*
X205442045Y-104252232D01*
X205442044Y-104252234D01*
X205396664Y-104355009D01*
X205393750Y-104380129D01*
X200050500Y-104380129D01*
X200050500Y-97374038D01*
X201899500Y-97374038D01*
X201899500Y-97625962D01*
X201918708Y-97747234D01*
X201938911Y-97874790D01*
X202016757Y-98114374D01*
X202016759Y-98114379D01*
X202131130Y-98338845D01*
X202279207Y-98542656D01*
X202279209Y-98542658D01*
X202279211Y-98542661D01*
X202457338Y-98720788D01*
X202457341Y-98720790D01*
X202457344Y-98720793D01*
X202661155Y-98868870D01*
X202885621Y-98983241D01*
X203125215Y-99061090D01*
X203374038Y-99100500D01*
X203374041Y-99100500D01*
X203625959Y-99100500D01*
X203625962Y-99100500D01*
X203874785Y-99061090D01*
X204114379Y-98983241D01*
X204338845Y-98868870D01*
X204542656Y-98720793D01*
X204720793Y-98542656D01*
X204868870Y-98338845D01*
X204983241Y-98114379D01*
X205061090Y-97874785D01*
X205100500Y-97625962D01*
X205100500Y-97374038D01*
X205061090Y-97125215D01*
X204983241Y-96885621D01*
X204868870Y-96661155D01*
X204720793Y-96457344D01*
X204720790Y-96457341D01*
X204720788Y-96457338D01*
X204542661Y-96279211D01*
X204542658Y-96279209D01*
X204542656Y-96279207D01*
X204338845Y-96131130D01*
X204114379Y-96016759D01*
X204114376Y-96016758D01*
X204114374Y-96016757D01*
X204005726Y-95981455D01*
X207369500Y-95981455D01*
X207369500Y-96478544D01*
X207405824Y-96661151D01*
X207407949Y-96671835D01*
X207483368Y-96853914D01*
X207592861Y-97017782D01*
X207732218Y-97157139D01*
X207896086Y-97266632D01*
X208078165Y-97342051D01*
X208218277Y-97369921D01*
X208281186Y-97402829D01*
X208316318Y-97464524D01*
X208312518Y-97535419D01*
X208270992Y-97593005D01*
X208204925Y-97618999D01*
X208193695Y-97619500D01*
X207625140Y-97619500D01*
X207625133Y-97619501D01*
X207600009Y-97622414D01*
X207600005Y-97622416D01*
X207497234Y-97667793D01*
X207417795Y-97747232D01*
X207417794Y-97747234D01*
X207372414Y-97850009D01*
X207369500Y-97875129D01*
X207369500Y-99664859D01*
X207369501Y-99664866D01*
X207372414Y-99689990D01*
X207372416Y-99689994D01*
X207417793Y-99792765D01*
X207497232Y-99872204D01*
X207497234Y-99872205D01*
X207497235Y-99872206D01*
X207600009Y-99917585D01*
X207625135Y-99920500D01*
X209114864Y-99920499D01*
X209139991Y-99917585D01*
X209242765Y-99872206D01*
X209322206Y-99792765D01*
X209367585Y-99689991D01*
X209370500Y-99664865D01*
X209370499Y-97875136D01*
X209367585Y-97850009D01*
X209322206Y-97747235D01*
X209322206Y-97747234D01*
X209242767Y-97667795D01*
X209242765Y-97667794D01*
X209139989Y-97622414D01*
X209139990Y-97622414D01*
X209114870Y-97619500D01*
X208546305Y-97619500D01*
X208478184Y-97599498D01*
X208431691Y-97545842D01*
X208421587Y-97475568D01*
X208451081Y-97410988D01*
X208510807Y-97372604D01*
X208521716Y-97369922D01*
X208661835Y-97342051D01*
X208843914Y-97266632D01*
X209007782Y-97157139D01*
X209147139Y-97017782D01*
X209256632Y-96853914D01*
X209332051Y-96671835D01*
X209370500Y-96478541D01*
X209370500Y-95981459D01*
X209332051Y-95788165D01*
X209256632Y-95606086D01*
X209147139Y-95442218D01*
X209007782Y-95302861D01*
X208843914Y-95193368D01*
X208753069Y-95155739D01*
X208661838Y-95117950D01*
X208661835Y-95117949D01*
X208468544Y-95079500D01*
X208468541Y-95079500D01*
X208271459Y-95079500D01*
X208271455Y-95079500D01*
X208078164Y-95117949D01*
X208078161Y-95117950D01*
X207896085Y-95193368D01*
X207732222Y-95302858D01*
X207732215Y-95302863D01*
X207592863Y-95442215D01*
X207592858Y-95442222D01*
X207483368Y-95606085D01*
X207407950Y-95788161D01*
X207407949Y-95788164D01*
X207369500Y-95981455D01*
X204005726Y-95981455D01*
X203874790Y-95938911D01*
X203874786Y-95938910D01*
X203874785Y-95938910D01*
X203625962Y-95899500D01*
X203374038Y-95899500D01*
X203125215Y-95938910D01*
X203125209Y-95938911D01*
X202885625Y-96016757D01*
X202885619Y-96016760D01*
X202661151Y-96131132D01*
X202457341Y-96279209D01*
X202457338Y-96279211D01*
X202279211Y-96457338D01*
X202279209Y-96457341D01*
X202131132Y-96661151D01*
X202016760Y-96885619D01*
X202016757Y-96885625D01*
X201938911Y-97125209D01*
X201938910Y-97125214D01*
X201938910Y-97125215D01*
X201899500Y-97374038D01*
X200050500Y-97374038D01*
X200050500Y-97003539D01*
X200050698Y-96996474D01*
X200056923Y-96885621D01*
X200068649Y-96676821D01*
X200070231Y-96662785D01*
X200094127Y-96522142D01*
X200123266Y-96350638D01*
X200126405Y-96336888D01*
X200214060Y-96032631D01*
X200218721Y-96019311D01*
X200339886Y-95726792D01*
X200346015Y-95714066D01*
X200499166Y-95436959D01*
X200506674Y-95425010D01*
X200689900Y-95166778D01*
X200698697Y-95155746D01*
X200909674Y-94919664D01*
X200919665Y-94909674D01*
X201155746Y-94698697D01*
X201166778Y-94689900D01*
X201425010Y-94506674D01*
X201436959Y-94499166D01*
X201714070Y-94346012D01*
X201726792Y-94339886D01*
X202019311Y-94218721D01*
X202032631Y-94214060D01*
X202336888Y-94126405D01*
X202350638Y-94123266D01*
X202662789Y-94070230D01*
X202676821Y-94068649D01*
X202996474Y-94050697D01*
X203003539Y-94050500D01*
X203016408Y-94050500D01*
X260479935Y-94050500D01*
X260548056Y-94070502D01*
G37*
G04 #@! TD.AperFunction*
G04 #@! TA.AperFunction,Conductor*
G36*
X261664121Y-109380002D02*
G01*
X261710614Y-109433658D01*
X261722000Y-109486000D01*
X261722000Y-114314000D01*
X261701998Y-114382121D01*
X261648342Y-114428614D01*
X261596000Y-114440000D01*
X257912000Y-114440000D01*
X257912000Y-126506000D01*
X257891998Y-126574121D01*
X257838342Y-126620614D01*
X257786000Y-126632000D01*
X254228000Y-126632000D01*
X254159879Y-126611998D01*
X254113386Y-126558342D01*
X254102000Y-126506000D01*
X254102000Y-109486000D01*
X254122002Y-109417879D01*
X254175658Y-109371386D01*
X254228000Y-109360000D01*
X261596000Y-109360000D01*
X261664121Y-109380002D01*
G37*
G04 #@! TD.AperFunction*
M02*
