G04 #@! TF.GenerationSoftware,KiCad,Pcbnew,9.0.0*
G04 #@! TF.CreationDate,2025-03-30T18:48:23-05:00*
G04 #@! TF.ProjectId,2019-Pi-Power,32303139-2d50-4692-9d50-6f7765722e6b,V2*
G04 #@! TF.SameCoordinates,Original*
G04 #@! TF.FileFunction,Legend,Top*
G04 #@! TF.FilePolarity,Positive*
%FSLAX46Y46*%
G04 Gerber Fmt 4.6, Leading zero omitted, Abs format (unit mm)*
G04 Created by KiCad (PCBNEW 9.0.0) date 2025-03-30 18:48:23*
%MOMM*%
%LPD*%
G01*
G04 APERTURE LIST*
%ADD10C,0.150000*%
%ADD11C,0.120000*%
%ADD12C,0.250000*%
%ADD13C,0.200000*%
%ADD14C,0.100000*%
%ADD15C,0.010000*%
%ADD16C,0.127000*%
G04 APERTURE END LIST*
D10*
X221367269Y-147968000D02*
G75*
G02*
X219272731Y-147968000I-1047269J0D01*
G01*
X219272731Y-147968000D02*
G75*
G02*
X221367269Y-147968000I1047269J0D01*
G01*
X215240000Y-147968000D02*
X216224732Y-147968000D01*
X264516000Y-115202000D02*
X264516000Y-119774000D01*
X264518000Y-114675000D02*
X264518000Y-109595000D01*
X217272000Y-147968000D02*
X219304000Y-147968000D01*
X217526000Y-147968000D02*
G75*
G02*
X217018000Y-147968000I-254000J0D01*
G01*
X217018000Y-147968000D02*
G75*
G02*
X217526000Y-147968000I254000J0D01*
G01*
X264516000Y-119774000D02*
X262484000Y-119774000D01*
X262230000Y-115202000D02*
X264516000Y-115202000D01*
X264518000Y-109595000D02*
X262486000Y-109595000D01*
X215271269Y-147968000D02*
G75*
G02*
X213176731Y-147968000I-1047269J0D01*
G01*
X213176731Y-147968000D02*
G75*
G02*
X215271269Y-147968000I1047269J0D01*
G01*
X262232000Y-114675000D02*
X264518000Y-114675000D01*
X218033999Y-148729999D02*
G75*
G02*
X218033999Y-147206001I-761999J761999D01*
G01*
D11*
X234263855Y-109542856D02*
X233463855Y-109542856D01*
X233463855Y-109542856D02*
X234035283Y-109342856D01*
X234035283Y-109342856D02*
X233463855Y-109142856D01*
X233463855Y-109142856D02*
X234263855Y-109142856D01*
X234263855Y-108857142D02*
X233463855Y-108857142D01*
X234225760Y-108600000D02*
X234263855Y-108514286D01*
X234263855Y-108514286D02*
X234263855Y-108371428D01*
X234263855Y-108371428D02*
X234225760Y-108314286D01*
X234225760Y-108314286D02*
X234187664Y-108285714D01*
X234187664Y-108285714D02*
X234111474Y-108257143D01*
X234111474Y-108257143D02*
X234035283Y-108257143D01*
X234035283Y-108257143D02*
X233959093Y-108285714D01*
X233959093Y-108285714D02*
X233920998Y-108314286D01*
X233920998Y-108314286D02*
X233882902Y-108371428D01*
X233882902Y-108371428D02*
X233844807Y-108485714D01*
X233844807Y-108485714D02*
X233806712Y-108542857D01*
X233806712Y-108542857D02*
X233768617Y-108571428D01*
X233768617Y-108571428D02*
X233692426Y-108600000D01*
X233692426Y-108600000D02*
X233616236Y-108600000D01*
X233616236Y-108600000D02*
X233540045Y-108571428D01*
X233540045Y-108571428D02*
X233501950Y-108542857D01*
X233501950Y-108542857D02*
X233463855Y-108485714D01*
X233463855Y-108485714D02*
X233463855Y-108342857D01*
X233463855Y-108342857D02*
X233501950Y-108257143D01*
X233463855Y-107885714D02*
X233463855Y-107771428D01*
X233463855Y-107771428D02*
X233501950Y-107714285D01*
X233501950Y-107714285D02*
X233578140Y-107657142D01*
X233578140Y-107657142D02*
X233730521Y-107628571D01*
X233730521Y-107628571D02*
X233997188Y-107628571D01*
X233997188Y-107628571D02*
X234149569Y-107657142D01*
X234149569Y-107657142D02*
X234225760Y-107714285D01*
X234225760Y-107714285D02*
X234263855Y-107771428D01*
X234263855Y-107771428D02*
X234263855Y-107885714D01*
X234263855Y-107885714D02*
X234225760Y-107942857D01*
X234225760Y-107942857D02*
X234149569Y-107999999D01*
X234149569Y-107999999D02*
X233997188Y-108028571D01*
X233997188Y-108028571D02*
X233730521Y-108028571D01*
X233730521Y-108028571D02*
X233578140Y-107999999D01*
X233578140Y-107999999D02*
X233501950Y-107942857D01*
X233501950Y-107942857D02*
X233463855Y-107885714D01*
X236725760Y-109171428D02*
X236763855Y-109085714D01*
X236763855Y-109085714D02*
X236763855Y-108942856D01*
X236763855Y-108942856D02*
X236725760Y-108885714D01*
X236725760Y-108885714D02*
X236687664Y-108857142D01*
X236687664Y-108857142D02*
X236611474Y-108828571D01*
X236611474Y-108828571D02*
X236535283Y-108828571D01*
X236535283Y-108828571D02*
X236459093Y-108857142D01*
X236459093Y-108857142D02*
X236420998Y-108885714D01*
X236420998Y-108885714D02*
X236382902Y-108942856D01*
X236382902Y-108942856D02*
X236344807Y-109057142D01*
X236344807Y-109057142D02*
X236306712Y-109114285D01*
X236306712Y-109114285D02*
X236268617Y-109142856D01*
X236268617Y-109142856D02*
X236192426Y-109171428D01*
X236192426Y-109171428D02*
X236116236Y-109171428D01*
X236116236Y-109171428D02*
X236040045Y-109142856D01*
X236040045Y-109142856D02*
X236001950Y-109114285D01*
X236001950Y-109114285D02*
X235963855Y-109057142D01*
X235963855Y-109057142D02*
X235963855Y-108914285D01*
X235963855Y-108914285D02*
X236001950Y-108828571D01*
X236687664Y-108228570D02*
X236725760Y-108257142D01*
X236725760Y-108257142D02*
X236763855Y-108342856D01*
X236763855Y-108342856D02*
X236763855Y-108399999D01*
X236763855Y-108399999D02*
X236725760Y-108485713D01*
X236725760Y-108485713D02*
X236649569Y-108542856D01*
X236649569Y-108542856D02*
X236573379Y-108571427D01*
X236573379Y-108571427D02*
X236420998Y-108599999D01*
X236420998Y-108599999D02*
X236306712Y-108599999D01*
X236306712Y-108599999D02*
X236154331Y-108571427D01*
X236154331Y-108571427D02*
X236078140Y-108542856D01*
X236078140Y-108542856D02*
X236001950Y-108485713D01*
X236001950Y-108485713D02*
X235963855Y-108399999D01*
X235963855Y-108399999D02*
X235963855Y-108342856D01*
X235963855Y-108342856D02*
X236001950Y-108257142D01*
X236001950Y-108257142D02*
X236040045Y-108228570D01*
X236763855Y-107971427D02*
X235963855Y-107971427D01*
X236763855Y-107628570D02*
X236306712Y-107885713D01*
X235963855Y-107628570D02*
X236420998Y-107971427D01*
X239287664Y-108224999D02*
X239325760Y-108253571D01*
X239325760Y-108253571D02*
X239363855Y-108339285D01*
X239363855Y-108339285D02*
X239363855Y-108396428D01*
X239363855Y-108396428D02*
X239325760Y-108482142D01*
X239325760Y-108482142D02*
X239249569Y-108539285D01*
X239249569Y-108539285D02*
X239173379Y-108567856D01*
X239173379Y-108567856D02*
X239020998Y-108596428D01*
X239020998Y-108596428D02*
X238906712Y-108596428D01*
X238906712Y-108596428D02*
X238754331Y-108567856D01*
X238754331Y-108567856D02*
X238678140Y-108539285D01*
X238678140Y-108539285D02*
X238601950Y-108482142D01*
X238601950Y-108482142D02*
X238563855Y-108396428D01*
X238563855Y-108396428D02*
X238563855Y-108339285D01*
X238563855Y-108339285D02*
X238601950Y-108253571D01*
X238601950Y-108253571D02*
X238640045Y-108224999D01*
X239325760Y-107996428D02*
X239363855Y-107910714D01*
X239363855Y-107910714D02*
X239363855Y-107767856D01*
X239363855Y-107767856D02*
X239325760Y-107710714D01*
X239325760Y-107710714D02*
X239287664Y-107682142D01*
X239287664Y-107682142D02*
X239211474Y-107653571D01*
X239211474Y-107653571D02*
X239135283Y-107653571D01*
X239135283Y-107653571D02*
X239059093Y-107682142D01*
X239059093Y-107682142D02*
X239020998Y-107710714D01*
X239020998Y-107710714D02*
X238982902Y-107767856D01*
X238982902Y-107767856D02*
X238944807Y-107882142D01*
X238944807Y-107882142D02*
X238906712Y-107939285D01*
X238906712Y-107939285D02*
X238868617Y-107967856D01*
X238868617Y-107967856D02*
X238792426Y-107996428D01*
X238792426Y-107996428D02*
X238716236Y-107996428D01*
X238716236Y-107996428D02*
X238640045Y-107967856D01*
X238640045Y-107967856D02*
X238601950Y-107939285D01*
X238601950Y-107939285D02*
X238563855Y-107882142D01*
X238563855Y-107882142D02*
X238563855Y-107739285D01*
X238563855Y-107739285D02*
X238601950Y-107653571D01*
D10*
X263396866Y-114221999D02*
X263396866Y-113460095D01*
X263777819Y-113841047D02*
X263015914Y-113841047D01*
X262777819Y-113079142D02*
X262777819Y-112460095D01*
X262777819Y-112460095D02*
X263158771Y-112793428D01*
X263158771Y-112793428D02*
X263158771Y-112650571D01*
X263158771Y-112650571D02*
X263206390Y-112555333D01*
X263206390Y-112555333D02*
X263254009Y-112507714D01*
X263254009Y-112507714D02*
X263349247Y-112460095D01*
X263349247Y-112460095D02*
X263587342Y-112460095D01*
X263587342Y-112460095D02*
X263682580Y-112507714D01*
X263682580Y-112507714D02*
X263730200Y-112555333D01*
X263730200Y-112555333D02*
X263777819Y-112650571D01*
X263777819Y-112650571D02*
X263777819Y-112936285D01*
X263777819Y-112936285D02*
X263730200Y-113031523D01*
X263730200Y-113031523D02*
X263682580Y-113079142D01*
X263682580Y-112031523D02*
X263730200Y-111983904D01*
X263730200Y-111983904D02*
X263777819Y-112031523D01*
X263777819Y-112031523D02*
X263730200Y-112079142D01*
X263730200Y-112079142D02*
X263682580Y-112031523D01*
X263682580Y-112031523D02*
X263777819Y-112031523D01*
X262777819Y-111650571D02*
X262777819Y-111031524D01*
X262777819Y-111031524D02*
X263158771Y-111364857D01*
X263158771Y-111364857D02*
X263158771Y-111222000D01*
X263158771Y-111222000D02*
X263206390Y-111126762D01*
X263206390Y-111126762D02*
X263254009Y-111079143D01*
X263254009Y-111079143D02*
X263349247Y-111031524D01*
X263349247Y-111031524D02*
X263587342Y-111031524D01*
X263587342Y-111031524D02*
X263682580Y-111079143D01*
X263682580Y-111079143D02*
X263730200Y-111126762D01*
X263730200Y-111126762D02*
X263777819Y-111222000D01*
X263777819Y-111222000D02*
X263777819Y-111507714D01*
X263777819Y-111507714D02*
X263730200Y-111602952D01*
X263730200Y-111602952D02*
X263682580Y-111650571D01*
X262777819Y-110745809D02*
X263777819Y-110412476D01*
X263777819Y-110412476D02*
X262777819Y-110079143D01*
D12*
X212938666Y-146385619D02*
X213129142Y-146385619D01*
X213129142Y-146385619D02*
X213224380Y-146338000D01*
X213224380Y-146338000D02*
X213271999Y-146290380D01*
X213271999Y-146290380D02*
X213367237Y-146147523D01*
X213367237Y-146147523D02*
X213414856Y-145957047D01*
X213414856Y-145957047D02*
X213414856Y-145576095D01*
X213414856Y-145576095D02*
X213367237Y-145480857D01*
X213367237Y-145480857D02*
X213319618Y-145433238D01*
X213319618Y-145433238D02*
X213224380Y-145385619D01*
X213224380Y-145385619D02*
X213033904Y-145385619D01*
X213033904Y-145385619D02*
X212938666Y-145433238D01*
X212938666Y-145433238D02*
X212891047Y-145480857D01*
X212891047Y-145480857D02*
X212843428Y-145576095D01*
X212843428Y-145576095D02*
X212843428Y-145814190D01*
X212843428Y-145814190D02*
X212891047Y-145909428D01*
X212891047Y-145909428D02*
X212938666Y-145957047D01*
X212938666Y-145957047D02*
X213033904Y-146004666D01*
X213033904Y-146004666D02*
X213224380Y-146004666D01*
X213224380Y-146004666D02*
X213319618Y-145957047D01*
X213319618Y-145957047D02*
X213367237Y-145909428D01*
X213367237Y-145909428D02*
X213414856Y-145814190D01*
X214605333Y-146004666D02*
X215367238Y-146004666D01*
X216557714Y-145480857D02*
X216605333Y-145433238D01*
X216605333Y-145433238D02*
X216700571Y-145385619D01*
X216700571Y-145385619D02*
X216938666Y-145385619D01*
X216938666Y-145385619D02*
X217033904Y-145433238D01*
X217033904Y-145433238D02*
X217081523Y-145480857D01*
X217081523Y-145480857D02*
X217129142Y-145576095D01*
X217129142Y-145576095D02*
X217129142Y-145671333D01*
X217129142Y-145671333D02*
X217081523Y-145814190D01*
X217081523Y-145814190D02*
X216510095Y-146385619D01*
X216510095Y-146385619D02*
X217129142Y-146385619D01*
X217986285Y-145718952D02*
X217986285Y-146385619D01*
X217748190Y-145338000D02*
X217510095Y-146052285D01*
X217510095Y-146052285D02*
X218129142Y-146052285D01*
X219129143Y-145385619D02*
X219462476Y-146385619D01*
X219462476Y-146385619D02*
X219795809Y-145385619D01*
X220129143Y-146385619D02*
X220129143Y-145385619D01*
X220129143Y-145385619D02*
X220367238Y-145385619D01*
X220367238Y-145385619D02*
X220510095Y-145433238D01*
X220510095Y-145433238D02*
X220605333Y-145528476D01*
X220605333Y-145528476D02*
X220652952Y-145623714D01*
X220652952Y-145623714D02*
X220700571Y-145814190D01*
X220700571Y-145814190D02*
X220700571Y-145957047D01*
X220700571Y-145957047D02*
X220652952Y-146147523D01*
X220652952Y-146147523D02*
X220605333Y-146242761D01*
X220605333Y-146242761D02*
X220510095Y-146338000D01*
X220510095Y-146338000D02*
X220367238Y-146385619D01*
X220367238Y-146385619D02*
X220129143Y-146385619D01*
X221700571Y-146290380D02*
X221652952Y-146338000D01*
X221652952Y-146338000D02*
X221510095Y-146385619D01*
X221510095Y-146385619D02*
X221414857Y-146385619D01*
X221414857Y-146385619D02*
X221272000Y-146338000D01*
X221272000Y-146338000D02*
X221176762Y-146242761D01*
X221176762Y-146242761D02*
X221129143Y-146147523D01*
X221129143Y-146147523D02*
X221081524Y-145957047D01*
X221081524Y-145957047D02*
X221081524Y-145814190D01*
X221081524Y-145814190D02*
X221129143Y-145623714D01*
X221129143Y-145623714D02*
X221176762Y-145528476D01*
X221176762Y-145528476D02*
X221272000Y-145433238D01*
X221272000Y-145433238D02*
X221414857Y-145385619D01*
X221414857Y-145385619D02*
X221510095Y-145385619D01*
X221510095Y-145385619D02*
X221652952Y-145433238D01*
X221652952Y-145433238D02*
X221700571Y-145480857D01*
D10*
X251963095Y-143752438D02*
X251867857Y-143704819D01*
X251867857Y-143704819D02*
X251725000Y-143704819D01*
X251725000Y-143704819D02*
X251582143Y-143752438D01*
X251582143Y-143752438D02*
X251486905Y-143847676D01*
X251486905Y-143847676D02*
X251439286Y-143942914D01*
X251439286Y-143942914D02*
X251391667Y-144133390D01*
X251391667Y-144133390D02*
X251391667Y-144276247D01*
X251391667Y-144276247D02*
X251439286Y-144466723D01*
X251439286Y-144466723D02*
X251486905Y-144561961D01*
X251486905Y-144561961D02*
X251582143Y-144657200D01*
X251582143Y-144657200D02*
X251725000Y-144704819D01*
X251725000Y-144704819D02*
X251820238Y-144704819D01*
X251820238Y-144704819D02*
X251963095Y-144657200D01*
X251963095Y-144657200D02*
X252010714Y-144609580D01*
X252010714Y-144609580D02*
X252010714Y-144276247D01*
X252010714Y-144276247D02*
X251820238Y-144276247D01*
X252439286Y-144704819D02*
X252439286Y-143704819D01*
X252439286Y-143704819D02*
X253010714Y-144704819D01*
X253010714Y-144704819D02*
X253010714Y-143704819D01*
X253486905Y-144704819D02*
X253486905Y-143704819D01*
X253486905Y-143704819D02*
X253725000Y-143704819D01*
X253725000Y-143704819D02*
X253867857Y-143752438D01*
X253867857Y-143752438D02*
X253963095Y-143847676D01*
X253963095Y-143847676D02*
X254010714Y-143942914D01*
X254010714Y-143942914D02*
X254058333Y-144133390D01*
X254058333Y-144133390D02*
X254058333Y-144276247D01*
X254058333Y-144276247D02*
X254010714Y-144466723D01*
X254010714Y-144466723D02*
X253963095Y-144561961D01*
X253963095Y-144561961D02*
X253867857Y-144657200D01*
X253867857Y-144657200D02*
X253725000Y-144704819D01*
X253725000Y-144704819D02*
X253486905Y-144704819D01*
D13*
X213822000Y-148039266D02*
X214622000Y-148039266D01*
X219922000Y-148039266D02*
X220722000Y-148039266D01*
X220322000Y-148420219D02*
X220322000Y-147658314D01*
D10*
X262877438Y-118336904D02*
X262829819Y-118432142D01*
X262829819Y-118432142D02*
X262829819Y-118574999D01*
X262829819Y-118574999D02*
X262877438Y-118717856D01*
X262877438Y-118717856D02*
X262972676Y-118813094D01*
X262972676Y-118813094D02*
X263067914Y-118860713D01*
X263067914Y-118860713D02*
X263258390Y-118908332D01*
X263258390Y-118908332D02*
X263401247Y-118908332D01*
X263401247Y-118908332D02*
X263591723Y-118860713D01*
X263591723Y-118860713D02*
X263686961Y-118813094D01*
X263686961Y-118813094D02*
X263782200Y-118717856D01*
X263782200Y-118717856D02*
X263829819Y-118574999D01*
X263829819Y-118574999D02*
X263829819Y-118479761D01*
X263829819Y-118479761D02*
X263782200Y-118336904D01*
X263782200Y-118336904D02*
X263734580Y-118289285D01*
X263734580Y-118289285D02*
X263401247Y-118289285D01*
X263401247Y-118289285D02*
X263401247Y-118479761D01*
X263829819Y-117860713D02*
X262829819Y-117860713D01*
X262829819Y-117860713D02*
X263829819Y-117289285D01*
X263829819Y-117289285D02*
X262829819Y-117289285D01*
X263829819Y-116813094D02*
X262829819Y-116813094D01*
X262829819Y-116813094D02*
X262829819Y-116574999D01*
X262829819Y-116574999D02*
X262877438Y-116432142D01*
X262877438Y-116432142D02*
X262972676Y-116336904D01*
X262972676Y-116336904D02*
X263067914Y-116289285D01*
X263067914Y-116289285D02*
X263258390Y-116241666D01*
X263258390Y-116241666D02*
X263401247Y-116241666D01*
X263401247Y-116241666D02*
X263591723Y-116289285D01*
X263591723Y-116289285D02*
X263686961Y-116336904D01*
X263686961Y-116336904D02*
X263782200Y-116432142D01*
X263782200Y-116432142D02*
X263829819Y-116574999D01*
X263829819Y-116574999D02*
X263829819Y-116813094D01*
D13*
X240778572Y-106429600D02*
X240921429Y-106477219D01*
X240921429Y-106477219D02*
X241159524Y-106477219D01*
X241159524Y-106477219D02*
X241254762Y-106429600D01*
X241254762Y-106429600D02*
X241302381Y-106381980D01*
X241302381Y-106381980D02*
X241350000Y-106286742D01*
X241350000Y-106286742D02*
X241350000Y-106191504D01*
X241350000Y-106191504D02*
X241302381Y-106096266D01*
X241302381Y-106096266D02*
X241254762Y-106048647D01*
X241254762Y-106048647D02*
X241159524Y-106001028D01*
X241159524Y-106001028D02*
X240969048Y-105953409D01*
X240969048Y-105953409D02*
X240873810Y-105905790D01*
X240873810Y-105905790D02*
X240826191Y-105858171D01*
X240826191Y-105858171D02*
X240778572Y-105762933D01*
X240778572Y-105762933D02*
X240778572Y-105667695D01*
X240778572Y-105667695D02*
X240826191Y-105572457D01*
X240826191Y-105572457D02*
X240873810Y-105524838D01*
X240873810Y-105524838D02*
X240969048Y-105477219D01*
X240969048Y-105477219D02*
X241207143Y-105477219D01*
X241207143Y-105477219D02*
X241350000Y-105524838D01*
X241778572Y-106477219D02*
X241778572Y-105477219D01*
X241778572Y-105477219D02*
X242159524Y-105477219D01*
X242159524Y-105477219D02*
X242254762Y-105524838D01*
X242254762Y-105524838D02*
X242302381Y-105572457D01*
X242302381Y-105572457D02*
X242350000Y-105667695D01*
X242350000Y-105667695D02*
X242350000Y-105810552D01*
X242350000Y-105810552D02*
X242302381Y-105905790D01*
X242302381Y-105905790D02*
X242254762Y-105953409D01*
X242254762Y-105953409D02*
X242159524Y-106001028D01*
X242159524Y-106001028D02*
X241778572Y-106001028D01*
X242778572Y-106477219D02*
X242778572Y-105477219D01*
X243445238Y-105477219D02*
X243540476Y-105477219D01*
X243540476Y-105477219D02*
X243635714Y-105524838D01*
X243635714Y-105524838D02*
X243683333Y-105572457D01*
X243683333Y-105572457D02*
X243730952Y-105667695D01*
X243730952Y-105667695D02*
X243778571Y-105858171D01*
X243778571Y-105858171D02*
X243778571Y-106096266D01*
X243778571Y-106096266D02*
X243730952Y-106286742D01*
X243730952Y-106286742D02*
X243683333Y-106381980D01*
X243683333Y-106381980D02*
X243635714Y-106429600D01*
X243635714Y-106429600D02*
X243540476Y-106477219D01*
X243540476Y-106477219D02*
X243445238Y-106477219D01*
X243445238Y-106477219D02*
X243350000Y-106429600D01*
X243350000Y-106429600D02*
X243302381Y-106381980D01*
X243302381Y-106381980D02*
X243254762Y-106286742D01*
X243254762Y-106286742D02*
X243207143Y-106096266D01*
X243207143Y-106096266D02*
X243207143Y-105858171D01*
X243207143Y-105858171D02*
X243254762Y-105667695D01*
X243254762Y-105667695D02*
X243302381Y-105572457D01*
X243302381Y-105572457D02*
X243350000Y-105524838D01*
X243350000Y-105524838D02*
X243445238Y-105477219D01*
X244207143Y-106096266D02*
X244969048Y-106096266D01*
X246016666Y-106381980D02*
X245969047Y-106429600D01*
X245969047Y-106429600D02*
X245826190Y-106477219D01*
X245826190Y-106477219D02*
X245730952Y-106477219D01*
X245730952Y-106477219D02*
X245588095Y-106429600D01*
X245588095Y-106429600D02*
X245492857Y-106334361D01*
X245492857Y-106334361D02*
X245445238Y-106239123D01*
X245445238Y-106239123D02*
X245397619Y-106048647D01*
X245397619Y-106048647D02*
X245397619Y-105905790D01*
X245397619Y-105905790D02*
X245445238Y-105715314D01*
X245445238Y-105715314D02*
X245492857Y-105620076D01*
X245492857Y-105620076D02*
X245588095Y-105524838D01*
X245588095Y-105524838D02*
X245730952Y-105477219D01*
X245730952Y-105477219D02*
X245826190Y-105477219D01*
X245826190Y-105477219D02*
X245969047Y-105524838D01*
X245969047Y-105524838D02*
X246016666Y-105572457D01*
X246397619Y-106429600D02*
X246540476Y-106477219D01*
X246540476Y-106477219D02*
X246778571Y-106477219D01*
X246778571Y-106477219D02*
X246873809Y-106429600D01*
X246873809Y-106429600D02*
X246921428Y-106381980D01*
X246921428Y-106381980D02*
X246969047Y-106286742D01*
X246969047Y-106286742D02*
X246969047Y-106191504D01*
X246969047Y-106191504D02*
X246921428Y-106096266D01*
X246921428Y-106096266D02*
X246873809Y-106048647D01*
X246873809Y-106048647D02*
X246778571Y-106001028D01*
X246778571Y-106001028D02*
X246588095Y-105953409D01*
X246588095Y-105953409D02*
X246492857Y-105905790D01*
X246492857Y-105905790D02*
X246445238Y-105858171D01*
X246445238Y-105858171D02*
X246397619Y-105762933D01*
X246397619Y-105762933D02*
X246397619Y-105667695D01*
X246397619Y-105667695D02*
X246445238Y-105572457D01*
X246445238Y-105572457D02*
X246492857Y-105524838D01*
X246492857Y-105524838D02*
X246588095Y-105477219D01*
X246588095Y-105477219D02*
X246826190Y-105477219D01*
X246826190Y-105477219D02*
X246969047Y-105524838D01*
X247921428Y-106477219D02*
X247350000Y-106477219D01*
X247635714Y-106477219D02*
X247635714Y-105477219D01*
X247635714Y-105477219D02*
X247540476Y-105620076D01*
X247540476Y-105620076D02*
X247445238Y-105715314D01*
X247445238Y-105715314D02*
X247350000Y-105762933D01*
D11*
X231563855Y-109542856D02*
X230763855Y-109542856D01*
X230763855Y-109542856D02*
X231335283Y-109342856D01*
X231335283Y-109342856D02*
X230763855Y-109142856D01*
X230763855Y-109142856D02*
X231563855Y-109142856D01*
X230763855Y-108742857D02*
X230763855Y-108628571D01*
X230763855Y-108628571D02*
X230801950Y-108571428D01*
X230801950Y-108571428D02*
X230878140Y-108514285D01*
X230878140Y-108514285D02*
X231030521Y-108485714D01*
X231030521Y-108485714D02*
X231297188Y-108485714D01*
X231297188Y-108485714D02*
X231449569Y-108514285D01*
X231449569Y-108514285D02*
X231525760Y-108571428D01*
X231525760Y-108571428D02*
X231563855Y-108628571D01*
X231563855Y-108628571D02*
X231563855Y-108742857D01*
X231563855Y-108742857D02*
X231525760Y-108800000D01*
X231525760Y-108800000D02*
X231449569Y-108857142D01*
X231449569Y-108857142D02*
X231297188Y-108885714D01*
X231297188Y-108885714D02*
X231030521Y-108885714D01*
X231030521Y-108885714D02*
X230878140Y-108857142D01*
X230878140Y-108857142D02*
X230801950Y-108800000D01*
X230801950Y-108800000D02*
X230763855Y-108742857D01*
X231525760Y-108257143D02*
X231563855Y-108171429D01*
X231563855Y-108171429D02*
X231563855Y-108028571D01*
X231563855Y-108028571D02*
X231525760Y-107971429D01*
X231525760Y-107971429D02*
X231487664Y-107942857D01*
X231487664Y-107942857D02*
X231411474Y-107914286D01*
X231411474Y-107914286D02*
X231335283Y-107914286D01*
X231335283Y-107914286D02*
X231259093Y-107942857D01*
X231259093Y-107942857D02*
X231220998Y-107971429D01*
X231220998Y-107971429D02*
X231182902Y-108028571D01*
X231182902Y-108028571D02*
X231144807Y-108142857D01*
X231144807Y-108142857D02*
X231106712Y-108200000D01*
X231106712Y-108200000D02*
X231068617Y-108228571D01*
X231068617Y-108228571D02*
X230992426Y-108257143D01*
X230992426Y-108257143D02*
X230916236Y-108257143D01*
X230916236Y-108257143D02*
X230840045Y-108228571D01*
X230840045Y-108228571D02*
X230801950Y-108200000D01*
X230801950Y-108200000D02*
X230763855Y-108142857D01*
X230763855Y-108142857D02*
X230763855Y-108000000D01*
X230763855Y-108000000D02*
X230801950Y-107914286D01*
X231563855Y-107657142D02*
X230763855Y-107657142D01*
D10*
X245210934Y-135382875D02*
X245210934Y-134382875D01*
X245210934Y-134382875D02*
X245449029Y-134382875D01*
X245449029Y-134382875D02*
X245591886Y-134430494D01*
X245591886Y-134430494D02*
X245687124Y-134525732D01*
X245687124Y-134525732D02*
X245734743Y-134620970D01*
X245734743Y-134620970D02*
X245782362Y-134811446D01*
X245782362Y-134811446D02*
X245782362Y-134954303D01*
X245782362Y-134954303D02*
X245734743Y-135144779D01*
X245734743Y-135144779D02*
X245687124Y-135240017D01*
X245687124Y-135240017D02*
X245591886Y-135335256D01*
X245591886Y-135335256D02*
X245449029Y-135382875D01*
X245449029Y-135382875D02*
X245210934Y-135382875D01*
X246163315Y-135335256D02*
X246306172Y-135382875D01*
X246306172Y-135382875D02*
X246544267Y-135382875D01*
X246544267Y-135382875D02*
X246639505Y-135335256D01*
X246639505Y-135335256D02*
X246687124Y-135287636D01*
X246687124Y-135287636D02*
X246734743Y-135192398D01*
X246734743Y-135192398D02*
X246734743Y-135097160D01*
X246734743Y-135097160D02*
X246687124Y-135001922D01*
X246687124Y-135001922D02*
X246639505Y-134954303D01*
X246639505Y-134954303D02*
X246544267Y-134906684D01*
X246544267Y-134906684D02*
X246353791Y-134859065D01*
X246353791Y-134859065D02*
X246258553Y-134811446D01*
X246258553Y-134811446D02*
X246210934Y-134763827D01*
X246210934Y-134763827D02*
X246163315Y-134668589D01*
X246163315Y-134668589D02*
X246163315Y-134573351D01*
X246163315Y-134573351D02*
X246210934Y-134478113D01*
X246210934Y-134478113D02*
X246258553Y-134430494D01*
X246258553Y-134430494D02*
X246353791Y-134382875D01*
X246353791Y-134382875D02*
X246591886Y-134382875D01*
X246591886Y-134382875D02*
X246734743Y-134430494D01*
X247163315Y-135382875D02*
X247163315Y-134382875D01*
X247734743Y-135382875D02*
X247306172Y-134811446D01*
X247734743Y-134382875D02*
X247163315Y-134954303D01*
X248353791Y-134906684D02*
X248353791Y-135382875D01*
X248020458Y-134382875D02*
X248353791Y-134906684D01*
X248353791Y-134906684D02*
X248687124Y-134382875D01*
X249020458Y-135001922D02*
X249782363Y-135001922D01*
X250258553Y-135382875D02*
X250258553Y-134716208D01*
X250258553Y-134811446D02*
X250306172Y-134763827D01*
X250306172Y-134763827D02*
X250401410Y-134716208D01*
X250401410Y-134716208D02*
X250544267Y-134716208D01*
X250544267Y-134716208D02*
X250639505Y-134763827D01*
X250639505Y-134763827D02*
X250687124Y-134859065D01*
X250687124Y-134859065D02*
X250687124Y-135382875D01*
X250687124Y-134859065D02*
X250734743Y-134763827D01*
X250734743Y-134763827D02*
X250829981Y-134716208D01*
X250829981Y-134716208D02*
X250972838Y-134716208D01*
X250972838Y-134716208D02*
X251068077Y-134763827D01*
X251068077Y-134763827D02*
X251115696Y-134859065D01*
X251115696Y-134859065D02*
X251115696Y-135382875D01*
X252020457Y-135382875D02*
X252020457Y-134859065D01*
X252020457Y-134859065D02*
X251972838Y-134763827D01*
X251972838Y-134763827D02*
X251877600Y-134716208D01*
X251877600Y-134716208D02*
X251687124Y-134716208D01*
X251687124Y-134716208D02*
X251591886Y-134763827D01*
X252020457Y-135335256D02*
X251925219Y-135382875D01*
X251925219Y-135382875D02*
X251687124Y-135382875D01*
X251687124Y-135382875D02*
X251591886Y-135335256D01*
X251591886Y-135335256D02*
X251544267Y-135240017D01*
X251544267Y-135240017D02*
X251544267Y-135144779D01*
X251544267Y-135144779D02*
X251591886Y-135049541D01*
X251591886Y-135049541D02*
X251687124Y-135001922D01*
X251687124Y-135001922D02*
X251925219Y-135001922D01*
X251925219Y-135001922D02*
X252020457Y-134954303D01*
X252353791Y-134716208D02*
X252734743Y-134716208D01*
X252496648Y-134382875D02*
X252496648Y-135240017D01*
X252496648Y-135240017D02*
X252544267Y-135335256D01*
X252544267Y-135335256D02*
X252639505Y-135382875D01*
X252639505Y-135382875D02*
X252734743Y-135382875D01*
X253068077Y-135382875D02*
X253068077Y-134716208D01*
X253068077Y-134382875D02*
X253020458Y-134430494D01*
X253020458Y-134430494D02*
X253068077Y-134478113D01*
X253068077Y-134478113D02*
X253115696Y-134430494D01*
X253115696Y-134430494D02*
X253068077Y-134382875D01*
X253068077Y-134382875D02*
X253068077Y-134478113D01*
X253972838Y-135335256D02*
X253877600Y-135382875D01*
X253877600Y-135382875D02*
X253687124Y-135382875D01*
X253687124Y-135382875D02*
X253591886Y-135335256D01*
X253591886Y-135335256D02*
X253544267Y-135287636D01*
X253544267Y-135287636D02*
X253496648Y-135192398D01*
X253496648Y-135192398D02*
X253496648Y-134906684D01*
X253496648Y-134906684D02*
X253544267Y-134811446D01*
X253544267Y-134811446D02*
X253591886Y-134763827D01*
X253591886Y-134763827D02*
X253687124Y-134716208D01*
X253687124Y-134716208D02*
X253877600Y-134716208D01*
X253877600Y-134716208D02*
X253972838Y-134763827D01*
X255163315Y-135382875D02*
X255163315Y-134382875D01*
X255163315Y-134382875D02*
X255544267Y-134382875D01*
X255544267Y-134382875D02*
X255639505Y-134430494D01*
X255639505Y-134430494D02*
X255687124Y-134478113D01*
X255687124Y-134478113D02*
X255734743Y-134573351D01*
X255734743Y-134573351D02*
X255734743Y-134716208D01*
X255734743Y-134716208D02*
X255687124Y-134811446D01*
X255687124Y-134811446D02*
X255639505Y-134859065D01*
X255639505Y-134859065D02*
X255544267Y-134906684D01*
X255544267Y-134906684D02*
X255163315Y-134906684D01*
X256163315Y-135382875D02*
X256163315Y-134716208D01*
X256163315Y-134382875D02*
X256115696Y-134430494D01*
X256115696Y-134430494D02*
X256163315Y-134478113D01*
X256163315Y-134478113D02*
X256210934Y-134430494D01*
X256210934Y-134430494D02*
X256163315Y-134382875D01*
X256163315Y-134382875D02*
X256163315Y-134478113D01*
X257401410Y-135382875D02*
X257401410Y-134382875D01*
X257401410Y-134382875D02*
X257782362Y-134382875D01*
X257782362Y-134382875D02*
X257877600Y-134430494D01*
X257877600Y-134430494D02*
X257925219Y-134478113D01*
X257925219Y-134478113D02*
X257972838Y-134573351D01*
X257972838Y-134573351D02*
X257972838Y-134716208D01*
X257972838Y-134716208D02*
X257925219Y-134811446D01*
X257925219Y-134811446D02*
X257877600Y-134859065D01*
X257877600Y-134859065D02*
X257782362Y-134906684D01*
X257782362Y-134906684D02*
X257401410Y-134906684D01*
X258544267Y-135382875D02*
X258449029Y-135335256D01*
X258449029Y-135335256D02*
X258401410Y-135287636D01*
X258401410Y-135287636D02*
X258353791Y-135192398D01*
X258353791Y-135192398D02*
X258353791Y-134906684D01*
X258353791Y-134906684D02*
X258401410Y-134811446D01*
X258401410Y-134811446D02*
X258449029Y-134763827D01*
X258449029Y-134763827D02*
X258544267Y-134716208D01*
X258544267Y-134716208D02*
X258687124Y-134716208D01*
X258687124Y-134716208D02*
X258782362Y-134763827D01*
X258782362Y-134763827D02*
X258829981Y-134811446D01*
X258829981Y-134811446D02*
X258877600Y-134906684D01*
X258877600Y-134906684D02*
X258877600Y-135192398D01*
X258877600Y-135192398D02*
X258829981Y-135287636D01*
X258829981Y-135287636D02*
X258782362Y-135335256D01*
X258782362Y-135335256D02*
X258687124Y-135382875D01*
X258687124Y-135382875D02*
X258544267Y-135382875D01*
X259210934Y-134716208D02*
X259401410Y-135382875D01*
X259401410Y-135382875D02*
X259591886Y-134906684D01*
X259591886Y-134906684D02*
X259782362Y-135382875D01*
X259782362Y-135382875D02*
X259972838Y-134716208D01*
X260734743Y-135335256D02*
X260639505Y-135382875D01*
X260639505Y-135382875D02*
X260449029Y-135382875D01*
X260449029Y-135382875D02*
X260353791Y-135335256D01*
X260353791Y-135335256D02*
X260306172Y-135240017D01*
X260306172Y-135240017D02*
X260306172Y-134859065D01*
X260306172Y-134859065D02*
X260353791Y-134763827D01*
X260353791Y-134763827D02*
X260449029Y-134716208D01*
X260449029Y-134716208D02*
X260639505Y-134716208D01*
X260639505Y-134716208D02*
X260734743Y-134763827D01*
X260734743Y-134763827D02*
X260782362Y-134859065D01*
X260782362Y-134859065D02*
X260782362Y-134954303D01*
X260782362Y-134954303D02*
X260306172Y-135049541D01*
X261210934Y-135382875D02*
X261210934Y-134716208D01*
X261210934Y-134906684D02*
X261258553Y-134811446D01*
X261258553Y-134811446D02*
X261306172Y-134763827D01*
X261306172Y-134763827D02*
X261401410Y-134716208D01*
X261401410Y-134716208D02*
X261496648Y-134716208D01*
X262449030Y-134382875D02*
X262782363Y-135382875D01*
X262782363Y-135382875D02*
X263115696Y-134382875D01*
X263877601Y-134716208D02*
X263877601Y-135382875D01*
X263639506Y-134335256D02*
X263401411Y-135049541D01*
X263401411Y-135049541D02*
X264020458Y-135049541D01*
X255687124Y-136992819D02*
X255353791Y-136516628D01*
X255115696Y-136992819D02*
X255115696Y-135992819D01*
X255115696Y-135992819D02*
X255496648Y-135992819D01*
X255496648Y-135992819D02*
X255591886Y-136040438D01*
X255591886Y-136040438D02*
X255639505Y-136088057D01*
X255639505Y-136088057D02*
X255687124Y-136183295D01*
X255687124Y-136183295D02*
X255687124Y-136326152D01*
X255687124Y-136326152D02*
X255639505Y-136421390D01*
X255639505Y-136421390D02*
X255591886Y-136469009D01*
X255591886Y-136469009D02*
X255496648Y-136516628D01*
X255496648Y-136516628D02*
X255115696Y-136516628D01*
X256115696Y-136992819D02*
X256115696Y-136326152D01*
X256115696Y-135992819D02*
X256068077Y-136040438D01*
X256068077Y-136040438D02*
X256115696Y-136088057D01*
X256115696Y-136088057D02*
X256163315Y-136040438D01*
X256163315Y-136040438D02*
X256115696Y-135992819D01*
X256115696Y-135992819D02*
X256115696Y-136088057D01*
X256734743Y-136992819D02*
X256639505Y-136945200D01*
X256639505Y-136945200D02*
X256591886Y-136849961D01*
X256591886Y-136849961D02*
X256591886Y-135992819D01*
X257496648Y-136945200D02*
X257401410Y-136992819D01*
X257401410Y-136992819D02*
X257210934Y-136992819D01*
X257210934Y-136992819D02*
X257115696Y-136945200D01*
X257115696Y-136945200D02*
X257068077Y-136849961D01*
X257068077Y-136849961D02*
X257068077Y-136469009D01*
X257068077Y-136469009D02*
X257115696Y-136373771D01*
X257115696Y-136373771D02*
X257210934Y-136326152D01*
X257210934Y-136326152D02*
X257401410Y-136326152D01*
X257401410Y-136326152D02*
X257496648Y-136373771D01*
X257496648Y-136373771D02*
X257544267Y-136469009D01*
X257544267Y-136469009D02*
X257544267Y-136564247D01*
X257544267Y-136564247D02*
X257068077Y-136659485D01*
X257877601Y-136326152D02*
X258115696Y-136992819D01*
X258353791Y-136326152D02*
X258115696Y-136992819D01*
X258115696Y-136992819D02*
X258020458Y-137230914D01*
X258020458Y-137230914D02*
X257972839Y-137278533D01*
X257972839Y-137278533D02*
X257877601Y-137326152D01*
X260068077Y-136992819D02*
X259734744Y-136516628D01*
X259496649Y-136992819D02*
X259496649Y-135992819D01*
X259496649Y-135992819D02*
X259877601Y-135992819D01*
X259877601Y-135992819D02*
X259972839Y-136040438D01*
X259972839Y-136040438D02*
X260020458Y-136088057D01*
X260020458Y-136088057D02*
X260068077Y-136183295D01*
X260068077Y-136183295D02*
X260068077Y-136326152D01*
X260068077Y-136326152D02*
X260020458Y-136421390D01*
X260020458Y-136421390D02*
X259972839Y-136469009D01*
X259972839Y-136469009D02*
X259877601Y-136516628D01*
X259877601Y-136516628D02*
X259496649Y-136516628D01*
X260925220Y-136992819D02*
X260925220Y-136469009D01*
X260925220Y-136469009D02*
X260877601Y-136373771D01*
X260877601Y-136373771D02*
X260782363Y-136326152D01*
X260782363Y-136326152D02*
X260591887Y-136326152D01*
X260591887Y-136326152D02*
X260496649Y-136373771D01*
X260925220Y-136945200D02*
X260829982Y-136992819D01*
X260829982Y-136992819D02*
X260591887Y-136992819D01*
X260591887Y-136992819D02*
X260496649Y-136945200D01*
X260496649Y-136945200D02*
X260449030Y-136849961D01*
X260449030Y-136849961D02*
X260449030Y-136754723D01*
X260449030Y-136754723D02*
X260496649Y-136659485D01*
X260496649Y-136659485D02*
X260591887Y-136611866D01*
X260591887Y-136611866D02*
X260829982Y-136611866D01*
X260829982Y-136611866D02*
X260925220Y-136564247D01*
X261401411Y-136992819D02*
X261401411Y-136326152D01*
X261401411Y-135992819D02*
X261353792Y-136040438D01*
X261353792Y-136040438D02*
X261401411Y-136088057D01*
X261401411Y-136088057D02*
X261449030Y-136040438D01*
X261449030Y-136040438D02*
X261401411Y-135992819D01*
X261401411Y-135992819D02*
X261401411Y-136088057D01*
X261877601Y-136326152D02*
X261877601Y-136992819D01*
X261877601Y-136421390D02*
X261925220Y-136373771D01*
X261925220Y-136373771D02*
X262020458Y-136326152D01*
X262020458Y-136326152D02*
X262163315Y-136326152D01*
X262163315Y-136326152D02*
X262258553Y-136373771D01*
X262258553Y-136373771D02*
X262306172Y-136469009D01*
X262306172Y-136469009D02*
X262306172Y-136992819D01*
X263163315Y-136945200D02*
X263068077Y-136992819D01*
X263068077Y-136992819D02*
X262877601Y-136992819D01*
X262877601Y-136992819D02*
X262782363Y-136945200D01*
X262782363Y-136945200D02*
X262734744Y-136849961D01*
X262734744Y-136849961D02*
X262734744Y-136469009D01*
X262734744Y-136469009D02*
X262782363Y-136373771D01*
X262782363Y-136373771D02*
X262877601Y-136326152D01*
X262877601Y-136326152D02*
X263068077Y-136326152D01*
X263068077Y-136326152D02*
X263163315Y-136373771D01*
X263163315Y-136373771D02*
X263210934Y-136469009D01*
X263210934Y-136469009D02*
X263210934Y-136564247D01*
X263210934Y-136564247D02*
X262734744Y-136659485D01*
X263544268Y-136326152D02*
X263782363Y-136992819D01*
X264020458Y-136326152D02*
X263782363Y-136992819D01*
X263782363Y-136992819D02*
X263687125Y-137230914D01*
X263687125Y-137230914D02*
X263639506Y-137278533D01*
X263639506Y-137278533D02*
X263544268Y-137326152D01*
X235449029Y-138602763D02*
X235449029Y-137602763D01*
X235877600Y-138602763D02*
X235877600Y-138078953D01*
X235877600Y-138078953D02*
X235829981Y-137983715D01*
X235829981Y-137983715D02*
X235734743Y-137936096D01*
X235734743Y-137936096D02*
X235591886Y-137936096D01*
X235591886Y-137936096D02*
X235496648Y-137983715D01*
X235496648Y-137983715D02*
X235449029Y-138031334D01*
X236210934Y-137936096D02*
X236591886Y-137936096D01*
X236353791Y-137602763D02*
X236353791Y-138459905D01*
X236353791Y-138459905D02*
X236401410Y-138555144D01*
X236401410Y-138555144D02*
X236496648Y-138602763D01*
X236496648Y-138602763D02*
X236591886Y-138602763D01*
X236782363Y-137936096D02*
X237163315Y-137936096D01*
X236925220Y-137602763D02*
X236925220Y-138459905D01*
X236925220Y-138459905D02*
X236972839Y-138555144D01*
X236972839Y-138555144D02*
X237068077Y-138602763D01*
X237068077Y-138602763D02*
X237163315Y-138602763D01*
X237496649Y-137936096D02*
X237496649Y-138936096D01*
X237496649Y-137983715D02*
X237591887Y-137936096D01*
X237591887Y-137936096D02*
X237782363Y-137936096D01*
X237782363Y-137936096D02*
X237877601Y-137983715D01*
X237877601Y-137983715D02*
X237925220Y-138031334D01*
X237925220Y-138031334D02*
X237972839Y-138126572D01*
X237972839Y-138126572D02*
X237972839Y-138412286D01*
X237972839Y-138412286D02*
X237925220Y-138507524D01*
X237925220Y-138507524D02*
X237877601Y-138555144D01*
X237877601Y-138555144D02*
X237782363Y-138602763D01*
X237782363Y-138602763D02*
X237591887Y-138602763D01*
X237591887Y-138602763D02*
X237496649Y-138555144D01*
X238353792Y-138555144D02*
X238449030Y-138602763D01*
X238449030Y-138602763D02*
X238639506Y-138602763D01*
X238639506Y-138602763D02*
X238734744Y-138555144D01*
X238734744Y-138555144D02*
X238782363Y-138459905D01*
X238782363Y-138459905D02*
X238782363Y-138412286D01*
X238782363Y-138412286D02*
X238734744Y-138317048D01*
X238734744Y-138317048D02*
X238639506Y-138269429D01*
X238639506Y-138269429D02*
X238496649Y-138269429D01*
X238496649Y-138269429D02*
X238401411Y-138221810D01*
X238401411Y-138221810D02*
X238353792Y-138126572D01*
X238353792Y-138126572D02*
X238353792Y-138078953D01*
X238353792Y-138078953D02*
X238401411Y-137983715D01*
X238401411Y-137983715D02*
X238496649Y-137936096D01*
X238496649Y-137936096D02*
X238639506Y-137936096D01*
X238639506Y-137936096D02*
X238734744Y-137983715D01*
X239210935Y-138507524D02*
X239258554Y-138555144D01*
X239258554Y-138555144D02*
X239210935Y-138602763D01*
X239210935Y-138602763D02*
X239163316Y-138555144D01*
X239163316Y-138555144D02*
X239210935Y-138507524D01*
X239210935Y-138507524D02*
X239210935Y-138602763D01*
X239210935Y-137983715D02*
X239258554Y-138031334D01*
X239258554Y-138031334D02*
X239210935Y-138078953D01*
X239210935Y-138078953D02*
X239163316Y-138031334D01*
X239163316Y-138031334D02*
X239210935Y-137983715D01*
X239210935Y-137983715D02*
X239210935Y-138078953D01*
X240401410Y-137555144D02*
X239544268Y-138840858D01*
X241449029Y-137555144D02*
X240591887Y-138840858D01*
X242210934Y-137936096D02*
X242210934Y-138745620D01*
X242210934Y-138745620D02*
X242163315Y-138840858D01*
X242163315Y-138840858D02*
X242115696Y-138888477D01*
X242115696Y-138888477D02*
X242020458Y-138936096D01*
X242020458Y-138936096D02*
X241877601Y-138936096D01*
X241877601Y-138936096D02*
X241782363Y-138888477D01*
X242210934Y-138555144D02*
X242115696Y-138602763D01*
X242115696Y-138602763D02*
X241925220Y-138602763D01*
X241925220Y-138602763D02*
X241829982Y-138555144D01*
X241829982Y-138555144D02*
X241782363Y-138507524D01*
X241782363Y-138507524D02*
X241734744Y-138412286D01*
X241734744Y-138412286D02*
X241734744Y-138126572D01*
X241734744Y-138126572D02*
X241782363Y-138031334D01*
X241782363Y-138031334D02*
X241829982Y-137983715D01*
X241829982Y-137983715D02*
X241925220Y-137936096D01*
X241925220Y-137936096D02*
X242115696Y-137936096D01*
X242115696Y-137936096D02*
X242210934Y-137983715D01*
X242687125Y-138602763D02*
X242687125Y-137936096D01*
X242687125Y-137602763D02*
X242639506Y-137650382D01*
X242639506Y-137650382D02*
X242687125Y-137698001D01*
X242687125Y-137698001D02*
X242734744Y-137650382D01*
X242734744Y-137650382D02*
X242687125Y-137602763D01*
X242687125Y-137602763D02*
X242687125Y-137698001D01*
X243020458Y-137936096D02*
X243401410Y-137936096D01*
X243163315Y-137602763D02*
X243163315Y-138459905D01*
X243163315Y-138459905D02*
X243210934Y-138555144D01*
X243210934Y-138555144D02*
X243306172Y-138602763D01*
X243306172Y-138602763D02*
X243401410Y-138602763D01*
X243734744Y-138602763D02*
X243734744Y-137602763D01*
X244163315Y-138602763D02*
X244163315Y-138078953D01*
X244163315Y-138078953D02*
X244115696Y-137983715D01*
X244115696Y-137983715D02*
X244020458Y-137936096D01*
X244020458Y-137936096D02*
X243877601Y-137936096D01*
X243877601Y-137936096D02*
X243782363Y-137983715D01*
X243782363Y-137983715D02*
X243734744Y-138031334D01*
X245068077Y-137936096D02*
X245068077Y-138602763D01*
X244639506Y-137936096D02*
X244639506Y-138459905D01*
X244639506Y-138459905D02*
X244687125Y-138555144D01*
X244687125Y-138555144D02*
X244782363Y-138602763D01*
X244782363Y-138602763D02*
X244925220Y-138602763D01*
X244925220Y-138602763D02*
X245020458Y-138555144D01*
X245020458Y-138555144D02*
X245068077Y-138507524D01*
X245544268Y-138602763D02*
X245544268Y-137602763D01*
X245544268Y-137983715D02*
X245639506Y-137936096D01*
X245639506Y-137936096D02*
X245829982Y-137936096D01*
X245829982Y-137936096D02*
X245925220Y-137983715D01*
X245925220Y-137983715D02*
X245972839Y-138031334D01*
X245972839Y-138031334D02*
X246020458Y-138126572D01*
X246020458Y-138126572D02*
X246020458Y-138412286D01*
X246020458Y-138412286D02*
X245972839Y-138507524D01*
X245972839Y-138507524D02*
X245925220Y-138555144D01*
X245925220Y-138555144D02*
X245829982Y-138602763D01*
X245829982Y-138602763D02*
X245639506Y-138602763D01*
X245639506Y-138602763D02*
X245544268Y-138555144D01*
X246449030Y-138507524D02*
X246496649Y-138555144D01*
X246496649Y-138555144D02*
X246449030Y-138602763D01*
X246449030Y-138602763D02*
X246401411Y-138555144D01*
X246401411Y-138555144D02*
X246449030Y-138507524D01*
X246449030Y-138507524D02*
X246449030Y-138602763D01*
X247353791Y-138555144D02*
X247258553Y-138602763D01*
X247258553Y-138602763D02*
X247068077Y-138602763D01*
X247068077Y-138602763D02*
X246972839Y-138555144D01*
X246972839Y-138555144D02*
X246925220Y-138507524D01*
X246925220Y-138507524D02*
X246877601Y-138412286D01*
X246877601Y-138412286D02*
X246877601Y-138126572D01*
X246877601Y-138126572D02*
X246925220Y-138031334D01*
X246925220Y-138031334D02*
X246972839Y-137983715D01*
X246972839Y-137983715D02*
X247068077Y-137936096D01*
X247068077Y-137936096D02*
X247258553Y-137936096D01*
X247258553Y-137936096D02*
X247353791Y-137983715D01*
X247925220Y-138602763D02*
X247829982Y-138555144D01*
X247829982Y-138555144D02*
X247782363Y-138507524D01*
X247782363Y-138507524D02*
X247734744Y-138412286D01*
X247734744Y-138412286D02*
X247734744Y-138126572D01*
X247734744Y-138126572D02*
X247782363Y-138031334D01*
X247782363Y-138031334D02*
X247829982Y-137983715D01*
X247829982Y-137983715D02*
X247925220Y-137936096D01*
X247925220Y-137936096D02*
X248068077Y-137936096D01*
X248068077Y-137936096D02*
X248163315Y-137983715D01*
X248163315Y-137983715D02*
X248210934Y-138031334D01*
X248210934Y-138031334D02*
X248258553Y-138126572D01*
X248258553Y-138126572D02*
X248258553Y-138412286D01*
X248258553Y-138412286D02*
X248210934Y-138507524D01*
X248210934Y-138507524D02*
X248163315Y-138555144D01*
X248163315Y-138555144D02*
X248068077Y-138602763D01*
X248068077Y-138602763D02*
X247925220Y-138602763D01*
X248687125Y-138602763D02*
X248687125Y-137936096D01*
X248687125Y-138031334D02*
X248734744Y-137983715D01*
X248734744Y-137983715D02*
X248829982Y-137936096D01*
X248829982Y-137936096D02*
X248972839Y-137936096D01*
X248972839Y-137936096D02*
X249068077Y-137983715D01*
X249068077Y-137983715D02*
X249115696Y-138078953D01*
X249115696Y-138078953D02*
X249115696Y-138602763D01*
X249115696Y-138078953D02*
X249163315Y-137983715D01*
X249163315Y-137983715D02*
X249258553Y-137936096D01*
X249258553Y-137936096D02*
X249401410Y-137936096D01*
X249401410Y-137936096D02*
X249496649Y-137983715D01*
X249496649Y-137983715D02*
X249544268Y-138078953D01*
X249544268Y-138078953D02*
X249544268Y-138602763D01*
X250734743Y-137555144D02*
X249877601Y-138840858D01*
X251068077Y-138602763D02*
X251068077Y-137936096D01*
X251068077Y-138126572D02*
X251115696Y-138031334D01*
X251115696Y-138031334D02*
X251163315Y-137983715D01*
X251163315Y-137983715D02*
X251258553Y-137936096D01*
X251258553Y-137936096D02*
X251353791Y-137936096D01*
X251687125Y-138602763D02*
X251687125Y-137936096D01*
X251687125Y-138126572D02*
X251734744Y-138031334D01*
X251734744Y-138031334D02*
X251782363Y-137983715D01*
X251782363Y-137983715D02*
X251877601Y-137936096D01*
X251877601Y-137936096D02*
X251972839Y-137936096D01*
X252734744Y-138602763D02*
X252734744Y-138078953D01*
X252734744Y-138078953D02*
X252687125Y-137983715D01*
X252687125Y-137983715D02*
X252591887Y-137936096D01*
X252591887Y-137936096D02*
X252401411Y-137936096D01*
X252401411Y-137936096D02*
X252306173Y-137983715D01*
X252734744Y-138555144D02*
X252639506Y-138602763D01*
X252639506Y-138602763D02*
X252401411Y-138602763D01*
X252401411Y-138602763D02*
X252306173Y-138555144D01*
X252306173Y-138555144D02*
X252258554Y-138459905D01*
X252258554Y-138459905D02*
X252258554Y-138364667D01*
X252258554Y-138364667D02*
X252306173Y-138269429D01*
X252306173Y-138269429D02*
X252401411Y-138221810D01*
X252401411Y-138221810D02*
X252639506Y-138221810D01*
X252639506Y-138221810D02*
X252734744Y-138174191D01*
X253210935Y-138602763D02*
X253210935Y-137936096D01*
X253210935Y-137602763D02*
X253163316Y-137650382D01*
X253163316Y-137650382D02*
X253210935Y-137698001D01*
X253210935Y-137698001D02*
X253258554Y-137650382D01*
X253258554Y-137650382D02*
X253210935Y-137602763D01*
X253210935Y-137602763D02*
X253210935Y-137698001D01*
X253687125Y-137936096D02*
X253687125Y-138602763D01*
X253687125Y-138031334D02*
X253734744Y-137983715D01*
X253734744Y-137983715D02*
X253829982Y-137936096D01*
X253829982Y-137936096D02*
X253972839Y-137936096D01*
X253972839Y-137936096D02*
X254068077Y-137983715D01*
X254068077Y-137983715D02*
X254115696Y-138078953D01*
X254115696Y-138078953D02*
X254115696Y-138602763D01*
X254972839Y-138555144D02*
X254877601Y-138602763D01*
X254877601Y-138602763D02*
X254687125Y-138602763D01*
X254687125Y-138602763D02*
X254591887Y-138555144D01*
X254591887Y-138555144D02*
X254544268Y-138459905D01*
X254544268Y-138459905D02*
X254544268Y-138078953D01*
X254544268Y-138078953D02*
X254591887Y-137983715D01*
X254591887Y-137983715D02*
X254687125Y-137936096D01*
X254687125Y-137936096D02*
X254877601Y-137936096D01*
X254877601Y-137936096D02*
X254972839Y-137983715D01*
X254972839Y-137983715D02*
X255020458Y-138078953D01*
X255020458Y-138078953D02*
X255020458Y-138174191D01*
X255020458Y-138174191D02*
X254544268Y-138269429D01*
X255353792Y-137936096D02*
X255591887Y-138602763D01*
X255829982Y-137936096D02*
X255591887Y-138602763D01*
X255591887Y-138602763D02*
X255496649Y-138840858D01*
X255496649Y-138840858D02*
X255449030Y-138888477D01*
X255449030Y-138888477D02*
X255353792Y-138936096D01*
X256925220Y-137555144D02*
X256068078Y-138840858D01*
X257258554Y-138602763D02*
X257258554Y-137602763D01*
X257258554Y-137602763D02*
X257639506Y-137602763D01*
X257639506Y-137602763D02*
X257734744Y-137650382D01*
X257734744Y-137650382D02*
X257782363Y-137698001D01*
X257782363Y-137698001D02*
X257829982Y-137793239D01*
X257829982Y-137793239D02*
X257829982Y-137936096D01*
X257829982Y-137936096D02*
X257782363Y-138031334D01*
X257782363Y-138031334D02*
X257734744Y-138078953D01*
X257734744Y-138078953D02*
X257639506Y-138126572D01*
X257639506Y-138126572D02*
X257258554Y-138126572D01*
X258258554Y-138602763D02*
X258258554Y-137936096D01*
X258258554Y-137602763D02*
X258210935Y-137650382D01*
X258210935Y-137650382D02*
X258258554Y-137698001D01*
X258258554Y-137698001D02*
X258306173Y-137650382D01*
X258306173Y-137650382D02*
X258258554Y-137602763D01*
X258258554Y-137602763D02*
X258258554Y-137698001D01*
X258734744Y-138221810D02*
X259496649Y-138221810D01*
X259972839Y-138602763D02*
X259972839Y-137602763D01*
X259972839Y-137602763D02*
X260353791Y-137602763D01*
X260353791Y-137602763D02*
X260449029Y-137650382D01*
X260449029Y-137650382D02*
X260496648Y-137698001D01*
X260496648Y-137698001D02*
X260544267Y-137793239D01*
X260544267Y-137793239D02*
X260544267Y-137936096D01*
X260544267Y-137936096D02*
X260496648Y-138031334D01*
X260496648Y-138031334D02*
X260449029Y-138078953D01*
X260449029Y-138078953D02*
X260353791Y-138126572D01*
X260353791Y-138126572D02*
X259972839Y-138126572D01*
X261115696Y-138602763D02*
X261020458Y-138555144D01*
X261020458Y-138555144D02*
X260972839Y-138507524D01*
X260972839Y-138507524D02*
X260925220Y-138412286D01*
X260925220Y-138412286D02*
X260925220Y-138126572D01*
X260925220Y-138126572D02*
X260972839Y-138031334D01*
X260972839Y-138031334D02*
X261020458Y-137983715D01*
X261020458Y-137983715D02*
X261115696Y-137936096D01*
X261115696Y-137936096D02*
X261258553Y-137936096D01*
X261258553Y-137936096D02*
X261353791Y-137983715D01*
X261353791Y-137983715D02*
X261401410Y-138031334D01*
X261401410Y-138031334D02*
X261449029Y-138126572D01*
X261449029Y-138126572D02*
X261449029Y-138412286D01*
X261449029Y-138412286D02*
X261401410Y-138507524D01*
X261401410Y-138507524D02*
X261353791Y-138555144D01*
X261353791Y-138555144D02*
X261258553Y-138602763D01*
X261258553Y-138602763D02*
X261115696Y-138602763D01*
X261782363Y-137936096D02*
X261972839Y-138602763D01*
X261972839Y-138602763D02*
X262163315Y-138126572D01*
X262163315Y-138126572D02*
X262353791Y-138602763D01*
X262353791Y-138602763D02*
X262544267Y-137936096D01*
X263306172Y-138555144D02*
X263210934Y-138602763D01*
X263210934Y-138602763D02*
X263020458Y-138602763D01*
X263020458Y-138602763D02*
X262925220Y-138555144D01*
X262925220Y-138555144D02*
X262877601Y-138459905D01*
X262877601Y-138459905D02*
X262877601Y-138078953D01*
X262877601Y-138078953D02*
X262925220Y-137983715D01*
X262925220Y-137983715D02*
X263020458Y-137936096D01*
X263020458Y-137936096D02*
X263210934Y-137936096D01*
X263210934Y-137936096D02*
X263306172Y-137983715D01*
X263306172Y-137983715D02*
X263353791Y-138078953D01*
X263353791Y-138078953D02*
X263353791Y-138174191D01*
X263353791Y-138174191D02*
X262877601Y-138269429D01*
X263782363Y-138602763D02*
X263782363Y-137936096D01*
X263782363Y-138126572D02*
X263829982Y-138031334D01*
X263829982Y-138031334D02*
X263877601Y-137983715D01*
X263877601Y-137983715D02*
X263972839Y-137936096D01*
X263972839Y-137936096D02*
X264068077Y-137936096D01*
X252059523Y-141104819D02*
X251583333Y-141104819D01*
X251583333Y-141104819D02*
X251535714Y-141581009D01*
X251535714Y-141581009D02*
X251583333Y-141533390D01*
X251583333Y-141533390D02*
X251678571Y-141485771D01*
X251678571Y-141485771D02*
X251916666Y-141485771D01*
X251916666Y-141485771D02*
X252011904Y-141533390D01*
X252011904Y-141533390D02*
X252059523Y-141581009D01*
X252059523Y-141581009D02*
X252107142Y-141676247D01*
X252107142Y-141676247D02*
X252107142Y-141914342D01*
X252107142Y-141914342D02*
X252059523Y-142009580D01*
X252059523Y-142009580D02*
X252011904Y-142057200D01*
X252011904Y-142057200D02*
X251916666Y-142104819D01*
X251916666Y-142104819D02*
X251678571Y-142104819D01*
X251678571Y-142104819D02*
X251583333Y-142057200D01*
X251583333Y-142057200D02*
X251535714Y-142009580D01*
X252392857Y-141104819D02*
X252726190Y-142104819D01*
X252726190Y-142104819D02*
X253059523Y-141104819D01*
D13*
X240753572Y-102854600D02*
X240896429Y-102902219D01*
X240896429Y-102902219D02*
X241134524Y-102902219D01*
X241134524Y-102902219D02*
X241229762Y-102854600D01*
X241229762Y-102854600D02*
X241277381Y-102806980D01*
X241277381Y-102806980D02*
X241325000Y-102711742D01*
X241325000Y-102711742D02*
X241325000Y-102616504D01*
X241325000Y-102616504D02*
X241277381Y-102521266D01*
X241277381Y-102521266D02*
X241229762Y-102473647D01*
X241229762Y-102473647D02*
X241134524Y-102426028D01*
X241134524Y-102426028D02*
X240944048Y-102378409D01*
X240944048Y-102378409D02*
X240848810Y-102330790D01*
X240848810Y-102330790D02*
X240801191Y-102283171D01*
X240801191Y-102283171D02*
X240753572Y-102187933D01*
X240753572Y-102187933D02*
X240753572Y-102092695D01*
X240753572Y-102092695D02*
X240801191Y-101997457D01*
X240801191Y-101997457D02*
X240848810Y-101949838D01*
X240848810Y-101949838D02*
X240944048Y-101902219D01*
X240944048Y-101902219D02*
X241182143Y-101902219D01*
X241182143Y-101902219D02*
X241325000Y-101949838D01*
X241753572Y-102902219D02*
X241753572Y-101902219D01*
X241753572Y-101902219D02*
X242134524Y-101902219D01*
X242134524Y-101902219D02*
X242229762Y-101949838D01*
X242229762Y-101949838D02*
X242277381Y-101997457D01*
X242277381Y-101997457D02*
X242325000Y-102092695D01*
X242325000Y-102092695D02*
X242325000Y-102235552D01*
X242325000Y-102235552D02*
X242277381Y-102330790D01*
X242277381Y-102330790D02*
X242229762Y-102378409D01*
X242229762Y-102378409D02*
X242134524Y-102426028D01*
X242134524Y-102426028D02*
X241753572Y-102426028D01*
X242753572Y-102902219D02*
X242753572Y-101902219D01*
X243420238Y-101902219D02*
X243515476Y-101902219D01*
X243515476Y-101902219D02*
X243610714Y-101949838D01*
X243610714Y-101949838D02*
X243658333Y-101997457D01*
X243658333Y-101997457D02*
X243705952Y-102092695D01*
X243705952Y-102092695D02*
X243753571Y-102283171D01*
X243753571Y-102283171D02*
X243753571Y-102521266D01*
X243753571Y-102521266D02*
X243705952Y-102711742D01*
X243705952Y-102711742D02*
X243658333Y-102806980D01*
X243658333Y-102806980D02*
X243610714Y-102854600D01*
X243610714Y-102854600D02*
X243515476Y-102902219D01*
X243515476Y-102902219D02*
X243420238Y-102902219D01*
X243420238Y-102902219D02*
X243325000Y-102854600D01*
X243325000Y-102854600D02*
X243277381Y-102806980D01*
X243277381Y-102806980D02*
X243229762Y-102711742D01*
X243229762Y-102711742D02*
X243182143Y-102521266D01*
X243182143Y-102521266D02*
X243182143Y-102283171D01*
X243182143Y-102283171D02*
X243229762Y-102092695D01*
X243229762Y-102092695D02*
X243277381Y-101997457D01*
X243277381Y-101997457D02*
X243325000Y-101949838D01*
X243325000Y-101949838D02*
X243420238Y-101902219D01*
X244182143Y-102521266D02*
X244944048Y-102521266D01*
X245991666Y-102806980D02*
X245944047Y-102854600D01*
X245944047Y-102854600D02*
X245801190Y-102902219D01*
X245801190Y-102902219D02*
X245705952Y-102902219D01*
X245705952Y-102902219D02*
X245563095Y-102854600D01*
X245563095Y-102854600D02*
X245467857Y-102759361D01*
X245467857Y-102759361D02*
X245420238Y-102664123D01*
X245420238Y-102664123D02*
X245372619Y-102473647D01*
X245372619Y-102473647D02*
X245372619Y-102330790D01*
X245372619Y-102330790D02*
X245420238Y-102140314D01*
X245420238Y-102140314D02*
X245467857Y-102045076D01*
X245467857Y-102045076D02*
X245563095Y-101949838D01*
X245563095Y-101949838D02*
X245705952Y-101902219D01*
X245705952Y-101902219D02*
X245801190Y-101902219D01*
X245801190Y-101902219D02*
X245944047Y-101949838D01*
X245944047Y-101949838D02*
X245991666Y-101997457D01*
X246372619Y-102854600D02*
X246515476Y-102902219D01*
X246515476Y-102902219D02*
X246753571Y-102902219D01*
X246753571Y-102902219D02*
X246848809Y-102854600D01*
X246848809Y-102854600D02*
X246896428Y-102806980D01*
X246896428Y-102806980D02*
X246944047Y-102711742D01*
X246944047Y-102711742D02*
X246944047Y-102616504D01*
X246944047Y-102616504D02*
X246896428Y-102521266D01*
X246896428Y-102521266D02*
X246848809Y-102473647D01*
X246848809Y-102473647D02*
X246753571Y-102426028D01*
X246753571Y-102426028D02*
X246563095Y-102378409D01*
X246563095Y-102378409D02*
X246467857Y-102330790D01*
X246467857Y-102330790D02*
X246420238Y-102283171D01*
X246420238Y-102283171D02*
X246372619Y-102187933D01*
X246372619Y-102187933D02*
X246372619Y-102092695D01*
X246372619Y-102092695D02*
X246420238Y-101997457D01*
X246420238Y-101997457D02*
X246467857Y-101949838D01*
X246467857Y-101949838D02*
X246563095Y-101902219D01*
X246563095Y-101902219D02*
X246801190Y-101902219D01*
X246801190Y-101902219D02*
X246944047Y-101949838D01*
X247563095Y-101902219D02*
X247658333Y-101902219D01*
X247658333Y-101902219D02*
X247753571Y-101949838D01*
X247753571Y-101949838D02*
X247801190Y-101997457D01*
X247801190Y-101997457D02*
X247848809Y-102092695D01*
X247848809Y-102092695D02*
X247896428Y-102283171D01*
X247896428Y-102283171D02*
X247896428Y-102521266D01*
X247896428Y-102521266D02*
X247848809Y-102711742D01*
X247848809Y-102711742D02*
X247801190Y-102806980D01*
X247801190Y-102806980D02*
X247753571Y-102854600D01*
X247753571Y-102854600D02*
X247658333Y-102902219D01*
X247658333Y-102902219D02*
X247563095Y-102902219D01*
X247563095Y-102902219D02*
X247467857Y-102854600D01*
X247467857Y-102854600D02*
X247420238Y-102806980D01*
X247420238Y-102806980D02*
X247372619Y-102711742D01*
X247372619Y-102711742D02*
X247325000Y-102521266D01*
X247325000Y-102521266D02*
X247325000Y-102283171D01*
X247325000Y-102283171D02*
X247372619Y-102092695D01*
X247372619Y-102092695D02*
X247420238Y-101997457D01*
X247420238Y-101997457D02*
X247467857Y-101949838D01*
X247467857Y-101949838D02*
X247563095Y-101902219D01*
D10*
X228666666Y-101904819D02*
X228666666Y-102619104D01*
X228666666Y-102619104D02*
X228619047Y-102761961D01*
X228619047Y-102761961D02*
X228523809Y-102857200D01*
X228523809Y-102857200D02*
X228380952Y-102904819D01*
X228380952Y-102904819D02*
X228285714Y-102904819D01*
X229619047Y-101904819D02*
X229142857Y-101904819D01*
X229142857Y-101904819D02*
X229095238Y-102381009D01*
X229095238Y-102381009D02*
X229142857Y-102333390D01*
X229142857Y-102333390D02*
X229238095Y-102285771D01*
X229238095Y-102285771D02*
X229476190Y-102285771D01*
X229476190Y-102285771D02*
X229571428Y-102333390D01*
X229571428Y-102333390D02*
X229619047Y-102381009D01*
X229619047Y-102381009D02*
X229666666Y-102476247D01*
X229666666Y-102476247D02*
X229666666Y-102714342D01*
X229666666Y-102714342D02*
X229619047Y-102809580D01*
X229619047Y-102809580D02*
X229571428Y-102857200D01*
X229571428Y-102857200D02*
X229476190Y-102904819D01*
X229476190Y-102904819D02*
X229238095Y-102904819D01*
X229238095Y-102904819D02*
X229142857Y-102857200D01*
X229142857Y-102857200D02*
X229095238Y-102809580D01*
X228691666Y-105579819D02*
X228691666Y-106294104D01*
X228691666Y-106294104D02*
X228644047Y-106436961D01*
X228644047Y-106436961D02*
X228548809Y-106532200D01*
X228548809Y-106532200D02*
X228405952Y-106579819D01*
X228405952Y-106579819D02*
X228310714Y-106579819D01*
X229596428Y-105579819D02*
X229405952Y-105579819D01*
X229405952Y-105579819D02*
X229310714Y-105627438D01*
X229310714Y-105627438D02*
X229263095Y-105675057D01*
X229263095Y-105675057D02*
X229167857Y-105817914D01*
X229167857Y-105817914D02*
X229120238Y-106008390D01*
X229120238Y-106008390D02*
X229120238Y-106389342D01*
X229120238Y-106389342D02*
X229167857Y-106484580D01*
X229167857Y-106484580D02*
X229215476Y-106532200D01*
X229215476Y-106532200D02*
X229310714Y-106579819D01*
X229310714Y-106579819D02*
X229501190Y-106579819D01*
X229501190Y-106579819D02*
X229596428Y-106532200D01*
X229596428Y-106532200D02*
X229644047Y-106484580D01*
X229644047Y-106484580D02*
X229691666Y-106389342D01*
X229691666Y-106389342D02*
X229691666Y-106151247D01*
X229691666Y-106151247D02*
X229644047Y-106056009D01*
X229644047Y-106056009D02*
X229596428Y-106008390D01*
X229596428Y-106008390D02*
X229501190Y-105960771D01*
X229501190Y-105960771D02*
X229310714Y-105960771D01*
X229310714Y-105960771D02*
X229215476Y-106008390D01*
X229215476Y-106008390D02*
X229167857Y-106056009D01*
X229167857Y-106056009D02*
X229120238Y-106151247D01*
X213934580Y-111016666D02*
X213982200Y-111064285D01*
X213982200Y-111064285D02*
X214029819Y-111207142D01*
X214029819Y-111207142D02*
X214029819Y-111302380D01*
X214029819Y-111302380D02*
X213982200Y-111445237D01*
X213982200Y-111445237D02*
X213886961Y-111540475D01*
X213886961Y-111540475D02*
X213791723Y-111588094D01*
X213791723Y-111588094D02*
X213601247Y-111635713D01*
X213601247Y-111635713D02*
X213458390Y-111635713D01*
X213458390Y-111635713D02*
X213267914Y-111588094D01*
X213267914Y-111588094D02*
X213172676Y-111540475D01*
X213172676Y-111540475D02*
X213077438Y-111445237D01*
X213077438Y-111445237D02*
X213029819Y-111302380D01*
X213029819Y-111302380D02*
X213029819Y-111207142D01*
X213029819Y-111207142D02*
X213077438Y-111064285D01*
X213077438Y-111064285D02*
X213125057Y-111016666D01*
X213029819Y-110111904D02*
X213029819Y-110588094D01*
X213029819Y-110588094D02*
X213506009Y-110635713D01*
X213506009Y-110635713D02*
X213458390Y-110588094D01*
X213458390Y-110588094D02*
X213410771Y-110492856D01*
X213410771Y-110492856D02*
X213410771Y-110254761D01*
X213410771Y-110254761D02*
X213458390Y-110159523D01*
X213458390Y-110159523D02*
X213506009Y-110111904D01*
X213506009Y-110111904D02*
X213601247Y-110064285D01*
X213601247Y-110064285D02*
X213839342Y-110064285D01*
X213839342Y-110064285D02*
X213934580Y-110111904D01*
X213934580Y-110111904D02*
X213982200Y-110159523D01*
X213982200Y-110159523D02*
X214029819Y-110254761D01*
X214029819Y-110254761D02*
X214029819Y-110492856D01*
X214029819Y-110492856D02*
X213982200Y-110588094D01*
X213982200Y-110588094D02*
X213934580Y-110635713D01*
X217108333Y-127684580D02*
X217060714Y-127732200D01*
X217060714Y-127732200D02*
X216917857Y-127779819D01*
X216917857Y-127779819D02*
X216822619Y-127779819D01*
X216822619Y-127779819D02*
X216679762Y-127732200D01*
X216679762Y-127732200D02*
X216584524Y-127636961D01*
X216584524Y-127636961D02*
X216536905Y-127541723D01*
X216536905Y-127541723D02*
X216489286Y-127351247D01*
X216489286Y-127351247D02*
X216489286Y-127208390D01*
X216489286Y-127208390D02*
X216536905Y-127017914D01*
X216536905Y-127017914D02*
X216584524Y-126922676D01*
X216584524Y-126922676D02*
X216679762Y-126827438D01*
X216679762Y-126827438D02*
X216822619Y-126779819D01*
X216822619Y-126779819D02*
X216917857Y-126779819D01*
X216917857Y-126779819D02*
X217060714Y-126827438D01*
X217060714Y-126827438D02*
X217108333Y-126875057D01*
X217441667Y-126779819D02*
X218060714Y-126779819D01*
X218060714Y-126779819D02*
X217727381Y-127160771D01*
X217727381Y-127160771D02*
X217870238Y-127160771D01*
X217870238Y-127160771D02*
X217965476Y-127208390D01*
X217965476Y-127208390D02*
X218013095Y-127256009D01*
X218013095Y-127256009D02*
X218060714Y-127351247D01*
X218060714Y-127351247D02*
X218060714Y-127589342D01*
X218060714Y-127589342D02*
X218013095Y-127684580D01*
X218013095Y-127684580D02*
X217965476Y-127732200D01*
X217965476Y-127732200D02*
X217870238Y-127779819D01*
X217870238Y-127779819D02*
X217584524Y-127779819D01*
X217584524Y-127779819D02*
X217489286Y-127732200D01*
X217489286Y-127732200D02*
X217441667Y-127684580D01*
X219663580Y-125782666D02*
X219711200Y-125830285D01*
X219711200Y-125830285D02*
X219758819Y-125973142D01*
X219758819Y-125973142D02*
X219758819Y-126068380D01*
X219758819Y-126068380D02*
X219711200Y-126211237D01*
X219711200Y-126211237D02*
X219615961Y-126306475D01*
X219615961Y-126306475D02*
X219520723Y-126354094D01*
X219520723Y-126354094D02*
X219330247Y-126401713D01*
X219330247Y-126401713D02*
X219187390Y-126401713D01*
X219187390Y-126401713D02*
X218996914Y-126354094D01*
X218996914Y-126354094D02*
X218901676Y-126306475D01*
X218901676Y-126306475D02*
X218806438Y-126211237D01*
X218806438Y-126211237D02*
X218758819Y-126068380D01*
X218758819Y-126068380D02*
X218758819Y-125973142D01*
X218758819Y-125973142D02*
X218806438Y-125830285D01*
X218806438Y-125830285D02*
X218854057Y-125782666D01*
X219758819Y-124830285D02*
X219758819Y-125401713D01*
X219758819Y-125115999D02*
X218758819Y-125115999D01*
X218758819Y-125115999D02*
X218901676Y-125211237D01*
X218901676Y-125211237D02*
X218996914Y-125306475D01*
X218996914Y-125306475D02*
X219044533Y-125401713D01*
X244283333Y-127753580D02*
X244235714Y-127801200D01*
X244235714Y-127801200D02*
X244092857Y-127848819D01*
X244092857Y-127848819D02*
X243997619Y-127848819D01*
X243997619Y-127848819D02*
X243854762Y-127801200D01*
X243854762Y-127801200D02*
X243759524Y-127705961D01*
X243759524Y-127705961D02*
X243711905Y-127610723D01*
X243711905Y-127610723D02*
X243664286Y-127420247D01*
X243664286Y-127420247D02*
X243664286Y-127277390D01*
X243664286Y-127277390D02*
X243711905Y-127086914D01*
X243711905Y-127086914D02*
X243759524Y-126991676D01*
X243759524Y-126991676D02*
X243854762Y-126896438D01*
X243854762Y-126896438D02*
X243997619Y-126848819D01*
X243997619Y-126848819D02*
X244092857Y-126848819D01*
X244092857Y-126848819D02*
X244235714Y-126896438D01*
X244235714Y-126896438D02*
X244283333Y-126944057D01*
X244854762Y-127277390D02*
X244759524Y-127229771D01*
X244759524Y-127229771D02*
X244711905Y-127182152D01*
X244711905Y-127182152D02*
X244664286Y-127086914D01*
X244664286Y-127086914D02*
X244664286Y-127039295D01*
X244664286Y-127039295D02*
X244711905Y-126944057D01*
X244711905Y-126944057D02*
X244759524Y-126896438D01*
X244759524Y-126896438D02*
X244854762Y-126848819D01*
X244854762Y-126848819D02*
X245045238Y-126848819D01*
X245045238Y-126848819D02*
X245140476Y-126896438D01*
X245140476Y-126896438D02*
X245188095Y-126944057D01*
X245188095Y-126944057D02*
X245235714Y-127039295D01*
X245235714Y-127039295D02*
X245235714Y-127086914D01*
X245235714Y-127086914D02*
X245188095Y-127182152D01*
X245188095Y-127182152D02*
X245140476Y-127229771D01*
X245140476Y-127229771D02*
X245045238Y-127277390D01*
X245045238Y-127277390D02*
X244854762Y-127277390D01*
X244854762Y-127277390D02*
X244759524Y-127325009D01*
X244759524Y-127325009D02*
X244711905Y-127372628D01*
X244711905Y-127372628D02*
X244664286Y-127467866D01*
X244664286Y-127467866D02*
X244664286Y-127658342D01*
X244664286Y-127658342D02*
X244711905Y-127753580D01*
X244711905Y-127753580D02*
X244759524Y-127801200D01*
X244759524Y-127801200D02*
X244854762Y-127848819D01*
X244854762Y-127848819D02*
X245045238Y-127848819D01*
X245045238Y-127848819D02*
X245140476Y-127801200D01*
X245140476Y-127801200D02*
X245188095Y-127753580D01*
X245188095Y-127753580D02*
X245235714Y-127658342D01*
X245235714Y-127658342D02*
X245235714Y-127467866D01*
X245235714Y-127467866D02*
X245188095Y-127372628D01*
X245188095Y-127372628D02*
X245140476Y-127325009D01*
X245140476Y-127325009D02*
X245045238Y-127277390D01*
X246841580Y-126036666D02*
X246889200Y-126084285D01*
X246889200Y-126084285D02*
X246936819Y-126227142D01*
X246936819Y-126227142D02*
X246936819Y-126322380D01*
X246936819Y-126322380D02*
X246889200Y-126465237D01*
X246889200Y-126465237D02*
X246793961Y-126560475D01*
X246793961Y-126560475D02*
X246698723Y-126608094D01*
X246698723Y-126608094D02*
X246508247Y-126655713D01*
X246508247Y-126655713D02*
X246365390Y-126655713D01*
X246365390Y-126655713D02*
X246174914Y-126608094D01*
X246174914Y-126608094D02*
X246079676Y-126560475D01*
X246079676Y-126560475D02*
X245984438Y-126465237D01*
X245984438Y-126465237D02*
X245936819Y-126322380D01*
X245936819Y-126322380D02*
X245936819Y-126227142D01*
X245936819Y-126227142D02*
X245984438Y-126084285D01*
X245984438Y-126084285D02*
X246032057Y-126036666D01*
X245936819Y-125179523D02*
X245936819Y-125369999D01*
X245936819Y-125369999D02*
X245984438Y-125465237D01*
X245984438Y-125465237D02*
X246032057Y-125512856D01*
X246032057Y-125512856D02*
X246174914Y-125608094D01*
X246174914Y-125608094D02*
X246365390Y-125655713D01*
X246365390Y-125655713D02*
X246746342Y-125655713D01*
X246746342Y-125655713D02*
X246841580Y-125608094D01*
X246841580Y-125608094D02*
X246889200Y-125560475D01*
X246889200Y-125560475D02*
X246936819Y-125465237D01*
X246936819Y-125465237D02*
X246936819Y-125274761D01*
X246936819Y-125274761D02*
X246889200Y-125179523D01*
X246889200Y-125179523D02*
X246841580Y-125131904D01*
X246841580Y-125131904D02*
X246746342Y-125084285D01*
X246746342Y-125084285D02*
X246508247Y-125084285D01*
X246508247Y-125084285D02*
X246413009Y-125131904D01*
X246413009Y-125131904D02*
X246365390Y-125179523D01*
X246365390Y-125179523D02*
X246317771Y-125274761D01*
X246317771Y-125274761D02*
X246317771Y-125465237D01*
X246317771Y-125465237D02*
X246365390Y-125560475D01*
X246365390Y-125560475D02*
X246413009Y-125608094D01*
X246413009Y-125608094D02*
X246508247Y-125655713D01*
X241761580Y-111272857D02*
X241809200Y-111320476D01*
X241809200Y-111320476D02*
X241856819Y-111463333D01*
X241856819Y-111463333D02*
X241856819Y-111558571D01*
X241856819Y-111558571D02*
X241809200Y-111701428D01*
X241809200Y-111701428D02*
X241713961Y-111796666D01*
X241713961Y-111796666D02*
X241618723Y-111844285D01*
X241618723Y-111844285D02*
X241428247Y-111891904D01*
X241428247Y-111891904D02*
X241285390Y-111891904D01*
X241285390Y-111891904D02*
X241094914Y-111844285D01*
X241094914Y-111844285D02*
X240999676Y-111796666D01*
X240999676Y-111796666D02*
X240904438Y-111701428D01*
X240904438Y-111701428D02*
X240856819Y-111558571D01*
X240856819Y-111558571D02*
X240856819Y-111463333D01*
X240856819Y-111463333D02*
X240904438Y-111320476D01*
X240904438Y-111320476D02*
X240952057Y-111272857D01*
X241856819Y-110320476D02*
X241856819Y-110891904D01*
X241856819Y-110606190D02*
X240856819Y-110606190D01*
X240856819Y-110606190D02*
X240999676Y-110701428D01*
X240999676Y-110701428D02*
X241094914Y-110796666D01*
X241094914Y-110796666D02*
X241142533Y-110891904D01*
X240856819Y-109701428D02*
X240856819Y-109606190D01*
X240856819Y-109606190D02*
X240904438Y-109510952D01*
X240904438Y-109510952D02*
X240952057Y-109463333D01*
X240952057Y-109463333D02*
X241047295Y-109415714D01*
X241047295Y-109415714D02*
X241237771Y-109368095D01*
X241237771Y-109368095D02*
X241475866Y-109368095D01*
X241475866Y-109368095D02*
X241666342Y-109415714D01*
X241666342Y-109415714D02*
X241761580Y-109463333D01*
X241761580Y-109463333D02*
X241809200Y-109510952D01*
X241809200Y-109510952D02*
X241856819Y-109606190D01*
X241856819Y-109606190D02*
X241856819Y-109701428D01*
X241856819Y-109701428D02*
X241809200Y-109796666D01*
X241809200Y-109796666D02*
X241761580Y-109844285D01*
X241761580Y-109844285D02*
X241666342Y-109891904D01*
X241666342Y-109891904D02*
X241475866Y-109939523D01*
X241475866Y-109939523D02*
X241237771Y-109939523D01*
X241237771Y-109939523D02*
X241047295Y-109891904D01*
X241047295Y-109891904D02*
X240952057Y-109844285D01*
X240952057Y-109844285D02*
X240904438Y-109796666D01*
X240904438Y-109796666D02*
X240856819Y-109701428D01*
X209586833Y-126324819D02*
X209253500Y-125848628D01*
X209015405Y-126324819D02*
X209015405Y-125324819D01*
X209015405Y-125324819D02*
X209396357Y-125324819D01*
X209396357Y-125324819D02*
X209491595Y-125372438D01*
X209491595Y-125372438D02*
X209539214Y-125420057D01*
X209539214Y-125420057D02*
X209586833Y-125515295D01*
X209586833Y-125515295D02*
X209586833Y-125658152D01*
X209586833Y-125658152D02*
X209539214Y-125753390D01*
X209539214Y-125753390D02*
X209491595Y-125801009D01*
X209491595Y-125801009D02*
X209396357Y-125848628D01*
X209396357Y-125848628D02*
X209015405Y-125848628D01*
X209920167Y-125324819D02*
X210539214Y-125324819D01*
X210539214Y-125324819D02*
X210205881Y-125705771D01*
X210205881Y-125705771D02*
X210348738Y-125705771D01*
X210348738Y-125705771D02*
X210443976Y-125753390D01*
X210443976Y-125753390D02*
X210491595Y-125801009D01*
X210491595Y-125801009D02*
X210539214Y-125896247D01*
X210539214Y-125896247D02*
X210539214Y-126134342D01*
X210539214Y-126134342D02*
X210491595Y-126229580D01*
X210491595Y-126229580D02*
X210443976Y-126277200D01*
X210443976Y-126277200D02*
X210348738Y-126324819D01*
X210348738Y-126324819D02*
X210063024Y-126324819D01*
X210063024Y-126324819D02*
X209967786Y-126277200D01*
X209967786Y-126277200D02*
X209920167Y-126229580D01*
X210614819Y-112574666D02*
X210138628Y-112907999D01*
X210614819Y-113146094D02*
X209614819Y-113146094D01*
X209614819Y-113146094D02*
X209614819Y-112765142D01*
X209614819Y-112765142D02*
X209662438Y-112669904D01*
X209662438Y-112669904D02*
X209710057Y-112622285D01*
X209710057Y-112622285D02*
X209805295Y-112574666D01*
X209805295Y-112574666D02*
X209948152Y-112574666D01*
X209948152Y-112574666D02*
X210043390Y-112622285D01*
X210043390Y-112622285D02*
X210091009Y-112669904D01*
X210091009Y-112669904D02*
X210138628Y-112765142D01*
X210138628Y-112765142D02*
X210138628Y-113146094D01*
X209710057Y-112193713D02*
X209662438Y-112146094D01*
X209662438Y-112146094D02*
X209614819Y-112050856D01*
X209614819Y-112050856D02*
X209614819Y-111812761D01*
X209614819Y-111812761D02*
X209662438Y-111717523D01*
X209662438Y-111717523D02*
X209710057Y-111669904D01*
X209710057Y-111669904D02*
X209805295Y-111622285D01*
X209805295Y-111622285D02*
X209900533Y-111622285D01*
X209900533Y-111622285D02*
X210043390Y-111669904D01*
X210043390Y-111669904D02*
X210614819Y-112241332D01*
X210614819Y-112241332D02*
X210614819Y-111622285D01*
X212392819Y-111050666D02*
X211916628Y-111383999D01*
X212392819Y-111622094D02*
X211392819Y-111622094D01*
X211392819Y-111622094D02*
X211392819Y-111241142D01*
X211392819Y-111241142D02*
X211440438Y-111145904D01*
X211440438Y-111145904D02*
X211488057Y-111098285D01*
X211488057Y-111098285D02*
X211583295Y-111050666D01*
X211583295Y-111050666D02*
X211726152Y-111050666D01*
X211726152Y-111050666D02*
X211821390Y-111098285D01*
X211821390Y-111098285D02*
X211869009Y-111145904D01*
X211869009Y-111145904D02*
X211916628Y-111241142D01*
X211916628Y-111241142D02*
X211916628Y-111622094D01*
X211726152Y-110193523D02*
X212392819Y-110193523D01*
X211345200Y-110431618D02*
X212059485Y-110669713D01*
X212059485Y-110669713D02*
X212059485Y-110050666D01*
X207707333Y-114734819D02*
X207374000Y-114258628D01*
X207135905Y-114734819D02*
X207135905Y-113734819D01*
X207135905Y-113734819D02*
X207516857Y-113734819D01*
X207516857Y-113734819D02*
X207612095Y-113782438D01*
X207612095Y-113782438D02*
X207659714Y-113830057D01*
X207659714Y-113830057D02*
X207707333Y-113925295D01*
X207707333Y-113925295D02*
X207707333Y-114068152D01*
X207707333Y-114068152D02*
X207659714Y-114163390D01*
X207659714Y-114163390D02*
X207612095Y-114211009D01*
X207612095Y-114211009D02*
X207516857Y-114258628D01*
X207516857Y-114258628D02*
X207135905Y-114258628D01*
X208659714Y-114734819D02*
X208088286Y-114734819D01*
X208374000Y-114734819D02*
X208374000Y-113734819D01*
X208374000Y-113734819D02*
X208278762Y-113877676D01*
X208278762Y-113877676D02*
X208183524Y-113972914D01*
X208183524Y-113972914D02*
X208088286Y-114020533D01*
X236409333Y-126324819D02*
X236076000Y-125848628D01*
X235837905Y-126324819D02*
X235837905Y-125324819D01*
X235837905Y-125324819D02*
X236218857Y-125324819D01*
X236218857Y-125324819D02*
X236314095Y-125372438D01*
X236314095Y-125372438D02*
X236361714Y-125420057D01*
X236361714Y-125420057D02*
X236409333Y-125515295D01*
X236409333Y-125515295D02*
X236409333Y-125658152D01*
X236409333Y-125658152D02*
X236361714Y-125753390D01*
X236361714Y-125753390D02*
X236314095Y-125801009D01*
X236314095Y-125801009D02*
X236218857Y-125848628D01*
X236218857Y-125848628D02*
X235837905Y-125848628D01*
X236742667Y-125324819D02*
X237409333Y-125324819D01*
X237409333Y-125324819D02*
X236980762Y-126324819D01*
X238046819Y-113082666D02*
X237570628Y-113415999D01*
X238046819Y-113654094D02*
X237046819Y-113654094D01*
X237046819Y-113654094D02*
X237046819Y-113273142D01*
X237046819Y-113273142D02*
X237094438Y-113177904D01*
X237094438Y-113177904D02*
X237142057Y-113130285D01*
X237142057Y-113130285D02*
X237237295Y-113082666D01*
X237237295Y-113082666D02*
X237380152Y-113082666D01*
X237380152Y-113082666D02*
X237475390Y-113130285D01*
X237475390Y-113130285D02*
X237523009Y-113177904D01*
X237523009Y-113177904D02*
X237570628Y-113273142D01*
X237570628Y-113273142D02*
X237570628Y-113654094D01*
X237046819Y-112225523D02*
X237046819Y-112415999D01*
X237046819Y-112415999D02*
X237094438Y-112511237D01*
X237094438Y-112511237D02*
X237142057Y-112558856D01*
X237142057Y-112558856D02*
X237284914Y-112654094D01*
X237284914Y-112654094D02*
X237475390Y-112701713D01*
X237475390Y-112701713D02*
X237856342Y-112701713D01*
X237856342Y-112701713D02*
X237951580Y-112654094D01*
X237951580Y-112654094D02*
X237999200Y-112606475D01*
X237999200Y-112606475D02*
X238046819Y-112511237D01*
X238046819Y-112511237D02*
X238046819Y-112320761D01*
X238046819Y-112320761D02*
X237999200Y-112225523D01*
X237999200Y-112225523D02*
X237951580Y-112177904D01*
X237951580Y-112177904D02*
X237856342Y-112130285D01*
X237856342Y-112130285D02*
X237618247Y-112130285D01*
X237618247Y-112130285D02*
X237523009Y-112177904D01*
X237523009Y-112177904D02*
X237475390Y-112225523D01*
X237475390Y-112225523D02*
X237427771Y-112320761D01*
X237427771Y-112320761D02*
X237427771Y-112511237D01*
X237427771Y-112511237D02*
X237475390Y-112606475D01*
X237475390Y-112606475D02*
X237523009Y-112654094D01*
X237523009Y-112654094D02*
X237618247Y-112701713D01*
X235139333Y-114988819D02*
X234806000Y-114512628D01*
X234567905Y-114988819D02*
X234567905Y-113988819D01*
X234567905Y-113988819D02*
X234948857Y-113988819D01*
X234948857Y-113988819D02*
X235044095Y-114036438D01*
X235044095Y-114036438D02*
X235091714Y-114084057D01*
X235091714Y-114084057D02*
X235139333Y-114179295D01*
X235139333Y-114179295D02*
X235139333Y-114322152D01*
X235139333Y-114322152D02*
X235091714Y-114417390D01*
X235091714Y-114417390D02*
X235044095Y-114465009D01*
X235044095Y-114465009D02*
X234948857Y-114512628D01*
X234948857Y-114512628D02*
X234567905Y-114512628D01*
X236044095Y-113988819D02*
X235567905Y-113988819D01*
X235567905Y-113988819D02*
X235520286Y-114465009D01*
X235520286Y-114465009D02*
X235567905Y-114417390D01*
X235567905Y-114417390D02*
X235663143Y-114369771D01*
X235663143Y-114369771D02*
X235901238Y-114369771D01*
X235901238Y-114369771D02*
X235996476Y-114417390D01*
X235996476Y-114417390D02*
X236044095Y-114465009D01*
X236044095Y-114465009D02*
X236091714Y-114560247D01*
X236091714Y-114560247D02*
X236091714Y-114798342D01*
X236091714Y-114798342D02*
X236044095Y-114893580D01*
X236044095Y-114893580D02*
X235996476Y-114941200D01*
X235996476Y-114941200D02*
X235901238Y-114988819D01*
X235901238Y-114988819D02*
X235663143Y-114988819D01*
X235663143Y-114988819D02*
X235567905Y-114941200D01*
X235567905Y-114941200D02*
X235520286Y-114893580D01*
X240332819Y-111304666D02*
X239856628Y-111637999D01*
X240332819Y-111876094D02*
X239332819Y-111876094D01*
X239332819Y-111876094D02*
X239332819Y-111495142D01*
X239332819Y-111495142D02*
X239380438Y-111399904D01*
X239380438Y-111399904D02*
X239428057Y-111352285D01*
X239428057Y-111352285D02*
X239523295Y-111304666D01*
X239523295Y-111304666D02*
X239666152Y-111304666D01*
X239666152Y-111304666D02*
X239761390Y-111352285D01*
X239761390Y-111352285D02*
X239809009Y-111399904D01*
X239809009Y-111399904D02*
X239856628Y-111495142D01*
X239856628Y-111495142D02*
X239856628Y-111876094D01*
X239761390Y-110733237D02*
X239713771Y-110828475D01*
X239713771Y-110828475D02*
X239666152Y-110876094D01*
X239666152Y-110876094D02*
X239570914Y-110923713D01*
X239570914Y-110923713D02*
X239523295Y-110923713D01*
X239523295Y-110923713D02*
X239428057Y-110876094D01*
X239428057Y-110876094D02*
X239380438Y-110828475D01*
X239380438Y-110828475D02*
X239332819Y-110733237D01*
X239332819Y-110733237D02*
X239332819Y-110542761D01*
X239332819Y-110542761D02*
X239380438Y-110447523D01*
X239380438Y-110447523D02*
X239428057Y-110399904D01*
X239428057Y-110399904D02*
X239523295Y-110352285D01*
X239523295Y-110352285D02*
X239570914Y-110352285D01*
X239570914Y-110352285D02*
X239666152Y-110399904D01*
X239666152Y-110399904D02*
X239713771Y-110447523D01*
X239713771Y-110447523D02*
X239761390Y-110542761D01*
X239761390Y-110542761D02*
X239761390Y-110733237D01*
X239761390Y-110733237D02*
X239809009Y-110828475D01*
X239809009Y-110828475D02*
X239856628Y-110876094D01*
X239856628Y-110876094D02*
X239951866Y-110923713D01*
X239951866Y-110923713D02*
X240142342Y-110923713D01*
X240142342Y-110923713D02*
X240237580Y-110876094D01*
X240237580Y-110876094D02*
X240285200Y-110828475D01*
X240285200Y-110828475D02*
X240332819Y-110733237D01*
X240332819Y-110733237D02*
X240332819Y-110542761D01*
X240332819Y-110542761D02*
X240285200Y-110447523D01*
X240285200Y-110447523D02*
X240237580Y-110399904D01*
X240237580Y-110399904D02*
X240142342Y-110352285D01*
X240142342Y-110352285D02*
X239951866Y-110352285D01*
X239951866Y-110352285D02*
X239856628Y-110399904D01*
X239856628Y-110399904D02*
X239809009Y-110447523D01*
X239809009Y-110447523D02*
X239761390Y-110542761D01*
X202190476Y-101654819D02*
X202190476Y-100654819D01*
X202190476Y-100654819D02*
X202523809Y-101369104D01*
X202523809Y-101369104D02*
X202857142Y-100654819D01*
X202857142Y-100654819D02*
X202857142Y-101654819D01*
X203333333Y-101654819D02*
X203333333Y-100654819D01*
X203904761Y-101654819D02*
X203476190Y-101083390D01*
X203904761Y-100654819D02*
X203333333Y-101226247D01*
X204857142Y-101654819D02*
X204285714Y-101654819D01*
X204571428Y-101654819D02*
X204571428Y-100654819D01*
X204571428Y-100654819D02*
X204476190Y-100797676D01*
X204476190Y-100797676D02*
X204380952Y-100892914D01*
X204380952Y-100892914D02*
X204285714Y-100940533D01*
X223216666Y-135454819D02*
X223216666Y-136169104D01*
X223216666Y-136169104D02*
X223169047Y-136311961D01*
X223169047Y-136311961D02*
X223073809Y-136407200D01*
X223073809Y-136407200D02*
X222930952Y-136454819D01*
X222930952Y-136454819D02*
X222835714Y-136454819D01*
X224216666Y-136454819D02*
X223645238Y-136454819D01*
X223930952Y-136454819D02*
X223930952Y-135454819D01*
X223930952Y-135454819D02*
X223835714Y-135597676D01*
X223835714Y-135597676D02*
X223740476Y-135692914D01*
X223740476Y-135692914D02*
X223645238Y-135740533D01*
X229043333Y-120736819D02*
X228567143Y-120736819D01*
X228567143Y-120736819D02*
X228567143Y-119736819D01*
X229900476Y-120736819D02*
X229329048Y-120736819D01*
X229614762Y-120736819D02*
X229614762Y-119736819D01*
X229614762Y-119736819D02*
X229519524Y-119879676D01*
X229519524Y-119879676D02*
X229424286Y-119974914D01*
X229424286Y-119974914D02*
X229329048Y-120022533D01*
X217888095Y-119654819D02*
X217888095Y-120464342D01*
X217888095Y-120464342D02*
X217935714Y-120559580D01*
X217935714Y-120559580D02*
X217983333Y-120607200D01*
X217983333Y-120607200D02*
X218078571Y-120654819D01*
X218078571Y-120654819D02*
X218269047Y-120654819D01*
X218269047Y-120654819D02*
X218364285Y-120607200D01*
X218364285Y-120607200D02*
X218411904Y-120559580D01*
X218411904Y-120559580D02*
X218459523Y-120464342D01*
X218459523Y-120464342D02*
X218459523Y-119654819D01*
X219459523Y-120654819D02*
X218888095Y-120654819D01*
X219173809Y-120654819D02*
X219173809Y-119654819D01*
X219173809Y-119654819D02*
X219078571Y-119797676D01*
X219078571Y-119797676D02*
X218983333Y-119892914D01*
X218983333Y-119892914D02*
X218888095Y-119940533D01*
X224411905Y-123054819D02*
X224411905Y-122054819D01*
X224411905Y-122054819D02*
X224650000Y-122054819D01*
X224650000Y-122054819D02*
X224792857Y-122102438D01*
X224792857Y-122102438D02*
X224888095Y-122197676D01*
X224888095Y-122197676D02*
X224935714Y-122292914D01*
X224935714Y-122292914D02*
X224983333Y-122483390D01*
X224983333Y-122483390D02*
X224983333Y-122626247D01*
X224983333Y-122626247D02*
X224935714Y-122816723D01*
X224935714Y-122816723D02*
X224888095Y-122911961D01*
X224888095Y-122911961D02*
X224792857Y-123007200D01*
X224792857Y-123007200D02*
X224650000Y-123054819D01*
X224650000Y-123054819D02*
X224411905Y-123054819D01*
X225935714Y-123054819D02*
X225364286Y-123054819D01*
X225650000Y-123054819D02*
X225650000Y-122054819D01*
X225650000Y-122054819D02*
X225554762Y-122197676D01*
X225554762Y-122197676D02*
X225459524Y-122292914D01*
X225459524Y-122292914D02*
X225364286Y-122340533D01*
X216089333Y-135659580D02*
X216041714Y-135707200D01*
X216041714Y-135707200D02*
X215898857Y-135754819D01*
X215898857Y-135754819D02*
X215803619Y-135754819D01*
X215803619Y-135754819D02*
X215660762Y-135707200D01*
X215660762Y-135707200D02*
X215565524Y-135611961D01*
X215565524Y-135611961D02*
X215517905Y-135516723D01*
X215517905Y-135516723D02*
X215470286Y-135326247D01*
X215470286Y-135326247D02*
X215470286Y-135183390D01*
X215470286Y-135183390D02*
X215517905Y-134992914D01*
X215517905Y-134992914D02*
X215565524Y-134897676D01*
X215565524Y-134897676D02*
X215660762Y-134802438D01*
X215660762Y-134802438D02*
X215803619Y-134754819D01*
X215803619Y-134754819D02*
X215898857Y-134754819D01*
X215898857Y-134754819D02*
X216041714Y-134802438D01*
X216041714Y-134802438D02*
X216089333Y-134850057D01*
X216470286Y-134850057D02*
X216517905Y-134802438D01*
X216517905Y-134802438D02*
X216613143Y-134754819D01*
X216613143Y-134754819D02*
X216851238Y-134754819D01*
X216851238Y-134754819D02*
X216946476Y-134802438D01*
X216946476Y-134802438D02*
X216994095Y-134850057D01*
X216994095Y-134850057D02*
X217041714Y-134945295D01*
X217041714Y-134945295D02*
X217041714Y-135040533D01*
X217041714Y-135040533D02*
X216994095Y-135183390D01*
X216994095Y-135183390D02*
X216422667Y-135754819D01*
X216422667Y-135754819D02*
X217041714Y-135754819D01*
X233157580Y-127560666D02*
X233205200Y-127608285D01*
X233205200Y-127608285D02*
X233252819Y-127751142D01*
X233252819Y-127751142D02*
X233252819Y-127846380D01*
X233252819Y-127846380D02*
X233205200Y-127989237D01*
X233205200Y-127989237D02*
X233109961Y-128084475D01*
X233109961Y-128084475D02*
X233014723Y-128132094D01*
X233014723Y-128132094D02*
X232824247Y-128179713D01*
X232824247Y-128179713D02*
X232681390Y-128179713D01*
X232681390Y-128179713D02*
X232490914Y-128132094D01*
X232490914Y-128132094D02*
X232395676Y-128084475D01*
X232395676Y-128084475D02*
X232300438Y-127989237D01*
X232300438Y-127989237D02*
X232252819Y-127846380D01*
X232252819Y-127846380D02*
X232252819Y-127751142D01*
X232252819Y-127751142D02*
X232300438Y-127608285D01*
X232300438Y-127608285D02*
X232348057Y-127560666D01*
X232586152Y-126703523D02*
X233252819Y-126703523D01*
X232205200Y-126941618D02*
X232919485Y-127179713D01*
X232919485Y-127179713D02*
X232919485Y-126560666D01*
X241566666Y-145879819D02*
X241566666Y-146594104D01*
X241566666Y-146594104D02*
X241519047Y-146736961D01*
X241519047Y-146736961D02*
X241423809Y-146832200D01*
X241423809Y-146832200D02*
X241280952Y-146879819D01*
X241280952Y-146879819D02*
X241185714Y-146879819D01*
X242471428Y-146213152D02*
X242471428Y-146879819D01*
X242233333Y-145832200D02*
X241995238Y-146546485D01*
X241995238Y-146546485D02*
X242614285Y-146546485D01*
X221291666Y-101679819D02*
X221291666Y-102394104D01*
X221291666Y-102394104D02*
X221244047Y-102536961D01*
X221244047Y-102536961D02*
X221148809Y-102632200D01*
X221148809Y-102632200D02*
X221005952Y-102679819D01*
X221005952Y-102679819D02*
X220910714Y-102679819D01*
X221672619Y-101679819D02*
X222339285Y-101679819D01*
X222339285Y-101679819D02*
X221910714Y-102679819D01*
X243521333Y-134611580D02*
X243473714Y-134659200D01*
X243473714Y-134659200D02*
X243330857Y-134706819D01*
X243330857Y-134706819D02*
X243235619Y-134706819D01*
X243235619Y-134706819D02*
X243092762Y-134659200D01*
X243092762Y-134659200D02*
X242997524Y-134563961D01*
X242997524Y-134563961D02*
X242949905Y-134468723D01*
X242949905Y-134468723D02*
X242902286Y-134278247D01*
X242902286Y-134278247D02*
X242902286Y-134135390D01*
X242902286Y-134135390D02*
X242949905Y-133944914D01*
X242949905Y-133944914D02*
X242997524Y-133849676D01*
X242997524Y-133849676D02*
X243092762Y-133754438D01*
X243092762Y-133754438D02*
X243235619Y-133706819D01*
X243235619Y-133706819D02*
X243330857Y-133706819D01*
X243330857Y-133706819D02*
X243473714Y-133754438D01*
X243473714Y-133754438D02*
X243521333Y-133802057D01*
X243854667Y-133706819D02*
X244521333Y-133706819D01*
X244521333Y-133706819D02*
X244092762Y-134706819D01*
X259408333Y-123159580D02*
X259360714Y-123207200D01*
X259360714Y-123207200D02*
X259217857Y-123254819D01*
X259217857Y-123254819D02*
X259122619Y-123254819D01*
X259122619Y-123254819D02*
X258979762Y-123207200D01*
X258979762Y-123207200D02*
X258884524Y-123111961D01*
X258884524Y-123111961D02*
X258836905Y-123016723D01*
X258836905Y-123016723D02*
X258789286Y-122826247D01*
X258789286Y-122826247D02*
X258789286Y-122683390D01*
X258789286Y-122683390D02*
X258836905Y-122492914D01*
X258836905Y-122492914D02*
X258884524Y-122397676D01*
X258884524Y-122397676D02*
X258979762Y-122302438D01*
X258979762Y-122302438D02*
X259122619Y-122254819D01*
X259122619Y-122254819D02*
X259217857Y-122254819D01*
X259217857Y-122254819D02*
X259360714Y-122302438D01*
X259360714Y-122302438D02*
X259408333Y-122350057D01*
X259884524Y-123254819D02*
X260075000Y-123254819D01*
X260075000Y-123254819D02*
X260170238Y-123207200D01*
X260170238Y-123207200D02*
X260217857Y-123159580D01*
X260217857Y-123159580D02*
X260313095Y-123016723D01*
X260313095Y-123016723D02*
X260360714Y-122826247D01*
X260360714Y-122826247D02*
X260360714Y-122445295D01*
X260360714Y-122445295D02*
X260313095Y-122350057D01*
X260313095Y-122350057D02*
X260265476Y-122302438D01*
X260265476Y-122302438D02*
X260170238Y-122254819D01*
X260170238Y-122254819D02*
X259979762Y-122254819D01*
X259979762Y-122254819D02*
X259884524Y-122302438D01*
X259884524Y-122302438D02*
X259836905Y-122350057D01*
X259836905Y-122350057D02*
X259789286Y-122445295D01*
X259789286Y-122445295D02*
X259789286Y-122683390D01*
X259789286Y-122683390D02*
X259836905Y-122778628D01*
X259836905Y-122778628D02*
X259884524Y-122826247D01*
X259884524Y-122826247D02*
X259979762Y-122873866D01*
X259979762Y-122873866D02*
X260170238Y-122873866D01*
X260170238Y-122873866D02*
X260265476Y-122826247D01*
X260265476Y-122826247D02*
X260313095Y-122778628D01*
X260313095Y-122778628D02*
X260360714Y-122683390D01*
X251361905Y-122629819D02*
X251361905Y-121629819D01*
X251361905Y-121629819D02*
X251600000Y-121629819D01*
X251600000Y-121629819D02*
X251742857Y-121677438D01*
X251742857Y-121677438D02*
X251838095Y-121772676D01*
X251838095Y-121772676D02*
X251885714Y-121867914D01*
X251885714Y-121867914D02*
X251933333Y-122058390D01*
X251933333Y-122058390D02*
X251933333Y-122201247D01*
X251933333Y-122201247D02*
X251885714Y-122391723D01*
X251885714Y-122391723D02*
X251838095Y-122486961D01*
X251838095Y-122486961D02*
X251742857Y-122582200D01*
X251742857Y-122582200D02*
X251600000Y-122629819D01*
X251600000Y-122629819D02*
X251361905Y-122629819D01*
X252314286Y-121725057D02*
X252361905Y-121677438D01*
X252361905Y-121677438D02*
X252457143Y-121629819D01*
X252457143Y-121629819D02*
X252695238Y-121629819D01*
X252695238Y-121629819D02*
X252790476Y-121677438D01*
X252790476Y-121677438D02*
X252838095Y-121725057D01*
X252838095Y-121725057D02*
X252885714Y-121820295D01*
X252885714Y-121820295D02*
X252885714Y-121915533D01*
X252885714Y-121915533D02*
X252838095Y-122058390D01*
X252838095Y-122058390D02*
X252266667Y-122629819D01*
X252266667Y-122629819D02*
X252885714Y-122629819D01*
X256475333Y-120482819D02*
X255999143Y-120482819D01*
X255999143Y-120482819D02*
X255999143Y-119482819D01*
X256761048Y-119578057D02*
X256808667Y-119530438D01*
X256808667Y-119530438D02*
X256903905Y-119482819D01*
X256903905Y-119482819D02*
X257142000Y-119482819D01*
X257142000Y-119482819D02*
X257237238Y-119530438D01*
X257237238Y-119530438D02*
X257284857Y-119578057D01*
X257284857Y-119578057D02*
X257332476Y-119673295D01*
X257332476Y-119673295D02*
X257332476Y-119768533D01*
X257332476Y-119768533D02*
X257284857Y-119911390D01*
X257284857Y-119911390D02*
X256713429Y-120482819D01*
X256713429Y-120482819D02*
X257332476Y-120482819D01*
X245438095Y-119579819D02*
X245438095Y-120389342D01*
X245438095Y-120389342D02*
X245485714Y-120484580D01*
X245485714Y-120484580D02*
X245533333Y-120532200D01*
X245533333Y-120532200D02*
X245628571Y-120579819D01*
X245628571Y-120579819D02*
X245819047Y-120579819D01*
X245819047Y-120579819D02*
X245914285Y-120532200D01*
X245914285Y-120532200D02*
X245961904Y-120484580D01*
X245961904Y-120484580D02*
X246009523Y-120389342D01*
X246009523Y-120389342D02*
X246009523Y-119579819D01*
X246438095Y-119675057D02*
X246485714Y-119627438D01*
X246485714Y-119627438D02*
X246580952Y-119579819D01*
X246580952Y-119579819D02*
X246819047Y-119579819D01*
X246819047Y-119579819D02*
X246914285Y-119627438D01*
X246914285Y-119627438D02*
X246961904Y-119675057D01*
X246961904Y-119675057D02*
X247009523Y-119770295D01*
X247009523Y-119770295D02*
X247009523Y-119865533D01*
X247009523Y-119865533D02*
X246961904Y-120008390D01*
X246961904Y-120008390D02*
X246390476Y-120579819D01*
X246390476Y-120579819D02*
X247009523Y-120579819D01*
X260118666Y-108008819D02*
X260118666Y-108723104D01*
X260118666Y-108723104D02*
X260071047Y-108865961D01*
X260071047Y-108865961D02*
X259975809Y-108961200D01*
X259975809Y-108961200D02*
X259832952Y-109008819D01*
X259832952Y-109008819D02*
X259737714Y-109008819D01*
X260499619Y-108008819D02*
X261118666Y-108008819D01*
X261118666Y-108008819D02*
X260785333Y-108389771D01*
X260785333Y-108389771D02*
X260928190Y-108389771D01*
X260928190Y-108389771D02*
X261023428Y-108437390D01*
X261023428Y-108437390D02*
X261071047Y-108485009D01*
X261071047Y-108485009D02*
X261118666Y-108580247D01*
X261118666Y-108580247D02*
X261118666Y-108818342D01*
X261118666Y-108818342D02*
X261071047Y-108913580D01*
X261071047Y-108913580D02*
X261023428Y-108961200D01*
X261023428Y-108961200D02*
X260928190Y-109008819D01*
X260928190Y-109008819D02*
X260642476Y-109008819D01*
X260642476Y-109008819D02*
X260547238Y-108961200D01*
X260547238Y-108961200D02*
X260499619Y-108913580D01*
X201166666Y-102954819D02*
X201166666Y-103669104D01*
X201166666Y-103669104D02*
X201119047Y-103811961D01*
X201119047Y-103811961D02*
X201023809Y-103907200D01*
X201023809Y-103907200D02*
X200880952Y-103954819D01*
X200880952Y-103954819D02*
X200785714Y-103954819D01*
X201595238Y-103050057D02*
X201642857Y-103002438D01*
X201642857Y-103002438D02*
X201738095Y-102954819D01*
X201738095Y-102954819D02*
X201976190Y-102954819D01*
X201976190Y-102954819D02*
X202071428Y-103002438D01*
X202071428Y-103002438D02*
X202119047Y-103050057D01*
X202119047Y-103050057D02*
X202166666Y-103145295D01*
X202166666Y-103145295D02*
X202166666Y-103240533D01*
X202166666Y-103240533D02*
X202119047Y-103383390D01*
X202119047Y-103383390D02*
X201547619Y-103954819D01*
X201547619Y-103954819D02*
X202166666Y-103954819D01*
D11*
X229912000Y-103705000D02*
X229912000Y-102375000D01*
X231242000Y-103705000D02*
X229912000Y-103705000D01*
X232512000Y-103705000D02*
X240192000Y-103705000D01*
X232512000Y-103705000D02*
X232512000Y-101045000D01*
X240192000Y-103705000D02*
X240192000Y-101045000D01*
X232512000Y-101045000D02*
X240192000Y-101045000D01*
X229912000Y-107388000D02*
X229912000Y-106058000D01*
X231242000Y-107388000D02*
X229912000Y-107388000D01*
X232512000Y-107388000D02*
X240192000Y-107388000D01*
X232512000Y-107388000D02*
X232512000Y-104728000D01*
X240192000Y-107388000D02*
X240192000Y-104728000D01*
X232512000Y-104728000D02*
X240192000Y-104728000D01*
X213079000Y-113576580D02*
X213079000Y-113295420D01*
X214099000Y-113576580D02*
X214099000Y-113295420D01*
X215607420Y-125360000D02*
X215888580Y-125360000D01*
X215607420Y-126380000D02*
X215888580Y-126380000D01*
X219814000Y-122909920D02*
X219814000Y-123191080D01*
X218794000Y-122909920D02*
X218794000Y-123191080D01*
X243293420Y-125360000D02*
X243574580Y-125360000D01*
X243293420Y-126380000D02*
X243574580Y-126380000D01*
X246992000Y-122909920D02*
X246992000Y-123191080D01*
X245972000Y-122909920D02*
X245972000Y-123191080D01*
X240892000Y-113818580D02*
X240892000Y-113537420D01*
X241912000Y-113818580D02*
X241912000Y-113537420D01*
X212657758Y-126392500D02*
X212183242Y-126392500D01*
X212657758Y-125347500D02*
X212183242Y-125347500D01*
X209637500Y-115185258D02*
X209637500Y-114710742D01*
X210682500Y-115185258D02*
X210682500Y-114710742D01*
X212460500Y-113186742D02*
X212460500Y-113661258D01*
X211415500Y-113186742D02*
X211415500Y-113661258D01*
X207636742Y-115187500D02*
X208111258Y-115187500D01*
X207636742Y-116232500D02*
X208111258Y-116232500D01*
X239353258Y-126392500D02*
X238878742Y-126392500D01*
X239353258Y-125347500D02*
X238878742Y-125347500D01*
X237069500Y-115439258D02*
X237069500Y-114964742D01*
X238114500Y-115439258D02*
X238114500Y-114964742D01*
X235068742Y-115441500D02*
X235543258Y-115441500D01*
X235068742Y-116486500D02*
X235543258Y-116486500D01*
X240400500Y-113440742D02*
X240400500Y-113915258D01*
X239355500Y-113440742D02*
X239355500Y-113915258D01*
X222832000Y-137162000D02*
X225432000Y-137162000D01*
X222832000Y-151862000D02*
X222832000Y-137162000D01*
X229332000Y-137162000D02*
X232032000Y-137162000D01*
X232032000Y-137162000D02*
X232032000Y-139062000D01*
X232032000Y-143062000D02*
X232032000Y-151862000D01*
X232032000Y-151862000D02*
X222832000Y-151862000D01*
X218576000Y-108378000D02*
X229176000Y-108378000D01*
X218576000Y-111578000D02*
X218576000Y-108378000D01*
X218576000Y-118978000D02*
X218576000Y-115778000D01*
X229176000Y-108378000D02*
X229176000Y-111578000D01*
X229176000Y-115778000D02*
X229176000Y-118978000D01*
X229176000Y-118978000D02*
X218576000Y-118978000D01*
X211077500Y-117395000D02*
X211822500Y-117395000D01*
X211077500Y-120155000D02*
X211077500Y-117395000D01*
X211077500Y-120155000D02*
X211077500Y-122915000D01*
X211077500Y-122915000D02*
X211822500Y-122915000D01*
X216752500Y-117395000D02*
X216752500Y-115705000D01*
X217497500Y-117395000D02*
X216752500Y-117395000D01*
X217497500Y-120155000D02*
X217497500Y-117395000D01*
X217497500Y-120155000D02*
X217497500Y-122915000D01*
X217497500Y-122915000D02*
X216752500Y-122915000D01*
D14*
X221203920Y-121889820D02*
X221663660Y-121889820D01*
X221203920Y-121966020D02*
X221203920Y-121889820D01*
X221206000Y-121080000D02*
X221206000Y-121480000D01*
X221206000Y-121080000D02*
X221606000Y-121080000D01*
X221206000Y-125580000D02*
X221206000Y-125180000D01*
X221206000Y-125580000D02*
X221606000Y-125580000D01*
X221663660Y-121889820D02*
X221663660Y-121966020D01*
X221663660Y-121966020D02*
X221203920Y-121966020D01*
X223540720Y-121889820D02*
X223540720Y-121966020D01*
X223540720Y-121966020D02*
X224005540Y-121966020D01*
X224005540Y-121889820D02*
X223540720Y-121889820D01*
X224005540Y-121966020D02*
X224005540Y-121889820D01*
X224006000Y-121080000D02*
X223606000Y-121080000D01*
X224006000Y-121080000D02*
X224006000Y-121480000D01*
X224006000Y-125580000D02*
X223606000Y-125580000D01*
X224006000Y-125580000D02*
X224006000Y-125180000D01*
D11*
X209036000Y-127540000D02*
X209036000Y-129890000D01*
X209036000Y-134360000D02*
X209036000Y-132010000D01*
X214791563Y-127540000D02*
X209036000Y-127540000D01*
X214791563Y-134360000D02*
X209036000Y-134360000D01*
X215856000Y-128604437D02*
X214791563Y-127540000D01*
X215856000Y-128604437D02*
X215856000Y-129890000D01*
X215856000Y-133295563D02*
X214791563Y-134360000D01*
X215856000Y-133295563D02*
X215856000Y-132010000D01*
X225038000Y-125048437D02*
X225038000Y-130804000D01*
X225038000Y-130804000D02*
X227388000Y-130804000D01*
X226102437Y-123984000D02*
X225038000Y-125048437D01*
X226102437Y-123984000D02*
X227388000Y-123984000D01*
X230793563Y-123984000D02*
X229508000Y-123984000D01*
X230793563Y-123984000D02*
X231858000Y-125048437D01*
X231858000Y-125048437D02*
X231858000Y-130804000D01*
X231858000Y-130804000D02*
X229508000Y-130804000D01*
X240580000Y-140288000D02*
X250860000Y-140288000D01*
X240580000Y-142888000D02*
X240580000Y-140288000D01*
X240580000Y-145488000D02*
X240580000Y-144158000D01*
X241910000Y-145488000D02*
X240580000Y-145488000D01*
X243180000Y-142888000D02*
X240580000Y-142888000D01*
X243180000Y-145488000D02*
X243180000Y-142888000D01*
X243180000Y-145488000D02*
X250860000Y-145488000D01*
X250860000Y-145488000D02*
X250860000Y-140288000D01*
X222800000Y-101045000D02*
X228000000Y-101045000D01*
X222800000Y-103645000D02*
X222800000Y-101045000D01*
X222800000Y-106245000D02*
X222800000Y-104915000D01*
X224130000Y-106245000D02*
X222800000Y-106245000D01*
X225400000Y-103645000D02*
X222800000Y-103645000D01*
X225400000Y-106245000D02*
X225400000Y-103645000D01*
X225400000Y-106245000D02*
X228000000Y-106245000D01*
X228000000Y-106245000D02*
X228000000Y-101045000D01*
X235960000Y-127540000D02*
X235960000Y-129890000D01*
X235960000Y-134360000D02*
X235960000Y-132010000D01*
X241715563Y-127540000D02*
X235960000Y-127540000D01*
X241715563Y-134360000D02*
X235960000Y-134360000D01*
X242780000Y-128604437D02*
X241715563Y-127540000D01*
X242780000Y-128604437D02*
X242780000Y-129890000D01*
X242780000Y-133295563D02*
X241715563Y-134360000D01*
X242780000Y-133295563D02*
X242780000Y-132010000D01*
X252470000Y-124540437D02*
X252470000Y-130296000D01*
X252470000Y-130296000D02*
X254820000Y-130296000D01*
X253534437Y-123476000D02*
X252470000Y-124540437D01*
X253534437Y-123476000D02*
X254820000Y-123476000D01*
X258225563Y-123476000D02*
X256940000Y-123476000D01*
X258225563Y-123476000D02*
X259290000Y-124540437D01*
X259290000Y-124540437D02*
X259290000Y-130296000D01*
X259290000Y-130296000D02*
X256940000Y-130296000D01*
D14*
X248127920Y-121889820D02*
X248587660Y-121889820D01*
X248127920Y-121966020D02*
X248127920Y-121889820D01*
X248130000Y-121080000D02*
X248130000Y-121480000D01*
X248130000Y-121080000D02*
X248530000Y-121080000D01*
X248130000Y-125580000D02*
X248130000Y-125180000D01*
X248130000Y-125580000D02*
X248530000Y-125580000D01*
X248587660Y-121889820D02*
X248587660Y-121966020D01*
X248587660Y-121966020D02*
X248127920Y-121966020D01*
X250464720Y-121889820D02*
X250464720Y-121966020D01*
X250464720Y-121966020D02*
X250929540Y-121966020D01*
X250929540Y-121889820D02*
X250464720Y-121889820D01*
X250929540Y-121966020D02*
X250929540Y-121889820D01*
X250930000Y-121080000D02*
X250530000Y-121080000D01*
X250930000Y-121080000D02*
X250930000Y-121480000D01*
X250930000Y-125580000D02*
X250530000Y-125580000D01*
X250930000Y-125580000D02*
X250930000Y-125180000D01*
D11*
X246684000Y-108124000D02*
X257284000Y-108124000D01*
X246684000Y-111324000D02*
X246684000Y-108124000D01*
X246684000Y-118724000D02*
X246684000Y-115524000D01*
X257284000Y-108124000D02*
X257284000Y-111324000D01*
X257284000Y-115524000D02*
X257284000Y-118724000D01*
X257284000Y-118724000D02*
X246684000Y-118724000D01*
X238700000Y-117522000D02*
X239445000Y-117522000D01*
X238700000Y-120282000D02*
X238700000Y-117522000D01*
X238700000Y-120282000D02*
X238700000Y-123042000D01*
X238700000Y-123042000D02*
X239445000Y-123042000D01*
X244375000Y-117522000D02*
X244375000Y-115832000D01*
X245120000Y-117522000D02*
X244375000Y-117522000D01*
X245120000Y-120282000D02*
X245120000Y-117522000D01*
X245120000Y-120282000D02*
X245120000Y-123042000D01*
X245120000Y-123042000D02*
X244375000Y-123042000D01*
X259122000Y-109554000D02*
X260452000Y-109554000D01*
X259122000Y-110884000D02*
X259122000Y-109554000D01*
X259122000Y-112154000D02*
X259122000Y-119834000D01*
X259122000Y-112154000D02*
X261782000Y-112154000D01*
X259122000Y-119834000D02*
X261782000Y-119834000D01*
X261782000Y-112154000D02*
X261782000Y-119834000D01*
D15*
X239228600Y-147640752D02*
X239245948Y-147648334D01*
X239287356Y-147681128D01*
X239322765Y-147728547D01*
X239344664Y-147779151D01*
X239348229Y-147804098D01*
X239336279Y-147838927D01*
X239310067Y-147857357D01*
X239281964Y-147868516D01*
X239269095Y-147870572D01*
X239262829Y-147855649D01*
X239250456Y-147823175D01*
X239245028Y-147808502D01*
X239214590Y-147757744D01*
X239170520Y-147732427D01*
X239114010Y-147733206D01*
X239109825Y-147734203D01*
X239079655Y-147748507D01*
X239057476Y-147776393D01*
X239042327Y-147821287D01*
X239033250Y-147886615D01*
X239029286Y-147975804D01*
X239028914Y-148023261D01*
X239028730Y-148098071D01*
X239027522Y-148149069D01*
X239024309Y-148181471D01*
X239018109Y-148200495D01*
X239007940Y-148211356D01*
X238992819Y-148219272D01*
X238991946Y-148219670D01*
X238962828Y-148231981D01*
X238948403Y-148236514D01*
X238946186Y-148222809D01*
X238944289Y-148184925D01*
X238942847Y-148127715D01*
X238941998Y-148056027D01*
X238941829Y-148003565D01*
X238942692Y-147902047D01*
X238946070Y-147825032D01*
X238953142Y-147768023D01*
X238965088Y-147726526D01*
X238983090Y-147696043D01*
X239008327Y-147672080D01*
X239033247Y-147655355D01*
X239093171Y-147633097D01*
X239162911Y-147628076D01*
X239228600Y-147640752D01*
G36*
X239228600Y-147640752D02*
G01*
X239245948Y-147648334D01*
X239287356Y-147681128D01*
X239322765Y-147728547D01*
X239344664Y-147779151D01*
X239348229Y-147804098D01*
X239336279Y-147838927D01*
X239310067Y-147857357D01*
X239281964Y-147868516D01*
X239269095Y-147870572D01*
X239262829Y-147855649D01*
X239250456Y-147823175D01*
X239245028Y-147808502D01*
X239214590Y-147757744D01*
X239170520Y-147732427D01*
X239114010Y-147733206D01*
X239109825Y-147734203D01*
X239079655Y-147748507D01*
X239057476Y-147776393D01*
X239042327Y-147821287D01*
X239033250Y-147886615D01*
X239029286Y-147975804D01*
X239028914Y-148023261D01*
X239028730Y-148098071D01*
X239027522Y-148149069D01*
X239024309Y-148181471D01*
X239018109Y-148200495D01*
X239007940Y-148211356D01*
X238992819Y-148219272D01*
X238991946Y-148219670D01*
X238962828Y-148231981D01*
X238948403Y-148236514D01*
X238946186Y-148222809D01*
X238944289Y-148184925D01*
X238942847Y-148127715D01*
X238941998Y-148056027D01*
X238941829Y-148003565D01*
X238942692Y-147902047D01*
X238946070Y-147825032D01*
X238953142Y-147768023D01*
X238965088Y-147726526D01*
X238983090Y-147696043D01*
X239008327Y-147672080D01*
X239033247Y-147655355D01*
X239093171Y-147633097D01*
X239162911Y-147628076D01*
X239228600Y-147640752D01*
G37*
X235292093Y-147609780D02*
X235338672Y-147636723D01*
X235371057Y-147663466D01*
X235394742Y-147691484D01*
X235411059Y-147725748D01*
X235421339Y-147771227D01*
X235426914Y-147832892D01*
X235429116Y-147915711D01*
X235429371Y-147975246D01*
X235429371Y-148194391D01*
X235367686Y-148222044D01*
X235306000Y-148249697D01*
X235298743Y-148009670D01*
X235295744Y-147920028D01*
X235292598Y-147854962D01*
X235288701Y-147810026D01*
X235283447Y-147780770D01*
X235276231Y-147762748D01*
X235266450Y-147751511D01*
X235263312Y-147749079D01*
X235215761Y-147730083D01*
X235167697Y-147737600D01*
X235139086Y-147757543D01*
X235127447Y-147771675D01*
X235119391Y-147790220D01*
X235114271Y-147818334D01*
X235111441Y-147861173D01*
X235110256Y-147923895D01*
X235110057Y-147989261D01*
X235110018Y-148071268D01*
X235108614Y-148129316D01*
X235103914Y-148168465D01*
X235093987Y-148193780D01*
X235076903Y-148210323D01*
X235050732Y-148223156D01*
X235015775Y-148236491D01*
X234977596Y-148251007D01*
X234982141Y-147993389D01*
X234983971Y-147900519D01*
X234986112Y-147831889D01*
X234989181Y-147782711D01*
X234993794Y-147748198D01*
X235000568Y-147723562D01*
X235010119Y-147704016D01*
X235021634Y-147686770D01*
X235077190Y-147631680D01*
X235144980Y-147599822D01*
X235218713Y-147592191D01*
X235292093Y-147609780D01*
G36*
X235292093Y-147609780D02*
G01*
X235338672Y-147636723D01*
X235371057Y-147663466D01*
X235394742Y-147691484D01*
X235411059Y-147725748D01*
X235421339Y-147771227D01*
X235426914Y-147832892D01*
X235429116Y-147915711D01*
X235429371Y-147975246D01*
X235429371Y-148194391D01*
X235367686Y-148222044D01*
X235306000Y-148249697D01*
X235298743Y-148009670D01*
X235295744Y-147920028D01*
X235292598Y-147854962D01*
X235288701Y-147810026D01*
X235283447Y-147780770D01*
X235276231Y-147762748D01*
X235266450Y-147751511D01*
X235263312Y-147749079D01*
X235215761Y-147730083D01*
X235167697Y-147737600D01*
X235139086Y-147757543D01*
X235127447Y-147771675D01*
X235119391Y-147790220D01*
X235114271Y-147818334D01*
X235111441Y-147861173D01*
X235110256Y-147923895D01*
X235110057Y-147989261D01*
X235110018Y-148071268D01*
X235108614Y-148129316D01*
X235103914Y-148168465D01*
X235093987Y-148193780D01*
X235076903Y-148210323D01*
X235050732Y-148223156D01*
X235015775Y-148236491D01*
X234977596Y-148251007D01*
X234982141Y-147993389D01*
X234983971Y-147900519D01*
X234986112Y-147831889D01*
X234989181Y-147782711D01*
X234993794Y-147748198D01*
X235000568Y-147723562D01*
X235010119Y-147704016D01*
X235021634Y-147686770D01*
X235077190Y-147631680D01*
X235144980Y-147599822D01*
X235218713Y-147592191D01*
X235292093Y-147609780D01*
G37*
X237105926Y-147631755D02*
X237171858Y-147656084D01*
X237225273Y-147699117D01*
X237246164Y-147729409D01*
X237268939Y-147784994D01*
X237268466Y-147825186D01*
X237244562Y-147852217D01*
X237235717Y-147856813D01*
X237197530Y-147871144D01*
X237178028Y-147867472D01*
X237171422Y-147843407D01*
X237171086Y-147830114D01*
X237158992Y-147781210D01*
X237127471Y-147746999D01*
X237083659Y-147730476D01*
X237034695Y-147734634D01*
X236994894Y-147756227D01*
X236981450Y-147768544D01*
X236971921Y-147783487D01*
X236965485Y-147806075D01*
X236961317Y-147841328D01*
X236958597Y-147894266D01*
X236956502Y-147969907D01*
X236955960Y-147993857D01*
X236953981Y-148075790D01*
X236951731Y-148133455D01*
X236948357Y-148171608D01*
X236943006Y-148195004D01*
X236934824Y-148208398D01*
X236922959Y-148216545D01*
X236915362Y-148220144D01*
X236883102Y-148232452D01*
X236864111Y-148236514D01*
X236857836Y-148222948D01*
X236854006Y-148181934D01*
X236852600Y-148112999D01*
X236853598Y-148015669D01*
X236853908Y-148000657D01*
X236856101Y-147911859D01*
X236858693Y-147847019D01*
X236862382Y-147801067D01*
X236867864Y-147768935D01*
X236875835Y-147745553D01*
X236886993Y-147725852D01*
X236892830Y-147717410D01*
X236926296Y-147680057D01*
X236963727Y-147651003D01*
X236968309Y-147648467D01*
X237035426Y-147628443D01*
X237105926Y-147631755D01*
G36*
X237105926Y-147631755D02*
G01*
X237171858Y-147656084D01*
X237225273Y-147699117D01*
X237246164Y-147729409D01*
X237268939Y-147784994D01*
X237268466Y-147825186D01*
X237244562Y-147852217D01*
X237235717Y-147856813D01*
X237197530Y-147871144D01*
X237178028Y-147867472D01*
X237171422Y-147843407D01*
X237171086Y-147830114D01*
X237158992Y-147781210D01*
X237127471Y-147746999D01*
X237083659Y-147730476D01*
X237034695Y-147734634D01*
X236994894Y-147756227D01*
X236981450Y-147768544D01*
X236971921Y-147783487D01*
X236965485Y-147806075D01*
X236961317Y-147841328D01*
X236958597Y-147894266D01*
X236956502Y-147969907D01*
X236955960Y-147993857D01*
X236953981Y-148075790D01*
X236951731Y-148133455D01*
X236948357Y-148171608D01*
X236943006Y-148195004D01*
X236934824Y-148208398D01*
X236922959Y-148216545D01*
X236915362Y-148220144D01*
X236883102Y-148232452D01*
X236864111Y-148236514D01*
X236857836Y-148222948D01*
X236854006Y-148181934D01*
X236852600Y-148112999D01*
X236853598Y-148015669D01*
X236853908Y-148000657D01*
X236856101Y-147911859D01*
X236858693Y-147847019D01*
X236862382Y-147801067D01*
X236867864Y-147768935D01*
X236875835Y-147745553D01*
X236886993Y-147725852D01*
X236892830Y-147717410D01*
X236926296Y-147680057D01*
X236963727Y-147651003D01*
X236968309Y-147648467D01*
X237035426Y-147628443D01*
X237105926Y-147631755D01*
G37*
X235951886Y-147533289D02*
X235956139Y-147592613D01*
X235961025Y-147627572D01*
X235967795Y-147642820D01*
X235977702Y-147643015D01*
X235980914Y-147641195D01*
X236023644Y-147628015D01*
X236079227Y-147628785D01*
X236135737Y-147642333D01*
X236171082Y-147659861D01*
X236207321Y-147687861D01*
X236233813Y-147719549D01*
X236251999Y-147759813D01*
X236263322Y-147813543D01*
X236269222Y-147885626D01*
X236271143Y-147980951D01*
X236271177Y-147999237D01*
X236271200Y-148204646D01*
X236225491Y-148220580D01*
X236193027Y-148231420D01*
X236175215Y-148236468D01*
X236174691Y-148236514D01*
X236172937Y-148222828D01*
X236171444Y-148185076D01*
X236170326Y-148128224D01*
X236169697Y-148057234D01*
X236169600Y-148014073D01*
X236169398Y-147928973D01*
X236168358Y-147867981D01*
X236165831Y-147826177D01*
X236161164Y-147798642D01*
X236153707Y-147780456D01*
X236142811Y-147766698D01*
X236136007Y-147760073D01*
X236089272Y-147733375D01*
X236038272Y-147731375D01*
X235992001Y-147753955D01*
X235983444Y-147762107D01*
X235970893Y-147777436D01*
X235962188Y-147795618D01*
X235956631Y-147821909D01*
X235953526Y-147861562D01*
X235952176Y-147919832D01*
X235951886Y-148000173D01*
X235951886Y-148204646D01*
X235906177Y-148220580D01*
X235873713Y-148231420D01*
X235855901Y-148236468D01*
X235855377Y-148236514D01*
X235854037Y-148222623D01*
X235852828Y-148183439D01*
X235851801Y-148122700D01*
X235851002Y-148044141D01*
X235850481Y-147951498D01*
X235850286Y-147848509D01*
X235850286Y-147451342D01*
X235897457Y-147431444D01*
X235944629Y-147411547D01*
X235951886Y-147533289D01*
G36*
X235951886Y-147533289D02*
G01*
X235956139Y-147592613D01*
X235961025Y-147627572D01*
X235967795Y-147642820D01*
X235977702Y-147643015D01*
X235980914Y-147641195D01*
X236023644Y-147628015D01*
X236079227Y-147628785D01*
X236135737Y-147642333D01*
X236171082Y-147659861D01*
X236207321Y-147687861D01*
X236233813Y-147719549D01*
X236251999Y-147759813D01*
X236263322Y-147813543D01*
X236269222Y-147885626D01*
X236271143Y-147980951D01*
X236271177Y-147999237D01*
X236271200Y-148204646D01*
X236225491Y-148220580D01*
X236193027Y-148231420D01*
X236175215Y-148236468D01*
X236174691Y-148236514D01*
X236172937Y-148222828D01*
X236171444Y-148185076D01*
X236170326Y-148128224D01*
X236169697Y-148057234D01*
X236169600Y-148014073D01*
X236169398Y-147928973D01*
X236168358Y-147867981D01*
X236165831Y-147826177D01*
X236161164Y-147798642D01*
X236153707Y-147780456D01*
X236142811Y-147766698D01*
X236136007Y-147760073D01*
X236089272Y-147733375D01*
X236038272Y-147731375D01*
X235992001Y-147753955D01*
X235983444Y-147762107D01*
X235970893Y-147777436D01*
X235962188Y-147795618D01*
X235956631Y-147821909D01*
X235953526Y-147861562D01*
X235952176Y-147919832D01*
X235951886Y-148000173D01*
X235951886Y-148204646D01*
X235906177Y-148220580D01*
X235873713Y-148231420D01*
X235855901Y-148236468D01*
X235855377Y-148236514D01*
X235854037Y-148222623D01*
X235852828Y-148183439D01*
X235851801Y-148122700D01*
X235851002Y-148044141D01*
X235850481Y-147951498D01*
X235850286Y-147848509D01*
X235850286Y-147451342D01*
X235897457Y-147431444D01*
X235944629Y-147411547D01*
X235951886Y-147533289D01*
G37*
X238355833Y-147640663D02*
X238358048Y-147678850D01*
X238359784Y-147736886D01*
X238360899Y-147810180D01*
X238361257Y-147887055D01*
X238361257Y-148147196D01*
X238315326Y-148193127D01*
X238283675Y-148221429D01*
X238255890Y-148232893D01*
X238217915Y-148232168D01*
X238202840Y-148230321D01*
X238155726Y-148224948D01*
X238116756Y-148221869D01*
X238107257Y-148221585D01*
X238075233Y-148223445D01*
X238029432Y-148228114D01*
X238011674Y-148230321D01*
X237968057Y-148233735D01*
X237938745Y-148226320D01*
X237909680Y-148203427D01*
X237899188Y-148193127D01*
X237853257Y-148147196D01*
X237853257Y-147660602D01*
X237890226Y-147643758D01*
X237922059Y-147631282D01*
X237940683Y-147626914D01*
X237945458Y-147640718D01*
X237949921Y-147679286D01*
X237953775Y-147738356D01*
X237956722Y-147813663D01*
X237958143Y-147877286D01*
X237962114Y-148127657D01*
X237996759Y-148132556D01*
X238028268Y-148129131D01*
X238043708Y-148118041D01*
X238048023Y-148097308D01*
X238051708Y-148053145D01*
X238054469Y-147991146D01*
X238056012Y-147916909D01*
X238056235Y-147878706D01*
X238056457Y-147658783D01*
X238102166Y-147642849D01*
X238134518Y-147632015D01*
X238152115Y-147626962D01*
X238152623Y-147626914D01*
X238154388Y-147640648D01*
X238156329Y-147678730D01*
X238158282Y-147736482D01*
X238160084Y-147809227D01*
X238161343Y-147877286D01*
X238165314Y-148127657D01*
X238252400Y-148127657D01*
X238256396Y-147899240D01*
X238260392Y-147670822D01*
X238302847Y-147648868D01*
X238334192Y-147633793D01*
X238352744Y-147626951D01*
X238353279Y-147626914D01*
X238355833Y-147640663D01*
G36*
X238355833Y-147640663D02*
G01*
X238358048Y-147678850D01*
X238359784Y-147736886D01*
X238360899Y-147810180D01*
X238361257Y-147887055D01*
X238361257Y-148147196D01*
X238315326Y-148193127D01*
X238283675Y-148221429D01*
X238255890Y-148232893D01*
X238217915Y-148232168D01*
X238202840Y-148230321D01*
X238155726Y-148224948D01*
X238116756Y-148221869D01*
X238107257Y-148221585D01*
X238075233Y-148223445D01*
X238029432Y-148228114D01*
X238011674Y-148230321D01*
X237968057Y-148233735D01*
X237938745Y-148226320D01*
X237909680Y-148203427D01*
X237899188Y-148193127D01*
X237853257Y-148147196D01*
X237853257Y-147660602D01*
X237890226Y-147643758D01*
X237922059Y-147631282D01*
X237940683Y-147626914D01*
X237945458Y-147640718D01*
X237949921Y-147679286D01*
X237953775Y-147738356D01*
X237956722Y-147813663D01*
X237958143Y-147877286D01*
X237962114Y-148127657D01*
X237996759Y-148132556D01*
X238028268Y-148129131D01*
X238043708Y-148118041D01*
X238048023Y-148097308D01*
X238051708Y-148053145D01*
X238054469Y-147991146D01*
X238056012Y-147916909D01*
X238056235Y-147878706D01*
X238056457Y-147658783D01*
X238102166Y-147642849D01*
X238134518Y-147632015D01*
X238152115Y-147626962D01*
X238152623Y-147626914D01*
X238154388Y-147640648D01*
X238156329Y-147678730D01*
X238158282Y-147736482D01*
X238160084Y-147809227D01*
X238161343Y-147877286D01*
X238165314Y-148127657D01*
X238252400Y-148127657D01*
X238256396Y-147899240D01*
X238260392Y-147670822D01*
X238302847Y-147648868D01*
X238334192Y-147633793D01*
X238352744Y-147626951D01*
X238353279Y-147626914D01*
X238355833Y-147640663D01*
G37*
X233617115Y-147603962D02*
X233685145Y-147639733D01*
X233735351Y-147697301D01*
X233753185Y-147734312D01*
X233767063Y-147789882D01*
X233774167Y-147860096D01*
X233774840Y-147936727D01*
X233769427Y-148011552D01*
X233758270Y-148076342D01*
X233741714Y-148122873D01*
X233736626Y-148130887D01*
X233676355Y-148190707D01*
X233604769Y-148226535D01*
X233527092Y-148237020D01*
X233448548Y-148220810D01*
X233426689Y-148211092D01*
X233384122Y-148181143D01*
X233346763Y-148141433D01*
X233343232Y-148136397D01*
X233328881Y-148112124D01*
X233319394Y-148086178D01*
X233313790Y-148052022D01*
X233311086Y-148003119D01*
X233310299Y-147932935D01*
X233310286Y-147917200D01*
X233310322Y-147912192D01*
X233455429Y-147912192D01*
X233456273Y-147978430D01*
X233459596Y-148022386D01*
X233466583Y-148050779D01*
X233478416Y-148070325D01*
X233484457Y-148076857D01*
X233519186Y-148101680D01*
X233552903Y-148100548D01*
X233586995Y-148079016D01*
X233607329Y-148056029D01*
X233619371Y-148022478D01*
X233626134Y-147969569D01*
X233626598Y-147963399D01*
X233627752Y-147867513D01*
X233615688Y-147796299D01*
X233590570Y-147750194D01*
X233552560Y-147729635D01*
X233538992Y-147728514D01*
X233503364Y-147734152D01*
X233478994Y-147753686D01*
X233464093Y-147791042D01*
X233456875Y-147850150D01*
X233455429Y-147912192D01*
X233310322Y-147912192D01*
X233310826Y-147842413D01*
X233313096Y-147790159D01*
X233318068Y-147753949D01*
X233326713Y-147727299D01*
X233340005Y-147703722D01*
X233342943Y-147699338D01*
X233392313Y-147640249D01*
X233446109Y-147605947D01*
X233511602Y-147592331D01*
X233533842Y-147591665D01*
X233617115Y-147603962D01*
G36*
X233617115Y-147603962D02*
G01*
X233685145Y-147639733D01*
X233735351Y-147697301D01*
X233753185Y-147734312D01*
X233767063Y-147789882D01*
X233774167Y-147860096D01*
X233774840Y-147936727D01*
X233769427Y-148011552D01*
X233758270Y-148076342D01*
X233741714Y-148122873D01*
X233736626Y-148130887D01*
X233676355Y-148190707D01*
X233604769Y-148226535D01*
X233527092Y-148237020D01*
X233448548Y-148220810D01*
X233426689Y-148211092D01*
X233384122Y-148181143D01*
X233346763Y-148141433D01*
X233343232Y-148136397D01*
X233328881Y-148112124D01*
X233319394Y-148086178D01*
X233313790Y-148052022D01*
X233311086Y-148003119D01*
X233310299Y-147932935D01*
X233310286Y-147917200D01*
X233310322Y-147912192D01*
X233455429Y-147912192D01*
X233456273Y-147978430D01*
X233459596Y-148022386D01*
X233466583Y-148050779D01*
X233478416Y-148070325D01*
X233484457Y-148076857D01*
X233519186Y-148101680D01*
X233552903Y-148100548D01*
X233586995Y-148079016D01*
X233607329Y-148056029D01*
X233619371Y-148022478D01*
X233626134Y-147969569D01*
X233626598Y-147963399D01*
X233627752Y-147867513D01*
X233615688Y-147796299D01*
X233590570Y-147750194D01*
X233552560Y-147729635D01*
X233538992Y-147728514D01*
X233503364Y-147734152D01*
X233478994Y-147753686D01*
X233464093Y-147791042D01*
X233456875Y-147850150D01*
X233455429Y-147912192D01*
X233310322Y-147912192D01*
X233310826Y-147842413D01*
X233313096Y-147790159D01*
X233318068Y-147753949D01*
X233326713Y-147727299D01*
X233340005Y-147703722D01*
X233342943Y-147699338D01*
X233392313Y-147640249D01*
X233446109Y-147605947D01*
X233511602Y-147592331D01*
X233533842Y-147591665D01*
X233617115Y-147603962D01*
G37*
X239729595Y-147648966D02*
X239787021Y-147686497D01*
X239814719Y-147720096D01*
X239836662Y-147781064D01*
X239838405Y-147829308D01*
X239834457Y-147893816D01*
X239685686Y-147958934D01*
X239613349Y-147992202D01*
X239566084Y-148018964D01*
X239541507Y-148042144D01*
X239537237Y-148064667D01*
X239550889Y-148089455D01*
X239565943Y-148105886D01*
X239609746Y-148132235D01*
X239657389Y-148134081D01*
X239701145Y-148113546D01*
X239733289Y-148072752D01*
X239739038Y-148058347D01*
X239766576Y-148013356D01*
X239798258Y-147994182D01*
X239841714Y-147977779D01*
X239841714Y-148039966D01*
X239837872Y-148082283D01*
X239822823Y-148117969D01*
X239791280Y-148158943D01*
X239786592Y-148164267D01*
X239751506Y-148200720D01*
X239721347Y-148220283D01*
X239683615Y-148229283D01*
X239652335Y-148232230D01*
X239596385Y-148232965D01*
X239556555Y-148223660D01*
X239531708Y-148209846D01*
X239492656Y-148179467D01*
X239465625Y-148146613D01*
X239448517Y-148105294D01*
X239439238Y-148049521D01*
X239435693Y-147973305D01*
X239435410Y-147934622D01*
X239436372Y-147888247D01*
X239524007Y-147888247D01*
X239525023Y-147913126D01*
X239527556Y-147917200D01*
X239544274Y-147911665D01*
X239580249Y-147897017D01*
X239628331Y-147876190D01*
X239638386Y-147871714D01*
X239699152Y-147840814D01*
X239732632Y-147813657D01*
X239739990Y-147788220D01*
X239722391Y-147762481D01*
X239707856Y-147751109D01*
X239655410Y-147728364D01*
X239606322Y-147732122D01*
X239565227Y-147759884D01*
X239536758Y-147809152D01*
X239527631Y-147848257D01*
X239524007Y-147888247D01*
X239436372Y-147888247D01*
X239437285Y-147844249D01*
X239444196Y-147777384D01*
X239457884Y-147728695D01*
X239480096Y-147692849D01*
X239512574Y-147664513D01*
X239526733Y-147655355D01*
X239591053Y-147631507D01*
X239661473Y-147630006D01*
X239729595Y-147648966D01*
G36*
X239729595Y-147648966D02*
G01*
X239787021Y-147686497D01*
X239814719Y-147720096D01*
X239836662Y-147781064D01*
X239838405Y-147829308D01*
X239834457Y-147893816D01*
X239685686Y-147958934D01*
X239613349Y-147992202D01*
X239566084Y-148018964D01*
X239541507Y-148042144D01*
X239537237Y-148064667D01*
X239550889Y-148089455D01*
X239565943Y-148105886D01*
X239609746Y-148132235D01*
X239657389Y-148134081D01*
X239701145Y-148113546D01*
X239733289Y-148072752D01*
X239739038Y-148058347D01*
X239766576Y-148013356D01*
X239798258Y-147994182D01*
X239841714Y-147977779D01*
X239841714Y-148039966D01*
X239837872Y-148082283D01*
X239822823Y-148117969D01*
X239791280Y-148158943D01*
X239786592Y-148164267D01*
X239751506Y-148200720D01*
X239721347Y-148220283D01*
X239683615Y-148229283D01*
X239652335Y-148232230D01*
X239596385Y-148232965D01*
X239556555Y-148223660D01*
X239531708Y-148209846D01*
X239492656Y-148179467D01*
X239465625Y-148146613D01*
X239448517Y-148105294D01*
X239439238Y-148049521D01*
X239435693Y-147973305D01*
X239435410Y-147934622D01*
X239436372Y-147888247D01*
X239524007Y-147888247D01*
X239525023Y-147913126D01*
X239527556Y-147917200D01*
X239544274Y-147911665D01*
X239580249Y-147897017D01*
X239628331Y-147876190D01*
X239638386Y-147871714D01*
X239699152Y-147840814D01*
X239732632Y-147813657D01*
X239739990Y-147788220D01*
X239722391Y-147762481D01*
X239707856Y-147751109D01*
X239655410Y-147728364D01*
X239606322Y-147732122D01*
X239565227Y-147759884D01*
X239536758Y-147809152D01*
X239527631Y-147848257D01*
X239524007Y-147888247D01*
X239436372Y-147888247D01*
X239437285Y-147844249D01*
X239444196Y-147777384D01*
X239457884Y-147728695D01*
X239480096Y-147692849D01*
X239512574Y-147664513D01*
X239526733Y-147655355D01*
X239591053Y-147631507D01*
X239661473Y-147630006D01*
X239729595Y-147648966D01*
G37*
X237766117Y-147747358D02*
X237765933Y-147855837D01*
X237765219Y-147939287D01*
X237763675Y-148001704D01*
X237761001Y-148047085D01*
X237756894Y-148079429D01*
X237751055Y-148102733D01*
X237743182Y-148120995D01*
X237737221Y-148131418D01*
X237687855Y-148187945D01*
X237625264Y-148223377D01*
X237556013Y-148236090D01*
X237486668Y-148224463D01*
X237445375Y-148203568D01*
X237402025Y-148167422D01*
X237372481Y-148123276D01*
X237354655Y-148065462D01*
X237346463Y-147988313D01*
X237345302Y-147931714D01*
X237345458Y-147927647D01*
X237446857Y-147927647D01*
X237447476Y-147992550D01*
X237450314Y-148035514D01*
X237456840Y-148063622D01*
X237468523Y-148083953D01*
X237482483Y-148099288D01*
X237529365Y-148128890D01*
X237579701Y-148131419D01*
X237627276Y-148106705D01*
X237630979Y-148103356D01*
X237646783Y-148085935D01*
X237656693Y-148065209D01*
X237662058Y-148034362D01*
X237664228Y-147986577D01*
X237664571Y-147933748D01*
X237663827Y-147867381D01*
X237660748Y-147823106D01*
X237654061Y-147794009D01*
X237642496Y-147773173D01*
X237633013Y-147762107D01*
X237588960Y-147734198D01*
X237538224Y-147730843D01*
X237489796Y-147752159D01*
X237480450Y-147760073D01*
X237464540Y-147777647D01*
X237454610Y-147798587D01*
X237449278Y-147829782D01*
X237447163Y-147878122D01*
X237446857Y-147927647D01*
X237345458Y-147927647D01*
X237348810Y-147840568D01*
X237360726Y-147772086D01*
X237383135Y-147720600D01*
X237418124Y-147680443D01*
X237445375Y-147659861D01*
X237494907Y-147637625D01*
X237552316Y-147627304D01*
X237605682Y-147630067D01*
X237635543Y-147641212D01*
X237647261Y-147644383D01*
X237655037Y-147632557D01*
X237660465Y-147600866D01*
X237664571Y-147552593D01*
X237669067Y-147498829D01*
X237675313Y-147466482D01*
X237686676Y-147447985D01*
X237706528Y-147435770D01*
X237719000Y-147430362D01*
X237766171Y-147410601D01*
X237766117Y-147747358D01*
G36*
X237766117Y-147747358D02*
G01*
X237765933Y-147855837D01*
X237765219Y-147939287D01*
X237763675Y-148001704D01*
X237761001Y-148047085D01*
X237756894Y-148079429D01*
X237751055Y-148102733D01*
X237743182Y-148120995D01*
X237737221Y-148131418D01*
X237687855Y-148187945D01*
X237625264Y-148223377D01*
X237556013Y-148236090D01*
X237486668Y-148224463D01*
X237445375Y-148203568D01*
X237402025Y-148167422D01*
X237372481Y-148123276D01*
X237354655Y-148065462D01*
X237346463Y-147988313D01*
X237345302Y-147931714D01*
X237345458Y-147927647D01*
X237446857Y-147927647D01*
X237447476Y-147992550D01*
X237450314Y-148035514D01*
X237456840Y-148063622D01*
X237468523Y-148083953D01*
X237482483Y-148099288D01*
X237529365Y-148128890D01*
X237579701Y-148131419D01*
X237627276Y-148106705D01*
X237630979Y-148103356D01*
X237646783Y-148085935D01*
X237656693Y-148065209D01*
X237662058Y-148034362D01*
X237664228Y-147986577D01*
X237664571Y-147933748D01*
X237663827Y-147867381D01*
X237660748Y-147823106D01*
X237654061Y-147794009D01*
X237642496Y-147773173D01*
X237633013Y-147762107D01*
X237588960Y-147734198D01*
X237538224Y-147730843D01*
X237489796Y-147752159D01*
X237480450Y-147760073D01*
X237464540Y-147777647D01*
X237454610Y-147798587D01*
X237449278Y-147829782D01*
X237447163Y-147878122D01*
X237446857Y-147927647D01*
X237345458Y-147927647D01*
X237348810Y-147840568D01*
X237360726Y-147772086D01*
X237383135Y-147720600D01*
X237418124Y-147680443D01*
X237445375Y-147659861D01*
X237494907Y-147637625D01*
X237552316Y-147627304D01*
X237605682Y-147630067D01*
X237635543Y-147641212D01*
X237647261Y-147644383D01*
X237655037Y-147632557D01*
X237660465Y-147600866D01*
X237664571Y-147552593D01*
X237669067Y-147498829D01*
X237675313Y-147466482D01*
X237686676Y-147447985D01*
X237706528Y-147435770D01*
X237719000Y-147430362D01*
X237766171Y-147410601D01*
X237766117Y-147747358D01*
G37*
X234744303Y-147613239D02*
X234801527Y-147651735D01*
X234845749Y-147707335D01*
X234872167Y-147778086D01*
X234877510Y-147830162D01*
X234876903Y-147851893D01*
X234871822Y-147868531D01*
X234857855Y-147883437D01*
X234830589Y-147899973D01*
X234785612Y-147921498D01*
X234718511Y-147951374D01*
X234718171Y-147951524D01*
X234656407Y-147979813D01*
X234605759Y-148004933D01*
X234571404Y-148024179D01*
X234558518Y-148034848D01*
X234558514Y-148034934D01*
X234569872Y-148058166D01*
X234596431Y-148083774D01*
X234626923Y-148102221D01*
X234642370Y-148105886D01*
X234684515Y-148093212D01*
X234720808Y-148061471D01*
X234738517Y-148026572D01*
X234755552Y-148000845D01*
X234788922Y-147971546D01*
X234828149Y-147946235D01*
X234862756Y-147932471D01*
X234869993Y-147931714D01*
X234878139Y-147944160D01*
X234878630Y-147975972D01*
X234872643Y-148018866D01*
X234861357Y-148064558D01*
X234845950Y-148104761D01*
X234845171Y-148106322D01*
X234798804Y-148171062D01*
X234738711Y-148215097D01*
X234670465Y-148236711D01*
X234599638Y-148234185D01*
X234531804Y-148205804D01*
X234528788Y-148203808D01*
X234475427Y-148155448D01*
X234440340Y-148092352D01*
X234420922Y-148009387D01*
X234418316Y-147986078D01*
X234413701Y-147876055D01*
X234419233Y-147824748D01*
X234558514Y-147824748D01*
X234560324Y-147856753D01*
X234570222Y-147866093D01*
X234594898Y-147859105D01*
X234633795Y-147842587D01*
X234677275Y-147821881D01*
X234678356Y-147821333D01*
X234715209Y-147801949D01*
X234730000Y-147789013D01*
X234726353Y-147775451D01*
X234710995Y-147757632D01*
X234671923Y-147731845D01*
X234629846Y-147729950D01*
X234592103Y-147748717D01*
X234566034Y-147784915D01*
X234558514Y-147824748D01*
X234419233Y-147824748D01*
X234423194Y-147788027D01*
X234447550Y-147718212D01*
X234481456Y-147669302D01*
X234542653Y-147619878D01*
X234610063Y-147595359D01*
X234678880Y-147593797D01*
X234744303Y-147613239D01*
G36*
X234744303Y-147613239D02*
G01*
X234801527Y-147651735D01*
X234845749Y-147707335D01*
X234872167Y-147778086D01*
X234877510Y-147830162D01*
X234876903Y-147851893D01*
X234871822Y-147868531D01*
X234857855Y-147883437D01*
X234830589Y-147899973D01*
X234785612Y-147921498D01*
X234718511Y-147951374D01*
X234718171Y-147951524D01*
X234656407Y-147979813D01*
X234605759Y-148004933D01*
X234571404Y-148024179D01*
X234558518Y-148034848D01*
X234558514Y-148034934D01*
X234569872Y-148058166D01*
X234596431Y-148083774D01*
X234626923Y-148102221D01*
X234642370Y-148105886D01*
X234684515Y-148093212D01*
X234720808Y-148061471D01*
X234738517Y-148026572D01*
X234755552Y-148000845D01*
X234788922Y-147971546D01*
X234828149Y-147946235D01*
X234862756Y-147932471D01*
X234869993Y-147931714D01*
X234878139Y-147944160D01*
X234878630Y-147975972D01*
X234872643Y-148018866D01*
X234861357Y-148064558D01*
X234845950Y-148104761D01*
X234845171Y-148106322D01*
X234798804Y-148171062D01*
X234738711Y-148215097D01*
X234670465Y-148236711D01*
X234599638Y-148234185D01*
X234531804Y-148205804D01*
X234528788Y-148203808D01*
X234475427Y-148155448D01*
X234440340Y-148092352D01*
X234420922Y-148009387D01*
X234418316Y-147986078D01*
X234413701Y-147876055D01*
X234419233Y-147824748D01*
X234558514Y-147824748D01*
X234560324Y-147856753D01*
X234570222Y-147866093D01*
X234594898Y-147859105D01*
X234633795Y-147842587D01*
X234677275Y-147821881D01*
X234678356Y-147821333D01*
X234715209Y-147801949D01*
X234730000Y-147789013D01*
X234726353Y-147775451D01*
X234710995Y-147757632D01*
X234671923Y-147731845D01*
X234629846Y-147729950D01*
X234592103Y-147748717D01*
X234566034Y-147784915D01*
X234558514Y-147824748D01*
X234419233Y-147824748D01*
X234423194Y-147788027D01*
X234447550Y-147718212D01*
X234481456Y-147669302D01*
X234542653Y-147619878D01*
X234610063Y-147595359D01*
X234678880Y-147593797D01*
X234744303Y-147613239D01*
G37*
X236615744Y-147632968D02*
X236672616Y-147654087D01*
X236673267Y-147654493D01*
X236708440Y-147680380D01*
X236734407Y-147710633D01*
X236752670Y-147750058D01*
X236764732Y-147803462D01*
X236772096Y-147875651D01*
X236776264Y-147971432D01*
X236776629Y-147985078D01*
X236781876Y-148190842D01*
X236737716Y-148213678D01*
X236705763Y-148229110D01*
X236686470Y-148236423D01*
X236685578Y-148236514D01*
X236682239Y-148223022D01*
X236679587Y-148186626D01*
X236677956Y-148133452D01*
X236677600Y-148090393D01*
X236677592Y-148020641D01*
X236674403Y-147976837D01*
X236663288Y-147955944D01*
X236639501Y-147954925D01*
X236598296Y-147970741D01*
X236536086Y-147999815D01*
X236490341Y-148023963D01*
X236466813Y-148044913D01*
X236459896Y-148067747D01*
X236459886Y-148068877D01*
X236471299Y-148108212D01*
X236505092Y-148129462D01*
X236556809Y-148132539D01*
X236594061Y-148132006D01*
X236613703Y-148142735D01*
X236625952Y-148168505D01*
X236633002Y-148201337D01*
X236622842Y-148219966D01*
X236619017Y-148222632D01*
X236583001Y-148233340D01*
X236532566Y-148234856D01*
X236480626Y-148227759D01*
X236443822Y-148214788D01*
X236392938Y-148171585D01*
X236364014Y-148111446D01*
X236358286Y-148064462D01*
X236362657Y-148022082D01*
X236378475Y-147987488D01*
X236409797Y-147956763D01*
X236460678Y-147925990D01*
X236535176Y-147891252D01*
X236539714Y-147889288D01*
X236606821Y-147858287D01*
X236648232Y-147832862D01*
X236665981Y-147810014D01*
X236662107Y-147786745D01*
X236638643Y-147760056D01*
X236631627Y-147753914D01*
X236584630Y-147730100D01*
X236535933Y-147731103D01*
X236493522Y-147754451D01*
X236465384Y-147797675D01*
X236462769Y-147806160D01*
X236437308Y-147847308D01*
X236405001Y-147867128D01*
X236358286Y-147886770D01*
X236358286Y-147835950D01*
X236372496Y-147762082D01*
X236414675Y-147694327D01*
X236436624Y-147671661D01*
X236486517Y-147642569D01*
X236549967Y-147629400D01*
X236615744Y-147632968D01*
G36*
X236615744Y-147632968D02*
G01*
X236672616Y-147654087D01*
X236673267Y-147654493D01*
X236708440Y-147680380D01*
X236734407Y-147710633D01*
X236752670Y-147750058D01*
X236764732Y-147803462D01*
X236772096Y-147875651D01*
X236776264Y-147971432D01*
X236776629Y-147985078D01*
X236781876Y-148190842D01*
X236737716Y-148213678D01*
X236705763Y-148229110D01*
X236686470Y-148236423D01*
X236685578Y-148236514D01*
X236682239Y-148223022D01*
X236679587Y-148186626D01*
X236677956Y-148133452D01*
X236677600Y-148090393D01*
X236677592Y-148020641D01*
X236674403Y-147976837D01*
X236663288Y-147955944D01*
X236639501Y-147954925D01*
X236598296Y-147970741D01*
X236536086Y-147999815D01*
X236490341Y-148023963D01*
X236466813Y-148044913D01*
X236459896Y-148067747D01*
X236459886Y-148068877D01*
X236471299Y-148108212D01*
X236505092Y-148129462D01*
X236556809Y-148132539D01*
X236594061Y-148132006D01*
X236613703Y-148142735D01*
X236625952Y-148168505D01*
X236633002Y-148201337D01*
X236622842Y-148219966D01*
X236619017Y-148222632D01*
X236583001Y-148233340D01*
X236532566Y-148234856D01*
X236480626Y-148227759D01*
X236443822Y-148214788D01*
X236392938Y-148171585D01*
X236364014Y-148111446D01*
X236358286Y-148064462D01*
X236362657Y-148022082D01*
X236378475Y-147987488D01*
X236409797Y-147956763D01*
X236460678Y-147925990D01*
X236535176Y-147891252D01*
X236539714Y-147889288D01*
X236606821Y-147858287D01*
X236648232Y-147832862D01*
X236665981Y-147810014D01*
X236662107Y-147786745D01*
X236638643Y-147760056D01*
X236631627Y-147753914D01*
X236584630Y-147730100D01*
X236535933Y-147731103D01*
X236493522Y-147754451D01*
X236465384Y-147797675D01*
X236462769Y-147806160D01*
X236437308Y-147847308D01*
X236405001Y-147867128D01*
X236358286Y-147886770D01*
X236358286Y-147835950D01*
X236372496Y-147762082D01*
X236414675Y-147694327D01*
X236436624Y-147671661D01*
X236486517Y-147642569D01*
X236549967Y-147629400D01*
X236615744Y-147632968D01*
G37*
X234175744Y-147601918D02*
X234231201Y-147629568D01*
X234280148Y-147680480D01*
X234293629Y-147699338D01*
X234308314Y-147724015D01*
X234317842Y-147750816D01*
X234323293Y-147786587D01*
X234325747Y-147838169D01*
X234326286Y-147906267D01*
X234323852Y-147999588D01*
X234315394Y-148069657D01*
X234299174Y-148121931D01*
X234273454Y-148161869D01*
X234236497Y-148194929D01*
X234233782Y-148196886D01*
X234197360Y-148216908D01*
X234153502Y-148226815D01*
X234097724Y-148229257D01*
X234007048Y-148229257D01*
X234007010Y-148317283D01*
X234006166Y-148366308D01*
X234001024Y-148395065D01*
X233987587Y-148412311D01*
X233961858Y-148426808D01*
X233955679Y-148429769D01*
X233926764Y-148443648D01*
X233904376Y-148452414D01*
X233887729Y-148453171D01*
X233876036Y-148443023D01*
X233868510Y-148419073D01*
X233864366Y-148378426D01*
X233862815Y-148318186D01*
X233863071Y-148235455D01*
X233864349Y-148127339D01*
X233864748Y-148095000D01*
X233866185Y-147983524D01*
X233867472Y-147910603D01*
X234006971Y-147910603D01*
X234007755Y-147972499D01*
X234011240Y-148012997D01*
X234019124Y-148039708D01*
X234033105Y-148060244D01*
X234042597Y-148070260D01*
X234081404Y-148099567D01*
X234115763Y-148101952D01*
X234151216Y-148077750D01*
X234152114Y-148076857D01*
X234166539Y-148058153D01*
X234175313Y-148032732D01*
X234179739Y-147993584D01*
X234181118Y-147933697D01*
X234181143Y-147920430D01*
X234177812Y-147837901D01*
X234166969Y-147780691D01*
X234147340Y-147745766D01*
X234117650Y-147730094D01*
X234100491Y-147728514D01*
X234059766Y-147735926D01*
X234031832Y-147760330D01*
X234015017Y-147804980D01*
X234007650Y-147873130D01*
X234006971Y-147910603D01*
X233867472Y-147910603D01*
X233867708Y-147897245D01*
X233869677Y-147832333D01*
X233872450Y-147784958D01*
X233876388Y-147751290D01*
X233881849Y-147727498D01*
X233889192Y-147709753D01*
X233898777Y-147694224D01*
X233902887Y-147688381D01*
X233957405Y-147633185D01*
X234026336Y-147601890D01*
X234106072Y-147593165D01*
X234175744Y-147601918D01*
G36*
X234175744Y-147601918D02*
G01*
X234231201Y-147629568D01*
X234280148Y-147680480D01*
X234293629Y-147699338D01*
X234308314Y-147724015D01*
X234317842Y-147750816D01*
X234323293Y-147786587D01*
X234325747Y-147838169D01*
X234326286Y-147906267D01*
X234323852Y-147999588D01*
X234315394Y-148069657D01*
X234299174Y-148121931D01*
X234273454Y-148161869D01*
X234236497Y-148194929D01*
X234233782Y-148196886D01*
X234197360Y-148216908D01*
X234153502Y-148226815D01*
X234097724Y-148229257D01*
X234007048Y-148229257D01*
X234007010Y-148317283D01*
X234006166Y-148366308D01*
X234001024Y-148395065D01*
X233987587Y-148412311D01*
X233961858Y-148426808D01*
X233955679Y-148429769D01*
X233926764Y-148443648D01*
X233904376Y-148452414D01*
X233887729Y-148453171D01*
X233876036Y-148443023D01*
X233868510Y-148419073D01*
X233864366Y-148378426D01*
X233862815Y-148318186D01*
X233863071Y-148235455D01*
X233864349Y-148127339D01*
X233864748Y-148095000D01*
X233866185Y-147983524D01*
X233867472Y-147910603D01*
X234006971Y-147910603D01*
X234007755Y-147972499D01*
X234011240Y-148012997D01*
X234019124Y-148039708D01*
X234033105Y-148060244D01*
X234042597Y-148070260D01*
X234081404Y-148099567D01*
X234115763Y-148101952D01*
X234151216Y-148077750D01*
X234152114Y-148076857D01*
X234166539Y-148058153D01*
X234175313Y-148032732D01*
X234179739Y-147993584D01*
X234181118Y-147933697D01*
X234181143Y-147920430D01*
X234177812Y-147837901D01*
X234166969Y-147780691D01*
X234147340Y-147745766D01*
X234117650Y-147730094D01*
X234100491Y-147728514D01*
X234059766Y-147735926D01*
X234031832Y-147760330D01*
X234015017Y-147804980D01*
X234007650Y-147873130D01*
X234006971Y-147910603D01*
X233867472Y-147910603D01*
X233867708Y-147897245D01*
X233869677Y-147832333D01*
X233872450Y-147784958D01*
X233876388Y-147751290D01*
X233881849Y-147727498D01*
X233889192Y-147709753D01*
X233898777Y-147694224D01*
X233902887Y-147688381D01*
X233957405Y-147633185D01*
X234026336Y-147601890D01*
X234106072Y-147593165D01*
X234175744Y-147601918D01*
G37*
X238720876Y-147638335D02*
X238762667Y-147657344D01*
X238795469Y-147680378D01*
X238819503Y-147706133D01*
X238836097Y-147739358D01*
X238846577Y-147784800D01*
X238852271Y-147847207D01*
X238854507Y-147931327D01*
X238854743Y-147986721D01*
X238854743Y-148202826D01*
X238817774Y-148219670D01*
X238788656Y-148231981D01*
X238774231Y-148236514D01*
X238771472Y-148223025D01*
X238769282Y-148186653D01*
X238767942Y-148133542D01*
X238767657Y-148091372D01*
X238766434Y-148030447D01*
X238763136Y-147982115D01*
X238758321Y-147952518D01*
X238754496Y-147946229D01*
X238728783Y-147952652D01*
X238688418Y-147969125D01*
X238641679Y-147991458D01*
X238596845Y-148015457D01*
X238562193Y-148036930D01*
X238546002Y-148051685D01*
X238545938Y-148051845D01*
X238547330Y-148079152D01*
X238559818Y-148105219D01*
X238581743Y-148126392D01*
X238613743Y-148133474D01*
X238641092Y-148132649D01*
X238679826Y-148132042D01*
X238700158Y-148141116D01*
X238712369Y-148165092D01*
X238713909Y-148169613D01*
X238719203Y-148203806D01*
X238705047Y-148224568D01*
X238668148Y-148234462D01*
X238628289Y-148236292D01*
X238556562Y-148222727D01*
X238519432Y-148203355D01*
X238473576Y-148157845D01*
X238449256Y-148101983D01*
X238447073Y-148042957D01*
X238467629Y-147987953D01*
X238498549Y-147953486D01*
X238529420Y-147934189D01*
X238577942Y-147909759D01*
X238634485Y-147884985D01*
X238643910Y-147881199D01*
X238706019Y-147853791D01*
X238741822Y-147829634D01*
X238753337Y-147805619D01*
X238742580Y-147778635D01*
X238724114Y-147757543D01*
X238680469Y-147731572D01*
X238632446Y-147729624D01*
X238588406Y-147749637D01*
X238556709Y-147789551D01*
X238552549Y-147799848D01*
X238528327Y-147837724D01*
X238492965Y-147865842D01*
X238448343Y-147888917D01*
X238448343Y-147823485D01*
X238450969Y-147783506D01*
X238462230Y-147751997D01*
X238487199Y-147718378D01*
X238511169Y-147692484D01*
X238548441Y-147655817D01*
X238577401Y-147636121D01*
X238608505Y-147628220D01*
X238643713Y-147626914D01*
X238720876Y-147638335D01*
G36*
X238720876Y-147638335D02*
G01*
X238762667Y-147657344D01*
X238795469Y-147680378D01*
X238819503Y-147706133D01*
X238836097Y-147739358D01*
X238846577Y-147784800D01*
X238852271Y-147847207D01*
X238854507Y-147931327D01*
X238854743Y-147986721D01*
X238854743Y-148202826D01*
X238817774Y-148219670D01*
X238788656Y-148231981D01*
X238774231Y-148236514D01*
X238771472Y-148223025D01*
X238769282Y-148186653D01*
X238767942Y-148133542D01*
X238767657Y-148091372D01*
X238766434Y-148030447D01*
X238763136Y-147982115D01*
X238758321Y-147952518D01*
X238754496Y-147946229D01*
X238728783Y-147952652D01*
X238688418Y-147969125D01*
X238641679Y-147991458D01*
X238596845Y-148015457D01*
X238562193Y-148036930D01*
X238546002Y-148051685D01*
X238545938Y-148051845D01*
X238547330Y-148079152D01*
X238559818Y-148105219D01*
X238581743Y-148126392D01*
X238613743Y-148133474D01*
X238641092Y-148132649D01*
X238679826Y-148132042D01*
X238700158Y-148141116D01*
X238712369Y-148165092D01*
X238713909Y-148169613D01*
X238719203Y-148203806D01*
X238705047Y-148224568D01*
X238668148Y-148234462D01*
X238628289Y-148236292D01*
X238556562Y-148222727D01*
X238519432Y-148203355D01*
X238473576Y-148157845D01*
X238449256Y-148101983D01*
X238447073Y-148042957D01*
X238467629Y-147987953D01*
X238498549Y-147953486D01*
X238529420Y-147934189D01*
X238577942Y-147909759D01*
X238634485Y-147884985D01*
X238643910Y-147881199D01*
X238706019Y-147853791D01*
X238741822Y-147829634D01*
X238753337Y-147805619D01*
X238742580Y-147778635D01*
X238724114Y-147757543D01*
X238680469Y-147731572D01*
X238632446Y-147729624D01*
X238588406Y-147749637D01*
X238556709Y-147789551D01*
X238552549Y-147799848D01*
X238528327Y-147837724D01*
X238492965Y-147865842D01*
X238448343Y-147888917D01*
X238448343Y-147823485D01*
X238450969Y-147783506D01*
X238462230Y-147751997D01*
X238487199Y-147718378D01*
X238511169Y-147692484D01*
X238548441Y-147655817D01*
X238577401Y-147636121D01*
X238608505Y-147628220D01*
X238643713Y-147626914D01*
X238720876Y-147638335D01*
G37*
X236679910Y-142924348D02*
X236758454Y-142924778D01*
X236815298Y-142925942D01*
X236854105Y-142928207D01*
X236878538Y-142931940D01*
X236892262Y-142937506D01*
X236898940Y-142945273D01*
X236902236Y-142955605D01*
X236902556Y-142956943D01*
X236907562Y-142981079D01*
X236916829Y-143028701D01*
X236929392Y-143094741D01*
X236944287Y-143174128D01*
X236960551Y-143261796D01*
X236961119Y-143264875D01*
X236977410Y-143350789D01*
X236992652Y-143426696D01*
X237005861Y-143488045D01*
X237016054Y-143530282D01*
X237022248Y-143548855D01*
X237022543Y-143549184D01*
X237040788Y-143558253D01*
X237078405Y-143573367D01*
X237127271Y-143591262D01*
X237127543Y-143591358D01*
X237189093Y-143614493D01*
X237261657Y-143643965D01*
X237330057Y-143673597D01*
X237333294Y-143675062D01*
X237444702Y-143725626D01*
X237691399Y-143557160D01*
X237767077Y-143505803D01*
X237835631Y-143459889D01*
X237893088Y-143422030D01*
X237935476Y-143394837D01*
X237958825Y-143380921D01*
X237961042Y-143379889D01*
X237978010Y-143384484D01*
X238009701Y-143406655D01*
X238057352Y-143447447D01*
X238122198Y-143507905D01*
X238188397Y-143572227D01*
X238252214Y-143635612D01*
X238309329Y-143693451D01*
X238356305Y-143742175D01*
X238389703Y-143778210D01*
X238406085Y-143797984D01*
X238406694Y-143799002D01*
X238408505Y-143812572D01*
X238401683Y-143834733D01*
X238384540Y-143868478D01*
X238355393Y-143916800D01*
X238312555Y-143982692D01*
X238255448Y-144067517D01*
X238204766Y-144142177D01*
X238159461Y-144209140D01*
X238122150Y-144264516D01*
X238095452Y-144304420D01*
X238081985Y-144324962D01*
X238081137Y-144326356D01*
X238082781Y-144346038D01*
X238095245Y-144384293D01*
X238116048Y-144433889D01*
X238123462Y-144449728D01*
X238155814Y-144520290D01*
X238190328Y-144600353D01*
X238218365Y-144669629D01*
X238238568Y-144721045D01*
X238254615Y-144760119D01*
X238263888Y-144780541D01*
X238265041Y-144782114D01*
X238282096Y-144784721D01*
X238322298Y-144791863D01*
X238380302Y-144802523D01*
X238450763Y-144815685D01*
X238528335Y-144830333D01*
X238607672Y-144845449D01*
X238683431Y-144860018D01*
X238750264Y-144873022D01*
X238802828Y-144883445D01*
X238835776Y-144890270D01*
X238843857Y-144892199D01*
X238852205Y-144896962D01*
X238858506Y-144907718D01*
X238863045Y-144928098D01*
X238866104Y-144961734D01*
X238867967Y-145012255D01*
X238868918Y-145083292D01*
X238869240Y-145178476D01*
X238869257Y-145217492D01*
X238869257Y-145534799D01*
X238793057Y-145549839D01*
X238750663Y-145557995D01*
X238687400Y-145569899D01*
X238610962Y-145584116D01*
X238529043Y-145599210D01*
X238506400Y-145603355D01*
X238430806Y-145618053D01*
X238364953Y-145632505D01*
X238314366Y-145645375D01*
X238284574Y-145655322D01*
X238279612Y-145658287D01*
X238267426Y-145679283D01*
X238249953Y-145719967D01*
X238230577Y-145772322D01*
X238226734Y-145783600D01*
X238201339Y-145853523D01*
X238169817Y-145932418D01*
X238138969Y-146003266D01*
X238138817Y-146003595D01*
X238087447Y-146114733D01*
X238256399Y-146363253D01*
X238425352Y-146611772D01*
X238208429Y-146829058D01*
X238142819Y-146893726D01*
X238082979Y-146950733D01*
X238032267Y-146997033D01*
X237994046Y-147029584D01*
X237971675Y-147045343D01*
X237968466Y-147046343D01*
X237949626Y-147038469D01*
X237911180Y-147016578D01*
X237857330Y-146983267D01*
X237792276Y-146941131D01*
X237721940Y-146893943D01*
X237650555Y-146845810D01*
X237586908Y-146803928D01*
X237535041Y-146770871D01*
X237498995Y-146749218D01*
X237482867Y-146741543D01*
X237463189Y-146748037D01*
X237425875Y-146765150D01*
X237378621Y-146789326D01*
X237373612Y-146792013D01*
X237309977Y-146823927D01*
X237266341Y-146839579D01*
X237239202Y-146839745D01*
X237225057Y-146825204D01*
X237224975Y-146825000D01*
X237217905Y-146807779D01*
X237201042Y-146766899D01*
X237175695Y-146705525D01*
X237143171Y-146626819D01*
X237104778Y-146533947D01*
X237061822Y-146430072D01*
X237020222Y-146329502D01*
X236974504Y-146218516D01*
X236932526Y-146115703D01*
X236895548Y-146024215D01*
X236864827Y-145947201D01*
X236841622Y-145887815D01*
X236827190Y-145849209D01*
X236822743Y-145834800D01*
X236833896Y-145818272D01*
X236863069Y-145791930D01*
X236901971Y-145762887D01*
X237012757Y-145671039D01*
X237099351Y-145565759D01*
X237160716Y-145449266D01*
X237195815Y-145323776D01*
X237203608Y-145191507D01*
X237197943Y-145130457D01*
X237167078Y-145003795D01*
X237113920Y-144891941D01*
X237041767Y-144796001D01*
X236953917Y-144717076D01*
X236853665Y-144656270D01*
X236744310Y-144614687D01*
X236629147Y-144593428D01*
X236511475Y-144593599D01*
X236394590Y-144616301D01*
X236281789Y-144662638D01*
X236176369Y-144733713D01*
X236132368Y-144773911D01*
X236047979Y-144877129D01*
X235989222Y-144989925D01*
X235955704Y-145109010D01*
X235947035Y-145231095D01*
X235962823Y-145352893D01*
X236002678Y-145471116D01*
X236066207Y-145582475D01*
X236153021Y-145683684D01*
X236250029Y-145762887D01*
X236290437Y-145793162D01*
X236318982Y-145819219D01*
X236329257Y-145834825D01*
X236323877Y-145851843D01*
X236308575Y-145892500D01*
X236284612Y-145953642D01*
X236253244Y-146032119D01*
X236215732Y-146124780D01*
X236173333Y-146228472D01*
X236131663Y-146329526D01*
X236085690Y-146440607D01*
X236043107Y-146543541D01*
X236005221Y-146635165D01*
X235973340Y-146712316D01*
X235948771Y-146771831D01*
X235932820Y-146810544D01*
X235926910Y-146825000D01*
X235912948Y-146839685D01*
X235885940Y-146839642D01*
X235842413Y-146824099D01*
X235778890Y-146792284D01*
X235778388Y-146792013D01*
X235730560Y-146767323D01*
X235691897Y-146749338D01*
X235670095Y-146741614D01*
X235669133Y-146741543D01*
X235652721Y-146749378D01*
X235616487Y-146771165D01*
X235564474Y-146804328D01*
X235500725Y-146846291D01*
X235430060Y-146893943D01*
X235358116Y-146942191D01*
X235293274Y-146984151D01*
X235239735Y-147017227D01*
X235201697Y-147038821D01*
X235183533Y-147046343D01*
X235166808Y-147036457D01*
X235133180Y-147008826D01*
X235086010Y-146966495D01*
X235028658Y-146912505D01*
X234964484Y-146849899D01*
X234943497Y-146828983D01*
X234726499Y-146611623D01*
X234891668Y-146369220D01*
X234941864Y-146294781D01*
X234985919Y-146227972D01*
X235021362Y-146172665D01*
X235045719Y-146132729D01*
X235056522Y-146112036D01*
X235056838Y-146110563D01*
X235051143Y-146091058D01*
X235035826Y-146051822D01*
X235013537Y-145999430D01*
X234997893Y-145964355D01*
X234968641Y-145897201D01*
X234941094Y-145829358D01*
X234919737Y-145772034D01*
X234913935Y-145754572D01*
X234897452Y-145707938D01*
X234881340Y-145671905D01*
X234872490Y-145658287D01*
X234852960Y-145649952D01*
X234810334Y-145638137D01*
X234750145Y-145624181D01*
X234677922Y-145609422D01*
X234645600Y-145603355D01*
X234563522Y-145588273D01*
X234484795Y-145573669D01*
X234417109Y-145560980D01*
X234368160Y-145551642D01*
X234358943Y-145549839D01*
X234282743Y-145534799D01*
X234282743Y-145217492D01*
X234282914Y-145113154D01*
X234283616Y-145034213D01*
X234285134Y-144977038D01*
X234287749Y-144937999D01*
X234291746Y-144913465D01*
X234297409Y-144899805D01*
X234305020Y-144893389D01*
X234308143Y-144892199D01*
X234326978Y-144887980D01*
X234368588Y-144879562D01*
X234427630Y-144867961D01*
X234498757Y-144854195D01*
X234576625Y-144839280D01*
X234655887Y-144824232D01*
X234731198Y-144810069D01*
X234797213Y-144797806D01*
X234848587Y-144788461D01*
X234879975Y-144783050D01*
X234886959Y-144782114D01*
X234893285Y-144769596D01*
X234907290Y-144736246D01*
X234926355Y-144688377D01*
X234933634Y-144669629D01*
X234962996Y-144597195D01*
X234997571Y-144517170D01*
X235028537Y-144449728D01*
X235051323Y-144398159D01*
X235066482Y-144355785D01*
X235071542Y-144329834D01*
X235070736Y-144326356D01*
X235060041Y-144309936D01*
X235035620Y-144273417D01*
X235000095Y-144220687D01*
X234956087Y-144155635D01*
X234906217Y-144082151D01*
X234896356Y-144067645D01*
X234838492Y-143981704D01*
X234795956Y-143916261D01*
X234767054Y-143868304D01*
X234750090Y-143834820D01*
X234743367Y-143812795D01*
X234745190Y-143799217D01*
X234745236Y-143799131D01*
X234759586Y-143781297D01*
X234791323Y-143746817D01*
X234837010Y-143699268D01*
X234893204Y-143642222D01*
X234956468Y-143579255D01*
X234963602Y-143572227D01*
X235043330Y-143495020D01*
X235104857Y-143438330D01*
X235149421Y-143401110D01*
X235178257Y-143382315D01*
X235190958Y-143379889D01*
X235209494Y-143390471D01*
X235247961Y-143414916D01*
X235302386Y-143450612D01*
X235368798Y-143494947D01*
X235443225Y-143545311D01*
X235460601Y-143557160D01*
X235707297Y-143725626D01*
X235818706Y-143675062D01*
X235886457Y-143645595D01*
X235959183Y-143615959D01*
X236021703Y-143592330D01*
X236024457Y-143591358D01*
X236073360Y-143573457D01*
X236111057Y-143558320D01*
X236129425Y-143549210D01*
X236129456Y-143549184D01*
X236135285Y-143532717D01*
X236145192Y-143492219D01*
X236158195Y-143432242D01*
X236173309Y-143357340D01*
X236189552Y-143272064D01*
X236190881Y-143264875D01*
X236207175Y-143177014D01*
X236222133Y-143097260D01*
X236234791Y-143030681D01*
X236244186Y-142982347D01*
X236249354Y-142957325D01*
X236249444Y-142956943D01*
X236252589Y-142946299D01*
X236258704Y-142938262D01*
X236271453Y-142932467D01*
X236294500Y-142928547D01*
X236331509Y-142926135D01*
X236386144Y-142924865D01*
X236462067Y-142924371D01*
X236562944Y-142924286D01*
X236576000Y-142924286D01*
X236679910Y-142924348D01*
G36*
X236679910Y-142924348D02*
G01*
X236758454Y-142924778D01*
X236815298Y-142925942D01*
X236854105Y-142928207D01*
X236878538Y-142931940D01*
X236892262Y-142937506D01*
X236898940Y-142945273D01*
X236902236Y-142955605D01*
X236902556Y-142956943D01*
X236907562Y-142981079D01*
X236916829Y-143028701D01*
X236929392Y-143094741D01*
X236944287Y-143174128D01*
X236960551Y-143261796D01*
X236961119Y-143264875D01*
X236977410Y-143350789D01*
X236992652Y-143426696D01*
X237005861Y-143488045D01*
X237016054Y-143530282D01*
X237022248Y-143548855D01*
X237022543Y-143549184D01*
X237040788Y-143558253D01*
X237078405Y-143573367D01*
X237127271Y-143591262D01*
X237127543Y-143591358D01*
X237189093Y-143614493D01*
X237261657Y-143643965D01*
X237330057Y-143673597D01*
X237333294Y-143675062D01*
X237444702Y-143725626D01*
X237691399Y-143557160D01*
X237767077Y-143505803D01*
X237835631Y-143459889D01*
X237893088Y-143422030D01*
X237935476Y-143394837D01*
X237958825Y-143380921D01*
X237961042Y-143379889D01*
X237978010Y-143384484D01*
X238009701Y-143406655D01*
X238057352Y-143447447D01*
X238122198Y-143507905D01*
X238188397Y-143572227D01*
X238252214Y-143635612D01*
X238309329Y-143693451D01*
X238356305Y-143742175D01*
X238389703Y-143778210D01*
X238406085Y-143797984D01*
X238406694Y-143799002D01*
X238408505Y-143812572D01*
X238401683Y-143834733D01*
X238384540Y-143868478D01*
X238355393Y-143916800D01*
X238312555Y-143982692D01*
X238255448Y-144067517D01*
X238204766Y-144142177D01*
X238159461Y-144209140D01*
X238122150Y-144264516D01*
X238095452Y-144304420D01*
X238081985Y-144324962D01*
X238081137Y-144326356D01*
X238082781Y-144346038D01*
X238095245Y-144384293D01*
X238116048Y-144433889D01*
X238123462Y-144449728D01*
X238155814Y-144520290D01*
X238190328Y-144600353D01*
X238218365Y-144669629D01*
X238238568Y-144721045D01*
X238254615Y-144760119D01*
X238263888Y-144780541D01*
X238265041Y-144782114D01*
X238282096Y-144784721D01*
X238322298Y-144791863D01*
X238380302Y-144802523D01*
X238450763Y-144815685D01*
X238528335Y-144830333D01*
X238607672Y-144845449D01*
X238683431Y-144860018D01*
X238750264Y-144873022D01*
X238802828Y-144883445D01*
X238835776Y-144890270D01*
X238843857Y-144892199D01*
X238852205Y-144896962D01*
X238858506Y-144907718D01*
X238863045Y-144928098D01*
X238866104Y-144961734D01*
X238867967Y-145012255D01*
X238868918Y-145083292D01*
X238869240Y-145178476D01*
X238869257Y-145217492D01*
X238869257Y-145534799D01*
X238793057Y-145549839D01*
X238750663Y-145557995D01*
X238687400Y-145569899D01*
X238610962Y-145584116D01*
X238529043Y-145599210D01*
X238506400Y-145603355D01*
X238430806Y-145618053D01*
X238364953Y-145632505D01*
X238314366Y-145645375D01*
X238284574Y-145655322D01*
X238279612Y-145658287D01*
X238267426Y-145679283D01*
X238249953Y-145719967D01*
X238230577Y-145772322D01*
X238226734Y-145783600D01*
X238201339Y-145853523D01*
X238169817Y-145932418D01*
X238138969Y-146003266D01*
X238138817Y-146003595D01*
X238087447Y-146114733D01*
X238256399Y-146363253D01*
X238425352Y-146611772D01*
X238208429Y-146829058D01*
X238142819Y-146893726D01*
X238082979Y-146950733D01*
X238032267Y-146997033D01*
X237994046Y-147029584D01*
X237971675Y-147045343D01*
X237968466Y-147046343D01*
X237949626Y-147038469D01*
X237911180Y-147016578D01*
X237857330Y-146983267D01*
X237792276Y-146941131D01*
X237721940Y-146893943D01*
X237650555Y-146845810D01*
X237586908Y-146803928D01*
X237535041Y-146770871D01*
X237498995Y-146749218D01*
X237482867Y-146741543D01*
X237463189Y-146748037D01*
X237425875Y-146765150D01*
X237378621Y-146789326D01*
X237373612Y-146792013D01*
X237309977Y-146823927D01*
X237266341Y-146839579D01*
X237239202Y-146839745D01*
X237225057Y-146825204D01*
X237224975Y-146825000D01*
X237217905Y-146807779D01*
X237201042Y-146766899D01*
X237175695Y-146705525D01*
X237143171Y-146626819D01*
X237104778Y-146533947D01*
X237061822Y-146430072D01*
X237020222Y-146329502D01*
X236974504Y-146218516D01*
X236932526Y-146115703D01*
X236895548Y-146024215D01*
X236864827Y-145947201D01*
X236841622Y-145887815D01*
X236827190Y-145849209D01*
X236822743Y-145834800D01*
X236833896Y-145818272D01*
X236863069Y-145791930D01*
X236901971Y-145762887D01*
X237012757Y-145671039D01*
X237099351Y-145565759D01*
X237160716Y-145449266D01*
X237195815Y-145323776D01*
X237203608Y-145191507D01*
X237197943Y-145130457D01*
X237167078Y-145003795D01*
X237113920Y-144891941D01*
X237041767Y-144796001D01*
X236953917Y-144717076D01*
X236853665Y-144656270D01*
X236744310Y-144614687D01*
X236629147Y-144593428D01*
X236511475Y-144593599D01*
X236394590Y-144616301D01*
X236281789Y-144662638D01*
X236176369Y-144733713D01*
X236132368Y-144773911D01*
X236047979Y-144877129D01*
X235989222Y-144989925D01*
X235955704Y-145109010D01*
X235947035Y-145231095D01*
X235962823Y-145352893D01*
X236002678Y-145471116D01*
X236066207Y-145582475D01*
X236153021Y-145683684D01*
X236250029Y-145762887D01*
X236290437Y-145793162D01*
X236318982Y-145819219D01*
X236329257Y-145834825D01*
X236323877Y-145851843D01*
X236308575Y-145892500D01*
X236284612Y-145953642D01*
X236253244Y-146032119D01*
X236215732Y-146124780D01*
X236173333Y-146228472D01*
X236131663Y-146329526D01*
X236085690Y-146440607D01*
X236043107Y-146543541D01*
X236005221Y-146635165D01*
X235973340Y-146712316D01*
X235948771Y-146771831D01*
X235932820Y-146810544D01*
X235926910Y-146825000D01*
X235912948Y-146839685D01*
X235885940Y-146839642D01*
X235842413Y-146824099D01*
X235778890Y-146792284D01*
X235778388Y-146792013D01*
X235730560Y-146767323D01*
X235691897Y-146749338D01*
X235670095Y-146741614D01*
X235669133Y-146741543D01*
X235652721Y-146749378D01*
X235616487Y-146771165D01*
X235564474Y-146804328D01*
X235500725Y-146846291D01*
X235430060Y-146893943D01*
X235358116Y-146942191D01*
X235293274Y-146984151D01*
X235239735Y-147017227D01*
X235201697Y-147038821D01*
X235183533Y-147046343D01*
X235166808Y-147036457D01*
X235133180Y-147008826D01*
X235086010Y-146966495D01*
X235028658Y-146912505D01*
X234964484Y-146849899D01*
X234943497Y-146828983D01*
X234726499Y-146611623D01*
X234891668Y-146369220D01*
X234941864Y-146294781D01*
X234985919Y-146227972D01*
X235021362Y-146172665D01*
X235045719Y-146132729D01*
X235056522Y-146112036D01*
X235056838Y-146110563D01*
X235051143Y-146091058D01*
X235035826Y-146051822D01*
X235013537Y-145999430D01*
X234997893Y-145964355D01*
X234968641Y-145897201D01*
X234941094Y-145829358D01*
X234919737Y-145772034D01*
X234913935Y-145754572D01*
X234897452Y-145707938D01*
X234881340Y-145671905D01*
X234872490Y-145658287D01*
X234852960Y-145649952D01*
X234810334Y-145638137D01*
X234750145Y-145624181D01*
X234677922Y-145609422D01*
X234645600Y-145603355D01*
X234563522Y-145588273D01*
X234484795Y-145573669D01*
X234417109Y-145560980D01*
X234368160Y-145551642D01*
X234358943Y-145549839D01*
X234282743Y-145534799D01*
X234282743Y-145217492D01*
X234282914Y-145113154D01*
X234283616Y-145034213D01*
X234285134Y-144977038D01*
X234287749Y-144937999D01*
X234291746Y-144913465D01*
X234297409Y-144899805D01*
X234305020Y-144893389D01*
X234308143Y-144892199D01*
X234326978Y-144887980D01*
X234368588Y-144879562D01*
X234427630Y-144867961D01*
X234498757Y-144854195D01*
X234576625Y-144839280D01*
X234655887Y-144824232D01*
X234731198Y-144810069D01*
X234797213Y-144797806D01*
X234848587Y-144788461D01*
X234879975Y-144783050D01*
X234886959Y-144782114D01*
X234893285Y-144769596D01*
X234907290Y-144736246D01*
X234926355Y-144688377D01*
X234933634Y-144669629D01*
X234962996Y-144597195D01*
X234997571Y-144517170D01*
X235028537Y-144449728D01*
X235051323Y-144398159D01*
X235066482Y-144355785D01*
X235071542Y-144329834D01*
X235070736Y-144326356D01*
X235060041Y-144309936D01*
X235035620Y-144273417D01*
X235000095Y-144220687D01*
X234956087Y-144155635D01*
X234906217Y-144082151D01*
X234896356Y-144067645D01*
X234838492Y-143981704D01*
X234795956Y-143916261D01*
X234767054Y-143868304D01*
X234750090Y-143834820D01*
X234743367Y-143812795D01*
X234745190Y-143799217D01*
X234745236Y-143799131D01*
X234759586Y-143781297D01*
X234791323Y-143746817D01*
X234837010Y-143699268D01*
X234893204Y-143642222D01*
X234956468Y-143579255D01*
X234963602Y-143572227D01*
X235043330Y-143495020D01*
X235104857Y-143438330D01*
X235149421Y-143401110D01*
X235178257Y-143382315D01*
X235190958Y-143379889D01*
X235209494Y-143390471D01*
X235247961Y-143414916D01*
X235302386Y-143450612D01*
X235368798Y-143494947D01*
X235443225Y-143545311D01*
X235460601Y-143557160D01*
X235707297Y-143725626D01*
X235818706Y-143675062D01*
X235886457Y-143645595D01*
X235959183Y-143615959D01*
X236021703Y-143592330D01*
X236024457Y-143591358D01*
X236073360Y-143573457D01*
X236111057Y-143558320D01*
X236129425Y-143549210D01*
X236129456Y-143549184D01*
X236135285Y-143532717D01*
X236145192Y-143492219D01*
X236158195Y-143432242D01*
X236173309Y-143357340D01*
X236189552Y-143272064D01*
X236190881Y-143264875D01*
X236207175Y-143177014D01*
X236222133Y-143097260D01*
X236234791Y-143030681D01*
X236244186Y-142982347D01*
X236249354Y-142957325D01*
X236249444Y-142956943D01*
X236252589Y-142946299D01*
X236258704Y-142938262D01*
X236271453Y-142932467D01*
X236294500Y-142928547D01*
X236331509Y-142926135D01*
X236386144Y-142924865D01*
X236462067Y-142924371D01*
X236562944Y-142924286D01*
X236576000Y-142924286D01*
X236679910Y-142924348D01*
G37*
D16*
X202634250Y-104745000D02*
X202634250Y-105545000D01*
X202634250Y-105545000D02*
X203334250Y-105145000D01*
X203334250Y-105145000D02*
X202634250Y-104745000D01*
X203914250Y-102600000D02*
X216534250Y-102600000D01*
X203914250Y-109200000D02*
X203914250Y-102600000D01*
X216534250Y-102600000D02*
X216534250Y-109200000D01*
X216534250Y-109200000D02*
X203914250Y-109200000D01*
M02*
