G04 #@! TF.GenerationSoftware,KiCad,Pcbnew,(6.0.1)*
G04 #@! TF.CreationDate,2023-02-19T12:06:20-06:00*
G04 #@! TF.ProjectId,2019-Pi-Power,32303139-2d50-4692-9d50-6f7765722e6b,V2*
G04 #@! TF.SameCoordinates,Original*
G04 #@! TF.FileFunction,Copper,L2,Bot*
G04 #@! TF.FilePolarity,Positive*
%FSLAX46Y46*%
G04 Gerber Fmt 4.6, Leading zero omitted, Abs format (unit mm)*
G04 Created by KiCad (PCBNEW (6.0.1)) date 2023-02-19 12:06:20*
%MOMM*%
%LPD*%
G01*
G04 APERTURE LIST*
G04 Aperture macros list*
%AMRoundRect*
0 Rectangle with rounded corners*
0 $1 Rounding radius*
0 $2 $3 $4 $5 $6 $7 $8 $9 X,Y pos of 4 corners*
0 Add a 4 corners polygon primitive as box body*
4,1,4,$2,$3,$4,$5,$6,$7,$8,$9,$2,$3,0*
0 Add four circle primitives for the rounded corners*
1,1,$1+$1,$2,$3*
1,1,$1+$1,$4,$5*
1,1,$1+$1,$6,$7*
1,1,$1+$1,$8,$9*
0 Add four rect primitives between the rounded corners*
20,1,$1+$1,$2,$3,$4,$5,0*
20,1,$1+$1,$4,$5,$6,$7,0*
20,1,$1+$1,$6,$7,$8,$9,0*
20,1,$1+$1,$8,$9,$2,$3,0*%
G04 Aperture macros list end*
G04 #@! TA.AperFunction,ComponentPad*
%ADD10RoundRect,0.875000X0.875000X-0.875000X0.875000X0.875000X-0.875000X0.875000X-0.875000X-0.875000X0*%
G04 #@! TD*
G04 #@! TA.AperFunction,ComponentPad*
%ADD11R,1.700000X1.700000*%
G04 #@! TD*
G04 #@! TA.AperFunction,ComponentPad*
%ADD12O,1.700000X1.700000*%
G04 #@! TD*
G04 #@! TA.AperFunction,ComponentPad*
%ADD13R,1.440000X1.440000*%
G04 #@! TD*
G04 #@! TA.AperFunction,ComponentPad*
%ADD14C,1.440000*%
G04 #@! TD*
G04 #@! TA.AperFunction,ComponentPad*
%ADD15R,1.400000X1.700000*%
G04 #@! TD*
G04 #@! TA.AperFunction,ComponentPad*
%ADD16O,1.400000X1.700000*%
G04 #@! TD*
G04 #@! TA.AperFunction,ViaPad*
%ADD17C,0.900000*%
G04 #@! TD*
G04 #@! TA.AperFunction,ViaPad*
%ADD18C,0.500000*%
G04 #@! TD*
G04 #@! TA.AperFunction,Conductor*
%ADD19C,0.800000*%
G04 #@! TD*
G04 #@! TA.AperFunction,Conductor*
%ADD20C,0.400000*%
G04 #@! TD*
G04 APERTURE END LIST*
D10*
X227432000Y-138062000D03*
X227432000Y-144062000D03*
X232132000Y-141062000D03*
D11*
X241910000Y-144158000D03*
D12*
X241910000Y-141618000D03*
X244450000Y-144158000D03*
X244450000Y-141618000D03*
X246990000Y-144158000D03*
X246990000Y-141618000D03*
X249530000Y-144158000D03*
X249530000Y-141618000D03*
D11*
X231242000Y-102375000D03*
D12*
X233782000Y-102375000D03*
X236322000Y-102375000D03*
X238862000Y-102375000D03*
D11*
X231242000Y-106058000D03*
D12*
X233782000Y-106058000D03*
X236322000Y-106058000D03*
X238862000Y-106058000D03*
D11*
X224130000Y-104915000D03*
D12*
X224130000Y-102375000D03*
X226670000Y-104915000D03*
X226670000Y-102375000D03*
D11*
X260452000Y-110884000D03*
D12*
X260452000Y-113424000D03*
X260452000Y-115964000D03*
X260452000Y-118504000D03*
D13*
X206414250Y-105145000D03*
D14*
X208954250Y-105145000D03*
X211494250Y-105145000D03*
X214034250Y-105145000D03*
D15*
X208370000Y-98770000D03*
D16*
X208370000Y-96230000D03*
X210910000Y-98770000D03*
X210910000Y-96230000D03*
X213450000Y-98770000D03*
X213450000Y-96230000D03*
X215990000Y-98770000D03*
X215990000Y-96230000D03*
X218530000Y-98770000D03*
X218530000Y-96230000D03*
X221070000Y-98770000D03*
X221070000Y-96230000D03*
X223610000Y-98770000D03*
X223610000Y-96230000D03*
X226150000Y-98770000D03*
X226150000Y-96230000D03*
X228690000Y-98770000D03*
X228690000Y-96230000D03*
X231230000Y-98770000D03*
X231230000Y-96230000D03*
X233770000Y-98770000D03*
X233770000Y-96230000D03*
X236310000Y-98770000D03*
X236310000Y-96230000D03*
X238850000Y-98770000D03*
X238850000Y-96230000D03*
X241390000Y-98770000D03*
X241390000Y-96230000D03*
X243930000Y-98770000D03*
X243930000Y-96230000D03*
X246470000Y-98770000D03*
X246470000Y-96230000D03*
X249010000Y-98770000D03*
X249010000Y-96230000D03*
X251550000Y-98770000D03*
X251550000Y-96230000D03*
X254090000Y-98770000D03*
X254090000Y-96230000D03*
X256630000Y-98770000D03*
X256630000Y-96230000D03*
D17*
X208400000Y-108400000D03*
X235052000Y-135522000D03*
X206858000Y-113932000D03*
X206500000Y-102900000D03*
D18*
X210414000Y-118250000D03*
X210414000Y-119774000D03*
X210414000Y-119012000D03*
X209652000Y-118250000D03*
X209652000Y-117488000D03*
X209652000Y-119012000D03*
X209652000Y-119774000D03*
X210414000Y-121298000D03*
X209652000Y-122060000D03*
X209652000Y-120536000D03*
X209652000Y-121298000D03*
X209652000Y-122822000D03*
X210414000Y-120536000D03*
X210414000Y-122060000D03*
X210414000Y-122822000D03*
X208890000Y-118250000D03*
X208128000Y-119012000D03*
X208128000Y-117488000D03*
X208128000Y-118250000D03*
X208128000Y-119774000D03*
X208890000Y-117488000D03*
X208890000Y-119012000D03*
X208890000Y-119774000D03*
X208128000Y-122822000D03*
X208890000Y-120536000D03*
X208890000Y-122822000D03*
X208890000Y-122060000D03*
X208128000Y-121298000D03*
X208890000Y-121298000D03*
X208128000Y-120536000D03*
X208128000Y-122060000D03*
X207366000Y-122822000D03*
X207366000Y-121298000D03*
X207366000Y-119012000D03*
X207366000Y-118250000D03*
X207366000Y-119774000D03*
X207366000Y-117488000D03*
X207366000Y-122060000D03*
X207366000Y-120536000D03*
X215748000Y-120282000D03*
X214224000Y-119520000D03*
X214224000Y-121044000D03*
X213462000Y-121044000D03*
X214224000Y-120282000D03*
X213462000Y-120282000D03*
X213462000Y-119520000D03*
X214986000Y-121044000D03*
X214986000Y-119520000D03*
X214986000Y-120282000D03*
X215748000Y-119520000D03*
X215748000Y-121044000D03*
X212700000Y-120282000D03*
X212700000Y-119520000D03*
X212700000Y-121044000D03*
X243434000Y-120282000D03*
X241910000Y-119520000D03*
X241910000Y-121044000D03*
X241148000Y-121044000D03*
X241910000Y-120282000D03*
X241148000Y-120282000D03*
X241148000Y-119520000D03*
X242672000Y-121044000D03*
X242672000Y-119520000D03*
X242672000Y-120282000D03*
X243434000Y-119520000D03*
X243434000Y-121044000D03*
X240386000Y-120282000D03*
X240386000Y-119520000D03*
X240386000Y-121044000D03*
X236322000Y-122822000D03*
X235560000Y-122822000D03*
X236322000Y-122060000D03*
X236322000Y-121298000D03*
X236322000Y-119774000D03*
X237846000Y-118250000D03*
X236322000Y-120536000D03*
X235560000Y-121298000D03*
X236322000Y-117488000D03*
X236322000Y-119012000D03*
X235560000Y-119012000D03*
X236322000Y-118250000D03*
X235560000Y-118250000D03*
X235560000Y-119774000D03*
X235560000Y-117488000D03*
X235560000Y-122060000D03*
X235560000Y-120536000D03*
X237084000Y-119012000D03*
X237084000Y-117488000D03*
X237084000Y-118250000D03*
X237084000Y-119774000D03*
X237846000Y-117488000D03*
X234798000Y-121298000D03*
X234798000Y-122060000D03*
X234798000Y-122822000D03*
X237846000Y-119012000D03*
X234798000Y-118250000D03*
X234798000Y-120536000D03*
X234798000Y-117488000D03*
X234798000Y-119774000D03*
X237846000Y-119774000D03*
X234798000Y-119012000D03*
X237084000Y-122822000D03*
X237846000Y-120536000D03*
X237846000Y-122822000D03*
X237846000Y-122060000D03*
X237084000Y-121298000D03*
X237846000Y-121298000D03*
X237084000Y-120536000D03*
X237084000Y-122060000D03*
D17*
X253848000Y-130950000D03*
X229972000Y-131458000D03*
X236576000Y-113424000D03*
X228194000Y-147206000D03*
X226670000Y-147206000D03*
X229718000Y-147206000D03*
X253848000Y-129680000D03*
X229972000Y-130188000D03*
X229972000Y-128918000D03*
X229972000Y-132728000D03*
X253848000Y-132220000D03*
D18*
X210414000Y-117488000D03*
D17*
X208890000Y-112916000D03*
X225146000Y-147206000D03*
X253848000Y-128410000D03*
X211000000Y-100900000D03*
X214100000Y-100900000D03*
X254610000Y-122568000D03*
X233020000Y-115964000D03*
D19*
X206500000Y-102900000D02*
X206500000Y-105059250D01*
D20*
X206858000Y-109942000D02*
X208400000Y-108400000D01*
D19*
X206500000Y-105059250D02*
X206414250Y-105145000D01*
D20*
X206858000Y-113932000D02*
X206858000Y-109942000D01*
X206414250Y-106414250D02*
X208400000Y-108400000D01*
D19*
X241148000Y-141618000D02*
X241910000Y-141618000D01*
D20*
X206414250Y-105145000D02*
X206414250Y-106414250D01*
D19*
X235052000Y-135522000D02*
X241148000Y-141618000D01*
D20*
X210910000Y-96230000D02*
X210910000Y-96672000D01*
D19*
X211000000Y-101600000D02*
X208954250Y-103645750D01*
X211000000Y-100900000D02*
X211000000Y-101600000D01*
X208954250Y-103645750D02*
X208954250Y-105145000D01*
X214100000Y-100900000D02*
X214100000Y-105079250D01*
X214100000Y-105079250D02*
X214034250Y-105145000D01*
D20*
X233528000Y-131712000D02*
X233528000Y-117742000D01*
D19*
X233528000Y-116472000D02*
X233020000Y-115964000D01*
D20*
X234798000Y-132982000D02*
X233528000Y-131712000D01*
D19*
X233528000Y-117742000D02*
X233528000Y-116472000D01*
D20*
X252324000Y-132982000D02*
X234798000Y-132982000D01*
X254610000Y-122568000D02*
X252324000Y-124854000D01*
X252324000Y-124854000D02*
X252324000Y-132982000D01*
G04 #@! TA.AperFunction,Conductor*
G36*
X259944029Y-94320002D02*
G01*
X259990522Y-94373658D01*
X260000626Y-94443932D01*
X259971132Y-94508512D01*
X259935740Y-94536888D01*
X259749756Y-94637239D01*
X259749752Y-94637242D01*
X259746706Y-94638885D01*
X259743858Y-94640853D01*
X259743857Y-94640854D01*
X259581910Y-94752783D01*
X259443332Y-94848560D01*
X259440726Y-94850821D01*
X259440720Y-94850826D01*
X259202380Y-95057647D01*
X259164798Y-95090259D01*
X258914470Y-95361063D01*
X258912411Y-95363851D01*
X258741506Y-95595238D01*
X258695369Y-95657702D01*
X258510143Y-95976592D01*
X258508746Y-95979753D01*
X258508745Y-95979754D01*
X258450722Y-96111001D01*
X258361029Y-96313882D01*
X258359982Y-96317191D01*
X258359981Y-96317195D01*
X258253279Y-96654583D01*
X258249827Y-96665497D01*
X258177882Y-97027193D01*
X258177583Y-97030645D01*
X258148056Y-97371569D01*
X258146061Y-97394598D01*
X258146462Y-97411604D01*
X258153638Y-97716119D01*
X258154749Y-97763277D01*
X258203842Y-98128776D01*
X258292746Y-98486680D01*
X258420387Y-98832667D01*
X258585224Y-99162559D01*
X258587093Y-99165454D01*
X258587095Y-99165457D01*
X258783383Y-99469452D01*
X258783388Y-99469458D01*
X258785267Y-99472369D01*
X258787464Y-99475067D01*
X258787465Y-99475069D01*
X258866288Y-99571888D01*
X259018098Y-99758357D01*
X259020568Y-99760789D01*
X259020573Y-99760794D01*
X259278431Y-100014634D01*
X259280905Y-100017069D01*
X259283624Y-100019213D01*
X259283628Y-100019216D01*
X259420328Y-100126981D01*
X259570515Y-100245379D01*
X259883430Y-100440530D01*
X259886565Y-100442035D01*
X259886566Y-100442036D01*
X260212746Y-100598667D01*
X260212756Y-100598671D01*
X260215869Y-100600166D01*
X260563819Y-100722357D01*
X260923076Y-100805628D01*
X260926493Y-100806032D01*
X260926502Y-100806034D01*
X261286596Y-100848653D01*
X261289300Y-100848973D01*
X261292015Y-100849058D01*
X261292024Y-100849059D01*
X261317753Y-100849867D01*
X261337886Y-100850500D01*
X261592578Y-100850500D01*
X261594296Y-100850405D01*
X261594312Y-100850405D01*
X261740742Y-100842346D01*
X261868224Y-100835330D01*
X262232000Y-100774781D01*
X262586936Y-100674679D01*
X262928743Y-100536233D01*
X263112927Y-100436853D01*
X263250244Y-100362761D01*
X263250248Y-100362758D01*
X263253294Y-100361115D01*
X263340034Y-100301165D01*
X263553825Y-100153405D01*
X263553826Y-100153404D01*
X263556668Y-100151440D01*
X263559274Y-100149179D01*
X263559280Y-100149174D01*
X263826254Y-99917506D01*
X263835202Y-99909741D01*
X263952806Y-99782518D01*
X264083182Y-99641477D01*
X264085530Y-99638937D01*
X264254167Y-99410621D01*
X264302572Y-99345086D01*
X264302574Y-99345083D01*
X264304631Y-99342298D01*
X264319807Y-99316172D01*
X264465046Y-99066123D01*
X264516557Y-99017264D01*
X264586305Y-99004010D01*
X264652147Y-99030570D01*
X264693178Y-99088509D01*
X264700000Y-99129408D01*
X264700000Y-120664000D01*
X264679998Y-120732121D01*
X264626342Y-120778614D01*
X264574000Y-120790000D01*
X259308000Y-120790000D01*
X259239879Y-120769998D01*
X259193386Y-120716342D01*
X259182000Y-120664000D01*
X259182000Y-115074000D01*
X259202002Y-115005879D01*
X259255658Y-114959386D01*
X259308000Y-114948000D01*
X262992000Y-114948000D01*
X262992000Y-108344000D01*
X252578000Y-108469470D01*
X252578000Y-123838000D01*
X252573350Y-123838000D01*
X252573348Y-123875046D01*
X252541548Y-123928638D01*
X252019720Y-124450466D01*
X252010376Y-124457932D01*
X252010708Y-124458322D01*
X252003872Y-124464140D01*
X251996280Y-124468930D01*
X251990338Y-124475658D01*
X251990337Y-124475659D01*
X251961245Y-124508600D01*
X251955898Y-124514288D01*
X251944680Y-124525506D01*
X251941991Y-124529094D01*
X251941990Y-124529095D01*
X251938550Y-124533684D01*
X251932168Y-124541523D01*
X251901377Y-124576388D01*
X251897563Y-124584511D01*
X251895492Y-124587664D01*
X251887673Y-124600676D01*
X251885856Y-124603995D01*
X251880474Y-124611176D01*
X251877325Y-124619577D01*
X251877324Y-124619578D01*
X251864144Y-124654736D01*
X251860217Y-124664053D01*
X251844263Y-124698034D01*
X251844262Y-124698037D01*
X251840447Y-124706163D01*
X251839065Y-124715037D01*
X251837961Y-124718650D01*
X251834115Y-124733307D01*
X251833301Y-124737010D01*
X251830148Y-124745420D01*
X251826698Y-124791843D01*
X251825548Y-124801856D01*
X251823500Y-124815009D01*
X251823500Y-124830204D01*
X251823154Y-124839541D01*
X251819524Y-124888392D01*
X251821397Y-124897168D01*
X251822008Y-124906125D01*
X251822002Y-124906125D01*
X251823500Y-124920318D01*
X251823500Y-132355500D01*
X251803498Y-132423621D01*
X251749842Y-132470114D01*
X251697500Y-132481500D01*
X235057504Y-132481500D01*
X234989383Y-132461498D01*
X234968409Y-132444595D01*
X234065405Y-131541591D01*
X234031379Y-131479279D01*
X234028500Y-131452496D01*
X234028500Y-118287712D01*
X234048502Y-118219591D01*
X234052556Y-118214281D01*
X234052396Y-118214169D01*
X234145518Y-118081670D01*
X234145519Y-118081668D01*
X234149887Y-118075453D01*
X234211476Y-117917487D01*
X234228500Y-117788174D01*
X234228500Y-116500637D01*
X234228792Y-116492066D01*
X234232161Y-116442646D01*
X234232678Y-116435070D01*
X234231373Y-116427594D01*
X234231373Y-116427590D01*
X234221822Y-116372868D01*
X234220859Y-116366342D01*
X234214189Y-116311226D01*
X234213276Y-116303680D01*
X234210591Y-116296573D01*
X234209782Y-116293280D01*
X234205823Y-116278809D01*
X234204834Y-116275533D01*
X234203527Y-116268046D01*
X234200472Y-116261086D01*
X234178154Y-116210242D01*
X234175662Y-116204137D01*
X234171501Y-116193126D01*
X234153345Y-116145077D01*
X234149047Y-116138824D01*
X234147463Y-116135793D01*
X234140183Y-116122716D01*
X234138433Y-116119757D01*
X234135378Y-116112797D01*
X234130753Y-116106770D01*
X234130751Y-116106766D01*
X234096938Y-116062700D01*
X234093073Y-116057381D01*
X234057312Y-116005349D01*
X234011351Y-115964399D01*
X234006076Y-115959419D01*
X233730105Y-115683448D01*
X233705570Y-115648797D01*
X233703423Y-115644316D01*
X233701108Y-115637668D01*
X233611884Y-115494879D01*
X233603723Y-115486661D01*
X233498205Y-115380403D01*
X233498201Y-115380400D01*
X233493242Y-115375406D01*
X233351079Y-115285187D01*
X233192462Y-115228706D01*
X233185474Y-115227873D01*
X233185471Y-115227872D01*
X233092300Y-115216762D01*
X233025273Y-115208769D01*
X233018270Y-115209505D01*
X233018269Y-115209505D01*
X232972712Y-115214293D01*
X232857821Y-115226369D01*
X232851155Y-115228638D01*
X232851152Y-115228639D01*
X232705098Y-115278360D01*
X232705095Y-115278361D01*
X232698431Y-115280630D01*
X232692436Y-115284318D01*
X232692432Y-115284320D01*
X232561021Y-115365165D01*
X232561019Y-115365167D01*
X232555022Y-115368856D01*
X232434724Y-115486661D01*
X232343515Y-115628190D01*
X232341105Y-115634810D01*
X232341104Y-115634813D01*
X232330693Y-115663418D01*
X232285927Y-115786409D01*
X232264825Y-115953455D01*
X232265512Y-115960462D01*
X232265512Y-115960465D01*
X232265898Y-115964400D01*
X232281255Y-116121025D01*
X232334402Y-116280791D01*
X232338049Y-116286813D01*
X232338050Y-116286815D01*
X232390166Y-116372868D01*
X232421624Y-116424812D01*
X232538586Y-116545929D01*
X232679475Y-116638125D01*
X232686074Y-116640579D01*
X232691925Y-116642755D01*
X232737102Y-116671758D01*
X232790595Y-116725251D01*
X232824621Y-116787563D01*
X232827500Y-116814346D01*
X232827500Y-117784516D01*
X232842724Y-117910320D01*
X232902655Y-118068923D01*
X232996774Y-118205867D01*
X232996775Y-118205868D01*
X232998688Y-118208651D01*
X232998224Y-118208970D01*
X233026059Y-118268562D01*
X233027500Y-118287563D01*
X233027500Y-131641819D01*
X233026172Y-131653704D01*
X233026682Y-131653745D01*
X233025962Y-131662691D01*
X233023981Y-131671447D01*
X233024537Y-131680407D01*
X233027258Y-131724264D01*
X233027500Y-131732067D01*
X233027500Y-131747940D01*
X233028135Y-131752374D01*
X233028948Y-131758050D01*
X233029978Y-131768106D01*
X233032859Y-131814538D01*
X233035907Y-131822982D01*
X233036676Y-131826694D01*
X233040343Y-131841399D01*
X233041404Y-131845027D01*
X233042677Y-131853918D01*
X233061939Y-131896282D01*
X233065746Y-131905637D01*
X233078491Y-131940943D01*
X233078493Y-131940947D01*
X233081540Y-131949387D01*
X233086835Y-131956635D01*
X233088611Y-131959975D01*
X233096274Y-131973089D01*
X233098303Y-131976261D01*
X233102016Y-131984428D01*
X233107871Y-131991223D01*
X233107873Y-131991226D01*
X233132387Y-132019675D01*
X233138675Y-132027595D01*
X233146522Y-132038336D01*
X233157265Y-132049079D01*
X233163623Y-132055925D01*
X233195600Y-132093037D01*
X233203134Y-132097920D01*
X233209896Y-132103819D01*
X233209892Y-132103824D01*
X233220986Y-132112800D01*
X234394466Y-133286280D01*
X234401932Y-133295624D01*
X234402322Y-133295292D01*
X234408140Y-133302128D01*
X234412930Y-133309720D01*
X234419658Y-133315662D01*
X234419659Y-133315663D01*
X234452600Y-133344755D01*
X234458288Y-133350102D01*
X234469506Y-133361320D01*
X234473094Y-133364009D01*
X234473095Y-133364010D01*
X234477684Y-133367450D01*
X234485523Y-133373832D01*
X234520388Y-133404623D01*
X234528511Y-133408437D01*
X234531664Y-133410508D01*
X234544676Y-133418327D01*
X234547994Y-133420143D01*
X234555176Y-133425526D01*
X234598741Y-133441858D01*
X234608050Y-133445780D01*
X234650163Y-133465553D01*
X234659036Y-133466935D01*
X234662658Y-133468042D01*
X234677328Y-133471891D01*
X234681017Y-133472702D01*
X234689419Y-133475852D01*
X234698364Y-133476517D01*
X234698374Y-133476519D01*
X234735828Y-133479302D01*
X234745855Y-133480452D01*
X234759009Y-133482500D01*
X234774203Y-133482500D01*
X234783540Y-133482846D01*
X234791201Y-133483415D01*
X234832391Y-133486476D01*
X234841167Y-133484603D01*
X234850124Y-133483992D01*
X234850124Y-133483998D01*
X234864317Y-133482500D01*
X252315426Y-133482500D01*
X252316197Y-133482502D01*
X252392624Y-133482969D01*
X252401251Y-133480503D01*
X252401253Y-133480503D01*
X252417374Y-133475895D01*
X252488368Y-133476407D01*
X252547816Y-133515220D01*
X252576843Y-133580011D01*
X252578000Y-133597044D01*
X252578000Y-142867947D01*
X252591126Y-142868120D01*
X252591127Y-142868120D01*
X254083884Y-142887762D01*
X254083885Y-142887762D01*
X254102000Y-142888000D01*
X254102000Y-133490000D01*
X252823040Y-133490000D01*
X252754919Y-133469998D01*
X252708426Y-133416342D01*
X252698322Y-133346068D01*
X252717302Y-133295477D01*
X252717422Y-133295292D01*
X252718698Y-133293324D01*
X252729991Y-133278444D01*
X252740683Y-133266338D01*
X252740683Y-133266337D01*
X252746623Y-133259612D01*
X252758934Y-133233391D01*
X252767254Y-133218413D01*
X252778131Y-133201631D01*
X252778132Y-133201628D01*
X252783015Y-133194095D01*
X252790215Y-133170019D01*
X252796871Y-133152589D01*
X252807553Y-133129837D01*
X252812010Y-133101213D01*
X252815793Y-133084495D01*
X252821522Y-133065340D01*
X252821523Y-133065332D01*
X252824093Y-133056739D01*
X252824301Y-133022818D01*
X252824332Y-133022075D01*
X252824500Y-133020991D01*
X252824500Y-132990574D01*
X252824502Y-132989804D01*
X252824945Y-132917267D01*
X252824969Y-132913376D01*
X252824589Y-132912047D01*
X252824500Y-132910737D01*
X252824500Y-125113504D01*
X252844502Y-125045383D01*
X252861405Y-125024409D01*
X253378905Y-124506909D01*
X253441217Y-124472883D01*
X253512032Y-124477948D01*
X253568868Y-124520495D01*
X253593679Y-124587015D01*
X253594000Y-124596004D01*
X253594000Y-127394000D01*
X257278000Y-127394000D01*
X257346121Y-127414002D01*
X257392614Y-127467658D01*
X257404000Y-127520000D01*
X257404000Y-127648000D01*
X264574000Y-127648000D01*
X264642121Y-127668002D01*
X264688614Y-127721658D01*
X264700000Y-127774000D01*
X264700000Y-144874206D01*
X264679998Y-144942327D01*
X264626342Y-144988820D01*
X264556068Y-144998924D01*
X264491488Y-144969430D01*
X264461287Y-144930525D01*
X264414776Y-144837441D01*
X264412905Y-144834543D01*
X264216617Y-144530548D01*
X264216612Y-144530542D01*
X264214733Y-144527631D01*
X263981902Y-144241643D01*
X263979432Y-144239211D01*
X263979427Y-144239206D01*
X263721569Y-143985366D01*
X263721565Y-143985362D01*
X263719095Y-143982931D01*
X263429485Y-143754621D01*
X263116570Y-143559470D01*
X263113434Y-143557964D01*
X262787254Y-143401333D01*
X262787244Y-143401329D01*
X262784131Y-143399834D01*
X262436181Y-143277643D01*
X262076924Y-143194372D01*
X262073507Y-143193968D01*
X262073498Y-143193966D01*
X261713404Y-143151347D01*
X261713403Y-143151347D01*
X261710700Y-143151027D01*
X261707985Y-143150942D01*
X261707976Y-143150941D01*
X261682247Y-143150133D01*
X261662114Y-143149500D01*
X261407422Y-143149500D01*
X261405704Y-143149595D01*
X261405688Y-143149595D01*
X261259258Y-143157654D01*
X261131776Y-143164670D01*
X260768000Y-143225219D01*
X260413064Y-143325321D01*
X260071257Y-143463767D01*
X260068205Y-143465414D01*
X259749756Y-143637239D01*
X259749752Y-143637242D01*
X259746706Y-143638885D01*
X259743858Y-143640853D01*
X259743857Y-143640854D01*
X259581910Y-143752783D01*
X259443332Y-143848560D01*
X259440726Y-143850821D01*
X259440720Y-143850826D01*
X259187107Y-144070900D01*
X259164798Y-144090259D01*
X258914470Y-144361063D01*
X258695369Y-144657702D01*
X258510143Y-144976592D01*
X258361029Y-145313882D01*
X258359982Y-145317191D01*
X258359981Y-145317195D01*
X258296893Y-145516678D01*
X258249827Y-145665497D01*
X258177882Y-146027193D01*
X258177583Y-146030645D01*
X258159735Y-146236723D01*
X258146061Y-146394598D01*
X258154749Y-146763277D01*
X258203842Y-147128776D01*
X258292746Y-147486680D01*
X258420387Y-147832667D01*
X258585224Y-148162559D01*
X258587093Y-148165454D01*
X258587095Y-148165457D01*
X258783383Y-148469452D01*
X258783388Y-148469458D01*
X258785267Y-148472369D01*
X259018098Y-148758357D01*
X259020568Y-148760789D01*
X259020573Y-148760794D01*
X259171316Y-148909188D01*
X259280905Y-149017069D01*
X259570515Y-149245379D01*
X259883430Y-149440530D01*
X259924846Y-149460418D01*
X259977594Y-149507936D01*
X259996279Y-149576430D01*
X259974967Y-149644152D01*
X259920425Y-149689602D01*
X259870302Y-149700000D01*
X205124092Y-149700000D01*
X205055971Y-149679998D01*
X205009478Y-149626342D01*
X204999374Y-149556068D01*
X205028868Y-149491488D01*
X205064260Y-149463112D01*
X205250244Y-149362761D01*
X205250248Y-149362758D01*
X205253294Y-149361115D01*
X205361752Y-149286155D01*
X205553825Y-149153405D01*
X205553826Y-149153404D01*
X205556668Y-149151440D01*
X205559274Y-149149179D01*
X205559280Y-149149174D01*
X205832586Y-148912011D01*
X205835202Y-148909741D01*
X206085530Y-148638937D01*
X206304631Y-148342298D01*
X206489857Y-148023408D01*
X206548061Y-147891753D01*
X206637568Y-147689292D01*
X206637569Y-147689289D01*
X206638971Y-147686118D01*
X206701018Y-147489929D01*
X206749129Y-147337805D01*
X206749130Y-147337800D01*
X206750173Y-147334503D01*
X206822118Y-146972807D01*
X206822417Y-146969355D01*
X206853640Y-146608858D01*
X206853640Y-146608852D01*
X206853939Y-146605402D01*
X206845251Y-146236723D01*
X206796158Y-145871224D01*
X206707254Y-145513320D01*
X206579613Y-145167333D01*
X206414776Y-144837441D01*
X206412905Y-144834543D01*
X206216617Y-144530548D01*
X206216612Y-144530542D01*
X206214733Y-144527631D01*
X205981902Y-144241643D01*
X205979432Y-144239211D01*
X205979427Y-144239206D01*
X205721569Y-143985366D01*
X205721565Y-143985362D01*
X205719095Y-143982931D01*
X205429485Y-143754621D01*
X205116570Y-143559470D01*
X205113434Y-143557964D01*
X204787254Y-143401333D01*
X204787244Y-143401329D01*
X204784131Y-143399834D01*
X204436181Y-143277643D01*
X204076924Y-143194372D01*
X204073507Y-143193968D01*
X204073498Y-143193966D01*
X203713404Y-143151347D01*
X203713403Y-143151347D01*
X203710700Y-143151027D01*
X203707985Y-143150942D01*
X203707976Y-143150941D01*
X203682247Y-143150133D01*
X203662114Y-143149500D01*
X203407422Y-143149500D01*
X203405704Y-143149595D01*
X203405688Y-143149595D01*
X203259258Y-143157654D01*
X203131776Y-143164670D01*
X202768000Y-143225219D01*
X202413064Y-143325321D01*
X202071257Y-143463767D01*
X202068205Y-143465414D01*
X201749756Y-143637239D01*
X201749752Y-143637242D01*
X201746706Y-143638885D01*
X201743858Y-143640853D01*
X201743857Y-143640854D01*
X201581910Y-143752783D01*
X201443332Y-143848560D01*
X201440726Y-143850821D01*
X201440720Y-143850826D01*
X201187107Y-144070900D01*
X201164798Y-144090259D01*
X200914470Y-144361063D01*
X200695369Y-144657702D01*
X200693632Y-144660692D01*
X200693629Y-144660697D01*
X200534954Y-144933877D01*
X200483443Y-144982736D01*
X200413695Y-144995990D01*
X200347853Y-144969430D01*
X200306822Y-144911491D01*
X200300000Y-144870592D01*
X200300000Y-140116747D01*
X230081500Y-140116747D01*
X230081501Y-142007252D01*
X230081669Y-142009545D01*
X230081669Y-142009552D01*
X230087780Y-142093075D01*
X230088829Y-142107418D01*
X230139446Y-142317446D01*
X230227491Y-142514734D01*
X230230764Y-142519488D01*
X230230765Y-142519489D01*
X230336838Y-142673537D01*
X230350014Y-142692673D01*
X230354101Y-142696753D01*
X230354102Y-142696754D01*
X230397070Y-142739647D01*
X230502912Y-142845304D01*
X230681064Y-142967516D01*
X230831871Y-143034502D01*
X230871711Y-143052198D01*
X230878505Y-143055216D01*
X230884122Y-143056559D01*
X230884124Y-143056560D01*
X231083622Y-143104271D01*
X231083628Y-143104272D01*
X231088621Y-143105466D01*
X231126461Y-143108179D01*
X231184497Y-143112339D01*
X231184505Y-143112339D01*
X231186747Y-143112500D01*
X232123514Y-143112500D01*
X233077252Y-143112499D01*
X233079545Y-143112331D01*
X233079552Y-143112331D01*
X233172283Y-143105547D01*
X233172287Y-143105546D01*
X233177418Y-143105171D01*
X233387446Y-143054554D01*
X233584734Y-142966509D01*
X233699098Y-142887762D01*
X233757917Y-142847261D01*
X233757918Y-142847260D01*
X233762673Y-142843986D01*
X233915304Y-142691088D01*
X234037516Y-142512936D01*
X234113889Y-142340996D01*
X234122870Y-142320777D01*
X234122871Y-142320775D01*
X234125216Y-142315495D01*
X234134449Y-142276888D01*
X234174271Y-142110378D01*
X234174272Y-142110372D01*
X234175466Y-142105379D01*
X234182500Y-142007253D01*
X234182499Y-140116748D01*
X234182188Y-140112499D01*
X234175547Y-140021717D01*
X234175546Y-140021713D01*
X234175171Y-140016582D01*
X234124554Y-139806554D01*
X234036509Y-139609266D01*
X234033235Y-139604511D01*
X233917261Y-139436083D01*
X233917260Y-139436082D01*
X233913986Y-139431327D01*
X233761088Y-139278696D01*
X233582936Y-139156484D01*
X233432129Y-139089498D01*
X233390777Y-139071130D01*
X233390775Y-139071129D01*
X233385495Y-139068784D01*
X233379878Y-139067441D01*
X233379876Y-139067440D01*
X233180378Y-139019729D01*
X233180372Y-139019728D01*
X233175379Y-139018534D01*
X233137539Y-139015821D01*
X233079503Y-139011661D01*
X233079495Y-139011661D01*
X233077253Y-139011500D01*
X232140486Y-139011500D01*
X231186748Y-139011501D01*
X231184455Y-139011669D01*
X231184448Y-139011669D01*
X231091717Y-139018453D01*
X231091713Y-139018454D01*
X231086582Y-139018829D01*
X230876554Y-139069446D01*
X230679266Y-139157491D01*
X230501327Y-139280014D01*
X230497247Y-139284101D01*
X230497246Y-139284102D01*
X230465908Y-139315495D01*
X230348696Y-139432912D01*
X230226484Y-139611064D01*
X230138784Y-139808505D01*
X230137441Y-139814122D01*
X230137440Y-139814124D01*
X230089729Y-140013622D01*
X230089728Y-140013628D01*
X230088534Y-140018621D01*
X230088167Y-140023743D01*
X230081805Y-140112499D01*
X230081500Y-140116747D01*
X200300000Y-140116747D01*
X200300000Y-137116747D01*
X225381500Y-137116747D01*
X225381501Y-139007252D01*
X225381669Y-139009545D01*
X225381669Y-139009552D01*
X225386003Y-139068784D01*
X225388829Y-139107418D01*
X225439446Y-139317446D01*
X225527491Y-139514734D01*
X225530764Y-139519488D01*
X225530765Y-139519489D01*
X225592583Y-139609266D01*
X225650014Y-139692673D01*
X225802912Y-139845304D01*
X225981064Y-139967516D01*
X226096118Y-140018621D01*
X226171711Y-140052198D01*
X226178505Y-140055216D01*
X226184122Y-140056559D01*
X226184124Y-140056560D01*
X226383622Y-140104271D01*
X226383628Y-140104272D01*
X226388621Y-140105466D01*
X226426461Y-140108179D01*
X226484497Y-140112339D01*
X226484505Y-140112339D01*
X226486747Y-140112500D01*
X227423514Y-140112500D01*
X228377252Y-140112499D01*
X228379545Y-140112331D01*
X228379552Y-140112331D01*
X228472283Y-140105547D01*
X228472287Y-140105546D01*
X228477418Y-140105171D01*
X228687446Y-140054554D01*
X228884734Y-139966509D01*
X229062673Y-139843986D01*
X229094431Y-139812173D01*
X229211224Y-139695175D01*
X229215304Y-139691088D01*
X229337516Y-139512936D01*
X229425216Y-139315495D01*
X229433041Y-139282776D01*
X229474271Y-139110378D01*
X229474272Y-139110372D01*
X229475466Y-139105379D01*
X229481670Y-139018829D01*
X229482339Y-139009503D01*
X229482339Y-139009495D01*
X229482500Y-139007253D01*
X229482499Y-137116748D01*
X229475171Y-137016582D01*
X229424554Y-136806554D01*
X229336509Y-136609266D01*
X229213986Y-136431327D01*
X229061088Y-136278696D01*
X228940722Y-136196125D01*
X228887700Y-136159752D01*
X228887699Y-136159752D01*
X228882936Y-136156484D01*
X228732129Y-136089498D01*
X228690777Y-136071130D01*
X228690775Y-136071129D01*
X228685495Y-136068784D01*
X228679878Y-136067441D01*
X228679876Y-136067440D01*
X228480378Y-136019729D01*
X228480372Y-136019728D01*
X228475379Y-136018534D01*
X228437539Y-136015821D01*
X228379503Y-136011661D01*
X228379495Y-136011661D01*
X228377253Y-136011500D01*
X227440486Y-136011500D01*
X226486748Y-136011501D01*
X226484455Y-136011669D01*
X226484448Y-136011669D01*
X226391717Y-136018453D01*
X226391713Y-136018454D01*
X226386582Y-136018829D01*
X226176554Y-136069446D01*
X225979266Y-136157491D01*
X225974512Y-136160764D01*
X225974511Y-136160765D01*
X225902526Y-136210332D01*
X225801327Y-136280014D01*
X225648696Y-136432912D01*
X225526484Y-136611064D01*
X225438784Y-136808505D01*
X225437441Y-136814122D01*
X225437440Y-136814124D01*
X225389729Y-137013622D01*
X225389728Y-137013628D01*
X225388534Y-137018621D01*
X225381500Y-137116747D01*
X200300000Y-137116747D01*
X200300000Y-135511455D01*
X234296825Y-135511455D01*
X234313255Y-135679025D01*
X234366402Y-135838791D01*
X234453624Y-135982812D01*
X234458513Y-135987875D01*
X234458514Y-135987876D01*
X234489570Y-136020035D01*
X234570586Y-136103929D01*
X234576483Y-136107788D01*
X234705577Y-136192266D01*
X234705581Y-136192268D01*
X234711475Y-136196125D01*
X234718080Y-136198581D01*
X234718085Y-136198584D01*
X234723930Y-136200758D01*
X234769102Y-136229759D01*
X240632418Y-142093075D01*
X240638271Y-142099340D01*
X240675831Y-142142396D01*
X240727473Y-142178690D01*
X240732758Y-142182616D01*
X240776476Y-142216895D01*
X240776480Y-142216897D01*
X240782457Y-142221584D01*
X240789380Y-142224710D01*
X240792328Y-142226495D01*
X240805288Y-142233887D01*
X240808334Y-142235520D01*
X240814547Y-142239887D01*
X240873366Y-142262820D01*
X240879446Y-142265376D01*
X240930062Y-142288230D01*
X240930065Y-142288231D01*
X240936984Y-142291355D01*
X240944448Y-142292738D01*
X240946830Y-142293485D01*
X241005851Y-142332944D01*
X241012042Y-142340996D01*
X241028065Y-142363667D01*
X241028073Y-142363676D01*
X241031405Y-142368391D01*
X241182865Y-142515937D01*
X241187661Y-142519142D01*
X241187664Y-142519144D01*
X241330936Y-142614875D01*
X241358677Y-142633411D01*
X241363985Y-142635692D01*
X241363986Y-142635692D01*
X241547650Y-142714600D01*
X241547653Y-142714601D01*
X241552953Y-142716878D01*
X241558582Y-142718152D01*
X241558583Y-142718152D01*
X241753550Y-142762269D01*
X241753553Y-142762269D01*
X241759186Y-142763544D01*
X241764957Y-142763771D01*
X241764959Y-142763771D01*
X241826989Y-142766208D01*
X241970470Y-142771846D01*
X241976179Y-142771018D01*
X241976183Y-142771018D01*
X242174015Y-142742333D01*
X242174019Y-142742332D01*
X242179730Y-142741504D01*
X242258987Y-142714600D01*
X242374483Y-142675395D01*
X242374488Y-142675393D01*
X242379955Y-142673537D01*
X242384998Y-142670713D01*
X242559395Y-142573046D01*
X242559399Y-142573043D01*
X242564442Y-142570219D01*
X242727012Y-142435012D01*
X242862219Y-142272442D01*
X242865043Y-142267399D01*
X242865046Y-142267395D01*
X242962713Y-142092998D01*
X242962714Y-142092996D01*
X242965537Y-142087955D01*
X242967393Y-142082488D01*
X242967395Y-142082483D01*
X243031647Y-141893200D01*
X243033504Y-141887730D01*
X243046406Y-141798749D01*
X243055090Y-141738860D01*
X243084660Y-141674315D01*
X243144432Y-141636003D01*
X243215429Y-141636087D01*
X243275109Y-141674542D01*
X243304525Y-141739158D01*
X243305515Y-141748695D01*
X243308796Y-141798749D01*
X243310217Y-141804345D01*
X243310218Y-141804350D01*
X243332784Y-141893200D01*
X243360845Y-142003690D01*
X243363262Y-142008933D01*
X243422149Y-142136669D01*
X243449369Y-142195714D01*
X243571405Y-142368391D01*
X243722865Y-142515937D01*
X243727661Y-142519142D01*
X243727664Y-142519144D01*
X243870936Y-142614875D01*
X243898677Y-142633411D01*
X243903985Y-142635692D01*
X243903986Y-142635692D01*
X244087650Y-142714600D01*
X244087653Y-142714601D01*
X244092953Y-142716878D01*
X244098582Y-142718152D01*
X244098583Y-142718152D01*
X244293550Y-142762269D01*
X244293553Y-142762269D01*
X244299186Y-142763544D01*
X244304957Y-142763771D01*
X244304959Y-142763771D01*
X244366989Y-142766208D01*
X244510470Y-142771846D01*
X244516179Y-142771018D01*
X244516183Y-142771018D01*
X244714015Y-142742333D01*
X244714019Y-142742332D01*
X244719730Y-142741504D01*
X244798987Y-142714600D01*
X244914483Y-142675395D01*
X244914488Y-142675393D01*
X244919955Y-142673537D01*
X244924998Y-142670713D01*
X245099395Y-142573046D01*
X245099399Y-142573043D01*
X245104442Y-142570219D01*
X245267012Y-142435012D01*
X245402219Y-142272442D01*
X245405043Y-142267399D01*
X245405046Y-142267395D01*
X245502713Y-142092998D01*
X245502714Y-142092996D01*
X245505537Y-142087955D01*
X245507393Y-142082488D01*
X245507395Y-142082483D01*
X245571647Y-141893200D01*
X245573504Y-141887730D01*
X245586406Y-141798749D01*
X245595090Y-141738860D01*
X245624660Y-141674315D01*
X245684432Y-141636003D01*
X245755429Y-141636087D01*
X245815109Y-141674542D01*
X245844525Y-141739158D01*
X245845515Y-141748695D01*
X245848796Y-141798749D01*
X245850217Y-141804345D01*
X245850218Y-141804350D01*
X245872784Y-141893200D01*
X245900845Y-142003690D01*
X245903262Y-142008933D01*
X245962149Y-142136669D01*
X245989369Y-142195714D01*
X246111405Y-142368391D01*
X246262865Y-142515937D01*
X246267661Y-142519142D01*
X246267664Y-142519144D01*
X246410936Y-142614875D01*
X246438677Y-142633411D01*
X246443985Y-142635692D01*
X246443986Y-142635692D01*
X246627650Y-142714600D01*
X246627653Y-142714601D01*
X246632953Y-142716878D01*
X246638582Y-142718152D01*
X246638583Y-142718152D01*
X246833550Y-142762269D01*
X246833553Y-142762269D01*
X246839186Y-142763544D01*
X246844957Y-142763771D01*
X246844959Y-142763771D01*
X246906989Y-142766208D01*
X247050470Y-142771846D01*
X247056179Y-142771018D01*
X247056183Y-142771018D01*
X247254015Y-142742333D01*
X247254019Y-142742332D01*
X247259730Y-142741504D01*
X247338987Y-142714600D01*
X247454483Y-142675395D01*
X247454488Y-142675393D01*
X247459955Y-142673537D01*
X247464998Y-142670713D01*
X247639395Y-142573046D01*
X247639399Y-142573043D01*
X247644442Y-142570219D01*
X247807012Y-142435012D01*
X247942219Y-142272442D01*
X247945043Y-142267399D01*
X247945046Y-142267395D01*
X248042713Y-142092998D01*
X248042714Y-142092996D01*
X248045537Y-142087955D01*
X248047393Y-142082488D01*
X248047395Y-142082483D01*
X248111647Y-141893200D01*
X248113504Y-141887730D01*
X248126406Y-141798749D01*
X248135090Y-141738860D01*
X248164660Y-141674315D01*
X248224432Y-141636003D01*
X248295429Y-141636087D01*
X248355109Y-141674542D01*
X248384525Y-141739158D01*
X248385515Y-141748695D01*
X248388796Y-141798749D01*
X248390217Y-141804345D01*
X248390218Y-141804350D01*
X248412784Y-141893200D01*
X248440845Y-142003690D01*
X248443262Y-142008933D01*
X248502149Y-142136669D01*
X248529369Y-142195714D01*
X248651405Y-142368391D01*
X248802865Y-142515937D01*
X248807661Y-142519142D01*
X248807664Y-142519144D01*
X248950936Y-142614875D01*
X248978677Y-142633411D01*
X248983985Y-142635692D01*
X248983986Y-142635692D01*
X249167650Y-142714600D01*
X249167653Y-142714601D01*
X249172953Y-142716878D01*
X249178582Y-142718152D01*
X249178583Y-142718152D01*
X249373550Y-142762269D01*
X249373553Y-142762269D01*
X249379186Y-142763544D01*
X249384957Y-142763771D01*
X249384959Y-142763771D01*
X249446989Y-142766208D01*
X249590470Y-142771846D01*
X249596179Y-142771018D01*
X249596183Y-142771018D01*
X249794015Y-142742333D01*
X249794019Y-142742332D01*
X249799730Y-142741504D01*
X249878987Y-142714600D01*
X249994483Y-142675395D01*
X249994488Y-142675393D01*
X249999955Y-142673537D01*
X250004998Y-142670713D01*
X250179395Y-142573046D01*
X250179399Y-142573043D01*
X250184442Y-142570219D01*
X250347012Y-142435012D01*
X250482219Y-142272442D01*
X250485043Y-142267399D01*
X250485046Y-142267395D01*
X250582713Y-142092998D01*
X250582714Y-142092996D01*
X250585537Y-142087955D01*
X250587393Y-142082488D01*
X250587395Y-142082483D01*
X250651647Y-141893200D01*
X250653504Y-141887730D01*
X250667243Y-141792981D01*
X250683314Y-141682140D01*
X250683314Y-141682138D01*
X250683846Y-141678470D01*
X250685429Y-141618000D01*
X250666081Y-141407440D01*
X250608686Y-141203931D01*
X250597553Y-141181354D01*
X250517719Y-141019469D01*
X250515165Y-141014290D01*
X250388651Y-140844867D01*
X250233381Y-140701337D01*
X250169180Y-140660829D01*
X250059434Y-140591584D01*
X250059433Y-140591584D01*
X250054554Y-140588505D01*
X249858160Y-140510152D01*
X249852503Y-140509027D01*
X249852497Y-140509025D01*
X249656442Y-140470028D01*
X249656440Y-140470028D01*
X249650775Y-140468901D01*
X249645000Y-140468825D01*
X249644996Y-140468825D01*
X249538976Y-140467437D01*
X249439346Y-140466133D01*
X249433649Y-140467112D01*
X249433648Y-140467112D01*
X249236650Y-140500962D01*
X249236649Y-140500962D01*
X249230953Y-140501941D01*
X249032575Y-140575127D01*
X249027614Y-140578079D01*
X249027613Y-140578079D01*
X248918173Y-140643189D01*
X248850856Y-140683238D01*
X248691881Y-140822655D01*
X248560976Y-140988708D01*
X248558287Y-140993819D01*
X248558285Y-140993822D01*
X248544792Y-141019469D01*
X248462523Y-141175836D01*
X248399820Y-141377773D01*
X248399141Y-141383510D01*
X248385088Y-141502239D01*
X248357217Y-141567537D01*
X248298469Y-141607401D01*
X248227494Y-141609174D01*
X248166828Y-141572295D01*
X248135730Y-141508471D01*
X248134490Y-141498958D01*
X248126610Y-141413197D01*
X248126081Y-141407440D01*
X248068686Y-141203931D01*
X248057553Y-141181354D01*
X247977719Y-141019469D01*
X247975165Y-141014290D01*
X247848651Y-140844867D01*
X247693381Y-140701337D01*
X247629180Y-140660829D01*
X247519434Y-140591584D01*
X247519433Y-140591584D01*
X247514554Y-140588505D01*
X247318160Y-140510152D01*
X247312503Y-140509027D01*
X247312497Y-140509025D01*
X247116442Y-140470028D01*
X247116440Y-140470028D01*
X247110775Y-140468901D01*
X247105000Y-140468825D01*
X247104996Y-140468825D01*
X246998976Y-140467437D01*
X246899346Y-140466133D01*
X246893649Y-140467112D01*
X246893648Y-140467112D01*
X246696650Y-140500962D01*
X246696649Y-140500962D01*
X246690953Y-140501941D01*
X246492575Y-140575127D01*
X246487614Y-140578079D01*
X246487613Y-140578079D01*
X246378173Y-140643189D01*
X246310856Y-140683238D01*
X246151881Y-140822655D01*
X246020976Y-140988708D01*
X246018287Y-140993819D01*
X246018285Y-140993822D01*
X246004792Y-141019469D01*
X245922523Y-141175836D01*
X245859820Y-141377773D01*
X245859141Y-141383510D01*
X245845088Y-141502239D01*
X245817217Y-141567537D01*
X245758469Y-141607401D01*
X245687494Y-141609174D01*
X245626828Y-141572295D01*
X245595730Y-141508471D01*
X245594490Y-141498958D01*
X245586610Y-141413197D01*
X245586081Y-141407440D01*
X245528686Y-141203931D01*
X245517553Y-141181354D01*
X245437719Y-141019469D01*
X245435165Y-141014290D01*
X245308651Y-140844867D01*
X245153381Y-140701337D01*
X245089180Y-140660829D01*
X244979434Y-140591584D01*
X244979433Y-140591584D01*
X244974554Y-140588505D01*
X244778160Y-140510152D01*
X244772503Y-140509027D01*
X244772497Y-140509025D01*
X244576442Y-140470028D01*
X244576440Y-140470028D01*
X244570775Y-140468901D01*
X244565000Y-140468825D01*
X244564996Y-140468825D01*
X244458976Y-140467437D01*
X244359346Y-140466133D01*
X244353649Y-140467112D01*
X244353648Y-140467112D01*
X244156650Y-140500962D01*
X244156649Y-140500962D01*
X244150953Y-140501941D01*
X243952575Y-140575127D01*
X243947614Y-140578079D01*
X243947613Y-140578079D01*
X243838173Y-140643189D01*
X243770856Y-140683238D01*
X243611881Y-140822655D01*
X243480976Y-140988708D01*
X243478287Y-140993819D01*
X243478285Y-140993822D01*
X243464792Y-141019469D01*
X243382523Y-141175836D01*
X243319820Y-141377773D01*
X243319141Y-141383510D01*
X243305088Y-141502239D01*
X243277217Y-141567537D01*
X243218469Y-141607401D01*
X243147494Y-141609174D01*
X243086828Y-141572295D01*
X243055730Y-141508471D01*
X243054490Y-141498958D01*
X243046610Y-141413197D01*
X243046081Y-141407440D01*
X242988686Y-141203931D01*
X242977553Y-141181354D01*
X242897719Y-141019469D01*
X242895165Y-141014290D01*
X242768651Y-140844867D01*
X242613381Y-140701337D01*
X242549180Y-140660829D01*
X242439434Y-140591584D01*
X242439433Y-140591584D01*
X242434554Y-140588505D01*
X242238160Y-140510152D01*
X242232503Y-140509027D01*
X242232497Y-140509025D01*
X242036442Y-140470028D01*
X242036440Y-140470028D01*
X242030775Y-140468901D01*
X242025000Y-140468825D01*
X242024996Y-140468825D01*
X241918976Y-140467437D01*
X241819346Y-140466133D01*
X241813649Y-140467112D01*
X241813648Y-140467112D01*
X241616650Y-140500962D01*
X241616649Y-140500962D01*
X241610953Y-140501941D01*
X241412575Y-140575127D01*
X241407614Y-140578079D01*
X241407613Y-140578079D01*
X241384913Y-140591584D01*
X241306075Y-140638488D01*
X241298173Y-140643189D01*
X241229403Y-140660829D01*
X241162013Y-140638488D01*
X241144655Y-140623999D01*
X235762105Y-135241448D01*
X235737570Y-135206797D01*
X235735423Y-135202316D01*
X235733108Y-135195668D01*
X235643884Y-135052879D01*
X235635723Y-135044661D01*
X235530205Y-134938403D01*
X235530201Y-134938400D01*
X235525242Y-134933406D01*
X235383079Y-134843187D01*
X235224462Y-134786706D01*
X235217474Y-134785873D01*
X235217471Y-134785872D01*
X235124300Y-134774762D01*
X235057273Y-134766769D01*
X235050270Y-134767505D01*
X235050269Y-134767505D01*
X235004712Y-134772293D01*
X234889821Y-134784369D01*
X234883155Y-134786638D01*
X234883152Y-134786639D01*
X234737098Y-134836360D01*
X234737095Y-134836361D01*
X234730431Y-134838630D01*
X234724436Y-134842318D01*
X234724432Y-134842320D01*
X234593021Y-134923165D01*
X234593019Y-134923167D01*
X234587022Y-134926856D01*
X234466724Y-135044661D01*
X234375515Y-135186190D01*
X234373105Y-135192810D01*
X234373104Y-135192813D01*
X234362693Y-135221418D01*
X234317927Y-135344409D01*
X234296825Y-135511455D01*
X200300000Y-135511455D01*
X200300000Y-131037270D01*
X200301914Y-131015391D01*
X200302714Y-131010854D01*
X200304628Y-130999999D01*
X200302910Y-130990255D01*
X200304260Y-130973072D01*
X200306653Y-130957948D01*
X200318809Y-130920493D01*
X200329075Y-130900320D01*
X200352197Y-130868450D01*
X200368190Y-130852429D01*
X200400019Y-130829251D01*
X200409336Y-130824489D01*
X200420182Y-130818946D01*
X200457620Y-130806725D01*
X200464441Y-130805633D01*
X200472720Y-130804309D01*
X200489909Y-130802927D01*
X200499658Y-130804629D01*
X200514686Y-130801952D01*
X200536772Y-130800001D01*
X202509320Y-130800000D01*
X204462730Y-130800000D01*
X204484609Y-130801914D01*
X204500001Y-130804628D01*
X204509727Y-130802913D01*
X204511748Y-130802714D01*
X204512528Y-130802714D01*
X204514510Y-130802442D01*
X204656828Y-130788425D01*
X204807628Y-130742680D01*
X204813083Y-130739764D01*
X204813086Y-130739763D01*
X204941148Y-130671312D01*
X204941149Y-130671312D01*
X204946607Y-130668394D01*
X205068422Y-130568422D01*
X205168394Y-130446607D01*
X205242680Y-130307628D01*
X205288425Y-130156828D01*
X205297118Y-130068565D01*
X205298185Y-130062287D01*
X205299385Y-130059280D01*
X205300000Y-130053007D01*
X205300000Y-130045491D01*
X205300607Y-130033138D01*
X205302441Y-130014521D01*
X205302714Y-130012532D01*
X205302714Y-130011748D01*
X205302913Y-130009727D01*
X205304628Y-130000001D01*
X205301914Y-129984609D01*
X205300000Y-129962730D01*
X205300000Y-114037270D01*
X205301914Y-114015391D01*
X205302714Y-114010854D01*
X205304628Y-113999999D01*
X205302913Y-113990273D01*
X205302714Y-113988252D01*
X205302714Y-113987472D01*
X205302442Y-113985490D01*
X205288425Y-113843172D01*
X205242680Y-113692372D01*
X205229864Y-113668394D01*
X205171312Y-113558852D01*
X205171312Y-113558851D01*
X205168394Y-113553393D01*
X205068422Y-113431578D01*
X204946607Y-113331606D01*
X204922419Y-113318677D01*
X204813086Y-113260237D01*
X204813083Y-113260236D01*
X204807628Y-113257320D01*
X204656828Y-113211575D01*
X204608212Y-113206787D01*
X204568565Y-113202882D01*
X204562287Y-113201815D01*
X204559280Y-113200615D01*
X204553007Y-113200000D01*
X204545491Y-113200000D01*
X204533144Y-113199393D01*
X204521129Y-113198210D01*
X204514521Y-113197559D01*
X204512532Y-113197286D01*
X204511748Y-113197286D01*
X204509727Y-113197087D01*
X204500001Y-113195372D01*
X204489146Y-113197286D01*
X204484609Y-113198086D01*
X204462730Y-113200000D01*
X200537272Y-113200000D01*
X200515393Y-113198086D01*
X200510856Y-113197286D01*
X200500001Y-113195372D01*
X200490268Y-113197088D01*
X200473075Y-113195735D01*
X200457906Y-113193333D01*
X200420418Y-113181152D01*
X200400224Y-113170863D01*
X200368330Y-113147690D01*
X200352310Y-113131670D01*
X200329137Y-113099776D01*
X200318848Y-113079582D01*
X200306667Y-113042093D01*
X200304265Y-113026928D01*
X200302912Y-113009732D01*
X200304628Y-112999999D01*
X200301914Y-112984607D01*
X200300000Y-112962728D01*
X200300000Y-105909646D01*
X205393750Y-105909646D01*
X205396868Y-105935846D01*
X205400706Y-105944486D01*
X205400706Y-105944487D01*
X205420942Y-105990045D01*
X205442311Y-106038153D01*
X205450544Y-106046372D01*
X205450545Y-106046373D01*
X205465903Y-106061704D01*
X205521537Y-106117241D01*
X205532174Y-106121944D01*
X205532176Y-106121945D01*
X205581962Y-106143955D01*
X205623923Y-106162506D01*
X205649604Y-106165500D01*
X205787750Y-106165500D01*
X205855871Y-106185502D01*
X205902364Y-106239158D01*
X205913750Y-106291500D01*
X205913750Y-106344069D01*
X205912422Y-106355954D01*
X205912932Y-106355995D01*
X205912212Y-106364941D01*
X205910231Y-106373697D01*
X205910787Y-106382657D01*
X205913508Y-106426514D01*
X205913750Y-106434317D01*
X205913750Y-106450190D01*
X205914385Y-106454624D01*
X205915198Y-106460300D01*
X205916228Y-106470356D01*
X205919109Y-106516788D01*
X205922157Y-106525232D01*
X205922926Y-106528944D01*
X205926593Y-106543649D01*
X205927654Y-106547277D01*
X205928927Y-106556168D01*
X205948189Y-106598532D01*
X205951996Y-106607887D01*
X205964741Y-106643193D01*
X205964743Y-106643197D01*
X205967790Y-106651637D01*
X205973085Y-106658885D01*
X205974861Y-106662225D01*
X205982524Y-106675339D01*
X205984553Y-106678511D01*
X205988266Y-106686678D01*
X205994121Y-106693473D01*
X205994123Y-106693476D01*
X206018637Y-106721925D01*
X206024925Y-106729845D01*
X206032772Y-106740586D01*
X206043515Y-106751329D01*
X206049873Y-106758175D01*
X206081850Y-106795287D01*
X206089384Y-106800170D01*
X206096146Y-106806069D01*
X206096142Y-106806074D01*
X206107236Y-106815050D01*
X207603091Y-108310905D01*
X207637117Y-108373217D01*
X207632052Y-108444032D01*
X207603091Y-108489095D01*
X206553720Y-109538466D01*
X206544376Y-109545932D01*
X206544708Y-109546322D01*
X206537872Y-109552140D01*
X206530280Y-109556930D01*
X206524338Y-109563658D01*
X206524337Y-109563659D01*
X206495245Y-109596600D01*
X206489898Y-109602288D01*
X206478680Y-109613506D01*
X206475991Y-109617094D01*
X206475990Y-109617095D01*
X206472550Y-109621684D01*
X206466168Y-109629523D01*
X206435377Y-109664388D01*
X206431563Y-109672511D01*
X206429492Y-109675664D01*
X206421673Y-109688676D01*
X206419856Y-109691995D01*
X206414474Y-109699176D01*
X206400438Y-109736618D01*
X206398144Y-109742736D01*
X206394217Y-109752053D01*
X206378263Y-109786034D01*
X206378262Y-109786037D01*
X206374447Y-109794163D01*
X206373065Y-109803037D01*
X206371961Y-109806650D01*
X206368115Y-109821307D01*
X206367301Y-109825010D01*
X206364148Y-109833420D01*
X206360698Y-109879843D01*
X206359548Y-109889856D01*
X206357500Y-109903009D01*
X206357500Y-109918204D01*
X206357154Y-109927541D01*
X206353524Y-109976392D01*
X206355397Y-109985168D01*
X206356008Y-109994125D01*
X206356002Y-109994125D01*
X206357500Y-110008318D01*
X206357500Y-113318677D01*
X206337498Y-113386798D01*
X206319657Y-113408701D01*
X206296296Y-113431578D01*
X206272724Y-113454661D01*
X206181515Y-113596190D01*
X206179105Y-113602810D01*
X206179104Y-113602813D01*
X206178065Y-113605668D01*
X206123927Y-113754409D01*
X206102825Y-113921455D01*
X206103512Y-113928462D01*
X206103512Y-113928465D01*
X206110526Y-113999999D01*
X206119255Y-114089025D01*
X206172402Y-114248791D01*
X206176049Y-114254813D01*
X206176050Y-114254815D01*
X206216701Y-114321937D01*
X206259624Y-114392812D01*
X206264513Y-114397875D01*
X206264514Y-114397876D01*
X206304624Y-114439411D01*
X206376586Y-114513929D01*
X206382483Y-114517788D01*
X206511577Y-114602266D01*
X206511581Y-114602268D01*
X206517475Y-114606125D01*
X206675289Y-114664815D01*
X206682270Y-114665746D01*
X206682272Y-114665747D01*
X206727812Y-114671823D01*
X206842183Y-114687083D01*
X206849194Y-114686445D01*
X206849198Y-114686445D01*
X207002843Y-114672462D01*
X207009864Y-114671823D01*
X207016566Y-114669645D01*
X207016568Y-114669645D01*
X207163298Y-114621970D01*
X207163301Y-114621969D01*
X207169997Y-114619793D01*
X207314623Y-114533578D01*
X207319717Y-114528727D01*
X207319721Y-114528724D01*
X207431454Y-114422322D01*
X207431455Y-114422320D01*
X207436554Y-114417465D01*
X207452934Y-114392812D01*
X207525836Y-114283085D01*
X207529731Y-114277223D01*
X207589521Y-114119823D01*
X207607729Y-113990273D01*
X207612404Y-113957010D01*
X207612404Y-113957006D01*
X207612955Y-113953088D01*
X207613249Y-113932000D01*
X207608982Y-113893955D01*
X207595266Y-113771672D01*
X207595265Y-113771669D01*
X207594481Y-113764676D01*
X207539108Y-113605668D01*
X207449884Y-113462879D01*
X207441723Y-113454661D01*
X207395094Y-113407705D01*
X207361287Y-113345274D01*
X207358500Y-113318921D01*
X207358500Y-110201504D01*
X207378502Y-110133383D01*
X207395405Y-110112409D01*
X208317330Y-109190484D01*
X208379642Y-109156458D01*
X208395006Y-109154098D01*
X208551864Y-109139823D01*
X208558566Y-109137645D01*
X208558568Y-109137645D01*
X208705298Y-109089970D01*
X208705301Y-109089969D01*
X208711997Y-109087793D01*
X208856623Y-109001578D01*
X208861717Y-108996727D01*
X208861721Y-108996724D01*
X208973454Y-108890322D01*
X208973455Y-108890320D01*
X208978554Y-108885465D01*
X209071731Y-108745223D01*
X209131521Y-108587823D01*
X209154955Y-108421088D01*
X209155249Y-108400000D01*
X209136481Y-108232676D01*
X209081108Y-108073668D01*
X208991884Y-107930879D01*
X208986920Y-107925880D01*
X208878205Y-107816403D01*
X208878201Y-107816400D01*
X208873242Y-107811406D01*
X208731079Y-107721187D01*
X208572462Y-107664706D01*
X208565474Y-107663873D01*
X208565471Y-107663872D01*
X208446589Y-107649696D01*
X208405273Y-107644769D01*
X208402910Y-107645017D01*
X208336699Y-107625074D01*
X208316462Y-107608648D01*
X207660460Y-106952646D01*
X230091500Y-106952646D01*
X230094618Y-106978846D01*
X230140061Y-107081153D01*
X230148294Y-107089372D01*
X230148295Y-107089373D01*
X230174363Y-107115395D01*
X230219287Y-107160241D01*
X230229924Y-107164944D01*
X230229926Y-107164945D01*
X230267382Y-107181504D01*
X230321673Y-107205506D01*
X230347354Y-107208500D01*
X232136646Y-107208500D01*
X232140350Y-107208059D01*
X232140353Y-107208059D01*
X232147746Y-107207179D01*
X232162846Y-107205382D01*
X232265153Y-107159939D01*
X232344241Y-107080713D01*
X232389506Y-106978327D01*
X232392500Y-106952646D01*
X232392500Y-106268673D01*
X232412502Y-106200552D01*
X232466158Y-106154059D01*
X232536432Y-106143955D01*
X232601012Y-106173449D01*
X232639396Y-106233175D01*
X232640658Y-106238784D01*
X232640796Y-106238749D01*
X232690465Y-106434317D01*
X232692845Y-106443690D01*
X232695262Y-106448933D01*
X232734016Y-106532998D01*
X232781369Y-106635714D01*
X232903405Y-106808391D01*
X232907539Y-106812418D01*
X233047727Y-106948983D01*
X233054865Y-106955937D01*
X233059661Y-106959142D01*
X233059664Y-106959144D01*
X233202936Y-107054875D01*
X233230677Y-107073411D01*
X233235985Y-107075692D01*
X233235986Y-107075692D01*
X233419650Y-107154600D01*
X233419653Y-107154601D01*
X233424953Y-107156878D01*
X233430582Y-107158152D01*
X233430583Y-107158152D01*
X233625550Y-107202269D01*
X233625553Y-107202269D01*
X233631186Y-107203544D01*
X233636957Y-107203771D01*
X233636959Y-107203771D01*
X233698989Y-107206208D01*
X233842470Y-107211846D01*
X233848179Y-107211018D01*
X233848183Y-107211018D01*
X234046015Y-107182333D01*
X234046019Y-107182332D01*
X234051730Y-107181504D01*
X234138579Y-107152023D01*
X234246483Y-107115395D01*
X234246488Y-107115393D01*
X234251955Y-107113537D01*
X234295103Y-107089373D01*
X234431395Y-107013046D01*
X234431399Y-107013043D01*
X234436442Y-107010219D01*
X234599012Y-106875012D01*
X234734219Y-106712442D01*
X234737043Y-106707399D01*
X234737046Y-106707395D01*
X234834713Y-106532998D01*
X234834714Y-106532996D01*
X234837537Y-106527955D01*
X234839393Y-106522488D01*
X234839395Y-106522483D01*
X234889900Y-106373697D01*
X234905504Y-106327730D01*
X234906874Y-106318283D01*
X234927090Y-106178860D01*
X234956660Y-106114315D01*
X235016432Y-106076003D01*
X235087429Y-106076087D01*
X235147109Y-106114542D01*
X235176525Y-106179158D01*
X235177515Y-106188695D01*
X235180796Y-106238749D01*
X235182217Y-106244345D01*
X235182218Y-106244350D01*
X235231424Y-106438095D01*
X235232845Y-106443690D01*
X235235262Y-106448933D01*
X235274016Y-106532998D01*
X235321369Y-106635714D01*
X235443405Y-106808391D01*
X235447539Y-106812418D01*
X235587727Y-106948983D01*
X235594865Y-106955937D01*
X235599661Y-106959142D01*
X235599664Y-106959144D01*
X235742936Y-107054875D01*
X235770677Y-107073411D01*
X235775985Y-107075692D01*
X235775986Y-107075692D01*
X235959650Y-107154600D01*
X235959653Y-107154601D01*
X235964953Y-107156878D01*
X235970582Y-107158152D01*
X235970583Y-107158152D01*
X236165550Y-107202269D01*
X236165553Y-107202269D01*
X236171186Y-107203544D01*
X236176957Y-107203771D01*
X236176959Y-107203771D01*
X236238989Y-107206208D01*
X236382470Y-107211846D01*
X236388179Y-107211018D01*
X236388183Y-107211018D01*
X236586015Y-107182333D01*
X236586019Y-107182332D01*
X236591730Y-107181504D01*
X236678579Y-107152023D01*
X236786483Y-107115395D01*
X236786488Y-107115393D01*
X236791955Y-107113537D01*
X236835103Y-107089373D01*
X236971395Y-107013046D01*
X236971399Y-107013043D01*
X236976442Y-107010219D01*
X237139012Y-106875012D01*
X237274219Y-106712442D01*
X237277043Y-106707399D01*
X237277046Y-106707395D01*
X237374713Y-106532998D01*
X237374714Y-106532996D01*
X237377537Y-106527955D01*
X237379393Y-106522488D01*
X237379395Y-106522483D01*
X237429900Y-106373697D01*
X237445504Y-106327730D01*
X237446874Y-106318283D01*
X237467090Y-106178860D01*
X237496660Y-106114315D01*
X237556432Y-106076003D01*
X237627429Y-106076087D01*
X237687109Y-106114542D01*
X237716525Y-106179158D01*
X237717515Y-106188695D01*
X237720796Y-106238749D01*
X237722217Y-106244345D01*
X237722218Y-106244350D01*
X237771424Y-106438095D01*
X237772845Y-106443690D01*
X237775262Y-106448933D01*
X237814016Y-106532998D01*
X237861369Y-106635714D01*
X237983405Y-106808391D01*
X237987539Y-106812418D01*
X238127727Y-106948983D01*
X238134865Y-106955937D01*
X238139661Y-106959142D01*
X238139664Y-106959144D01*
X238282936Y-107054875D01*
X238310677Y-107073411D01*
X238315985Y-107075692D01*
X238315986Y-107075692D01*
X238499650Y-107154600D01*
X238499653Y-107154601D01*
X238504953Y-107156878D01*
X238510582Y-107158152D01*
X238510583Y-107158152D01*
X238705550Y-107202269D01*
X238705553Y-107202269D01*
X238711186Y-107203544D01*
X238716957Y-107203771D01*
X238716959Y-107203771D01*
X238778989Y-107206208D01*
X238922470Y-107211846D01*
X238928179Y-107211018D01*
X238928183Y-107211018D01*
X239126015Y-107182333D01*
X239126019Y-107182332D01*
X239131730Y-107181504D01*
X239218579Y-107152023D01*
X239326483Y-107115395D01*
X239326488Y-107115393D01*
X239331955Y-107113537D01*
X239375103Y-107089373D01*
X239511395Y-107013046D01*
X239511399Y-107013043D01*
X239516442Y-107010219D01*
X239679012Y-106875012D01*
X239814219Y-106712442D01*
X239817043Y-106707399D01*
X239817046Y-106707395D01*
X239914713Y-106532998D01*
X239914714Y-106532996D01*
X239917537Y-106527955D01*
X239919393Y-106522488D01*
X239919395Y-106522483D01*
X239969900Y-106373697D01*
X239985504Y-106327730D01*
X239990758Y-106291500D01*
X240015314Y-106122140D01*
X240015314Y-106122138D01*
X240015846Y-106118470D01*
X240017429Y-106058000D01*
X239998081Y-105847440D01*
X239940686Y-105643931D01*
X239929553Y-105621354D01*
X239849719Y-105459469D01*
X239847165Y-105454290D01*
X239720651Y-105284867D01*
X239593236Y-105167086D01*
X239569622Y-105145257D01*
X239569620Y-105145255D01*
X239565381Y-105141337D01*
X239532014Y-105120284D01*
X239391434Y-105031584D01*
X239391433Y-105031584D01*
X239386554Y-105028505D01*
X239190160Y-104950152D01*
X239184503Y-104949027D01*
X239184497Y-104949025D01*
X238988442Y-104910028D01*
X238988440Y-104910028D01*
X238982775Y-104908901D01*
X238977000Y-104908825D01*
X238976996Y-104908825D01*
X238870976Y-104907437D01*
X238771346Y-104906133D01*
X238765649Y-104907112D01*
X238765648Y-104907112D01*
X238568650Y-104940962D01*
X238568649Y-104940962D01*
X238562953Y-104941941D01*
X238364575Y-105015127D01*
X238359614Y-105018079D01*
X238359613Y-105018079D01*
X238313553Y-105045482D01*
X238182856Y-105123238D01*
X238023881Y-105262655D01*
X237892976Y-105428708D01*
X237890287Y-105433819D01*
X237890285Y-105433822D01*
X237876792Y-105459469D01*
X237794523Y-105615836D01*
X237731820Y-105817773D01*
X237731141Y-105823510D01*
X237717088Y-105942239D01*
X237689217Y-106007537D01*
X237630469Y-106047401D01*
X237559494Y-106049174D01*
X237498828Y-106012295D01*
X237467730Y-105948471D01*
X237466490Y-105938958D01*
X237466157Y-105935327D01*
X237458081Y-105847440D01*
X237400686Y-105643931D01*
X237389553Y-105621354D01*
X237309719Y-105459469D01*
X237307165Y-105454290D01*
X237180651Y-105284867D01*
X237053236Y-105167086D01*
X237029622Y-105145257D01*
X237029620Y-105145255D01*
X237025381Y-105141337D01*
X236992014Y-105120284D01*
X236851434Y-105031584D01*
X236851433Y-105031584D01*
X236846554Y-105028505D01*
X236650160Y-104950152D01*
X236644503Y-104949027D01*
X236644497Y-104949025D01*
X236448442Y-104910028D01*
X236448440Y-104910028D01*
X236442775Y-104908901D01*
X236437000Y-104908825D01*
X236436996Y-104908825D01*
X236330976Y-104907437D01*
X236231346Y-104906133D01*
X236225649Y-104907112D01*
X236225648Y-104907112D01*
X236028650Y-104940962D01*
X236028649Y-104940962D01*
X236022953Y-104941941D01*
X235824575Y-105015127D01*
X235819614Y-105018079D01*
X235819613Y-105018079D01*
X235773553Y-105045482D01*
X235642856Y-105123238D01*
X235483881Y-105262655D01*
X235352976Y-105428708D01*
X235350287Y-105433819D01*
X235350285Y-105433822D01*
X235336792Y-105459469D01*
X235254523Y-105615836D01*
X235191820Y-105817773D01*
X235191141Y-105823510D01*
X235177088Y-105942239D01*
X235149217Y-106007537D01*
X235090469Y-106047401D01*
X235019494Y-106049174D01*
X234958828Y-106012295D01*
X234927730Y-105948471D01*
X234926490Y-105938958D01*
X234926157Y-105935327D01*
X234918081Y-105847440D01*
X234860686Y-105643931D01*
X234849553Y-105621354D01*
X234769719Y-105459469D01*
X234767165Y-105454290D01*
X234640651Y-105284867D01*
X234513236Y-105167086D01*
X234489622Y-105145257D01*
X234489620Y-105145255D01*
X234485381Y-105141337D01*
X234452014Y-105120284D01*
X234311434Y-105031584D01*
X234311433Y-105031584D01*
X234306554Y-105028505D01*
X234110160Y-104950152D01*
X234104503Y-104949027D01*
X234104497Y-104949025D01*
X233908442Y-104910028D01*
X233908440Y-104910028D01*
X233902775Y-104908901D01*
X233897000Y-104908825D01*
X233896996Y-104908825D01*
X233790976Y-104907437D01*
X233691346Y-104906133D01*
X233685649Y-104907112D01*
X233685648Y-104907112D01*
X233488650Y-104940962D01*
X233488649Y-104940962D01*
X233482953Y-104941941D01*
X233284575Y-105015127D01*
X233279614Y-105018079D01*
X233279613Y-105018079D01*
X233233553Y-105045482D01*
X233102856Y-105123238D01*
X232943881Y-105262655D01*
X232812976Y-105428708D01*
X232810287Y-105433819D01*
X232810285Y-105433822D01*
X232796792Y-105459469D01*
X232714523Y-105615836D01*
X232651820Y-105817773D01*
X232651141Y-105823510D01*
X232643627Y-105886995D01*
X232615756Y-105952292D01*
X232557008Y-105992156D01*
X232486034Y-105993930D01*
X232425367Y-105957051D01*
X232394269Y-105893227D01*
X232392500Y-105872185D01*
X232392500Y-105163354D01*
X232389382Y-105137154D01*
X232343939Y-105034847D01*
X232335444Y-105026366D01*
X232272945Y-104963977D01*
X232264713Y-104955759D01*
X232254076Y-104951056D01*
X232254074Y-104951055D01*
X232194538Y-104924735D01*
X232162327Y-104910494D01*
X232136646Y-104907500D01*
X230347354Y-104907500D01*
X230343650Y-104907941D01*
X230343647Y-104907941D01*
X230336254Y-104908821D01*
X230321154Y-104910618D01*
X230312514Y-104914456D01*
X230312513Y-104914456D01*
X230234687Y-104949025D01*
X230218847Y-104956061D01*
X230139759Y-105035287D01*
X230094494Y-105137673D01*
X230091500Y-105163354D01*
X230091500Y-106952646D01*
X207660460Y-106952646D01*
X207088409Y-106380595D01*
X207054383Y-106318283D01*
X207059448Y-106247468D01*
X207101995Y-106190632D01*
X207168515Y-106165821D01*
X207171621Y-106165710D01*
X207175164Y-106165500D01*
X207178896Y-106165500D01*
X207182600Y-106165059D01*
X207182603Y-106165059D01*
X207189996Y-106164179D01*
X207205096Y-106162382D01*
X207240814Y-106146517D01*
X207296768Y-106121663D01*
X207307403Y-106116939D01*
X207323275Y-106101040D01*
X207378273Y-106045945D01*
X207386491Y-106037713D01*
X207397159Y-106013584D01*
X207427925Y-105943992D01*
X207431756Y-105935327D01*
X207434750Y-105909646D01*
X207434750Y-105130683D01*
X207928912Y-105130683D01*
X207945658Y-105330111D01*
X208000822Y-105522489D01*
X208003640Y-105527972D01*
X208089481Y-105695002D01*
X208089484Y-105695006D01*
X208092301Y-105700488D01*
X208216612Y-105857329D01*
X208221306Y-105861324D01*
X208333785Y-105957051D01*
X208369019Y-105987038D01*
X208374397Y-105990044D01*
X208374399Y-105990045D01*
X208440655Y-106027074D01*
X208543717Y-106084673D01*
X208734052Y-106146517D01*
X208932775Y-106170213D01*
X208938910Y-106169741D01*
X208938912Y-106169741D01*
X209126174Y-106155332D01*
X209126179Y-106155331D01*
X209132315Y-106154859D01*
X209138245Y-106153203D01*
X209138247Y-106153203D01*
X209319146Y-106102695D01*
X209319145Y-106102695D01*
X209325074Y-106101040D01*
X209330563Y-106098267D01*
X209330569Y-106098265D01*
X209455255Y-106035281D01*
X209503707Y-106010806D01*
X209525308Y-105993930D01*
X209656556Y-105891387D01*
X209661412Y-105887593D01*
X209721679Y-105817773D01*
X209788152Y-105740764D01*
X209788153Y-105740762D01*
X209792181Y-105736096D01*
X209891034Y-105562083D01*
X209954205Y-105372184D01*
X209979288Y-105173632D01*
X209979688Y-105145000D01*
X209978284Y-105130683D01*
X213008912Y-105130683D01*
X213025658Y-105330111D01*
X213080822Y-105522489D01*
X213083640Y-105527972D01*
X213169481Y-105695002D01*
X213169484Y-105695006D01*
X213172301Y-105700488D01*
X213296612Y-105857329D01*
X213301306Y-105861324D01*
X213413785Y-105957051D01*
X213449019Y-105987038D01*
X213454397Y-105990044D01*
X213454399Y-105990045D01*
X213520655Y-106027074D01*
X213623717Y-106084673D01*
X213814052Y-106146517D01*
X214012775Y-106170213D01*
X214018910Y-106169741D01*
X214018912Y-106169741D01*
X214206174Y-106155332D01*
X214206179Y-106155331D01*
X214212315Y-106154859D01*
X214218245Y-106153203D01*
X214218247Y-106153203D01*
X214399146Y-106102695D01*
X214399145Y-106102695D01*
X214405074Y-106101040D01*
X214410563Y-106098267D01*
X214410569Y-106098265D01*
X214535255Y-106035281D01*
X214583707Y-106010806D01*
X214605308Y-105993930D01*
X214736556Y-105891387D01*
X214741412Y-105887593D01*
X214801679Y-105817773D01*
X214868152Y-105740764D01*
X214868153Y-105740762D01*
X214872181Y-105736096D01*
X214971034Y-105562083D01*
X215034205Y-105372184D01*
X215059288Y-105173632D01*
X215059688Y-105145000D01*
X215040159Y-104945825D01*
X214982315Y-104754236D01*
X214888359Y-104577531D01*
X214884465Y-104572756D01*
X214884458Y-104572746D01*
X214828857Y-104504573D01*
X214801303Y-104439142D01*
X214800500Y-104424938D01*
X214800500Y-102344754D01*
X222974967Y-102344754D01*
X222988796Y-102555749D01*
X222990217Y-102561345D01*
X222990218Y-102561350D01*
X223012784Y-102650200D01*
X223040845Y-102760690D01*
X223129369Y-102952714D01*
X223251405Y-103125391D01*
X223255539Y-103129418D01*
X223395727Y-103265983D01*
X223402865Y-103272937D01*
X223407661Y-103276142D01*
X223407664Y-103276144D01*
X223549800Y-103371116D01*
X223578677Y-103390411D01*
X223583985Y-103392692D01*
X223583986Y-103392692D01*
X223767650Y-103471600D01*
X223767653Y-103471601D01*
X223772953Y-103473878D01*
X223778582Y-103475152D01*
X223778583Y-103475152D01*
X223973550Y-103519269D01*
X223973553Y-103519269D01*
X223979186Y-103520544D01*
X223984957Y-103520771D01*
X223984959Y-103520771D01*
X224046989Y-103523208D01*
X224190470Y-103528846D01*
X224196179Y-103528018D01*
X224196183Y-103528018D01*
X224394015Y-103499333D01*
X224394019Y-103499332D01*
X224399730Y-103498504D01*
X224486579Y-103469023D01*
X224594483Y-103432395D01*
X224594488Y-103432393D01*
X224599955Y-103430537D01*
X224643103Y-103406373D01*
X224779395Y-103330046D01*
X224779399Y-103330043D01*
X224784442Y-103327219D01*
X224947012Y-103192012D01*
X225082219Y-103029442D01*
X225085043Y-103024399D01*
X225085046Y-103024395D01*
X225182713Y-102849998D01*
X225182714Y-102849996D01*
X225185537Y-102844955D01*
X225187393Y-102839488D01*
X225187395Y-102839483D01*
X225251647Y-102650200D01*
X225253504Y-102644730D01*
X225265594Y-102561350D01*
X225275090Y-102495860D01*
X225304660Y-102431315D01*
X225364432Y-102393003D01*
X225435429Y-102393087D01*
X225495109Y-102431542D01*
X225524525Y-102496158D01*
X225525515Y-102505695D01*
X225528796Y-102555749D01*
X225530217Y-102561345D01*
X225530218Y-102561350D01*
X225552784Y-102650200D01*
X225580845Y-102760690D01*
X225669369Y-102952714D01*
X225791405Y-103125391D01*
X225795539Y-103129418D01*
X225935727Y-103265983D01*
X225942865Y-103272937D01*
X225947661Y-103276142D01*
X225947664Y-103276144D01*
X226089800Y-103371116D01*
X226118677Y-103390411D01*
X226123985Y-103392692D01*
X226123986Y-103392692D01*
X226307650Y-103471600D01*
X226307653Y-103471601D01*
X226312953Y-103473878D01*
X226318582Y-103475152D01*
X226318583Y-103475152D01*
X226513550Y-103519269D01*
X226513553Y-103519269D01*
X226519186Y-103520544D01*
X226524957Y-103520771D01*
X226524959Y-103520771D01*
X226586989Y-103523208D01*
X226730470Y-103528846D01*
X226736179Y-103528018D01*
X226736183Y-103528018D01*
X226934015Y-103499333D01*
X226934019Y-103499332D01*
X226939730Y-103498504D01*
X227026579Y-103469023D01*
X227134483Y-103432395D01*
X227134488Y-103432393D01*
X227139955Y-103430537D01*
X227183103Y-103406373D01*
X227319395Y-103330046D01*
X227319399Y-103330043D01*
X227324442Y-103327219D01*
X227393667Y-103269646D01*
X230091500Y-103269646D01*
X230094618Y-103295846D01*
X230140061Y-103398153D01*
X230148294Y-103406372D01*
X230148295Y-103406373D01*
X230174363Y-103432395D01*
X230219287Y-103477241D01*
X230229924Y-103481944D01*
X230229926Y-103481945D01*
X230267382Y-103498504D01*
X230321673Y-103522506D01*
X230347354Y-103525500D01*
X232136646Y-103525500D01*
X232140350Y-103525059D01*
X232140353Y-103525059D01*
X232147746Y-103524179D01*
X232162846Y-103522382D01*
X232265153Y-103476939D01*
X232282149Y-103459914D01*
X232336023Y-103405945D01*
X232344241Y-103397713D01*
X232354643Y-103374186D01*
X232375265Y-103327538D01*
X232389506Y-103295327D01*
X232392500Y-103269646D01*
X232392500Y-102585673D01*
X232412502Y-102517552D01*
X232466158Y-102471059D01*
X232536432Y-102460955D01*
X232601012Y-102490449D01*
X232639396Y-102550175D01*
X232640658Y-102555784D01*
X232640796Y-102555749D01*
X232692845Y-102760690D01*
X232781369Y-102952714D01*
X232903405Y-103125391D01*
X232907539Y-103129418D01*
X233047727Y-103265983D01*
X233054865Y-103272937D01*
X233059661Y-103276142D01*
X233059664Y-103276144D01*
X233201800Y-103371116D01*
X233230677Y-103390411D01*
X233235985Y-103392692D01*
X233235986Y-103392692D01*
X233419650Y-103471600D01*
X233419653Y-103471601D01*
X233424953Y-103473878D01*
X233430582Y-103475152D01*
X233430583Y-103475152D01*
X233625550Y-103519269D01*
X233625553Y-103519269D01*
X233631186Y-103520544D01*
X233636957Y-103520771D01*
X233636959Y-103520771D01*
X233698989Y-103523208D01*
X233842470Y-103528846D01*
X233848179Y-103528018D01*
X233848183Y-103528018D01*
X234046015Y-103499333D01*
X234046019Y-103499332D01*
X234051730Y-103498504D01*
X234138579Y-103469023D01*
X234246483Y-103432395D01*
X234246488Y-103432393D01*
X234251955Y-103430537D01*
X234295103Y-103406373D01*
X234431395Y-103330046D01*
X234431399Y-103330043D01*
X234436442Y-103327219D01*
X234599012Y-103192012D01*
X234734219Y-103029442D01*
X234737043Y-103024399D01*
X234737046Y-103024395D01*
X234834713Y-102849998D01*
X234834714Y-102849996D01*
X234837537Y-102844955D01*
X234839393Y-102839488D01*
X234839395Y-102839483D01*
X234903647Y-102650200D01*
X234905504Y-102644730D01*
X234917594Y-102561350D01*
X234927090Y-102495860D01*
X234956660Y-102431315D01*
X235016432Y-102393003D01*
X235087429Y-102393087D01*
X235147109Y-102431542D01*
X235176525Y-102496158D01*
X235177515Y-102505695D01*
X235180796Y-102555749D01*
X235182217Y-102561345D01*
X235182218Y-102561350D01*
X235204784Y-102650200D01*
X235232845Y-102760690D01*
X235321369Y-102952714D01*
X235443405Y-103125391D01*
X235447539Y-103129418D01*
X235587727Y-103265983D01*
X235594865Y-103272937D01*
X235599661Y-103276142D01*
X235599664Y-103276144D01*
X235741800Y-103371116D01*
X235770677Y-103390411D01*
X235775985Y-103392692D01*
X235775986Y-103392692D01*
X235959650Y-103471600D01*
X235959653Y-103471601D01*
X235964953Y-103473878D01*
X235970582Y-103475152D01*
X235970583Y-103475152D01*
X236165550Y-103519269D01*
X236165553Y-103519269D01*
X236171186Y-103520544D01*
X236176957Y-103520771D01*
X236176959Y-103520771D01*
X236238989Y-103523208D01*
X236382470Y-103528846D01*
X236388179Y-103528018D01*
X236388183Y-103528018D01*
X236586015Y-103499333D01*
X236586019Y-103499332D01*
X236591730Y-103498504D01*
X236678579Y-103469023D01*
X236786483Y-103432395D01*
X236786488Y-103432393D01*
X236791955Y-103430537D01*
X236835103Y-103406373D01*
X236971395Y-103330046D01*
X236971399Y-103330043D01*
X236976442Y-103327219D01*
X237139012Y-103192012D01*
X237274219Y-103029442D01*
X237277043Y-103024399D01*
X237277046Y-103024395D01*
X237374713Y-102849998D01*
X237374714Y-102849996D01*
X237377537Y-102844955D01*
X237379393Y-102839488D01*
X237379395Y-102839483D01*
X237443647Y-102650200D01*
X237445504Y-102644730D01*
X237457594Y-102561350D01*
X237467090Y-102495860D01*
X237496660Y-102431315D01*
X237556432Y-102393003D01*
X237627429Y-102393087D01*
X237687109Y-102431542D01*
X237716525Y-102496158D01*
X237717515Y-102505695D01*
X237720796Y-102555749D01*
X237722217Y-102561345D01*
X237722218Y-102561350D01*
X237744784Y-102650200D01*
X237772845Y-102760690D01*
X237861369Y-102952714D01*
X237983405Y-103125391D01*
X237987539Y-103129418D01*
X238127727Y-103265983D01*
X238134865Y-103272937D01*
X238139661Y-103276142D01*
X238139664Y-103276144D01*
X238281800Y-103371116D01*
X238310677Y-103390411D01*
X238315985Y-103392692D01*
X238315986Y-103392692D01*
X238499650Y-103471600D01*
X238499653Y-103471601D01*
X238504953Y-103473878D01*
X238510582Y-103475152D01*
X238510583Y-103475152D01*
X238705550Y-103519269D01*
X238705553Y-103519269D01*
X238711186Y-103520544D01*
X238716957Y-103520771D01*
X238716959Y-103520771D01*
X238778989Y-103523208D01*
X238922470Y-103528846D01*
X238928179Y-103528018D01*
X238928183Y-103528018D01*
X239126015Y-103499333D01*
X239126019Y-103499332D01*
X239131730Y-103498504D01*
X239218579Y-103469023D01*
X239326483Y-103432395D01*
X239326488Y-103432393D01*
X239331955Y-103430537D01*
X239375103Y-103406373D01*
X239511395Y-103330046D01*
X239511399Y-103330043D01*
X239516442Y-103327219D01*
X239679012Y-103192012D01*
X239814219Y-103029442D01*
X239817043Y-103024399D01*
X239817046Y-103024395D01*
X239914713Y-102849998D01*
X239914714Y-102849996D01*
X239917537Y-102844955D01*
X239919393Y-102839488D01*
X239919395Y-102839483D01*
X239983647Y-102650200D01*
X239985504Y-102644730D01*
X239998042Y-102558264D01*
X240015314Y-102439140D01*
X240015314Y-102439138D01*
X240015846Y-102435470D01*
X240017429Y-102375000D01*
X239998081Y-102164440D01*
X239992769Y-102145603D01*
X239980690Y-102102775D01*
X239940686Y-101960931D01*
X239929553Y-101938354D01*
X239849719Y-101776469D01*
X239847165Y-101771290D01*
X239720651Y-101601867D01*
X239593236Y-101484086D01*
X239569622Y-101462257D01*
X239569620Y-101462255D01*
X239565381Y-101458337D01*
X239532014Y-101437284D01*
X239391434Y-101348584D01*
X239391433Y-101348584D01*
X239386554Y-101345505D01*
X239190160Y-101267152D01*
X239184503Y-101266027D01*
X239184497Y-101266025D01*
X238988442Y-101227028D01*
X238988440Y-101227028D01*
X238982775Y-101225901D01*
X238977000Y-101225825D01*
X238976996Y-101225825D01*
X238870976Y-101224437D01*
X238771346Y-101223133D01*
X238765649Y-101224112D01*
X238765648Y-101224112D01*
X238568650Y-101257962D01*
X238568649Y-101257962D01*
X238562953Y-101258941D01*
X238364575Y-101332127D01*
X238359614Y-101335079D01*
X238359613Y-101335079D01*
X238313553Y-101362482D01*
X238182856Y-101440238D01*
X238023881Y-101579655D01*
X237892976Y-101745708D01*
X237890287Y-101750819D01*
X237890285Y-101750822D01*
X237868213Y-101792775D01*
X237794523Y-101932836D01*
X237731820Y-102134773D01*
X237731141Y-102140510D01*
X237717088Y-102259239D01*
X237689217Y-102324537D01*
X237630469Y-102364401D01*
X237559494Y-102366174D01*
X237498828Y-102329295D01*
X237467730Y-102265471D01*
X237466490Y-102255958D01*
X237463643Y-102224966D01*
X237458081Y-102164440D01*
X237452769Y-102145603D01*
X237440690Y-102102775D01*
X237400686Y-101960931D01*
X237389553Y-101938354D01*
X237309719Y-101776469D01*
X237307165Y-101771290D01*
X237180651Y-101601867D01*
X237053236Y-101484086D01*
X237029622Y-101462257D01*
X237029620Y-101462255D01*
X237025381Y-101458337D01*
X236992014Y-101437284D01*
X236851434Y-101348584D01*
X236851433Y-101348584D01*
X236846554Y-101345505D01*
X236650160Y-101267152D01*
X236644503Y-101266027D01*
X236644497Y-101266025D01*
X236448442Y-101227028D01*
X236448440Y-101227028D01*
X236442775Y-101225901D01*
X236437000Y-101225825D01*
X236436996Y-101225825D01*
X236330976Y-101224437D01*
X236231346Y-101223133D01*
X236225649Y-101224112D01*
X236225648Y-101224112D01*
X236028650Y-101257962D01*
X236028649Y-101257962D01*
X236022953Y-101258941D01*
X235824575Y-101332127D01*
X235819614Y-101335079D01*
X235819613Y-101335079D01*
X235773553Y-101362482D01*
X235642856Y-101440238D01*
X235483881Y-101579655D01*
X235352976Y-101745708D01*
X235350287Y-101750819D01*
X235350285Y-101750822D01*
X235328213Y-101792775D01*
X235254523Y-101932836D01*
X235191820Y-102134773D01*
X235191141Y-102140510D01*
X235177088Y-102259239D01*
X235149217Y-102324537D01*
X235090469Y-102364401D01*
X235019494Y-102366174D01*
X234958828Y-102329295D01*
X234927730Y-102265471D01*
X234926490Y-102255958D01*
X234923643Y-102224966D01*
X234918081Y-102164440D01*
X234912769Y-102145603D01*
X234900690Y-102102775D01*
X234860686Y-101960931D01*
X234849553Y-101938354D01*
X234769719Y-101776469D01*
X234767165Y-101771290D01*
X234640651Y-101601867D01*
X234513236Y-101484086D01*
X234489622Y-101462257D01*
X234489620Y-101462255D01*
X234485381Y-101458337D01*
X234452014Y-101437284D01*
X234311434Y-101348584D01*
X234311433Y-101348584D01*
X234306554Y-101345505D01*
X234110160Y-101267152D01*
X234104503Y-101266027D01*
X234104497Y-101266025D01*
X233908442Y-101227028D01*
X233908440Y-101227028D01*
X233902775Y-101225901D01*
X233897000Y-101225825D01*
X233896996Y-101225825D01*
X233790976Y-101224437D01*
X233691346Y-101223133D01*
X233685649Y-101224112D01*
X233685648Y-101224112D01*
X233488650Y-101257962D01*
X233488649Y-101257962D01*
X233482953Y-101258941D01*
X233284575Y-101332127D01*
X233279614Y-101335079D01*
X233279613Y-101335079D01*
X233233553Y-101362482D01*
X233102856Y-101440238D01*
X232943881Y-101579655D01*
X232812976Y-101745708D01*
X232810287Y-101750819D01*
X232810285Y-101750822D01*
X232788213Y-101792775D01*
X232714523Y-101932836D01*
X232651820Y-102134773D01*
X232647627Y-102170197D01*
X232643627Y-102203995D01*
X232615756Y-102269292D01*
X232557008Y-102309156D01*
X232486034Y-102310930D01*
X232425367Y-102274051D01*
X232394269Y-102210227D01*
X232392500Y-102189185D01*
X232392500Y-101480354D01*
X232389382Y-101454154D01*
X232343939Y-101351847D01*
X232335444Y-101343366D01*
X232272945Y-101280977D01*
X232264713Y-101272759D01*
X232254076Y-101268056D01*
X232254074Y-101268055D01*
X232194538Y-101241735D01*
X232162327Y-101227494D01*
X232136646Y-101224500D01*
X230347354Y-101224500D01*
X230343650Y-101224941D01*
X230343647Y-101224941D01*
X230336254Y-101225821D01*
X230321154Y-101227618D01*
X230312514Y-101231456D01*
X230312513Y-101231456D01*
X230246131Y-101260942D01*
X230218847Y-101273061D01*
X230139759Y-101352287D01*
X230094494Y-101454673D01*
X230091500Y-101480354D01*
X230091500Y-103269646D01*
X227393667Y-103269646D01*
X227487012Y-103192012D01*
X227622219Y-103029442D01*
X227625043Y-103024399D01*
X227625046Y-103024395D01*
X227722713Y-102849998D01*
X227722714Y-102849996D01*
X227725537Y-102844955D01*
X227727393Y-102839488D01*
X227727395Y-102839483D01*
X227791647Y-102650200D01*
X227793504Y-102644730D01*
X227806042Y-102558264D01*
X227823314Y-102439140D01*
X227823314Y-102439138D01*
X227823846Y-102435470D01*
X227825429Y-102375000D01*
X227806081Y-102164440D01*
X227800769Y-102145603D01*
X227788690Y-102102775D01*
X227748686Y-101960931D01*
X227737553Y-101938354D01*
X227657719Y-101776469D01*
X227655165Y-101771290D01*
X227528651Y-101601867D01*
X227401236Y-101484086D01*
X227377622Y-101462257D01*
X227377620Y-101462255D01*
X227373381Y-101458337D01*
X227340014Y-101437284D01*
X227199434Y-101348584D01*
X227199433Y-101348584D01*
X227194554Y-101345505D01*
X226998160Y-101267152D01*
X226992503Y-101266027D01*
X226992497Y-101266025D01*
X226796442Y-101227028D01*
X226796440Y-101227028D01*
X226790775Y-101225901D01*
X226785000Y-101225825D01*
X226784996Y-101225825D01*
X226678976Y-101224437D01*
X226579346Y-101223133D01*
X226573649Y-101224112D01*
X226573648Y-101224112D01*
X226376650Y-101257962D01*
X226376649Y-101257962D01*
X226370953Y-101258941D01*
X226172575Y-101332127D01*
X226167614Y-101335079D01*
X226167613Y-101335079D01*
X226121553Y-101362482D01*
X225990856Y-101440238D01*
X225831881Y-101579655D01*
X225700976Y-101745708D01*
X225698287Y-101750819D01*
X225698285Y-101750822D01*
X225676213Y-101792775D01*
X225602523Y-101932836D01*
X225539820Y-102134773D01*
X225539141Y-102140510D01*
X225525088Y-102259239D01*
X225497217Y-102324537D01*
X225438469Y-102364401D01*
X225367494Y-102366174D01*
X225306828Y-102329295D01*
X225275730Y-102265471D01*
X225274490Y-102255958D01*
X225271643Y-102224966D01*
X225266081Y-102164440D01*
X225260769Y-102145603D01*
X225248690Y-102102775D01*
X225208686Y-101960931D01*
X225197553Y-101938354D01*
X225117719Y-101776469D01*
X225115165Y-101771290D01*
X224988651Y-101601867D01*
X224861236Y-101484086D01*
X224837622Y-101462257D01*
X224837620Y-101462255D01*
X224833381Y-101458337D01*
X224800014Y-101437284D01*
X224659434Y-101348584D01*
X224659433Y-101348584D01*
X224654554Y-101345505D01*
X224458160Y-101267152D01*
X224452503Y-101266027D01*
X224452497Y-101266025D01*
X224256442Y-101227028D01*
X224256440Y-101227028D01*
X224250775Y-101225901D01*
X224245000Y-101225825D01*
X224244996Y-101225825D01*
X224138976Y-101224437D01*
X224039346Y-101223133D01*
X224033649Y-101224112D01*
X224033648Y-101224112D01*
X223836650Y-101257962D01*
X223836649Y-101257962D01*
X223830953Y-101258941D01*
X223632575Y-101332127D01*
X223627614Y-101335079D01*
X223627613Y-101335079D01*
X223581553Y-101362482D01*
X223450856Y-101440238D01*
X223291881Y-101579655D01*
X223160976Y-101745708D01*
X223158287Y-101750819D01*
X223158285Y-101750822D01*
X223136213Y-101792775D01*
X223062523Y-101932836D01*
X222999820Y-102134773D01*
X222974967Y-102344754D01*
X214800500Y-102344754D01*
X214800500Y-101192612D01*
X214808712Y-101147869D01*
X214829019Y-101094410D01*
X214829019Y-101094409D01*
X214831521Y-101087823D01*
X214854955Y-100921088D01*
X214855249Y-100900000D01*
X214836481Y-100732676D01*
X214781108Y-100573668D01*
X214691884Y-100430879D01*
X214683723Y-100422661D01*
X214578205Y-100316403D01*
X214578201Y-100316400D01*
X214573242Y-100311406D01*
X214431079Y-100221187D01*
X214272462Y-100164706D01*
X214265474Y-100163873D01*
X214265471Y-100163872D01*
X214161215Y-100151440D01*
X214105273Y-100144769D01*
X214098270Y-100145505D01*
X214098269Y-100145505D01*
X214063362Y-100149174D01*
X213937821Y-100162369D01*
X213931155Y-100164638D01*
X213931152Y-100164639D01*
X213785098Y-100214360D01*
X213785095Y-100214361D01*
X213778431Y-100216630D01*
X213772436Y-100220318D01*
X213772432Y-100220320D01*
X213641021Y-100301165D01*
X213641019Y-100301167D01*
X213635022Y-100304856D01*
X213514724Y-100422661D01*
X213423515Y-100564190D01*
X213421105Y-100570810D01*
X213421104Y-100570813D01*
X213410003Y-100601312D01*
X213365927Y-100722409D01*
X213344825Y-100889455D01*
X213345512Y-100896462D01*
X213345512Y-100896465D01*
X213348311Y-100925010D01*
X213361255Y-101057025D01*
X213363479Y-101063710D01*
X213393058Y-101152629D01*
X213399500Y-101192401D01*
X213399500Y-104285482D01*
X213379498Y-104353603D01*
X213352453Y-104383678D01*
X213321589Y-104408493D01*
X213321585Y-104408497D01*
X213316789Y-104412353D01*
X213312830Y-104417071D01*
X213312829Y-104417072D01*
X213239406Y-104504573D01*
X213188147Y-104565661D01*
X213091734Y-104741037D01*
X213031220Y-104931799D01*
X213008912Y-105130683D01*
X209978284Y-105130683D01*
X209960159Y-104945825D01*
X209902315Y-104754236D01*
X209808359Y-104577531D01*
X209804459Y-104572750D01*
X209804457Y-104572746D01*
X209683107Y-104423955D01*
X209655553Y-104358524D01*
X209654750Y-104344320D01*
X209654750Y-103988096D01*
X209674752Y-103919975D01*
X209691655Y-103899001D01*
X211475067Y-102115589D01*
X211481333Y-102109735D01*
X211518671Y-102077163D01*
X211524396Y-102072169D01*
X211528761Y-102065958D01*
X211528764Y-102065955D01*
X211560705Y-102020507D01*
X211564638Y-102015212D01*
X211598893Y-101971524D01*
X211603583Y-101965543D01*
X211606711Y-101958616D01*
X211608486Y-101955685D01*
X211615903Y-101942682D01*
X211617519Y-101939668D01*
X211621887Y-101933453D01*
X211624646Y-101926377D01*
X211624648Y-101926373D01*
X211644819Y-101874636D01*
X211647375Y-101868555D01*
X211670231Y-101817935D01*
X211670231Y-101817934D01*
X211673355Y-101811016D01*
X211674739Y-101803550D01*
X211675757Y-101800301D01*
X211679877Y-101785836D01*
X211680717Y-101782563D01*
X211683476Y-101775487D01*
X211691716Y-101712894D01*
X211692748Y-101706377D01*
X211702868Y-101651775D01*
X211704252Y-101644308D01*
X211702072Y-101606491D01*
X211700709Y-101582862D01*
X211700500Y-101575609D01*
X211700500Y-101192612D01*
X211708712Y-101147869D01*
X211729019Y-101094410D01*
X211729019Y-101094409D01*
X211731521Y-101087823D01*
X211754955Y-100921088D01*
X211755249Y-100900000D01*
X211736481Y-100732676D01*
X211681108Y-100573668D01*
X211591884Y-100430879D01*
X211583723Y-100422661D01*
X211478205Y-100316403D01*
X211478201Y-100316400D01*
X211473242Y-100311406D01*
X211331079Y-100221187D01*
X211172462Y-100164706D01*
X211165472Y-100163872D01*
X211165470Y-100163872D01*
X211090309Y-100154909D01*
X211025036Y-100126981D01*
X210985224Y-100068197D01*
X210983512Y-99997221D01*
X211020445Y-99936587D01*
X211086387Y-99905213D01*
X211160097Y-99894065D01*
X211350852Y-99823881D01*
X211387154Y-99801373D01*
X211518176Y-99720137D01*
X211518180Y-99720134D01*
X211523599Y-99716774D01*
X211671280Y-99577119D01*
X211787863Y-99410621D01*
X211868586Y-99224081D01*
X211881439Y-99162559D01*
X211909162Y-99029856D01*
X211909163Y-99029851D01*
X211910151Y-99025120D01*
X211910500Y-99018461D01*
X211910500Y-98970800D01*
X212449500Y-98970800D01*
X212464880Y-99122216D01*
X212525662Y-99316172D01*
X212624203Y-99493944D01*
X212756477Y-99648271D01*
X212761514Y-99652178D01*
X212761516Y-99652180D01*
X212798563Y-99680916D01*
X212917081Y-99772848D01*
X213099455Y-99862587D01*
X213105633Y-99864196D01*
X213105635Y-99864197D01*
X213289966Y-99912212D01*
X213289969Y-99912212D01*
X213296148Y-99913822D01*
X213377328Y-99918076D01*
X213492744Y-99924125D01*
X213492748Y-99924125D01*
X213499126Y-99924459D01*
X213700097Y-99894065D01*
X213890852Y-99823881D01*
X213927154Y-99801373D01*
X214058176Y-99720137D01*
X214058180Y-99720134D01*
X214063599Y-99716774D01*
X214211280Y-99577119D01*
X214327863Y-99410621D01*
X214408586Y-99224081D01*
X214421439Y-99162559D01*
X214449162Y-99029856D01*
X214449163Y-99029851D01*
X214450151Y-99025120D01*
X214450500Y-99018461D01*
X214450500Y-98970800D01*
X214989500Y-98970800D01*
X215004880Y-99122216D01*
X215065662Y-99316172D01*
X215164203Y-99493944D01*
X215296477Y-99648271D01*
X215301514Y-99652178D01*
X215301516Y-99652180D01*
X215338563Y-99680916D01*
X215457081Y-99772848D01*
X215639455Y-99862587D01*
X215645633Y-99864196D01*
X215645635Y-99864197D01*
X215829966Y-99912212D01*
X215829969Y-99912212D01*
X215836148Y-99913822D01*
X215917328Y-99918076D01*
X216032744Y-99924125D01*
X216032748Y-99924125D01*
X216039126Y-99924459D01*
X216240097Y-99894065D01*
X216430852Y-99823881D01*
X216467154Y-99801373D01*
X216598176Y-99720137D01*
X216598180Y-99720134D01*
X216603599Y-99716774D01*
X216751280Y-99577119D01*
X216867863Y-99410621D01*
X216948586Y-99224081D01*
X216961439Y-99162559D01*
X216989162Y-99029856D01*
X216989163Y-99029851D01*
X216990151Y-99025120D01*
X216990500Y-99018461D01*
X216990500Y-98970800D01*
X220069500Y-98970800D01*
X220084880Y-99122216D01*
X220145662Y-99316172D01*
X220244203Y-99493944D01*
X220376477Y-99648271D01*
X220381514Y-99652178D01*
X220381516Y-99652180D01*
X220418563Y-99680916D01*
X220537081Y-99772848D01*
X220719455Y-99862587D01*
X220725633Y-99864196D01*
X220725635Y-99864197D01*
X220909966Y-99912212D01*
X220909969Y-99912212D01*
X220916148Y-99913822D01*
X220997328Y-99918076D01*
X221112744Y-99924125D01*
X221112748Y-99924125D01*
X221119126Y-99924459D01*
X221320097Y-99894065D01*
X221510852Y-99823881D01*
X221547154Y-99801373D01*
X221678176Y-99720137D01*
X221678180Y-99720134D01*
X221683599Y-99716774D01*
X221831280Y-99577119D01*
X221947863Y-99410621D01*
X222028586Y-99224081D01*
X222041439Y-99162559D01*
X222069162Y-99029856D01*
X222069163Y-99029851D01*
X222070151Y-99025120D01*
X222070500Y-99018461D01*
X222070500Y-98970800D01*
X222609500Y-98970800D01*
X222624880Y-99122216D01*
X222685662Y-99316172D01*
X222784203Y-99493944D01*
X222916477Y-99648271D01*
X222921514Y-99652178D01*
X222921516Y-99652180D01*
X222958563Y-99680916D01*
X223077081Y-99772848D01*
X223259455Y-99862587D01*
X223265633Y-99864196D01*
X223265635Y-99864197D01*
X223449966Y-99912212D01*
X223449969Y-99912212D01*
X223456148Y-99913822D01*
X223537328Y-99918076D01*
X223652744Y-99924125D01*
X223652748Y-99924125D01*
X223659126Y-99924459D01*
X223860097Y-99894065D01*
X224050852Y-99823881D01*
X224087154Y-99801373D01*
X224218176Y-99720137D01*
X224218180Y-99720134D01*
X224223599Y-99716774D01*
X224371280Y-99577119D01*
X224487863Y-99410621D01*
X224568586Y-99224081D01*
X224581439Y-99162559D01*
X224609162Y-99029856D01*
X224609163Y-99029851D01*
X224610151Y-99025120D01*
X224610500Y-99018461D01*
X224610500Y-98970800D01*
X225149500Y-98970800D01*
X225164880Y-99122216D01*
X225225662Y-99316172D01*
X225324203Y-99493944D01*
X225456477Y-99648271D01*
X225461514Y-99652178D01*
X225461516Y-99652180D01*
X225498563Y-99680916D01*
X225617081Y-99772848D01*
X225799455Y-99862587D01*
X225805633Y-99864196D01*
X225805635Y-99864197D01*
X225989966Y-99912212D01*
X225989969Y-99912212D01*
X225996148Y-99913822D01*
X226077328Y-99918076D01*
X226192744Y-99924125D01*
X226192748Y-99924125D01*
X226199126Y-99924459D01*
X226400097Y-99894065D01*
X226590852Y-99823881D01*
X226627154Y-99801373D01*
X226758176Y-99720137D01*
X226758180Y-99720134D01*
X226763599Y-99716774D01*
X226911280Y-99577119D01*
X227027863Y-99410621D01*
X227108586Y-99224081D01*
X227121439Y-99162559D01*
X227149162Y-99029856D01*
X227149163Y-99029851D01*
X227150151Y-99025120D01*
X227150500Y-99018461D01*
X227150500Y-98970800D01*
X227689500Y-98970800D01*
X227704880Y-99122216D01*
X227765662Y-99316172D01*
X227864203Y-99493944D01*
X227996477Y-99648271D01*
X228001514Y-99652178D01*
X228001516Y-99652180D01*
X228038563Y-99680916D01*
X228157081Y-99772848D01*
X228339455Y-99862587D01*
X228345633Y-99864196D01*
X228345635Y-99864197D01*
X228529966Y-99912212D01*
X228529969Y-99912212D01*
X228536148Y-99913822D01*
X228617328Y-99918076D01*
X228732744Y-99924125D01*
X228732748Y-99924125D01*
X228739126Y-99924459D01*
X228940097Y-99894065D01*
X229130852Y-99823881D01*
X229167154Y-99801373D01*
X229298176Y-99720137D01*
X229298180Y-99720134D01*
X229303599Y-99716774D01*
X229451280Y-99577119D01*
X229567863Y-99410621D01*
X229648586Y-99224081D01*
X229661439Y-99162559D01*
X229689162Y-99029856D01*
X229689163Y-99029851D01*
X229690151Y-99025120D01*
X229690500Y-99018461D01*
X229690500Y-98970800D01*
X230229500Y-98970800D01*
X230244880Y-99122216D01*
X230305662Y-99316172D01*
X230404203Y-99493944D01*
X230536477Y-99648271D01*
X230541514Y-99652178D01*
X230541516Y-99652180D01*
X230578563Y-99680916D01*
X230697081Y-99772848D01*
X230879455Y-99862587D01*
X230885633Y-99864196D01*
X230885635Y-99864197D01*
X231069966Y-99912212D01*
X231069969Y-99912212D01*
X231076148Y-99913822D01*
X231157328Y-99918076D01*
X231272744Y-99924125D01*
X231272748Y-99924125D01*
X231279126Y-99924459D01*
X231480097Y-99894065D01*
X231670852Y-99823881D01*
X231707154Y-99801373D01*
X231838176Y-99720137D01*
X231838180Y-99720134D01*
X231843599Y-99716774D01*
X231991280Y-99577119D01*
X232107863Y-99410621D01*
X232188586Y-99224081D01*
X232201439Y-99162559D01*
X232229162Y-99029856D01*
X232229163Y-99029851D01*
X232230151Y-99025120D01*
X232230500Y-99018461D01*
X232230500Y-98970800D01*
X232769500Y-98970800D01*
X232784880Y-99122216D01*
X232845662Y-99316172D01*
X232944203Y-99493944D01*
X233076477Y-99648271D01*
X233081514Y-99652178D01*
X233081516Y-99652180D01*
X233118563Y-99680916D01*
X233237081Y-99772848D01*
X233419455Y-99862587D01*
X233425633Y-99864196D01*
X233425635Y-99864197D01*
X233609966Y-99912212D01*
X233609969Y-99912212D01*
X233616148Y-99913822D01*
X233697328Y-99918076D01*
X233812744Y-99924125D01*
X233812748Y-99924125D01*
X233819126Y-99924459D01*
X234020097Y-99894065D01*
X234210852Y-99823881D01*
X234247154Y-99801373D01*
X234378176Y-99720137D01*
X234378180Y-99720134D01*
X234383599Y-99716774D01*
X234531280Y-99577119D01*
X234647863Y-99410621D01*
X234728586Y-99224081D01*
X234741439Y-99162559D01*
X234769162Y-99029856D01*
X234769163Y-99029851D01*
X234770151Y-99025120D01*
X234770500Y-99018461D01*
X234770500Y-98970800D01*
X235309500Y-98970800D01*
X235324880Y-99122216D01*
X235385662Y-99316172D01*
X235484203Y-99493944D01*
X235616477Y-99648271D01*
X235621514Y-99652178D01*
X235621516Y-99652180D01*
X235658563Y-99680916D01*
X235777081Y-99772848D01*
X235959455Y-99862587D01*
X235965633Y-99864196D01*
X235965635Y-99864197D01*
X236149966Y-99912212D01*
X236149969Y-99912212D01*
X236156148Y-99913822D01*
X236237328Y-99918076D01*
X236352744Y-99924125D01*
X236352748Y-99924125D01*
X236359126Y-99924459D01*
X236560097Y-99894065D01*
X236750852Y-99823881D01*
X236787154Y-99801373D01*
X236918176Y-99720137D01*
X236918180Y-99720134D01*
X236923599Y-99716774D01*
X237071280Y-99577119D01*
X237187863Y-99410621D01*
X237268586Y-99224081D01*
X237281439Y-99162559D01*
X237309162Y-99029856D01*
X237309163Y-99029851D01*
X237310151Y-99025120D01*
X237310500Y-99018461D01*
X237310500Y-98970800D01*
X240389500Y-98970800D01*
X240404880Y-99122216D01*
X240465662Y-99316172D01*
X240564203Y-99493944D01*
X240696477Y-99648271D01*
X240701514Y-99652178D01*
X240701516Y-99652180D01*
X240738563Y-99680916D01*
X240857081Y-99772848D01*
X241039455Y-99862587D01*
X241045633Y-99864196D01*
X241045635Y-99864197D01*
X241229966Y-99912212D01*
X241229969Y-99912212D01*
X241236148Y-99913822D01*
X241317328Y-99918076D01*
X241432744Y-99924125D01*
X241432748Y-99924125D01*
X241439126Y-99924459D01*
X241640097Y-99894065D01*
X241830852Y-99823881D01*
X241867154Y-99801373D01*
X241998176Y-99720137D01*
X241998180Y-99720134D01*
X242003599Y-99716774D01*
X242151280Y-99577119D01*
X242267863Y-99410621D01*
X242348586Y-99224081D01*
X242361439Y-99162559D01*
X242389162Y-99029856D01*
X242389163Y-99029851D01*
X242390151Y-99025120D01*
X242390500Y-99018461D01*
X242390500Y-98970800D01*
X242929500Y-98970800D01*
X242944880Y-99122216D01*
X243005662Y-99316172D01*
X243104203Y-99493944D01*
X243236477Y-99648271D01*
X243241514Y-99652178D01*
X243241516Y-99652180D01*
X243278563Y-99680916D01*
X243397081Y-99772848D01*
X243579455Y-99862587D01*
X243585633Y-99864196D01*
X243585635Y-99864197D01*
X243769966Y-99912212D01*
X243769969Y-99912212D01*
X243776148Y-99913822D01*
X243857328Y-99918076D01*
X243972744Y-99924125D01*
X243972748Y-99924125D01*
X243979126Y-99924459D01*
X244180097Y-99894065D01*
X244370852Y-99823881D01*
X244407154Y-99801373D01*
X244538176Y-99720137D01*
X244538180Y-99720134D01*
X244543599Y-99716774D01*
X244691280Y-99577119D01*
X244807863Y-99410621D01*
X244888586Y-99224081D01*
X244901439Y-99162559D01*
X244929162Y-99029856D01*
X244929163Y-99029851D01*
X244930151Y-99025120D01*
X244930500Y-99018461D01*
X244930500Y-98970800D01*
X245469500Y-98970800D01*
X245484880Y-99122216D01*
X245545662Y-99316172D01*
X245644203Y-99493944D01*
X245776477Y-99648271D01*
X245781514Y-99652178D01*
X245781516Y-99652180D01*
X245818563Y-99680916D01*
X245937081Y-99772848D01*
X246119455Y-99862587D01*
X246125633Y-99864196D01*
X246125635Y-99864197D01*
X246309966Y-99912212D01*
X246309969Y-99912212D01*
X246316148Y-99913822D01*
X246397328Y-99918076D01*
X246512744Y-99924125D01*
X246512748Y-99924125D01*
X246519126Y-99924459D01*
X246720097Y-99894065D01*
X246910852Y-99823881D01*
X246947154Y-99801373D01*
X247078176Y-99720137D01*
X247078180Y-99720134D01*
X247083599Y-99716774D01*
X247231280Y-99577119D01*
X247347863Y-99410621D01*
X247428586Y-99224081D01*
X247441439Y-99162559D01*
X247469162Y-99029856D01*
X247469163Y-99029851D01*
X247470151Y-99025120D01*
X247470500Y-99018461D01*
X247470500Y-98970800D01*
X248009500Y-98970800D01*
X248024880Y-99122216D01*
X248085662Y-99316172D01*
X248184203Y-99493944D01*
X248316477Y-99648271D01*
X248321514Y-99652178D01*
X248321516Y-99652180D01*
X248358563Y-99680916D01*
X248477081Y-99772848D01*
X248659455Y-99862587D01*
X248665633Y-99864196D01*
X248665635Y-99864197D01*
X248849966Y-99912212D01*
X248849969Y-99912212D01*
X248856148Y-99913822D01*
X248937328Y-99918076D01*
X249052744Y-99924125D01*
X249052748Y-99924125D01*
X249059126Y-99924459D01*
X249260097Y-99894065D01*
X249450852Y-99823881D01*
X249487154Y-99801373D01*
X249618176Y-99720137D01*
X249618180Y-99720134D01*
X249623599Y-99716774D01*
X249771280Y-99577119D01*
X249887863Y-99410621D01*
X249968586Y-99224081D01*
X249981439Y-99162559D01*
X250009162Y-99029856D01*
X250009163Y-99029851D01*
X250010151Y-99025120D01*
X250010500Y-99018461D01*
X250010500Y-98970800D01*
X250549500Y-98970800D01*
X250564880Y-99122216D01*
X250625662Y-99316172D01*
X250724203Y-99493944D01*
X250856477Y-99648271D01*
X250861514Y-99652178D01*
X250861516Y-99652180D01*
X250898563Y-99680916D01*
X251017081Y-99772848D01*
X251199455Y-99862587D01*
X251205633Y-99864196D01*
X251205635Y-99864197D01*
X251389966Y-99912212D01*
X251389969Y-99912212D01*
X251396148Y-99913822D01*
X251477328Y-99918076D01*
X251592744Y-99924125D01*
X251592748Y-99924125D01*
X251599126Y-99924459D01*
X251800097Y-99894065D01*
X251990852Y-99823881D01*
X252027154Y-99801373D01*
X252158176Y-99720137D01*
X252158180Y-99720134D01*
X252163599Y-99716774D01*
X252311280Y-99577119D01*
X252427863Y-99410621D01*
X252508586Y-99224081D01*
X252521439Y-99162559D01*
X252549162Y-99029856D01*
X252549163Y-99029851D01*
X252550151Y-99025120D01*
X252550500Y-99018461D01*
X252550500Y-98970800D01*
X253089500Y-98970800D01*
X253104880Y-99122216D01*
X253165662Y-99316172D01*
X253264203Y-99493944D01*
X253396477Y-99648271D01*
X253401514Y-99652178D01*
X253401516Y-99652180D01*
X253438563Y-99680916D01*
X253557081Y-99772848D01*
X253739455Y-99862587D01*
X253745633Y-99864196D01*
X253745635Y-99864197D01*
X253929966Y-99912212D01*
X253929969Y-99912212D01*
X253936148Y-99913822D01*
X254017328Y-99918076D01*
X254132744Y-99924125D01*
X254132748Y-99924125D01*
X254139126Y-99924459D01*
X254340097Y-99894065D01*
X254530852Y-99823881D01*
X254567154Y-99801373D01*
X254698176Y-99720137D01*
X254698180Y-99720134D01*
X254703599Y-99716774D01*
X254851280Y-99577119D01*
X254967863Y-99410621D01*
X255048586Y-99224081D01*
X255061439Y-99162559D01*
X255089162Y-99029856D01*
X255089163Y-99029851D01*
X255090151Y-99025120D01*
X255090500Y-99018461D01*
X255090500Y-98569200D01*
X255075120Y-98417784D01*
X255014338Y-98223828D01*
X254915797Y-98046056D01*
X254783523Y-97891729D01*
X254762413Y-97875354D01*
X254627958Y-97771061D01*
X254622919Y-97767152D01*
X254440545Y-97677413D01*
X254434367Y-97675804D01*
X254434365Y-97675803D01*
X254250034Y-97627788D01*
X254250031Y-97627788D01*
X254243852Y-97626178D01*
X254227287Y-97625310D01*
X254217848Y-97624815D01*
X254150868Y-97601275D01*
X254107248Y-97545259D01*
X254100836Y-97474552D01*
X254133669Y-97411604D01*
X254195323Y-97376399D01*
X254205596Y-97374406D01*
X254340097Y-97354065D01*
X254530852Y-97283881D01*
X254536273Y-97280520D01*
X254698176Y-97180137D01*
X254698180Y-97180134D01*
X254703599Y-97176774D01*
X254851280Y-97037119D01*
X254967863Y-96870621D01*
X255048586Y-96684081D01*
X255071193Y-96575868D01*
X255089162Y-96489856D01*
X255089163Y-96489851D01*
X255090151Y-96485120D01*
X255090500Y-96478461D01*
X255090500Y-96430800D01*
X255629500Y-96430800D01*
X255644880Y-96582216D01*
X255705662Y-96776172D01*
X255804203Y-96953944D01*
X255936477Y-97108271D01*
X256097081Y-97232848D01*
X256279455Y-97322587D01*
X256285633Y-97324196D01*
X256285635Y-97324197D01*
X256469966Y-97372212D01*
X256469969Y-97372212D01*
X256476148Y-97373822D01*
X256557328Y-97378076D01*
X256672744Y-97384125D01*
X256672748Y-97384125D01*
X256679126Y-97384459D01*
X256880097Y-97354065D01*
X257070852Y-97283881D01*
X257076273Y-97280520D01*
X257238176Y-97180137D01*
X257238180Y-97180134D01*
X257243599Y-97176774D01*
X257391280Y-97037119D01*
X257507863Y-96870621D01*
X257588586Y-96684081D01*
X257611193Y-96575868D01*
X257629162Y-96489856D01*
X257629163Y-96489851D01*
X257630151Y-96485120D01*
X257630500Y-96478461D01*
X257630500Y-96029200D01*
X257615120Y-95877784D01*
X257554338Y-95683828D01*
X257455797Y-95506056D01*
X257323523Y-95351729D01*
X257318376Y-95347736D01*
X257185076Y-95244339D01*
X257162919Y-95227152D01*
X256980545Y-95137413D01*
X256974367Y-95135804D01*
X256974365Y-95135803D01*
X256790034Y-95087788D01*
X256790031Y-95087788D01*
X256783852Y-95086178D01*
X256702672Y-95081924D01*
X256587256Y-95075875D01*
X256587252Y-95075875D01*
X256580874Y-95075541D01*
X256379903Y-95105935D01*
X256189148Y-95176119D01*
X256183728Y-95179479D01*
X256183727Y-95179480D01*
X256021824Y-95279863D01*
X256021820Y-95279866D01*
X256016401Y-95283226D01*
X255868720Y-95422881D01*
X255752137Y-95589379D01*
X255671414Y-95775919D01*
X255670108Y-95782171D01*
X255657917Y-95840528D01*
X255629849Y-95974880D01*
X255629500Y-95981539D01*
X255629500Y-96430800D01*
X255090500Y-96430800D01*
X255090500Y-96029200D01*
X255075120Y-95877784D01*
X255014338Y-95683828D01*
X254915797Y-95506056D01*
X254783523Y-95351729D01*
X254778376Y-95347736D01*
X254645076Y-95244339D01*
X254622919Y-95227152D01*
X254440545Y-95137413D01*
X254434367Y-95135804D01*
X254434365Y-95135803D01*
X254250034Y-95087788D01*
X254250031Y-95087788D01*
X254243852Y-95086178D01*
X254162672Y-95081924D01*
X254047256Y-95075875D01*
X254047252Y-95075875D01*
X254040874Y-95075541D01*
X253839903Y-95105935D01*
X253649148Y-95176119D01*
X253643728Y-95179479D01*
X253643727Y-95179480D01*
X253481824Y-95279863D01*
X253481820Y-95279866D01*
X253476401Y-95283226D01*
X253328720Y-95422881D01*
X253212137Y-95589379D01*
X253131414Y-95775919D01*
X253130108Y-95782171D01*
X253117917Y-95840528D01*
X253089849Y-95974880D01*
X253089500Y-95981539D01*
X253089500Y-96430800D01*
X253104880Y-96582216D01*
X253165662Y-96776172D01*
X253264203Y-96953944D01*
X253396477Y-97108271D01*
X253557081Y-97232848D01*
X253739455Y-97322587D01*
X253745633Y-97324196D01*
X253745635Y-97324197D01*
X253929966Y-97372212D01*
X253929969Y-97372212D01*
X253936148Y-97373822D01*
X253952713Y-97374690D01*
X253962152Y-97375185D01*
X254029132Y-97398725D01*
X254072752Y-97454741D01*
X254079164Y-97525448D01*
X254046331Y-97588396D01*
X253984677Y-97623601D01*
X253974404Y-97625594D01*
X253839903Y-97645935D01*
X253649148Y-97716119D01*
X253643728Y-97719479D01*
X253643727Y-97719480D01*
X253481824Y-97819863D01*
X253481820Y-97819866D01*
X253476401Y-97823226D01*
X253328720Y-97962881D01*
X253212137Y-98129379D01*
X253131414Y-98315919D01*
X253130108Y-98322171D01*
X253095062Y-98489929D01*
X253089849Y-98514880D01*
X253089500Y-98521539D01*
X253089500Y-98970800D01*
X252550500Y-98970800D01*
X252550500Y-98569200D01*
X252535120Y-98417784D01*
X252474338Y-98223828D01*
X252375797Y-98046056D01*
X252243523Y-97891729D01*
X252222413Y-97875354D01*
X252087958Y-97771061D01*
X252082919Y-97767152D01*
X251900545Y-97677413D01*
X251894367Y-97675804D01*
X251894365Y-97675803D01*
X251710034Y-97627788D01*
X251710031Y-97627788D01*
X251703852Y-97626178D01*
X251687287Y-97625310D01*
X251677848Y-97624815D01*
X251610868Y-97601275D01*
X251567248Y-97545259D01*
X251560836Y-97474552D01*
X251593669Y-97411604D01*
X251655323Y-97376399D01*
X251665596Y-97374406D01*
X251800097Y-97354065D01*
X251990852Y-97283881D01*
X251996273Y-97280520D01*
X252158176Y-97180137D01*
X252158180Y-97180134D01*
X252163599Y-97176774D01*
X252311280Y-97037119D01*
X252427863Y-96870621D01*
X252508586Y-96684081D01*
X252531193Y-96575868D01*
X252549162Y-96489856D01*
X252549163Y-96489851D01*
X252550151Y-96485120D01*
X252550500Y-96478461D01*
X252550500Y-96029200D01*
X252535120Y-95877784D01*
X252474338Y-95683828D01*
X252375797Y-95506056D01*
X252243523Y-95351729D01*
X252238376Y-95347736D01*
X252105076Y-95244339D01*
X252082919Y-95227152D01*
X251900545Y-95137413D01*
X251894367Y-95135804D01*
X251894365Y-95135803D01*
X251710034Y-95087788D01*
X251710031Y-95087788D01*
X251703852Y-95086178D01*
X251622672Y-95081924D01*
X251507256Y-95075875D01*
X251507252Y-95075875D01*
X251500874Y-95075541D01*
X251299903Y-95105935D01*
X251109148Y-95176119D01*
X251103728Y-95179479D01*
X251103727Y-95179480D01*
X250941824Y-95279863D01*
X250941820Y-95279866D01*
X250936401Y-95283226D01*
X250788720Y-95422881D01*
X250672137Y-95589379D01*
X250591414Y-95775919D01*
X250590108Y-95782171D01*
X250577917Y-95840528D01*
X250549849Y-95974880D01*
X250549500Y-95981539D01*
X250549500Y-96430800D01*
X250564880Y-96582216D01*
X250625662Y-96776172D01*
X250724203Y-96953944D01*
X250856477Y-97108271D01*
X251017081Y-97232848D01*
X251199455Y-97322587D01*
X251205633Y-97324196D01*
X251205635Y-97324197D01*
X251389966Y-97372212D01*
X251389969Y-97372212D01*
X251396148Y-97373822D01*
X251412713Y-97374690D01*
X251422152Y-97375185D01*
X251489132Y-97398725D01*
X251532752Y-97454741D01*
X251539164Y-97525448D01*
X251506331Y-97588396D01*
X251444677Y-97623601D01*
X251434404Y-97625594D01*
X251299903Y-97645935D01*
X251109148Y-97716119D01*
X251103728Y-97719479D01*
X251103727Y-97719480D01*
X250941824Y-97819863D01*
X250941820Y-97819866D01*
X250936401Y-97823226D01*
X250788720Y-97962881D01*
X250672137Y-98129379D01*
X250591414Y-98315919D01*
X250590108Y-98322171D01*
X250555062Y-98489929D01*
X250549849Y-98514880D01*
X250549500Y-98521539D01*
X250549500Y-98970800D01*
X250010500Y-98970800D01*
X250010500Y-98569200D01*
X249995120Y-98417784D01*
X249934338Y-98223828D01*
X249835797Y-98046056D01*
X249703523Y-97891729D01*
X249682413Y-97875354D01*
X249547958Y-97771061D01*
X249542919Y-97767152D01*
X249360545Y-97677413D01*
X249354367Y-97675804D01*
X249354365Y-97675803D01*
X249170034Y-97627788D01*
X249170031Y-97627788D01*
X249163852Y-97626178D01*
X249082672Y-97621924D01*
X248967256Y-97615875D01*
X248967252Y-97615875D01*
X248960874Y-97615541D01*
X248759903Y-97645935D01*
X248569148Y-97716119D01*
X248563728Y-97719479D01*
X248563727Y-97719480D01*
X248401824Y-97819863D01*
X248401820Y-97819866D01*
X248396401Y-97823226D01*
X248248720Y-97962881D01*
X248132137Y-98129379D01*
X248051414Y-98315919D01*
X248050108Y-98322171D01*
X248015062Y-98489929D01*
X248009849Y-98514880D01*
X248009500Y-98521539D01*
X248009500Y-98970800D01*
X247470500Y-98970800D01*
X247470500Y-98569200D01*
X247455120Y-98417784D01*
X247394338Y-98223828D01*
X247295797Y-98046056D01*
X247163523Y-97891729D01*
X247142413Y-97875354D01*
X247007958Y-97771061D01*
X247002919Y-97767152D01*
X246820545Y-97677413D01*
X246814367Y-97675804D01*
X246814365Y-97675803D01*
X246630034Y-97627788D01*
X246630031Y-97627788D01*
X246623852Y-97626178D01*
X246607287Y-97625310D01*
X246597848Y-97624815D01*
X246530868Y-97601275D01*
X246487248Y-97545259D01*
X246480836Y-97474552D01*
X246513669Y-97411604D01*
X246575323Y-97376399D01*
X246585596Y-97374406D01*
X246720097Y-97354065D01*
X246910852Y-97283881D01*
X246916273Y-97280520D01*
X247078176Y-97180137D01*
X247078180Y-97180134D01*
X247083599Y-97176774D01*
X247231280Y-97037119D01*
X247347863Y-96870621D01*
X247428586Y-96684081D01*
X247451193Y-96575868D01*
X247469162Y-96489856D01*
X247469163Y-96489851D01*
X247470151Y-96485120D01*
X247470500Y-96478461D01*
X247470500Y-96029200D01*
X247455120Y-95877784D01*
X247394338Y-95683828D01*
X247295797Y-95506056D01*
X247163523Y-95351729D01*
X247158376Y-95347736D01*
X247025076Y-95244339D01*
X247002919Y-95227152D01*
X246820545Y-95137413D01*
X246814367Y-95135804D01*
X246814365Y-95135803D01*
X246630034Y-95087788D01*
X246630031Y-95087788D01*
X246623852Y-95086178D01*
X246542672Y-95081924D01*
X246427256Y-95075875D01*
X246427252Y-95075875D01*
X246420874Y-95075541D01*
X246219903Y-95105935D01*
X246029148Y-95176119D01*
X246023728Y-95179479D01*
X246023727Y-95179480D01*
X245861824Y-95279863D01*
X245861820Y-95279866D01*
X245856401Y-95283226D01*
X245708720Y-95422881D01*
X245592137Y-95589379D01*
X245511414Y-95775919D01*
X245510108Y-95782171D01*
X245497917Y-95840528D01*
X245469849Y-95974880D01*
X245469500Y-95981539D01*
X245469500Y-96430800D01*
X245484880Y-96582216D01*
X245545662Y-96776172D01*
X245644203Y-96953944D01*
X245776477Y-97108271D01*
X245937081Y-97232848D01*
X246119455Y-97322587D01*
X246125633Y-97324196D01*
X246125635Y-97324197D01*
X246309966Y-97372212D01*
X246309969Y-97372212D01*
X246316148Y-97373822D01*
X246332713Y-97374690D01*
X246342152Y-97375185D01*
X246409132Y-97398725D01*
X246452752Y-97454741D01*
X246459164Y-97525448D01*
X246426331Y-97588396D01*
X246364677Y-97623601D01*
X246354404Y-97625594D01*
X246219903Y-97645935D01*
X246029148Y-97716119D01*
X246023728Y-97719479D01*
X246023727Y-97719480D01*
X245861824Y-97819863D01*
X245861820Y-97819866D01*
X245856401Y-97823226D01*
X245708720Y-97962881D01*
X245592137Y-98129379D01*
X245511414Y-98315919D01*
X245510108Y-98322171D01*
X245475062Y-98489929D01*
X245469849Y-98514880D01*
X245469500Y-98521539D01*
X245469500Y-98970800D01*
X244930500Y-98970800D01*
X244930500Y-98569200D01*
X244915120Y-98417784D01*
X244854338Y-98223828D01*
X244755797Y-98046056D01*
X244623523Y-97891729D01*
X244602413Y-97875354D01*
X244467958Y-97771061D01*
X244462919Y-97767152D01*
X244280545Y-97677413D01*
X244274367Y-97675804D01*
X244274365Y-97675803D01*
X244090034Y-97627788D01*
X244090031Y-97627788D01*
X244083852Y-97626178D01*
X244002672Y-97621924D01*
X243887256Y-97615875D01*
X243887252Y-97615875D01*
X243880874Y-97615541D01*
X243679903Y-97645935D01*
X243489148Y-97716119D01*
X243483728Y-97719479D01*
X243483727Y-97719480D01*
X243321824Y-97819863D01*
X243321820Y-97819866D01*
X243316401Y-97823226D01*
X243168720Y-97962881D01*
X243052137Y-98129379D01*
X242971414Y-98315919D01*
X242970108Y-98322171D01*
X242935062Y-98489929D01*
X242929849Y-98514880D01*
X242929500Y-98521539D01*
X242929500Y-98970800D01*
X242390500Y-98970800D01*
X242390500Y-98569200D01*
X242375120Y-98417784D01*
X242314338Y-98223828D01*
X242215797Y-98046056D01*
X242083523Y-97891729D01*
X242062413Y-97875354D01*
X241927958Y-97771061D01*
X241922919Y-97767152D01*
X241740545Y-97677413D01*
X241734367Y-97675804D01*
X241734365Y-97675803D01*
X241550034Y-97627788D01*
X241550031Y-97627788D01*
X241543852Y-97626178D01*
X241527287Y-97625310D01*
X241517848Y-97624815D01*
X241450868Y-97601275D01*
X241407248Y-97545259D01*
X241400836Y-97474552D01*
X241433669Y-97411604D01*
X241495323Y-97376399D01*
X241505596Y-97374406D01*
X241640097Y-97354065D01*
X241830852Y-97283881D01*
X241836273Y-97280520D01*
X241998176Y-97180137D01*
X241998180Y-97180134D01*
X242003599Y-97176774D01*
X242151280Y-97037119D01*
X242267863Y-96870621D01*
X242348586Y-96684081D01*
X242371193Y-96575868D01*
X242389162Y-96489856D01*
X242389163Y-96489851D01*
X242390151Y-96485120D01*
X242390500Y-96478461D01*
X242390500Y-96029200D01*
X242375120Y-95877784D01*
X242314338Y-95683828D01*
X242215797Y-95506056D01*
X242083523Y-95351729D01*
X242078376Y-95347736D01*
X241945076Y-95244339D01*
X241922919Y-95227152D01*
X241740545Y-95137413D01*
X241734367Y-95135804D01*
X241734365Y-95135803D01*
X241550034Y-95087788D01*
X241550031Y-95087788D01*
X241543852Y-95086178D01*
X241462672Y-95081924D01*
X241347256Y-95075875D01*
X241347252Y-95075875D01*
X241340874Y-95075541D01*
X241139903Y-95105935D01*
X240949148Y-95176119D01*
X240943728Y-95179479D01*
X240943727Y-95179480D01*
X240781824Y-95279863D01*
X240781820Y-95279866D01*
X240776401Y-95283226D01*
X240628720Y-95422881D01*
X240512137Y-95589379D01*
X240431414Y-95775919D01*
X240430108Y-95782171D01*
X240417917Y-95840528D01*
X240389849Y-95974880D01*
X240389500Y-95981539D01*
X240389500Y-96430800D01*
X240404880Y-96582216D01*
X240465662Y-96776172D01*
X240564203Y-96953944D01*
X240696477Y-97108271D01*
X240857081Y-97232848D01*
X241039455Y-97322587D01*
X241045633Y-97324196D01*
X241045635Y-97324197D01*
X241229966Y-97372212D01*
X241229969Y-97372212D01*
X241236148Y-97373822D01*
X241252713Y-97374690D01*
X241262152Y-97375185D01*
X241329132Y-97398725D01*
X241372752Y-97454741D01*
X241379164Y-97525448D01*
X241346331Y-97588396D01*
X241284677Y-97623601D01*
X241274404Y-97625594D01*
X241139903Y-97645935D01*
X240949148Y-97716119D01*
X240943728Y-97719479D01*
X240943727Y-97719480D01*
X240781824Y-97819863D01*
X240781820Y-97819866D01*
X240776401Y-97823226D01*
X240628720Y-97962881D01*
X240512137Y-98129379D01*
X240431414Y-98315919D01*
X240430108Y-98322171D01*
X240395062Y-98489929D01*
X240389849Y-98514880D01*
X240389500Y-98521539D01*
X240389500Y-98970800D01*
X237310500Y-98970800D01*
X237310500Y-98569200D01*
X237295120Y-98417784D01*
X237234338Y-98223828D01*
X237135797Y-98046056D01*
X237003523Y-97891729D01*
X236982413Y-97875354D01*
X236847958Y-97771061D01*
X236842919Y-97767152D01*
X236660545Y-97677413D01*
X236654367Y-97675804D01*
X236654365Y-97675803D01*
X236470034Y-97627788D01*
X236470031Y-97627788D01*
X236463852Y-97626178D01*
X236447287Y-97625310D01*
X236437848Y-97624815D01*
X236370868Y-97601275D01*
X236327248Y-97545259D01*
X236320836Y-97474552D01*
X236353669Y-97411604D01*
X236415323Y-97376399D01*
X236425596Y-97374406D01*
X236560097Y-97354065D01*
X236750852Y-97283881D01*
X236756273Y-97280520D01*
X236918176Y-97180137D01*
X236918180Y-97180134D01*
X236923599Y-97176774D01*
X237071280Y-97037119D01*
X237187863Y-96870621D01*
X237268586Y-96684081D01*
X237291193Y-96575868D01*
X237309162Y-96489856D01*
X237309163Y-96489851D01*
X237310151Y-96485120D01*
X237310500Y-96478461D01*
X237310500Y-96430800D01*
X237849500Y-96430800D01*
X237864880Y-96582216D01*
X237925662Y-96776172D01*
X238024203Y-96953944D01*
X238156477Y-97108271D01*
X238317081Y-97232848D01*
X238499455Y-97322587D01*
X238505633Y-97324196D01*
X238505635Y-97324197D01*
X238689966Y-97372212D01*
X238689969Y-97372212D01*
X238696148Y-97373822D01*
X238777328Y-97378076D01*
X238892744Y-97384125D01*
X238892748Y-97384125D01*
X238899126Y-97384459D01*
X239100097Y-97354065D01*
X239290852Y-97283881D01*
X239296273Y-97280520D01*
X239458176Y-97180137D01*
X239458180Y-97180134D01*
X239463599Y-97176774D01*
X239611280Y-97037119D01*
X239727863Y-96870621D01*
X239808586Y-96684081D01*
X239831193Y-96575868D01*
X239849162Y-96489856D01*
X239849163Y-96489851D01*
X239850151Y-96485120D01*
X239850500Y-96478461D01*
X239850500Y-96029200D01*
X239835120Y-95877784D01*
X239774338Y-95683828D01*
X239675797Y-95506056D01*
X239543523Y-95351729D01*
X239538376Y-95347736D01*
X239405076Y-95244339D01*
X239382919Y-95227152D01*
X239200545Y-95137413D01*
X239194367Y-95135804D01*
X239194365Y-95135803D01*
X239010034Y-95087788D01*
X239010031Y-95087788D01*
X239003852Y-95086178D01*
X238922672Y-95081924D01*
X238807256Y-95075875D01*
X238807252Y-95075875D01*
X238800874Y-95075541D01*
X238599903Y-95105935D01*
X238409148Y-95176119D01*
X238403728Y-95179479D01*
X238403727Y-95179480D01*
X238241824Y-95279863D01*
X238241820Y-95279866D01*
X238236401Y-95283226D01*
X238088720Y-95422881D01*
X237972137Y-95589379D01*
X237891414Y-95775919D01*
X237890108Y-95782171D01*
X237877917Y-95840528D01*
X237849849Y-95974880D01*
X237849500Y-95981539D01*
X237849500Y-96430800D01*
X237310500Y-96430800D01*
X237310500Y-96029200D01*
X237295120Y-95877784D01*
X237234338Y-95683828D01*
X237135797Y-95506056D01*
X237003523Y-95351729D01*
X236998376Y-95347736D01*
X236865076Y-95244339D01*
X236842919Y-95227152D01*
X236660545Y-95137413D01*
X236654367Y-95135804D01*
X236654365Y-95135803D01*
X236470034Y-95087788D01*
X236470031Y-95087788D01*
X236463852Y-95086178D01*
X236382672Y-95081924D01*
X236267256Y-95075875D01*
X236267252Y-95075875D01*
X236260874Y-95075541D01*
X236059903Y-95105935D01*
X235869148Y-95176119D01*
X235863728Y-95179479D01*
X235863727Y-95179480D01*
X235701824Y-95279863D01*
X235701820Y-95279866D01*
X235696401Y-95283226D01*
X235548720Y-95422881D01*
X235432137Y-95589379D01*
X235351414Y-95775919D01*
X235350108Y-95782171D01*
X235337917Y-95840528D01*
X235309849Y-95974880D01*
X235309500Y-95981539D01*
X235309500Y-96430800D01*
X235324880Y-96582216D01*
X235385662Y-96776172D01*
X235484203Y-96953944D01*
X235616477Y-97108271D01*
X235777081Y-97232848D01*
X235959455Y-97322587D01*
X235965633Y-97324196D01*
X235965635Y-97324197D01*
X236149966Y-97372212D01*
X236149969Y-97372212D01*
X236156148Y-97373822D01*
X236172713Y-97374690D01*
X236182152Y-97375185D01*
X236249132Y-97398725D01*
X236292752Y-97454741D01*
X236299164Y-97525448D01*
X236266331Y-97588396D01*
X236204677Y-97623601D01*
X236194404Y-97625594D01*
X236059903Y-97645935D01*
X235869148Y-97716119D01*
X235863728Y-97719479D01*
X235863727Y-97719480D01*
X235701824Y-97819863D01*
X235701820Y-97819866D01*
X235696401Y-97823226D01*
X235548720Y-97962881D01*
X235432137Y-98129379D01*
X235351414Y-98315919D01*
X235350108Y-98322171D01*
X235315062Y-98489929D01*
X235309849Y-98514880D01*
X235309500Y-98521539D01*
X235309500Y-98970800D01*
X234770500Y-98970800D01*
X234770500Y-98569200D01*
X234755120Y-98417784D01*
X234694338Y-98223828D01*
X234595797Y-98046056D01*
X234463523Y-97891729D01*
X234442413Y-97875354D01*
X234307958Y-97771061D01*
X234302919Y-97767152D01*
X234120545Y-97677413D01*
X234114367Y-97675804D01*
X234114365Y-97675803D01*
X233930034Y-97627788D01*
X233930031Y-97627788D01*
X233923852Y-97626178D01*
X233907287Y-97625310D01*
X233897848Y-97624815D01*
X233830868Y-97601275D01*
X233787248Y-97545259D01*
X233780836Y-97474552D01*
X233813669Y-97411604D01*
X233875323Y-97376399D01*
X233885596Y-97374406D01*
X234020097Y-97354065D01*
X234210852Y-97283881D01*
X234216273Y-97280520D01*
X234378176Y-97180137D01*
X234378180Y-97180134D01*
X234383599Y-97176774D01*
X234531280Y-97037119D01*
X234647863Y-96870621D01*
X234728586Y-96684081D01*
X234751193Y-96575868D01*
X234769162Y-96489856D01*
X234769163Y-96489851D01*
X234770151Y-96485120D01*
X234770500Y-96478461D01*
X234770500Y-96029200D01*
X234755120Y-95877784D01*
X234694338Y-95683828D01*
X234595797Y-95506056D01*
X234463523Y-95351729D01*
X234458376Y-95347736D01*
X234325076Y-95244339D01*
X234302919Y-95227152D01*
X234120545Y-95137413D01*
X234114367Y-95135804D01*
X234114365Y-95135803D01*
X233930034Y-95087788D01*
X233930031Y-95087788D01*
X233923852Y-95086178D01*
X233842672Y-95081924D01*
X233727256Y-95075875D01*
X233727252Y-95075875D01*
X233720874Y-95075541D01*
X233519903Y-95105935D01*
X233329148Y-95176119D01*
X233323728Y-95179479D01*
X233323727Y-95179480D01*
X233161824Y-95279863D01*
X233161820Y-95279866D01*
X233156401Y-95283226D01*
X233008720Y-95422881D01*
X232892137Y-95589379D01*
X232811414Y-95775919D01*
X232810108Y-95782171D01*
X232797917Y-95840528D01*
X232769849Y-95974880D01*
X232769500Y-95981539D01*
X232769500Y-96430800D01*
X232784880Y-96582216D01*
X232845662Y-96776172D01*
X232944203Y-96953944D01*
X233076477Y-97108271D01*
X233237081Y-97232848D01*
X233419455Y-97322587D01*
X233425633Y-97324196D01*
X233425635Y-97324197D01*
X233609966Y-97372212D01*
X233609969Y-97372212D01*
X233616148Y-97373822D01*
X233632713Y-97374690D01*
X233642152Y-97375185D01*
X233709132Y-97398725D01*
X233752752Y-97454741D01*
X233759164Y-97525448D01*
X233726331Y-97588396D01*
X233664677Y-97623601D01*
X233654404Y-97625594D01*
X233519903Y-97645935D01*
X233329148Y-97716119D01*
X233323728Y-97719479D01*
X233323727Y-97719480D01*
X233161824Y-97819863D01*
X233161820Y-97819866D01*
X233156401Y-97823226D01*
X233008720Y-97962881D01*
X232892137Y-98129379D01*
X232811414Y-98315919D01*
X232810108Y-98322171D01*
X232775062Y-98489929D01*
X232769849Y-98514880D01*
X232769500Y-98521539D01*
X232769500Y-98970800D01*
X232230500Y-98970800D01*
X232230500Y-98569200D01*
X232215120Y-98417784D01*
X232154338Y-98223828D01*
X232055797Y-98046056D01*
X231923523Y-97891729D01*
X231902413Y-97875354D01*
X231767958Y-97771061D01*
X231762919Y-97767152D01*
X231580545Y-97677413D01*
X231574367Y-97675804D01*
X231574365Y-97675803D01*
X231390034Y-97627788D01*
X231390031Y-97627788D01*
X231383852Y-97626178D01*
X231302672Y-97621924D01*
X231187256Y-97615875D01*
X231187252Y-97615875D01*
X231180874Y-97615541D01*
X230979903Y-97645935D01*
X230789148Y-97716119D01*
X230783728Y-97719479D01*
X230783727Y-97719480D01*
X230621824Y-97819863D01*
X230621820Y-97819866D01*
X230616401Y-97823226D01*
X230468720Y-97962881D01*
X230352137Y-98129379D01*
X230271414Y-98315919D01*
X230270108Y-98322171D01*
X230235062Y-98489929D01*
X230229849Y-98514880D01*
X230229500Y-98521539D01*
X230229500Y-98970800D01*
X229690500Y-98970800D01*
X229690500Y-98569200D01*
X229675120Y-98417784D01*
X229614338Y-98223828D01*
X229515797Y-98046056D01*
X229383523Y-97891729D01*
X229362413Y-97875354D01*
X229227958Y-97771061D01*
X229222919Y-97767152D01*
X229040545Y-97677413D01*
X229034367Y-97675804D01*
X229034365Y-97675803D01*
X228850034Y-97627788D01*
X228850031Y-97627788D01*
X228843852Y-97626178D01*
X228827287Y-97625310D01*
X228817848Y-97624815D01*
X228750868Y-97601275D01*
X228707248Y-97545259D01*
X228700836Y-97474552D01*
X228733669Y-97411604D01*
X228795323Y-97376399D01*
X228805596Y-97374406D01*
X228940097Y-97354065D01*
X229130852Y-97283881D01*
X229136273Y-97280520D01*
X229298176Y-97180137D01*
X229298180Y-97180134D01*
X229303599Y-97176774D01*
X229451280Y-97037119D01*
X229567863Y-96870621D01*
X229648586Y-96684081D01*
X229671193Y-96575868D01*
X229689162Y-96489856D01*
X229689163Y-96489851D01*
X229690151Y-96485120D01*
X229690500Y-96478461D01*
X229690500Y-96029200D01*
X229675120Y-95877784D01*
X229614338Y-95683828D01*
X229515797Y-95506056D01*
X229383523Y-95351729D01*
X229378376Y-95347736D01*
X229245076Y-95244339D01*
X229222919Y-95227152D01*
X229040545Y-95137413D01*
X229034367Y-95135804D01*
X229034365Y-95135803D01*
X228850034Y-95087788D01*
X228850031Y-95087788D01*
X228843852Y-95086178D01*
X228762672Y-95081924D01*
X228647256Y-95075875D01*
X228647252Y-95075875D01*
X228640874Y-95075541D01*
X228439903Y-95105935D01*
X228249148Y-95176119D01*
X228243728Y-95179479D01*
X228243727Y-95179480D01*
X228081824Y-95279863D01*
X228081820Y-95279866D01*
X228076401Y-95283226D01*
X227928720Y-95422881D01*
X227812137Y-95589379D01*
X227731414Y-95775919D01*
X227730108Y-95782171D01*
X227717917Y-95840528D01*
X227689849Y-95974880D01*
X227689500Y-95981539D01*
X227689500Y-96430800D01*
X227704880Y-96582216D01*
X227765662Y-96776172D01*
X227864203Y-96953944D01*
X227996477Y-97108271D01*
X228157081Y-97232848D01*
X228339455Y-97322587D01*
X228345633Y-97324196D01*
X228345635Y-97324197D01*
X228529966Y-97372212D01*
X228529969Y-97372212D01*
X228536148Y-97373822D01*
X228552713Y-97374690D01*
X228562152Y-97375185D01*
X228629132Y-97398725D01*
X228672752Y-97454741D01*
X228679164Y-97525448D01*
X228646331Y-97588396D01*
X228584677Y-97623601D01*
X228574404Y-97625594D01*
X228439903Y-97645935D01*
X228249148Y-97716119D01*
X228243728Y-97719479D01*
X228243727Y-97719480D01*
X228081824Y-97819863D01*
X228081820Y-97819866D01*
X228076401Y-97823226D01*
X227928720Y-97962881D01*
X227812137Y-98129379D01*
X227731414Y-98315919D01*
X227730108Y-98322171D01*
X227695062Y-98489929D01*
X227689849Y-98514880D01*
X227689500Y-98521539D01*
X227689500Y-98970800D01*
X227150500Y-98970800D01*
X227150500Y-98569200D01*
X227135120Y-98417784D01*
X227074338Y-98223828D01*
X226975797Y-98046056D01*
X226843523Y-97891729D01*
X226822413Y-97875354D01*
X226687958Y-97771061D01*
X226682919Y-97767152D01*
X226500545Y-97677413D01*
X226494367Y-97675804D01*
X226494365Y-97675803D01*
X226310034Y-97627788D01*
X226310031Y-97627788D01*
X226303852Y-97626178D01*
X226287287Y-97625310D01*
X226277848Y-97624815D01*
X226210868Y-97601275D01*
X226167248Y-97545259D01*
X226160836Y-97474552D01*
X226193669Y-97411604D01*
X226255323Y-97376399D01*
X226265596Y-97374406D01*
X226400097Y-97354065D01*
X226590852Y-97283881D01*
X226596273Y-97280520D01*
X226758176Y-97180137D01*
X226758180Y-97180134D01*
X226763599Y-97176774D01*
X226911280Y-97037119D01*
X227027863Y-96870621D01*
X227108586Y-96684081D01*
X227131193Y-96575868D01*
X227149162Y-96489856D01*
X227149163Y-96489851D01*
X227150151Y-96485120D01*
X227150500Y-96478461D01*
X227150500Y-96029200D01*
X227135120Y-95877784D01*
X227074338Y-95683828D01*
X226975797Y-95506056D01*
X226843523Y-95351729D01*
X226838376Y-95347736D01*
X226705076Y-95244339D01*
X226682919Y-95227152D01*
X226500545Y-95137413D01*
X226494367Y-95135804D01*
X226494365Y-95135803D01*
X226310034Y-95087788D01*
X226310031Y-95087788D01*
X226303852Y-95086178D01*
X226222672Y-95081924D01*
X226107256Y-95075875D01*
X226107252Y-95075875D01*
X226100874Y-95075541D01*
X225899903Y-95105935D01*
X225709148Y-95176119D01*
X225703728Y-95179479D01*
X225703727Y-95179480D01*
X225541824Y-95279863D01*
X225541820Y-95279866D01*
X225536401Y-95283226D01*
X225388720Y-95422881D01*
X225272137Y-95589379D01*
X225191414Y-95775919D01*
X225190108Y-95782171D01*
X225177917Y-95840528D01*
X225149849Y-95974880D01*
X225149500Y-95981539D01*
X225149500Y-96430800D01*
X225164880Y-96582216D01*
X225225662Y-96776172D01*
X225324203Y-96953944D01*
X225456477Y-97108271D01*
X225617081Y-97232848D01*
X225799455Y-97322587D01*
X225805633Y-97324196D01*
X225805635Y-97324197D01*
X225989966Y-97372212D01*
X225989969Y-97372212D01*
X225996148Y-97373822D01*
X226012713Y-97374690D01*
X226022152Y-97375185D01*
X226089132Y-97398725D01*
X226132752Y-97454741D01*
X226139164Y-97525448D01*
X226106331Y-97588396D01*
X226044677Y-97623601D01*
X226034404Y-97625594D01*
X225899903Y-97645935D01*
X225709148Y-97716119D01*
X225703728Y-97719479D01*
X225703727Y-97719480D01*
X225541824Y-97819863D01*
X225541820Y-97819866D01*
X225536401Y-97823226D01*
X225388720Y-97962881D01*
X225272137Y-98129379D01*
X225191414Y-98315919D01*
X225190108Y-98322171D01*
X225155062Y-98489929D01*
X225149849Y-98514880D01*
X225149500Y-98521539D01*
X225149500Y-98970800D01*
X224610500Y-98970800D01*
X224610500Y-98569200D01*
X224595120Y-98417784D01*
X224534338Y-98223828D01*
X224435797Y-98046056D01*
X224303523Y-97891729D01*
X224282413Y-97875354D01*
X224147958Y-97771061D01*
X224142919Y-97767152D01*
X223960545Y-97677413D01*
X223954367Y-97675804D01*
X223954365Y-97675803D01*
X223770034Y-97627788D01*
X223770031Y-97627788D01*
X223763852Y-97626178D01*
X223682672Y-97621924D01*
X223567256Y-97615875D01*
X223567252Y-97615875D01*
X223560874Y-97615541D01*
X223359903Y-97645935D01*
X223169148Y-97716119D01*
X223163728Y-97719479D01*
X223163727Y-97719480D01*
X223001824Y-97819863D01*
X223001820Y-97819866D01*
X222996401Y-97823226D01*
X222848720Y-97962881D01*
X222732137Y-98129379D01*
X222651414Y-98315919D01*
X222650108Y-98322171D01*
X222615062Y-98489929D01*
X222609849Y-98514880D01*
X222609500Y-98521539D01*
X222609500Y-98970800D01*
X222070500Y-98970800D01*
X222070500Y-98569200D01*
X222055120Y-98417784D01*
X221994338Y-98223828D01*
X221895797Y-98046056D01*
X221763523Y-97891729D01*
X221742413Y-97875354D01*
X221607958Y-97771061D01*
X221602919Y-97767152D01*
X221420545Y-97677413D01*
X221414367Y-97675804D01*
X221414365Y-97675803D01*
X221230034Y-97627788D01*
X221230031Y-97627788D01*
X221223852Y-97626178D01*
X221207287Y-97625310D01*
X221197848Y-97624815D01*
X221130868Y-97601275D01*
X221087248Y-97545259D01*
X221080836Y-97474552D01*
X221113669Y-97411604D01*
X221175323Y-97376399D01*
X221185596Y-97374406D01*
X221320097Y-97354065D01*
X221510852Y-97283881D01*
X221516273Y-97280520D01*
X221678176Y-97180137D01*
X221678180Y-97180134D01*
X221683599Y-97176774D01*
X221831280Y-97037119D01*
X221947863Y-96870621D01*
X222028586Y-96684081D01*
X222051193Y-96575868D01*
X222069162Y-96489856D01*
X222069163Y-96489851D01*
X222070151Y-96485120D01*
X222070500Y-96478461D01*
X222070500Y-96029200D01*
X222055120Y-95877784D01*
X221994338Y-95683828D01*
X221895797Y-95506056D01*
X221763523Y-95351729D01*
X221758376Y-95347736D01*
X221625076Y-95244339D01*
X221602919Y-95227152D01*
X221420545Y-95137413D01*
X221414367Y-95135804D01*
X221414365Y-95135803D01*
X221230034Y-95087788D01*
X221230031Y-95087788D01*
X221223852Y-95086178D01*
X221142672Y-95081924D01*
X221027256Y-95075875D01*
X221027252Y-95075875D01*
X221020874Y-95075541D01*
X220819903Y-95105935D01*
X220629148Y-95176119D01*
X220623728Y-95179479D01*
X220623727Y-95179480D01*
X220461824Y-95279863D01*
X220461820Y-95279866D01*
X220456401Y-95283226D01*
X220308720Y-95422881D01*
X220192137Y-95589379D01*
X220111414Y-95775919D01*
X220110108Y-95782171D01*
X220097917Y-95840528D01*
X220069849Y-95974880D01*
X220069500Y-95981539D01*
X220069500Y-96430800D01*
X220084880Y-96582216D01*
X220145662Y-96776172D01*
X220244203Y-96953944D01*
X220376477Y-97108271D01*
X220537081Y-97232848D01*
X220719455Y-97322587D01*
X220725633Y-97324196D01*
X220725635Y-97324197D01*
X220909966Y-97372212D01*
X220909969Y-97372212D01*
X220916148Y-97373822D01*
X220932713Y-97374690D01*
X220942152Y-97375185D01*
X221009132Y-97398725D01*
X221052752Y-97454741D01*
X221059164Y-97525448D01*
X221026331Y-97588396D01*
X220964677Y-97623601D01*
X220954404Y-97625594D01*
X220819903Y-97645935D01*
X220629148Y-97716119D01*
X220623728Y-97719479D01*
X220623727Y-97719480D01*
X220461824Y-97819863D01*
X220461820Y-97819866D01*
X220456401Y-97823226D01*
X220308720Y-97962881D01*
X220192137Y-98129379D01*
X220111414Y-98315919D01*
X220110108Y-98322171D01*
X220075062Y-98489929D01*
X220069849Y-98514880D01*
X220069500Y-98521539D01*
X220069500Y-98970800D01*
X216990500Y-98970800D01*
X216990500Y-98569200D01*
X216975120Y-98417784D01*
X216914338Y-98223828D01*
X216815797Y-98046056D01*
X216683523Y-97891729D01*
X216662413Y-97875354D01*
X216527958Y-97771061D01*
X216522919Y-97767152D01*
X216340545Y-97677413D01*
X216334367Y-97675804D01*
X216334365Y-97675803D01*
X216150034Y-97627788D01*
X216150031Y-97627788D01*
X216143852Y-97626178D01*
X216127287Y-97625310D01*
X216117848Y-97624815D01*
X216050868Y-97601275D01*
X216007248Y-97545259D01*
X216000836Y-97474552D01*
X216033669Y-97411604D01*
X216095323Y-97376399D01*
X216105596Y-97374406D01*
X216240097Y-97354065D01*
X216430852Y-97283881D01*
X216436273Y-97280520D01*
X216598176Y-97180137D01*
X216598180Y-97180134D01*
X216603599Y-97176774D01*
X216751280Y-97037119D01*
X216867863Y-96870621D01*
X216948586Y-96684081D01*
X216971193Y-96575868D01*
X216989162Y-96489856D01*
X216989163Y-96489851D01*
X216990151Y-96485120D01*
X216990500Y-96478461D01*
X216990500Y-96430800D01*
X217529500Y-96430800D01*
X217544880Y-96582216D01*
X217605662Y-96776172D01*
X217704203Y-96953944D01*
X217836477Y-97108271D01*
X217997081Y-97232848D01*
X218179455Y-97322587D01*
X218185633Y-97324196D01*
X218185635Y-97324197D01*
X218369966Y-97372212D01*
X218369969Y-97372212D01*
X218376148Y-97373822D01*
X218457328Y-97378076D01*
X218572744Y-97384125D01*
X218572748Y-97384125D01*
X218579126Y-97384459D01*
X218780097Y-97354065D01*
X218970852Y-97283881D01*
X218976273Y-97280520D01*
X219138176Y-97180137D01*
X219138180Y-97180134D01*
X219143599Y-97176774D01*
X219291280Y-97037119D01*
X219407863Y-96870621D01*
X219488586Y-96684081D01*
X219511193Y-96575868D01*
X219529162Y-96489856D01*
X219529163Y-96489851D01*
X219530151Y-96485120D01*
X219530500Y-96478461D01*
X219530500Y-96029200D01*
X219515120Y-95877784D01*
X219454338Y-95683828D01*
X219355797Y-95506056D01*
X219223523Y-95351729D01*
X219218376Y-95347736D01*
X219085076Y-95244339D01*
X219062919Y-95227152D01*
X218880545Y-95137413D01*
X218874367Y-95135804D01*
X218874365Y-95135803D01*
X218690034Y-95087788D01*
X218690031Y-95087788D01*
X218683852Y-95086178D01*
X218602672Y-95081924D01*
X218487256Y-95075875D01*
X218487252Y-95075875D01*
X218480874Y-95075541D01*
X218279903Y-95105935D01*
X218089148Y-95176119D01*
X218083728Y-95179479D01*
X218083727Y-95179480D01*
X217921824Y-95279863D01*
X217921820Y-95279866D01*
X217916401Y-95283226D01*
X217768720Y-95422881D01*
X217652137Y-95589379D01*
X217571414Y-95775919D01*
X217570108Y-95782171D01*
X217557917Y-95840528D01*
X217529849Y-95974880D01*
X217529500Y-95981539D01*
X217529500Y-96430800D01*
X216990500Y-96430800D01*
X216990500Y-96029200D01*
X216975120Y-95877784D01*
X216914338Y-95683828D01*
X216815797Y-95506056D01*
X216683523Y-95351729D01*
X216678376Y-95347736D01*
X216545076Y-95244339D01*
X216522919Y-95227152D01*
X216340545Y-95137413D01*
X216334367Y-95135804D01*
X216334365Y-95135803D01*
X216150034Y-95087788D01*
X216150031Y-95087788D01*
X216143852Y-95086178D01*
X216062672Y-95081924D01*
X215947256Y-95075875D01*
X215947252Y-95075875D01*
X215940874Y-95075541D01*
X215739903Y-95105935D01*
X215549148Y-95176119D01*
X215543728Y-95179479D01*
X215543727Y-95179480D01*
X215381824Y-95279863D01*
X215381820Y-95279866D01*
X215376401Y-95283226D01*
X215228720Y-95422881D01*
X215112137Y-95589379D01*
X215031414Y-95775919D01*
X215030108Y-95782171D01*
X215017917Y-95840528D01*
X214989849Y-95974880D01*
X214989500Y-95981539D01*
X214989500Y-96430800D01*
X215004880Y-96582216D01*
X215065662Y-96776172D01*
X215164203Y-96953944D01*
X215296477Y-97108271D01*
X215457081Y-97232848D01*
X215639455Y-97322587D01*
X215645633Y-97324196D01*
X215645635Y-97324197D01*
X215829966Y-97372212D01*
X215829969Y-97372212D01*
X215836148Y-97373822D01*
X215852713Y-97374690D01*
X215862152Y-97375185D01*
X215929132Y-97398725D01*
X215972752Y-97454741D01*
X215979164Y-97525448D01*
X215946331Y-97588396D01*
X215884677Y-97623601D01*
X215874404Y-97625594D01*
X215739903Y-97645935D01*
X215549148Y-97716119D01*
X215543728Y-97719479D01*
X215543727Y-97719480D01*
X215381824Y-97819863D01*
X215381820Y-97819866D01*
X215376401Y-97823226D01*
X215228720Y-97962881D01*
X215112137Y-98129379D01*
X215031414Y-98315919D01*
X215030108Y-98322171D01*
X214995062Y-98489929D01*
X214989849Y-98514880D01*
X214989500Y-98521539D01*
X214989500Y-98970800D01*
X214450500Y-98970800D01*
X214450500Y-98569200D01*
X214435120Y-98417784D01*
X214374338Y-98223828D01*
X214275797Y-98046056D01*
X214143523Y-97891729D01*
X214122413Y-97875354D01*
X213987958Y-97771061D01*
X213982919Y-97767152D01*
X213800545Y-97677413D01*
X213794367Y-97675804D01*
X213794365Y-97675803D01*
X213610034Y-97627788D01*
X213610031Y-97627788D01*
X213603852Y-97626178D01*
X213522672Y-97621924D01*
X213407256Y-97615875D01*
X213407252Y-97615875D01*
X213400874Y-97615541D01*
X213199903Y-97645935D01*
X213009148Y-97716119D01*
X213003728Y-97719479D01*
X213003727Y-97719480D01*
X212841824Y-97819863D01*
X212841820Y-97819866D01*
X212836401Y-97823226D01*
X212688720Y-97962881D01*
X212572137Y-98129379D01*
X212491414Y-98315919D01*
X212490108Y-98322171D01*
X212455062Y-98489929D01*
X212449849Y-98514880D01*
X212449500Y-98521539D01*
X212449500Y-98970800D01*
X211910500Y-98970800D01*
X211910500Y-98569200D01*
X211895120Y-98417784D01*
X211834338Y-98223828D01*
X211735797Y-98046056D01*
X211603523Y-97891729D01*
X211582413Y-97875354D01*
X211447958Y-97771061D01*
X211442919Y-97767152D01*
X211260545Y-97677413D01*
X211254367Y-97675804D01*
X211254365Y-97675803D01*
X211070034Y-97627788D01*
X211070031Y-97627788D01*
X211063852Y-97626178D01*
X211047287Y-97625310D01*
X211037848Y-97624815D01*
X210970868Y-97601275D01*
X210927248Y-97545259D01*
X210920836Y-97474552D01*
X210953669Y-97411604D01*
X211015323Y-97376399D01*
X211025596Y-97374406D01*
X211160097Y-97354065D01*
X211350852Y-97283881D01*
X211356273Y-97280520D01*
X211518176Y-97180137D01*
X211518180Y-97180134D01*
X211523599Y-97176774D01*
X211671280Y-97037119D01*
X211787863Y-96870621D01*
X211868586Y-96684081D01*
X211891193Y-96575868D01*
X211909162Y-96489856D01*
X211909163Y-96489851D01*
X211910151Y-96485120D01*
X211910500Y-96478461D01*
X211910500Y-96029200D01*
X211895120Y-95877784D01*
X211834338Y-95683828D01*
X211735797Y-95506056D01*
X211603523Y-95351729D01*
X211598376Y-95347736D01*
X211465076Y-95244339D01*
X211442919Y-95227152D01*
X211260545Y-95137413D01*
X211254367Y-95135804D01*
X211254365Y-95135803D01*
X211070034Y-95087788D01*
X211070031Y-95087788D01*
X211063852Y-95086178D01*
X210982672Y-95081924D01*
X210867256Y-95075875D01*
X210867252Y-95075875D01*
X210860874Y-95075541D01*
X210659903Y-95105935D01*
X210469148Y-95176119D01*
X210463728Y-95179479D01*
X210463727Y-95179480D01*
X210301824Y-95279863D01*
X210301820Y-95279866D01*
X210296401Y-95283226D01*
X210148720Y-95422881D01*
X210032137Y-95589379D01*
X209951414Y-95775919D01*
X209950108Y-95782171D01*
X209937917Y-95840528D01*
X209909849Y-95974880D01*
X209909500Y-95981539D01*
X209909500Y-96430800D01*
X209924880Y-96582216D01*
X209985662Y-96776172D01*
X210084203Y-96953944D01*
X210216477Y-97108271D01*
X210377081Y-97232848D01*
X210559455Y-97322587D01*
X210565633Y-97324196D01*
X210565635Y-97324197D01*
X210749966Y-97372212D01*
X210749969Y-97372212D01*
X210756148Y-97373822D01*
X210772713Y-97374690D01*
X210782152Y-97375185D01*
X210849132Y-97398725D01*
X210892752Y-97454741D01*
X210899164Y-97525448D01*
X210866331Y-97588396D01*
X210804677Y-97623601D01*
X210794404Y-97625594D01*
X210659903Y-97645935D01*
X210469148Y-97716119D01*
X210463728Y-97719479D01*
X210463727Y-97719480D01*
X210301824Y-97819863D01*
X210301820Y-97819866D01*
X210296401Y-97823226D01*
X210148720Y-97962881D01*
X210032137Y-98129379D01*
X209951414Y-98315919D01*
X209950108Y-98322171D01*
X209915062Y-98489929D01*
X209909849Y-98514880D01*
X209909500Y-98521539D01*
X209909500Y-98970800D01*
X209924880Y-99122216D01*
X209985662Y-99316172D01*
X210084203Y-99493944D01*
X210216477Y-99648271D01*
X210221514Y-99652178D01*
X210221516Y-99652180D01*
X210258563Y-99680916D01*
X210377081Y-99772848D01*
X210559455Y-99862587D01*
X210565633Y-99864196D01*
X210565635Y-99864197D01*
X210749966Y-99912212D01*
X210749969Y-99912212D01*
X210756148Y-99913822D01*
X210807277Y-99916501D01*
X210874257Y-99940040D01*
X210917878Y-99996055D01*
X210924291Y-100066761D01*
X210891460Y-100129710D01*
X210837072Y-100160168D01*
X210837821Y-100162369D01*
X210685098Y-100214360D01*
X210685095Y-100214361D01*
X210678431Y-100216630D01*
X210672436Y-100220318D01*
X210672432Y-100220320D01*
X210541021Y-100301165D01*
X210541019Y-100301167D01*
X210535022Y-100304856D01*
X210414724Y-100422661D01*
X210323515Y-100564190D01*
X210321105Y-100570810D01*
X210321104Y-100570813D01*
X210310003Y-100601312D01*
X210265927Y-100722409D01*
X210244825Y-100889455D01*
X210245512Y-100896462D01*
X210245512Y-100896465D01*
X210248311Y-100925010D01*
X210261255Y-101057025D01*
X210263479Y-101063710D01*
X210293058Y-101152629D01*
X210299500Y-101192401D01*
X210299500Y-101257653D01*
X210279498Y-101325774D01*
X210262595Y-101346748D01*
X208479175Y-103130168D01*
X208472910Y-103136021D01*
X208429854Y-103173581D01*
X208393567Y-103225213D01*
X208389634Y-103230508D01*
X208355355Y-103274226D01*
X208355353Y-103274230D01*
X208350666Y-103280207D01*
X208347540Y-103287130D01*
X208345755Y-103290078D01*
X208338363Y-103303038D01*
X208336730Y-103306084D01*
X208332363Y-103312297D01*
X208329604Y-103319374D01*
X208309430Y-103371116D01*
X208306875Y-103377195D01*
X208280895Y-103434734D01*
X208279510Y-103442205D01*
X208278486Y-103445473D01*
X208274373Y-103459914D01*
X208273533Y-103463187D01*
X208270774Y-103470263D01*
X208269236Y-103481945D01*
X208262534Y-103532856D01*
X208261502Y-103539373D01*
X208249998Y-103601442D01*
X208250435Y-103609022D01*
X208250435Y-103609023D01*
X208253541Y-103662894D01*
X208253750Y-103670146D01*
X208253750Y-104346279D01*
X208233748Y-104414400D01*
X208224271Y-104427271D01*
X208159406Y-104504573D01*
X208108147Y-104565661D01*
X208011734Y-104741037D01*
X207951220Y-104931799D01*
X207928912Y-105130683D01*
X207434750Y-105130683D01*
X207434750Y-104380354D01*
X207431632Y-104354154D01*
X207386189Y-104251847D01*
X207306963Y-104172759D01*
X207275552Y-104158872D01*
X207221336Y-104113033D01*
X207200500Y-104043632D01*
X207200500Y-103192612D01*
X207208712Y-103147869D01*
X207229019Y-103094410D01*
X207229019Y-103094409D01*
X207231521Y-103087823D01*
X207254955Y-102921088D01*
X207255249Y-102900000D01*
X207253283Y-102882468D01*
X207237266Y-102739672D01*
X207237265Y-102739669D01*
X207236481Y-102732676D01*
X207181108Y-102573668D01*
X207091884Y-102430879D01*
X207083723Y-102422661D01*
X206978205Y-102316403D01*
X206978201Y-102316400D01*
X206973242Y-102311406D01*
X206831079Y-102221187D01*
X206672462Y-102164706D01*
X206665474Y-102163873D01*
X206665471Y-102163872D01*
X206572300Y-102152762D01*
X206505273Y-102144769D01*
X206498270Y-102145505D01*
X206498269Y-102145505D01*
X206452712Y-102150293D01*
X206337821Y-102162369D01*
X206331155Y-102164638D01*
X206331152Y-102164639D01*
X206185098Y-102214360D01*
X206185095Y-102214361D01*
X206178431Y-102216630D01*
X206172436Y-102220318D01*
X206172432Y-102220320D01*
X206041021Y-102301165D01*
X206041019Y-102301167D01*
X206035022Y-102304856D01*
X206023231Y-102316403D01*
X205945010Y-102393003D01*
X205914724Y-102422661D01*
X205823515Y-102564190D01*
X205821105Y-102570810D01*
X205821104Y-102570813D01*
X205796280Y-102639015D01*
X205765927Y-102722409D01*
X205744825Y-102889455D01*
X205745512Y-102896462D01*
X205745512Y-102896465D01*
X205748311Y-102925010D01*
X205761255Y-103057025D01*
X205763479Y-103063710D01*
X205793058Y-103152629D01*
X205799500Y-103192401D01*
X205799500Y-103998500D01*
X205779498Y-104066621D01*
X205725842Y-104113114D01*
X205673500Y-104124500D01*
X205649604Y-104124500D01*
X205645900Y-104124941D01*
X205645897Y-104124941D01*
X205638504Y-104125821D01*
X205623404Y-104127618D01*
X205521097Y-104173061D01*
X205442009Y-104252287D01*
X205396744Y-104354673D01*
X205393750Y-104380354D01*
X205393750Y-105909646D01*
X200300000Y-105909646D01*
X200300000Y-99125794D01*
X200320002Y-99057673D01*
X200373658Y-99011180D01*
X200443932Y-99001076D01*
X200508512Y-99030570D01*
X200538712Y-99069474D01*
X200585224Y-99162559D01*
X200587093Y-99165454D01*
X200587095Y-99165457D01*
X200783383Y-99469452D01*
X200783388Y-99469458D01*
X200785267Y-99472369D01*
X200787464Y-99475067D01*
X200787465Y-99475069D01*
X200866288Y-99571888D01*
X201018098Y-99758357D01*
X201020568Y-99760789D01*
X201020573Y-99760794D01*
X201278431Y-100014634D01*
X201280905Y-100017069D01*
X201283624Y-100019213D01*
X201283628Y-100019216D01*
X201420328Y-100126981D01*
X201570515Y-100245379D01*
X201883430Y-100440530D01*
X201886565Y-100442035D01*
X201886566Y-100442036D01*
X202212746Y-100598667D01*
X202212756Y-100598671D01*
X202215869Y-100600166D01*
X202563819Y-100722357D01*
X202923076Y-100805628D01*
X202926493Y-100806032D01*
X202926502Y-100806034D01*
X203286596Y-100848653D01*
X203289300Y-100848973D01*
X203292015Y-100849058D01*
X203292024Y-100849059D01*
X203317753Y-100849867D01*
X203337886Y-100850500D01*
X203592578Y-100850500D01*
X203594296Y-100850405D01*
X203594312Y-100850405D01*
X203740742Y-100842346D01*
X203868224Y-100835330D01*
X204232000Y-100774781D01*
X204586936Y-100674679D01*
X204928743Y-100536233D01*
X205112927Y-100436853D01*
X205250244Y-100362761D01*
X205250248Y-100362758D01*
X205253294Y-100361115D01*
X205340034Y-100301165D01*
X205553825Y-100153405D01*
X205553826Y-100153404D01*
X205556668Y-100151440D01*
X205559274Y-100149179D01*
X205559280Y-100149174D01*
X205826254Y-99917506D01*
X205835202Y-99909741D01*
X205952806Y-99782518D01*
X206061765Y-99664646D01*
X207369500Y-99664646D01*
X207372618Y-99690846D01*
X207376456Y-99699486D01*
X207376456Y-99699487D01*
X207409042Y-99772848D01*
X207418061Y-99793153D01*
X207497287Y-99872241D01*
X207507924Y-99876944D01*
X207507926Y-99876945D01*
X207541661Y-99891859D01*
X207599673Y-99917506D01*
X207625354Y-99920500D01*
X209114646Y-99920500D01*
X209118350Y-99920059D01*
X209118353Y-99920059D01*
X209125746Y-99919179D01*
X209140846Y-99917382D01*
X209152486Y-99912212D01*
X209232518Y-99876663D01*
X209243153Y-99871939D01*
X209322241Y-99792713D01*
X209331024Y-99772848D01*
X209363675Y-99698992D01*
X209367506Y-99690327D01*
X209370500Y-99664646D01*
X209370500Y-97875354D01*
X209367382Y-97849154D01*
X209357814Y-97827612D01*
X209326663Y-97757482D01*
X209321939Y-97746847D01*
X209242713Y-97667759D01*
X209232076Y-97663056D01*
X209232074Y-97663055D01*
X209172538Y-97636735D01*
X209140327Y-97622494D01*
X209114646Y-97619500D01*
X208540734Y-97619500D01*
X208472613Y-97599498D01*
X208426120Y-97545842D01*
X208416016Y-97475568D01*
X208445510Y-97410988D01*
X208505236Y-97372604D01*
X208521890Y-97368917D01*
X208620097Y-97354065D01*
X208810852Y-97283881D01*
X208816273Y-97280520D01*
X208978176Y-97180137D01*
X208978180Y-97180134D01*
X208983599Y-97176774D01*
X209131280Y-97037119D01*
X209247863Y-96870621D01*
X209328586Y-96684081D01*
X209351193Y-96575868D01*
X209369162Y-96489856D01*
X209369163Y-96489851D01*
X209370151Y-96485120D01*
X209370500Y-96478461D01*
X209370500Y-96029200D01*
X209355120Y-95877784D01*
X209294338Y-95683828D01*
X209195797Y-95506056D01*
X209063523Y-95351729D01*
X209058376Y-95347736D01*
X208925076Y-95244339D01*
X208902919Y-95227152D01*
X208720545Y-95137413D01*
X208714367Y-95135804D01*
X208714365Y-95135803D01*
X208530034Y-95087788D01*
X208530031Y-95087788D01*
X208523852Y-95086178D01*
X208442672Y-95081924D01*
X208327256Y-95075875D01*
X208327252Y-95075875D01*
X208320874Y-95075541D01*
X208119903Y-95105935D01*
X207929148Y-95176119D01*
X207923728Y-95179479D01*
X207923727Y-95179480D01*
X207761824Y-95279863D01*
X207761820Y-95279866D01*
X207756401Y-95283226D01*
X207608720Y-95422881D01*
X207492137Y-95589379D01*
X207411414Y-95775919D01*
X207410108Y-95782171D01*
X207397917Y-95840528D01*
X207369849Y-95974880D01*
X207369500Y-95981539D01*
X207369500Y-96430800D01*
X207384880Y-96582216D01*
X207445662Y-96776172D01*
X207544203Y-96953944D01*
X207676477Y-97108271D01*
X207837081Y-97232848D01*
X208019455Y-97322587D01*
X208025633Y-97324196D01*
X208025635Y-97324197D01*
X208207499Y-97371569D01*
X208268378Y-97408096D01*
X208299845Y-97471739D01*
X208291908Y-97542290D01*
X208247089Y-97597351D01*
X208175738Y-97619500D01*
X207625354Y-97619500D01*
X207621650Y-97619941D01*
X207621647Y-97619941D01*
X207614254Y-97620821D01*
X207599154Y-97622618D01*
X207590514Y-97626456D01*
X207590513Y-97626456D01*
X207548810Y-97644980D01*
X207496847Y-97668061D01*
X207417759Y-97747287D01*
X207413056Y-97757924D01*
X207413055Y-97757926D01*
X207407248Y-97771061D01*
X207372494Y-97849673D01*
X207369500Y-97875354D01*
X207369500Y-99664646D01*
X206061765Y-99664646D01*
X206083182Y-99641477D01*
X206085530Y-99638937D01*
X206254167Y-99410621D01*
X206302572Y-99345086D01*
X206302574Y-99345083D01*
X206304631Y-99342298D01*
X206489857Y-99023408D01*
X206638971Y-98686118D01*
X206676953Y-98566021D01*
X206749129Y-98337805D01*
X206749130Y-98337800D01*
X206750173Y-98334503D01*
X206822118Y-97972807D01*
X206830241Y-97879017D01*
X206853640Y-97608858D01*
X206853640Y-97608852D01*
X206853939Y-97605402D01*
X206848890Y-97391142D01*
X206845333Y-97240188D01*
X206845333Y-97240182D01*
X206845251Y-97236723D01*
X206796158Y-96871224D01*
X206707254Y-96513320D01*
X206579613Y-96167333D01*
X206414776Y-95837441D01*
X206409012Y-95828514D01*
X206216617Y-95530548D01*
X206216612Y-95530542D01*
X206214733Y-95527631D01*
X206193221Y-95501207D01*
X205984097Y-95244339D01*
X205984096Y-95244338D01*
X205981902Y-95241643D01*
X205979432Y-95239211D01*
X205979427Y-95239206D01*
X205721569Y-94985366D01*
X205721565Y-94985362D01*
X205719095Y-94982931D01*
X205429485Y-94754621D01*
X205116570Y-94559470D01*
X205075154Y-94539582D01*
X205022406Y-94492064D01*
X205003721Y-94423570D01*
X205025033Y-94355848D01*
X205079575Y-94310398D01*
X205129698Y-94300000D01*
X259875908Y-94300000D01*
X259944029Y-94320002D01*
G37*
G04 #@! TD.AperFunction*
G04 #@! TA.AperFunction,Conductor*
G36*
X261664121Y-109380002D02*
G01*
X261710614Y-109433658D01*
X261722000Y-109486000D01*
X261722000Y-114314000D01*
X261701998Y-114382121D01*
X261648342Y-114428614D01*
X261596000Y-114440000D01*
X257912000Y-114440000D01*
X257912000Y-126506000D01*
X257891998Y-126574121D01*
X257838342Y-126620614D01*
X257786000Y-126632000D01*
X254228000Y-126632000D01*
X254159879Y-126611998D01*
X254113386Y-126558342D01*
X254102000Y-126506000D01*
X254102000Y-109486000D01*
X254122002Y-109417879D01*
X254175658Y-109371386D01*
X254228000Y-109360000D01*
X261596000Y-109360000D01*
X261664121Y-109380002D01*
G37*
G04 #@! TD.AperFunction*
M02*
