G04 #@! TF.GenerationSoftware,KiCad,Pcbnew,(6.0.1)*
G04 #@! TF.CreationDate,2023-02-19T12:06:20-06:00*
G04 #@! TF.ProjectId,2019-Pi-Power,32303139-2d50-4692-9d50-6f7765722e6b,V2*
G04 #@! TF.SameCoordinates,Original*
G04 #@! TF.FileFunction,Soldermask,Top*
G04 #@! TF.FilePolarity,Negative*
%FSLAX46Y46*%
G04 Gerber Fmt 4.6, Leading zero omitted, Abs format (unit mm)*
G04 Created by KiCad (PCBNEW (6.0.1)) date 2023-02-19 12:06:20*
%MOMM*%
%LPD*%
G01*
G04 APERTURE LIST*
G04 Aperture macros list*
%AMRoundRect*
0 Rectangle with rounded corners*
0 $1 Rounding radius*
0 $2 $3 $4 $5 $6 $7 $8 $9 X,Y pos of 4 corners*
0 Add a 4 corners polygon primitive as box body*
4,1,4,$2,$3,$4,$5,$6,$7,$8,$9,$2,$3,0*
0 Add four circle primitives for the rounded corners*
1,1,$1+$1,$2,$3*
1,1,$1+$1,$4,$5*
1,1,$1+$1,$6,$7*
1,1,$1+$1,$8,$9*
0 Add four rect primitives between the rounded corners*
20,1,$1+$1,$2,$3,$4,$5,0*
20,1,$1+$1,$4,$5,$6,$7,0*
20,1,$1+$1,$6,$7,$8,$9,0*
20,1,$1+$1,$8,$9,$2,$3,0*%
G04 Aperture macros list end*
%ADD10C,0.150000*%
%ADD11C,0.796200*%
%ADD12C,0.010000*%
%ADD13C,5.700000*%
%ADD14RoundRect,0.218750X-0.218750X-0.256250X0.218750X-0.256250X0.218750X0.256250X-0.218750X0.256250X0*%
%ADD15RoundRect,0.218750X-0.256250X0.218750X-0.256250X-0.218750X0.256250X-0.218750X0.256250X0.218750X0*%
%ADD16R,0.750000X0.800000*%
%ADD17RoundRect,0.875000X0.875000X-0.875000X0.875000X0.875000X-0.875000X0.875000X-0.875000X-0.875000X0*%
%ADD18R,2.700000X3.600000*%
%ADD19RoundRect,0.218750X0.218750X0.256250X-0.218750X0.256250X-0.218750X-0.256250X0.218750X-0.256250X0*%
%ADD20RoundRect,0.218750X0.256250X-0.218750X0.256250X0.218750X-0.256250X0.218750X-0.256250X-0.218750X0*%
%ADD21RoundRect,0.150000X-0.150000X0.800000X-0.150000X-0.800000X0.150000X-0.800000X0.150000X0.800000X0*%
%ADD22R,1.700000X2.500000*%
%ADD23RoundRect,0.250000X1.412500X0.550000X-1.412500X0.550000X-1.412500X-0.550000X1.412500X-0.550000X0*%
%ADD24RoundRect,0.250000X-0.550000X1.412500X-0.550000X-1.412500X0.550000X-1.412500X0.550000X1.412500X0*%
%ADD25R,1.700000X1.700000*%
%ADD26O,1.700000X1.700000*%
%ADD27R,1.400000X1.700000*%
%ADD28O,1.400000X1.700000*%
G04 APERTURE END LIST*
D10*
X239497000Y-118504000D02*
X244450000Y-118504000D01*
X244450000Y-118504000D02*
X244450000Y-121806000D01*
X244450000Y-121806000D02*
X239497000Y-121806000D01*
X239497000Y-121806000D02*
X239497000Y-118504000D01*
G36*
X244450000Y-121806000D02*
G01*
X239497000Y-121806000D01*
X239497000Y-118504000D01*
X244450000Y-118504000D01*
X244450000Y-121806000D01*
G37*
X244450000Y-121806000D02*
X239497000Y-121806000D01*
X239497000Y-118504000D01*
X244450000Y-118504000D01*
X244450000Y-121806000D01*
X211811000Y-118504000D02*
X216764000Y-118504000D01*
X216764000Y-118504000D02*
X216764000Y-121806000D01*
X216764000Y-121806000D02*
X211811000Y-121806000D01*
X211811000Y-121806000D02*
X211811000Y-118504000D01*
G36*
X216764000Y-121806000D02*
G01*
X211811000Y-121806000D01*
X211811000Y-118504000D01*
X216764000Y-118504000D01*
X216764000Y-121806000D01*
G37*
X216764000Y-121806000D02*
X211811000Y-121806000D01*
X211811000Y-118504000D01*
X216764000Y-118504000D01*
X216764000Y-121806000D01*
D11*
X209352350Y-105145000D02*
G75*
G03*
X209352350Y-105145000I-398100J0D01*
G01*
X211892350Y-105145000D02*
G75*
G03*
X211892350Y-105145000I-398100J0D01*
G01*
X214432350Y-105145000D02*
G75*
G03*
X214432350Y-105145000I-398100J0D01*
G01*
D12*
X207210450Y-105941200D02*
X205618050Y-105941200D01*
X205618050Y-105941200D02*
X205618050Y-104348800D01*
X205618050Y-104348800D02*
X207210450Y-104348800D01*
X207210450Y-104348800D02*
X207210450Y-105941200D01*
G36*
X207210450Y-105941200D02*
G01*
X205618050Y-105941200D01*
X205618050Y-104348800D01*
X207210450Y-104348800D01*
X207210450Y-105941200D01*
G37*
X207210450Y-105941200D02*
X205618050Y-105941200D01*
X205618050Y-104348800D01*
X207210450Y-104348800D01*
X207210450Y-105941200D01*
D13*
X203500000Y-97500000D03*
X261500000Y-97500000D03*
X203500000Y-146500000D03*
X261500000Y-146500000D03*
D14*
X214960500Y-125870000D03*
X216535500Y-125870000D03*
D15*
X219304000Y-122263000D03*
X219304000Y-123838000D03*
D16*
X213589000Y-114186000D03*
X213589000Y-112686000D03*
D17*
X227432000Y-138062000D03*
X227432000Y-144062000D03*
X232132000Y-141062000D03*
D18*
X228026000Y-113678000D03*
X219726000Y-113678000D03*
D19*
X213208000Y-125870000D03*
X211633000Y-125870000D03*
D20*
X210160000Y-115735500D03*
X210160000Y-114160500D03*
D15*
X211938000Y-112636500D03*
X211938000Y-114211500D03*
D14*
X207086500Y-115710000D03*
X208661500Y-115710000D03*
D21*
X216192500Y-116655000D03*
X214922500Y-116655000D03*
X213652500Y-116655000D03*
X212382500Y-116655000D03*
X212382500Y-123655000D03*
X213652500Y-123655000D03*
X214922500Y-123655000D03*
X216192500Y-123655000D03*
D22*
X222606000Y-125330000D03*
X222606000Y-121330000D03*
D23*
X214983500Y-130950000D03*
X209908500Y-130950000D03*
D24*
X228448000Y-124856500D03*
X228448000Y-129931500D03*
D25*
X241910000Y-144158000D03*
D26*
X241910000Y-141618000D03*
X244450000Y-144158000D03*
X244450000Y-141618000D03*
X246990000Y-144158000D03*
X246990000Y-141618000D03*
X249530000Y-144158000D03*
X249530000Y-141618000D03*
D25*
X231242000Y-102375000D03*
D26*
X233782000Y-102375000D03*
X236322000Y-102375000D03*
X238862000Y-102375000D03*
D25*
X231242000Y-106058000D03*
D26*
X233782000Y-106058000D03*
X236322000Y-106058000D03*
X238862000Y-106058000D03*
D25*
X224130000Y-104915000D03*
D26*
X224130000Y-102375000D03*
X226670000Y-104915000D03*
X226670000Y-102375000D03*
D23*
X241907500Y-130950000D03*
X236832500Y-130950000D03*
D14*
X242646500Y-125870000D03*
X244221500Y-125870000D03*
D15*
X246482000Y-122263000D03*
X246482000Y-123838000D03*
D24*
X255880000Y-124348500D03*
X255880000Y-129423500D03*
D22*
X249530000Y-125330000D03*
X249530000Y-121330000D03*
D18*
X256134000Y-113424000D03*
X247834000Y-113424000D03*
D19*
X239903500Y-125870000D03*
X238328500Y-125870000D03*
D20*
X237592000Y-115989500D03*
X237592000Y-114414500D03*
D14*
X234518500Y-115964000D03*
X236093500Y-115964000D03*
D21*
X243815000Y-116782000D03*
X242545000Y-116782000D03*
X241275000Y-116782000D03*
X240005000Y-116782000D03*
X240005000Y-123782000D03*
X241275000Y-123782000D03*
X242545000Y-123782000D03*
X243815000Y-123782000D03*
D20*
X241402000Y-114465500D03*
X241402000Y-112890500D03*
D15*
X239878000Y-112890500D03*
X239878000Y-114465500D03*
D25*
X260452000Y-110884000D03*
D26*
X260452000Y-113424000D03*
X260452000Y-115964000D03*
X260452000Y-118504000D03*
D27*
X208370000Y-98770000D03*
D28*
X208370000Y-96230000D03*
X210910000Y-98770000D03*
X210910000Y-96230000D03*
X213450000Y-98770000D03*
X213450000Y-96230000D03*
X215990000Y-98770000D03*
X215990000Y-96230000D03*
X218530000Y-98770000D03*
X218530000Y-96230000D03*
X221070000Y-98770000D03*
X221070000Y-96230000D03*
X223610000Y-98770000D03*
X223610000Y-96230000D03*
X226150000Y-98770000D03*
X226150000Y-96230000D03*
X228690000Y-98770000D03*
X228690000Y-96230000D03*
X231230000Y-98770000D03*
X231230000Y-96230000D03*
X233770000Y-98770000D03*
X233770000Y-96230000D03*
X236310000Y-98770000D03*
X236310000Y-96230000D03*
X238850000Y-98770000D03*
X238850000Y-96230000D03*
X241390000Y-98770000D03*
X241390000Y-96230000D03*
X243930000Y-98770000D03*
X243930000Y-96230000D03*
X246470000Y-98770000D03*
X246470000Y-96230000D03*
X249010000Y-98770000D03*
X249010000Y-96230000D03*
X251550000Y-98770000D03*
X251550000Y-96230000D03*
X254090000Y-98770000D03*
X254090000Y-96230000D03*
X256630000Y-98770000D03*
X256630000Y-96230000D03*
M02*
