M48
; DRILL file {KiCad (6.0.1)} date Sun Feb 19 12:06:22 2023
; FORMAT={-:-/ absolute / inch / decimal}
; #@! TF.CreationDate,2023-02-19T12:06:22-06:00
; #@! TF.GenerationSoftware,Kicad,Pcbnew,(6.0.1)
; #@! TF.FileFunction,Plated,1,2,PTH
FMAT,2
INCH
; #@! TA.AperFunction,Plated,PTH,ViaDrill
T1C0.0118
; #@! TA.AperFunction,Plated,PTH,ViaDrill
T2C0.0236
; #@! TA.AperFunction,Plated,PTH,ComponentDrill
T3C0.0394
; #@! TA.AperFunction,Plated,PTH,ComponentDrill
T4C0.0429
%
G90
G05
T1
X8.164Y-4.6255
X8.164Y-4.6555
X8.164Y-4.6855
X8.164Y-4.7155
X8.164Y-4.7455
X8.164Y-4.7755
X8.164Y-4.8055
X8.164Y-4.8355
X8.194Y-4.6255
X8.194Y-4.6555
X8.194Y-4.6855
X8.194Y-4.7155
X8.194Y-4.7455
X8.194Y-4.7755
X8.194Y-4.8055
X8.194Y-4.8355
X8.224Y-4.6255
X8.224Y-4.6555
X8.224Y-4.6855
X8.224Y-4.7155
X8.224Y-4.7455
X8.224Y-4.7755
X8.224Y-4.8055
X8.224Y-4.8355
X8.254Y-4.6255
X8.254Y-4.6555
X8.254Y-4.6855
X8.254Y-4.7155
X8.254Y-4.7455
X8.254Y-4.7755
X8.254Y-4.8055
X8.254Y-4.8355
X8.284Y-4.6255
X8.284Y-4.6555
X8.284Y-4.6855
X8.284Y-4.7155
X8.284Y-4.7455
X8.284Y-4.7755
X8.284Y-4.8055
X8.284Y-4.8355
X8.374Y-4.7055
X8.374Y-4.7355
X8.374Y-4.7655
X8.404Y-4.7055
X8.404Y-4.7355
X8.404Y-4.7655
X8.434Y-4.7055
X8.434Y-4.7355
X8.434Y-4.7655
X8.464Y-4.7055
X8.464Y-4.7355
X8.464Y-4.7655
X8.494Y-4.7055
X8.494Y-4.7355
X8.494Y-4.7655
X9.244Y-4.6255
X9.244Y-4.6555
X9.244Y-4.6855
X9.244Y-4.7155
X9.244Y-4.7455
X9.244Y-4.7755
X9.244Y-4.8055
X9.244Y-4.8355
X9.274Y-4.6255
X9.274Y-4.6555
X9.274Y-4.6855
X9.274Y-4.7155
X9.274Y-4.7455
X9.274Y-4.7755
X9.274Y-4.8055
X9.274Y-4.8355
X9.304Y-4.6255
X9.304Y-4.6555
X9.304Y-4.6855
X9.304Y-4.7155
X9.304Y-4.7455
X9.304Y-4.7755
X9.304Y-4.8055
X9.304Y-4.8355
X9.334Y-4.6255
X9.334Y-4.6555
X9.334Y-4.6855
X9.334Y-4.7155
X9.334Y-4.7455
X9.334Y-4.7755
X9.334Y-4.8055
X9.334Y-4.8355
X9.364Y-4.6255
X9.364Y-4.6555
X9.364Y-4.6855
X9.364Y-4.7155
X9.364Y-4.7455
X9.364Y-4.7755
X9.364Y-4.8055
X9.364Y-4.8355
X9.464Y-4.7055
X9.464Y-4.7355
X9.464Y-4.7655
X9.494Y-4.7055
X9.494Y-4.7355
X9.494Y-4.7655
X9.524Y-4.7055
X9.524Y-4.7355
X9.524Y-4.7655
X9.554Y-4.7055
X9.554Y-4.7355
X9.554Y-4.7655
X9.584Y-4.7055
X9.584Y-4.7355
X9.584Y-4.7655
T2
X8.1299Y-4.0512
X8.144Y-4.4855
X8.2047Y-4.2677
X8.224Y-4.4455
X8.3071Y-3.9724
X8.4291Y-3.9724
X8.864Y-5.7955
X8.924Y-5.7955
X8.984Y-5.7955
X9.044Y-5.7955
X9.054Y-5.0755
X9.054Y-5.1255
X9.054Y-5.1755
X9.054Y-5.2255
X9.174Y-4.5655
X9.254Y-5.3355
X9.314Y-4.4655
X9.994Y-5.0555
X9.994Y-5.1055
X9.994Y-5.1555
X9.994Y-5.2055
X10.024Y-4.8255
T3
X8.2035Y-3.7886
X8.2035Y-3.8886
X8.3035Y-3.7886
X8.3035Y-3.8886
X8.4035Y-3.7886
X8.4035Y-3.8886
X8.5035Y-3.7886
X8.5035Y-3.8886
X8.6035Y-3.7886
X8.6035Y-3.8886
X8.7035Y-3.7886
X8.7035Y-3.8886
X8.8035Y-3.7886
X8.8035Y-3.8886
X8.824Y-4.0305
X8.824Y-4.1305
X8.9035Y-3.7886
X8.9035Y-3.8886
X8.924Y-4.0305
X8.924Y-4.1305
X9.0035Y-3.7886
X9.0035Y-3.8886
X9.1035Y-3.7886
X9.1035Y-3.8886
X9.104Y-4.0305
X9.104Y-4.1755
X9.2035Y-3.7886
X9.2035Y-3.8886
X9.204Y-4.0305
X9.204Y-4.1755
X9.3035Y-3.7886
X9.3035Y-3.8886
X9.304Y-4.0305
X9.304Y-4.1755
X9.4035Y-3.7886
X9.4035Y-3.8886
X9.404Y-4.0305
X9.404Y-4.1755
X9.5035Y-3.7886
X9.5035Y-3.8886
X9.524Y-5.5755
X9.524Y-5.6755
X9.6035Y-3.7886
X9.6035Y-3.8886
X9.624Y-5.5755
X9.624Y-5.6755
X9.7035Y-3.7886
X9.7035Y-3.8886
X9.724Y-5.5755
X9.724Y-5.6755
X9.8035Y-3.7886
X9.8035Y-3.8886
X9.824Y-5.5755
X9.824Y-5.6755
X9.9035Y-3.7886
X9.9035Y-3.8886
X10.0035Y-3.7886
X10.0035Y-3.8886
X10.1035Y-3.7886
X10.1035Y-3.8886
X10.254Y-4.3655
X10.254Y-4.4655
X10.254Y-4.5655
X10.254Y-4.6655
T4
X8.1265Y-4.1396
X8.2265Y-4.1396
X8.3265Y-4.1396
X8.4265Y-4.1396
T3
G00X8.9146Y-5.4355
M15
G01X8.9934Y-5.4355
M16
G05
G00X8.9146Y-5.6717
M15
G01X8.9934Y-5.6717
M16
G05
G00X9.1391Y-5.593
M15
G01X9.1391Y-5.5143
M16
G05
T0
M30
