M48
; DRILL file {KiCad (5.1.6-0-10_14)} date Thursday, September 09, 2021 at 03:00:58 PM
; FORMAT={-:-/ absolute / inch / decimal}
; #@! TF.CreationDate,2021-09-09T15:00:58-05:00
; #@! TF.GenerationSoftware,Kicad,Pcbnew,(5.1.6-0-10_14)
FMAT,2
INCH
T1C0.0118
T2C0.0236
T3C0.0394
T4C0.1063
%
G90
G05
T1
X8.164Y-4.6255
X8.164Y-4.6555
X8.164Y-4.6855
X8.164Y-4.7155
X8.164Y-4.7455
X8.164Y-4.7755
X8.164Y-4.8055
X8.164Y-4.8355
X8.194Y-4.6255
X8.194Y-4.6555
X8.194Y-4.6855
X8.194Y-4.7155
X8.194Y-4.7455
X8.194Y-4.7755
X8.194Y-4.8055
X8.194Y-4.8355
X8.224Y-4.6255
X8.224Y-4.6555
X8.224Y-4.6855
X8.224Y-4.7155
X8.224Y-4.7455
X8.224Y-4.7755
X8.224Y-4.8055
X8.224Y-4.8355
X8.254Y-4.6255
X8.254Y-4.6555
X8.254Y-4.6855
X8.254Y-4.7155
X8.254Y-4.7455
X8.254Y-4.7755
X8.254Y-4.8055
X8.254Y-4.8355
X8.284Y-4.6255
X8.284Y-4.6555
X8.284Y-4.6855
X8.284Y-4.7155
X8.284Y-4.7455
X8.284Y-4.7755
X8.284Y-4.8055
X8.284Y-4.8355
X8.374Y-4.7055
X8.374Y-4.7355
X8.374Y-4.7655
X8.404Y-4.7055
X8.404Y-4.7355
X8.404Y-4.7655
X8.434Y-4.7055
X8.434Y-4.7355
X8.434Y-4.7655
X8.464Y-4.7055
X8.464Y-4.7355
X8.464Y-4.7655
X8.494Y-4.7055
X8.494Y-4.7355
X8.494Y-4.7655
X9.244Y-4.6255
X9.244Y-4.6555
X9.244Y-4.6855
X9.244Y-4.7155
X9.244Y-4.7455
X9.244Y-4.7755
X9.244Y-4.8055
X9.244Y-4.8355
X9.274Y-4.6255
X9.274Y-4.6555
X9.274Y-4.6855
X9.274Y-4.7155
X9.274Y-4.7455
X9.274Y-4.7755
X9.274Y-4.8055
X9.274Y-4.8355
X9.304Y-4.6255
X9.304Y-4.6555
X9.304Y-4.6855
X9.304Y-4.7155
X9.304Y-4.7455
X9.304Y-4.7755
X9.304Y-4.8055
X9.304Y-4.8355
X9.334Y-4.6255
X9.334Y-4.6555
X9.334Y-4.6855
X9.334Y-4.7155
X9.334Y-4.7455
X9.334Y-4.7755
X9.334Y-4.8055
X9.334Y-4.8355
X9.364Y-4.6255
X9.364Y-4.6555
X9.364Y-4.6855
X9.364Y-4.7155
X9.364Y-4.7455
X9.364Y-4.7755
X9.364Y-4.8055
X9.364Y-4.8355
X9.464Y-4.7055
X9.464Y-4.7355
X9.464Y-4.7655
X9.494Y-4.7055
X9.494Y-4.7355
X9.494Y-4.7655
X9.524Y-4.7055
X9.524Y-4.7355
X9.524Y-4.7655
X9.554Y-4.7055
X9.554Y-4.7355
X9.554Y-4.7655
X9.584Y-4.7055
X9.584Y-4.7355
X9.584Y-4.7655
T2
X8.144Y-4.4855
X8.224Y-4.4455
X8.284Y-4.2555
X8.864Y-5.7955
X8.924Y-5.7955
X8.984Y-5.7955
X9.044Y-5.7955
X9.054Y-5.0755
X9.054Y-5.1255
X9.054Y-5.1755
X9.054Y-5.2255
X9.174Y-4.5655
X9.254Y-5.3355
X9.314Y-4.4655
X9.994Y-5.0555
X9.994Y-5.1055
X9.994Y-5.1555
X9.994Y-5.2055
X10.024Y-4.8255
T3
X9.104Y-4.1755
X9.204Y-4.1755
X9.304Y-4.1755
X9.404Y-4.1755
X10.254Y-4.3655
X10.254Y-4.4655
X10.254Y-4.5655
X10.254Y-4.6655
X9.104Y-4.0305
X9.204Y-4.0305
X9.304Y-4.0305
X9.404Y-4.0305
X8.824Y-4.0305
X8.824Y-4.1305
X8.924Y-4.0305
X8.924Y-4.1305
X8.2035Y-3.7886
X8.2035Y-3.8886
X8.3035Y-3.7886
X8.3035Y-3.8886
X8.4035Y-3.7886
X8.4035Y-3.8886
X8.5035Y-3.7886
X8.5035Y-3.8886
X8.6035Y-3.7886
X8.6035Y-3.8886
X8.7035Y-3.7886
X8.7035Y-3.8886
X8.8035Y-3.7886
X8.8035Y-3.8886
X8.9035Y-3.7886
X8.9035Y-3.8886
X9.0035Y-3.7886
X9.0035Y-3.8886
X9.1035Y-3.7886
X9.1035Y-3.8886
X9.2035Y-3.7886
X9.2035Y-3.8886
X9.3035Y-3.7886
X9.3035Y-3.8886
X9.4035Y-3.7886
X9.4035Y-3.8886
X9.5035Y-3.7886
X9.5035Y-3.8886
X9.6035Y-3.7886
X9.6035Y-3.8886
X9.7035Y-3.7886
X9.7035Y-3.8886
X9.8035Y-3.7886
X9.8035Y-3.8886
X9.9035Y-3.7886
X9.9035Y-3.8886
X10.0035Y-3.7886
X10.0035Y-3.8886
X10.1035Y-3.7886
X10.1035Y-3.8886
X8.204Y-4.0755
X8.304Y-4.0755
X8.404Y-4.0755
X8.504Y-4.0755
X9.524Y-5.5755
X9.524Y-5.6755
X9.624Y-5.5755
X9.624Y-5.6755
X9.724Y-5.5755
X9.724Y-5.6755
X9.824Y-5.5755
X9.824Y-5.6755
T4
X10.2953Y-5.7677
X8.0118Y-5.7677
X10.2953Y-3.8386
X8.0118Y-3.8386
T3
G00X8.9146Y-5.4355
M15
G01X8.9934Y-5.4355
M16
G05
G00X8.9146Y-5.6717
M15
G01X8.9934Y-5.6717
M16
G05
G00X9.1391Y-5.593
M15
G01X9.1391Y-5.5143
M16
G05
T0
M30
