G04 #@! TF.GenerationSoftware,KiCad,Pcbnew,(5.1.6-0-10_14)*
G04 #@! TF.CreationDate,2021-09-09T15:00:30-05:00*
G04 #@! TF.ProjectId,2019-Pi-Power,32303139-2d50-4692-9d50-6f7765722e6b,rev?*
G04 #@! TF.SameCoordinates,Original*
G04 #@! TF.FileFunction,Paste,Top*
G04 #@! TF.FilePolarity,Positive*
%FSLAX46Y46*%
G04 Gerber Fmt 4.6, Leading zero omitted, Abs format (unit mm)*
G04 Created by KiCad (PCBNEW (5.1.6-0-10_14)) date 2021-09-09 15:00:30*
%MOMM*%
%LPD*%
G01*
G04 APERTURE LIST*
%ADD10R,2.700000X3.600000*%
%ADD11R,1.700000X2.500000*%
%ADD12R,0.750000X0.800000*%
G04 APERTURE END LIST*
G36*
G01*
X239621750Y-114028000D02*
X240134250Y-114028000D01*
G75*
G02*
X240353000Y-114246750I0J-218750D01*
G01*
X240353000Y-114684250D01*
G75*
G02*
X240134250Y-114903000I-218750J0D01*
G01*
X239621750Y-114903000D01*
G75*
G02*
X239403000Y-114684250I0J218750D01*
G01*
X239403000Y-114246750D01*
G75*
G02*
X239621750Y-114028000I218750J0D01*
G01*
G37*
G36*
G01*
X239621750Y-112453000D02*
X240134250Y-112453000D01*
G75*
G02*
X240353000Y-112671750I0J-218750D01*
G01*
X240353000Y-113109250D01*
G75*
G02*
X240134250Y-113328000I-218750J0D01*
G01*
X239621750Y-113328000D01*
G75*
G02*
X239403000Y-113109250I0J218750D01*
G01*
X239403000Y-112671750D01*
G75*
G02*
X239621750Y-112453000I218750J0D01*
G01*
G37*
G36*
G01*
X241658250Y-113328000D02*
X241145750Y-113328000D01*
G75*
G02*
X240927000Y-113109250I0J218750D01*
G01*
X240927000Y-112671750D01*
G75*
G02*
X241145750Y-112453000I218750J0D01*
G01*
X241658250Y-112453000D01*
G75*
G02*
X241877000Y-112671750I0J-218750D01*
G01*
X241877000Y-113109250D01*
G75*
G02*
X241658250Y-113328000I-218750J0D01*
G01*
G37*
G36*
G01*
X241658250Y-114903000D02*
X241145750Y-114903000D01*
G75*
G02*
X240927000Y-114684250I0J218750D01*
G01*
X240927000Y-114246750D01*
G75*
G02*
X241145750Y-114028000I218750J0D01*
G01*
X241658250Y-114028000D01*
G75*
G02*
X241877000Y-114246750I0J-218750D01*
G01*
X241877000Y-114684250D01*
G75*
G02*
X241658250Y-114903000I-218750J0D01*
G01*
G37*
G36*
G01*
X243665000Y-122832000D02*
X243965000Y-122832000D01*
G75*
G02*
X244115000Y-122982000I0J-150000D01*
G01*
X244115000Y-124582000D01*
G75*
G02*
X243965000Y-124732000I-150000J0D01*
G01*
X243665000Y-124732000D01*
G75*
G02*
X243515000Y-124582000I0J150000D01*
G01*
X243515000Y-122982000D01*
G75*
G02*
X243665000Y-122832000I150000J0D01*
G01*
G37*
G36*
G01*
X242395000Y-122832000D02*
X242695000Y-122832000D01*
G75*
G02*
X242845000Y-122982000I0J-150000D01*
G01*
X242845000Y-124582000D01*
G75*
G02*
X242695000Y-124732000I-150000J0D01*
G01*
X242395000Y-124732000D01*
G75*
G02*
X242245000Y-124582000I0J150000D01*
G01*
X242245000Y-122982000D01*
G75*
G02*
X242395000Y-122832000I150000J0D01*
G01*
G37*
G36*
G01*
X241125000Y-122832000D02*
X241425000Y-122832000D01*
G75*
G02*
X241575000Y-122982000I0J-150000D01*
G01*
X241575000Y-124582000D01*
G75*
G02*
X241425000Y-124732000I-150000J0D01*
G01*
X241125000Y-124732000D01*
G75*
G02*
X240975000Y-124582000I0J150000D01*
G01*
X240975000Y-122982000D01*
G75*
G02*
X241125000Y-122832000I150000J0D01*
G01*
G37*
G36*
G01*
X239855000Y-122832000D02*
X240155000Y-122832000D01*
G75*
G02*
X240305000Y-122982000I0J-150000D01*
G01*
X240305000Y-124582000D01*
G75*
G02*
X240155000Y-124732000I-150000J0D01*
G01*
X239855000Y-124732000D01*
G75*
G02*
X239705000Y-124582000I0J150000D01*
G01*
X239705000Y-122982000D01*
G75*
G02*
X239855000Y-122832000I150000J0D01*
G01*
G37*
G36*
G01*
X239855000Y-115832000D02*
X240155000Y-115832000D01*
G75*
G02*
X240305000Y-115982000I0J-150000D01*
G01*
X240305000Y-117582000D01*
G75*
G02*
X240155000Y-117732000I-150000J0D01*
G01*
X239855000Y-117732000D01*
G75*
G02*
X239705000Y-117582000I0J150000D01*
G01*
X239705000Y-115982000D01*
G75*
G02*
X239855000Y-115832000I150000J0D01*
G01*
G37*
G36*
G01*
X241125000Y-115832000D02*
X241425000Y-115832000D01*
G75*
G02*
X241575000Y-115982000I0J-150000D01*
G01*
X241575000Y-117582000D01*
G75*
G02*
X241425000Y-117732000I-150000J0D01*
G01*
X241125000Y-117732000D01*
G75*
G02*
X240975000Y-117582000I0J150000D01*
G01*
X240975000Y-115982000D01*
G75*
G02*
X241125000Y-115832000I150000J0D01*
G01*
G37*
G36*
G01*
X242395000Y-115832000D02*
X242695000Y-115832000D01*
G75*
G02*
X242845000Y-115982000I0J-150000D01*
G01*
X242845000Y-117582000D01*
G75*
G02*
X242695000Y-117732000I-150000J0D01*
G01*
X242395000Y-117732000D01*
G75*
G02*
X242245000Y-117582000I0J150000D01*
G01*
X242245000Y-115982000D01*
G75*
G02*
X242395000Y-115832000I150000J0D01*
G01*
G37*
G36*
G01*
X243665000Y-115832000D02*
X243965000Y-115832000D01*
G75*
G02*
X244115000Y-115982000I0J-150000D01*
G01*
X244115000Y-117582000D01*
G75*
G02*
X243965000Y-117732000I-150000J0D01*
G01*
X243665000Y-117732000D01*
G75*
G02*
X243515000Y-117582000I0J150000D01*
G01*
X243515000Y-115982000D01*
G75*
G02*
X243665000Y-115832000I150000J0D01*
G01*
G37*
G36*
G01*
X216042500Y-122705000D02*
X216342500Y-122705000D01*
G75*
G02*
X216492500Y-122855000I0J-150000D01*
G01*
X216492500Y-124455000D01*
G75*
G02*
X216342500Y-124605000I-150000J0D01*
G01*
X216042500Y-124605000D01*
G75*
G02*
X215892500Y-124455000I0J150000D01*
G01*
X215892500Y-122855000D01*
G75*
G02*
X216042500Y-122705000I150000J0D01*
G01*
G37*
G36*
G01*
X214772500Y-122705000D02*
X215072500Y-122705000D01*
G75*
G02*
X215222500Y-122855000I0J-150000D01*
G01*
X215222500Y-124455000D01*
G75*
G02*
X215072500Y-124605000I-150000J0D01*
G01*
X214772500Y-124605000D01*
G75*
G02*
X214622500Y-124455000I0J150000D01*
G01*
X214622500Y-122855000D01*
G75*
G02*
X214772500Y-122705000I150000J0D01*
G01*
G37*
G36*
G01*
X213502500Y-122705000D02*
X213802500Y-122705000D01*
G75*
G02*
X213952500Y-122855000I0J-150000D01*
G01*
X213952500Y-124455000D01*
G75*
G02*
X213802500Y-124605000I-150000J0D01*
G01*
X213502500Y-124605000D01*
G75*
G02*
X213352500Y-124455000I0J150000D01*
G01*
X213352500Y-122855000D01*
G75*
G02*
X213502500Y-122705000I150000J0D01*
G01*
G37*
G36*
G01*
X212232500Y-122705000D02*
X212532500Y-122705000D01*
G75*
G02*
X212682500Y-122855000I0J-150000D01*
G01*
X212682500Y-124455000D01*
G75*
G02*
X212532500Y-124605000I-150000J0D01*
G01*
X212232500Y-124605000D01*
G75*
G02*
X212082500Y-124455000I0J150000D01*
G01*
X212082500Y-122855000D01*
G75*
G02*
X212232500Y-122705000I150000J0D01*
G01*
G37*
G36*
G01*
X212232500Y-115705000D02*
X212532500Y-115705000D01*
G75*
G02*
X212682500Y-115855000I0J-150000D01*
G01*
X212682500Y-117455000D01*
G75*
G02*
X212532500Y-117605000I-150000J0D01*
G01*
X212232500Y-117605000D01*
G75*
G02*
X212082500Y-117455000I0J150000D01*
G01*
X212082500Y-115855000D01*
G75*
G02*
X212232500Y-115705000I150000J0D01*
G01*
G37*
G36*
G01*
X213502500Y-115705000D02*
X213802500Y-115705000D01*
G75*
G02*
X213952500Y-115855000I0J-150000D01*
G01*
X213952500Y-117455000D01*
G75*
G02*
X213802500Y-117605000I-150000J0D01*
G01*
X213502500Y-117605000D01*
G75*
G02*
X213352500Y-117455000I0J150000D01*
G01*
X213352500Y-115855000D01*
G75*
G02*
X213502500Y-115705000I150000J0D01*
G01*
G37*
G36*
G01*
X214772500Y-115705000D02*
X215072500Y-115705000D01*
G75*
G02*
X215222500Y-115855000I0J-150000D01*
G01*
X215222500Y-117455000D01*
G75*
G02*
X215072500Y-117605000I-150000J0D01*
G01*
X214772500Y-117605000D01*
G75*
G02*
X214622500Y-117455000I0J150000D01*
G01*
X214622500Y-115855000D01*
G75*
G02*
X214772500Y-115705000I150000J0D01*
G01*
G37*
G36*
G01*
X216042500Y-115705000D02*
X216342500Y-115705000D01*
G75*
G02*
X216492500Y-115855000I0J-150000D01*
G01*
X216492500Y-117455000D01*
G75*
G02*
X216342500Y-117605000I-150000J0D01*
G01*
X216042500Y-117605000D01*
G75*
G02*
X215892500Y-117455000I0J150000D01*
G01*
X215892500Y-115855000D01*
G75*
G02*
X216042500Y-115705000I150000J0D01*
G01*
G37*
G36*
G01*
X235656000Y-116220250D02*
X235656000Y-115707750D01*
G75*
G02*
X235874750Y-115489000I218750J0D01*
G01*
X236312250Y-115489000D01*
G75*
G02*
X236531000Y-115707750I0J-218750D01*
G01*
X236531000Y-116220250D01*
G75*
G02*
X236312250Y-116439000I-218750J0D01*
G01*
X235874750Y-116439000D01*
G75*
G02*
X235656000Y-116220250I0J218750D01*
G01*
G37*
G36*
G01*
X234081000Y-116220250D02*
X234081000Y-115707750D01*
G75*
G02*
X234299750Y-115489000I218750J0D01*
G01*
X234737250Y-115489000D01*
G75*
G02*
X234956000Y-115707750I0J-218750D01*
G01*
X234956000Y-116220250D01*
G75*
G02*
X234737250Y-116439000I-218750J0D01*
G01*
X234299750Y-116439000D01*
G75*
G02*
X234081000Y-116220250I0J218750D01*
G01*
G37*
G36*
G01*
X237848250Y-114852000D02*
X237335750Y-114852000D01*
G75*
G02*
X237117000Y-114633250I0J218750D01*
G01*
X237117000Y-114195750D01*
G75*
G02*
X237335750Y-113977000I218750J0D01*
G01*
X237848250Y-113977000D01*
G75*
G02*
X238067000Y-114195750I0J-218750D01*
G01*
X238067000Y-114633250D01*
G75*
G02*
X237848250Y-114852000I-218750J0D01*
G01*
G37*
G36*
G01*
X237848250Y-116427000D02*
X237335750Y-116427000D01*
G75*
G02*
X237117000Y-116208250I0J218750D01*
G01*
X237117000Y-115770750D01*
G75*
G02*
X237335750Y-115552000I218750J0D01*
G01*
X237848250Y-115552000D01*
G75*
G02*
X238067000Y-115770750I0J-218750D01*
G01*
X238067000Y-116208250D01*
G75*
G02*
X237848250Y-116427000I-218750J0D01*
G01*
G37*
G36*
G01*
X238766000Y-125613750D02*
X238766000Y-126126250D01*
G75*
G02*
X238547250Y-126345000I-218750J0D01*
G01*
X238109750Y-126345000D01*
G75*
G02*
X237891000Y-126126250I0J218750D01*
G01*
X237891000Y-125613750D01*
G75*
G02*
X238109750Y-125395000I218750J0D01*
G01*
X238547250Y-125395000D01*
G75*
G02*
X238766000Y-125613750I0J-218750D01*
G01*
G37*
G36*
G01*
X240341000Y-125613750D02*
X240341000Y-126126250D01*
G75*
G02*
X240122250Y-126345000I-218750J0D01*
G01*
X239684750Y-126345000D01*
G75*
G02*
X239466000Y-126126250I0J218750D01*
G01*
X239466000Y-125613750D01*
G75*
G02*
X239684750Y-125395000I218750J0D01*
G01*
X240122250Y-125395000D01*
G75*
G02*
X240341000Y-125613750I0J-218750D01*
G01*
G37*
G36*
G01*
X208224000Y-115966250D02*
X208224000Y-115453750D01*
G75*
G02*
X208442750Y-115235000I218750J0D01*
G01*
X208880250Y-115235000D01*
G75*
G02*
X209099000Y-115453750I0J-218750D01*
G01*
X209099000Y-115966250D01*
G75*
G02*
X208880250Y-116185000I-218750J0D01*
G01*
X208442750Y-116185000D01*
G75*
G02*
X208224000Y-115966250I0J218750D01*
G01*
G37*
G36*
G01*
X206649000Y-115966250D02*
X206649000Y-115453750D01*
G75*
G02*
X206867750Y-115235000I218750J0D01*
G01*
X207305250Y-115235000D01*
G75*
G02*
X207524000Y-115453750I0J-218750D01*
G01*
X207524000Y-115966250D01*
G75*
G02*
X207305250Y-116185000I-218750J0D01*
G01*
X206867750Y-116185000D01*
G75*
G02*
X206649000Y-115966250I0J218750D01*
G01*
G37*
G36*
G01*
X211681750Y-113774000D02*
X212194250Y-113774000D01*
G75*
G02*
X212413000Y-113992750I0J-218750D01*
G01*
X212413000Y-114430250D01*
G75*
G02*
X212194250Y-114649000I-218750J0D01*
G01*
X211681750Y-114649000D01*
G75*
G02*
X211463000Y-114430250I0J218750D01*
G01*
X211463000Y-113992750D01*
G75*
G02*
X211681750Y-113774000I218750J0D01*
G01*
G37*
G36*
G01*
X211681750Y-112199000D02*
X212194250Y-112199000D01*
G75*
G02*
X212413000Y-112417750I0J-218750D01*
G01*
X212413000Y-112855250D01*
G75*
G02*
X212194250Y-113074000I-218750J0D01*
G01*
X211681750Y-113074000D01*
G75*
G02*
X211463000Y-112855250I0J218750D01*
G01*
X211463000Y-112417750D01*
G75*
G02*
X211681750Y-112199000I218750J0D01*
G01*
G37*
G36*
G01*
X210416250Y-114598000D02*
X209903750Y-114598000D01*
G75*
G02*
X209685000Y-114379250I0J218750D01*
G01*
X209685000Y-113941750D01*
G75*
G02*
X209903750Y-113723000I218750J0D01*
G01*
X210416250Y-113723000D01*
G75*
G02*
X210635000Y-113941750I0J-218750D01*
G01*
X210635000Y-114379250D01*
G75*
G02*
X210416250Y-114598000I-218750J0D01*
G01*
G37*
G36*
G01*
X210416250Y-116173000D02*
X209903750Y-116173000D01*
G75*
G02*
X209685000Y-115954250I0J218750D01*
G01*
X209685000Y-115516750D01*
G75*
G02*
X209903750Y-115298000I218750J0D01*
G01*
X210416250Y-115298000D01*
G75*
G02*
X210635000Y-115516750I0J-218750D01*
G01*
X210635000Y-115954250D01*
G75*
G02*
X210416250Y-116173000I-218750J0D01*
G01*
G37*
G36*
G01*
X212070500Y-125613750D02*
X212070500Y-126126250D01*
G75*
G02*
X211851750Y-126345000I-218750J0D01*
G01*
X211414250Y-126345000D01*
G75*
G02*
X211195500Y-126126250I0J218750D01*
G01*
X211195500Y-125613750D01*
G75*
G02*
X211414250Y-125395000I218750J0D01*
G01*
X211851750Y-125395000D01*
G75*
G02*
X212070500Y-125613750I0J-218750D01*
G01*
G37*
G36*
G01*
X213645500Y-125613750D02*
X213645500Y-126126250D01*
G75*
G02*
X213426750Y-126345000I-218750J0D01*
G01*
X212989250Y-126345000D01*
G75*
G02*
X212770500Y-126126250I0J218750D01*
G01*
X212770500Y-125613750D01*
G75*
G02*
X212989250Y-125395000I218750J0D01*
G01*
X213426750Y-125395000D01*
G75*
G02*
X213645500Y-125613750I0J-218750D01*
G01*
G37*
D10*
X247834000Y-113424000D03*
X256134000Y-113424000D03*
X219726000Y-113678000D03*
X228026000Y-113678000D03*
D11*
X249530000Y-121330000D03*
X249530000Y-125330000D03*
X222606000Y-121330000D03*
X222606000Y-125330000D03*
G36*
G01*
X255330000Y-127761000D02*
X256430000Y-127761000D01*
G75*
G02*
X256680000Y-128011000I0J-250000D01*
G01*
X256680000Y-130836000D01*
G75*
G02*
X256430000Y-131086000I-250000J0D01*
G01*
X255330000Y-131086000D01*
G75*
G02*
X255080000Y-130836000I0J250000D01*
G01*
X255080000Y-128011000D01*
G75*
G02*
X255330000Y-127761000I250000J0D01*
G01*
G37*
G36*
G01*
X255330000Y-122686000D02*
X256430000Y-122686000D01*
G75*
G02*
X256680000Y-122936000I0J-250000D01*
G01*
X256680000Y-125761000D01*
G75*
G02*
X256430000Y-126011000I-250000J0D01*
G01*
X255330000Y-126011000D01*
G75*
G02*
X255080000Y-125761000I0J250000D01*
G01*
X255080000Y-122936000D01*
G75*
G02*
X255330000Y-122686000I250000J0D01*
G01*
G37*
G36*
G01*
X246225750Y-123400500D02*
X246738250Y-123400500D01*
G75*
G02*
X246957000Y-123619250I0J-218750D01*
G01*
X246957000Y-124056750D01*
G75*
G02*
X246738250Y-124275500I-218750J0D01*
G01*
X246225750Y-124275500D01*
G75*
G02*
X246007000Y-124056750I0J218750D01*
G01*
X246007000Y-123619250D01*
G75*
G02*
X246225750Y-123400500I218750J0D01*
G01*
G37*
G36*
G01*
X246225750Y-121825500D02*
X246738250Y-121825500D01*
G75*
G02*
X246957000Y-122044250I0J-218750D01*
G01*
X246957000Y-122481750D01*
G75*
G02*
X246738250Y-122700500I-218750J0D01*
G01*
X246225750Y-122700500D01*
G75*
G02*
X246007000Y-122481750I0J218750D01*
G01*
X246007000Y-122044250D01*
G75*
G02*
X246225750Y-121825500I218750J0D01*
G01*
G37*
G36*
G01*
X243784000Y-126126250D02*
X243784000Y-125613750D01*
G75*
G02*
X244002750Y-125395000I218750J0D01*
G01*
X244440250Y-125395000D01*
G75*
G02*
X244659000Y-125613750I0J-218750D01*
G01*
X244659000Y-126126250D01*
G75*
G02*
X244440250Y-126345000I-218750J0D01*
G01*
X244002750Y-126345000D01*
G75*
G02*
X243784000Y-126126250I0J218750D01*
G01*
G37*
G36*
G01*
X242209000Y-126126250D02*
X242209000Y-125613750D01*
G75*
G02*
X242427750Y-125395000I218750J0D01*
G01*
X242865250Y-125395000D01*
G75*
G02*
X243084000Y-125613750I0J-218750D01*
G01*
X243084000Y-126126250D01*
G75*
G02*
X242865250Y-126345000I-218750J0D01*
G01*
X242427750Y-126345000D01*
G75*
G02*
X242209000Y-126126250I0J218750D01*
G01*
G37*
G36*
G01*
X238495000Y-130400000D02*
X238495000Y-131500000D01*
G75*
G02*
X238245000Y-131750000I-250000J0D01*
G01*
X235420000Y-131750000D01*
G75*
G02*
X235170000Y-131500000I0J250000D01*
G01*
X235170000Y-130400000D01*
G75*
G02*
X235420000Y-130150000I250000J0D01*
G01*
X238245000Y-130150000D01*
G75*
G02*
X238495000Y-130400000I0J-250000D01*
G01*
G37*
G36*
G01*
X243570000Y-130400000D02*
X243570000Y-131500000D01*
G75*
G02*
X243320000Y-131750000I-250000J0D01*
G01*
X240495000Y-131750000D01*
G75*
G02*
X240245000Y-131500000I0J250000D01*
G01*
X240245000Y-130400000D01*
G75*
G02*
X240495000Y-130150000I250000J0D01*
G01*
X243320000Y-130150000D01*
G75*
G02*
X243570000Y-130400000I0J-250000D01*
G01*
G37*
G36*
G01*
X227898000Y-128269000D02*
X228998000Y-128269000D01*
G75*
G02*
X229248000Y-128519000I0J-250000D01*
G01*
X229248000Y-131344000D01*
G75*
G02*
X228998000Y-131594000I-250000J0D01*
G01*
X227898000Y-131594000D01*
G75*
G02*
X227648000Y-131344000I0J250000D01*
G01*
X227648000Y-128519000D01*
G75*
G02*
X227898000Y-128269000I250000J0D01*
G01*
G37*
G36*
G01*
X227898000Y-123194000D02*
X228998000Y-123194000D01*
G75*
G02*
X229248000Y-123444000I0J-250000D01*
G01*
X229248000Y-126269000D01*
G75*
G02*
X228998000Y-126519000I-250000J0D01*
G01*
X227898000Y-126519000D01*
G75*
G02*
X227648000Y-126269000I0J250000D01*
G01*
X227648000Y-123444000D01*
G75*
G02*
X227898000Y-123194000I250000J0D01*
G01*
G37*
G36*
G01*
X219047750Y-123400500D02*
X219560250Y-123400500D01*
G75*
G02*
X219779000Y-123619250I0J-218750D01*
G01*
X219779000Y-124056750D01*
G75*
G02*
X219560250Y-124275500I-218750J0D01*
G01*
X219047750Y-124275500D01*
G75*
G02*
X218829000Y-124056750I0J218750D01*
G01*
X218829000Y-123619250D01*
G75*
G02*
X219047750Y-123400500I218750J0D01*
G01*
G37*
G36*
G01*
X219047750Y-121825500D02*
X219560250Y-121825500D01*
G75*
G02*
X219779000Y-122044250I0J-218750D01*
G01*
X219779000Y-122481750D01*
G75*
G02*
X219560250Y-122700500I-218750J0D01*
G01*
X219047750Y-122700500D01*
G75*
G02*
X218829000Y-122481750I0J218750D01*
G01*
X218829000Y-122044250D01*
G75*
G02*
X219047750Y-121825500I218750J0D01*
G01*
G37*
G36*
G01*
X216098000Y-126126250D02*
X216098000Y-125613750D01*
G75*
G02*
X216316750Y-125395000I218750J0D01*
G01*
X216754250Y-125395000D01*
G75*
G02*
X216973000Y-125613750I0J-218750D01*
G01*
X216973000Y-126126250D01*
G75*
G02*
X216754250Y-126345000I-218750J0D01*
G01*
X216316750Y-126345000D01*
G75*
G02*
X216098000Y-126126250I0J218750D01*
G01*
G37*
G36*
G01*
X214523000Y-126126250D02*
X214523000Y-125613750D01*
G75*
G02*
X214741750Y-125395000I218750J0D01*
G01*
X215179250Y-125395000D01*
G75*
G02*
X215398000Y-125613750I0J-218750D01*
G01*
X215398000Y-126126250D01*
G75*
G02*
X215179250Y-126345000I-218750J0D01*
G01*
X214741750Y-126345000D01*
G75*
G02*
X214523000Y-126126250I0J218750D01*
G01*
G37*
G36*
G01*
X211571000Y-130400000D02*
X211571000Y-131500000D01*
G75*
G02*
X211321000Y-131750000I-250000J0D01*
G01*
X208496000Y-131750000D01*
G75*
G02*
X208246000Y-131500000I0J250000D01*
G01*
X208246000Y-130400000D01*
G75*
G02*
X208496000Y-130150000I250000J0D01*
G01*
X211321000Y-130150000D01*
G75*
G02*
X211571000Y-130400000I0J-250000D01*
G01*
G37*
G36*
G01*
X216646000Y-130400000D02*
X216646000Y-131500000D01*
G75*
G02*
X216396000Y-131750000I-250000J0D01*
G01*
X213571000Y-131750000D01*
G75*
G02*
X213321000Y-131500000I0J250000D01*
G01*
X213321000Y-130400000D01*
G75*
G02*
X213571000Y-130150000I250000J0D01*
G01*
X216396000Y-130150000D01*
G75*
G02*
X216646000Y-130400000I0J-250000D01*
G01*
G37*
D12*
X213589000Y-112686000D03*
X213589000Y-114186000D03*
M02*
