G04 #@! TF.GenerationSoftware,KiCad,Pcbnew,(5.1.6-0-10_14)*
G04 #@! TF.CreationDate,2021-09-09T15:00:30-05:00*
G04 #@! TF.ProjectId,2019-Pi-Power,32303139-2d50-4692-9d50-6f7765722e6b,rev?*
G04 #@! TF.SameCoordinates,Original*
G04 #@! TF.FileFunction,Copper,L1,Top*
G04 #@! TF.FilePolarity,Positive*
%FSLAX46Y46*%
G04 Gerber Fmt 4.6, Leading zero omitted, Abs format (unit mm)*
G04 Created by KiCad (PCBNEW (5.1.6-0-10_14)) date 2021-09-09 15:00:30*
%MOMM*%
%LPD*%
G01*
G04 APERTURE LIST*
G04 #@! TA.AperFunction,ComponentPad*
%ADD10O,1.700000X1.700000*%
G04 #@! TD*
G04 #@! TA.AperFunction,ComponentPad*
%ADD11R,1.700000X1.700000*%
G04 #@! TD*
G04 #@! TA.AperFunction,SMDPad,CuDef*
%ADD12R,2.700000X3.600000*%
G04 #@! TD*
G04 #@! TA.AperFunction,SMDPad,CuDef*
%ADD13R,1.700000X2.500000*%
G04 #@! TD*
G04 #@! TA.AperFunction,ComponentPad*
%ADD14R,1.400000X1.700000*%
G04 #@! TD*
G04 #@! TA.AperFunction,ComponentPad*
%ADD15O,1.400000X1.700000*%
G04 #@! TD*
G04 #@! TA.AperFunction,SMDPad,CuDef*
%ADD16R,0.750000X0.800000*%
G04 #@! TD*
G04 #@! TA.AperFunction,ViaPad*
%ADD17C,0.900000*%
G04 #@! TD*
G04 #@! TA.AperFunction,ViaPad*
%ADD18C,0.500000*%
G04 #@! TD*
G04 #@! TA.AperFunction,Conductor*
%ADD19C,0.800000*%
G04 #@! TD*
G04 #@! TA.AperFunction,Conductor*
%ADD20C,0.400000*%
G04 #@! TD*
G04 #@! TA.AperFunction,Conductor*
%ADD21C,0.200000*%
G04 #@! TD*
G04 #@! TA.AperFunction,Conductor*
%ADD22C,1.000000*%
G04 #@! TD*
G04 #@! TA.AperFunction,Conductor*
%ADD23C,0.254000*%
G04 #@! TD*
G04 APERTURE END LIST*
G04 #@! TA.AperFunction,ComponentPad*
G36*
G01*
X233007000Y-142812000D02*
X231257000Y-142812000D01*
G75*
G02*
X230382000Y-141937000I0J875000D01*
G01*
X230382000Y-140187000D01*
G75*
G02*
X231257000Y-139312000I875000J0D01*
G01*
X233007000Y-139312000D01*
G75*
G02*
X233882000Y-140187000I0J-875000D01*
G01*
X233882000Y-141937000D01*
G75*
G02*
X233007000Y-142812000I-875000J0D01*
G01*
G37*
G04 #@! TD.AperFunction*
G04 #@! TA.AperFunction,ComponentPad*
G36*
G01*
X228307000Y-145812000D02*
X226557000Y-145812000D01*
G75*
G02*
X225682000Y-144937000I0J875000D01*
G01*
X225682000Y-143187000D01*
G75*
G02*
X226557000Y-142312000I875000J0D01*
G01*
X228307000Y-142312000D01*
G75*
G02*
X229182000Y-143187000I0J-875000D01*
G01*
X229182000Y-144937000D01*
G75*
G02*
X228307000Y-145812000I-875000J0D01*
G01*
G37*
G04 #@! TD.AperFunction*
G04 #@! TA.AperFunction,ComponentPad*
G36*
G01*
X228307000Y-139812000D02*
X226557000Y-139812000D01*
G75*
G02*
X225682000Y-138937000I0J875000D01*
G01*
X225682000Y-137187000D01*
G75*
G02*
X226557000Y-136312000I875000J0D01*
G01*
X228307000Y-136312000D01*
G75*
G02*
X229182000Y-137187000I0J-875000D01*
G01*
X229182000Y-138937000D01*
G75*
G02*
X228307000Y-139812000I-875000J0D01*
G01*
G37*
G04 #@! TD.AperFunction*
D10*
X260452000Y-118504000D03*
X260452000Y-115964000D03*
X260452000Y-113424000D03*
D11*
X260452000Y-110884000D03*
D10*
X216002000Y-103518000D03*
X213462000Y-103518000D03*
X210922000Y-103518000D03*
D11*
X208382000Y-103518000D03*
G04 #@! TA.AperFunction,SMDPad,CuDef*
G36*
G01*
X239621750Y-114028000D02*
X240134250Y-114028000D01*
G75*
G02*
X240353000Y-114246750I0J-218750D01*
G01*
X240353000Y-114684250D01*
G75*
G02*
X240134250Y-114903000I-218750J0D01*
G01*
X239621750Y-114903000D01*
G75*
G02*
X239403000Y-114684250I0J218750D01*
G01*
X239403000Y-114246750D01*
G75*
G02*
X239621750Y-114028000I218750J0D01*
G01*
G37*
G04 #@! TD.AperFunction*
G04 #@! TA.AperFunction,SMDPad,CuDef*
G36*
G01*
X239621750Y-112453000D02*
X240134250Y-112453000D01*
G75*
G02*
X240353000Y-112671750I0J-218750D01*
G01*
X240353000Y-113109250D01*
G75*
G02*
X240134250Y-113328000I-218750J0D01*
G01*
X239621750Y-113328000D01*
G75*
G02*
X239403000Y-113109250I0J218750D01*
G01*
X239403000Y-112671750D01*
G75*
G02*
X239621750Y-112453000I218750J0D01*
G01*
G37*
G04 #@! TD.AperFunction*
G04 #@! TA.AperFunction,SMDPad,CuDef*
G36*
G01*
X241658250Y-113328000D02*
X241145750Y-113328000D01*
G75*
G02*
X240927000Y-113109250I0J218750D01*
G01*
X240927000Y-112671750D01*
G75*
G02*
X241145750Y-112453000I218750J0D01*
G01*
X241658250Y-112453000D01*
G75*
G02*
X241877000Y-112671750I0J-218750D01*
G01*
X241877000Y-113109250D01*
G75*
G02*
X241658250Y-113328000I-218750J0D01*
G01*
G37*
G04 #@! TD.AperFunction*
G04 #@! TA.AperFunction,SMDPad,CuDef*
G36*
G01*
X241658250Y-114903000D02*
X241145750Y-114903000D01*
G75*
G02*
X240927000Y-114684250I0J218750D01*
G01*
X240927000Y-114246750D01*
G75*
G02*
X241145750Y-114028000I218750J0D01*
G01*
X241658250Y-114028000D01*
G75*
G02*
X241877000Y-114246750I0J-218750D01*
G01*
X241877000Y-114684250D01*
G75*
G02*
X241658250Y-114903000I-218750J0D01*
G01*
G37*
G04 #@! TD.AperFunction*
G04 #@! TA.AperFunction,SMDPad,CuDef*
G36*
G01*
X243665000Y-122832000D02*
X243965000Y-122832000D01*
G75*
G02*
X244115000Y-122982000I0J-150000D01*
G01*
X244115000Y-124582000D01*
G75*
G02*
X243965000Y-124732000I-150000J0D01*
G01*
X243665000Y-124732000D01*
G75*
G02*
X243515000Y-124582000I0J150000D01*
G01*
X243515000Y-122982000D01*
G75*
G02*
X243665000Y-122832000I150000J0D01*
G01*
G37*
G04 #@! TD.AperFunction*
G04 #@! TA.AperFunction,SMDPad,CuDef*
G36*
G01*
X242395000Y-122832000D02*
X242695000Y-122832000D01*
G75*
G02*
X242845000Y-122982000I0J-150000D01*
G01*
X242845000Y-124582000D01*
G75*
G02*
X242695000Y-124732000I-150000J0D01*
G01*
X242395000Y-124732000D01*
G75*
G02*
X242245000Y-124582000I0J150000D01*
G01*
X242245000Y-122982000D01*
G75*
G02*
X242395000Y-122832000I150000J0D01*
G01*
G37*
G04 #@! TD.AperFunction*
G04 #@! TA.AperFunction,SMDPad,CuDef*
G36*
G01*
X241125000Y-122832000D02*
X241425000Y-122832000D01*
G75*
G02*
X241575000Y-122982000I0J-150000D01*
G01*
X241575000Y-124582000D01*
G75*
G02*
X241425000Y-124732000I-150000J0D01*
G01*
X241125000Y-124732000D01*
G75*
G02*
X240975000Y-124582000I0J150000D01*
G01*
X240975000Y-122982000D01*
G75*
G02*
X241125000Y-122832000I150000J0D01*
G01*
G37*
G04 #@! TD.AperFunction*
G04 #@! TA.AperFunction,SMDPad,CuDef*
G36*
G01*
X239855000Y-122832000D02*
X240155000Y-122832000D01*
G75*
G02*
X240305000Y-122982000I0J-150000D01*
G01*
X240305000Y-124582000D01*
G75*
G02*
X240155000Y-124732000I-150000J0D01*
G01*
X239855000Y-124732000D01*
G75*
G02*
X239705000Y-124582000I0J150000D01*
G01*
X239705000Y-122982000D01*
G75*
G02*
X239855000Y-122832000I150000J0D01*
G01*
G37*
G04 #@! TD.AperFunction*
G04 #@! TA.AperFunction,SMDPad,CuDef*
G36*
G01*
X239855000Y-115832000D02*
X240155000Y-115832000D01*
G75*
G02*
X240305000Y-115982000I0J-150000D01*
G01*
X240305000Y-117582000D01*
G75*
G02*
X240155000Y-117732000I-150000J0D01*
G01*
X239855000Y-117732000D01*
G75*
G02*
X239705000Y-117582000I0J150000D01*
G01*
X239705000Y-115982000D01*
G75*
G02*
X239855000Y-115832000I150000J0D01*
G01*
G37*
G04 #@! TD.AperFunction*
G04 #@! TA.AperFunction,SMDPad,CuDef*
G36*
G01*
X241125000Y-115832000D02*
X241425000Y-115832000D01*
G75*
G02*
X241575000Y-115982000I0J-150000D01*
G01*
X241575000Y-117582000D01*
G75*
G02*
X241425000Y-117732000I-150000J0D01*
G01*
X241125000Y-117732000D01*
G75*
G02*
X240975000Y-117582000I0J150000D01*
G01*
X240975000Y-115982000D01*
G75*
G02*
X241125000Y-115832000I150000J0D01*
G01*
G37*
G04 #@! TD.AperFunction*
G04 #@! TA.AperFunction,SMDPad,CuDef*
G36*
G01*
X242395000Y-115832000D02*
X242695000Y-115832000D01*
G75*
G02*
X242845000Y-115982000I0J-150000D01*
G01*
X242845000Y-117582000D01*
G75*
G02*
X242695000Y-117732000I-150000J0D01*
G01*
X242395000Y-117732000D01*
G75*
G02*
X242245000Y-117582000I0J150000D01*
G01*
X242245000Y-115982000D01*
G75*
G02*
X242395000Y-115832000I150000J0D01*
G01*
G37*
G04 #@! TD.AperFunction*
G04 #@! TA.AperFunction,SMDPad,CuDef*
G36*
G01*
X243665000Y-115832000D02*
X243965000Y-115832000D01*
G75*
G02*
X244115000Y-115982000I0J-150000D01*
G01*
X244115000Y-117582000D01*
G75*
G02*
X243965000Y-117732000I-150000J0D01*
G01*
X243665000Y-117732000D01*
G75*
G02*
X243515000Y-117582000I0J150000D01*
G01*
X243515000Y-115982000D01*
G75*
G02*
X243665000Y-115832000I150000J0D01*
G01*
G37*
G04 #@! TD.AperFunction*
G04 #@! TA.AperFunction,SMDPad,CuDef*
G36*
G01*
X216042500Y-122705000D02*
X216342500Y-122705000D01*
G75*
G02*
X216492500Y-122855000I0J-150000D01*
G01*
X216492500Y-124455000D01*
G75*
G02*
X216342500Y-124605000I-150000J0D01*
G01*
X216042500Y-124605000D01*
G75*
G02*
X215892500Y-124455000I0J150000D01*
G01*
X215892500Y-122855000D01*
G75*
G02*
X216042500Y-122705000I150000J0D01*
G01*
G37*
G04 #@! TD.AperFunction*
G04 #@! TA.AperFunction,SMDPad,CuDef*
G36*
G01*
X214772500Y-122705000D02*
X215072500Y-122705000D01*
G75*
G02*
X215222500Y-122855000I0J-150000D01*
G01*
X215222500Y-124455000D01*
G75*
G02*
X215072500Y-124605000I-150000J0D01*
G01*
X214772500Y-124605000D01*
G75*
G02*
X214622500Y-124455000I0J150000D01*
G01*
X214622500Y-122855000D01*
G75*
G02*
X214772500Y-122705000I150000J0D01*
G01*
G37*
G04 #@! TD.AperFunction*
G04 #@! TA.AperFunction,SMDPad,CuDef*
G36*
G01*
X213502500Y-122705000D02*
X213802500Y-122705000D01*
G75*
G02*
X213952500Y-122855000I0J-150000D01*
G01*
X213952500Y-124455000D01*
G75*
G02*
X213802500Y-124605000I-150000J0D01*
G01*
X213502500Y-124605000D01*
G75*
G02*
X213352500Y-124455000I0J150000D01*
G01*
X213352500Y-122855000D01*
G75*
G02*
X213502500Y-122705000I150000J0D01*
G01*
G37*
G04 #@! TD.AperFunction*
G04 #@! TA.AperFunction,SMDPad,CuDef*
G36*
G01*
X212232500Y-122705000D02*
X212532500Y-122705000D01*
G75*
G02*
X212682500Y-122855000I0J-150000D01*
G01*
X212682500Y-124455000D01*
G75*
G02*
X212532500Y-124605000I-150000J0D01*
G01*
X212232500Y-124605000D01*
G75*
G02*
X212082500Y-124455000I0J150000D01*
G01*
X212082500Y-122855000D01*
G75*
G02*
X212232500Y-122705000I150000J0D01*
G01*
G37*
G04 #@! TD.AperFunction*
G04 #@! TA.AperFunction,SMDPad,CuDef*
G36*
G01*
X212232500Y-115705000D02*
X212532500Y-115705000D01*
G75*
G02*
X212682500Y-115855000I0J-150000D01*
G01*
X212682500Y-117455000D01*
G75*
G02*
X212532500Y-117605000I-150000J0D01*
G01*
X212232500Y-117605000D01*
G75*
G02*
X212082500Y-117455000I0J150000D01*
G01*
X212082500Y-115855000D01*
G75*
G02*
X212232500Y-115705000I150000J0D01*
G01*
G37*
G04 #@! TD.AperFunction*
G04 #@! TA.AperFunction,SMDPad,CuDef*
G36*
G01*
X213502500Y-115705000D02*
X213802500Y-115705000D01*
G75*
G02*
X213952500Y-115855000I0J-150000D01*
G01*
X213952500Y-117455000D01*
G75*
G02*
X213802500Y-117605000I-150000J0D01*
G01*
X213502500Y-117605000D01*
G75*
G02*
X213352500Y-117455000I0J150000D01*
G01*
X213352500Y-115855000D01*
G75*
G02*
X213502500Y-115705000I150000J0D01*
G01*
G37*
G04 #@! TD.AperFunction*
G04 #@! TA.AperFunction,SMDPad,CuDef*
G36*
G01*
X214772500Y-115705000D02*
X215072500Y-115705000D01*
G75*
G02*
X215222500Y-115855000I0J-150000D01*
G01*
X215222500Y-117455000D01*
G75*
G02*
X215072500Y-117605000I-150000J0D01*
G01*
X214772500Y-117605000D01*
G75*
G02*
X214622500Y-117455000I0J150000D01*
G01*
X214622500Y-115855000D01*
G75*
G02*
X214772500Y-115705000I150000J0D01*
G01*
G37*
G04 #@! TD.AperFunction*
G04 #@! TA.AperFunction,SMDPad,CuDef*
G36*
G01*
X216042500Y-115705000D02*
X216342500Y-115705000D01*
G75*
G02*
X216492500Y-115855000I0J-150000D01*
G01*
X216492500Y-117455000D01*
G75*
G02*
X216342500Y-117605000I-150000J0D01*
G01*
X216042500Y-117605000D01*
G75*
G02*
X215892500Y-117455000I0J150000D01*
G01*
X215892500Y-115855000D01*
G75*
G02*
X216042500Y-115705000I150000J0D01*
G01*
G37*
G04 #@! TD.AperFunction*
G04 #@! TA.AperFunction,SMDPad,CuDef*
G36*
G01*
X235656000Y-116220250D02*
X235656000Y-115707750D01*
G75*
G02*
X235874750Y-115489000I218750J0D01*
G01*
X236312250Y-115489000D01*
G75*
G02*
X236531000Y-115707750I0J-218750D01*
G01*
X236531000Y-116220250D01*
G75*
G02*
X236312250Y-116439000I-218750J0D01*
G01*
X235874750Y-116439000D01*
G75*
G02*
X235656000Y-116220250I0J218750D01*
G01*
G37*
G04 #@! TD.AperFunction*
G04 #@! TA.AperFunction,SMDPad,CuDef*
G36*
G01*
X234081000Y-116220250D02*
X234081000Y-115707750D01*
G75*
G02*
X234299750Y-115489000I218750J0D01*
G01*
X234737250Y-115489000D01*
G75*
G02*
X234956000Y-115707750I0J-218750D01*
G01*
X234956000Y-116220250D01*
G75*
G02*
X234737250Y-116439000I-218750J0D01*
G01*
X234299750Y-116439000D01*
G75*
G02*
X234081000Y-116220250I0J218750D01*
G01*
G37*
G04 #@! TD.AperFunction*
G04 #@! TA.AperFunction,SMDPad,CuDef*
G36*
G01*
X237848250Y-114852000D02*
X237335750Y-114852000D01*
G75*
G02*
X237117000Y-114633250I0J218750D01*
G01*
X237117000Y-114195750D01*
G75*
G02*
X237335750Y-113977000I218750J0D01*
G01*
X237848250Y-113977000D01*
G75*
G02*
X238067000Y-114195750I0J-218750D01*
G01*
X238067000Y-114633250D01*
G75*
G02*
X237848250Y-114852000I-218750J0D01*
G01*
G37*
G04 #@! TD.AperFunction*
G04 #@! TA.AperFunction,SMDPad,CuDef*
G36*
G01*
X237848250Y-116427000D02*
X237335750Y-116427000D01*
G75*
G02*
X237117000Y-116208250I0J218750D01*
G01*
X237117000Y-115770750D01*
G75*
G02*
X237335750Y-115552000I218750J0D01*
G01*
X237848250Y-115552000D01*
G75*
G02*
X238067000Y-115770750I0J-218750D01*
G01*
X238067000Y-116208250D01*
G75*
G02*
X237848250Y-116427000I-218750J0D01*
G01*
G37*
G04 #@! TD.AperFunction*
G04 #@! TA.AperFunction,SMDPad,CuDef*
G36*
G01*
X238766000Y-125613750D02*
X238766000Y-126126250D01*
G75*
G02*
X238547250Y-126345000I-218750J0D01*
G01*
X238109750Y-126345000D01*
G75*
G02*
X237891000Y-126126250I0J218750D01*
G01*
X237891000Y-125613750D01*
G75*
G02*
X238109750Y-125395000I218750J0D01*
G01*
X238547250Y-125395000D01*
G75*
G02*
X238766000Y-125613750I0J-218750D01*
G01*
G37*
G04 #@! TD.AperFunction*
G04 #@! TA.AperFunction,SMDPad,CuDef*
G36*
G01*
X240341000Y-125613750D02*
X240341000Y-126126250D01*
G75*
G02*
X240122250Y-126345000I-218750J0D01*
G01*
X239684750Y-126345000D01*
G75*
G02*
X239466000Y-126126250I0J218750D01*
G01*
X239466000Y-125613750D01*
G75*
G02*
X239684750Y-125395000I218750J0D01*
G01*
X240122250Y-125395000D01*
G75*
G02*
X240341000Y-125613750I0J-218750D01*
G01*
G37*
G04 #@! TD.AperFunction*
G04 #@! TA.AperFunction,SMDPad,CuDef*
G36*
G01*
X208224000Y-115966250D02*
X208224000Y-115453750D01*
G75*
G02*
X208442750Y-115235000I218750J0D01*
G01*
X208880250Y-115235000D01*
G75*
G02*
X209099000Y-115453750I0J-218750D01*
G01*
X209099000Y-115966250D01*
G75*
G02*
X208880250Y-116185000I-218750J0D01*
G01*
X208442750Y-116185000D01*
G75*
G02*
X208224000Y-115966250I0J218750D01*
G01*
G37*
G04 #@! TD.AperFunction*
G04 #@! TA.AperFunction,SMDPad,CuDef*
G36*
G01*
X206649000Y-115966250D02*
X206649000Y-115453750D01*
G75*
G02*
X206867750Y-115235000I218750J0D01*
G01*
X207305250Y-115235000D01*
G75*
G02*
X207524000Y-115453750I0J-218750D01*
G01*
X207524000Y-115966250D01*
G75*
G02*
X207305250Y-116185000I-218750J0D01*
G01*
X206867750Y-116185000D01*
G75*
G02*
X206649000Y-115966250I0J218750D01*
G01*
G37*
G04 #@! TD.AperFunction*
G04 #@! TA.AperFunction,SMDPad,CuDef*
G36*
G01*
X211681750Y-113774000D02*
X212194250Y-113774000D01*
G75*
G02*
X212413000Y-113992750I0J-218750D01*
G01*
X212413000Y-114430250D01*
G75*
G02*
X212194250Y-114649000I-218750J0D01*
G01*
X211681750Y-114649000D01*
G75*
G02*
X211463000Y-114430250I0J218750D01*
G01*
X211463000Y-113992750D01*
G75*
G02*
X211681750Y-113774000I218750J0D01*
G01*
G37*
G04 #@! TD.AperFunction*
G04 #@! TA.AperFunction,SMDPad,CuDef*
G36*
G01*
X211681750Y-112199000D02*
X212194250Y-112199000D01*
G75*
G02*
X212413000Y-112417750I0J-218750D01*
G01*
X212413000Y-112855250D01*
G75*
G02*
X212194250Y-113074000I-218750J0D01*
G01*
X211681750Y-113074000D01*
G75*
G02*
X211463000Y-112855250I0J218750D01*
G01*
X211463000Y-112417750D01*
G75*
G02*
X211681750Y-112199000I218750J0D01*
G01*
G37*
G04 #@! TD.AperFunction*
G04 #@! TA.AperFunction,SMDPad,CuDef*
G36*
G01*
X210416250Y-114598000D02*
X209903750Y-114598000D01*
G75*
G02*
X209685000Y-114379250I0J218750D01*
G01*
X209685000Y-113941750D01*
G75*
G02*
X209903750Y-113723000I218750J0D01*
G01*
X210416250Y-113723000D01*
G75*
G02*
X210635000Y-113941750I0J-218750D01*
G01*
X210635000Y-114379250D01*
G75*
G02*
X210416250Y-114598000I-218750J0D01*
G01*
G37*
G04 #@! TD.AperFunction*
G04 #@! TA.AperFunction,SMDPad,CuDef*
G36*
G01*
X210416250Y-116173000D02*
X209903750Y-116173000D01*
G75*
G02*
X209685000Y-115954250I0J218750D01*
G01*
X209685000Y-115516750D01*
G75*
G02*
X209903750Y-115298000I218750J0D01*
G01*
X210416250Y-115298000D01*
G75*
G02*
X210635000Y-115516750I0J-218750D01*
G01*
X210635000Y-115954250D01*
G75*
G02*
X210416250Y-116173000I-218750J0D01*
G01*
G37*
G04 #@! TD.AperFunction*
G04 #@! TA.AperFunction,SMDPad,CuDef*
G36*
G01*
X212070500Y-125613750D02*
X212070500Y-126126250D01*
G75*
G02*
X211851750Y-126345000I-218750J0D01*
G01*
X211414250Y-126345000D01*
G75*
G02*
X211195500Y-126126250I0J218750D01*
G01*
X211195500Y-125613750D01*
G75*
G02*
X211414250Y-125395000I218750J0D01*
G01*
X211851750Y-125395000D01*
G75*
G02*
X212070500Y-125613750I0J-218750D01*
G01*
G37*
G04 #@! TD.AperFunction*
G04 #@! TA.AperFunction,SMDPad,CuDef*
G36*
G01*
X213645500Y-125613750D02*
X213645500Y-126126250D01*
G75*
G02*
X213426750Y-126345000I-218750J0D01*
G01*
X212989250Y-126345000D01*
G75*
G02*
X212770500Y-126126250I0J218750D01*
G01*
X212770500Y-125613750D01*
G75*
G02*
X212989250Y-125395000I218750J0D01*
G01*
X213426750Y-125395000D01*
G75*
G02*
X213645500Y-125613750I0J-218750D01*
G01*
G37*
G04 #@! TD.AperFunction*
D12*
X247834000Y-113424000D03*
X256134000Y-113424000D03*
X219726000Y-113678000D03*
X228026000Y-113678000D03*
D13*
X249530000Y-121330000D03*
X249530000Y-125330000D03*
X222606000Y-121330000D03*
X222606000Y-125330000D03*
G04 #@! TA.AperFunction,SMDPad,CuDef*
G36*
G01*
X255330000Y-127761000D02*
X256430000Y-127761000D01*
G75*
G02*
X256680000Y-128011000I0J-250000D01*
G01*
X256680000Y-130836000D01*
G75*
G02*
X256430000Y-131086000I-250000J0D01*
G01*
X255330000Y-131086000D01*
G75*
G02*
X255080000Y-130836000I0J250000D01*
G01*
X255080000Y-128011000D01*
G75*
G02*
X255330000Y-127761000I250000J0D01*
G01*
G37*
G04 #@! TD.AperFunction*
G04 #@! TA.AperFunction,SMDPad,CuDef*
G36*
G01*
X255330000Y-122686000D02*
X256430000Y-122686000D01*
G75*
G02*
X256680000Y-122936000I0J-250000D01*
G01*
X256680000Y-125761000D01*
G75*
G02*
X256430000Y-126011000I-250000J0D01*
G01*
X255330000Y-126011000D01*
G75*
G02*
X255080000Y-125761000I0J250000D01*
G01*
X255080000Y-122936000D01*
G75*
G02*
X255330000Y-122686000I250000J0D01*
G01*
G37*
G04 #@! TD.AperFunction*
G04 #@! TA.AperFunction,SMDPad,CuDef*
G36*
G01*
X246225750Y-123400500D02*
X246738250Y-123400500D01*
G75*
G02*
X246957000Y-123619250I0J-218750D01*
G01*
X246957000Y-124056750D01*
G75*
G02*
X246738250Y-124275500I-218750J0D01*
G01*
X246225750Y-124275500D01*
G75*
G02*
X246007000Y-124056750I0J218750D01*
G01*
X246007000Y-123619250D01*
G75*
G02*
X246225750Y-123400500I218750J0D01*
G01*
G37*
G04 #@! TD.AperFunction*
G04 #@! TA.AperFunction,SMDPad,CuDef*
G36*
G01*
X246225750Y-121825500D02*
X246738250Y-121825500D01*
G75*
G02*
X246957000Y-122044250I0J-218750D01*
G01*
X246957000Y-122481750D01*
G75*
G02*
X246738250Y-122700500I-218750J0D01*
G01*
X246225750Y-122700500D01*
G75*
G02*
X246007000Y-122481750I0J218750D01*
G01*
X246007000Y-122044250D01*
G75*
G02*
X246225750Y-121825500I218750J0D01*
G01*
G37*
G04 #@! TD.AperFunction*
G04 #@! TA.AperFunction,SMDPad,CuDef*
G36*
G01*
X243784000Y-126126250D02*
X243784000Y-125613750D01*
G75*
G02*
X244002750Y-125395000I218750J0D01*
G01*
X244440250Y-125395000D01*
G75*
G02*
X244659000Y-125613750I0J-218750D01*
G01*
X244659000Y-126126250D01*
G75*
G02*
X244440250Y-126345000I-218750J0D01*
G01*
X244002750Y-126345000D01*
G75*
G02*
X243784000Y-126126250I0J218750D01*
G01*
G37*
G04 #@! TD.AperFunction*
G04 #@! TA.AperFunction,SMDPad,CuDef*
G36*
G01*
X242209000Y-126126250D02*
X242209000Y-125613750D01*
G75*
G02*
X242427750Y-125395000I218750J0D01*
G01*
X242865250Y-125395000D01*
G75*
G02*
X243084000Y-125613750I0J-218750D01*
G01*
X243084000Y-126126250D01*
G75*
G02*
X242865250Y-126345000I-218750J0D01*
G01*
X242427750Y-126345000D01*
G75*
G02*
X242209000Y-126126250I0J218750D01*
G01*
G37*
G04 #@! TD.AperFunction*
G04 #@! TA.AperFunction,SMDPad,CuDef*
G36*
G01*
X238495000Y-130400000D02*
X238495000Y-131500000D01*
G75*
G02*
X238245000Y-131750000I-250000J0D01*
G01*
X235420000Y-131750000D01*
G75*
G02*
X235170000Y-131500000I0J250000D01*
G01*
X235170000Y-130400000D01*
G75*
G02*
X235420000Y-130150000I250000J0D01*
G01*
X238245000Y-130150000D01*
G75*
G02*
X238495000Y-130400000I0J-250000D01*
G01*
G37*
G04 #@! TD.AperFunction*
G04 #@! TA.AperFunction,SMDPad,CuDef*
G36*
G01*
X243570000Y-130400000D02*
X243570000Y-131500000D01*
G75*
G02*
X243320000Y-131750000I-250000J0D01*
G01*
X240495000Y-131750000D01*
G75*
G02*
X240245000Y-131500000I0J250000D01*
G01*
X240245000Y-130400000D01*
G75*
G02*
X240495000Y-130150000I250000J0D01*
G01*
X243320000Y-130150000D01*
G75*
G02*
X243570000Y-130400000I0J-250000D01*
G01*
G37*
G04 #@! TD.AperFunction*
G04 #@! TA.AperFunction,SMDPad,CuDef*
G36*
G01*
X227898000Y-128269000D02*
X228998000Y-128269000D01*
G75*
G02*
X229248000Y-128519000I0J-250000D01*
G01*
X229248000Y-131344000D01*
G75*
G02*
X228998000Y-131594000I-250000J0D01*
G01*
X227898000Y-131594000D01*
G75*
G02*
X227648000Y-131344000I0J250000D01*
G01*
X227648000Y-128519000D01*
G75*
G02*
X227898000Y-128269000I250000J0D01*
G01*
G37*
G04 #@! TD.AperFunction*
G04 #@! TA.AperFunction,SMDPad,CuDef*
G36*
G01*
X227898000Y-123194000D02*
X228998000Y-123194000D01*
G75*
G02*
X229248000Y-123444000I0J-250000D01*
G01*
X229248000Y-126269000D01*
G75*
G02*
X228998000Y-126519000I-250000J0D01*
G01*
X227898000Y-126519000D01*
G75*
G02*
X227648000Y-126269000I0J250000D01*
G01*
X227648000Y-123444000D01*
G75*
G02*
X227898000Y-123194000I250000J0D01*
G01*
G37*
G04 #@! TD.AperFunction*
G04 #@! TA.AperFunction,SMDPad,CuDef*
G36*
G01*
X219047750Y-123400500D02*
X219560250Y-123400500D01*
G75*
G02*
X219779000Y-123619250I0J-218750D01*
G01*
X219779000Y-124056750D01*
G75*
G02*
X219560250Y-124275500I-218750J0D01*
G01*
X219047750Y-124275500D01*
G75*
G02*
X218829000Y-124056750I0J218750D01*
G01*
X218829000Y-123619250D01*
G75*
G02*
X219047750Y-123400500I218750J0D01*
G01*
G37*
G04 #@! TD.AperFunction*
G04 #@! TA.AperFunction,SMDPad,CuDef*
G36*
G01*
X219047750Y-121825500D02*
X219560250Y-121825500D01*
G75*
G02*
X219779000Y-122044250I0J-218750D01*
G01*
X219779000Y-122481750D01*
G75*
G02*
X219560250Y-122700500I-218750J0D01*
G01*
X219047750Y-122700500D01*
G75*
G02*
X218829000Y-122481750I0J218750D01*
G01*
X218829000Y-122044250D01*
G75*
G02*
X219047750Y-121825500I218750J0D01*
G01*
G37*
G04 #@! TD.AperFunction*
G04 #@! TA.AperFunction,SMDPad,CuDef*
G36*
G01*
X216098000Y-126126250D02*
X216098000Y-125613750D01*
G75*
G02*
X216316750Y-125395000I218750J0D01*
G01*
X216754250Y-125395000D01*
G75*
G02*
X216973000Y-125613750I0J-218750D01*
G01*
X216973000Y-126126250D01*
G75*
G02*
X216754250Y-126345000I-218750J0D01*
G01*
X216316750Y-126345000D01*
G75*
G02*
X216098000Y-126126250I0J218750D01*
G01*
G37*
G04 #@! TD.AperFunction*
G04 #@! TA.AperFunction,SMDPad,CuDef*
G36*
G01*
X214523000Y-126126250D02*
X214523000Y-125613750D01*
G75*
G02*
X214741750Y-125395000I218750J0D01*
G01*
X215179250Y-125395000D01*
G75*
G02*
X215398000Y-125613750I0J-218750D01*
G01*
X215398000Y-126126250D01*
G75*
G02*
X215179250Y-126345000I-218750J0D01*
G01*
X214741750Y-126345000D01*
G75*
G02*
X214523000Y-126126250I0J218750D01*
G01*
G37*
G04 #@! TD.AperFunction*
G04 #@! TA.AperFunction,SMDPad,CuDef*
G36*
G01*
X211571000Y-130400000D02*
X211571000Y-131500000D01*
G75*
G02*
X211321000Y-131750000I-250000J0D01*
G01*
X208496000Y-131750000D01*
G75*
G02*
X208246000Y-131500000I0J250000D01*
G01*
X208246000Y-130400000D01*
G75*
G02*
X208496000Y-130150000I250000J0D01*
G01*
X211321000Y-130150000D01*
G75*
G02*
X211571000Y-130400000I0J-250000D01*
G01*
G37*
G04 #@! TD.AperFunction*
G04 #@! TA.AperFunction,SMDPad,CuDef*
G36*
G01*
X216646000Y-130400000D02*
X216646000Y-131500000D01*
G75*
G02*
X216396000Y-131750000I-250000J0D01*
G01*
X213571000Y-131750000D01*
G75*
G02*
X213321000Y-131500000I0J250000D01*
G01*
X213321000Y-130400000D01*
G75*
G02*
X213571000Y-130150000I250000J0D01*
G01*
X216396000Y-130150000D01*
G75*
G02*
X216646000Y-130400000I0J-250000D01*
G01*
G37*
G04 #@! TD.AperFunction*
D14*
X208370000Y-98770000D03*
D15*
X208370000Y-96230000D03*
X210910000Y-98770000D03*
X210910000Y-96230000D03*
X213450000Y-98770000D03*
X213450000Y-96230000D03*
X215990000Y-98770000D03*
X215990000Y-96230000D03*
X218530000Y-98770000D03*
X218530000Y-96230000D03*
X221070000Y-98770000D03*
X221070000Y-96230000D03*
X223610000Y-98770000D03*
X223610000Y-96230000D03*
X226150000Y-98770000D03*
X226150000Y-96230000D03*
X228690000Y-98770000D03*
X228690000Y-96230000D03*
X231230000Y-98770000D03*
X231230000Y-96230000D03*
X233770000Y-98770000D03*
X233770000Y-96230000D03*
X236310000Y-98770000D03*
X236310000Y-96230000D03*
X238850000Y-98770000D03*
X238850000Y-96230000D03*
X241390000Y-98770000D03*
X241390000Y-96230000D03*
X243930000Y-98770000D03*
X243930000Y-96230000D03*
X246470000Y-98770000D03*
X246470000Y-96230000D03*
X249010000Y-98770000D03*
X249010000Y-96230000D03*
X251550000Y-98770000D03*
X251550000Y-96230000D03*
X254090000Y-98770000D03*
X254090000Y-96230000D03*
X256630000Y-98770000D03*
X256630000Y-96230000D03*
D16*
X213589000Y-112686000D03*
X213589000Y-114186000D03*
D10*
X249530000Y-141618000D03*
X249530000Y-144158000D03*
X246990000Y-141618000D03*
X246990000Y-144158000D03*
X244450000Y-141618000D03*
X244450000Y-144158000D03*
X241910000Y-141618000D03*
D11*
X241910000Y-144158000D03*
X231242000Y-102375000D03*
D10*
X233782000Y-102375000D03*
X236322000Y-102375000D03*
X238862000Y-102375000D03*
X238862000Y-106058000D03*
X236322000Y-106058000D03*
X233782000Y-106058000D03*
D11*
X231242000Y-106058000D03*
D10*
X226670000Y-102375000D03*
X226670000Y-104915000D03*
X224130000Y-102375000D03*
D11*
X224130000Y-104915000D03*
D17*
X210414000Y-108090000D03*
X235052000Y-135522000D03*
X206858000Y-113932000D03*
D18*
X210414000Y-117488000D03*
X210414000Y-118250000D03*
X210414000Y-119774000D03*
X210414000Y-119012000D03*
X209652000Y-118250000D03*
X209652000Y-117488000D03*
X209652000Y-119012000D03*
X209652000Y-119774000D03*
X210414000Y-121298000D03*
X209652000Y-122060000D03*
X209652000Y-120536000D03*
X209652000Y-121298000D03*
X209652000Y-122822000D03*
X210414000Y-120536000D03*
X210414000Y-122060000D03*
X210414000Y-122822000D03*
X208890000Y-118250000D03*
X208128000Y-119012000D03*
X208128000Y-117488000D03*
X208128000Y-118250000D03*
X208128000Y-119774000D03*
X208890000Y-117488000D03*
X208890000Y-119012000D03*
X208890000Y-119774000D03*
X208128000Y-122822000D03*
X208890000Y-120536000D03*
X208890000Y-122822000D03*
X208890000Y-122060000D03*
X208128000Y-121298000D03*
X208890000Y-121298000D03*
X208128000Y-120536000D03*
X208128000Y-122060000D03*
X207366000Y-122822000D03*
X207366000Y-121298000D03*
X207366000Y-119012000D03*
X207366000Y-118250000D03*
X207366000Y-119774000D03*
X207366000Y-117488000D03*
X207366000Y-122060000D03*
X207366000Y-120536000D03*
X215748000Y-120282000D03*
X214224000Y-119520000D03*
X214224000Y-121044000D03*
X213462000Y-121044000D03*
X214224000Y-120282000D03*
X213462000Y-120282000D03*
X213462000Y-119520000D03*
X214986000Y-121044000D03*
X214986000Y-119520000D03*
X214986000Y-120282000D03*
X215748000Y-119520000D03*
X215748000Y-121044000D03*
X212700000Y-120282000D03*
X212700000Y-119520000D03*
X212700000Y-121044000D03*
X243434000Y-120282000D03*
X241910000Y-119520000D03*
X241910000Y-121044000D03*
X241148000Y-121044000D03*
X241910000Y-120282000D03*
X241148000Y-120282000D03*
X241148000Y-119520000D03*
X242672000Y-121044000D03*
X242672000Y-119520000D03*
X242672000Y-120282000D03*
X243434000Y-119520000D03*
X243434000Y-121044000D03*
X240386000Y-120282000D03*
X240386000Y-119520000D03*
X240386000Y-121044000D03*
X236322000Y-122822000D03*
X235560000Y-122822000D03*
X236322000Y-122060000D03*
X236322000Y-121298000D03*
X236322000Y-119774000D03*
X237846000Y-118250000D03*
X236322000Y-120536000D03*
X235560000Y-121298000D03*
X236322000Y-117488000D03*
X236322000Y-119012000D03*
X235560000Y-119012000D03*
X236322000Y-118250000D03*
X235560000Y-118250000D03*
X235560000Y-119774000D03*
X235560000Y-117488000D03*
X235560000Y-122060000D03*
X235560000Y-120536000D03*
X237084000Y-119012000D03*
X237084000Y-117488000D03*
X237084000Y-118250000D03*
X237084000Y-119774000D03*
X237846000Y-117488000D03*
X234798000Y-121298000D03*
X234798000Y-122060000D03*
X234798000Y-122822000D03*
X237846000Y-119012000D03*
X234798000Y-118250000D03*
X234798000Y-120536000D03*
X234798000Y-117488000D03*
X234798000Y-119774000D03*
X237846000Y-119774000D03*
X234798000Y-119012000D03*
X237084000Y-122822000D03*
X237846000Y-120536000D03*
X237846000Y-122822000D03*
X237846000Y-122060000D03*
X237084000Y-121298000D03*
X237846000Y-121298000D03*
X237084000Y-120536000D03*
X237084000Y-122060000D03*
D17*
X225146000Y-147206000D03*
X226670000Y-147206000D03*
X228194000Y-147206000D03*
X229718000Y-147206000D03*
X253848000Y-128410000D03*
X253848000Y-129680000D03*
X253848000Y-130950000D03*
X253848000Y-132220000D03*
X229972000Y-128918000D03*
X229972000Y-130188000D03*
X229972000Y-131458000D03*
X229972000Y-132728000D03*
X208890000Y-112916000D03*
X236576000Y-113424000D03*
X254610000Y-122568000D03*
X233020000Y-115964000D03*
D19*
X210324000Y-100724000D02*
X208370000Y-98770000D01*
X228690000Y-100355000D02*
X226670000Y-102375000D01*
X228690000Y-98770000D02*
X228690000Y-100355000D01*
X224130000Y-102375000D02*
X226670000Y-102375000D01*
X219050000Y-100724000D02*
X210324000Y-100724000D01*
X220701000Y-102375000D02*
X219050000Y-100724000D01*
X224130000Y-102375000D02*
X220701000Y-102375000D01*
X208370000Y-96230000D02*
X210910000Y-96230000D01*
D20*
X208370000Y-96230000D02*
X208304000Y-96230000D01*
X208304000Y-96230000D02*
X207112000Y-97422000D01*
X207112000Y-102248000D02*
X208382000Y-103518000D01*
X207112000Y-97422000D02*
X207112000Y-102248000D01*
D19*
X228448000Y-124856500D02*
X228958500Y-124856500D01*
X228958500Y-124856500D02*
X232004000Y-127902000D01*
X232004000Y-127902000D02*
X232004000Y-132474000D01*
X232004000Y-132474000D02*
X235052000Y-135522000D01*
X241910000Y-141618000D02*
X249530000Y-141618000D01*
X228026000Y-113678000D02*
X228026000Y-110716000D01*
X228026000Y-110716000D02*
X225400000Y-108090000D01*
X212954000Y-108090000D02*
X208382000Y-103518000D01*
X225400000Y-108090000D02*
X212954000Y-108090000D01*
D20*
X207086500Y-115710000D02*
X207086500Y-115735500D01*
X212954000Y-108090000D02*
X210414000Y-108090000D01*
X206858000Y-115481500D02*
X207086500Y-115710000D01*
X206858000Y-113932000D02*
X206858000Y-115481500D01*
D19*
X210465000Y-114211500D02*
X210414000Y-114160500D01*
X211938000Y-114211500D02*
X210465000Y-114211500D01*
X241910000Y-144158000D02*
X249530000Y-144158000D01*
X228704500Y-130188000D02*
X228448000Y-129931500D01*
X229972000Y-130188000D02*
X228704500Y-130188000D01*
X229461500Y-128918000D02*
X228448000Y-129931500D01*
X229972000Y-128918000D02*
X229461500Y-128918000D01*
X229972000Y-131455500D02*
X228448000Y-129931500D01*
X229972000Y-131458000D02*
X229972000Y-131455500D01*
X229972000Y-132728000D02*
X229972000Y-128918000D01*
X210134500Y-114160500D02*
X208890000Y-112916000D01*
X210160000Y-114160500D02*
X210134500Y-114160500D01*
X237643000Y-114465500D02*
X237592000Y-114414500D01*
X239878000Y-114465500D02*
X237643000Y-114465500D01*
X237566500Y-114414500D02*
X236576000Y-113424000D01*
X237592000Y-114414500D02*
X237566500Y-114414500D01*
X227432000Y-146952000D02*
X227178000Y-147206000D01*
X227432000Y-144062000D02*
X227432000Y-146952000D01*
X227178000Y-147206000D02*
X229718000Y-147206000D01*
X225146000Y-147206000D02*
X227178000Y-147206000D01*
X231230000Y-104903000D02*
X231242000Y-104915000D01*
X231230000Y-98770000D02*
X231230000Y-104903000D01*
X231230000Y-106046000D02*
X231242000Y-106058000D01*
X231230000Y-104903000D02*
X231230000Y-106046000D01*
X233770000Y-104903000D02*
X233782000Y-104915000D01*
X233770000Y-98770000D02*
X233770000Y-104903000D01*
X233770000Y-106046000D02*
X233782000Y-106058000D01*
X233770000Y-104903000D02*
X233770000Y-106046000D01*
X236310000Y-104903000D02*
X236322000Y-104915000D01*
X236310000Y-98770000D02*
X236310000Y-104903000D01*
X236310000Y-106046000D02*
X236322000Y-106058000D01*
X236310000Y-104903000D02*
X236310000Y-106046000D01*
D21*
X236310000Y-96230000D02*
X236310000Y-96394000D01*
X236310000Y-96394000D02*
X237592000Y-97676000D01*
X237592000Y-101105000D02*
X238862000Y-102375000D01*
X237592000Y-97676000D02*
X237592000Y-101105000D01*
X238850000Y-96230000D02*
X238850000Y-96394000D01*
X238850000Y-96394000D02*
X240132000Y-97676000D01*
X240132000Y-103645000D02*
X238862000Y-104915000D01*
X240132000Y-97676000D02*
X240132000Y-103645000D01*
X238862000Y-104915000D02*
X238862000Y-106058000D01*
D19*
X234518500Y-115964000D02*
X233020000Y-115964000D01*
X219121000Y-123655000D02*
X219304000Y-123838000D01*
X216192500Y-123655000D02*
X219121000Y-123655000D01*
D22*
X234795500Y-138062000D02*
X241907500Y-130950000D01*
X227432000Y-138062000D02*
X234795500Y-138062000D01*
X222095500Y-138062000D02*
X214983500Y-130950000D01*
X227432000Y-138062000D02*
X222095500Y-138062000D01*
D19*
X242545000Y-125768500D02*
X242646500Y-125870000D01*
X242545000Y-123782000D02*
X242545000Y-125768500D01*
X242646500Y-130211000D02*
X241907500Y-130950000D01*
X242646500Y-125870000D02*
X242646500Y-130211000D01*
X214922500Y-125832000D02*
X214960500Y-125870000D01*
X214922500Y-123655000D02*
X214922500Y-125832000D01*
X214960500Y-130927000D02*
X214983500Y-130950000D01*
X214960500Y-125870000D02*
X214960500Y-130927000D01*
X211987500Y-112686000D02*
X211938000Y-112636500D01*
X213589000Y-112686000D02*
X211987500Y-112686000D01*
X213652500Y-114249500D02*
X213589000Y-114186000D01*
X213652500Y-116655000D02*
X213652500Y-114249500D01*
X246426000Y-123782000D02*
X246482000Y-123838000D01*
X243815000Y-123782000D02*
X246426000Y-123782000D01*
X244476000Y-116782000D02*
X247834000Y-113424000D01*
X243815000Y-116782000D02*
X244476000Y-116782000D01*
X241402000Y-112890500D02*
X239878000Y-112890500D01*
X241402000Y-116655000D02*
X241275000Y-116782000D01*
X241402000Y-114465500D02*
X241402000Y-116655000D01*
X211333500Y-116655000D02*
X210414000Y-115735500D01*
X212382500Y-116655000D02*
X211333500Y-116655000D01*
X208941000Y-115735500D02*
X208915500Y-115710000D01*
X210414000Y-115735500D02*
X208941000Y-115735500D01*
X213652500Y-125425500D02*
X213208000Y-125870000D01*
X213652500Y-123655000D02*
X213652500Y-125425500D01*
X236881000Y-115989500D02*
X236855500Y-115964000D01*
X238354000Y-115989500D02*
X236881000Y-115989500D01*
X239146500Y-116782000D02*
X238354000Y-115989500D01*
X240005000Y-116782000D02*
X239146500Y-116782000D01*
X236119000Y-115989500D02*
X236093500Y-115964000D01*
X236881000Y-115989500D02*
X236119000Y-115989500D01*
X241275000Y-123782000D02*
X241275000Y-124981000D01*
X241275000Y-124981000D02*
X240640000Y-125616000D01*
X240157500Y-125616000D02*
X239903500Y-125870000D01*
X240640000Y-125616000D02*
X240157500Y-125616000D01*
D23*
G36*
X250927000Y-122949000D02*
G01*
X245847000Y-122949000D01*
X245847000Y-116726000D01*
X245844560Y-116701224D01*
X245837333Y-116677399D01*
X245825597Y-116655443D01*
X245809803Y-116636197D01*
X245790557Y-116620403D01*
X245768601Y-116608667D01*
X245744776Y-116601440D01*
X245720000Y-116599000D01*
X243815000Y-116599000D01*
X243815000Y-111519000D01*
X250927000Y-111519000D01*
X250927000Y-122949000D01*
G37*
X250927000Y-122949000D02*
X245847000Y-122949000D01*
X245847000Y-116726000D01*
X245844560Y-116701224D01*
X245837333Y-116677399D01*
X245825597Y-116655443D01*
X245809803Y-116636197D01*
X245790557Y-116620403D01*
X245768601Y-116608667D01*
X245744776Y-116601440D01*
X245720000Y-116599000D01*
X243815000Y-116599000D01*
X243815000Y-111519000D01*
X250927000Y-111519000D01*
X250927000Y-122949000D01*
G36*
X223497791Y-122695000D02*
G01*
X218669000Y-122695000D01*
X218669000Y-117488000D01*
X218666560Y-117463224D01*
X218659333Y-117439399D01*
X218647597Y-117417443D01*
X218631803Y-117398197D01*
X218612557Y-117382403D01*
X218590601Y-117370667D01*
X218566776Y-117363440D01*
X218542000Y-117361000D01*
X216129000Y-117361000D01*
X216129000Y-111519000D01*
X223746146Y-111519000D01*
X223497791Y-122695000D01*
G37*
X223497791Y-122695000D02*
X218669000Y-122695000D01*
X218669000Y-117488000D01*
X218666560Y-117463224D01*
X218659333Y-117439399D01*
X218647597Y-117417443D01*
X218631803Y-117398197D01*
X218612557Y-117382403D01*
X218590601Y-117370667D01*
X218566776Y-117363440D01*
X218542000Y-117361000D01*
X216129000Y-117361000D01*
X216129000Y-111519000D01*
X223746146Y-111519000D01*
X223497791Y-122695000D01*
G36*
X230353000Y-126505000D02*
G01*
X226289000Y-126505000D01*
X226289000Y-111519000D01*
X230353000Y-111519000D01*
X230353000Y-126505000D01*
G37*
X230353000Y-126505000D02*
X226289000Y-126505000D01*
X226289000Y-111519000D01*
X230353000Y-111519000D01*
X230353000Y-126505000D01*
G36*
X258293000Y-112662000D02*
G01*
X258295440Y-112686776D01*
X258302667Y-112710601D01*
X258314403Y-112732557D01*
X258330197Y-112751803D01*
X258349443Y-112767597D01*
X258371399Y-112779333D01*
X258395224Y-112786560D01*
X258420000Y-112789000D01*
X261595000Y-112789000D01*
X261595000Y-114313000D01*
X258420000Y-114313000D01*
X258395224Y-114315440D01*
X258371399Y-114322667D01*
X258349443Y-114334403D01*
X258330197Y-114350197D01*
X258314403Y-114369443D01*
X258302667Y-114391399D01*
X258295440Y-114415224D01*
X258293000Y-114440000D01*
X258293000Y-125997000D01*
X254229000Y-125997000D01*
X254229000Y-111265000D01*
X258293000Y-111265000D01*
X258293000Y-112662000D01*
G37*
X258293000Y-112662000D02*
X258295440Y-112686776D01*
X258302667Y-112710601D01*
X258314403Y-112732557D01*
X258330197Y-112751803D01*
X258349443Y-112767597D01*
X258371399Y-112779333D01*
X258395224Y-112786560D01*
X258420000Y-112789000D01*
X261595000Y-112789000D01*
X261595000Y-114313000D01*
X258420000Y-114313000D01*
X258395224Y-114315440D01*
X258371399Y-114322667D01*
X258349443Y-114334403D01*
X258330197Y-114350197D01*
X258314403Y-114369443D01*
X258302667Y-114391399D01*
X258295440Y-114415224D01*
X258293000Y-114440000D01*
X258293000Y-125997000D01*
X254229000Y-125997000D01*
X254229000Y-111265000D01*
X258293000Y-111265000D01*
X258293000Y-112662000D01*
G36*
X224511000Y-127394000D02*
G01*
X224513440Y-127418776D01*
X224520667Y-127442601D01*
X224532403Y-127464557D01*
X224548197Y-127483803D01*
X224567443Y-127499597D01*
X224589399Y-127511333D01*
X224613224Y-127518560D01*
X224638000Y-127521000D01*
X230173394Y-127521000D01*
X231115000Y-128462606D01*
X231115000Y-134379000D01*
X221651726Y-134379000D01*
X216129000Y-127350076D01*
X216129000Y-125235000D01*
X220574000Y-125235000D01*
X220598776Y-125232560D01*
X220622601Y-125225333D01*
X220644557Y-125213597D01*
X220663803Y-125197803D01*
X220679597Y-125178557D01*
X220691333Y-125156601D01*
X220698560Y-125132776D01*
X220701000Y-125108000D01*
X220701000Y-123457000D01*
X224511000Y-123457000D01*
X224511000Y-127394000D01*
G37*
X224511000Y-127394000D02*
X224513440Y-127418776D01*
X224520667Y-127442601D01*
X224532403Y-127464557D01*
X224548197Y-127483803D01*
X224567443Y-127499597D01*
X224589399Y-127511333D01*
X224613224Y-127518560D01*
X224638000Y-127521000D01*
X230173394Y-127521000D01*
X231115000Y-128462606D01*
X231115000Y-134379000D01*
X221651726Y-134379000D01*
X216129000Y-127350076D01*
X216129000Y-125235000D01*
X220574000Y-125235000D01*
X220598776Y-125232560D01*
X220622601Y-125225333D01*
X220644557Y-125213597D01*
X220663803Y-125197803D01*
X220679597Y-125178557D01*
X220691333Y-125156601D01*
X220698560Y-125132776D01*
X220701000Y-125108000D01*
X220701000Y-123457000D01*
X224511000Y-123457000D01*
X224511000Y-127394000D01*
G36*
X250927000Y-126378000D02*
G01*
X250929440Y-126402776D01*
X250936667Y-126426601D01*
X250948403Y-126448557D01*
X250964197Y-126467803D01*
X250983443Y-126483597D01*
X251008410Y-126496535D01*
X254310410Y-127766535D01*
X254334411Y-127773152D01*
X254356000Y-127775000D01*
X257277000Y-127775000D01*
X257277000Y-133109000D01*
X246308188Y-133109000D01*
X243815000Y-127873306D01*
X243815000Y-125235000D01*
X248006000Y-125235000D01*
X248030776Y-125232560D01*
X248054601Y-125225333D01*
X248076557Y-125213597D01*
X248095803Y-125197803D01*
X248111597Y-125178557D01*
X248123333Y-125156601D01*
X248130560Y-125132776D01*
X248133000Y-125108000D01*
X248133000Y-123965000D01*
X250927000Y-123965000D01*
X250927000Y-126378000D01*
G37*
X250927000Y-126378000D02*
X250929440Y-126402776D01*
X250936667Y-126426601D01*
X250948403Y-126448557D01*
X250964197Y-126467803D01*
X250983443Y-126483597D01*
X251008410Y-126496535D01*
X254310410Y-127766535D01*
X254334411Y-127773152D01*
X254356000Y-127775000D01*
X257277000Y-127775000D01*
X257277000Y-133109000D01*
X246308188Y-133109000D01*
X243815000Y-127873306D01*
X243815000Y-125235000D01*
X248006000Y-125235000D01*
X248030776Y-125232560D01*
X248054601Y-125225333D01*
X248076557Y-125213597D01*
X248095803Y-125197803D01*
X248111597Y-125178557D01*
X248123333Y-125156601D01*
X248130560Y-125132776D01*
X248133000Y-125108000D01*
X248133000Y-123965000D01*
X250927000Y-123965000D01*
X250927000Y-126378000D01*
G36*
X239010330Y-118574447D02*
G01*
X239026104Y-118593709D01*
X239045332Y-118609523D01*
X239067276Y-118621282D01*
X239091093Y-118628534D01*
X239116000Y-118631000D01*
X244323000Y-118631000D01*
X244323000Y-121679000D01*
X240640000Y-121679000D01*
X240615224Y-121681440D01*
X240591399Y-121688667D01*
X240569443Y-121700403D01*
X240550197Y-121716197D01*
X240534403Y-121735443D01*
X240522667Y-121757399D01*
X240515440Y-121781224D01*
X240513000Y-121806000D01*
X240513000Y-123453243D01*
X240507255Y-123463991D01*
X240459966Y-123619881D01*
X240448000Y-123741377D01*
X240448001Y-124446018D01*
X240307510Y-124727000D01*
X238862000Y-124727000D01*
X238837224Y-124729440D01*
X238813399Y-124736667D01*
X238791443Y-124748403D01*
X238772197Y-124764197D01*
X238756403Y-124783443D01*
X238744667Y-124805399D01*
X238737440Y-124829224D01*
X238735000Y-124854000D01*
X238735000Y-131839000D01*
X233401000Y-131839000D01*
X233401000Y-117107000D01*
X238032032Y-117107000D01*
X239010330Y-118574447D01*
G37*
X239010330Y-118574447D02*
X239026104Y-118593709D01*
X239045332Y-118609523D01*
X239067276Y-118621282D01*
X239091093Y-118628534D01*
X239116000Y-118631000D01*
X244323000Y-118631000D01*
X244323000Y-121679000D01*
X240640000Y-121679000D01*
X240615224Y-121681440D01*
X240591399Y-121688667D01*
X240569443Y-121700403D01*
X240550197Y-121716197D01*
X240534403Y-121735443D01*
X240522667Y-121757399D01*
X240515440Y-121781224D01*
X240513000Y-121806000D01*
X240513000Y-123453243D01*
X240507255Y-123463991D01*
X240459966Y-123619881D01*
X240448000Y-123741377D01*
X240448001Y-124446018D01*
X240307510Y-124727000D01*
X238862000Y-124727000D01*
X238837224Y-124729440D01*
X238813399Y-124736667D01*
X238791443Y-124748403D01*
X238772197Y-124764197D01*
X238756403Y-124783443D01*
X238744667Y-124805399D01*
X238737440Y-124829224D01*
X238735000Y-124854000D01*
X238735000Y-131839000D01*
X233401000Y-131839000D01*
X233401000Y-117107000D01*
X238032032Y-117107000D01*
X239010330Y-118574447D01*
G36*
X211580656Y-118577817D02*
G01*
X211597043Y-118596560D01*
X211616771Y-118611746D01*
X211639083Y-118622792D01*
X211663121Y-118629272D01*
X211684000Y-118631000D01*
X216637000Y-118631000D01*
X216637000Y-121679000D01*
X212954000Y-121679000D01*
X212929224Y-121681440D01*
X212905399Y-121688667D01*
X212883443Y-121700403D01*
X212864197Y-121716197D01*
X212848403Y-121735443D01*
X212836667Y-121757399D01*
X212829440Y-121781224D01*
X212827000Y-121806000D01*
X212827000Y-123599147D01*
X212825500Y-123614377D01*
X212825501Y-124776260D01*
X212389204Y-124994408D01*
X212368134Y-125007671D01*
X212350057Y-125024789D01*
X212335667Y-125045106D01*
X212325517Y-125067839D01*
X212319997Y-125092116D01*
X212319000Y-125108000D01*
X212319000Y-134633000D01*
X205461000Y-134633000D01*
X205461000Y-130166780D01*
X205464506Y-130150286D01*
X205465202Y-130143662D01*
X205474724Y-130046545D01*
X205474724Y-130046531D01*
X205477000Y-130023423D01*
X205477000Y-116853000D01*
X210348644Y-116853000D01*
X211580656Y-118577817D01*
G37*
X211580656Y-118577817D02*
X211597043Y-118596560D01*
X211616771Y-118611746D01*
X211639083Y-118622792D01*
X211663121Y-118629272D01*
X211684000Y-118631000D01*
X216637000Y-118631000D01*
X216637000Y-121679000D01*
X212954000Y-121679000D01*
X212929224Y-121681440D01*
X212905399Y-121688667D01*
X212883443Y-121700403D01*
X212864197Y-121716197D01*
X212848403Y-121735443D01*
X212836667Y-121757399D01*
X212829440Y-121781224D01*
X212827000Y-121806000D01*
X212827000Y-123599147D01*
X212825500Y-123614377D01*
X212825501Y-124776260D01*
X212389204Y-124994408D01*
X212368134Y-125007671D01*
X212350057Y-125024789D01*
X212335667Y-125045106D01*
X212325517Y-125067839D01*
X212319997Y-125092116D01*
X212319000Y-125108000D01*
X212319000Y-134633000D01*
X205461000Y-134633000D01*
X205461000Y-130166780D01*
X205464506Y-130150286D01*
X205465202Y-130143662D01*
X205474724Y-130046545D01*
X205474724Y-130046531D01*
X205477000Y-130023423D01*
X205477000Y-116853000D01*
X210348644Y-116853000D01*
X211580656Y-118577817D01*
G36*
X229591000Y-146190000D02*
G01*
X229593440Y-146214776D01*
X229600667Y-146238601D01*
X229612403Y-146260557D01*
X229628197Y-146279803D01*
X229647443Y-146295597D01*
X229661204Y-146303592D01*
X230607000Y-146776490D01*
X230607000Y-149523000D01*
X224511000Y-149523000D01*
X224511000Y-142253000D01*
X229591000Y-142253000D01*
X229591000Y-146190000D01*
G37*
X229591000Y-146190000D02*
X229593440Y-146214776D01*
X229600667Y-146238601D01*
X229612403Y-146260557D01*
X229628197Y-146279803D01*
X229647443Y-146295597D01*
X229661204Y-146303592D01*
X230607000Y-146776490D01*
X230607000Y-149523000D01*
X224511000Y-149523000D01*
X224511000Y-142253000D01*
X229591000Y-142253000D01*
X229591000Y-146190000D01*
M02*
