G04 #@! TF.GenerationSoftware,KiCad,Pcbnew,(5.1.6-0-10_14)*
G04 #@! TF.CreationDate,2021-09-09T15:00:30-05:00*
G04 #@! TF.ProjectId,2019-Pi-Power,32303139-2d50-4692-9d50-6f7765722e6b,rev?*
G04 #@! TF.SameCoordinates,Original*
G04 #@! TF.FileFunction,Legend,Top*
G04 #@! TF.FilePolarity,Positive*
%FSLAX46Y46*%
G04 Gerber Fmt 4.6, Leading zero omitted, Abs format (unit mm)*
G04 Created by KiCad (PCBNEW (5.1.6-0-10_14)) date 2021-09-09 15:00:30*
%MOMM*%
%LPD*%
G01*
G04 APERTURE LIST*
%ADD10C,0.150000*%
%ADD11C,0.200000*%
%ADD12C,0.250000*%
%ADD13C,0.120000*%
%ADD14C,0.010000*%
%ADD15C,0.100000*%
G04 APERTURE END LIST*
D10*
X245212119Y-135340380D02*
X245212119Y-134340380D01*
X245450214Y-134340380D01*
X245593071Y-134388000D01*
X245688309Y-134483238D01*
X245735928Y-134578476D01*
X245783547Y-134768952D01*
X245783547Y-134911809D01*
X245735928Y-135102285D01*
X245688309Y-135197523D01*
X245593071Y-135292761D01*
X245450214Y-135340380D01*
X245212119Y-135340380D01*
X246164500Y-135292761D02*
X246307357Y-135340380D01*
X246545452Y-135340380D01*
X246640690Y-135292761D01*
X246688309Y-135245142D01*
X246735928Y-135149904D01*
X246735928Y-135054666D01*
X246688309Y-134959428D01*
X246640690Y-134911809D01*
X246545452Y-134864190D01*
X246354976Y-134816571D01*
X246259738Y-134768952D01*
X246212119Y-134721333D01*
X246164500Y-134626095D01*
X246164500Y-134530857D01*
X246212119Y-134435619D01*
X246259738Y-134388000D01*
X246354976Y-134340380D01*
X246593071Y-134340380D01*
X246735928Y-134388000D01*
X247164500Y-135340380D02*
X247164500Y-134340380D01*
X247735928Y-135340380D02*
X247307357Y-134768952D01*
X247735928Y-134340380D02*
X247164500Y-134911809D01*
X248354976Y-134864190D02*
X248354976Y-135340380D01*
X248021642Y-134340380D02*
X248354976Y-134864190D01*
X248688309Y-134340380D01*
X249021642Y-134959428D02*
X249783547Y-134959428D01*
X250259738Y-135340380D02*
X250259738Y-134673714D01*
X250259738Y-134768952D02*
X250307357Y-134721333D01*
X250402595Y-134673714D01*
X250545452Y-134673714D01*
X250640690Y-134721333D01*
X250688309Y-134816571D01*
X250688309Y-135340380D01*
X250688309Y-134816571D02*
X250735928Y-134721333D01*
X250831166Y-134673714D01*
X250974023Y-134673714D01*
X251069261Y-134721333D01*
X251116880Y-134816571D01*
X251116880Y-135340380D01*
X252021642Y-135340380D02*
X252021642Y-134816571D01*
X251974023Y-134721333D01*
X251878785Y-134673714D01*
X251688309Y-134673714D01*
X251593071Y-134721333D01*
X252021642Y-135292761D02*
X251926404Y-135340380D01*
X251688309Y-135340380D01*
X251593071Y-135292761D01*
X251545452Y-135197523D01*
X251545452Y-135102285D01*
X251593071Y-135007047D01*
X251688309Y-134959428D01*
X251926404Y-134959428D01*
X252021642Y-134911809D01*
X252354976Y-134673714D02*
X252735928Y-134673714D01*
X252497833Y-134340380D02*
X252497833Y-135197523D01*
X252545452Y-135292761D01*
X252640690Y-135340380D01*
X252735928Y-135340380D01*
X253069261Y-135340380D02*
X253069261Y-134673714D01*
X253069261Y-134340380D02*
X253021642Y-134388000D01*
X253069261Y-134435619D01*
X253116880Y-134388000D01*
X253069261Y-134340380D01*
X253069261Y-134435619D01*
X253974023Y-135292761D02*
X253878785Y-135340380D01*
X253688309Y-135340380D01*
X253593071Y-135292761D01*
X253545452Y-135245142D01*
X253497833Y-135149904D01*
X253497833Y-134864190D01*
X253545452Y-134768952D01*
X253593071Y-134721333D01*
X253688309Y-134673714D01*
X253878785Y-134673714D01*
X253974023Y-134721333D01*
X255164500Y-135340380D02*
X255164500Y-134340380D01*
X255545452Y-134340380D01*
X255640690Y-134388000D01*
X255688309Y-134435619D01*
X255735928Y-134530857D01*
X255735928Y-134673714D01*
X255688309Y-134768952D01*
X255640690Y-134816571D01*
X255545452Y-134864190D01*
X255164500Y-134864190D01*
X256164500Y-135340380D02*
X256164500Y-134673714D01*
X256164500Y-134340380D02*
X256116880Y-134388000D01*
X256164500Y-134435619D01*
X256212119Y-134388000D01*
X256164500Y-134340380D01*
X256164500Y-134435619D01*
X257402595Y-135340380D02*
X257402595Y-134340380D01*
X257783547Y-134340380D01*
X257878785Y-134388000D01*
X257926404Y-134435619D01*
X257974023Y-134530857D01*
X257974023Y-134673714D01*
X257926404Y-134768952D01*
X257878785Y-134816571D01*
X257783547Y-134864190D01*
X257402595Y-134864190D01*
X258545452Y-135340380D02*
X258450214Y-135292761D01*
X258402595Y-135245142D01*
X258354976Y-135149904D01*
X258354976Y-134864190D01*
X258402595Y-134768952D01*
X258450214Y-134721333D01*
X258545452Y-134673714D01*
X258688309Y-134673714D01*
X258783547Y-134721333D01*
X258831166Y-134768952D01*
X258878785Y-134864190D01*
X258878785Y-135149904D01*
X258831166Y-135245142D01*
X258783547Y-135292761D01*
X258688309Y-135340380D01*
X258545452Y-135340380D01*
X259212119Y-134673714D02*
X259402595Y-135340380D01*
X259593071Y-134864190D01*
X259783547Y-135340380D01*
X259974023Y-134673714D01*
X260735928Y-135292761D02*
X260640690Y-135340380D01*
X260450214Y-135340380D01*
X260354976Y-135292761D01*
X260307357Y-135197523D01*
X260307357Y-134816571D01*
X260354976Y-134721333D01*
X260450214Y-134673714D01*
X260640690Y-134673714D01*
X260735928Y-134721333D01*
X260783547Y-134816571D01*
X260783547Y-134911809D01*
X260307357Y-135007047D01*
X261212119Y-135340380D02*
X261212119Y-134673714D01*
X261212119Y-134864190D02*
X261259738Y-134768952D01*
X261307357Y-134721333D01*
X261402595Y-134673714D01*
X261497833Y-134673714D01*
X262450214Y-134340380D02*
X262783547Y-135340380D01*
X263116880Y-134340380D01*
X263974023Y-135340380D02*
X263402595Y-135340380D01*
X263688309Y-135340380D02*
X263688309Y-134340380D01*
X263593071Y-134483238D01*
X263497833Y-134578476D01*
X263402595Y-134626095D01*
X255688309Y-136990380D02*
X255354976Y-136514190D01*
X255116880Y-136990380D02*
X255116880Y-135990380D01*
X255497833Y-135990380D01*
X255593071Y-136038000D01*
X255640690Y-136085619D01*
X255688309Y-136180857D01*
X255688309Y-136323714D01*
X255640690Y-136418952D01*
X255593071Y-136466571D01*
X255497833Y-136514190D01*
X255116880Y-136514190D01*
X256116880Y-136990380D02*
X256116880Y-136323714D01*
X256116880Y-135990380D02*
X256069261Y-136038000D01*
X256116880Y-136085619D01*
X256164500Y-136038000D01*
X256116880Y-135990380D01*
X256116880Y-136085619D01*
X256735928Y-136990380D02*
X256640690Y-136942761D01*
X256593071Y-136847523D01*
X256593071Y-135990380D01*
X257497833Y-136942761D02*
X257402595Y-136990380D01*
X257212119Y-136990380D01*
X257116880Y-136942761D01*
X257069261Y-136847523D01*
X257069261Y-136466571D01*
X257116880Y-136371333D01*
X257212119Y-136323714D01*
X257402595Y-136323714D01*
X257497833Y-136371333D01*
X257545452Y-136466571D01*
X257545452Y-136561809D01*
X257069261Y-136657047D01*
X257878785Y-136323714D02*
X258116880Y-136990380D01*
X258354976Y-136323714D02*
X258116880Y-136990380D01*
X258021642Y-137228476D01*
X257974023Y-137276095D01*
X257878785Y-137323714D01*
X260069261Y-136990380D02*
X259735928Y-136514190D01*
X259497833Y-136990380D02*
X259497833Y-135990380D01*
X259878785Y-135990380D01*
X259974023Y-136038000D01*
X260021642Y-136085619D01*
X260069261Y-136180857D01*
X260069261Y-136323714D01*
X260021642Y-136418952D01*
X259974023Y-136466571D01*
X259878785Y-136514190D01*
X259497833Y-136514190D01*
X260926404Y-136990380D02*
X260926404Y-136466571D01*
X260878785Y-136371333D01*
X260783547Y-136323714D01*
X260593071Y-136323714D01*
X260497833Y-136371333D01*
X260926404Y-136942761D02*
X260831166Y-136990380D01*
X260593071Y-136990380D01*
X260497833Y-136942761D01*
X260450214Y-136847523D01*
X260450214Y-136752285D01*
X260497833Y-136657047D01*
X260593071Y-136609428D01*
X260831166Y-136609428D01*
X260926404Y-136561809D01*
X261402595Y-136990380D02*
X261402595Y-136323714D01*
X261402595Y-135990380D02*
X261354976Y-136038000D01*
X261402595Y-136085619D01*
X261450214Y-136038000D01*
X261402595Y-135990380D01*
X261402595Y-136085619D01*
X261878785Y-136323714D02*
X261878785Y-136990380D01*
X261878785Y-136418952D02*
X261926404Y-136371333D01*
X262021642Y-136323714D01*
X262164500Y-136323714D01*
X262259738Y-136371333D01*
X262307357Y-136466571D01*
X262307357Y-136990380D01*
X263164500Y-136942761D02*
X263069261Y-136990380D01*
X262878785Y-136990380D01*
X262783547Y-136942761D01*
X262735928Y-136847523D01*
X262735928Y-136466571D01*
X262783547Y-136371333D01*
X262878785Y-136323714D01*
X263069261Y-136323714D01*
X263164500Y-136371333D01*
X263212119Y-136466571D01*
X263212119Y-136561809D01*
X262735928Y-136657047D01*
X263545452Y-136323714D02*
X263783547Y-136990380D01*
X264021642Y-136323714D02*
X263783547Y-136990380D01*
X263688309Y-137228476D01*
X263640690Y-137276095D01*
X263545452Y-137323714D01*
X233402595Y-138640380D02*
X233402595Y-137640380D01*
X233831166Y-138640380D02*
X233831166Y-138116571D01*
X233783547Y-138021333D01*
X233688309Y-137973714D01*
X233545452Y-137973714D01*
X233450214Y-138021333D01*
X233402595Y-138068952D01*
X234164500Y-137973714D02*
X234545452Y-137973714D01*
X234307357Y-137640380D02*
X234307357Y-138497523D01*
X234354976Y-138592761D01*
X234450214Y-138640380D01*
X234545452Y-138640380D01*
X234735928Y-137973714D02*
X235116880Y-137973714D01*
X234878785Y-137640380D02*
X234878785Y-138497523D01*
X234926404Y-138592761D01*
X235021642Y-138640380D01*
X235116880Y-138640380D01*
X235450214Y-137973714D02*
X235450214Y-138973714D01*
X235450214Y-138021333D02*
X235545452Y-137973714D01*
X235735928Y-137973714D01*
X235831166Y-138021333D01*
X235878785Y-138068952D01*
X235926404Y-138164190D01*
X235926404Y-138449904D01*
X235878785Y-138545142D01*
X235831166Y-138592761D01*
X235735928Y-138640380D01*
X235545452Y-138640380D01*
X235450214Y-138592761D01*
X236307357Y-138592761D02*
X236402595Y-138640380D01*
X236593071Y-138640380D01*
X236688309Y-138592761D01*
X236735928Y-138497523D01*
X236735928Y-138449904D01*
X236688309Y-138354666D01*
X236593071Y-138307047D01*
X236450214Y-138307047D01*
X236354976Y-138259428D01*
X236307357Y-138164190D01*
X236307357Y-138116571D01*
X236354976Y-138021333D01*
X236450214Y-137973714D01*
X236593071Y-137973714D01*
X236688309Y-138021333D01*
X237164500Y-138545142D02*
X237212119Y-138592761D01*
X237164500Y-138640380D01*
X237116880Y-138592761D01*
X237164500Y-138545142D01*
X237164500Y-138640380D01*
X237164500Y-138021333D02*
X237212119Y-138068952D01*
X237164500Y-138116571D01*
X237116880Y-138068952D01*
X237164500Y-138021333D01*
X237164500Y-138116571D01*
X238354976Y-137592761D02*
X237497833Y-138878476D01*
X239402595Y-137592761D02*
X238545452Y-138878476D01*
X240164500Y-137973714D02*
X240164500Y-138783238D01*
X240116880Y-138878476D01*
X240069261Y-138926095D01*
X239974023Y-138973714D01*
X239831166Y-138973714D01*
X239735928Y-138926095D01*
X240164500Y-138592761D02*
X240069261Y-138640380D01*
X239878785Y-138640380D01*
X239783547Y-138592761D01*
X239735928Y-138545142D01*
X239688309Y-138449904D01*
X239688309Y-138164190D01*
X239735928Y-138068952D01*
X239783547Y-138021333D01*
X239878785Y-137973714D01*
X240069261Y-137973714D01*
X240164500Y-138021333D01*
X240640690Y-138640380D02*
X240640690Y-137973714D01*
X240640690Y-137640380D02*
X240593071Y-137688000D01*
X240640690Y-137735619D01*
X240688309Y-137688000D01*
X240640690Y-137640380D01*
X240640690Y-137735619D01*
X240974023Y-137973714D02*
X241354976Y-137973714D01*
X241116880Y-137640380D02*
X241116880Y-138497523D01*
X241164500Y-138592761D01*
X241259738Y-138640380D01*
X241354976Y-138640380D01*
X241688309Y-138640380D02*
X241688309Y-137640380D01*
X242116880Y-138640380D02*
X242116880Y-138116571D01*
X242069261Y-138021333D01*
X241974023Y-137973714D01*
X241831166Y-137973714D01*
X241735928Y-138021333D01*
X241688309Y-138068952D01*
X243021642Y-137973714D02*
X243021642Y-138640380D01*
X242593071Y-137973714D02*
X242593071Y-138497523D01*
X242640690Y-138592761D01*
X242735928Y-138640380D01*
X242878785Y-138640380D01*
X242974023Y-138592761D01*
X243021642Y-138545142D01*
X243497833Y-138640380D02*
X243497833Y-137640380D01*
X243497833Y-138021333D02*
X243593071Y-137973714D01*
X243783547Y-137973714D01*
X243878785Y-138021333D01*
X243926404Y-138068952D01*
X243974023Y-138164190D01*
X243974023Y-138449904D01*
X243926404Y-138545142D01*
X243878785Y-138592761D01*
X243783547Y-138640380D01*
X243593071Y-138640380D01*
X243497833Y-138592761D01*
X244402595Y-138545142D02*
X244450214Y-138592761D01*
X244402595Y-138640380D01*
X244354976Y-138592761D01*
X244402595Y-138545142D01*
X244402595Y-138640380D01*
X245307357Y-138592761D02*
X245212119Y-138640380D01*
X245021642Y-138640380D01*
X244926404Y-138592761D01*
X244878785Y-138545142D01*
X244831166Y-138449904D01*
X244831166Y-138164190D01*
X244878785Y-138068952D01*
X244926404Y-138021333D01*
X245021642Y-137973714D01*
X245212119Y-137973714D01*
X245307357Y-138021333D01*
X245878785Y-138640380D02*
X245783547Y-138592761D01*
X245735928Y-138545142D01*
X245688309Y-138449904D01*
X245688309Y-138164190D01*
X245735928Y-138068952D01*
X245783547Y-138021333D01*
X245878785Y-137973714D01*
X246021642Y-137973714D01*
X246116880Y-138021333D01*
X246164500Y-138068952D01*
X246212119Y-138164190D01*
X246212119Y-138449904D01*
X246164500Y-138545142D01*
X246116880Y-138592761D01*
X246021642Y-138640380D01*
X245878785Y-138640380D01*
X246640690Y-138640380D02*
X246640690Y-137973714D01*
X246640690Y-138068952D02*
X246688309Y-138021333D01*
X246783547Y-137973714D01*
X246926404Y-137973714D01*
X247021642Y-138021333D01*
X247069261Y-138116571D01*
X247069261Y-138640380D01*
X247069261Y-138116571D02*
X247116880Y-138021333D01*
X247212119Y-137973714D01*
X247354976Y-137973714D01*
X247450214Y-138021333D01*
X247497833Y-138116571D01*
X247497833Y-138640380D01*
X248688309Y-137592761D02*
X247831166Y-138878476D01*
X249021642Y-138640380D02*
X249021642Y-137973714D01*
X249021642Y-138164190D02*
X249069261Y-138068952D01*
X249116880Y-138021333D01*
X249212119Y-137973714D01*
X249307357Y-137973714D01*
X249640690Y-138640380D02*
X249640690Y-137973714D01*
X249640690Y-138164190D02*
X249688309Y-138068952D01*
X249735928Y-138021333D01*
X249831166Y-137973714D01*
X249926404Y-137973714D01*
X250688309Y-138640380D02*
X250688309Y-138116571D01*
X250640690Y-138021333D01*
X250545452Y-137973714D01*
X250354976Y-137973714D01*
X250259738Y-138021333D01*
X250688309Y-138592761D02*
X250593071Y-138640380D01*
X250354976Y-138640380D01*
X250259738Y-138592761D01*
X250212119Y-138497523D01*
X250212119Y-138402285D01*
X250259738Y-138307047D01*
X250354976Y-138259428D01*
X250593071Y-138259428D01*
X250688309Y-138211809D01*
X251164500Y-138640380D02*
X251164500Y-137973714D01*
X251164500Y-137640380D02*
X251116880Y-137688000D01*
X251164500Y-137735619D01*
X251212119Y-137688000D01*
X251164500Y-137640380D01*
X251164500Y-137735619D01*
X251640690Y-137973714D02*
X251640690Y-138640380D01*
X251640690Y-138068952D02*
X251688309Y-138021333D01*
X251783547Y-137973714D01*
X251926404Y-137973714D01*
X252021642Y-138021333D01*
X252069261Y-138116571D01*
X252069261Y-138640380D01*
X252926404Y-138592761D02*
X252831166Y-138640380D01*
X252640690Y-138640380D01*
X252545452Y-138592761D01*
X252497833Y-138497523D01*
X252497833Y-138116571D01*
X252545452Y-138021333D01*
X252640690Y-137973714D01*
X252831166Y-137973714D01*
X252926404Y-138021333D01*
X252974023Y-138116571D01*
X252974023Y-138211809D01*
X252497833Y-138307047D01*
X253307357Y-137973714D02*
X253545452Y-138640380D01*
X253783547Y-137973714D02*
X253545452Y-138640380D01*
X253450214Y-138878476D01*
X253402595Y-138926095D01*
X253307357Y-138973714D01*
X254878785Y-137592761D02*
X254021642Y-138878476D01*
X255212119Y-138640380D02*
X255212119Y-137640380D01*
X255450214Y-137640380D01*
X255593071Y-137688000D01*
X255688309Y-137783238D01*
X255735928Y-137878476D01*
X255783547Y-138068952D01*
X255783547Y-138211809D01*
X255735928Y-138402285D01*
X255688309Y-138497523D01*
X255593071Y-138592761D01*
X255450214Y-138640380D01*
X255212119Y-138640380D01*
X256164500Y-138592761D02*
X256307357Y-138640380D01*
X256545452Y-138640380D01*
X256640690Y-138592761D01*
X256688309Y-138545142D01*
X256735928Y-138449904D01*
X256735928Y-138354666D01*
X256688309Y-138259428D01*
X256640690Y-138211809D01*
X256545452Y-138164190D01*
X256354976Y-138116571D01*
X256259738Y-138068952D01*
X256212119Y-138021333D01*
X256164500Y-137926095D01*
X256164500Y-137830857D01*
X256212119Y-137735619D01*
X256259738Y-137688000D01*
X256354976Y-137640380D01*
X256593071Y-137640380D01*
X256735928Y-137688000D01*
X257164500Y-138640380D02*
X257164500Y-137640380D01*
X257735928Y-138640380D02*
X257307357Y-138068952D01*
X257735928Y-137640380D02*
X257164500Y-138211809D01*
X258354976Y-138164190D02*
X258354976Y-138640380D01*
X258021642Y-137640380D02*
X258354976Y-138164190D01*
X258688309Y-137640380D01*
X259021642Y-138259428D02*
X259783547Y-138259428D01*
X260259738Y-138640380D02*
X260259738Y-137973714D01*
X260259738Y-138068952D02*
X260307357Y-138021333D01*
X260402595Y-137973714D01*
X260545452Y-137973714D01*
X260640690Y-138021333D01*
X260688309Y-138116571D01*
X260688309Y-138640380D01*
X260688309Y-138116571D02*
X260735928Y-138021333D01*
X260831166Y-137973714D01*
X260974023Y-137973714D01*
X261069261Y-138021333D01*
X261116880Y-138116571D01*
X261116880Y-138640380D01*
X262021642Y-138640380D02*
X262021642Y-138116571D01*
X261974023Y-138021333D01*
X261878785Y-137973714D01*
X261688309Y-137973714D01*
X261593071Y-138021333D01*
X262021642Y-138592761D02*
X261926404Y-138640380D01*
X261688309Y-138640380D01*
X261593071Y-138592761D01*
X261545452Y-138497523D01*
X261545452Y-138402285D01*
X261593071Y-138307047D01*
X261688309Y-138259428D01*
X261926404Y-138259428D01*
X262021642Y-138211809D01*
X262354976Y-137973714D02*
X262735928Y-137973714D01*
X262497833Y-137640380D02*
X262497833Y-138497523D01*
X262545452Y-138592761D01*
X262640690Y-138640380D01*
X262735928Y-138640380D01*
X263069261Y-138640380D02*
X263069261Y-137973714D01*
X263069261Y-137640380D02*
X263021642Y-137688000D01*
X263069261Y-137735619D01*
X263116880Y-137688000D01*
X263069261Y-137640380D01*
X263069261Y-137735619D01*
X263974023Y-138592761D02*
X263878785Y-138640380D01*
X263688309Y-138640380D01*
X263593071Y-138592761D01*
X263545452Y-138545142D01*
X263497833Y-138449904D01*
X263497833Y-138164190D01*
X263545452Y-138068952D01*
X263593071Y-138021333D01*
X263688309Y-137973714D01*
X263878785Y-137973714D01*
X263974023Y-138021333D01*
X264516000Y-109868000D02*
X262484000Y-109868000D01*
X264516000Y-114948000D02*
X264516000Y-109868000D01*
X262230000Y-114948000D02*
X264516000Y-114948000D01*
X264516000Y-119774000D02*
X262484000Y-119774000D01*
X264516000Y-115202000D02*
X264516000Y-119774000D01*
X262230000Y-115202000D02*
X264516000Y-115202000D01*
X262746000Y-118249904D02*
X262698380Y-118345142D01*
X262698380Y-118488000D01*
X262746000Y-118630857D01*
X262841238Y-118726095D01*
X262936476Y-118773714D01*
X263126952Y-118821333D01*
X263269809Y-118821333D01*
X263460285Y-118773714D01*
X263555523Y-118726095D01*
X263650761Y-118630857D01*
X263698380Y-118488000D01*
X263698380Y-118392761D01*
X263650761Y-118249904D01*
X263603142Y-118202285D01*
X263269809Y-118202285D01*
X263269809Y-118392761D01*
X263698380Y-117773714D02*
X262698380Y-117773714D01*
X263698380Y-117202285D01*
X262698380Y-117202285D01*
X263698380Y-116726095D02*
X262698380Y-116726095D01*
X262698380Y-116488000D01*
X262746000Y-116345142D01*
X262841238Y-116249904D01*
X262936476Y-116202285D01*
X263126952Y-116154666D01*
X263269809Y-116154666D01*
X263460285Y-116202285D01*
X263555523Y-116249904D01*
X263650761Y-116345142D01*
X263698380Y-116488000D01*
X263698380Y-116726095D01*
X263317428Y-114408000D02*
X263317428Y-113646095D01*
X263698380Y-114027047D02*
X262936476Y-114027047D01*
X262698380Y-113265142D02*
X262698380Y-112646095D01*
X263079333Y-112979428D01*
X263079333Y-112836571D01*
X263126952Y-112741333D01*
X263174571Y-112693714D01*
X263269809Y-112646095D01*
X263507904Y-112646095D01*
X263603142Y-112693714D01*
X263650761Y-112741333D01*
X263698380Y-112836571D01*
X263698380Y-113122285D01*
X263650761Y-113217523D01*
X263603142Y-113265142D01*
X263603142Y-112217523D02*
X263650761Y-112169904D01*
X263698380Y-112217523D01*
X263650761Y-112265142D01*
X263603142Y-112217523D01*
X263698380Y-112217523D01*
X262698380Y-111836571D02*
X262698380Y-111217523D01*
X263079333Y-111550857D01*
X263079333Y-111408000D01*
X263126952Y-111312761D01*
X263174571Y-111265142D01*
X263269809Y-111217523D01*
X263507904Y-111217523D01*
X263603142Y-111265142D01*
X263650761Y-111312761D01*
X263698380Y-111408000D01*
X263698380Y-111693714D01*
X263650761Y-111788952D01*
X263603142Y-111836571D01*
X262698380Y-110931809D02*
X263698380Y-110598476D01*
X262698380Y-110265142D01*
X252133523Y-141070380D02*
X251657333Y-141070380D01*
X251609714Y-141546571D01*
X251657333Y-141498952D01*
X251752571Y-141451333D01*
X251990666Y-141451333D01*
X252085904Y-141498952D01*
X252133523Y-141546571D01*
X252181142Y-141641809D01*
X252181142Y-141879904D01*
X252133523Y-141975142D01*
X252085904Y-142022761D01*
X251990666Y-142070380D01*
X251752571Y-142070380D01*
X251657333Y-142022761D01*
X251609714Y-141975142D01*
X252466857Y-141070380D02*
X252800190Y-142070380D01*
X253133523Y-141070380D01*
D11*
X210961809Y-106764380D02*
X210961809Y-105764380D01*
X211390380Y-105859619D02*
X211438000Y-105812000D01*
X211533238Y-105764380D01*
X211771333Y-105764380D01*
X211866571Y-105812000D01*
X211914190Y-105859619D01*
X211961809Y-105954857D01*
X211961809Y-106050095D01*
X211914190Y-106192952D01*
X211342761Y-106764380D01*
X211961809Y-106764380D01*
X212961809Y-106669142D02*
X212914190Y-106716761D01*
X212771333Y-106764380D01*
X212676095Y-106764380D01*
X212533238Y-106716761D01*
X212438000Y-106621523D01*
X212390380Y-106526285D01*
X212342761Y-106335809D01*
X212342761Y-106192952D01*
X212390380Y-106002476D01*
X212438000Y-105907238D01*
X212533238Y-105812000D01*
X212676095Y-105764380D01*
X212771333Y-105764380D01*
X212914190Y-105812000D01*
X212961809Y-105859619D01*
D12*
X212684666Y-146896380D02*
X212875142Y-146896380D01*
X212970380Y-146848761D01*
X213018000Y-146801142D01*
X213113238Y-146658285D01*
X213160857Y-146467809D01*
X213160857Y-146086857D01*
X213113238Y-145991619D01*
X213065619Y-145944000D01*
X212970380Y-145896380D01*
X212779904Y-145896380D01*
X212684666Y-145944000D01*
X212637047Y-145991619D01*
X212589428Y-146086857D01*
X212589428Y-146324952D01*
X212637047Y-146420190D01*
X212684666Y-146467809D01*
X212779904Y-146515428D01*
X212970380Y-146515428D01*
X213065619Y-146467809D01*
X213113238Y-146420190D01*
X213160857Y-146324952D01*
X214351333Y-146515428D02*
X215113238Y-146515428D01*
X216303714Y-145991619D02*
X216351333Y-145944000D01*
X216446571Y-145896380D01*
X216684666Y-145896380D01*
X216779904Y-145944000D01*
X216827523Y-145991619D01*
X216875142Y-146086857D01*
X216875142Y-146182095D01*
X216827523Y-146324952D01*
X216256095Y-146896380D01*
X216875142Y-146896380D01*
X217732285Y-146229714D02*
X217732285Y-146896380D01*
X217494190Y-145848761D02*
X217256095Y-146563047D01*
X217875142Y-146563047D01*
X218875142Y-145896380D02*
X219208476Y-146896380D01*
X219541809Y-145896380D01*
X219875142Y-146896380D02*
X219875142Y-145896380D01*
X220113238Y-145896380D01*
X220256095Y-145944000D01*
X220351333Y-146039238D01*
X220398952Y-146134476D01*
X220446571Y-146324952D01*
X220446571Y-146467809D01*
X220398952Y-146658285D01*
X220351333Y-146753523D01*
X220256095Y-146848761D01*
X220113238Y-146896380D01*
X219875142Y-146896380D01*
X221446571Y-146801142D02*
X221398952Y-146848761D01*
X221256095Y-146896380D01*
X221160857Y-146896380D01*
X221018000Y-146848761D01*
X220922761Y-146753523D01*
X220875142Y-146658285D01*
X220827523Y-146467809D01*
X220827523Y-146324952D01*
X220875142Y-146134476D01*
X220922761Y-146039238D01*
X221018000Y-145944000D01*
X221160857Y-145896380D01*
X221256095Y-145896380D01*
X221398952Y-145944000D01*
X221446571Y-145991619D01*
D11*
X213822000Y-148547428D02*
X214622000Y-148547428D01*
X219922000Y-148547428D02*
X220722000Y-148547428D01*
X220322000Y-148928380D02*
X220322000Y-148166476D01*
D13*
X239338214Y-108126500D02*
X239376309Y-108155071D01*
X239414404Y-108240785D01*
X239414404Y-108297928D01*
X239376309Y-108383642D01*
X239300119Y-108440785D01*
X239223928Y-108469357D01*
X239071547Y-108497928D01*
X238957261Y-108497928D01*
X238804880Y-108469357D01*
X238728690Y-108440785D01*
X238652500Y-108383642D01*
X238614404Y-108297928D01*
X238614404Y-108240785D01*
X238652500Y-108155071D01*
X238690595Y-108126500D01*
X239376309Y-107897928D02*
X239414404Y-107812214D01*
X239414404Y-107669357D01*
X239376309Y-107612214D01*
X239338214Y-107583642D01*
X239262023Y-107555071D01*
X239185833Y-107555071D01*
X239109642Y-107583642D01*
X239071547Y-107612214D01*
X239033452Y-107669357D01*
X238995357Y-107783642D01*
X238957261Y-107840785D01*
X238919166Y-107869357D01*
X238842976Y-107897928D01*
X238766785Y-107897928D01*
X238690595Y-107869357D01*
X238652500Y-107840785D01*
X238614404Y-107783642D01*
X238614404Y-107640785D01*
X238652500Y-107555071D01*
X236709309Y-108543928D02*
X236747404Y-108458214D01*
X236747404Y-108315357D01*
X236709309Y-108258214D01*
X236671214Y-108229642D01*
X236595023Y-108201071D01*
X236518833Y-108201071D01*
X236442642Y-108229642D01*
X236404547Y-108258214D01*
X236366452Y-108315357D01*
X236328357Y-108429642D01*
X236290261Y-108486785D01*
X236252166Y-108515357D01*
X236175976Y-108543928D01*
X236099785Y-108543928D01*
X236023595Y-108515357D01*
X235985500Y-108486785D01*
X235947404Y-108429642D01*
X235947404Y-108286785D01*
X235985500Y-108201071D01*
X236671214Y-107601071D02*
X236709309Y-107629642D01*
X236747404Y-107715357D01*
X236747404Y-107772500D01*
X236709309Y-107858214D01*
X236633119Y-107915357D01*
X236556928Y-107943928D01*
X236404547Y-107972500D01*
X236290261Y-107972500D01*
X236137880Y-107943928D01*
X236061690Y-107915357D01*
X235985500Y-107858214D01*
X235947404Y-107772500D01*
X235947404Y-107715357D01*
X235985500Y-107629642D01*
X236023595Y-107601071D01*
X236747404Y-107343928D02*
X235947404Y-107343928D01*
X236747404Y-107001071D02*
X236290261Y-107258214D01*
X235947404Y-107001071D02*
X236404547Y-107343928D01*
X234207404Y-108524857D02*
X233407404Y-108524857D01*
X233978833Y-108324857D01*
X233407404Y-108124857D01*
X234207404Y-108124857D01*
X234207404Y-107839142D02*
X233407404Y-107839142D01*
X234169309Y-107582000D02*
X234207404Y-107496285D01*
X234207404Y-107353428D01*
X234169309Y-107296285D01*
X234131214Y-107267714D01*
X234055023Y-107239142D01*
X233978833Y-107239142D01*
X233902642Y-107267714D01*
X233864547Y-107296285D01*
X233826452Y-107353428D01*
X233788357Y-107467714D01*
X233750261Y-107524857D01*
X233712166Y-107553428D01*
X233635976Y-107582000D01*
X233559785Y-107582000D01*
X233483595Y-107553428D01*
X233445500Y-107524857D01*
X233407404Y-107467714D01*
X233407404Y-107324857D01*
X233445500Y-107239142D01*
X233407404Y-106867714D02*
X233407404Y-106753428D01*
X233445500Y-106696285D01*
X233521690Y-106639142D01*
X233674071Y-106610571D01*
X233940738Y-106610571D01*
X234093119Y-106639142D01*
X234169309Y-106696285D01*
X234207404Y-106753428D01*
X234207404Y-106867714D01*
X234169309Y-106924857D01*
X234093119Y-106982000D01*
X233940738Y-107010571D01*
X233674071Y-107010571D01*
X233521690Y-106982000D01*
X233445500Y-106924857D01*
X233407404Y-106867714D01*
X231794404Y-108524857D02*
X230994404Y-108524857D01*
X231565833Y-108324857D01*
X230994404Y-108124857D01*
X231794404Y-108124857D01*
X230994404Y-107724857D02*
X230994404Y-107610571D01*
X231032500Y-107553428D01*
X231108690Y-107496285D01*
X231261071Y-107467714D01*
X231527738Y-107467714D01*
X231680119Y-107496285D01*
X231756309Y-107553428D01*
X231794404Y-107610571D01*
X231794404Y-107724857D01*
X231756309Y-107782000D01*
X231680119Y-107839142D01*
X231527738Y-107867714D01*
X231261071Y-107867714D01*
X231108690Y-107839142D01*
X231032500Y-107782000D01*
X230994404Y-107724857D01*
X231756309Y-107239142D02*
X231794404Y-107153428D01*
X231794404Y-107010571D01*
X231756309Y-106953428D01*
X231718214Y-106924857D01*
X231642023Y-106896285D01*
X231565833Y-106896285D01*
X231489642Y-106924857D01*
X231451547Y-106953428D01*
X231413452Y-107010571D01*
X231375357Y-107124857D01*
X231337261Y-107182000D01*
X231299166Y-107210571D01*
X231222976Y-107239142D01*
X231146785Y-107239142D01*
X231070595Y-107210571D01*
X231032500Y-107182000D01*
X230994404Y-107124857D01*
X230994404Y-106982000D01*
X231032500Y-106896285D01*
X231794404Y-106639142D02*
X230994404Y-106639142D01*
D11*
X240815071Y-105319761D02*
X240957928Y-105367380D01*
X241196023Y-105367380D01*
X241291261Y-105319761D01*
X241338880Y-105272142D01*
X241386500Y-105176904D01*
X241386500Y-105081666D01*
X241338880Y-104986428D01*
X241291261Y-104938809D01*
X241196023Y-104891190D01*
X241005547Y-104843571D01*
X240910309Y-104795952D01*
X240862690Y-104748333D01*
X240815071Y-104653095D01*
X240815071Y-104557857D01*
X240862690Y-104462619D01*
X240910309Y-104415000D01*
X241005547Y-104367380D01*
X241243642Y-104367380D01*
X241386500Y-104415000D01*
X241815071Y-105367380D02*
X241815071Y-104367380D01*
X242196023Y-104367380D01*
X242291261Y-104415000D01*
X242338880Y-104462619D01*
X242386500Y-104557857D01*
X242386500Y-104700714D01*
X242338880Y-104795952D01*
X242291261Y-104843571D01*
X242196023Y-104891190D01*
X241815071Y-104891190D01*
X242815071Y-105367380D02*
X242815071Y-104367380D01*
X243481738Y-104367380D02*
X243576976Y-104367380D01*
X243672214Y-104415000D01*
X243719833Y-104462619D01*
X243767452Y-104557857D01*
X243815071Y-104748333D01*
X243815071Y-104986428D01*
X243767452Y-105176904D01*
X243719833Y-105272142D01*
X243672214Y-105319761D01*
X243576976Y-105367380D01*
X243481738Y-105367380D01*
X243386500Y-105319761D01*
X243338880Y-105272142D01*
X243291261Y-105176904D01*
X243243642Y-104986428D01*
X243243642Y-104748333D01*
X243291261Y-104557857D01*
X243338880Y-104462619D01*
X243386500Y-104415000D01*
X243481738Y-104367380D01*
X244243642Y-104986428D02*
X245005547Y-104986428D01*
X246053166Y-105272142D02*
X246005547Y-105319761D01*
X245862690Y-105367380D01*
X245767452Y-105367380D01*
X245624595Y-105319761D01*
X245529357Y-105224523D01*
X245481738Y-105129285D01*
X245434119Y-104938809D01*
X245434119Y-104795952D01*
X245481738Y-104605476D01*
X245529357Y-104510238D01*
X245624595Y-104415000D01*
X245767452Y-104367380D01*
X245862690Y-104367380D01*
X246005547Y-104415000D01*
X246053166Y-104462619D01*
X246434119Y-105319761D02*
X246576976Y-105367380D01*
X246815071Y-105367380D01*
X246910309Y-105319761D01*
X246957928Y-105272142D01*
X247005547Y-105176904D01*
X247005547Y-105081666D01*
X246957928Y-104986428D01*
X246910309Y-104938809D01*
X246815071Y-104891190D01*
X246624595Y-104843571D01*
X246529357Y-104795952D01*
X246481738Y-104748333D01*
X246434119Y-104653095D01*
X246434119Y-104557857D01*
X246481738Y-104462619D01*
X246529357Y-104415000D01*
X246624595Y-104367380D01*
X246862690Y-104367380D01*
X247005547Y-104415000D01*
X247957928Y-105367380D02*
X247386500Y-105367380D01*
X247672214Y-105367380D02*
X247672214Y-104367380D01*
X247576976Y-104510238D01*
X247481738Y-104605476D01*
X247386500Y-104653095D01*
X240751571Y-102208261D02*
X240894428Y-102255880D01*
X241132523Y-102255880D01*
X241227761Y-102208261D01*
X241275380Y-102160642D01*
X241323000Y-102065404D01*
X241323000Y-101970166D01*
X241275380Y-101874928D01*
X241227761Y-101827309D01*
X241132523Y-101779690D01*
X240942047Y-101732071D01*
X240846809Y-101684452D01*
X240799190Y-101636833D01*
X240751571Y-101541595D01*
X240751571Y-101446357D01*
X240799190Y-101351119D01*
X240846809Y-101303500D01*
X240942047Y-101255880D01*
X241180142Y-101255880D01*
X241323000Y-101303500D01*
X241751571Y-102255880D02*
X241751571Y-101255880D01*
X242132523Y-101255880D01*
X242227761Y-101303500D01*
X242275380Y-101351119D01*
X242323000Y-101446357D01*
X242323000Y-101589214D01*
X242275380Y-101684452D01*
X242227761Y-101732071D01*
X242132523Y-101779690D01*
X241751571Y-101779690D01*
X242751571Y-102255880D02*
X242751571Y-101255880D01*
X243418238Y-101255880D02*
X243513476Y-101255880D01*
X243608714Y-101303500D01*
X243656333Y-101351119D01*
X243703952Y-101446357D01*
X243751571Y-101636833D01*
X243751571Y-101874928D01*
X243703952Y-102065404D01*
X243656333Y-102160642D01*
X243608714Y-102208261D01*
X243513476Y-102255880D01*
X243418238Y-102255880D01*
X243323000Y-102208261D01*
X243275380Y-102160642D01*
X243227761Y-102065404D01*
X243180142Y-101874928D01*
X243180142Y-101636833D01*
X243227761Y-101446357D01*
X243275380Y-101351119D01*
X243323000Y-101303500D01*
X243418238Y-101255880D01*
X244180142Y-101874928D02*
X244942047Y-101874928D01*
X245989666Y-102160642D02*
X245942047Y-102208261D01*
X245799190Y-102255880D01*
X245703952Y-102255880D01*
X245561095Y-102208261D01*
X245465857Y-102113023D01*
X245418238Y-102017785D01*
X245370619Y-101827309D01*
X245370619Y-101684452D01*
X245418238Y-101493976D01*
X245465857Y-101398738D01*
X245561095Y-101303500D01*
X245703952Y-101255880D01*
X245799190Y-101255880D01*
X245942047Y-101303500D01*
X245989666Y-101351119D01*
X246370619Y-102208261D02*
X246513476Y-102255880D01*
X246751571Y-102255880D01*
X246846809Y-102208261D01*
X246894428Y-102160642D01*
X246942047Y-102065404D01*
X246942047Y-101970166D01*
X246894428Y-101874928D01*
X246846809Y-101827309D01*
X246751571Y-101779690D01*
X246561095Y-101732071D01*
X246465857Y-101684452D01*
X246418238Y-101636833D01*
X246370619Y-101541595D01*
X246370619Y-101446357D01*
X246418238Y-101351119D01*
X246465857Y-101303500D01*
X246561095Y-101255880D01*
X246799190Y-101255880D01*
X246942047Y-101303500D01*
X247561095Y-101255880D02*
X247656333Y-101255880D01*
X247751571Y-101303500D01*
X247799190Y-101351119D01*
X247846809Y-101446357D01*
X247894428Y-101636833D01*
X247894428Y-101874928D01*
X247846809Y-102065404D01*
X247799190Y-102160642D01*
X247751571Y-102208261D01*
X247656333Y-102255880D01*
X247561095Y-102255880D01*
X247465857Y-102208261D01*
X247418238Y-102160642D01*
X247370619Y-102065404D01*
X247323000Y-101874928D01*
X247323000Y-101636833D01*
X247370619Y-101446357D01*
X247418238Y-101351119D01*
X247465857Y-101303500D01*
X247561095Y-101255880D01*
D14*
G36*
X236679910Y-142924348D02*
G01*
X236758454Y-142924778D01*
X236815298Y-142925942D01*
X236854105Y-142928207D01*
X236878538Y-142931940D01*
X236892262Y-142937506D01*
X236898940Y-142945273D01*
X236902236Y-142955605D01*
X236902556Y-142956943D01*
X236907562Y-142981079D01*
X236916829Y-143028701D01*
X236929392Y-143094741D01*
X236944287Y-143174128D01*
X236960551Y-143261796D01*
X236961119Y-143264875D01*
X236977410Y-143350789D01*
X236992652Y-143426696D01*
X237005861Y-143488045D01*
X237016054Y-143530282D01*
X237022248Y-143548855D01*
X237022543Y-143549184D01*
X237040788Y-143558253D01*
X237078405Y-143573367D01*
X237127271Y-143591262D01*
X237127543Y-143591358D01*
X237189093Y-143614493D01*
X237261657Y-143643965D01*
X237330057Y-143673597D01*
X237333294Y-143675062D01*
X237444702Y-143725626D01*
X237691399Y-143557160D01*
X237767077Y-143505803D01*
X237835631Y-143459889D01*
X237893088Y-143422030D01*
X237935476Y-143394837D01*
X237958825Y-143380921D01*
X237961042Y-143379889D01*
X237978010Y-143384484D01*
X238009701Y-143406655D01*
X238057352Y-143447447D01*
X238122198Y-143507905D01*
X238188397Y-143572227D01*
X238252214Y-143635612D01*
X238309329Y-143693451D01*
X238356305Y-143742175D01*
X238389703Y-143778210D01*
X238406085Y-143797984D01*
X238406694Y-143799002D01*
X238408505Y-143812572D01*
X238401683Y-143834733D01*
X238384540Y-143868478D01*
X238355393Y-143916800D01*
X238312555Y-143982692D01*
X238255448Y-144067517D01*
X238204766Y-144142177D01*
X238159461Y-144209140D01*
X238122150Y-144264516D01*
X238095452Y-144304420D01*
X238081985Y-144324962D01*
X238081137Y-144326356D01*
X238082781Y-144346038D01*
X238095245Y-144384293D01*
X238116048Y-144433889D01*
X238123462Y-144449728D01*
X238155814Y-144520290D01*
X238190328Y-144600353D01*
X238218365Y-144669629D01*
X238238568Y-144721045D01*
X238254615Y-144760119D01*
X238263888Y-144780541D01*
X238265041Y-144782114D01*
X238282096Y-144784721D01*
X238322298Y-144791863D01*
X238380302Y-144802523D01*
X238450763Y-144815685D01*
X238528335Y-144830333D01*
X238607672Y-144845449D01*
X238683431Y-144860018D01*
X238750264Y-144873022D01*
X238802828Y-144883445D01*
X238835776Y-144890270D01*
X238843857Y-144892199D01*
X238852205Y-144896962D01*
X238858506Y-144907718D01*
X238863045Y-144928098D01*
X238866104Y-144961734D01*
X238867967Y-145012255D01*
X238868918Y-145083292D01*
X238869240Y-145178476D01*
X238869257Y-145217492D01*
X238869257Y-145534799D01*
X238793057Y-145549839D01*
X238750663Y-145557995D01*
X238687400Y-145569899D01*
X238610962Y-145584116D01*
X238529043Y-145599210D01*
X238506400Y-145603355D01*
X238430806Y-145618053D01*
X238364953Y-145632505D01*
X238314366Y-145645375D01*
X238284574Y-145655322D01*
X238279612Y-145658287D01*
X238267426Y-145679283D01*
X238249953Y-145719967D01*
X238230577Y-145772322D01*
X238226734Y-145783600D01*
X238201339Y-145853523D01*
X238169817Y-145932418D01*
X238138969Y-146003266D01*
X238138817Y-146003595D01*
X238087447Y-146114733D01*
X238256399Y-146363253D01*
X238425352Y-146611772D01*
X238208429Y-146829058D01*
X238142819Y-146893726D01*
X238082979Y-146950733D01*
X238032267Y-146997033D01*
X237994046Y-147029584D01*
X237971675Y-147045343D01*
X237968466Y-147046343D01*
X237949626Y-147038469D01*
X237911180Y-147016578D01*
X237857330Y-146983267D01*
X237792276Y-146941131D01*
X237721940Y-146893943D01*
X237650555Y-146845810D01*
X237586908Y-146803928D01*
X237535041Y-146770871D01*
X237498995Y-146749218D01*
X237482867Y-146741543D01*
X237463189Y-146748037D01*
X237425875Y-146765150D01*
X237378621Y-146789326D01*
X237373612Y-146792013D01*
X237309977Y-146823927D01*
X237266341Y-146839579D01*
X237239202Y-146839745D01*
X237225057Y-146825204D01*
X237224975Y-146825000D01*
X237217905Y-146807779D01*
X237201042Y-146766899D01*
X237175695Y-146705525D01*
X237143171Y-146626819D01*
X237104778Y-146533947D01*
X237061822Y-146430072D01*
X237020222Y-146329502D01*
X236974504Y-146218516D01*
X236932526Y-146115703D01*
X236895548Y-146024215D01*
X236864827Y-145947201D01*
X236841622Y-145887815D01*
X236827190Y-145849209D01*
X236822743Y-145834800D01*
X236833896Y-145818272D01*
X236863069Y-145791930D01*
X236901971Y-145762887D01*
X237012757Y-145671039D01*
X237099351Y-145565759D01*
X237160716Y-145449266D01*
X237195815Y-145323776D01*
X237203608Y-145191507D01*
X237197943Y-145130457D01*
X237167078Y-145003795D01*
X237113920Y-144891941D01*
X237041767Y-144796001D01*
X236953917Y-144717076D01*
X236853665Y-144656270D01*
X236744310Y-144614687D01*
X236629147Y-144593428D01*
X236511475Y-144593599D01*
X236394590Y-144616301D01*
X236281789Y-144662638D01*
X236176369Y-144733713D01*
X236132368Y-144773911D01*
X236047979Y-144877129D01*
X235989222Y-144989925D01*
X235955704Y-145109010D01*
X235947035Y-145231095D01*
X235962823Y-145352893D01*
X236002678Y-145471116D01*
X236066207Y-145582475D01*
X236153021Y-145683684D01*
X236250029Y-145762887D01*
X236290437Y-145793162D01*
X236318982Y-145819219D01*
X236329257Y-145834825D01*
X236323877Y-145851843D01*
X236308575Y-145892500D01*
X236284612Y-145953642D01*
X236253244Y-146032119D01*
X236215732Y-146124780D01*
X236173333Y-146228472D01*
X236131663Y-146329526D01*
X236085690Y-146440607D01*
X236043107Y-146543541D01*
X236005221Y-146635165D01*
X235973340Y-146712316D01*
X235948771Y-146771831D01*
X235932820Y-146810544D01*
X235926910Y-146825000D01*
X235912948Y-146839685D01*
X235885940Y-146839642D01*
X235842413Y-146824099D01*
X235778890Y-146792284D01*
X235778388Y-146792013D01*
X235730560Y-146767323D01*
X235691897Y-146749338D01*
X235670095Y-146741614D01*
X235669133Y-146741543D01*
X235652721Y-146749378D01*
X235616487Y-146771165D01*
X235564474Y-146804328D01*
X235500725Y-146846291D01*
X235430060Y-146893943D01*
X235358116Y-146942191D01*
X235293274Y-146984151D01*
X235239735Y-147017227D01*
X235201697Y-147038821D01*
X235183533Y-147046343D01*
X235166808Y-147036457D01*
X235133180Y-147008826D01*
X235086010Y-146966495D01*
X235028658Y-146912505D01*
X234964484Y-146849899D01*
X234943497Y-146828983D01*
X234726499Y-146611623D01*
X234891668Y-146369220D01*
X234941864Y-146294781D01*
X234985919Y-146227972D01*
X235021362Y-146172665D01*
X235045719Y-146132729D01*
X235056522Y-146112036D01*
X235056838Y-146110563D01*
X235051143Y-146091058D01*
X235035826Y-146051822D01*
X235013537Y-145999430D01*
X234997893Y-145964355D01*
X234968641Y-145897201D01*
X234941094Y-145829358D01*
X234919737Y-145772034D01*
X234913935Y-145754572D01*
X234897452Y-145707938D01*
X234881340Y-145671905D01*
X234872490Y-145658287D01*
X234852960Y-145649952D01*
X234810334Y-145638137D01*
X234750145Y-145624181D01*
X234677922Y-145609422D01*
X234645600Y-145603355D01*
X234563522Y-145588273D01*
X234484795Y-145573669D01*
X234417109Y-145560980D01*
X234368160Y-145551642D01*
X234358943Y-145549839D01*
X234282743Y-145534799D01*
X234282743Y-145217492D01*
X234282914Y-145113154D01*
X234283616Y-145034213D01*
X234285134Y-144977038D01*
X234287749Y-144937999D01*
X234291746Y-144913465D01*
X234297409Y-144899805D01*
X234305020Y-144893389D01*
X234308143Y-144892199D01*
X234326978Y-144887980D01*
X234368588Y-144879562D01*
X234427630Y-144867961D01*
X234498757Y-144854195D01*
X234576625Y-144839280D01*
X234655887Y-144824232D01*
X234731198Y-144810069D01*
X234797213Y-144797806D01*
X234848587Y-144788461D01*
X234879975Y-144783050D01*
X234886959Y-144782114D01*
X234893285Y-144769596D01*
X234907290Y-144736246D01*
X234926355Y-144688377D01*
X234933634Y-144669629D01*
X234962996Y-144597195D01*
X234997571Y-144517170D01*
X235028537Y-144449728D01*
X235051323Y-144398159D01*
X235066482Y-144355785D01*
X235071542Y-144329834D01*
X235070736Y-144326356D01*
X235060041Y-144309936D01*
X235035620Y-144273417D01*
X235000095Y-144220687D01*
X234956087Y-144155635D01*
X234906217Y-144082151D01*
X234896356Y-144067645D01*
X234838492Y-143981704D01*
X234795956Y-143916261D01*
X234767054Y-143868304D01*
X234750090Y-143834820D01*
X234743367Y-143812795D01*
X234745190Y-143799217D01*
X234745236Y-143799131D01*
X234759586Y-143781297D01*
X234791323Y-143746817D01*
X234837010Y-143699268D01*
X234893204Y-143642222D01*
X234956468Y-143579255D01*
X234963602Y-143572227D01*
X235043330Y-143495020D01*
X235104857Y-143438330D01*
X235149421Y-143401110D01*
X235178257Y-143382315D01*
X235190958Y-143379889D01*
X235209494Y-143390471D01*
X235247961Y-143414916D01*
X235302386Y-143450612D01*
X235368798Y-143494947D01*
X235443225Y-143545311D01*
X235460601Y-143557160D01*
X235707297Y-143725626D01*
X235818706Y-143675062D01*
X235886457Y-143645595D01*
X235959183Y-143615959D01*
X236021703Y-143592330D01*
X236024457Y-143591358D01*
X236073360Y-143573457D01*
X236111057Y-143558320D01*
X236129425Y-143549210D01*
X236129456Y-143549184D01*
X236135285Y-143532717D01*
X236145192Y-143492219D01*
X236158195Y-143432242D01*
X236173309Y-143357340D01*
X236189552Y-143272064D01*
X236190881Y-143264875D01*
X236207175Y-143177014D01*
X236222133Y-143097260D01*
X236234791Y-143030681D01*
X236244186Y-142982347D01*
X236249354Y-142957325D01*
X236249444Y-142956943D01*
X236252589Y-142946299D01*
X236258704Y-142938262D01*
X236271453Y-142932467D01*
X236294500Y-142928547D01*
X236331509Y-142926135D01*
X236386144Y-142924865D01*
X236462067Y-142924371D01*
X236562944Y-142924286D01*
X236576000Y-142924286D01*
X236679910Y-142924348D01*
G37*
X236679910Y-142924348D02*
X236758454Y-142924778D01*
X236815298Y-142925942D01*
X236854105Y-142928207D01*
X236878538Y-142931940D01*
X236892262Y-142937506D01*
X236898940Y-142945273D01*
X236902236Y-142955605D01*
X236902556Y-142956943D01*
X236907562Y-142981079D01*
X236916829Y-143028701D01*
X236929392Y-143094741D01*
X236944287Y-143174128D01*
X236960551Y-143261796D01*
X236961119Y-143264875D01*
X236977410Y-143350789D01*
X236992652Y-143426696D01*
X237005861Y-143488045D01*
X237016054Y-143530282D01*
X237022248Y-143548855D01*
X237022543Y-143549184D01*
X237040788Y-143558253D01*
X237078405Y-143573367D01*
X237127271Y-143591262D01*
X237127543Y-143591358D01*
X237189093Y-143614493D01*
X237261657Y-143643965D01*
X237330057Y-143673597D01*
X237333294Y-143675062D01*
X237444702Y-143725626D01*
X237691399Y-143557160D01*
X237767077Y-143505803D01*
X237835631Y-143459889D01*
X237893088Y-143422030D01*
X237935476Y-143394837D01*
X237958825Y-143380921D01*
X237961042Y-143379889D01*
X237978010Y-143384484D01*
X238009701Y-143406655D01*
X238057352Y-143447447D01*
X238122198Y-143507905D01*
X238188397Y-143572227D01*
X238252214Y-143635612D01*
X238309329Y-143693451D01*
X238356305Y-143742175D01*
X238389703Y-143778210D01*
X238406085Y-143797984D01*
X238406694Y-143799002D01*
X238408505Y-143812572D01*
X238401683Y-143834733D01*
X238384540Y-143868478D01*
X238355393Y-143916800D01*
X238312555Y-143982692D01*
X238255448Y-144067517D01*
X238204766Y-144142177D01*
X238159461Y-144209140D01*
X238122150Y-144264516D01*
X238095452Y-144304420D01*
X238081985Y-144324962D01*
X238081137Y-144326356D01*
X238082781Y-144346038D01*
X238095245Y-144384293D01*
X238116048Y-144433889D01*
X238123462Y-144449728D01*
X238155814Y-144520290D01*
X238190328Y-144600353D01*
X238218365Y-144669629D01*
X238238568Y-144721045D01*
X238254615Y-144760119D01*
X238263888Y-144780541D01*
X238265041Y-144782114D01*
X238282096Y-144784721D01*
X238322298Y-144791863D01*
X238380302Y-144802523D01*
X238450763Y-144815685D01*
X238528335Y-144830333D01*
X238607672Y-144845449D01*
X238683431Y-144860018D01*
X238750264Y-144873022D01*
X238802828Y-144883445D01*
X238835776Y-144890270D01*
X238843857Y-144892199D01*
X238852205Y-144896962D01*
X238858506Y-144907718D01*
X238863045Y-144928098D01*
X238866104Y-144961734D01*
X238867967Y-145012255D01*
X238868918Y-145083292D01*
X238869240Y-145178476D01*
X238869257Y-145217492D01*
X238869257Y-145534799D01*
X238793057Y-145549839D01*
X238750663Y-145557995D01*
X238687400Y-145569899D01*
X238610962Y-145584116D01*
X238529043Y-145599210D01*
X238506400Y-145603355D01*
X238430806Y-145618053D01*
X238364953Y-145632505D01*
X238314366Y-145645375D01*
X238284574Y-145655322D01*
X238279612Y-145658287D01*
X238267426Y-145679283D01*
X238249953Y-145719967D01*
X238230577Y-145772322D01*
X238226734Y-145783600D01*
X238201339Y-145853523D01*
X238169817Y-145932418D01*
X238138969Y-146003266D01*
X238138817Y-146003595D01*
X238087447Y-146114733D01*
X238256399Y-146363253D01*
X238425352Y-146611772D01*
X238208429Y-146829058D01*
X238142819Y-146893726D01*
X238082979Y-146950733D01*
X238032267Y-146997033D01*
X237994046Y-147029584D01*
X237971675Y-147045343D01*
X237968466Y-147046343D01*
X237949626Y-147038469D01*
X237911180Y-147016578D01*
X237857330Y-146983267D01*
X237792276Y-146941131D01*
X237721940Y-146893943D01*
X237650555Y-146845810D01*
X237586908Y-146803928D01*
X237535041Y-146770871D01*
X237498995Y-146749218D01*
X237482867Y-146741543D01*
X237463189Y-146748037D01*
X237425875Y-146765150D01*
X237378621Y-146789326D01*
X237373612Y-146792013D01*
X237309977Y-146823927D01*
X237266341Y-146839579D01*
X237239202Y-146839745D01*
X237225057Y-146825204D01*
X237224975Y-146825000D01*
X237217905Y-146807779D01*
X237201042Y-146766899D01*
X237175695Y-146705525D01*
X237143171Y-146626819D01*
X237104778Y-146533947D01*
X237061822Y-146430072D01*
X237020222Y-146329502D01*
X236974504Y-146218516D01*
X236932526Y-146115703D01*
X236895548Y-146024215D01*
X236864827Y-145947201D01*
X236841622Y-145887815D01*
X236827190Y-145849209D01*
X236822743Y-145834800D01*
X236833896Y-145818272D01*
X236863069Y-145791930D01*
X236901971Y-145762887D01*
X237012757Y-145671039D01*
X237099351Y-145565759D01*
X237160716Y-145449266D01*
X237195815Y-145323776D01*
X237203608Y-145191507D01*
X237197943Y-145130457D01*
X237167078Y-145003795D01*
X237113920Y-144891941D01*
X237041767Y-144796001D01*
X236953917Y-144717076D01*
X236853665Y-144656270D01*
X236744310Y-144614687D01*
X236629147Y-144593428D01*
X236511475Y-144593599D01*
X236394590Y-144616301D01*
X236281789Y-144662638D01*
X236176369Y-144733713D01*
X236132368Y-144773911D01*
X236047979Y-144877129D01*
X235989222Y-144989925D01*
X235955704Y-145109010D01*
X235947035Y-145231095D01*
X235962823Y-145352893D01*
X236002678Y-145471116D01*
X236066207Y-145582475D01*
X236153021Y-145683684D01*
X236250029Y-145762887D01*
X236290437Y-145793162D01*
X236318982Y-145819219D01*
X236329257Y-145834825D01*
X236323877Y-145851843D01*
X236308575Y-145892500D01*
X236284612Y-145953642D01*
X236253244Y-146032119D01*
X236215732Y-146124780D01*
X236173333Y-146228472D01*
X236131663Y-146329526D01*
X236085690Y-146440607D01*
X236043107Y-146543541D01*
X236005221Y-146635165D01*
X235973340Y-146712316D01*
X235948771Y-146771831D01*
X235932820Y-146810544D01*
X235926910Y-146825000D01*
X235912948Y-146839685D01*
X235885940Y-146839642D01*
X235842413Y-146824099D01*
X235778890Y-146792284D01*
X235778388Y-146792013D01*
X235730560Y-146767323D01*
X235691897Y-146749338D01*
X235670095Y-146741614D01*
X235669133Y-146741543D01*
X235652721Y-146749378D01*
X235616487Y-146771165D01*
X235564474Y-146804328D01*
X235500725Y-146846291D01*
X235430060Y-146893943D01*
X235358116Y-146942191D01*
X235293274Y-146984151D01*
X235239735Y-147017227D01*
X235201697Y-147038821D01*
X235183533Y-147046343D01*
X235166808Y-147036457D01*
X235133180Y-147008826D01*
X235086010Y-146966495D01*
X235028658Y-146912505D01*
X234964484Y-146849899D01*
X234943497Y-146828983D01*
X234726499Y-146611623D01*
X234891668Y-146369220D01*
X234941864Y-146294781D01*
X234985919Y-146227972D01*
X235021362Y-146172665D01*
X235045719Y-146132729D01*
X235056522Y-146112036D01*
X235056838Y-146110563D01*
X235051143Y-146091058D01*
X235035826Y-146051822D01*
X235013537Y-145999430D01*
X234997893Y-145964355D01*
X234968641Y-145897201D01*
X234941094Y-145829358D01*
X234919737Y-145772034D01*
X234913935Y-145754572D01*
X234897452Y-145707938D01*
X234881340Y-145671905D01*
X234872490Y-145658287D01*
X234852960Y-145649952D01*
X234810334Y-145638137D01*
X234750145Y-145624181D01*
X234677922Y-145609422D01*
X234645600Y-145603355D01*
X234563522Y-145588273D01*
X234484795Y-145573669D01*
X234417109Y-145560980D01*
X234368160Y-145551642D01*
X234358943Y-145549839D01*
X234282743Y-145534799D01*
X234282743Y-145217492D01*
X234282914Y-145113154D01*
X234283616Y-145034213D01*
X234285134Y-144977038D01*
X234287749Y-144937999D01*
X234291746Y-144913465D01*
X234297409Y-144899805D01*
X234305020Y-144893389D01*
X234308143Y-144892199D01*
X234326978Y-144887980D01*
X234368588Y-144879562D01*
X234427630Y-144867961D01*
X234498757Y-144854195D01*
X234576625Y-144839280D01*
X234655887Y-144824232D01*
X234731198Y-144810069D01*
X234797213Y-144797806D01*
X234848587Y-144788461D01*
X234879975Y-144783050D01*
X234886959Y-144782114D01*
X234893285Y-144769596D01*
X234907290Y-144736246D01*
X234926355Y-144688377D01*
X234933634Y-144669629D01*
X234962996Y-144597195D01*
X234997571Y-144517170D01*
X235028537Y-144449728D01*
X235051323Y-144398159D01*
X235066482Y-144355785D01*
X235071542Y-144329834D01*
X235070736Y-144326356D01*
X235060041Y-144309936D01*
X235035620Y-144273417D01*
X235000095Y-144220687D01*
X234956087Y-144155635D01*
X234906217Y-144082151D01*
X234896356Y-144067645D01*
X234838492Y-143981704D01*
X234795956Y-143916261D01*
X234767054Y-143868304D01*
X234750090Y-143834820D01*
X234743367Y-143812795D01*
X234745190Y-143799217D01*
X234745236Y-143799131D01*
X234759586Y-143781297D01*
X234791323Y-143746817D01*
X234837010Y-143699268D01*
X234893204Y-143642222D01*
X234956468Y-143579255D01*
X234963602Y-143572227D01*
X235043330Y-143495020D01*
X235104857Y-143438330D01*
X235149421Y-143401110D01*
X235178257Y-143382315D01*
X235190958Y-143379889D01*
X235209494Y-143390471D01*
X235247961Y-143414916D01*
X235302386Y-143450612D01*
X235368798Y-143494947D01*
X235443225Y-143545311D01*
X235460601Y-143557160D01*
X235707297Y-143725626D01*
X235818706Y-143675062D01*
X235886457Y-143645595D01*
X235959183Y-143615959D01*
X236021703Y-143592330D01*
X236024457Y-143591358D01*
X236073360Y-143573457D01*
X236111057Y-143558320D01*
X236129425Y-143549210D01*
X236129456Y-143549184D01*
X236135285Y-143532717D01*
X236145192Y-143492219D01*
X236158195Y-143432242D01*
X236173309Y-143357340D01*
X236189552Y-143272064D01*
X236190881Y-143264875D01*
X236207175Y-143177014D01*
X236222133Y-143097260D01*
X236234791Y-143030681D01*
X236244186Y-142982347D01*
X236249354Y-142957325D01*
X236249444Y-142956943D01*
X236252589Y-142946299D01*
X236258704Y-142938262D01*
X236271453Y-142932467D01*
X236294500Y-142928547D01*
X236331509Y-142926135D01*
X236386144Y-142924865D01*
X236462067Y-142924371D01*
X236562944Y-142924286D01*
X236576000Y-142924286D01*
X236679910Y-142924348D01*
G36*
X239729595Y-147648966D02*
G01*
X239787021Y-147686497D01*
X239814719Y-147720096D01*
X239836662Y-147781064D01*
X239838405Y-147829308D01*
X239834457Y-147893816D01*
X239685686Y-147958934D01*
X239613349Y-147992202D01*
X239566084Y-148018964D01*
X239541507Y-148042144D01*
X239537237Y-148064667D01*
X239550889Y-148089455D01*
X239565943Y-148105886D01*
X239609746Y-148132235D01*
X239657389Y-148134081D01*
X239701145Y-148113546D01*
X239733289Y-148072752D01*
X239739038Y-148058347D01*
X239766576Y-148013356D01*
X239798258Y-147994182D01*
X239841714Y-147977779D01*
X239841714Y-148039966D01*
X239837872Y-148082283D01*
X239822823Y-148117969D01*
X239791280Y-148158943D01*
X239786592Y-148164267D01*
X239751506Y-148200720D01*
X239721347Y-148220283D01*
X239683615Y-148229283D01*
X239652335Y-148232230D01*
X239596385Y-148232965D01*
X239556555Y-148223660D01*
X239531708Y-148209846D01*
X239492656Y-148179467D01*
X239465625Y-148146613D01*
X239448517Y-148105294D01*
X239439238Y-148049521D01*
X239435693Y-147973305D01*
X239435410Y-147934622D01*
X239436372Y-147888247D01*
X239524007Y-147888247D01*
X239525023Y-147913126D01*
X239527556Y-147917200D01*
X239544274Y-147911665D01*
X239580249Y-147897017D01*
X239628331Y-147876190D01*
X239638386Y-147871714D01*
X239699152Y-147840814D01*
X239732632Y-147813657D01*
X239739990Y-147788220D01*
X239722391Y-147762481D01*
X239707856Y-147751109D01*
X239655410Y-147728364D01*
X239606322Y-147732122D01*
X239565227Y-147759884D01*
X239536758Y-147809152D01*
X239527631Y-147848257D01*
X239524007Y-147888247D01*
X239436372Y-147888247D01*
X239437285Y-147844249D01*
X239444196Y-147777384D01*
X239457884Y-147728695D01*
X239480096Y-147692849D01*
X239512574Y-147664513D01*
X239526733Y-147655355D01*
X239591053Y-147631507D01*
X239661473Y-147630006D01*
X239729595Y-147648966D01*
G37*
X239729595Y-147648966D02*
X239787021Y-147686497D01*
X239814719Y-147720096D01*
X239836662Y-147781064D01*
X239838405Y-147829308D01*
X239834457Y-147893816D01*
X239685686Y-147958934D01*
X239613349Y-147992202D01*
X239566084Y-148018964D01*
X239541507Y-148042144D01*
X239537237Y-148064667D01*
X239550889Y-148089455D01*
X239565943Y-148105886D01*
X239609746Y-148132235D01*
X239657389Y-148134081D01*
X239701145Y-148113546D01*
X239733289Y-148072752D01*
X239739038Y-148058347D01*
X239766576Y-148013356D01*
X239798258Y-147994182D01*
X239841714Y-147977779D01*
X239841714Y-148039966D01*
X239837872Y-148082283D01*
X239822823Y-148117969D01*
X239791280Y-148158943D01*
X239786592Y-148164267D01*
X239751506Y-148200720D01*
X239721347Y-148220283D01*
X239683615Y-148229283D01*
X239652335Y-148232230D01*
X239596385Y-148232965D01*
X239556555Y-148223660D01*
X239531708Y-148209846D01*
X239492656Y-148179467D01*
X239465625Y-148146613D01*
X239448517Y-148105294D01*
X239439238Y-148049521D01*
X239435693Y-147973305D01*
X239435410Y-147934622D01*
X239436372Y-147888247D01*
X239524007Y-147888247D01*
X239525023Y-147913126D01*
X239527556Y-147917200D01*
X239544274Y-147911665D01*
X239580249Y-147897017D01*
X239628331Y-147876190D01*
X239638386Y-147871714D01*
X239699152Y-147840814D01*
X239732632Y-147813657D01*
X239739990Y-147788220D01*
X239722391Y-147762481D01*
X239707856Y-147751109D01*
X239655410Y-147728364D01*
X239606322Y-147732122D01*
X239565227Y-147759884D01*
X239536758Y-147809152D01*
X239527631Y-147848257D01*
X239524007Y-147888247D01*
X239436372Y-147888247D01*
X239437285Y-147844249D01*
X239444196Y-147777384D01*
X239457884Y-147728695D01*
X239480096Y-147692849D01*
X239512574Y-147664513D01*
X239526733Y-147655355D01*
X239591053Y-147631507D01*
X239661473Y-147630006D01*
X239729595Y-147648966D01*
G36*
X239228600Y-147640752D02*
G01*
X239245948Y-147648334D01*
X239287356Y-147681128D01*
X239322765Y-147728547D01*
X239344664Y-147779151D01*
X239348229Y-147804098D01*
X239336279Y-147838927D01*
X239310067Y-147857357D01*
X239281964Y-147868516D01*
X239269095Y-147870572D01*
X239262829Y-147855649D01*
X239250456Y-147823175D01*
X239245028Y-147808502D01*
X239214590Y-147757744D01*
X239170520Y-147732427D01*
X239114010Y-147733206D01*
X239109825Y-147734203D01*
X239079655Y-147748507D01*
X239057476Y-147776393D01*
X239042327Y-147821287D01*
X239033250Y-147886615D01*
X239029286Y-147975804D01*
X239028914Y-148023261D01*
X239028730Y-148098071D01*
X239027522Y-148149069D01*
X239024309Y-148181471D01*
X239018109Y-148200495D01*
X239007940Y-148211356D01*
X238992819Y-148219272D01*
X238991946Y-148219670D01*
X238962828Y-148231981D01*
X238948403Y-148236514D01*
X238946186Y-148222809D01*
X238944289Y-148184925D01*
X238942847Y-148127715D01*
X238941998Y-148056027D01*
X238941829Y-148003565D01*
X238942692Y-147902047D01*
X238946070Y-147825032D01*
X238953142Y-147768023D01*
X238965088Y-147726526D01*
X238983090Y-147696043D01*
X239008327Y-147672080D01*
X239033247Y-147655355D01*
X239093171Y-147633097D01*
X239162911Y-147628076D01*
X239228600Y-147640752D01*
G37*
X239228600Y-147640752D02*
X239245948Y-147648334D01*
X239287356Y-147681128D01*
X239322765Y-147728547D01*
X239344664Y-147779151D01*
X239348229Y-147804098D01*
X239336279Y-147838927D01*
X239310067Y-147857357D01*
X239281964Y-147868516D01*
X239269095Y-147870572D01*
X239262829Y-147855649D01*
X239250456Y-147823175D01*
X239245028Y-147808502D01*
X239214590Y-147757744D01*
X239170520Y-147732427D01*
X239114010Y-147733206D01*
X239109825Y-147734203D01*
X239079655Y-147748507D01*
X239057476Y-147776393D01*
X239042327Y-147821287D01*
X239033250Y-147886615D01*
X239029286Y-147975804D01*
X239028914Y-148023261D01*
X239028730Y-148098071D01*
X239027522Y-148149069D01*
X239024309Y-148181471D01*
X239018109Y-148200495D01*
X239007940Y-148211356D01*
X238992819Y-148219272D01*
X238991946Y-148219670D01*
X238962828Y-148231981D01*
X238948403Y-148236514D01*
X238946186Y-148222809D01*
X238944289Y-148184925D01*
X238942847Y-148127715D01*
X238941998Y-148056027D01*
X238941829Y-148003565D01*
X238942692Y-147902047D01*
X238946070Y-147825032D01*
X238953142Y-147768023D01*
X238965088Y-147726526D01*
X238983090Y-147696043D01*
X239008327Y-147672080D01*
X239033247Y-147655355D01*
X239093171Y-147633097D01*
X239162911Y-147628076D01*
X239228600Y-147640752D01*
G36*
X238720876Y-147638335D02*
G01*
X238762667Y-147657344D01*
X238795469Y-147680378D01*
X238819503Y-147706133D01*
X238836097Y-147739358D01*
X238846577Y-147784800D01*
X238852271Y-147847207D01*
X238854507Y-147931327D01*
X238854743Y-147986721D01*
X238854743Y-148202826D01*
X238817774Y-148219670D01*
X238788656Y-148231981D01*
X238774231Y-148236514D01*
X238771472Y-148223025D01*
X238769282Y-148186653D01*
X238767942Y-148133542D01*
X238767657Y-148091372D01*
X238766434Y-148030447D01*
X238763136Y-147982115D01*
X238758321Y-147952518D01*
X238754496Y-147946229D01*
X238728783Y-147952652D01*
X238688418Y-147969125D01*
X238641679Y-147991458D01*
X238596845Y-148015457D01*
X238562193Y-148036930D01*
X238546002Y-148051685D01*
X238545938Y-148051845D01*
X238547330Y-148079152D01*
X238559818Y-148105219D01*
X238581743Y-148126392D01*
X238613743Y-148133474D01*
X238641092Y-148132649D01*
X238679826Y-148132042D01*
X238700158Y-148141116D01*
X238712369Y-148165092D01*
X238713909Y-148169613D01*
X238719203Y-148203806D01*
X238705047Y-148224568D01*
X238668148Y-148234462D01*
X238628289Y-148236292D01*
X238556562Y-148222727D01*
X238519432Y-148203355D01*
X238473576Y-148157845D01*
X238449256Y-148101983D01*
X238447073Y-148042957D01*
X238467629Y-147987953D01*
X238498549Y-147953486D01*
X238529420Y-147934189D01*
X238577942Y-147909759D01*
X238634485Y-147884985D01*
X238643910Y-147881199D01*
X238706019Y-147853791D01*
X238741822Y-147829634D01*
X238753337Y-147805619D01*
X238742580Y-147778635D01*
X238724114Y-147757543D01*
X238680469Y-147731572D01*
X238632446Y-147729624D01*
X238588406Y-147749637D01*
X238556709Y-147789551D01*
X238552549Y-147799848D01*
X238528327Y-147837724D01*
X238492965Y-147865842D01*
X238448343Y-147888917D01*
X238448343Y-147823485D01*
X238450969Y-147783506D01*
X238462230Y-147751997D01*
X238487199Y-147718378D01*
X238511169Y-147692484D01*
X238548441Y-147655817D01*
X238577401Y-147636121D01*
X238608505Y-147628220D01*
X238643713Y-147626914D01*
X238720876Y-147638335D01*
G37*
X238720876Y-147638335D02*
X238762667Y-147657344D01*
X238795469Y-147680378D01*
X238819503Y-147706133D01*
X238836097Y-147739358D01*
X238846577Y-147784800D01*
X238852271Y-147847207D01*
X238854507Y-147931327D01*
X238854743Y-147986721D01*
X238854743Y-148202826D01*
X238817774Y-148219670D01*
X238788656Y-148231981D01*
X238774231Y-148236514D01*
X238771472Y-148223025D01*
X238769282Y-148186653D01*
X238767942Y-148133542D01*
X238767657Y-148091372D01*
X238766434Y-148030447D01*
X238763136Y-147982115D01*
X238758321Y-147952518D01*
X238754496Y-147946229D01*
X238728783Y-147952652D01*
X238688418Y-147969125D01*
X238641679Y-147991458D01*
X238596845Y-148015457D01*
X238562193Y-148036930D01*
X238546002Y-148051685D01*
X238545938Y-148051845D01*
X238547330Y-148079152D01*
X238559818Y-148105219D01*
X238581743Y-148126392D01*
X238613743Y-148133474D01*
X238641092Y-148132649D01*
X238679826Y-148132042D01*
X238700158Y-148141116D01*
X238712369Y-148165092D01*
X238713909Y-148169613D01*
X238719203Y-148203806D01*
X238705047Y-148224568D01*
X238668148Y-148234462D01*
X238628289Y-148236292D01*
X238556562Y-148222727D01*
X238519432Y-148203355D01*
X238473576Y-148157845D01*
X238449256Y-148101983D01*
X238447073Y-148042957D01*
X238467629Y-147987953D01*
X238498549Y-147953486D01*
X238529420Y-147934189D01*
X238577942Y-147909759D01*
X238634485Y-147884985D01*
X238643910Y-147881199D01*
X238706019Y-147853791D01*
X238741822Y-147829634D01*
X238753337Y-147805619D01*
X238742580Y-147778635D01*
X238724114Y-147757543D01*
X238680469Y-147731572D01*
X238632446Y-147729624D01*
X238588406Y-147749637D01*
X238556709Y-147789551D01*
X238552549Y-147799848D01*
X238528327Y-147837724D01*
X238492965Y-147865842D01*
X238448343Y-147888917D01*
X238448343Y-147823485D01*
X238450969Y-147783506D01*
X238462230Y-147751997D01*
X238487199Y-147718378D01*
X238511169Y-147692484D01*
X238548441Y-147655817D01*
X238577401Y-147636121D01*
X238608505Y-147628220D01*
X238643713Y-147626914D01*
X238720876Y-147638335D01*
G36*
X238355833Y-147640663D02*
G01*
X238358048Y-147678850D01*
X238359784Y-147736886D01*
X238360899Y-147810180D01*
X238361257Y-147887055D01*
X238361257Y-148147196D01*
X238315326Y-148193127D01*
X238283675Y-148221429D01*
X238255890Y-148232893D01*
X238217915Y-148232168D01*
X238202840Y-148230321D01*
X238155726Y-148224948D01*
X238116756Y-148221869D01*
X238107257Y-148221585D01*
X238075233Y-148223445D01*
X238029432Y-148228114D01*
X238011674Y-148230321D01*
X237968057Y-148233735D01*
X237938745Y-148226320D01*
X237909680Y-148203427D01*
X237899188Y-148193127D01*
X237853257Y-148147196D01*
X237853257Y-147660602D01*
X237890226Y-147643758D01*
X237922059Y-147631282D01*
X237940683Y-147626914D01*
X237945458Y-147640718D01*
X237949921Y-147679286D01*
X237953775Y-147738356D01*
X237956722Y-147813663D01*
X237958143Y-147877286D01*
X237962114Y-148127657D01*
X237996759Y-148132556D01*
X238028268Y-148129131D01*
X238043708Y-148118041D01*
X238048023Y-148097308D01*
X238051708Y-148053145D01*
X238054469Y-147991146D01*
X238056012Y-147916909D01*
X238056235Y-147878706D01*
X238056457Y-147658783D01*
X238102166Y-147642849D01*
X238134518Y-147632015D01*
X238152115Y-147626962D01*
X238152623Y-147626914D01*
X238154388Y-147640648D01*
X238156329Y-147678730D01*
X238158282Y-147736482D01*
X238160084Y-147809227D01*
X238161343Y-147877286D01*
X238165314Y-148127657D01*
X238252400Y-148127657D01*
X238256396Y-147899240D01*
X238260392Y-147670822D01*
X238302847Y-147648868D01*
X238334192Y-147633793D01*
X238352744Y-147626951D01*
X238353279Y-147626914D01*
X238355833Y-147640663D01*
G37*
X238355833Y-147640663D02*
X238358048Y-147678850D01*
X238359784Y-147736886D01*
X238360899Y-147810180D01*
X238361257Y-147887055D01*
X238361257Y-148147196D01*
X238315326Y-148193127D01*
X238283675Y-148221429D01*
X238255890Y-148232893D01*
X238217915Y-148232168D01*
X238202840Y-148230321D01*
X238155726Y-148224948D01*
X238116756Y-148221869D01*
X238107257Y-148221585D01*
X238075233Y-148223445D01*
X238029432Y-148228114D01*
X238011674Y-148230321D01*
X237968057Y-148233735D01*
X237938745Y-148226320D01*
X237909680Y-148203427D01*
X237899188Y-148193127D01*
X237853257Y-148147196D01*
X237853257Y-147660602D01*
X237890226Y-147643758D01*
X237922059Y-147631282D01*
X237940683Y-147626914D01*
X237945458Y-147640718D01*
X237949921Y-147679286D01*
X237953775Y-147738356D01*
X237956722Y-147813663D01*
X237958143Y-147877286D01*
X237962114Y-148127657D01*
X237996759Y-148132556D01*
X238028268Y-148129131D01*
X238043708Y-148118041D01*
X238048023Y-148097308D01*
X238051708Y-148053145D01*
X238054469Y-147991146D01*
X238056012Y-147916909D01*
X238056235Y-147878706D01*
X238056457Y-147658783D01*
X238102166Y-147642849D01*
X238134518Y-147632015D01*
X238152115Y-147626962D01*
X238152623Y-147626914D01*
X238154388Y-147640648D01*
X238156329Y-147678730D01*
X238158282Y-147736482D01*
X238160084Y-147809227D01*
X238161343Y-147877286D01*
X238165314Y-148127657D01*
X238252400Y-148127657D01*
X238256396Y-147899240D01*
X238260392Y-147670822D01*
X238302847Y-147648868D01*
X238334192Y-147633793D01*
X238352744Y-147626951D01*
X238353279Y-147626914D01*
X238355833Y-147640663D01*
G36*
X237766117Y-147747358D02*
G01*
X237765933Y-147855837D01*
X237765219Y-147939287D01*
X237763675Y-148001704D01*
X237761001Y-148047085D01*
X237756894Y-148079429D01*
X237751055Y-148102733D01*
X237743182Y-148120995D01*
X237737221Y-148131418D01*
X237687855Y-148187945D01*
X237625264Y-148223377D01*
X237556013Y-148236090D01*
X237486668Y-148224463D01*
X237445375Y-148203568D01*
X237402025Y-148167422D01*
X237372481Y-148123276D01*
X237354655Y-148065462D01*
X237346463Y-147988313D01*
X237345302Y-147931714D01*
X237345458Y-147927647D01*
X237446857Y-147927647D01*
X237447476Y-147992550D01*
X237450314Y-148035514D01*
X237456840Y-148063622D01*
X237468523Y-148083953D01*
X237482483Y-148099288D01*
X237529365Y-148128890D01*
X237579701Y-148131419D01*
X237627276Y-148106705D01*
X237630979Y-148103356D01*
X237646783Y-148085935D01*
X237656693Y-148065209D01*
X237662058Y-148034362D01*
X237664228Y-147986577D01*
X237664571Y-147933748D01*
X237663827Y-147867381D01*
X237660748Y-147823106D01*
X237654061Y-147794009D01*
X237642496Y-147773173D01*
X237633013Y-147762107D01*
X237588960Y-147734198D01*
X237538224Y-147730843D01*
X237489796Y-147752159D01*
X237480450Y-147760073D01*
X237464540Y-147777647D01*
X237454610Y-147798587D01*
X237449278Y-147829782D01*
X237447163Y-147878122D01*
X237446857Y-147927647D01*
X237345458Y-147927647D01*
X237348810Y-147840568D01*
X237360726Y-147772086D01*
X237383135Y-147720600D01*
X237418124Y-147680443D01*
X237445375Y-147659861D01*
X237494907Y-147637625D01*
X237552316Y-147627304D01*
X237605682Y-147630067D01*
X237635543Y-147641212D01*
X237647261Y-147644383D01*
X237655037Y-147632557D01*
X237660465Y-147600866D01*
X237664571Y-147552593D01*
X237669067Y-147498829D01*
X237675313Y-147466482D01*
X237686676Y-147447985D01*
X237706528Y-147435770D01*
X237719000Y-147430362D01*
X237766171Y-147410601D01*
X237766117Y-147747358D01*
G37*
X237766117Y-147747358D02*
X237765933Y-147855837D01*
X237765219Y-147939287D01*
X237763675Y-148001704D01*
X237761001Y-148047085D01*
X237756894Y-148079429D01*
X237751055Y-148102733D01*
X237743182Y-148120995D01*
X237737221Y-148131418D01*
X237687855Y-148187945D01*
X237625264Y-148223377D01*
X237556013Y-148236090D01*
X237486668Y-148224463D01*
X237445375Y-148203568D01*
X237402025Y-148167422D01*
X237372481Y-148123276D01*
X237354655Y-148065462D01*
X237346463Y-147988313D01*
X237345302Y-147931714D01*
X237345458Y-147927647D01*
X237446857Y-147927647D01*
X237447476Y-147992550D01*
X237450314Y-148035514D01*
X237456840Y-148063622D01*
X237468523Y-148083953D01*
X237482483Y-148099288D01*
X237529365Y-148128890D01*
X237579701Y-148131419D01*
X237627276Y-148106705D01*
X237630979Y-148103356D01*
X237646783Y-148085935D01*
X237656693Y-148065209D01*
X237662058Y-148034362D01*
X237664228Y-147986577D01*
X237664571Y-147933748D01*
X237663827Y-147867381D01*
X237660748Y-147823106D01*
X237654061Y-147794009D01*
X237642496Y-147773173D01*
X237633013Y-147762107D01*
X237588960Y-147734198D01*
X237538224Y-147730843D01*
X237489796Y-147752159D01*
X237480450Y-147760073D01*
X237464540Y-147777647D01*
X237454610Y-147798587D01*
X237449278Y-147829782D01*
X237447163Y-147878122D01*
X237446857Y-147927647D01*
X237345458Y-147927647D01*
X237348810Y-147840568D01*
X237360726Y-147772086D01*
X237383135Y-147720600D01*
X237418124Y-147680443D01*
X237445375Y-147659861D01*
X237494907Y-147637625D01*
X237552316Y-147627304D01*
X237605682Y-147630067D01*
X237635543Y-147641212D01*
X237647261Y-147644383D01*
X237655037Y-147632557D01*
X237660465Y-147600866D01*
X237664571Y-147552593D01*
X237669067Y-147498829D01*
X237675313Y-147466482D01*
X237686676Y-147447985D01*
X237706528Y-147435770D01*
X237719000Y-147430362D01*
X237766171Y-147410601D01*
X237766117Y-147747358D01*
G36*
X237105926Y-147631755D02*
G01*
X237171858Y-147656084D01*
X237225273Y-147699117D01*
X237246164Y-147729409D01*
X237268939Y-147784994D01*
X237268466Y-147825186D01*
X237244562Y-147852217D01*
X237235717Y-147856813D01*
X237197530Y-147871144D01*
X237178028Y-147867472D01*
X237171422Y-147843407D01*
X237171086Y-147830114D01*
X237158992Y-147781210D01*
X237127471Y-147746999D01*
X237083659Y-147730476D01*
X237034695Y-147734634D01*
X236994894Y-147756227D01*
X236981450Y-147768544D01*
X236971921Y-147783487D01*
X236965485Y-147806075D01*
X236961317Y-147841328D01*
X236958597Y-147894266D01*
X236956502Y-147969907D01*
X236955960Y-147993857D01*
X236953981Y-148075790D01*
X236951731Y-148133455D01*
X236948357Y-148171608D01*
X236943006Y-148195004D01*
X236934824Y-148208398D01*
X236922959Y-148216545D01*
X236915362Y-148220144D01*
X236883102Y-148232452D01*
X236864111Y-148236514D01*
X236857836Y-148222948D01*
X236854006Y-148181934D01*
X236852600Y-148112999D01*
X236853598Y-148015669D01*
X236853908Y-148000657D01*
X236856101Y-147911859D01*
X236858693Y-147847019D01*
X236862382Y-147801067D01*
X236867864Y-147768935D01*
X236875835Y-147745553D01*
X236886993Y-147725852D01*
X236892830Y-147717410D01*
X236926296Y-147680057D01*
X236963727Y-147651003D01*
X236968309Y-147648467D01*
X237035426Y-147628443D01*
X237105926Y-147631755D01*
G37*
X237105926Y-147631755D02*
X237171858Y-147656084D01*
X237225273Y-147699117D01*
X237246164Y-147729409D01*
X237268939Y-147784994D01*
X237268466Y-147825186D01*
X237244562Y-147852217D01*
X237235717Y-147856813D01*
X237197530Y-147871144D01*
X237178028Y-147867472D01*
X237171422Y-147843407D01*
X237171086Y-147830114D01*
X237158992Y-147781210D01*
X237127471Y-147746999D01*
X237083659Y-147730476D01*
X237034695Y-147734634D01*
X236994894Y-147756227D01*
X236981450Y-147768544D01*
X236971921Y-147783487D01*
X236965485Y-147806075D01*
X236961317Y-147841328D01*
X236958597Y-147894266D01*
X236956502Y-147969907D01*
X236955960Y-147993857D01*
X236953981Y-148075790D01*
X236951731Y-148133455D01*
X236948357Y-148171608D01*
X236943006Y-148195004D01*
X236934824Y-148208398D01*
X236922959Y-148216545D01*
X236915362Y-148220144D01*
X236883102Y-148232452D01*
X236864111Y-148236514D01*
X236857836Y-148222948D01*
X236854006Y-148181934D01*
X236852600Y-148112999D01*
X236853598Y-148015669D01*
X236853908Y-148000657D01*
X236856101Y-147911859D01*
X236858693Y-147847019D01*
X236862382Y-147801067D01*
X236867864Y-147768935D01*
X236875835Y-147745553D01*
X236886993Y-147725852D01*
X236892830Y-147717410D01*
X236926296Y-147680057D01*
X236963727Y-147651003D01*
X236968309Y-147648467D01*
X237035426Y-147628443D01*
X237105926Y-147631755D01*
G36*
X236615744Y-147632968D02*
G01*
X236672616Y-147654087D01*
X236673267Y-147654493D01*
X236708440Y-147680380D01*
X236734407Y-147710633D01*
X236752670Y-147750058D01*
X236764732Y-147803462D01*
X236772096Y-147875651D01*
X236776264Y-147971432D01*
X236776629Y-147985078D01*
X236781876Y-148190842D01*
X236737716Y-148213678D01*
X236705763Y-148229110D01*
X236686470Y-148236423D01*
X236685578Y-148236514D01*
X236682239Y-148223022D01*
X236679587Y-148186626D01*
X236677956Y-148133452D01*
X236677600Y-148090393D01*
X236677592Y-148020641D01*
X236674403Y-147976837D01*
X236663288Y-147955944D01*
X236639501Y-147954925D01*
X236598296Y-147970741D01*
X236536086Y-147999815D01*
X236490341Y-148023963D01*
X236466813Y-148044913D01*
X236459896Y-148067747D01*
X236459886Y-148068877D01*
X236471299Y-148108212D01*
X236505092Y-148129462D01*
X236556809Y-148132539D01*
X236594061Y-148132006D01*
X236613703Y-148142735D01*
X236625952Y-148168505D01*
X236633002Y-148201337D01*
X236622842Y-148219966D01*
X236619017Y-148222632D01*
X236583001Y-148233340D01*
X236532566Y-148234856D01*
X236480626Y-148227759D01*
X236443822Y-148214788D01*
X236392938Y-148171585D01*
X236364014Y-148111446D01*
X236358286Y-148064462D01*
X236362657Y-148022082D01*
X236378475Y-147987488D01*
X236409797Y-147956763D01*
X236460678Y-147925990D01*
X236535176Y-147891252D01*
X236539714Y-147889288D01*
X236606821Y-147858287D01*
X236648232Y-147832862D01*
X236665981Y-147810014D01*
X236662107Y-147786745D01*
X236638643Y-147760056D01*
X236631627Y-147753914D01*
X236584630Y-147730100D01*
X236535933Y-147731103D01*
X236493522Y-147754451D01*
X236465384Y-147797675D01*
X236462769Y-147806160D01*
X236437308Y-147847308D01*
X236405001Y-147867128D01*
X236358286Y-147886770D01*
X236358286Y-147835950D01*
X236372496Y-147762082D01*
X236414675Y-147694327D01*
X236436624Y-147671661D01*
X236486517Y-147642569D01*
X236549967Y-147629400D01*
X236615744Y-147632968D01*
G37*
X236615744Y-147632968D02*
X236672616Y-147654087D01*
X236673267Y-147654493D01*
X236708440Y-147680380D01*
X236734407Y-147710633D01*
X236752670Y-147750058D01*
X236764732Y-147803462D01*
X236772096Y-147875651D01*
X236776264Y-147971432D01*
X236776629Y-147985078D01*
X236781876Y-148190842D01*
X236737716Y-148213678D01*
X236705763Y-148229110D01*
X236686470Y-148236423D01*
X236685578Y-148236514D01*
X236682239Y-148223022D01*
X236679587Y-148186626D01*
X236677956Y-148133452D01*
X236677600Y-148090393D01*
X236677592Y-148020641D01*
X236674403Y-147976837D01*
X236663288Y-147955944D01*
X236639501Y-147954925D01*
X236598296Y-147970741D01*
X236536086Y-147999815D01*
X236490341Y-148023963D01*
X236466813Y-148044913D01*
X236459896Y-148067747D01*
X236459886Y-148068877D01*
X236471299Y-148108212D01*
X236505092Y-148129462D01*
X236556809Y-148132539D01*
X236594061Y-148132006D01*
X236613703Y-148142735D01*
X236625952Y-148168505D01*
X236633002Y-148201337D01*
X236622842Y-148219966D01*
X236619017Y-148222632D01*
X236583001Y-148233340D01*
X236532566Y-148234856D01*
X236480626Y-148227759D01*
X236443822Y-148214788D01*
X236392938Y-148171585D01*
X236364014Y-148111446D01*
X236358286Y-148064462D01*
X236362657Y-148022082D01*
X236378475Y-147987488D01*
X236409797Y-147956763D01*
X236460678Y-147925990D01*
X236535176Y-147891252D01*
X236539714Y-147889288D01*
X236606821Y-147858287D01*
X236648232Y-147832862D01*
X236665981Y-147810014D01*
X236662107Y-147786745D01*
X236638643Y-147760056D01*
X236631627Y-147753914D01*
X236584630Y-147730100D01*
X236535933Y-147731103D01*
X236493522Y-147754451D01*
X236465384Y-147797675D01*
X236462769Y-147806160D01*
X236437308Y-147847308D01*
X236405001Y-147867128D01*
X236358286Y-147886770D01*
X236358286Y-147835950D01*
X236372496Y-147762082D01*
X236414675Y-147694327D01*
X236436624Y-147671661D01*
X236486517Y-147642569D01*
X236549967Y-147629400D01*
X236615744Y-147632968D01*
G36*
X235951886Y-147533289D02*
G01*
X235956139Y-147592613D01*
X235961025Y-147627572D01*
X235967795Y-147642820D01*
X235977702Y-147643015D01*
X235980914Y-147641195D01*
X236023644Y-147628015D01*
X236079227Y-147628785D01*
X236135737Y-147642333D01*
X236171082Y-147659861D01*
X236207321Y-147687861D01*
X236233813Y-147719549D01*
X236251999Y-147759813D01*
X236263322Y-147813543D01*
X236269222Y-147885626D01*
X236271143Y-147980951D01*
X236271177Y-147999237D01*
X236271200Y-148204646D01*
X236225491Y-148220580D01*
X236193027Y-148231420D01*
X236175215Y-148236468D01*
X236174691Y-148236514D01*
X236172937Y-148222828D01*
X236171444Y-148185076D01*
X236170326Y-148128224D01*
X236169697Y-148057234D01*
X236169600Y-148014073D01*
X236169398Y-147928973D01*
X236168358Y-147867981D01*
X236165831Y-147826177D01*
X236161164Y-147798642D01*
X236153707Y-147780456D01*
X236142811Y-147766698D01*
X236136007Y-147760073D01*
X236089272Y-147733375D01*
X236038272Y-147731375D01*
X235992001Y-147753955D01*
X235983444Y-147762107D01*
X235970893Y-147777436D01*
X235962188Y-147795618D01*
X235956631Y-147821909D01*
X235953526Y-147861562D01*
X235952176Y-147919832D01*
X235951886Y-148000173D01*
X235951886Y-148204646D01*
X235906177Y-148220580D01*
X235873713Y-148231420D01*
X235855901Y-148236468D01*
X235855377Y-148236514D01*
X235854037Y-148222623D01*
X235852828Y-148183439D01*
X235851801Y-148122700D01*
X235851002Y-148044141D01*
X235850481Y-147951498D01*
X235850286Y-147848509D01*
X235850286Y-147451342D01*
X235897457Y-147431444D01*
X235944629Y-147411547D01*
X235951886Y-147533289D01*
G37*
X235951886Y-147533289D02*
X235956139Y-147592613D01*
X235961025Y-147627572D01*
X235967795Y-147642820D01*
X235977702Y-147643015D01*
X235980914Y-147641195D01*
X236023644Y-147628015D01*
X236079227Y-147628785D01*
X236135737Y-147642333D01*
X236171082Y-147659861D01*
X236207321Y-147687861D01*
X236233813Y-147719549D01*
X236251999Y-147759813D01*
X236263322Y-147813543D01*
X236269222Y-147885626D01*
X236271143Y-147980951D01*
X236271177Y-147999237D01*
X236271200Y-148204646D01*
X236225491Y-148220580D01*
X236193027Y-148231420D01*
X236175215Y-148236468D01*
X236174691Y-148236514D01*
X236172937Y-148222828D01*
X236171444Y-148185076D01*
X236170326Y-148128224D01*
X236169697Y-148057234D01*
X236169600Y-148014073D01*
X236169398Y-147928973D01*
X236168358Y-147867981D01*
X236165831Y-147826177D01*
X236161164Y-147798642D01*
X236153707Y-147780456D01*
X236142811Y-147766698D01*
X236136007Y-147760073D01*
X236089272Y-147733375D01*
X236038272Y-147731375D01*
X235992001Y-147753955D01*
X235983444Y-147762107D01*
X235970893Y-147777436D01*
X235962188Y-147795618D01*
X235956631Y-147821909D01*
X235953526Y-147861562D01*
X235952176Y-147919832D01*
X235951886Y-148000173D01*
X235951886Y-148204646D01*
X235906177Y-148220580D01*
X235873713Y-148231420D01*
X235855901Y-148236468D01*
X235855377Y-148236514D01*
X235854037Y-148222623D01*
X235852828Y-148183439D01*
X235851801Y-148122700D01*
X235851002Y-148044141D01*
X235850481Y-147951498D01*
X235850286Y-147848509D01*
X235850286Y-147451342D01*
X235897457Y-147431444D01*
X235944629Y-147411547D01*
X235951886Y-147533289D01*
G36*
X234744303Y-147613239D02*
G01*
X234801527Y-147651735D01*
X234845749Y-147707335D01*
X234872167Y-147778086D01*
X234877510Y-147830162D01*
X234876903Y-147851893D01*
X234871822Y-147868531D01*
X234857855Y-147883437D01*
X234830589Y-147899973D01*
X234785612Y-147921498D01*
X234718511Y-147951374D01*
X234718171Y-147951524D01*
X234656407Y-147979813D01*
X234605759Y-148004933D01*
X234571404Y-148024179D01*
X234558518Y-148034848D01*
X234558514Y-148034934D01*
X234569872Y-148058166D01*
X234596431Y-148083774D01*
X234626923Y-148102221D01*
X234642370Y-148105886D01*
X234684515Y-148093212D01*
X234720808Y-148061471D01*
X234738517Y-148026572D01*
X234755552Y-148000845D01*
X234788922Y-147971546D01*
X234828149Y-147946235D01*
X234862756Y-147932471D01*
X234869993Y-147931714D01*
X234878139Y-147944160D01*
X234878630Y-147975972D01*
X234872643Y-148018866D01*
X234861357Y-148064558D01*
X234845950Y-148104761D01*
X234845171Y-148106322D01*
X234798804Y-148171062D01*
X234738711Y-148215097D01*
X234670465Y-148236711D01*
X234599638Y-148234185D01*
X234531804Y-148205804D01*
X234528788Y-148203808D01*
X234475427Y-148155448D01*
X234440340Y-148092352D01*
X234420922Y-148009387D01*
X234418316Y-147986078D01*
X234413701Y-147876055D01*
X234419233Y-147824748D01*
X234558514Y-147824748D01*
X234560324Y-147856753D01*
X234570222Y-147866093D01*
X234594898Y-147859105D01*
X234633795Y-147842587D01*
X234677275Y-147821881D01*
X234678356Y-147821333D01*
X234715209Y-147801949D01*
X234730000Y-147789013D01*
X234726353Y-147775451D01*
X234710995Y-147757632D01*
X234671923Y-147731845D01*
X234629846Y-147729950D01*
X234592103Y-147748717D01*
X234566034Y-147784915D01*
X234558514Y-147824748D01*
X234419233Y-147824748D01*
X234423194Y-147788027D01*
X234447550Y-147718212D01*
X234481456Y-147669302D01*
X234542653Y-147619878D01*
X234610063Y-147595359D01*
X234678880Y-147593797D01*
X234744303Y-147613239D01*
G37*
X234744303Y-147613239D02*
X234801527Y-147651735D01*
X234845749Y-147707335D01*
X234872167Y-147778086D01*
X234877510Y-147830162D01*
X234876903Y-147851893D01*
X234871822Y-147868531D01*
X234857855Y-147883437D01*
X234830589Y-147899973D01*
X234785612Y-147921498D01*
X234718511Y-147951374D01*
X234718171Y-147951524D01*
X234656407Y-147979813D01*
X234605759Y-148004933D01*
X234571404Y-148024179D01*
X234558518Y-148034848D01*
X234558514Y-148034934D01*
X234569872Y-148058166D01*
X234596431Y-148083774D01*
X234626923Y-148102221D01*
X234642370Y-148105886D01*
X234684515Y-148093212D01*
X234720808Y-148061471D01*
X234738517Y-148026572D01*
X234755552Y-148000845D01*
X234788922Y-147971546D01*
X234828149Y-147946235D01*
X234862756Y-147932471D01*
X234869993Y-147931714D01*
X234878139Y-147944160D01*
X234878630Y-147975972D01*
X234872643Y-148018866D01*
X234861357Y-148064558D01*
X234845950Y-148104761D01*
X234845171Y-148106322D01*
X234798804Y-148171062D01*
X234738711Y-148215097D01*
X234670465Y-148236711D01*
X234599638Y-148234185D01*
X234531804Y-148205804D01*
X234528788Y-148203808D01*
X234475427Y-148155448D01*
X234440340Y-148092352D01*
X234420922Y-148009387D01*
X234418316Y-147986078D01*
X234413701Y-147876055D01*
X234419233Y-147824748D01*
X234558514Y-147824748D01*
X234560324Y-147856753D01*
X234570222Y-147866093D01*
X234594898Y-147859105D01*
X234633795Y-147842587D01*
X234677275Y-147821881D01*
X234678356Y-147821333D01*
X234715209Y-147801949D01*
X234730000Y-147789013D01*
X234726353Y-147775451D01*
X234710995Y-147757632D01*
X234671923Y-147731845D01*
X234629846Y-147729950D01*
X234592103Y-147748717D01*
X234566034Y-147784915D01*
X234558514Y-147824748D01*
X234419233Y-147824748D01*
X234423194Y-147788027D01*
X234447550Y-147718212D01*
X234481456Y-147669302D01*
X234542653Y-147619878D01*
X234610063Y-147595359D01*
X234678880Y-147593797D01*
X234744303Y-147613239D01*
G36*
X233617115Y-147603962D02*
G01*
X233685145Y-147639733D01*
X233735351Y-147697301D01*
X233753185Y-147734312D01*
X233767063Y-147789882D01*
X233774167Y-147860096D01*
X233774840Y-147936727D01*
X233769427Y-148011552D01*
X233758270Y-148076342D01*
X233741714Y-148122873D01*
X233736626Y-148130887D01*
X233676355Y-148190707D01*
X233604769Y-148226535D01*
X233527092Y-148237020D01*
X233448548Y-148220810D01*
X233426689Y-148211092D01*
X233384122Y-148181143D01*
X233346763Y-148141433D01*
X233343232Y-148136397D01*
X233328881Y-148112124D01*
X233319394Y-148086178D01*
X233313790Y-148052022D01*
X233311086Y-148003119D01*
X233310299Y-147932935D01*
X233310286Y-147917200D01*
X233310322Y-147912192D01*
X233455429Y-147912192D01*
X233456273Y-147978430D01*
X233459596Y-148022386D01*
X233466583Y-148050779D01*
X233478416Y-148070325D01*
X233484457Y-148076857D01*
X233519186Y-148101680D01*
X233552903Y-148100548D01*
X233586995Y-148079016D01*
X233607329Y-148056029D01*
X233619371Y-148022478D01*
X233626134Y-147969569D01*
X233626598Y-147963399D01*
X233627752Y-147867513D01*
X233615688Y-147796299D01*
X233590570Y-147750194D01*
X233552560Y-147729635D01*
X233538992Y-147728514D01*
X233503364Y-147734152D01*
X233478994Y-147753686D01*
X233464093Y-147791042D01*
X233456875Y-147850150D01*
X233455429Y-147912192D01*
X233310322Y-147912192D01*
X233310826Y-147842413D01*
X233313096Y-147790159D01*
X233318068Y-147753949D01*
X233326713Y-147727299D01*
X233340005Y-147703722D01*
X233342943Y-147699338D01*
X233392313Y-147640249D01*
X233446109Y-147605947D01*
X233511602Y-147592331D01*
X233533842Y-147591665D01*
X233617115Y-147603962D01*
G37*
X233617115Y-147603962D02*
X233685145Y-147639733D01*
X233735351Y-147697301D01*
X233753185Y-147734312D01*
X233767063Y-147789882D01*
X233774167Y-147860096D01*
X233774840Y-147936727D01*
X233769427Y-148011552D01*
X233758270Y-148076342D01*
X233741714Y-148122873D01*
X233736626Y-148130887D01*
X233676355Y-148190707D01*
X233604769Y-148226535D01*
X233527092Y-148237020D01*
X233448548Y-148220810D01*
X233426689Y-148211092D01*
X233384122Y-148181143D01*
X233346763Y-148141433D01*
X233343232Y-148136397D01*
X233328881Y-148112124D01*
X233319394Y-148086178D01*
X233313790Y-148052022D01*
X233311086Y-148003119D01*
X233310299Y-147932935D01*
X233310286Y-147917200D01*
X233310322Y-147912192D01*
X233455429Y-147912192D01*
X233456273Y-147978430D01*
X233459596Y-148022386D01*
X233466583Y-148050779D01*
X233478416Y-148070325D01*
X233484457Y-148076857D01*
X233519186Y-148101680D01*
X233552903Y-148100548D01*
X233586995Y-148079016D01*
X233607329Y-148056029D01*
X233619371Y-148022478D01*
X233626134Y-147969569D01*
X233626598Y-147963399D01*
X233627752Y-147867513D01*
X233615688Y-147796299D01*
X233590570Y-147750194D01*
X233552560Y-147729635D01*
X233538992Y-147728514D01*
X233503364Y-147734152D01*
X233478994Y-147753686D01*
X233464093Y-147791042D01*
X233456875Y-147850150D01*
X233455429Y-147912192D01*
X233310322Y-147912192D01*
X233310826Y-147842413D01*
X233313096Y-147790159D01*
X233318068Y-147753949D01*
X233326713Y-147727299D01*
X233340005Y-147703722D01*
X233342943Y-147699338D01*
X233392313Y-147640249D01*
X233446109Y-147605947D01*
X233511602Y-147592331D01*
X233533842Y-147591665D01*
X233617115Y-147603962D01*
G36*
X235292093Y-147609780D02*
G01*
X235338672Y-147636723D01*
X235371057Y-147663466D01*
X235394742Y-147691484D01*
X235411059Y-147725748D01*
X235421339Y-147771227D01*
X235426914Y-147832892D01*
X235429116Y-147915711D01*
X235429371Y-147975246D01*
X235429371Y-148194391D01*
X235367686Y-148222044D01*
X235306000Y-148249697D01*
X235298743Y-148009670D01*
X235295744Y-147920028D01*
X235292598Y-147854962D01*
X235288701Y-147810026D01*
X235283447Y-147780770D01*
X235276231Y-147762748D01*
X235266450Y-147751511D01*
X235263312Y-147749079D01*
X235215761Y-147730083D01*
X235167697Y-147737600D01*
X235139086Y-147757543D01*
X235127447Y-147771675D01*
X235119391Y-147790220D01*
X235114271Y-147818334D01*
X235111441Y-147861173D01*
X235110256Y-147923895D01*
X235110057Y-147989261D01*
X235110018Y-148071268D01*
X235108614Y-148129316D01*
X235103914Y-148168465D01*
X235093987Y-148193780D01*
X235076903Y-148210323D01*
X235050732Y-148223156D01*
X235015775Y-148236491D01*
X234977596Y-148251007D01*
X234982141Y-147993389D01*
X234983971Y-147900519D01*
X234986112Y-147831889D01*
X234989181Y-147782711D01*
X234993794Y-147748198D01*
X235000568Y-147723562D01*
X235010119Y-147704016D01*
X235021634Y-147686770D01*
X235077190Y-147631680D01*
X235144980Y-147599822D01*
X235218713Y-147592191D01*
X235292093Y-147609780D01*
G37*
X235292093Y-147609780D02*
X235338672Y-147636723D01*
X235371057Y-147663466D01*
X235394742Y-147691484D01*
X235411059Y-147725748D01*
X235421339Y-147771227D01*
X235426914Y-147832892D01*
X235429116Y-147915711D01*
X235429371Y-147975246D01*
X235429371Y-148194391D01*
X235367686Y-148222044D01*
X235306000Y-148249697D01*
X235298743Y-148009670D01*
X235295744Y-147920028D01*
X235292598Y-147854962D01*
X235288701Y-147810026D01*
X235283447Y-147780770D01*
X235276231Y-147762748D01*
X235266450Y-147751511D01*
X235263312Y-147749079D01*
X235215761Y-147730083D01*
X235167697Y-147737600D01*
X235139086Y-147757543D01*
X235127447Y-147771675D01*
X235119391Y-147790220D01*
X235114271Y-147818334D01*
X235111441Y-147861173D01*
X235110256Y-147923895D01*
X235110057Y-147989261D01*
X235110018Y-148071268D01*
X235108614Y-148129316D01*
X235103914Y-148168465D01*
X235093987Y-148193780D01*
X235076903Y-148210323D01*
X235050732Y-148223156D01*
X235015775Y-148236491D01*
X234977596Y-148251007D01*
X234982141Y-147993389D01*
X234983971Y-147900519D01*
X234986112Y-147831889D01*
X234989181Y-147782711D01*
X234993794Y-147748198D01*
X235000568Y-147723562D01*
X235010119Y-147704016D01*
X235021634Y-147686770D01*
X235077190Y-147631680D01*
X235144980Y-147599822D01*
X235218713Y-147592191D01*
X235292093Y-147609780D01*
G36*
X234175744Y-147601918D02*
G01*
X234231201Y-147629568D01*
X234280148Y-147680480D01*
X234293629Y-147699338D01*
X234308314Y-147724015D01*
X234317842Y-147750816D01*
X234323293Y-147786587D01*
X234325747Y-147838169D01*
X234326286Y-147906267D01*
X234323852Y-147999588D01*
X234315394Y-148069657D01*
X234299174Y-148121931D01*
X234273454Y-148161869D01*
X234236497Y-148194929D01*
X234233782Y-148196886D01*
X234197360Y-148216908D01*
X234153502Y-148226815D01*
X234097724Y-148229257D01*
X234007048Y-148229257D01*
X234007010Y-148317283D01*
X234006166Y-148366308D01*
X234001024Y-148395065D01*
X233987587Y-148412311D01*
X233961858Y-148426808D01*
X233955679Y-148429769D01*
X233926764Y-148443648D01*
X233904376Y-148452414D01*
X233887729Y-148453171D01*
X233876036Y-148443023D01*
X233868510Y-148419073D01*
X233864366Y-148378426D01*
X233862815Y-148318186D01*
X233863071Y-148235455D01*
X233864349Y-148127339D01*
X233864748Y-148095000D01*
X233866185Y-147983524D01*
X233867472Y-147910603D01*
X234006971Y-147910603D01*
X234007755Y-147972499D01*
X234011240Y-148012997D01*
X234019124Y-148039708D01*
X234033105Y-148060244D01*
X234042597Y-148070260D01*
X234081404Y-148099567D01*
X234115763Y-148101952D01*
X234151216Y-148077750D01*
X234152114Y-148076857D01*
X234166539Y-148058153D01*
X234175313Y-148032732D01*
X234179739Y-147993584D01*
X234181118Y-147933697D01*
X234181143Y-147920430D01*
X234177812Y-147837901D01*
X234166969Y-147780691D01*
X234147340Y-147745766D01*
X234117650Y-147730094D01*
X234100491Y-147728514D01*
X234059766Y-147735926D01*
X234031832Y-147760330D01*
X234015017Y-147804980D01*
X234007650Y-147873130D01*
X234006971Y-147910603D01*
X233867472Y-147910603D01*
X233867708Y-147897245D01*
X233869677Y-147832333D01*
X233872450Y-147784958D01*
X233876388Y-147751290D01*
X233881849Y-147727498D01*
X233889192Y-147709753D01*
X233898777Y-147694224D01*
X233902887Y-147688381D01*
X233957405Y-147633185D01*
X234026336Y-147601890D01*
X234106072Y-147593165D01*
X234175744Y-147601918D01*
G37*
X234175744Y-147601918D02*
X234231201Y-147629568D01*
X234280148Y-147680480D01*
X234293629Y-147699338D01*
X234308314Y-147724015D01*
X234317842Y-147750816D01*
X234323293Y-147786587D01*
X234325747Y-147838169D01*
X234326286Y-147906267D01*
X234323852Y-147999588D01*
X234315394Y-148069657D01*
X234299174Y-148121931D01*
X234273454Y-148161869D01*
X234236497Y-148194929D01*
X234233782Y-148196886D01*
X234197360Y-148216908D01*
X234153502Y-148226815D01*
X234097724Y-148229257D01*
X234007048Y-148229257D01*
X234007010Y-148317283D01*
X234006166Y-148366308D01*
X234001024Y-148395065D01*
X233987587Y-148412311D01*
X233961858Y-148426808D01*
X233955679Y-148429769D01*
X233926764Y-148443648D01*
X233904376Y-148452414D01*
X233887729Y-148453171D01*
X233876036Y-148443023D01*
X233868510Y-148419073D01*
X233864366Y-148378426D01*
X233862815Y-148318186D01*
X233863071Y-148235455D01*
X233864349Y-148127339D01*
X233864748Y-148095000D01*
X233866185Y-147983524D01*
X233867472Y-147910603D01*
X234006971Y-147910603D01*
X234007755Y-147972499D01*
X234011240Y-148012997D01*
X234019124Y-148039708D01*
X234033105Y-148060244D01*
X234042597Y-148070260D01*
X234081404Y-148099567D01*
X234115763Y-148101952D01*
X234151216Y-148077750D01*
X234152114Y-148076857D01*
X234166539Y-148058153D01*
X234175313Y-148032732D01*
X234179739Y-147993584D01*
X234181118Y-147933697D01*
X234181143Y-147920430D01*
X234177812Y-147837901D01*
X234166969Y-147780691D01*
X234147340Y-147745766D01*
X234117650Y-147730094D01*
X234100491Y-147728514D01*
X234059766Y-147735926D01*
X234031832Y-147760330D01*
X234015017Y-147804980D01*
X234007650Y-147873130D01*
X234006971Y-147910603D01*
X233867472Y-147910603D01*
X233867708Y-147897245D01*
X233869677Y-147832333D01*
X233872450Y-147784958D01*
X233876388Y-147751290D01*
X233881849Y-147727498D01*
X233889192Y-147709753D01*
X233898777Y-147694224D01*
X233902887Y-147688381D01*
X233957405Y-147633185D01*
X234026336Y-147601890D01*
X234106072Y-147593165D01*
X234175744Y-147601918D01*
D13*
X232032000Y-143062000D02*
X232032000Y-151862000D01*
X232032000Y-151862000D02*
X222832000Y-151862000D01*
X229332000Y-137162000D02*
X232032000Y-137162000D01*
X232032000Y-137162000D02*
X232032000Y-139062000D01*
X222832000Y-151862000D02*
X222832000Y-137162000D01*
X222832000Y-137162000D02*
X225432000Y-137162000D01*
X259122000Y-109554000D02*
X260452000Y-109554000D01*
X259122000Y-110884000D02*
X259122000Y-109554000D01*
X259122000Y-112154000D02*
X261782000Y-112154000D01*
X261782000Y-112154000D02*
X261782000Y-119834000D01*
X259122000Y-112154000D02*
X259122000Y-119834000D01*
X259122000Y-119834000D02*
X261782000Y-119834000D01*
X207052000Y-104848000D02*
X207052000Y-103518000D01*
X208382000Y-104848000D02*
X207052000Y-104848000D01*
X209652000Y-104848000D02*
X209652000Y-102188000D01*
X209652000Y-102188000D02*
X217332000Y-102188000D01*
X209652000Y-104848000D02*
X217332000Y-104848000D01*
X217332000Y-104848000D02*
X217332000Y-102188000D01*
X239368000Y-113515221D02*
X239368000Y-113840779D01*
X240388000Y-113515221D02*
X240388000Y-113840779D01*
X241912000Y-113840779D02*
X241912000Y-113515221D01*
X240892000Y-113840779D02*
X240892000Y-113515221D01*
X238700000Y-120282000D02*
X238700000Y-123042000D01*
X238700000Y-123042000D02*
X239445000Y-123042000D01*
X238700000Y-120282000D02*
X238700000Y-117522000D01*
X238700000Y-117522000D02*
X239445000Y-117522000D01*
X245120000Y-120282000D02*
X245120000Y-123042000D01*
X245120000Y-123042000D02*
X244375000Y-123042000D01*
X245120000Y-120282000D02*
X245120000Y-117522000D01*
X245120000Y-117522000D02*
X244375000Y-117522000D01*
X244375000Y-117522000D02*
X244375000Y-115832000D01*
X211077500Y-120155000D02*
X211077500Y-122915000D01*
X211077500Y-122915000D02*
X211822500Y-122915000D01*
X211077500Y-120155000D02*
X211077500Y-117395000D01*
X211077500Y-117395000D02*
X211822500Y-117395000D01*
X217497500Y-120155000D02*
X217497500Y-122915000D01*
X217497500Y-122915000D02*
X216752500Y-122915000D01*
X217497500Y-120155000D02*
X217497500Y-117395000D01*
X217497500Y-117395000D02*
X216752500Y-117395000D01*
X216752500Y-117395000D02*
X216752500Y-115705000D01*
X235143221Y-115454000D02*
X235468779Y-115454000D01*
X235143221Y-116474000D02*
X235468779Y-116474000D01*
X237082000Y-115364779D02*
X237082000Y-115039221D01*
X238102000Y-115364779D02*
X238102000Y-115039221D01*
X239278779Y-126380000D02*
X238953221Y-126380000D01*
X239278779Y-125360000D02*
X238953221Y-125360000D01*
X207711221Y-115200000D02*
X208036779Y-115200000D01*
X207711221Y-116220000D02*
X208036779Y-116220000D01*
X212448000Y-113261221D02*
X212448000Y-113586779D01*
X211428000Y-113261221D02*
X211428000Y-113586779D01*
X209650000Y-115110779D02*
X209650000Y-114785221D01*
X210670000Y-115110779D02*
X210670000Y-114785221D01*
X212583279Y-126380000D02*
X212257721Y-126380000D01*
X212583279Y-125360000D02*
X212257721Y-125360000D01*
X246684000Y-111324000D02*
X246684000Y-108124000D01*
X246684000Y-108124000D02*
X257284000Y-108124000D01*
X257284000Y-108124000D02*
X257284000Y-111324000D01*
X257284000Y-115524000D02*
X257284000Y-118724000D01*
X257284000Y-118724000D02*
X246684000Y-118724000D01*
X246684000Y-118724000D02*
X246684000Y-115524000D01*
X218576000Y-111578000D02*
X218576000Y-108378000D01*
X218576000Y-108378000D02*
X229176000Y-108378000D01*
X229176000Y-108378000D02*
X229176000Y-111578000D01*
X229176000Y-115778000D02*
X229176000Y-118978000D01*
X229176000Y-118978000D02*
X218576000Y-118978000D01*
X218576000Y-118978000D02*
X218576000Y-115778000D01*
D15*
X248127920Y-121889820D02*
X248587660Y-121889820D01*
X248587660Y-121889820D02*
X248587660Y-121966020D01*
X248587660Y-121966020D02*
X248127920Y-121966020D01*
X248127920Y-121966020D02*
X248127920Y-121889820D01*
X250929540Y-121889820D02*
X250464720Y-121889820D01*
X250464720Y-121889820D02*
X250464720Y-121966020D01*
X250464720Y-121966020D02*
X250929540Y-121966020D01*
X250929540Y-121966020D02*
X250929540Y-121889820D01*
X248130000Y-125580000D02*
X248130000Y-125180000D01*
X248130000Y-125580000D02*
X248530000Y-125580000D01*
X248130000Y-121080000D02*
X248130000Y-121480000D01*
X248130000Y-121080000D02*
X248530000Y-121080000D01*
X250930000Y-121080000D02*
X250530000Y-121080000D01*
X250930000Y-121080000D02*
X250930000Y-121480000D01*
X250930000Y-125580000D02*
X250930000Y-125180000D01*
X250930000Y-125580000D02*
X250530000Y-125580000D01*
X221203920Y-121889820D02*
X221663660Y-121889820D01*
X221663660Y-121889820D02*
X221663660Y-121966020D01*
X221663660Y-121966020D02*
X221203920Y-121966020D01*
X221203920Y-121966020D02*
X221203920Y-121889820D01*
X224005540Y-121889820D02*
X223540720Y-121889820D01*
X223540720Y-121889820D02*
X223540720Y-121966020D01*
X223540720Y-121966020D02*
X224005540Y-121966020D01*
X224005540Y-121966020D02*
X224005540Y-121889820D01*
X221206000Y-125580000D02*
X221206000Y-125180000D01*
X221206000Y-125580000D02*
X221606000Y-125580000D01*
X221206000Y-121080000D02*
X221206000Y-121480000D01*
X221206000Y-121080000D02*
X221606000Y-121080000D01*
X224006000Y-121080000D02*
X223606000Y-121080000D01*
X224006000Y-121080000D02*
X224006000Y-121480000D01*
X224006000Y-125580000D02*
X224006000Y-125180000D01*
X224006000Y-125580000D02*
X223606000Y-125580000D01*
D13*
X252470000Y-130296000D02*
X254820000Y-130296000D01*
X259290000Y-130296000D02*
X256940000Y-130296000D01*
X259290000Y-124540437D02*
X259290000Y-130296000D01*
X252470000Y-124540437D02*
X252470000Y-130296000D01*
X253534437Y-123476000D02*
X254820000Y-123476000D01*
X258225563Y-123476000D02*
X256940000Y-123476000D01*
X258225563Y-123476000D02*
X259290000Y-124540437D01*
X253534437Y-123476000D02*
X252470000Y-124540437D01*
X246992000Y-122887721D02*
X246992000Y-123213279D01*
X245972000Y-122887721D02*
X245972000Y-123213279D01*
X243271221Y-125360000D02*
X243596779Y-125360000D01*
X243271221Y-126380000D02*
X243596779Y-126380000D01*
X235960000Y-127540000D02*
X235960000Y-129890000D01*
X235960000Y-134360000D02*
X235960000Y-132010000D01*
X241715563Y-134360000D02*
X235960000Y-134360000D01*
X241715563Y-127540000D02*
X235960000Y-127540000D01*
X242780000Y-128604437D02*
X242780000Y-129890000D01*
X242780000Y-133295563D02*
X242780000Y-132010000D01*
X242780000Y-133295563D02*
X241715563Y-134360000D01*
X242780000Y-128604437D02*
X241715563Y-127540000D01*
X225038000Y-130804000D02*
X227388000Y-130804000D01*
X231858000Y-130804000D02*
X229508000Y-130804000D01*
X231858000Y-125048437D02*
X231858000Y-130804000D01*
X225038000Y-125048437D02*
X225038000Y-130804000D01*
X226102437Y-123984000D02*
X227388000Y-123984000D01*
X230793563Y-123984000D02*
X229508000Y-123984000D01*
X230793563Y-123984000D02*
X231858000Y-125048437D01*
X226102437Y-123984000D02*
X225038000Y-125048437D01*
X219814000Y-122887721D02*
X219814000Y-123213279D01*
X218794000Y-122887721D02*
X218794000Y-123213279D01*
X215585221Y-125360000D02*
X215910779Y-125360000D01*
X215585221Y-126380000D02*
X215910779Y-126380000D01*
X209036000Y-127540000D02*
X209036000Y-129890000D01*
X209036000Y-134360000D02*
X209036000Y-132010000D01*
X214791563Y-134360000D02*
X209036000Y-134360000D01*
X214791563Y-127540000D02*
X209036000Y-127540000D01*
X215856000Y-128604437D02*
X215856000Y-129890000D01*
X215856000Y-133295563D02*
X215856000Y-132010000D01*
X215856000Y-133295563D02*
X214791563Y-134360000D01*
X215856000Y-128604437D02*
X214791563Y-127540000D01*
X212989000Y-113786000D02*
X212989000Y-113086000D01*
X214189000Y-113086000D02*
X214189000Y-113786000D01*
X250860000Y-145488000D02*
X250860000Y-140288000D01*
X243180000Y-145488000D02*
X250860000Y-145488000D01*
X240580000Y-140288000D02*
X250860000Y-140288000D01*
X243180000Y-145488000D02*
X243180000Y-142888000D01*
X243180000Y-142888000D02*
X240580000Y-142888000D01*
X240580000Y-142888000D02*
X240580000Y-140288000D01*
X241910000Y-145488000D02*
X240580000Y-145488000D01*
X240580000Y-145488000D02*
X240580000Y-144158000D01*
X229912000Y-103705000D02*
X229912000Y-102375000D01*
X231242000Y-103705000D02*
X229912000Y-103705000D01*
X232512000Y-103705000D02*
X232512000Y-101045000D01*
X232512000Y-101045000D02*
X240192000Y-101045000D01*
X232512000Y-103705000D02*
X240192000Y-103705000D01*
X240192000Y-103705000D02*
X240192000Y-101045000D01*
X240192000Y-107388000D02*
X240192000Y-104728000D01*
X232512000Y-107388000D02*
X240192000Y-107388000D01*
X232512000Y-104728000D02*
X240192000Y-104728000D01*
X232512000Y-107388000D02*
X232512000Y-104728000D01*
X231242000Y-107388000D02*
X229912000Y-107388000D01*
X229912000Y-107388000D02*
X229912000Y-106058000D01*
X228000000Y-106245000D02*
X228000000Y-101045000D01*
X225400000Y-106245000D02*
X228000000Y-106245000D01*
X222800000Y-101045000D02*
X228000000Y-101045000D01*
X225400000Y-106245000D02*
X225400000Y-103645000D01*
X225400000Y-103645000D02*
X222800000Y-103645000D01*
X222800000Y-103645000D02*
X222800000Y-101045000D01*
X224130000Y-106245000D02*
X222800000Y-106245000D01*
X222800000Y-106245000D02*
X222800000Y-104915000D01*
D10*
X222820380Y-135855333D02*
X223534666Y-135855333D01*
X223677523Y-135902952D01*
X223772761Y-135998190D01*
X223820380Y-136141047D01*
X223820380Y-136236285D01*
X223820380Y-134855333D02*
X223820380Y-135426761D01*
X223820380Y-135141047D02*
X222820380Y-135141047D01*
X222963238Y-135236285D01*
X223058476Y-135331523D01*
X223106095Y-135426761D01*
X260118666Y-108006380D02*
X260118666Y-108720666D01*
X260071047Y-108863523D01*
X259975809Y-108958761D01*
X259832952Y-109006380D01*
X259737714Y-109006380D01*
X260499619Y-108006380D02*
X261118666Y-108006380D01*
X260785333Y-108387333D01*
X260928190Y-108387333D01*
X261023428Y-108434952D01*
X261071047Y-108482571D01*
X261118666Y-108577809D01*
X261118666Y-108815904D01*
X261071047Y-108911142D01*
X261023428Y-108958761D01*
X260928190Y-109006380D01*
X260642476Y-109006380D01*
X260547238Y-108958761D01*
X260499619Y-108911142D01*
X205504380Y-103851333D02*
X206218666Y-103851333D01*
X206361523Y-103898952D01*
X206456761Y-103994190D01*
X206504380Y-104137047D01*
X206504380Y-104232285D01*
X205599619Y-103422761D02*
X205552000Y-103375142D01*
X205504380Y-103279904D01*
X205504380Y-103041809D01*
X205552000Y-102946571D01*
X205599619Y-102898952D01*
X205694857Y-102851333D01*
X205790095Y-102851333D01*
X205932952Y-102898952D01*
X206504380Y-103470380D01*
X206504380Y-102851333D01*
X240330380Y-111304666D02*
X239854190Y-111638000D01*
X240330380Y-111876095D02*
X239330380Y-111876095D01*
X239330380Y-111495142D01*
X239378000Y-111399904D01*
X239425619Y-111352285D01*
X239520857Y-111304666D01*
X239663714Y-111304666D01*
X239758952Y-111352285D01*
X239806571Y-111399904D01*
X239854190Y-111495142D01*
X239854190Y-111876095D01*
X239758952Y-110733238D02*
X239711333Y-110828476D01*
X239663714Y-110876095D01*
X239568476Y-110923714D01*
X239520857Y-110923714D01*
X239425619Y-110876095D01*
X239378000Y-110828476D01*
X239330380Y-110733238D01*
X239330380Y-110542761D01*
X239378000Y-110447523D01*
X239425619Y-110399904D01*
X239520857Y-110352285D01*
X239568476Y-110352285D01*
X239663714Y-110399904D01*
X239711333Y-110447523D01*
X239758952Y-110542761D01*
X239758952Y-110733238D01*
X239806571Y-110828476D01*
X239854190Y-110876095D01*
X239949428Y-110923714D01*
X240139904Y-110923714D01*
X240235142Y-110876095D01*
X240282761Y-110828476D01*
X240330380Y-110733238D01*
X240330380Y-110542761D01*
X240282761Y-110447523D01*
X240235142Y-110399904D01*
X240139904Y-110352285D01*
X239949428Y-110352285D01*
X239854190Y-110399904D01*
X239806571Y-110447523D01*
X239758952Y-110542761D01*
X241759142Y-111272857D02*
X241806761Y-111320476D01*
X241854380Y-111463333D01*
X241854380Y-111558571D01*
X241806761Y-111701428D01*
X241711523Y-111796666D01*
X241616285Y-111844285D01*
X241425809Y-111891904D01*
X241282952Y-111891904D01*
X241092476Y-111844285D01*
X240997238Y-111796666D01*
X240902000Y-111701428D01*
X240854380Y-111558571D01*
X240854380Y-111463333D01*
X240902000Y-111320476D01*
X240949619Y-111272857D01*
X241854380Y-110320476D02*
X241854380Y-110891904D01*
X241854380Y-110606190D02*
X240854380Y-110606190D01*
X240997238Y-110701428D01*
X241092476Y-110796666D01*
X241140095Y-110891904D01*
X240854380Y-109701428D02*
X240854380Y-109606190D01*
X240902000Y-109510952D01*
X240949619Y-109463333D01*
X241044857Y-109415714D01*
X241235333Y-109368095D01*
X241473428Y-109368095D01*
X241663904Y-109415714D01*
X241759142Y-109463333D01*
X241806761Y-109510952D01*
X241854380Y-109606190D01*
X241854380Y-109701428D01*
X241806761Y-109796666D01*
X241759142Y-109844285D01*
X241663904Y-109891904D01*
X241473428Y-109939523D01*
X241235333Y-109939523D01*
X241044857Y-109891904D01*
X240949619Y-109844285D01*
X240902000Y-109796666D01*
X240854380Y-109701428D01*
X245412380Y-121043904D02*
X246221904Y-121043904D01*
X246317142Y-120996285D01*
X246364761Y-120948666D01*
X246412380Y-120853428D01*
X246412380Y-120662952D01*
X246364761Y-120567714D01*
X246317142Y-120520095D01*
X246221904Y-120472476D01*
X245412380Y-120472476D01*
X245507619Y-120043904D02*
X245460000Y-119996285D01*
X245412380Y-119901047D01*
X245412380Y-119662952D01*
X245460000Y-119567714D01*
X245507619Y-119520095D01*
X245602857Y-119472476D01*
X245698095Y-119472476D01*
X245840952Y-119520095D01*
X246412380Y-120091523D01*
X246412380Y-119472476D01*
X217789880Y-120916904D02*
X218599404Y-120916904D01*
X218694642Y-120869285D01*
X218742261Y-120821666D01*
X218789880Y-120726428D01*
X218789880Y-120535952D01*
X218742261Y-120440714D01*
X218694642Y-120393095D01*
X218599404Y-120345476D01*
X217789880Y-120345476D01*
X218789880Y-119345476D02*
X218789880Y-119916904D01*
X218789880Y-119631190D02*
X217789880Y-119631190D01*
X217932738Y-119726428D01*
X218027976Y-119821666D01*
X218075595Y-119916904D01*
X235139333Y-114986380D02*
X234806000Y-114510190D01*
X234567904Y-114986380D02*
X234567904Y-113986380D01*
X234948857Y-113986380D01*
X235044095Y-114034000D01*
X235091714Y-114081619D01*
X235139333Y-114176857D01*
X235139333Y-114319714D01*
X235091714Y-114414952D01*
X235044095Y-114462571D01*
X234948857Y-114510190D01*
X234567904Y-114510190D01*
X236044095Y-113986380D02*
X235567904Y-113986380D01*
X235520285Y-114462571D01*
X235567904Y-114414952D01*
X235663142Y-114367333D01*
X235901238Y-114367333D01*
X235996476Y-114414952D01*
X236044095Y-114462571D01*
X236091714Y-114557809D01*
X236091714Y-114795904D01*
X236044095Y-114891142D01*
X235996476Y-114938761D01*
X235901238Y-114986380D01*
X235663142Y-114986380D01*
X235567904Y-114938761D01*
X235520285Y-114891142D01*
X238044380Y-113082666D02*
X237568190Y-113416000D01*
X238044380Y-113654095D02*
X237044380Y-113654095D01*
X237044380Y-113273142D01*
X237092000Y-113177904D01*
X237139619Y-113130285D01*
X237234857Y-113082666D01*
X237377714Y-113082666D01*
X237472952Y-113130285D01*
X237520571Y-113177904D01*
X237568190Y-113273142D01*
X237568190Y-113654095D01*
X237044380Y-112225523D02*
X237044380Y-112416000D01*
X237092000Y-112511238D01*
X237139619Y-112558857D01*
X237282476Y-112654095D01*
X237472952Y-112701714D01*
X237853904Y-112701714D01*
X237949142Y-112654095D01*
X237996761Y-112606476D01*
X238044380Y-112511238D01*
X238044380Y-112320761D01*
X237996761Y-112225523D01*
X237949142Y-112177904D01*
X237853904Y-112130285D01*
X237615809Y-112130285D01*
X237520571Y-112177904D01*
X237472952Y-112225523D01*
X237425333Y-112320761D01*
X237425333Y-112511238D01*
X237472952Y-112606476D01*
X237520571Y-112654095D01*
X237615809Y-112701714D01*
X236409333Y-126322380D02*
X236076000Y-125846190D01*
X235837904Y-126322380D02*
X235837904Y-125322380D01*
X236218857Y-125322380D01*
X236314095Y-125370000D01*
X236361714Y-125417619D01*
X236409333Y-125512857D01*
X236409333Y-125655714D01*
X236361714Y-125750952D01*
X236314095Y-125798571D01*
X236218857Y-125846190D01*
X235837904Y-125846190D01*
X236742666Y-125322380D02*
X237409333Y-125322380D01*
X236980761Y-126322380D01*
X207707333Y-114732380D02*
X207374000Y-114256190D01*
X207135904Y-114732380D02*
X207135904Y-113732380D01*
X207516857Y-113732380D01*
X207612095Y-113780000D01*
X207659714Y-113827619D01*
X207707333Y-113922857D01*
X207707333Y-114065714D01*
X207659714Y-114160952D01*
X207612095Y-114208571D01*
X207516857Y-114256190D01*
X207135904Y-114256190D01*
X208659714Y-114732380D02*
X208088285Y-114732380D01*
X208374000Y-114732380D02*
X208374000Y-113732380D01*
X208278761Y-113875238D01*
X208183523Y-113970476D01*
X208088285Y-114018095D01*
X212390380Y-111050666D02*
X211914190Y-111384000D01*
X212390380Y-111622095D02*
X211390380Y-111622095D01*
X211390380Y-111241142D01*
X211438000Y-111145904D01*
X211485619Y-111098285D01*
X211580857Y-111050666D01*
X211723714Y-111050666D01*
X211818952Y-111098285D01*
X211866571Y-111145904D01*
X211914190Y-111241142D01*
X211914190Y-111622095D01*
X211723714Y-110193523D02*
X212390380Y-110193523D01*
X211342761Y-110431619D02*
X212057047Y-110669714D01*
X212057047Y-110050666D01*
X210612380Y-112574666D02*
X210136190Y-112908000D01*
X210612380Y-113146095D02*
X209612380Y-113146095D01*
X209612380Y-112765142D01*
X209660000Y-112669904D01*
X209707619Y-112622285D01*
X209802857Y-112574666D01*
X209945714Y-112574666D01*
X210040952Y-112622285D01*
X210088571Y-112669904D01*
X210136190Y-112765142D01*
X210136190Y-113146095D01*
X209707619Y-112193714D02*
X209660000Y-112146095D01*
X209612380Y-112050857D01*
X209612380Y-111812761D01*
X209660000Y-111717523D01*
X209707619Y-111669904D01*
X209802857Y-111622285D01*
X209898095Y-111622285D01*
X210040952Y-111669904D01*
X210612380Y-112241333D01*
X210612380Y-111622285D01*
X209586833Y-126322380D02*
X209253500Y-125846190D01*
X209015404Y-126322380D02*
X209015404Y-125322380D01*
X209396357Y-125322380D01*
X209491595Y-125370000D01*
X209539214Y-125417619D01*
X209586833Y-125512857D01*
X209586833Y-125655714D01*
X209539214Y-125750952D01*
X209491595Y-125798571D01*
X209396357Y-125846190D01*
X209015404Y-125846190D01*
X209920166Y-125322380D02*
X210539214Y-125322380D01*
X210205880Y-125703333D01*
X210348738Y-125703333D01*
X210443976Y-125750952D01*
X210491595Y-125798571D01*
X210539214Y-125893809D01*
X210539214Y-126131904D01*
X210491595Y-126227142D01*
X210443976Y-126274761D01*
X210348738Y-126322380D01*
X210063023Y-126322380D01*
X209967785Y-126274761D01*
X209920166Y-126227142D01*
X256475333Y-120480380D02*
X255999142Y-120480380D01*
X255999142Y-119480380D01*
X256761047Y-119575619D02*
X256808666Y-119528000D01*
X256903904Y-119480380D01*
X257142000Y-119480380D01*
X257237238Y-119528000D01*
X257284857Y-119575619D01*
X257332476Y-119670857D01*
X257332476Y-119766095D01*
X257284857Y-119908952D01*
X256713428Y-120480380D01*
X257332476Y-120480380D01*
X229043333Y-120734380D02*
X228567142Y-120734380D01*
X228567142Y-119734380D01*
X229900476Y-120734380D02*
X229329047Y-120734380D01*
X229614761Y-120734380D02*
X229614761Y-119734380D01*
X229519523Y-119877238D01*
X229424285Y-119972476D01*
X229329047Y-120020095D01*
X252582380Y-124068095D02*
X251582380Y-124068095D01*
X251582380Y-123830000D01*
X251630000Y-123687142D01*
X251725238Y-123591904D01*
X251820476Y-123544285D01*
X252010952Y-123496666D01*
X252153809Y-123496666D01*
X252344285Y-123544285D01*
X252439523Y-123591904D01*
X252534761Y-123687142D01*
X252582380Y-123830000D01*
X252582380Y-124068095D01*
X251677619Y-123115714D02*
X251630000Y-123068095D01*
X251582380Y-122972857D01*
X251582380Y-122734761D01*
X251630000Y-122639523D01*
X251677619Y-122591904D01*
X251772857Y-122544285D01*
X251868095Y-122544285D01*
X252010952Y-122591904D01*
X252582380Y-123163333D01*
X252582380Y-122544285D01*
X225658380Y-124068095D02*
X224658380Y-124068095D01*
X224658380Y-123830000D01*
X224706000Y-123687142D01*
X224801238Y-123591904D01*
X224896476Y-123544285D01*
X225086952Y-123496666D01*
X225229809Y-123496666D01*
X225420285Y-123544285D01*
X225515523Y-123591904D01*
X225610761Y-123687142D01*
X225658380Y-123830000D01*
X225658380Y-124068095D01*
X225658380Y-122544285D02*
X225658380Y-123115714D01*
X225658380Y-122830000D02*
X224658380Y-122830000D01*
X224801238Y-122925238D01*
X224896476Y-123020476D01*
X224944095Y-123115714D01*
X260301142Y-122988666D02*
X260348761Y-123036285D01*
X260396380Y-123179142D01*
X260396380Y-123274380D01*
X260348761Y-123417238D01*
X260253523Y-123512476D01*
X260158285Y-123560095D01*
X259967809Y-123607714D01*
X259824952Y-123607714D01*
X259634476Y-123560095D01*
X259539238Y-123512476D01*
X259444000Y-123417238D01*
X259396380Y-123274380D01*
X259396380Y-123179142D01*
X259444000Y-123036285D01*
X259491619Y-122988666D01*
X260396380Y-122512476D02*
X260396380Y-122322000D01*
X260348761Y-122226761D01*
X260301142Y-122179142D01*
X260158285Y-122083904D01*
X259967809Y-122036285D01*
X259586857Y-122036285D01*
X259491619Y-122083904D01*
X259444000Y-122131523D01*
X259396380Y-122226761D01*
X259396380Y-122417238D01*
X259444000Y-122512476D01*
X259491619Y-122560095D01*
X259586857Y-122607714D01*
X259824952Y-122607714D01*
X259920190Y-122560095D01*
X259967809Y-122512476D01*
X260015428Y-122417238D01*
X260015428Y-122226761D01*
X259967809Y-122131523D01*
X259920190Y-122083904D01*
X259824952Y-122036285D01*
X246839142Y-126036666D02*
X246886761Y-126084285D01*
X246934380Y-126227142D01*
X246934380Y-126322380D01*
X246886761Y-126465238D01*
X246791523Y-126560476D01*
X246696285Y-126608095D01*
X246505809Y-126655714D01*
X246362952Y-126655714D01*
X246172476Y-126608095D01*
X246077238Y-126560476D01*
X245982000Y-126465238D01*
X245934380Y-126322380D01*
X245934380Y-126227142D01*
X245982000Y-126084285D01*
X246029619Y-126036666D01*
X245934380Y-125179523D02*
X245934380Y-125370000D01*
X245982000Y-125465238D01*
X246029619Y-125512857D01*
X246172476Y-125608095D01*
X246362952Y-125655714D01*
X246743904Y-125655714D01*
X246839142Y-125608095D01*
X246886761Y-125560476D01*
X246934380Y-125465238D01*
X246934380Y-125274761D01*
X246886761Y-125179523D01*
X246839142Y-125131904D01*
X246743904Y-125084285D01*
X246505809Y-125084285D01*
X246410571Y-125131904D01*
X246362952Y-125179523D01*
X246315333Y-125274761D01*
X246315333Y-125465238D01*
X246362952Y-125560476D01*
X246410571Y-125608095D01*
X246505809Y-125655714D01*
X244283333Y-127751142D02*
X244235714Y-127798761D01*
X244092857Y-127846380D01*
X243997619Y-127846380D01*
X243854761Y-127798761D01*
X243759523Y-127703523D01*
X243711904Y-127608285D01*
X243664285Y-127417809D01*
X243664285Y-127274952D01*
X243711904Y-127084476D01*
X243759523Y-126989238D01*
X243854761Y-126894000D01*
X243997619Y-126846380D01*
X244092857Y-126846380D01*
X244235714Y-126894000D01*
X244283333Y-126941619D01*
X244854761Y-127274952D02*
X244759523Y-127227333D01*
X244711904Y-127179714D01*
X244664285Y-127084476D01*
X244664285Y-127036857D01*
X244711904Y-126941619D01*
X244759523Y-126894000D01*
X244854761Y-126846380D01*
X245045238Y-126846380D01*
X245140476Y-126894000D01*
X245188095Y-126941619D01*
X245235714Y-127036857D01*
X245235714Y-127084476D01*
X245188095Y-127179714D01*
X245140476Y-127227333D01*
X245045238Y-127274952D01*
X244854761Y-127274952D01*
X244759523Y-127322571D01*
X244711904Y-127370190D01*
X244664285Y-127465428D01*
X244664285Y-127655904D01*
X244711904Y-127751142D01*
X244759523Y-127798761D01*
X244854761Y-127846380D01*
X245045238Y-127846380D01*
X245140476Y-127798761D01*
X245188095Y-127751142D01*
X245235714Y-127655904D01*
X245235714Y-127465428D01*
X245188095Y-127370190D01*
X245140476Y-127322571D01*
X245045238Y-127274952D01*
X243521333Y-134609142D02*
X243473714Y-134656761D01*
X243330857Y-134704380D01*
X243235619Y-134704380D01*
X243092761Y-134656761D01*
X242997523Y-134561523D01*
X242949904Y-134466285D01*
X242902285Y-134275809D01*
X242902285Y-134132952D01*
X242949904Y-133942476D01*
X242997523Y-133847238D01*
X243092761Y-133752000D01*
X243235619Y-133704380D01*
X243330857Y-133704380D01*
X243473714Y-133752000D01*
X243521333Y-133799619D01*
X243854666Y-133704380D02*
X244521333Y-133704380D01*
X244092761Y-134704380D01*
X233155142Y-127560666D02*
X233202761Y-127608285D01*
X233250380Y-127751142D01*
X233250380Y-127846380D01*
X233202761Y-127989238D01*
X233107523Y-128084476D01*
X233012285Y-128132095D01*
X232821809Y-128179714D01*
X232678952Y-128179714D01*
X232488476Y-128132095D01*
X232393238Y-128084476D01*
X232298000Y-127989238D01*
X232250380Y-127846380D01*
X232250380Y-127751142D01*
X232298000Y-127608285D01*
X232345619Y-127560666D01*
X232583714Y-126703523D02*
X233250380Y-126703523D01*
X232202761Y-126941619D02*
X232917047Y-127179714D01*
X232917047Y-126560666D01*
X219661142Y-125782666D02*
X219708761Y-125830285D01*
X219756380Y-125973142D01*
X219756380Y-126068380D01*
X219708761Y-126211238D01*
X219613523Y-126306476D01*
X219518285Y-126354095D01*
X219327809Y-126401714D01*
X219184952Y-126401714D01*
X218994476Y-126354095D01*
X218899238Y-126306476D01*
X218804000Y-126211238D01*
X218756380Y-126068380D01*
X218756380Y-125973142D01*
X218804000Y-125830285D01*
X218851619Y-125782666D01*
X219756380Y-124830285D02*
X219756380Y-125401714D01*
X219756380Y-125116000D02*
X218756380Y-125116000D01*
X218899238Y-125211238D01*
X218994476Y-125306476D01*
X219042095Y-125401714D01*
X216597333Y-128005142D02*
X216549714Y-128052761D01*
X216406857Y-128100380D01*
X216311619Y-128100380D01*
X216168761Y-128052761D01*
X216073523Y-127957523D01*
X216025904Y-127862285D01*
X215978285Y-127671809D01*
X215978285Y-127528952D01*
X216025904Y-127338476D01*
X216073523Y-127243238D01*
X216168761Y-127148000D01*
X216311619Y-127100380D01*
X216406857Y-127100380D01*
X216549714Y-127148000D01*
X216597333Y-127195619D01*
X216930666Y-127100380D02*
X217549714Y-127100380D01*
X217216380Y-127481333D01*
X217359238Y-127481333D01*
X217454476Y-127528952D01*
X217502095Y-127576571D01*
X217549714Y-127671809D01*
X217549714Y-127909904D01*
X217502095Y-128005142D01*
X217454476Y-128052761D01*
X217359238Y-128100380D01*
X217073523Y-128100380D01*
X216978285Y-128052761D01*
X216930666Y-128005142D01*
X216089333Y-135657142D02*
X216041714Y-135704761D01*
X215898857Y-135752380D01*
X215803619Y-135752380D01*
X215660761Y-135704761D01*
X215565523Y-135609523D01*
X215517904Y-135514285D01*
X215470285Y-135323809D01*
X215470285Y-135180952D01*
X215517904Y-134990476D01*
X215565523Y-134895238D01*
X215660761Y-134800000D01*
X215803619Y-134752380D01*
X215898857Y-134752380D01*
X216041714Y-134800000D01*
X216089333Y-134847619D01*
X216470285Y-134847619D02*
X216517904Y-134800000D01*
X216613142Y-134752380D01*
X216851238Y-134752380D01*
X216946476Y-134800000D01*
X216994095Y-134847619D01*
X217041714Y-134942857D01*
X217041714Y-135038095D01*
X216994095Y-135180952D01*
X216422666Y-135752380D01*
X217041714Y-135752380D01*
X214073142Y-111050666D02*
X214120761Y-111098285D01*
X214168380Y-111241142D01*
X214168380Y-111336380D01*
X214120761Y-111479238D01*
X214025523Y-111574476D01*
X213930285Y-111622095D01*
X213739809Y-111669714D01*
X213596952Y-111669714D01*
X213406476Y-111622095D01*
X213311238Y-111574476D01*
X213216000Y-111479238D01*
X213168380Y-111336380D01*
X213168380Y-111241142D01*
X213216000Y-111098285D01*
X213263619Y-111050666D01*
X213168380Y-110145904D02*
X213168380Y-110622095D01*
X213644571Y-110669714D01*
X213596952Y-110622095D01*
X213549333Y-110526857D01*
X213549333Y-110288761D01*
X213596952Y-110193523D01*
X213644571Y-110145904D01*
X213739809Y-110098285D01*
X213977904Y-110098285D01*
X214073142Y-110145904D01*
X214120761Y-110193523D01*
X214168380Y-110288761D01*
X214168380Y-110526857D01*
X214120761Y-110622095D01*
X214073142Y-110669714D01*
X239032380Y-143221333D02*
X239746666Y-143221333D01*
X239889523Y-143268952D01*
X239984761Y-143364190D01*
X240032380Y-143507047D01*
X240032380Y-143602285D01*
X239365714Y-142316571D02*
X240032380Y-142316571D01*
X238984761Y-142554666D02*
X239699047Y-142792761D01*
X239699047Y-142173714D01*
X228364380Y-102708333D02*
X229078666Y-102708333D01*
X229221523Y-102755952D01*
X229316761Y-102851190D01*
X229364380Y-102994047D01*
X229364380Y-103089285D01*
X228364380Y-101755952D02*
X228364380Y-102232142D01*
X228840571Y-102279761D01*
X228792952Y-102232142D01*
X228745333Y-102136904D01*
X228745333Y-101898809D01*
X228792952Y-101803571D01*
X228840571Y-101755952D01*
X228935809Y-101708333D01*
X229173904Y-101708333D01*
X229269142Y-101755952D01*
X229316761Y-101803571D01*
X229364380Y-101898809D01*
X229364380Y-102136904D01*
X229316761Y-102232142D01*
X229269142Y-102279761D01*
X228364380Y-106391333D02*
X229078666Y-106391333D01*
X229221523Y-106438952D01*
X229316761Y-106534190D01*
X229364380Y-106677047D01*
X229364380Y-106772285D01*
X228364380Y-105486571D02*
X228364380Y-105677047D01*
X228412000Y-105772285D01*
X228459619Y-105819904D01*
X228602476Y-105915142D01*
X228792952Y-105962761D01*
X229173904Y-105962761D01*
X229269142Y-105915142D01*
X229316761Y-105867523D01*
X229364380Y-105772285D01*
X229364380Y-105581809D01*
X229316761Y-105486571D01*
X229269142Y-105438952D01*
X229173904Y-105391333D01*
X228935809Y-105391333D01*
X228840571Y-105438952D01*
X228792952Y-105486571D01*
X228745333Y-105581809D01*
X228745333Y-105772285D01*
X228792952Y-105867523D01*
X228840571Y-105915142D01*
X228935809Y-105962761D01*
X221423380Y-102581333D02*
X222137666Y-102581333D01*
X222280523Y-102628952D01*
X222375761Y-102724190D01*
X222423380Y-102867047D01*
X222423380Y-102962285D01*
X221423380Y-102200380D02*
X221423380Y-101533714D01*
X222423380Y-101962285D01*
M02*
